<svg viewBox="0 0 24 26" xmlns="http://www.w3.org/2000/svg" xmlns:serif="http://www.serif.com/" fill-rule="evenodd" clip-rule="evenodd" stroke-linejoin="round" stroke-miterlimit="1.414"><g transform="translate(-1100.871 -3063.658) scale(1.04348)"><path d="M1074.42 2936h2.08c.83 0 1.5.67 1.5 1.5v21c0 .8-.63 1.45-1.5 1.5h-18l-.39-.08 16.31-23.92z" fill="#8393a7"/><clipPath id="a"><path d="M1074.42 2936h2.08c.83 0 1.5.67 1.5 1.5v21c0 .8-.63 1.45-1.5 1.5h-18l-.39-.08 16.31-23.92z"/></clipPath><g clip-path="url(#a)"><path d="M1074.25 2949.498h-7.5a.75.75 0 1 1 0-1.5h7.5a.75.75 0 1 1 0 1.5zm0-3h-7.5a.75.75 0 1 1 0-1.5h7.5a.75.75 0 1 1 0 1.5zm0-3h-7.5a.75.75 0 1 1 0-1.5h7.5a.75.75 0 1 1 0 1.5zm-10.5 9a.75.75 0 1 1 0-1.5.75.75 0 0 1 0 1.5zm0-3a.75.75 0 1 1 0-1.5.75.75 0 0 1 0 1.5zm0-3a.75.75 0 1 1 0-1.5.75.75 0 0 1 0 1.5zm0-3a.75.75 0 1 1 0-1.5.75.75 0 0 1 0 1.5zm3 7.5h7.5a.75.75 0 1 1 0 1.5h-7.5a.75.75 0 1 1 0-1.5z" fill="#ebeff3" serif:id="List Icon"/></g></g><g transform="translate(-23.5 -709.478)"><path d="M43.765 709.478H27.152c-.864 0-1.565.701-1.565 1.565v2.609h1.043a2.087 2.087 0 1 1 0 4.174h-1.043v2.087h1.043a2.087 2.087 0 0 1 0 4.174h-1.043v2.087h1.043a2.087 2.087 0 1 1 0 4.174h-1.043v2.608c0 .728.497 1.34 1.159 1.484" fill="#53657d"/><clipPath id="b"><path d="M43.765 709.478H27.152c-.864 0-1.565.701-1.565 1.565v2.609h1.043a2.087 2.087 0 1 1 0 4.174h-1.043v2.087h1.043a2.087 2.087 0 0 1 0 4.174h-1.043v2.087h1.043a2.087 2.087 0 1 1 0 4.174h-1.043v2.608c0 .728.497 1.34 1.159 1.484"/></clipPath><g clip-path="url(#b)"><path d="M43.587 723.565h-7.826a.782.782 0 1 1 0-1.565h7.826a.782.782 0 1 1 0 1.565zm0-3.13h-7.826a.782.782 0 1 1 0-1.565h7.826a.782.782 0 1 1 0 1.565zm0-3.13h-7.826a.782.782 0 1 1 0-1.566h7.826a.782.782 0 1 1 0 1.565zm-10.957 9.39a.782.782 0 1 1 0-1.564.782.782 0 0 1 0 1.565zm0-3.13a.782.782 0 1 1 0-1.564.782.782 0 0 1 0 1.564zm0-3.13a.782.782 0 1 1 0-1.565.782.782 0 0 1 0 1.565zm0-3.13a.782.782 0 1 1 0-1.565.782.782 0 0 1 0 1.564zm3.13 7.826h7.827a.782.782 0 1 1 0 1.565h-7.826a.782.782 0 1 1 0-1.565z" fill="#ebeff3" serif:id="List Icon"/></g></g><path d="M3.13 19.826c.631-.056 1.044-.501 1.044-1.043 0-.576-.467-1.044-1.044-1.044H1.043a1.044 1.044 0 0 0 0 2.087H3.13zM3.13 13.565c.631-.056 1.044-.501 1.044-1.043 0-.576-.467-1.043-1.044-1.043H1.043a1.043 1.043 0 0 0 0 2.086H3.13zM3.13 7.305c.631-.056 1.044-.502 1.044-1.044 0-.576-.467-1.043-1.044-1.043H1.043a1.043 1.043 0 0 0 0 2.087H3.13z" fill="#8393a7"/></svg>