<svg viewBox="0 0 24 26" xmlns="http://www.w3.org/2000/svg" fill-rule="evenodd" clip-rule="evenodd" stroke-linejoin="round" stroke-miterlimit="1.414"><path d="M21.602 0l-4.051 6.261h-5.29c-.486.056-.783.384-.783.782 0 .433.351.783.783.783h4.278l-1.013 1.565h-3.265c-.486.056-.783.385-.783.783 0 .432.351.783.783.783h2.252L13.5 12.522h-1.239c-.486.056-.783.384-.783.782 0 .433.351.783.783.783h.226L5.398 25.044H3.652a1.566 1.566 0 0 1-1.565-1.566V20.87H3.13a2.087 2.087 0 1 0 0-4.174H2.087v-2.087H3.13a2.087 2.087 0 0 0 0-4.174H2.087V8.348H3.13a2.087 2.087 0 1 0 0-4.174H2.087V1.565C2.087.701 2.788 0 3.652 0h17.95z" fill="#53657d"/><path d="M21.602 0h.833C23.299 0 24 .701 24 1.565v21.913c0 .808-.612 1.473-1.565 1.566H5.398l7.089-10.957h7.6c.432 0 .783-.35.783-.783 0-.398-.298-.726-.783-.782H13.5l1.013-1.565h5.574a.784.784 0 0 0 .783-.783c0-.398-.298-.727-.783-.783h-4.561l1.013-1.565h3.548c.432 0 .783-.35.783-.783 0-.398-.298-.726-.783-.782h-2.536L21.602 0zM3.13 19.826c.631-.056 1.044-.501 1.044-1.043 0-.576-.467-1.044-1.044-1.044H1.043a1.044 1.044 0 0 0 0 2.087H3.13zM3.13 13.565c.631-.056 1.044-.501 1.044-1.043 0-.576-.467-1.043-1.044-1.043H1.043a1.043 1.043 0 0 0 0 2.086H3.13zM3.13 7.305c.631-.056 1.044-.502 1.044-1.044 0-.576-.467-1.043-1.044-1.043H1.043a1.043 1.043 0 0 0 0 2.087H3.13z" fill="#8393a7"/></svg>