<?xml version="1.0" encoding="UTF-8" standalone="no"?>
<!DOCTYPE svg PUBLIC "-//W3C//DTD SVG 1.1//EN" "http://www.w3.org/Graphics/SVG/1.1/DTD/svg11.dtd">
<svg width="100%" height="100%" viewBox="0 0 24 25" version="1.1" xmlns="http://www.w3.org/2000/svg" xmlns:xlink="http://www.w3.org/1999/xlink" xml:space="preserve" xmlns:serif="http://www.serif.com/" style="fill-rule:evenodd;clip-rule:evenodd;stroke-linejoin:round;stroke-miterlimit:1.41421;">
    <g transform="matrix(1,0,0,1,-476,-276)">
        <g transform="matrix(1,0,0,0.92308,325.5,-1398.47)">
            <g transform="matrix(1.14309,0,0,1.083,-185.569,-1842.2)">
                <path d="M305.553,3381.72L314.322,3386.83C314.752,3387.08 314.996,3387.5 314.996,3388C314.996,3388.49 314.752,3388.92 314.322,3389.17L298.574,3398.34L305.553,3381.72Z" style="fill:rgb(131,147,167);"/>
            </g>
            <g transform="matrix(1,0,0,1,127,1606)">
                <path d="M28.729,232.202L25.845,233.794C25.348,234.066 24.782,234.07 24.283,233.8C23.784,233.531 23.5,233.069 23.5,232.527L23.5,209.474C23.5,208.932 23.784,208.47 24.283,208.201C24.782,207.931 25.348,207.934 25.845,208.208L36.706,214.202L28.729,232.202Z" style="fill:rgb(83,101,125);"/>
            </g>
        </g>
    </g>
</svg>
