<svg viewBox="0 0 24 26" xmlns="http://www.w3.org/2000/svg" fill-rule="evenodd" clip-rule="evenodd" stroke-linejoin="round" stroke-miterlimit="1.414"><path d="M.746.235l15.501 12.51L.672 25.696c-.431-.238-.673-.672-.673-1.17V1.481C0 .97.251.528.746.235z" fill="#8393a7"/><path d="M.747.234L.783.201a1.597 1.597 0 0 1 1.562.007L19.763 9.82l-3.515 2.924L.747.234z" fill="#53657d"/><path d="M19.763 9.82l-3.515 2.924 3.956 3.193-17.859 9.857a1.602 1.602 0 0 1-1.562.006l-.111-.102L19.763 9.82z" fill="#adb9c9"/><path d="M19.763 9.82l3.467 1.914c.492.272.77.73.77 1.267 0 .536-.278.995-.77 1.266l-3.026 1.67-3.956-3.193 3.515-2.924z" fill="#c9d3df"/></svg>