<?xml version="1.0" encoding="UTF-8" standalone="no"?><!DOCTYPE svg PUBLIC "-//W3C//DTD SVG 1.1//EN" "http://www.w3.org/Graphics/SVG/1.1/DTD/svg11.dtd"><svg width="100%" height="100%" viewBox="0 0 24 24" version="1.1" xmlns="http://www.w3.org/2000/svg" xmlns:xlink="http://www.w3.org/1999/xlink" xml:space="preserve" xmlns:serif="http://www.serif.com/" style="fill-rule:evenodd;clip-rule:evenodd;stroke-linecap:round;stroke-linejoin:round;stroke-miterlimit:1;"><g id="bug1"><g id="legs"><path d="M3.679,6.348l2.602,2.494l11.002,0l2.509,-2.494" style="fill:none;stroke:#3e332e;stroke-width:1.5px;"/><path d="M4.75,22.832l0,-4.507l6.986,-3.493l7.014,3.493l0,4.507" style="fill:none;stroke:#3e332e;stroke-width:1.5px;"/><path d="M0.75,15.208l3,0l1,-2.753l14,0l1.042,2.753l2.958,0" style="fill:none;stroke:#3e332e;stroke-width:1.5px;"/></g><g id="head"><path d="M0.75,0.832c0,0 9,-1 11,4c2,-5 11,-4 11,-4" style="fill:none;stroke:#3e332e;stroke-width:1.5px;"/><circle cx="11.75" cy="4.832" r="2" style="fill:#725d57;"/><path d="M11.75,2.832l0,0c1.104,0 2,0.896 2,2c0,1.103 -0.896,2 -2,2l0,0l0,-4Z" style="fill:#54433f;"/></g><g id="body"><ellipse cx="11.75" cy="13.832" rx="5" ry="8" style="fill:#725d57;"/><path d="M11.75,5.832l0,0c2.76,0 5,3.584 5,8c0,4.415 -2.24,8 -5,8l0,0l0,-16Z" style="fill:#54433f;"/><path d="M7.479,9.673c0.878,-2.303 2.463,-3.841 4.271,-3.841c1.808,0 3.393,1.538 4.271,3.841c-1.236,0.734 -2.701,1.159 -4.271,1.159c-1.57,0 -3.035,-0.425 -4.271,-1.159Z" style="fill:#3e332e;"/></g></g></svg>