<?xml version="1.0" encoding="UTF-8" standalone="no"?><!DOCTYPE svg PUBLIC "-//W3C//DTD SVG 1.1//EN" "http://www.w3.org/Graphics/SVG/1.1/DTD/svg11.dtd"><svg width="100%" height="100%" viewBox="0 0 24 24" version="1.1" xmlns="http://www.w3.org/2000/svg" xmlns:xlink="http://www.w3.org/1999/xlink" xml:space="preserve" xmlns:serif="http://www.serif.com/" style="fill-rule:evenodd;clip-rule:evenodd;stroke-linecap:round;stroke-linejoin:round;stroke-miterlimit:1;"><g id="bug2"><g id="legs"><path d="M5.75,0.75l-2,4l8.001,6l7.999,-6l-2,-4" style="fill:none;stroke:#3e332e;stroke-width:1.5px;"/><path d="M0.751,22.75l1.999,-2l0,-4l9,-3l9,3l0,4l2.001,2" style="fill:none;stroke:#3e332e;stroke-width:1.5px;"/><path d="M0.75,7.75l1,4l10.001,2l10.042,-2l0.957,-4" style="fill:none;stroke:#3e332e;stroke-width:1.5px;"/></g><g id="head"><circle cx="11.75" cy="4.25" r="3.5" style="fill:#54433f;"/><path d="M11.749,0.75l0.001,0c1.932,0 3.5,1.568 3.5,3.5c0,1.932 -1.568,3.5 -3.5,3.5l-0.001,0l0,-7Z" style="fill:#3e332e;"/></g><g id="body"><path d="M11.75,4.25c3.863,0 7.5,4.809 7.5,9.5c0,4.691 -2.5,7 -7.5,7c-5,0 -7.5,-2.309 -7.5,-7c0,-4.691 3.636,-9.5 7.5,-9.5Z" style="fill:#725d57;"/><path d="M11.75,4.25c3.863,0 7.5,4.809 7.5,9.5c0,4.691 -2.5,7 -7.5,7l0,-16.5Z" style="fill:#54433f;"/><path d="M11.75,9.75c2.575,0 5,3.206 5,6.333c0,3.128 -1.667,4.667 -5,4.667c-3.333,0 -5,-1.539 -5,-4.667c0,-3.127 2.424,-6.333 5,-6.333Z" style="fill:#3e332e;"/></g></g></svg>