<?xml version="1.0" encoding="UTF-8" standalone="no"?><!DOCTYPE svg PUBLIC "-//W3C//DTD SVG 1.1//EN" "http://www.w3.org/Graphics/SVG/1.1/DTD/svg11.dtd"><svg width="100%" height="100%" viewBox="0 0 24 24" version="1.1" xmlns="http://www.w3.org/2000/svg" xmlns:xlink="http://www.w3.org/1999/xlink" xml:space="preserve" xmlns:serif="http://www.serif.com/" style="fill-rule:evenodd;clip-rule:evenodd;stroke-linecap:round;stroke-linejoin:round;stroke-miterlimit:1;"><g id="bug3"><g id="legs"><path d="M1.75,5.75l3,3l14,0l2.999,-3" style="fill:none;stroke:#3e332e;stroke-width:1.5px;"/><path d="M0.75,15.75l2,0l1,-3l16,0l1,3l2,0" style="fill:none;stroke:#3e332e;stroke-width:1.5px;"/><path d="M3.75,22.75l0,-4l8,-5l8,5l0,4" style="fill:none;stroke:#3e332e;stroke-width:1.5px;"/></g><g id="head"><path d="M9.75,0.75l-2,1l1,2l3,2l3,-2l1,-2l-2,-1" style="fill:none;stroke:#54433f;stroke-width:1.5px;"/><circle cx="11.75" cy="6.25" r="3.5" style="fill:#3e332e;"/></g><g id="body"><path d="M17.659,9.75c0.059,0.316 0.091,0.65 0.091,1l0,5.5c0,3.036 -2.689,5.5 -6,5.5c-3.311,0 -6,-2.464 -6,-5.5l0,-5.5c0,-0.358 0.022,-0.692 0.063,-1l11.846,0Z" style="fill:#ff9102;"/><path d="M17.659,9.75c0.059,0.316 0.091,0.65 0.091,1l0,5.5c0,3.036 -2.689,5.5 -6,5.5l0,0l0,-12l5.909,0Z" style="fill:#ff641a;"/><path d="M14.75,6.75c1.541,0 2.989,1.626 3,3.972l0,0.028c-3,0 -5.985,-0.028 -6,2c0,-1.752 -3,-2 -6,-1.983l0,-0.017c0,-2.736 1.266,-4 3,-4l6,0Z" style="fill:#54433f;"/></g></g></svg>