<?xml version="1.0" encoding="UTF-8" standalone="no"?><!DOCTYPE svg PUBLIC "-//W3C//DTD SVG 1.1//EN" "http://www.w3.org/Graphics/SVG/1.1/DTD/svg11.dtd"><svg width="100%" height="100%" viewBox="0 0 24 24" version="1.1" xmlns="http://www.w3.org/2000/svg" xmlns:xlink="http://www.w3.org/1999/xlink" xml:space="preserve" xmlns:serif="http://www.serif.com/" style="fill-rule:evenodd;clip-rule:evenodd;stroke-linecap:round;stroke-linejoin:round;stroke-miterlimit:1;"><g id="bug4"><g id="legs"><path d="M0.75,16.107l2,0l2,-2l14,0.011l2,1.989l2,0" style="fill:none;stroke:#3e332e;stroke-width:1.5px;"/><path d="M4.751,22.607l0,-4.506l6.985,-3.494l7.015,3.494l0,4.506" style="fill:none;stroke:#3e332e;stroke-width:1.5px;"/><path d="M1.75,8.607l3,3l14,0l3,-3" style="fill:none;stroke:#3e332e;stroke-width:1.5px;"/></g><g id="head"><path d="M14.75,0.107c-1,-0.428 -1.2,0.5 -1,1.5c0,0 1,2 -2,5c-3,-3 -2,-5 -2,-5c0.25,-1 0,-1.928 -1,-1.5c0,0 -3.5,1.5 -3.5,4.5c0,1.917 3.5,5 3.5,7c0,1.901 6,1.901 6,0c0,-2 3.5,-5.083 3.5,-7c0,-3 -3.5,-4.5 -3.5,-4.5Z" style="fill:#54433f;"/><path d="M10.878,5.628c0.244,0.313 0.533,0.64 0.872,0.979c0.34,-0.339 0.628,-0.666 0.872,-0.978c0.082,0.289 0.128,0.623 0.128,0.978c0,1.104 -0.448,2 -1,2c-0.552,0 -1,-0.896 -1,-2c0,-0.355 0.046,-0.689 0.128,-0.979Z" style="fill:#3e332e;"/><path d="M10.972,5.746l0.098,0.119l0.102,0.121l0.106,0.122l0.111,0.123l0.116,0.124l0.12,0.125l0.125,0.127l0.125,-0.126l0.12,-0.126l0.116,-0.124l0.111,-0.123l0.106,-0.122l0.103,-0.12l0.098,-0.119l0.093,-0.118l0.015,0.055l0.014,0.055l0.013,0.057l0.012,0.058l0.012,0.058l0.01,0.06l0.01,0.06l0.009,0.061l0.007,0.062l0.007,0.063l0.006,0.063l0.004,0.064l0.004,0.065l0.003,0.065l0.001,0.066l0.001,0.066l-0.001,0.103l-0.004,0.102l-0.007,0.1l-0.008,0.098l-0.012,0.097l-0.013,0.095l-0.016,0.093l-0.018,0.09l-0.02,0.089l-0.022,0.086l-0.024,0.084l-0.026,0.081l-0.028,0.079l-0.029,0.075l-0.032,0.073l-0.033,0.069l-0.035,0.066l-0.018,0.032l-0.018,0.031l-0.019,0.03l-0.019,0.03l-0.019,0.028l-0.02,0.027l-0.02,0.027l-0.021,0.026l-0.02,0.024l-0.022,0.024l-0.021,0.022l-0.022,0.022l-0.022,0.02l-0.022,0.02l-0.022,0.018l-0.023,0.018l-0.023,0.016l-0.024,0.015l-0.023,0.014l-0.024,0.013l-0.024,0.012l-0.025,0.011l-0.024,0.009l-0.025,0.008l-0.025,0.007l-0.025,0.006l-0.025,0.004l-0.026,0.004l-0.025,0.002l-0.026,0l-0.026,0l-0.025,-0.002l-0.026,-0.004l-0.025,-0.004l-0.025,-0.006l-0.025,-0.007l-0.025,-0.008l-0.024,-0.009l-0.025,-0.011l-0.024,-0.012l-0.024,-0.013l-0.023,-0.014l-0.024,-0.015l-0.023,-0.016l-0.023,-0.018l-0.022,-0.018l-0.022,-0.02l-0.022,-0.02l-0.022,-0.022l-0.021,-0.022l-0.022,-0.024l-0.02,-0.024l-0.021,-0.026l-0.02,-0.027l-0.02,-0.027l-0.019,-0.028l-0.019,-0.03l-0.019,-0.03l-0.018,-0.031l-0.018,-0.032l-0.035,-0.066l-0.033,-0.069l-0.032,-0.073l-0.029,-0.075l-0.028,-0.079l-0.026,-0.081l-0.024,-0.084l-0.022,-0.086l-0.02,-0.089l-0.018,-0.09l-0.016,-0.093l-0.013,-0.095l-0.012,-0.097l-0.008,-0.098l-0.007,-0.1l-0.004,-0.102l-0.001,-0.103l0.001,-0.066l0.001,-0.066l0.003,-0.065l0.004,-0.065l0.004,-0.064l0.006,-0.063l0.007,-0.063l0.007,-0.062l0.009,-0.061l0.01,-0.06l0.01,-0.06l0.012,-0.059l0.012,-0.057l0.013,-0.057l0.014,-0.056l0.015,-0.055l0.094,0.118Z" style="fill:#725d57;"/></g><g id="body"><path d="M11.75,10.607c2,-2 5,-0.756 5,1l0,5c0,2.76 -2.24,5 -5,5c-2.76,0 -5,-2.24 -5,-5l0,-5c0,-1.898 3.006,-2.994 5,-1Z" style="fill:#53e361;"/><path d="M11.75,10.607c2,-2 5,-0.756 5,1l0,5c0,2.76 -2.24,5 -5,5l0,-11Z" style="fill:#00cc71;"/></g></g></svg>