<?xml version="1.0" encoding="UTF-8" standalone="no"?><!DOCTYPE svg PUBLIC "-//W3C//DTD SVG 1.1//EN" "http://www.w3.org/Graphics/SVG/1.1/DTD/svg11.dtd"><svg width="100%" height="100%" viewBox="0 0 18 24" version="1.1" xmlns="http://www.w3.org/2000/svg" xmlns:xlink="http://www.w3.org/1999/xlink" xml:space="preserve" xmlns:serif="http://www.serif.com/" style="fill-rule:evenodd;clip-rule:evenodd;stroke-linecap:round;stroke-linejoin:round;stroke-miterlimit:1;"><g id="bug5"><g id="legs"><path d="M2.749,6.832l2,-1.99l4,5l4,-5l2.043,1.99" style="fill:none;stroke:#463f3f;stroke-width:1.25px;"/><path d="M2.749,17.832l2,-2l0.001,-3l8,0l-0.001,3l2,2" style="fill:none;stroke:#463f3f;stroke-width:1.25px;"/><path d="M2.749,10.832l2,-2l4.022,3l3.978,-3l2,2" style="fill:none;stroke:#463f3f;stroke-width:1.25px;"/><path d="M8.749,16.832l0,6" style="fill:none;stroke:#463f3f;stroke-width:1.25px;"/><path d="M15.749,21.332c0,0 -5,-1 -7,-6c-2,5 -7,6 -7,6" style="fill:none;stroke:#463f3f;stroke-width:1.25px;"/></g><g id="body"><path d="M8.75,5.832c2.999,0 2.5,1.912 2.5,5.5c0,3.587 -1.12,6.5 -2.5,6.5c-1.38,0 -2.5,-2.913 -2.5,-6.5c0,-3.588 -0.501,-5.5 2.5,-5.5Z" style="fill:#766f6e;"/><path d="M8.75,5.832c2.999,0 2.5,1.912 2.5,5.5c0,3.587 -1.12,6.5 -2.5,6.5l0,-12Z" style="fill:#5b5555;"/></g><g id="head"><path d="M0.75,0.832c0,0 6,-1 8,4c2,-5 8,-4 8,-4" style="fill:none;stroke:#766f6e;stroke-width:1.5px;"/><circle cx="8.75" cy="4.832" r="2" style="fill:#5b5555;"/><path d="M8.75,2.832l0,0c1.104,0 2,0.896 2,2c0,1.104 -0.896,2 -2,2l0,0l0,-4Z" style="fill:#463f3f;"/></g></g></svg>