<?xml version="1.0" encoding="UTF-8" standalone="no"?><!DOCTYPE svg PUBLIC "-//W3C//DTD SVG 1.1//EN" "http://www.w3.org/Graphics/SVG/1.1/DTD/svg11.dtd"><svg width="100%" height="100%" viewBox="0 0 24 24" version="1.1" xmlns="http://www.w3.org/2000/svg" xmlns:xlink="http://www.w3.org/1999/xlink" xml:space="preserve" xmlns:serif="http://www.serif.com/" style="fill-rule:evenodd;clip-rule:evenodd;stroke-linecap:round;stroke-linejoin:round;stroke-miterlimit:1;"><g id="bug6"><g id="legs"><path d="M0.75,7.75l3,0l2.532,1.011l11.002,0l2.466,-1.011l3,0" style="fill:none;stroke:#3e332e;stroke-width:1.5px;"/><path d="M1.75,0.75l3,1l6.989,8l7.011,-8l3,-1" style="fill:none;stroke:#3e332e;stroke-width:1.5px;"/><path d="M0.75,16.75l3.001,-2l0,-3l15.999,0l0,3l3,2" style="fill:none;stroke:#3e332e;stroke-width:1.5px;"/></g><g id="body"><path d="M11.717,9.25c-9.967,0.5 -9.967,19.5 0,12.5c10.033,7 10.033,-12 0,-12.5Z" style="fill:#fff7cd;"/><path d="M11.75,9.252c9.989,0.54 9.989,19.448 0,12.521l0,-12.521Z" style="fill:#ffe6b3;"/><path d="M11.717,4.5c-4.169,3.34 -3.795,7.043 0,11c3.765,-3.71 4.314,-7.382 0,-11Z" style="fill:#725d57;"/><path d="M8.746,10.05c0.865,-0.457 1.855,-0.744 2.971,-0.8c1.137,0.057 2.145,0.351 3.025,0.818c-0.105,1.8 -1.178,3.612 -3.025,5.432c-1.801,-1.878 -2.831,-3.698 -2.971,-5.45Z" style="fill:#54433f;"/></g><g id="head"><path d="M11.751,4.75l-0.001,-3" style="fill:none;stroke:#725d57;stroke-width:1.5px;"/><circle cx="10.5" cy="5.75" r="1.25" style="fill:#ff641a;"/><circle cx="13.001" cy="5.75" r="1.25" style="fill:#ff641a;"/></g></g></svg>