<?xml version="1.0" encoding="UTF-8" standalone="no"?>
<!DOCTYPE svg PUBLIC "-//W3C//DTD SVG 1.1//EN" "http://www.w3.org/Graphics/SVG/1.1/DTD/svg11.dtd">
<svg width="100%" height="100%" viewBox="0 0 24 24" version="1.1" xmlns="http://www.w3.org/2000/svg" xmlns:xlink="http://www.w3.org/1999/xlink" xml:space="preserve" xmlns:serif="http://www.serif.com/" style="fill-rule:evenodd;clip-rule:evenodd;stroke-linejoin:round;stroke-miterlimit:1.41421;">
    <g transform="matrix(1,0,0,1,-840.035,-487.99)">
        <g id="calendar">
            <g transform="matrix(0.0624984,0,0,0.0624984,836.035,483.99)">
                <path d="M336.005,64L336.005,96L176.005,96L176.005,64L128.005,64L128.005,96L103.995,96C81.993,96 63.995,113.998 63.995,136L63.995,408C63.995,430.002 81.993,448 103.995,448L408.005,448C430.007,448 448.005,430.002 448.005,408L448.005,136C448.005,113.998 430.007,96 408.005,96L384.005,96L384.005,64L336.005,64ZM408.005,408L103.995,408L103.995,196L408.005,196L408.005,408Z" style="fill:rgb(83,101,125);fill-rule:nonzero;"/>
            </g>
            <g transform="matrix(0.0624984,0,0,0.0624984,836.035,483.99)">
                <rect x="272.005" y="272" width="96" height="96" style="fill:rgb(131,147,167);fill-rule:nonzero;"/>
            </g>
        </g>
    </g>
</svg>
