<?xml version="1.0" encoding="UTF-8" standalone="no"?>
<!DOCTYPE svg PUBLIC "-//W3C//DTD SVG 1.1//EN" "http://www.w3.org/Graphics/SVG/1.1/DTD/svg11.dtd">
<svg width="100%" height="100%" viewBox="0 0 24 24" version="1.1" xmlns="http://www.w3.org/2000/svg" xmlns:xlink="http://www.w3.org/1999/xlink" xml:space="preserve" xmlns:serif="http://www.serif.com/" style="fill-rule:evenodd;clip-rule:evenodd;stroke-linejoin:round;stroke-miterlimit:1.41421;">
    <g transform="matrix(1,0,0,1,-363.993,-488.02)">
        <g id="chat" transform="matrix(1,0,0,1,-346.014,61.9906)">
            <g transform="matrix(1.2,0,0,1.2,707.607,423.629)">
                <path d="M20,2L4,2C2.9,2 2.01,2.9 2.01,4L2,22L6,18L20,18C21.1,18 22,17.1 22,16L22,4C22,2.9 21.1,2 20,2Z" style="fill:rgb(83,101,125);fill-rule:nonzero;"/>
            </g>
            <g transform="matrix(1.2,0,0,1.2,707.607,423.629)">
                <path d="M6,9L18,9L18,11L6,11L6,9ZM14,14L6,14L6,12L14,12L14,14ZM18,8L6,8L6,6L18,6L18,8Z" style="fill:rgb(131,147,167);fill-rule:nonzero;"/>
            </g>
        </g>
    </g>
</svg>
