<?xml version="1.0" encoding="UTF-8" standalone="no"?>
<!DOCTYPE svg PUBLIC "-//W3C//DTD SVG 1.1//EN" "http://www.w3.org/Graphics/SVG/1.1/DTD/svg11.dtd">
<svg width="100%" height="100%" viewBox="0 0 21 24" version="1.1" xmlns="http://www.w3.org/2000/svg" xmlns:xlink="http://www.w3.org/1999/xlink" xml:space="preserve" xmlns:serif="http://www.serif.com/" style="fill-rule:evenodd;clip-rule:evenodd;stroke-linejoin:round;stroke-miterlimit:1.41421;">
    <g transform="matrix(1,0,0,1,-937.714,-488)">
        <g id="chrono" transform="matrix(0.0535714,0,0,0.0535714,941,485.286)">
            <g transform="matrix(0.57704,-0.816716,0.816716,0.57704,-256.626,351.814)">
                <rect x="232" y="213.333" width="48" height="93.334" style="fill:rgb(131,147,167);fill-rule:nonzero;"/>
            </g>
            <g transform="matrix(0.386416,0.922325,-0.922325,0.386416,302.296,-37.4693)">
                <rect x="232" y="176" width="48" height="130.667" style="fill:rgb(131,147,167);fill-rule:nonzero;"/>
            </g>
            <g transform="matrix(1,0,0,1,-125.333,18.6667)">
                <path d="M407.67,170.271L438.456,139.485L404.514,105.544L373.729,136.33C341.217,111.057 300.369,96 256,96C149.961,96 64,181.961 64,288C64,394.039 149.961,480 256,480C362.039,480 448,394.039 448,288C448,243.631 432.943,202.783 407.67,170.271ZM362.066,394.066C333.734,422.398 296.066,438 256,438C215.934,438 178.265,422.398 149.934,394.066C121.602,365.735 106,328.066 106,288C106,247.934 121.602,210.265 149.934,181.934C178.265,153.602 215.934,138 256,138C296.066,138 333.734,153.602 362.066,181.934C390.398,210.265 406,247.934 406,288C406,328.066 390.398,365.735 362.066,394.066Z" style="fill:rgb(83,101,125);fill-rule:nonzero;"/>
            </g>
            <g transform="matrix(1,0,0,1,-125.333,18.6667)">
                <rect x="192" y="32" width="128" height="48" style="fill:rgb(131,147,167);fill-rule:nonzero;"/>
            </g>
        </g>
    </g>
</svg>
