<?xml version="1.0" encoding="UTF-8" standalone="no"?>
<!DOCTYPE svg PUBLIC "-//W3C//DTD SVG 20010904//EN"
              "http://www.w3.org/TR/2001/REC-SVG-20010904/DTD/svg10.dtd">

<svg xmlns="http://www.w3.org/2000/svg" viewBox="0 0 400 200">
  <path id="Selection"
        fill="currentcolor " stroke="black" stroke-width="1"
        d="M 304.00,100.00
           C 320.39,100.00 346.93,95.96 353.21,116.00
             355.12,122.11 355.00,128.68 355.00,135.00
             377.02,135.50 383.00,160.33 373.20,173.99
             366.89,182.79 357.03,183.98 347.00,184.00
             347.00,184.00 60.00,184.00 60.00,184.00
             53.57,183.99 45.53,183.41 40.00,179.87
             28.94,172.78 26.18,155.86 33.13,145.00
             35.53,141.26 38.92,138.31 43.00,136.53
             47.09,134.75 50.21,135.36 51.98,132.69
             53.45,130.47 52.97,123.84 53.00,121.00
             53.05,117.33 53.59,112.54 54.52,109.00
             59.30,90.75 78.18,92.00 93.00,92.00
             93.00,83.89 92.36,71.45 95.13,64.00
             102.24,44.87 128.64,49.03 145.00,49.00
             157.15,48.98 156.83,44.68 167.00,38.87
             174.29,34.71 183.77,31.48 192.00,29.81
             212.97,25.55 238.45,27.29 258.00,36.31
             268.11,40.97 271.98,45.59 276.00,47.70
             282.67,51.21 292.35,48.27 299.87,60.00
             305.53,68.85 304.00,89.23 304.00,100.00 Z" />
</svg>
