<?xml version="1.0" encoding="UTF-8" standalone="no"?>
<!DOCTYPE svg PUBLIC "-//W3C//DTD SVG 1.1//EN" "http://www.w3.org/Graphics/SVG/1.1/DTD/svg11.dtd">
<svg width="100%" height="100%" viewBox="0 0 24 24" version="1.1" xmlns="http://www.w3.org/2000/svg" xmlns:xlink="http://www.w3.org/1999/xlink" xml:space="preserve" xmlns:serif="http://www.serif.com/" style="fill-rule:evenodd;clip-rule:evenodd;stroke-linejoin:round;stroke-miterlimit:1.41421;">
    <g transform="matrix(1,0,0,1,-620.001,-720)">
        <g id="copy-no-comp" serif:id="copy no comp" transform="matrix(1.5,0,0,1.5,-175.666,297.324)">
            <g transform="matrix(0.666667,0,0,0.666667,117.111,-198.216)">
                <path d="M641.757,720C642.981,720 644.001,721.011 644.001,722.257L644.001,741.742C644.001,742.968 643.046,743.95 641.757,744L628.245,744C627.012,743.991 626.003,742.975 626.001,741.742L626.001,737L629.001,737L629.001,741L641.001,741L641.001,723L631.001,723L631.001,720L641.757,720Z" style="fill:rgb(131,147,167);"/>
            </g>
            <g transform="matrix(1.08333,0,0,1.16667,520.695,268.95)">
                <path d="M12,14L9,14L9,16L12,16L12,19L14,19L14,16L17,16L17,14L14,14L14,11L12,11L12,14Z" style="fill:rgb(83,101,125);"/>
            </g>
        </g>
    </g>
</svg>
