<svg viewBox="0 0 24 24" xmlns="http://www.w3.org/2000/svg" fill-rule="evenodd" clip-rule="evenodd" stroke-linejoin="round" stroke-miterlimit="1.414"><path d="M10.498 24H2.244A2.27 2.27 0 0 1 0 21.743V2.258A2.244 2.244 0 0 1 2.244 0h7.884H4.5v3H3v18h1.5v3h5.998zM0 7.5v9h3v-9H0z" fill="#8393a7"/><path d="M24 2.258v19.485A2.244 2.244 0 0 1 21.756 24H8.244A2.27 2.27 0 0 1 6 21.743V2.258A2.244 2.244 0 0 1 8.244 0h13.512A2.26 2.26 0 0 1 24 2.258zM9 3v18h12V3H9zM6 4.5v15h3v-15H6z" fill="#53657d"/><path d="M6 10.5H1.5v3H6V18h3v-4.5h4.5v-3H9V6H6v4.5z" fill="#53657d"/></svg>