<svg viewBox="0 0 25 24" xmlns="http://www.w3.org/2000/svg" xmlns:serif="http://www.serif.com/" fill-rule="evenodd" clip-rule="evenodd" stroke-linejoin="round" stroke-miterlimit="1.414"><path d="M9 22.495v-3c0-.825.672-1.5 1.5-1.5h3c.828 0 1.5.675 1.5 1.5v3c0 .825-.672 1.5-1.5 1.5h-3c-.828 0-1.5-.675-1.5-1.5zm-9-9v-3c0-.825.672-1.5 1.5-1.5h3c.828 0 1.5.675 1.5 1.5v3c0 .825-.672 1.5-1.5 1.5h-3c-.828 0-1.5-.675-1.5-1.5zm0-9v-3c0-.826.672-1.5 1.5-1.5h3c.828 0 1.5.674 1.5 1.5v3c0 .825-.672 1.5-1.5 1.5h-3c-.828 0-1.5-.675-1.5-1.5zm18 0v-3c0-.826.672-1.5 1.5-1.5h3c.828 0 1.5.674 1.5 1.5v3c0 .825-.672 1.5-1.5 1.5h-3c-.828 0-1.5-.675-1.5-1.5z" fill="#8393a7" serif:id="Tiles Small Icon"/><path d="M0 22.495v-3c0-.825.672-1.5 1.5-1.5h3c.828 0 1.5.675 1.5 1.5v3c0 .825-.672 1.5-1.5 1.5h-3c-.828 0-1.5-.675-1.5-1.5zm18 0v-3c0-.825.672-1.5 1.5-1.5h3c.828 0 1.5.675 1.5 1.5v3c0 .825-.672 1.5-1.5 1.5h-3c-.828 0-1.5-.675-1.5-1.5zm-9-9v-3c0-.825.672-1.5 1.5-1.5h3c.828 0 1.5.675 1.5 1.5v3c0 .825-.672 1.5-1.5 1.5h-3c-.828 0-1.5-.675-1.5-1.5zm9 0v-3c0-.825.672-1.5 1.5-1.5h3c.828 0 1.5.675 1.5 1.5v3c0 .825-.672 1.5-1.5 1.5h-3c-.828 0-1.5-.675-1.5-1.5zm-9-9v-3c0-.826.672-1.5 1.5-1.5h3c.828 0 1.5.674 1.5 1.5v3c0 .825-.672 1.5-1.5 1.5h-3c-.828 0-1.5-.675-1.5-1.5z" fill="#53657d" serif:id="Tiles Small Icon"/></svg>