<?xml version="1.0" encoding="UTF-8" standalone="no"?><!DOCTYPE svg PUBLIC "-//W3C//DTD SVG 1.1//EN" "http://www.w3.org/Graphics/SVG/1.1/DTD/svg11.dtd"><svg width="100%" height="100%" viewBox="0 0 18 24" version="1.1" xmlns="http://www.w3.org/2000/svg" xmlns:xlink="http://www.w3.org/1999/xlink" xml:space="preserve" xmlns:serif="http://www.serif.com/" style="fill-rule:evenodd;clip-rule:evenodd;stroke-linejoin:round;stroke-miterlimit:2;"><g id="docs"><path d="M17.086,7.013l0,13.245c0,0.668 -0.228,1.037 -0.45,1.133c-0.635,0.273 -1.28,-0.096 -1.28,-0.751l0,-12.942c0,-0.27 -0.095,-0.528 -0.402,-0.685c-0.307,-0.157 -9.902,-5.202 -9.902,-5.202c-0.154,-0.057 -0.83,-0.483 -1.731,-0.02c-0.856,0.44 -1.322,0.919 -1.441,1.144l10.468,5.735c0.277,0.146 0.449,0.371 0.449,0.66l0,13.823c0,0.294 -0.182,0.609 -0.472,0.748c-0.134,0.067 -0.281,0.099 -0.427,0.099c-0.172,0 -0.346,-0.042 -0.494,-0.133c-0.275,-0.168 -9.947,-6.099 -10.586,-6.484c-0.307,-0.184 -0.667,-0.562 -0.674,-0.842l-0.144,-13.162c0,-0.253 -0.029,-0.7 0.37,-1.321c0.892,-1.387 3.175,-2.613 4.75,-1.795l11.516,5.829c0.277,0.143 0.45,0.43 0.45,0.921Z" style="fill:#53657d;fill-rule:nonzero;"/></g></svg>