<?xml version="1.0" encoding="UTF-8" standalone="no"?>
<!DOCTYPE svg PUBLIC "-//W3C//DTD SVG 1.1//EN" "http://www.w3.org/Graphics/SVG/1.1/DTD/svg11.dtd">
<svg width="100%" height="100%" viewBox="0 0 24 24" version="1.1" xmlns="http://www.w3.org/2000/svg" xmlns:xlink="http://www.w3.org/1999/xlink" xml:space="preserve" xmlns:serif="http://www.serif.com/" style="fill-rule:evenodd;clip-rule:evenodd;stroke-linejoin:round;stroke-miterlimit:1.41421;">
    <g transform="matrix(1,0,0,1,-588,-576)">
        <g id="download" transform="matrix(0.889374,0,0,0.889374,10.3412,141.536)">
            <g transform="matrix(1,0,0,0.826087,0,84.9573)">
                <path d="M655.244,507.236L655.258,510.983C653.105,510.974 651.054,509.265 650.106,506.836C649.349,504.896 649.316,502.552 650,500.564C650.541,498.994 651.505,497.659 652.718,496.856C652.718,496.856 652.814,496.411 652.916,496.064C653.525,493.996 655.044,492.356 656.797,492.041C657.245,491.96 657.702,491.963 658.15,492.045C659.741,489.837 662.05,488.534 664.432,488.505C664.472,488.505 664.512,488.505 664.551,488.505C668.24,488.546 671.729,491.747 672.732,496.362C672.766,496.517 672.808,496.74 672.808,496.74C675.185,497.921 676.766,501.234 676.458,504.448C676.125,507.931 673.68,510.945 670.777,510.983L670.756,507.236C672.279,507.217 673.6,505.314 673.494,503.338C673.41,501.795 672.475,500.347 671.24,500.057L670.121,499.804L669.994,498.37C669.691,495.133 667.404,492.415 664.767,492.259C664.701,492.255 664.634,492.253 664.567,492.252C664.537,492.251 664.508,492.251 664.478,492.251C662.72,492.264 660.998,493.377 659.972,495.19L659.262,496.464C658.448,496.051 657.627,495.473 656.831,495.885C656.125,496.25 655.632,497.179 655.608,498.15L655.588,499.525C654.829,499.829 654.048,500.054 653.456,500.771C652.685,501.703 652.323,503.147 652.589,504.464C652.892,505.964 653.985,507.22 655.244,507.236Z" style="fill:rgb(131,147,167);"/>
            </g>
            <g transform="matrix(1.03273e-16,1.68658,-1.68658,1.03273e-16,691.248,473.607)">
                <path d="M20.5,16.746L15.5,12.746L15.5,20.746L20.5,16.746Z" style="fill:rgb(83,101,125);"/>
            </g>
            <g transform="matrix(1.12439,0,0,1.35098,-11.6275,-252.537)">
                <rect x="589" y="566" width="22" height="2.497" style="fill:rgb(83,101,125);"/>
            </g>
        </g>
    </g>
</svg>
