<?xml version="1.0" encoding="UTF-8" standalone="no"?><!DOCTYPE svg PUBLIC "-//W3C//DTD SVG 1.1//EN" "http://www.w3.org/Graphics/SVG/1.1/DTD/svg11.dtd"><svg width="100%" height="100%" viewBox="-2 0 20 25" version="1.1" xmlns="http://www.w3.org/2000/svg" xmlns:xlink="http://www.w3.org/1999/xlink" xml:space="preserve" xmlns:serif="http://www.serif.com/" style="fill-rule:evenodd;clip-rule:evenodd;stroke-linejoin:round;stroke-miterlimit:2;"><path d="M9,0l0,3l-6,0l0,18l12,0l0,-10l2.999,0l0,-1l0.001,0l0,11.743c0,1.257 -1.005,2.257 -2.244,2.257l-13.512,0c-1.224,0 -2.244,-1.011 -2.244,-2.257l0,-19.485c0,-1.257 1.005,-2.258 2.244,-2.258l6.756,0Zm5.999,10l0.001,0l0,1l-0.001,0l0,-1Z" style="fill:#8393a7;"/><path d="M19.999,0l-9.193,0.707l2.829,2.829l-6.364,6.363l2.828,2.829l6.364,-6.364l2.829,2.828l0.707,-9.192Z" style="fill:#53657d;"/></svg>