<svg viewBox="0 0 24 22" xmlns="http://www.w3.org/2000/svg" fill-rule="evenodd" clip-rule="evenodd" stroke-linejoin="round" stroke-miterlimit="1.414"><path d="M0 21.315c0 .378.27.688.6.688h22.8c.33 0 .6-.31.6-.688v-16.5c0-.378-.27-.687-.6-.687H10.8L7.2.003H.6c-.33 0-.6.309-.6.687v20.625z" fill="#8393a7"/><g transform="matrix(.6 0 0 .6875 0 .69)"><clipPath id="a"><path d="M0-1h32.822L8.575 31H0V-1z"/></clipPath><g clip-path="url(#a)"><path d="M0 30c0 .55.45 1 1 1h38c.55 0 1-.45 1-1V6c0-.55-.45-1-1-1H18l-6-6H1C.45-1 0-.55 0 0v30z" fill="#53657d"/></g></g></svg>