<?xml version="1.0" encoding="UTF-8" standalone="no"?>
<!DOCTYPE svg PUBLIC "-//W3C//DTD SVG 1.1//EN" "http://www.w3.org/Graphics/SVG/1.1/DTD/svg11.dtd">
<svg width="100%" height="100%" viewBox="0 0 24 22" version="1.1" xmlns="http://www.w3.org/2000/svg" xmlns:xlink="http://www.w3.org/1999/xlink" xml:space="preserve" xmlns:serif="http://www.serif.com/" style="fill-rule:evenodd;clip-rule:evenodd;stroke-linejoin:round;stroke-miterlimit:1.41421;">
    <g transform="matrix(1,0,0,1,-712.007,-489.02)">
        <g id="Folder" transform="matrix(1,0,0,1,20.007,-3.98047)">
            <path d="M692,514.313C692,514.691 692.27,515 692.6,515L715.4,515C715.73,515 716,514.691 716,514.313L716,497.812C716,497.434 715.73,497.125 715.4,497.125L702.8,497.125L699.2,493L692.6,493C692.27,493 692,493.309 692,493.687L692,514.313Z" style="fill:rgb(83,101,125);"/>
            <g transform="matrix(0.210292,0,0,0.210292,563.097,455.582)">
                <path d="M670,208L680.286,228.842L703.287,232.184L686.643,248.408L690.572,271.316L670,260.5L649.428,271.316L653.357,248.408L636.713,232.184L659.714,228.842L670,208Z" style="fill:rgb(131,147,167);"/>
            </g>
        </g>
    </g>
</svg>
