<?xml version="1.0" encoding="UTF-8" standalone="no"?>
<!DOCTYPE svg PUBLIC "-//W3C//DTD SVG 1.1//EN" "http://www.w3.org/Graphics/SVG/1.1/DTD/svg11.dtd">
<svg width="100%" height="100%" viewBox="0 0 24 21" version="1.1" xmlns="http://www.w3.org/2000/svg" xmlns:xlink="http://www.w3.org/1999/xlink" xml:space="preserve" xmlns:serif="http://www.serif.com/" style="fill-rule:evenodd;clip-rule:evenodd;stroke-linejoin:round;stroke-miterlimit:2;">
    <g transform="matrix(1,0,0,1,-240,-181.746)">
        <g id="DiskIcon" transform="matrix(1,0,0,1,-452,-312)">
            <path d="M715.611,505.151L711.547,494.991C711.247,494.238 710.519,493.746 709.709,493.746L698.291,493.746C697.481,493.746 696.753,494.238 696.453,494.991L692.389,505.151C692.02,506.075 691.911,507.082 692.074,508.063L692.83,512.599C692.989,513.554 693.814,514.254 694.782,514.254L713.217,514.254C714.185,514.254 715.01,513.554 715.169,512.599L715.925,508.063C716.091,507.082 715.982,506.075 715.611,505.151ZM712.92,510.723C712.827,511.281 712.344,511.69 711.778,511.69L696.223,511.69C695.656,511.69 695.173,511.281 695.081,510.723L694.613,507.912C694.494,507.206 695.038,506.563 695.755,506.563L712.247,506.563C712.962,506.563 713.507,507.206 713.389,507.912L712.92,510.723Z"/>
            <g transform="matrix(9,0,0,9,698.443,502.892)">
                <path d="M0.083,-0L0.083,-0.698L0.539,-0.698L0.539,-0.59L0.214,-0.59L0.214,-0.408L0.507,-0.408L0.507,-0.3L0.214,-0.3L0.214,-0L0.083,-0Z" style="fill:rgb(131,147,167);fill-rule:nonzero;"/>
            </g>
            <g transform="matrix(9,0,0,9,703.843,502.892)">
                <path d="M0.292,0.012C0.232,0.012 0.181,0.002 0.139,-0.019C0.096,-0.04 0.062,-0.067 0.035,-0.101L0.114,-0.183C0.14,-0.153 0.168,-0.131 0.199,-0.117C0.229,-0.102 0.261,-0.095 0.296,-0.095C0.336,-0.095 0.367,-0.104 0.388,-0.122C0.409,-0.14 0.42,-0.166 0.42,-0.2C0.42,-0.228 0.412,-0.249 0.396,-0.264C0.38,-0.278 0.353,-0.288 0.315,-0.294L0.241,-0.306C0.176,-0.317 0.13,-0.341 0.103,-0.377C0.076,-0.412 0.062,-0.454 0.062,-0.503C0.062,-0.57 0.084,-0.621 0.127,-0.657C0.17,-0.692 0.23,-0.71 0.307,-0.71C0.362,-0.71 0.409,-0.701 0.449,-0.684C0.488,-0.667 0.52,-0.643 0.544,-0.613L0.467,-0.531C0.448,-0.553 0.426,-0.571 0.4,-0.584C0.374,-0.596 0.343,-0.603 0.308,-0.603C0.232,-0.603 0.194,-0.572 0.194,-0.509C0.194,-0.482 0.202,-0.462 0.218,-0.448C0.234,-0.434 0.261,-0.424 0.3,-0.417L0.373,-0.404C0.434,-0.393 0.479,-0.37 0.508,-0.337C0.537,-0.304 0.552,-0.261 0.552,-0.209C0.552,-0.176 0.546,-0.147 0.535,-0.12C0.524,-0.093 0.507,-0.069 0.485,-0.05C0.463,-0.03 0.436,-0.015 0.404,-0.004C0.371,0.007 0.334,0.012 0.292,0.012Z" style="fill:rgb(131,147,167);fill-rule:nonzero;"/>
            </g>
        </g>
    </g>
</svg>
