<?xml version="1.0" encoding="UTF-8" standalone="no"?><!DOCTYPE svg PUBLIC "-//W3C//DTD SVG 1.1//EN" "http://www.w3.org/Graphics/SVG/1.1/DTD/svg11.dtd"><svg width="100%" height="100%" viewBox="0 0 18 24" version="1.1" xmlns="http://www.w3.org/2000/svg" xmlns:xlink="http://www.w3.org/1999/xlink" xml:space="preserve" xmlns:serif="http://www.serif.com/" style="fill-rule:evenodd;clip-rule:evenodd;stroke-linejoin:round;stroke-miterlimit:2;"><g id="DiskIcon"><path d="M0,1.5c0,-0.828 0.672,-1.5 1.5,-1.5c3.39,0 11.61,0 15,0c0.828,0 1.5,0.672 1.5,1.5c0,4.49 0,17.747 0,21.5c0,0.265 -0.105,0.52 -0.293,0.707c-0.187,0.188 -0.442,0.293 -0.707,0.293c-3.151,0 -12.849,0 -16,0c-0.265,0 -0.52,-0.105 -0.707,-0.293c-0.188,-0.187 -0.293,-0.442 -0.293,-0.707c0,-3.753 0,-17.01 0,-21.5Zm14.251,22.5l0,-2.049c-0.016,-0.629 -0.522,-1.153 -1.144,-1.2c-2.733,-0.068 -5.47,-0.068 -8.203,0c-0.629,0.047 -1.137,0.579 -1.153,1.209l0,2.04l0.68,0l0,-1.799c0.009,-0.374 0.127,-0.688 0.498,-0.715c0.24,-0.006 0.481,-0.012 0.722,-0.016l0,2.53l0.7,0l0,-2.543c0.433,-0.007 0.867,-0.013 1.3,-0.016l0,2.559l0.7,0l0,-2.563c0.433,-0.002 0.867,-0.002 1.3,-0.001l0,2.564l0.7,0l0,-2.559c0.433,0.003 0.867,0.008 1.3,0.015l0,2.544l0.7,0l0,-2.531c0.244,0.005 0.487,0.011 0.731,0.017c0.312,0.004 0.505,0.316 0.505,0.742c0,0.5 -0.021,1.09 -0.021,1.772l0.685,0Zm1.751,-2.75c0.414,0 0.75,0.336 0.75,0.75c0,0.414 -0.336,0.75 -0.75,0.75c-0.414,0 -0.75,-0.336 -0.75,-0.75c0,-0.414 0.336,-0.75 0.75,-0.75Zm-14,0c0.414,0 0.75,0.336 0.75,0.75c0,0.414 -0.336,0.75 -0.75,0.75c-0.414,0 -0.75,-0.336 -0.75,-0.75c0,-0.414 0.336,-0.75 0.75,-0.75Zm0,-9.25c0.414,0 0.75,0.336 0.75,0.75c0,0.414 -0.336,0.75 -0.75,0.75c-0.414,0 -0.75,-0.336 -0.75,-0.75c0,-0.414 0.336,-0.75 0.75,-0.75Zm14,0c0.414,0 0.75,0.336 0.75,0.75c0,0.414 -0.336,0.75 -0.75,0.75c-0.414,0 -0.75,-0.336 -0.75,-0.75c0,-0.414 0.336,-0.75 0.75,-0.75Zm0,-10.75c0.414,0 0.75,0.336 0.75,0.75c0,0.414 -0.336,0.75 -0.75,0.75c-0.414,0 -0.75,-0.336 -0.75,-0.75c0,-0.414 0.336,-0.75 0.75,-0.75Zm-14,0c0.414,0 0.75,0.336 0.75,0.75c0,0.414 -0.336,0.75 -0.75,0.75c-0.414,0 -0.75,-0.336 -0.75,-0.75c0,-0.414 0.336,-0.75 0.75,-0.75Z" style="fill:url(#_Linear1);"/><text x="3.442px" y="10.892px" style="font-family:'IBMPlexMono-SemiBold', 'IBM Plex Mono SemiBold', monospace;font-weight:600;font-size:9px;fill:#8393a7;">FS</text></g><defs><linearGradient id="_Linear1" x1="0" y1="0" x2="1" y2="0" gradientUnits="userSpaceOnUse" gradientTransform="matrix(14,-18,18,14,2.00097,21)"><stop offset="0" style="stop-color:#e10000;stop-opacity:1"/><stop offset="0.49" style="stop-color:#f81140;stop-opacity:1"/><stop offset="1" style="stop-color:#ff1654;stop-opacity:1"/></linearGradient></defs></svg>