<?xml version="1.0" encoding="UTF-8" standalone="no"?><!DOCTYPE svg PUBLIC "-//W3C//DTD SVG 1.1//EN" "http://www.w3.org/Graphics/SVG/1.1/DTD/svg11.dtd"><svg width="100%" height="100%" viewBox="0 0 25 23" version="1.1" xmlns="http://www.w3.org/2000/svg" xmlns:xlink="http://www.w3.org/1999/xlink" xml:space="preserve" xmlns:serif="http://www.serif.com/" style="fill-rule:evenodd;clip-rule:evenodd;stroke-linejoin:round;stroke-miterlimit:2;"><g id="FSFolder"><path d="M0,1.5c0,-0.398 0.158,-0.779 0.439,-1.061c0.282,-0.281 0.663,-0.439 1.061,-0.439c2.56,0 7.5,0 7.5,0l3,4l10.5,0c0.398,0 0.78,0.158 1.061,0.439c0.281,0.282 0.439,0.663 0.439,1.061c0,1.135 0,2.5 0,2.5l-24,0l0,-6.5Z" style="fill:#8393a7;"/><path d="M0,7.5c0,-0.828 0.672,-1.5 1.5,-1.5c4.309,0 16.691,0 21,0c0.828,0 1.5,0.672 1.5,1.5c0,3.232 0,10.779 0.001,13.5c0,0.265 -0.106,0.52 -0.293,0.707c-0.188,0.188 -0.442,0.293 -0.707,0.293c-3.905,0 -18.097,0 -22.001,0c-0.552,0 -1,-0.448 -1,-1c0,-2.721 0,-10.268 0,-13.5Z" style="fill:#53657d;"/><ellipse cx="12" cy="9.5" rx="5" ry="1.5" style="fill:#8393a7;"/><path d="M6.999,12.5c0,0.828 2.242,1.5 5.001,1.5c2.754,0 4.991,-0.674 4.999,-1.5l0,-2c0,0.826 -2.245,1.5 -4.999,1.5c-2.759,0 -5.001,-0.672 -5,-1.5l-0.001,2Z" style="fill:#8393a7;"/><path d="M6.999,15.5c0,0.828 2.242,1.5 5.001,1.5c2.754,0 4.991,-0.674 4.999,-1.5l0,-2c0,0.826 -2.245,1.5 -4.999,1.5c-2.759,0 -5.001,-0.672 -5,-1.5l-0.001,2Z" style="fill:#8393a7;"/><path d="M6.999,18.5c0,0.828 2.242,1.5 5.001,1.5c2.754,0 4.991,-0.674 4.999,-1.5l0,-2c0,0.826 -2.245,1.5 -4.999,1.5c-2.759,0 -5.001,-0.672 -5,-1.5l-0.001,2Z" style="fill:#8393a7;"/></g></svg>