<?xml version="1.0" encoding="UTF-8" standalone="no"?>
<!DOCTYPE svg PUBLIC "-//W3C//DTD SVG 1.1//EN" "http://www.w3.org/Graphics/SVG/1.1/DTD/svg11.dtd">
<svg width="100%" height="100%" viewBox="0 0 24 24" version="1.1" xmlns="http://www.w3.org/2000/svg" xmlns:xlink="http://www.w3.org/1999/xlink" xml:space="preserve" xmlns:serif="http://www.serif.com/" style="fill-rule:evenodd;clip-rule:evenodd;stroke-linejoin:round;stroke-miterlimit:1.41421;">
    <g transform="matrix(1,0,0,1,-395,-561.714)">
        <g transform="matrix(0.0535725,0,0,0.0625004,393.284,557.712)">
            <path d="M457.6,140.2L375.1,136.2L370.3,82.4C369.3,71.1 359.2,63.2 347.4,64.1L51.5,88.4C39.7,89.4 31.2,98.9 32.1,110.1L53.3,345.9C54.3,357.2 64.5,365.1 76.2,364.2L91.2,363L88.8,408.8C88.2,421.4 98,431.6 111.2,432.3L441.3,448C454.5,448.6 465.4,439.4 466.1,426.8L480,163.5C480.6,151 470.7,140.8 457.6,140.2ZM102.7,145.5L95.6,280.3L78.1,305L62,127L62,126.5L62,126C63,121 66.4,117 71.6,116.6L332.6,95.2C337.8,94.8 342.3,98.2 343.1,103.1C343.1,103.3 343.4,103.3 343.4,103.5C343.4,103.6 343.7,103.7 343.7,103.9L346.4,134.7L127.4,124.2C114.2,123.8 103.3,133 102.7,145.5ZM436.7,382.4L351.9,282.9L314.5,317.2L245.3,236.4L122.6,367.1L133,168L133,167.6C134,162.2 139.2,158.3 144.9,158.6L436.1,172.6C441.9,172.9 446.4,177.3 446.5,182.8C446.5,183 446.8,183.1 446.8,183.3L436.7,382.4Z" style="fill:rgb(83,101,125);fill-rule:nonzero;"/>
            <path d="M384,256C401.6,256 416,241.6 416,224C416,206.4 401.7,192 384,192C366.4,192 352,206.3 352,224C352,241.7 366.3,256 384,256Z" style="fill:rgb(83,101,125);fill-rule:nonzero;"/>
        </g>
    </g>
</svg>
