<?xml version="1.0" encoding="UTF-8" standalone="no"?><!DOCTYPE svg PUBLIC "-//W3C//DTD SVG 1.1//EN" "http://www.w3.org/Graphics/SVG/1.1/DTD/svg11.dtd"><svg width="100%" height="100%" viewBox="0 0 25 23" version="1.1" xmlns="http://www.w3.org/2000/svg" xmlns:xlink="http://www.w3.org/1999/xlink" xml:space="preserve" xmlns:serif="http://www.serif.com/" style="fill-rule:evenodd;clip-rule:evenodd;stroke-linejoin:round;stroke-miterlimit:2;"><g id="ResFolder"><path d="M0,1.5c0,-0.398 0.158,-0.779 0.439,-1.061c0.282,-0.281 0.663,-0.439 1.061,-0.439c2.56,0 7.5,0 7.5,0l3,4l10.5,0c0.398,0 0.78,0.158 1.061,0.439c0.281,0.282 0.439,0.663 0.439,1.061c0,1.135 0,2.5 0,2.5l-24,0l0,-6.5Z" style="fill:#8393a7;"/><path d="M0,7.5c0,-0.828 0.672,-1.5 1.5,-1.5c4.309,0 16.691,0 21,0c0.828,0 1.5,0.672 1.5,1.5c0,3.232 0,10.779 0.001,13.5c0,0.265 -0.106,0.52 -0.293,0.707c-0.188,0.188 -0.442,0.293 -0.707,0.293c-3.905,0 -18.097,0 -22.001,0c-0.552,0 -1,-0.448 -1,-1c0,-2.721 0,-10.268 0,-13.5Z" style="fill:#53657d;"/><path d="M12,8l5.196,3l0,6l-5.196,3l-5.196,-3l0,-6l5.196,-3Z" style="fill:#8393a7;"/><path d="M17.446,11.433l-5.197,3l-0.5,-0.866l5.197,-3c0.167,0.289 0.334,0.577 0.5,0.866Z" style="fill:#53657d;"/><path d="M12.249,13.567l-0.5,0.866l-5.195,-3l0.5,-0.866c1.732,1 3.464,2 5.195,3Z" style="fill:#53657d;"/><path d="M12.5,20l-1,0l-0.001,-6l1,0c0.001,2 0.001,4 0.001,6Z" style="fill:#53657d;"/></g></svg>