<svg viewBox="0 0 24 24" version="1.1" xmlns="http://www.w3.org/2000/svg" xmlns:xlink="http://www.w3.org/1999/xlink" xml:space="preserve" xmlns:serif="http://www.serif.com/" fill="currentcolor" fill-rule="evenodd" clip-rule="evenodd">
    <g id="path1" transform="matrix(0.940562,0,0,0.995237,0.228131,0.0986794)">
        <path d="M3.088,20.719C2.674,20.719 2.338,20.383 2.338,19.969L2.338,4.439C2.338,4.427 3.838,4.439 3.838,4.439L3.838,19.969C3.838,20.383 3.502,20.719 3.088,20.719ZM2.336,5.87L2.336,4.437L0.828,4.422L0.821,5.862L2.336,5.87Z" style="fill-rule:nonzero;stroke:currentcolor;stroke-width:1px;"/>
    </g>
    <g id="rect2" fill="currentcolor" transform="matrix(0.972204,0,0,0.905189,0.594711,1.66165)">
        <path d="M22.017,5.897L3.336,5.897L3.336,18.05L22.017,18.05L22.017,5.897ZM10.703,16.945L14.303,11.421L12.76,11.421L13.789,7.002L10.188,12.526L11.731,12.526L10.703,16.945Z"/>
    </g>
</svg>
