<?xml version="1.0" encoding="UTF-8" standalone="no"?>
<!DOCTYPE svg PUBLIC "-//W3C//DTD SVG 1.1//EN" "http://www.w3.org/Graphics/SVG/1.1/DTD/svg11.dtd">
<svg width="100%" height="100%" viewBox="0 0 16 24" version="1.1" xmlns="http://www.w3.org/2000/svg" xmlns:xlink="http://www.w3.org/1999/xlink" xml:space="preserve" xmlns:serif="http://www.serif.com/" style="fill-rule:evenodd;clip-rule:evenodd;stroke-linejoin:round;stroke-miterlimit:1.41421;">
    <g transform="matrix(1,0,0,1,-812.042,-488.02)">
        <g id="hourglass" transform="matrix(1,0,0,1,120.042,-27.9805)">
            <g transform="matrix(0.0625,0,0,0.0576923,684.001,513.231)">
                <path d="M152,48C145.635,48 139.53,50.739 135.029,55.615C130.528,60.491 128,67.105 128,74C128,98.821 128,135.373 128,155.786C128,165.482 131.749,174.735 138.336,181.3C161.049,203.932 213.3,256 213.3,256C213.3,256 161.007,308.232 138.309,330.903C131.738,337.466 128,346.708 128,356.39C128,376.758 128,413.221 128,438C128,452.359 138.745,464 152,464C200.818,464 311.182,464 360,464C373.255,464 384,452.359 384,438C384,413.221 384,376.758 384,356.39C384,346.708 380.262,337.466 373.691,330.903C350.993,308.232 298.7,256 298.7,256C298.7,256 350.951,203.932 373.664,181.3C380.251,174.735 384,165.482 384,155.786C384,135.373 384,98.821 384,74C384,67.105 381.472,60.491 376.971,55.615C372.47,50.739 366.365,48 360,48C311.182,48 200.818,48 152,48ZM341.3,351.9L341.3,423.4L170.7,423.4L170.7,351.9L256,266.7L341.3,351.9ZM256,245.4L170.7,160.2L170.7,87.6L341.4,87.6L341.4,160.1L256,245.4Z" style="fill:rgb(83,101,125);fill-rule:nonzero;"/>
            </g>
            <g transform="matrix(1,0,0,1,-59.9994,0)">
                <path d="M754.669,522.473L765.338,522.467L760,527.388L754.669,522.473Z" style="fill:rgb(131,147,167);"/>
            </g>
            <g transform="matrix(1,0,0,1,-59.9994,0)">
                <rect x="754.669" y="534.533" width="10.662" height="3.125" style="fill:rgb(131,147,167);"/>
            </g>
            <g transform="matrix(1,0,0,1,-59.9994,0)">
                <path d="M759.999,528.618L761,535.533L759,535.533L759.999,528.618Z" style="fill:rgb(131,147,167);"/>
            </g>
        </g>
    </g>
</svg>
