<?xml version="1.0" encoding="UTF-8" standalone="no"?>
<!DOCTYPE svg PUBLIC "-//W3C//DTD SVG 1.1//EN" "http://www.w3.org/Graphics/SVG/1.1/DTD/svg11.dtd">
<svg width="100%" height="100%" viewBox="0 0 24 24" version="1.1" xmlns="http://www.w3.org/2000/svg" xmlns:xlink="http://www.w3.org/1999/xlink" xml:space="preserve" xmlns:serif="http://www.serif.com/" style="fill-rule:evenodd;clip-rule:evenodd;stroke-linejoin:round;stroke-miterlimit:1.41421;">
    <g transform="matrix(1,0,0,1,-480.022,-592)">
        <g id="ID" transform="matrix(1.5,0,0,1.5,-321.646,169.325)">
            <path d="M548.445,297.784L536.445,297.784C535.34,297.784 534.445,296.888 534.445,295.784C534.445,292.71 534.445,286.858 534.445,283.784C534.445,282.679 535.34,281.784 536.445,281.784C539.519,281.784 545.371,281.784 548.445,281.784C549.55,281.784 550.445,282.679 550.445,283.784C550.445,286.858 550.445,292.71 550.445,295.784C550.445,296.884 549.556,297.778 548.445,297.784ZM548.445,295.784L548.445,283.784L536.445,283.784L536.445,295.784L548.445,295.784Z" style="fill:rgb(131,147,167);"/>
            <g transform="matrix(1.0836,0,0,1.31959,11.2979,-494.175)">
                <path d="M485.85,597.125L485.85,596.175L487,596.175L487,592.038L485.85,592.038L485.85,591.063L489.303,591.063L489.303,592.038L488.153,592.038L488.153,596.175L489.303,596.175L489.303,597.125L485.85,597.125Z" style="fill:rgb(61,77,101);fill-rule:nonzero;"/>
                <path d="M490.584,597.125L490.584,591.063L492.022,591.063C492.683,591.063 493.175,591.178 493.496,591.408C493.818,591.639 494.06,591.987 494.221,592.453C494.382,592.919 494.463,593.472 494.463,594.11C494.463,594.714 494.378,595.244 494.207,595.701C494.037,596.158 493.795,596.51 493.483,596.756C493.17,597.002 492.683,597.125 492.022,597.125L490.584,597.125ZM491.603,595.981L492.025,595.981C492.559,595.981 492.712,595.942 492.94,595.752C493.168,595.562 493.234,595.456 493.331,595.119C493.429,594.782 493.449,594.594 493.449,594C493.449,593.42 493.425,593.24 493.311,592.927C493.196,592.615 493.13,592.518 492.917,592.35C492.703,592.182 492.562,592.149 492.075,592.149L491.603,592.149L491.603,595.981Z" style="fill:rgb(61,77,101);fill-rule:nonzero;"/>
            </g>
        </g>
    </g>
</svg>
