<?xml version="1.0" encoding="UTF-8" standalone="no"?><!DOCTYPE svg PUBLIC "-//W3C//DTD SVG 1.1//EN" "http://www.w3.org/Graphics/SVG/1.1/DTD/svg11.dtd"><svg width="100%" height="100%" viewBox="0 0 24 24" version="1.1" xmlns="http://www.w3.org/2000/svg" xmlns:xlink="http://www.w3.org/1999/xlink" xml:space="preserve" xmlns:serif="http://www.serif.com/" style="fill-rule:evenodd;clip-rule:evenodd;stroke-linejoin:round;stroke-miterlimit:2;"><g id="ID"><path d="M21,24l-18,0c-1.657,0 -3,-1.343 -3,-3l0,-18c0,-1.657 1.343,-3 3,-3l18,0c1.657,0 3,1.343 3,3l0,18c0,1.655 -1.34,2.997 -3,3Zm-10.409,-6l0,-1.88l-1.869,0l0,-8.19l1.869,0l0,-1.93l-5.613,0l0,1.93l1.869,0l0,8.19l-1.869,0l0,1.88l5.613,0Zm4.419,0c1.077,-0.001 1.867,-0.244 2.375,-0.731c0.507,-0.487 0.9,-1.183 1.177,-2.087c0.278,-0.905 0.416,-1.955 0.416,-3.151c0,-1.263 -0.131,-2.356 -0.393,-3.278c-0.263,-0.923 -0.656,-1.613 -1.178,-2.069c-0.523,-0.456 -1.322,-0.684 -2.397,-0.684l-2.337,0l0,12l2.337,0Zm0.087,-9.851c0.792,0.001 1.021,0.068 1.368,0.4c0.347,0.332 0.454,0.524 0.64,1.142c0.186,0.619 0.224,0.975 0.224,2.124c0,1.175 -0.032,1.546 -0.191,2.214c-0.158,0.667 -0.265,0.877 -0.635,1.254c-0.371,0.376 -0.62,0.452 -1.488,0.452l-0.686,0l0,-7.586l0.768,0Z" style="fill:#53657d;"/></g></svg>