<?xml version="1.0" encoding="UTF-8" standalone="no"?>
<!DOCTYPE svg PUBLIC "-//W3C//DTD SVG 1.1//EN" "http://www.w3.org/Graphics/SVG/1.1/DTD/svg11.dtd">
<svg width="100%" height="100%" viewBox="0 0 24 24" version="1.1" xmlns="http://www.w3.org/2000/svg" xmlns:xlink="http://www.w3.org/1999/xlink" xml:space="preserve" xmlns:serif="http://www.serif.com/" style="fill-rule:evenodd;clip-rule:evenodd;stroke-linejoin:round;stroke-miterlimit:1.41421;">
    <g transform="matrix(1,0,0,1,-459.992,-652.03)">
        <g id="license" transform="matrix(1.5,0,0,1.5,-341.675,229.355)">
            <path d="M548.445,297.784L536.445,297.784C535.34,297.784 534.445,296.888 534.445,295.784C534.445,292.71 534.445,286.858 534.445,283.784C534.445,282.679 535.34,281.784 536.445,281.784C539.519,281.784 545.371,281.784 548.445,281.784C549.55,281.784 550.445,282.679 550.445,283.784C550.445,286.858 550.445,292.71 550.445,295.784C550.445,296.884 549.556,297.778 548.445,297.784ZM546.445,295.784L548.445,293.784C548.445,291.564 548.445,288.003 548.445,285.784L546.445,283.784C544.225,283.784 540.665,283.784 538.445,283.784L536.445,285.784C536.445,288.003 536.445,291.564 536.445,293.784L538.445,295.784L546.445,295.784Z" style="fill:rgb(83,101,125);"/>
            <g transform="matrix(0.727273,0,0,0.964775,514.081,266.699)">
                <path d="M43.5,28L34.5,28C33.947,28 33.5,27.552 33.5,27C33.5,26.448 33.947,26 34.5,26L43.5,26C44.053,26 44.5,26.448 44.5,27C44.5,27.552 44.053,28 43.5,28Z" style="fill:rgb(131,147,167);fill-rule:nonzero;"/>
            </g>
            <g transform="matrix(0.666667,0,0,0.666667,187.369,-118.192)">
                <path d="M532.565,605.691L534.467,607.073L533.516,608.382L535.054,608.882L534.328,611.118L532.789,610.618L532.789,612.236L530.438,612.236L530.438,610.618L528.899,611.118L528.173,608.882L529.711,608.382L528.76,607.073L530.662,605.691L531.613,607L532.565,605.691Z" style="fill:rgb(131,147,167);"/>
            </g>
        </g>
    </g>
</svg>
