<?xml version="1.0" encoding="UTF-8" standalone="no"?>
<!DOCTYPE svg PUBLIC "-//W3C//DTD SVG 1.1//EN" "http://www.w3.org/Graphics/SVG/1.1/DTD/svg11.dtd">
<svg width="100%" height="100%" viewBox="0 0 34 28" version="1.1" xmlns="http://www.w3.org/2000/svg" xmlns:xlink="http://www.w3.org/1999/xlink" xml:space="preserve" xmlns:serif="http://www.serif.com/" style="fill-rule:evenodd;clip-rule:evenodd;stroke-linejoin:round;stroke-miterlimit:1.41421;">
    <g transform="matrix(1,0,0,1,-647.088,-514.175)">
        <g transform="matrix(1,0,0,1,-1.38778e-17,28.0001)">
            <g id="Share-Icon" serif:id="Share Icon" transform="matrix(1.24567,0,0,1.24999,-262.159,-3042.48)">
                <path d="M754.462,2834L743.395,2843.49L743.395,2837.63L743.386,2837.63L743.323,2837.63L743.259,2837.64L743.194,2837.65L743.13,2837.66L743.065,2837.66L743.003,2837.67L742.869,2837.69L742.736,2837.71L742.603,2837.74L742.468,2837.76L742.333,2837.79L742.197,2837.82L742.061,2837.85L741.924,2837.89L741.786,2837.92L741.648,2837.96L741.509,2838L741.371,2838.04L741.232,2838.08L741.093,2838.13L740.954,2838.18L740.815,2838.23L740.676,2838.28L740.537,2838.33L740.399,2838.38L740.261,2838.44L740.124,2838.5L739.987,2838.55L739.85,2838.62L739.715,2838.68L739.58,2838.74L739.445,2838.8L739.312,2838.87L739.18,2838.94L739.049,2839.01L738.918,2839.07L738.789,2839.14L738.662,2839.22L738.536,2839.29L738.411,2839.36L738.287,2839.44L738.165,2839.51L738.045,2839.59L737.926,2839.66L737.81,2839.74L737.695,2839.82L737.582,2839.9L737.471,2839.98L737.362,2840.06L737.255,2840.14L737.151,2840.22L737.049,2840.3L736.949,2840.38L736.851,2840.46L736.757,2840.54L736.664,2840.62L736.575,2840.7L736.488,2840.78L736.404,2840.86L736.323,2840.94L736.244,2841.02L733.134,2844.26L733.404,2839.8L733.413,2839.68L733.424,2839.56L733.437,2839.44L733.452,2839.32L733.469,2839.2L733.488,2839.09L733.509,2838.97L733.531,2838.85L733.555,2838.74L733.581,2838.62L733.609,2838.5L733.638,2838.39L733.669,2838.27L733.702,2838.16L733.736,2838.05L733.772,2837.93L733.809,2837.82L733.848,2837.71L733.888,2837.6L733.931,2837.49L733.974,2837.38L734.019,2837.27L734.065,2837.16L734.113,2837.05L734.162,2836.94L734.213,2836.83L734.265,2836.72L734.318,2836.62L734.372,2836.51L734.428,2836.41L734.485,2836.3L734.544,2836.2L734.603,2836.1L734.664,2835.99L734.726,2835.89L734.79,2835.79L734.854,2835.69L734.92,2835.59L734.987,2835.49L735.055,2835.39L735.124,2835.29L735.194,2835.19L735.265,2835.1L735.338,2835L735.411,2834.91L735.486,2834.81L735.561,2834.72L735.638,2834.62L735.715,2834.53L735.794,2834.44L735.874,2834.35L735.954,2834.26L736.035,2834.17L736.118,2834.08L736.201,2833.99L736.286,2833.91L736.371,2833.82L736.457,2833.73L736.544,2833.65L736.632,2833.57L736.721,2833.48L736.81,2833.4L736.901,2833.32L736.992,2833.24L737.084,2833.16L737.177,2833.08L737.271,2833L737.365,2832.93L737.461,2832.85L737.557,2832.77L737.654,2832.7L737.751,2832.63L737.85,2832.55L737.949,2832.48L738.048,2832.41L738.149,2832.34L738.25,2832.27L738.352,2832.21L738.455,2832.14L738.558,2832.07L738.662,2832.01L738.767,2831.95L738.872,2831.88L738.978,2831.82L739.084,2831.76L739.191,2831.7L739.299,2831.64L739.408,2831.59L739.516,2831.53L739.626,2831.48L739.736,2831.42L739.847,2831.37L739.958,2831.32L740.07,2831.27L740.182,2831.22L740.294,2831.17L740.408,2831.13L740.522,2831.08L740.636,2831.04L740.751,2831L740.866,2830.96L740.982,2830.92L741.098,2830.88L741.215,2830.84L741.332,2830.8L741.45,2830.77L741.568,2830.74L741.686,2830.7L741.805,2830.68L741.924,2830.65L742.044,2830.62L742.164,2830.59L742.284,2830.57L742.405,2830.55L742.526,2830.53L742.647,2830.51L742.769,2830.49L742.891,2830.47L743.013,2830.46L743.136,2830.44L743.259,2830.43L743.382,2830.42L743.395,2830.42L743.395,2824.51L754.462,2834ZM745,2832L744,2832L743.9,2832L743.799,2832L743.698,2832.01L743.598,2832.01L743.497,2832.02L743.396,2832.03L743.296,2832.04L743.195,2832.05L743.094,2832.06L742.994,2832.07L742.893,2832.09L742.793,2832.1L742.692,2832.12L742.592,2832.14L742.492,2832.16L742.391,2832.18L742.291,2832.2L742.192,2832.23L742.092,2832.25L741.992,2832.28L741.893,2832.31L741.794,2832.34L741.695,2832.37L741.596,2832.4L741.497,2832.43L741.399,2832.47L741.301,2832.5L741.203,2832.54L741.106,2832.57L741.009,2832.61L740.912,2832.65L740.815,2832.69L740.719,2832.73L740.623,2832.78L740.527,2832.82L740.432,2832.87L740.337,2832.91L740.243,2832.96L740.149,2833.01L740.055,2833.06L739.962,2833.11L739.87,2833.16L739.777,2833.21L739.686,2833.26L739.594,2833.32L739.504,2833.37L739.413,2833.43L739.324,2833.49L739.235,2833.54L739.146,2833.6L739.058,2833.66L738.97,2833.72L738.884,2833.78L738.797,2833.85L738.712,2833.91L738.627,2833.97L738.542,2834.04L738.459,2834.1L738.375,2834.17L738.293,2834.24L738.211,2834.3L738.13,2834.37L738.05,2834.44L737.971,2834.51L737.892,2834.58L737.814,2834.65L737.737,2834.73L737.66,2834.8L737.585,2834.87L737.51,2834.95L737.436,2835.02L737.362,2835.1L737.29,2835.17L737.219,2835.25L737.148,2835.33L737.078,2835.41L737.01,2835.49L736.942,2835.57L736.875,2835.64L736.809,2835.72L736.744,2835.81L736.68,2835.89L736.616,2835.97L736.554,2836.05L736.493,2836.13L736.433,2836.22L736.374,2836.3L736.316,2836.39L736.259,2836.47L736.203,2836.56L736.148,2836.64L736.095,2836.73L736.042,2836.81L735.99,2836.9L735.94,2836.99L735.891,2837.08L735.843,2837.16L735.796,2837.25L735.75,2837.34L735.706,2837.43L735.663,2837.52L735.621,2837.61L735.58,2837.7L735.54,2837.79L735.502,2837.88L735.465,2837.97L735.429,2838.06L735.395,2838.15L735.362,2838.24L735.33,2838.33L735.299,2838.43L735.27,2838.52L735.243,2838.61L735.216,2838.7L735.191,2838.79L735.168,2838.89L735.146,2838.98L735.125,2839.07L735.106,2839.16L735.088,2839.26L735.072,2839.35L735.057,2839.44L735.044,2839.53L735.032,2839.63L735.022,2839.72L735.013,2839.81L735.006,2839.91L735,2840L735.093,2839.9L735.189,2839.81L735.287,2839.71L735.388,2839.61L735.492,2839.52L735.598,2839.42L735.706,2839.33L735.817,2839.23L735.931,2839.14L736.046,2839.05L736.164,2838.95L736.284,2838.86L736.406,2838.77L736.53,2838.68L736.656,2838.59L736.783,2838.5L736.913,2838.41L737.045,2838.33L737.178,2838.24L737.313,2838.16L737.449,2838.07L737.587,2837.99L737.727,2837.91L737.868,2837.83L738.01,2837.75L738.154,2837.67L738.299,2837.59L738.445,2837.51L738.592,2837.44L738.741,2837.37L738.89,2837.3L739.04,2837.22L739.192,2837.16L739.344,2837.09L739.497,2837.02L739.65,2836.96L739.804,2836.9L739.959,2836.84L740.114,2836.78L740.27,2836.72L740.427,2836.66L740.583,2836.61L740.74,2836.56L740.897,2836.51L741.055,2836.46L741.212,2836.42L741.37,2836.38L741.527,2836.33L741.685,2836.3L741.842,2836.26L741.999,2836.22L742.156,2836.19L742.313,2836.16L742.469,2836.14L742.625,2836.11L742.781,2836.09L742.858,2836.08L742.935,2836.07L743.013,2836.06L743.09,2836.05L743.167,2836.04L743.243,2836.03L743.32,2836.03L743.396,2836.02L743.473,2836.02L743.549,2836.01L743.624,2836.01L743.7,2836.01L743.775,2836L743.851,2836L743.925,2836L744,2836L745,2836L745,2840L752,2834L745,2828L745,2832Z" style="fill:rgb(131,147,167);"/>
            </g>
            <g id="Share-Icon1" serif:id="Share Icon" transform="matrix(1.24567,0,0,1.24999,-262.159,-3042.48)">
                <path d="M752,2834L745,2840L745,2836L744,2836C740.82,2836 736.954,2837.93 735,2840C735.207,2836.03 739.715,2832 744,2832L745,2832L745,2828L752,2834Z" style="fill:rgb(83,101,125);"/>
            </g>
        </g>
    </g>
</svg>
