<svg viewBox="0 0 2303 1592" xmlns="http://www.w3.org/2000/svg" fill-rule="evenodd" clip-rule="evenodd" stroke-linecap="round" stroke-miterlimit="1.5"><g transform="matrix(1,0,0,1,-8669.56,-10000.1) matrix(2.05544,0,0,1.8316,3821.84,-7767.68) matrix(0.486513,0,0,0.545972,740.17,4274.09)"><path d="M4260.64,10192.9C4668.65,9690.23 5231.23,10143.5 5130.78,10558.3C5980.25,10715 5533.62,11808 4860.15,11414.2C4706.31,11508.8 4614.83,11510.7 4437.15,11459.3C3367.81,11646.7 3039.68,10948.9 3696.19,10666.4C3680.27,10560.7 3730.62,10097.3 4260.64,10192.9Z" fill="url(#_Linear1)"/><clipPath id="a"><path d="M4260.64,10192.9C4668.65,9690.23 5231.23,10143.5 5130.78,10558.3C5980.25,10715 5533.62,11808 4860.15,11414.2C4706.31,11508.8 4614.83,11510.7 4437.15,11459.3C3367.81,11646.7 3039.68,10948.9 3696.19,10666.4C3680.27,10560.7 3730.62,10097.3 4260.64,10192.9Z"/></clipPath><g clip-path="url(#a)"><path d="M4196.59,7489.24L4094.3,7961.69L3634.01,7695.94L4196.59,7489.24Z" fill="url(#_Linear3)" transform="matrix(1,0,0,1,-429.175,3495.19)"/><path d="M3940.87,7105.39L4196.59,7489.24L3634.01,7695.94L3940.87,7105.39Z" fill="url(#_Linear4)" transform="matrix(1,0,0,1,-429.175,3495.19)"/><path d="M4452.3,7400.66L4196.59,7489.24L3940.87,7105.39L4452.3,7400.66Z" fill="url(#_Linear5)" transform="matrix(1,0,0,1,-429.175,3495.19)"/><path d="M4452.3,7991.21L4196.59,7489.24L4094.3,7961.69L4452.3,7991.21Z" fill="url(#_Linear6)" transform="matrix(1,0,0,1,-429.175,3495.19)"/><path d="M4452.3,7400.66L4196.59,7489.24L4452.3,7991.21L4452.3,7400.66Z" fill="url(#_Linear7)" transform="matrix(1,0,0,1,-429.175,3495.19)"/><path d="M3634.01,7695.94L3940.87,7105.39L3429.44,7400.66L3634.01,7695.94Z" fill="url(#_Linear8)" transform="matrix(-0.5,0.866025,-0.866025,-0.5,13169.9,11626.2)"/><path d="M3429.44,7991.21L3634.01,7695.94L3429.44,7400.66L3429.44,7991.21Z" fill="url(#_Linear9)" transform="matrix(-0.5,0.866025,-0.866025,-0.5,13169.9,11626.2)"/><path d="M3940.87,8286.49L3634.01,7695.94L3429.44,7991.21L3940.87,8286.49Z" fill="url(#_Linear10)" transform="matrix(-0.5,0.866025,-0.866025,-0.5,13169.9,11626.2)"/><path d="M3940.87,8286.49L4094.3,7961.69L3634.01,7695.94L3940.87,8286.49Z" fill="url(#_Linear11)" transform="matrix(-0.5,0.866025,-0.866025,-0.5,13169.9,11626.2)"/><path d="M4452.3,7991.21L4094.3,7961.69L3940.87,8286.49L4452.3,7991.21Z" fill="url(#_Linear12)" transform="matrix(-0.5,0.866025,-0.866025,-0.5,13169.9,11626.2)"/><path d="M4196.59,7489.24L4094.3,7961.69L3634.01,7695.94L4196.59,7489.24Z" fill="url(#_Linear13)" transform="matrix(-0.5,0.866025,-0.866025,-0.5,13169.9,11626.2)"/><path d="M3940.87,7105.39L4196.59,7489.24L3634.01,7695.94L3940.87,7105.39Z" fill="url(#_Linear14)" transform="matrix(-0.5,0.866025,-0.866025,-0.5,13169.9,11626.2)"/><path d="M4452.3,7991.21L4196.59,7489.24L4094.3,7961.69L4452.3,7991.21Z" fill="url(#_Linear15)" transform="matrix(-0.5,0.866025,-0.866025,-0.5,13169.9,11626.2)"/><path d="M4196.59,7489.24L4094.3,7961.69L3634.01,7695.94L4196.59,7489.24Z" fill="url(#_Linear16)" transform="matrix(-0.5,-0.866025,0.866025,-0.5,862.982,18452)"/><path d="M3940.87,7105.39L4196.59,7489.24L3634.01,7695.94L3940.87,7105.39Z" fill="url(#_Linear17)" transform="matrix(-0.5,-0.866025,0.866025,-0.5,862.982,18452)"/><path d="M4452.3,7400.66L4196.59,7489.24L3940.87,7105.39L4452.3,7400.66Z" fill="url(#_Linear18)" transform="matrix(-0.5,-0.866025,0.866025,-0.5,862.982,18452)"/><path d="M4452.3,7991.21L4196.59,7489.24L4094.3,7961.69L4452.3,7991.21Z" fill="url(#_Linear19)" transform="matrix(-0.5,-0.866025,0.866025,-0.5,862.982,18452)"/><path d="M4452.3,7400.66L4196.59,7489.24L4452.3,7991.21L4452.3,7400.66Z" fill="url(#_Linear20)" transform="matrix(-0.5,-0.866025,0.866025,-0.5,862.982,18452)"/><path d="M3429.44,7991.21L3634.01,7695.94L3429.44,7400.66L3429.44,7991.21Z" fill="url(#_Linear21)" transform="matrix(0.5,0.866025,-0.866025,0.5,9740.43,3044.44)"/><path d="M3940.87,8286.49L3634.01,7695.94L3429.44,7991.21L3940.87,8286.49Z" fill="url(#_Linear22)" transform="matrix(0.5,0.866025,-0.866025,0.5,9740.43,3044.44)"/><path d="M3940.87,8286.49L4094.3,7961.69L3634.01,7695.94L3940.87,8286.49Z" fill="url(#_Linear23)" transform="matrix(0.5,0.866025,-0.866025,0.5,9740.43,3044.44)"/><path d="M4452.3,7991.21L4094.3,7961.69L3940.87,8286.49L4452.3,7991.21Z" fill="url(#_Linear24)" transform="matrix(0.5,0.866025,-0.866025,0.5,9740.43,3044.44)"/><path d="M4196.59,7489.24L4094.3,7961.69L3634.01,7695.94L4196.59,7489.24Z" fill="url(#_Linear25)" transform="matrix(0.5,0.866025,-0.866025,0.5,9740.43,3044.44)"/><path d="M4452.3,7991.21L4196.59,7489.24L4094.3,7961.69L4452.3,7991.21Z" fill="url(#_Linear26)" transform="matrix(0.5,0.866025,-0.866025,0.5,9740.43,3044.44)"/><path d="M4452.3,7400.66L4196.59,7489.24L4452.3,7991.21L4452.3,7400.66Z" fill="url(#_Linear27)" transform="matrix(0.5,0.866025,-0.866025,0.5,9740.43,3044.44)"/><path d="M3634.01,7695.94L3940.87,7105.39L3429.44,7400.66L3634.01,7695.94Z" fill="url(#_Linear28)" transform="matrix(0.5,-0.866025,0.866025,0.5,-4612.18,9870.22)"/><path d="M3429.44,7991.21L3634.01,7695.94L3429.44,7400.66L3429.44,7991.21Z" fill="url(#_Linear29)" transform="matrix(0.5,-0.866025,0.866025,0.5,-4612.18,9870.22)"/><path d="M3940.87,8286.49L3634.01,7695.94L3429.44,7991.21L3940.87,8286.49Z" fill="url(#_Linear30)" transform="matrix(0.5,-0.866025,0.866025,0.5,-4612.18,9870.22)"/><path d="M3940.87,8286.49L4094.3,7961.69L3634.01,7695.94L3940.87,8286.49Z" fill="url(#_Linear31)" transform="matrix(0.5,-0.866025,0.866025,0.5,-4612.18,9870.22)"/><path d="M4452.3,7991.21L4094.3,7961.69L3940.87,8286.49L4452.3,7991.21Z" fill="url(#_Linear32)" transform="matrix(0.5,-0.866025,0.866025,0.5,-4612.18,9870.22)"/><path d="M4196.59,7489.24L4094.3,7961.69L3634.01,7695.94L4196.59,7489.24Z" fill="url(#_Linear33)" transform="matrix(0.5,-0.866025,0.866025,0.5,-4612.18,9870.22)"/><path d="M3940.87,7105.39L4196.59,7489.24L3634.01,7695.94L3940.87,7105.39Z" fill="url(#_Linear34)" transform="matrix(0.5,-0.866025,0.866025,0.5,-4612.18,9870.22)"/><path d="M4452.3,7991.21L4196.59,7489.24L4094.3,7961.69L4452.3,7991.21Z" fill="url(#_Linear35)" transform="matrix(0.5,-0.866025,0.866025,0.5,-4612.18,9870.22)"/></g><path d="M4260.64,10192.9C4668.65,9690.23 5231.23,10143.5 5130.78,10558.3C5980.25,10715 5533.62,11808 4860.15,11414.2C4706.31,11508.8 4614.83,11510.7 4437.15,11459.3C3367.81,11646.7 3039.68,10948.9 3696.19,10666.4C3680.27,10560.7 3730.62,10097.3 4260.64,10192.9Z" fill="none" stroke="#fff" stroke-width="35.42px"/></g><defs><linearGradient id="_Linear1" x2="1" gradientUnits="userSpaceOnUse" gradientTransform="matrix(2235.08,0,0,1533.9,3358.27,10738.3)"><stop offset="0" stop-color="#0081d5"/><stop offset="1" stop-color="#3039e9"/></linearGradient><linearGradient id="_Linear3" x2="1" gradientUnits="userSpaceOnUse" gradientTransform="matrix(2.10332e-14,-343.498,343.498,2.10332e-14,4043.16,7894.51)"><stop offset="0" stop-color="#5494ec"/><stop offset="0.46" stop-color="#2366c4"/><stop offset="1" stop-color="#1559b9"/></linearGradient><linearGradient id="_Linear4" x2="1" gradientUnits="userSpaceOnUse" gradientTransform="matrix(177.742,-418.877,418.877,177.742,3788.74,7606.61)"><stop offset="0" stop-color="#1e71e6"/><stop offset="1" stop-color="#10448d"/></linearGradient><linearGradient id="_Linear5" x2="1" gradientUnits="userSpaceOnUse" gradientTransform="matrix(407.85,213.188,-213.188,407.85,4043.16,7189.72)"><stop offset="0" stop-color="#124ea2"/><stop offset="1" stop-color="#4086ea"/></linearGradient><linearGradient id="_Linear6" x2="1" gradientUnits="userSpaceOnUse" gradientTransform="matrix(-122.695,-335.09,335.09,-122.695,4344.85,7927.68)"><stop offset="0" stop-color="#dbe8fb"/><stop offset="1" stop-color="#1763cd"/></linearGradient><linearGradient id="_Linear7" x2="1" gradientUnits="userSpaceOnUse" gradientTransform="matrix(-30.4285,-529.517,529.517,-30.4285,4391.87,7877.72)"><stop offset="0" stop-color="#0e3e80"/><stop offset="1" stop-color="#2475e7"/></linearGradient><linearGradient id="_Linear8" x2="1" gradientUnits="userSpaceOnUse" gradientTransform="matrix(357.283,-112.425,112.425,357.283,3499.44,7383.1)"><stop offset="0" stop-color="#a1c4f5"/><stop offset="1" stop-color="#2a79e7"/></linearGradient><linearGradient id="_Linear9" x2="1" gradientUnits="userSpaceOnUse" gradientTransform="matrix(159.146,-38.973,38.973,159.146,3457.16,7679.6)"><stop offset="0" stop-color="#649dee"/><stop offset="1" stop-color="#b8d3f7"/></linearGradient><linearGradient id="_Linear10" x2="1" gradientUnits="userSpaceOnUse" gradientTransform="matrix(-281.288,-260.858,260.858,-281.288,3838.58,8178.25)"><stop offset="0" stop-color="#124fa3"/><stop offset="1" stop-color="#1764d1"/></linearGradient><linearGradient id="_Linear11" x2="1" gradientUnits="userSpaceOnUse" gradientTransform="matrix(277.847,-15.5453,15.5453,277.847,3788.48,8020.14)"><stop offset="0" stop-color="#124fa3"/><stop offset="0.58" stop-color="#1b5ab1"/><stop offset="0.8" stop-color="#2e71ce"/><stop offset="1" stop-color="#4087ea"/></linearGradient><linearGradient id="_Linear12" x2="1" gradientUnits="userSpaceOnUse" gradientTransform="matrix(445.147,-236.284,236.284,445.147,4005.86,8168.77)"><stop offset="0" stop-color="#2f7ce8"/><stop offset="1" stop-color="#a7c7f5"/></linearGradient><linearGradient id="_Linear13" x2="1" gradientUnits="userSpaceOnUse" gradientTransform="matrix(2.10332e-14,-343.498,343.498,2.10332e-14,4043.16,7894.51)"><stop offset="0" stop-color="#5494ec"/><stop offset="0.46" stop-color="#2366c4"/><stop offset="1" stop-color="#1559b9"/></linearGradient><linearGradient id="_Linear14" x2="1" gradientUnits="userSpaceOnUse" gradientTransform="matrix(177.742,-418.877,418.877,177.742,3788.74,7606.61)"><stop offset="0" stop-color="#1e71e6"/><stop offset="1" stop-color="#10448d"/></linearGradient><linearGradient id="_Linear15" x2="1" gradientUnits="userSpaceOnUse" gradientTransform="matrix(-122.695,-335.09,335.09,-122.695,4344.85,7927.68)"><stop offset="0" stop-color="#dbe8fb"/><stop offset="1" stop-color="#1763cd"/></linearGradient><linearGradient id="_Linear16" x2="1" gradientUnits="userSpaceOnUse" gradientTransform="matrix(2.10332e-14,-343.498,343.498,2.10332e-14,4043.16,7894.51)"><stop offset="0" stop-color="#5494ec"/><stop offset="0.46" stop-color="#2366c4"/><stop offset="1" stop-color="#1559b9"/></linearGradient><linearGradient id="_Linear17" x2="1" gradientUnits="userSpaceOnUse" gradientTransform="matrix(177.742,-418.877,418.877,177.742,3788.74,7606.61)"><stop offset="0" stop-color="#1e71e6"/><stop offset="1" stop-color="#10448d"/></linearGradient><linearGradient id="_Linear18" x2="1" gradientUnits="userSpaceOnUse" gradientTransform="matrix(407.85,213.188,-213.188,407.85,4043.16,7189.72)"><stop offset="0" stop-color="#124ea2"/><stop offset="1" stop-color="#4086ea"/></linearGradient><linearGradient id="_Linear19" x2="1" gradientUnits="userSpaceOnUse" gradientTransform="matrix(-122.695,-335.09,335.09,-122.695,4344.85,7927.68)"><stop offset="0" stop-color="#dbe8fb"/><stop offset="1" stop-color="#1763cd"/></linearGradient><linearGradient id="_Linear20" x2="1" gradientUnits="userSpaceOnUse" gradientTransform="matrix(-30.4285,-529.517,529.517,-30.4285,4391.87,7877.72)"><stop offset="0" stop-color="#0e3e80"/><stop offset="1" stop-color="#2475e7"/></linearGradient><linearGradient id="_Linear21" x2="1" gradientUnits="userSpaceOnUse" gradientTransform="matrix(159.146,-38.973,38.973,159.146,3457.16,7679.6)"><stop offset="0" stop-color="#649dee"/><stop offset="1" stop-color="#b8d3f7"/></linearGradient><linearGradient id="_Linear22" x2="1" gradientUnits="userSpaceOnUse" gradientTransform="matrix(-281.288,-260.858,260.858,-281.288,3838.58,8178.25)"><stop offset="0" stop-color="#124fa3"/><stop offset="1" stop-color="#1764d1"/></linearGradient><linearGradient id="_Linear23" x2="1" gradientUnits="userSpaceOnUse" gradientTransform="matrix(277.847,-15.5453,15.5453,277.847,3788.48,8020.14)"><stop offset="0" stop-color="#124fa3"/><stop offset="0.58" stop-color="#1b5ab1"/><stop offset="0.8" stop-color="#2e71ce"/><stop offset="1" stop-color="#4087ea"/></linearGradient><linearGradient id="_Linear24" x2="1" gradientUnits="userSpaceOnUse" gradientTransform="matrix(445.147,-236.284,236.284,445.147,4005.86,8168.77)"><stop offset="0" stop-color="#2f7ce8"/><stop offset="1" stop-color="#a7c7f5"/></linearGradient><linearGradient id="_Linear25" x2="1" gradientUnits="userSpaceOnUse" gradientTransform="matrix(2.10332e-14,-343.498,343.498,2.10332e-14,4043.16,7894.51)"><stop offset="0" stop-color="#5494ec"/><stop offset="0.46" stop-color="#2366c4"/><stop offset="1" stop-color="#1559b9"/></linearGradient><linearGradient id="_Linear26" x2="1" gradientUnits="userSpaceOnUse" gradientTransform="matrix(-122.695,-335.09,335.09,-122.695,4344.85,7927.68)"><stop offset="0" stop-color="#dbe8fb"/><stop offset="1" stop-color="#1763cd"/></linearGradient><linearGradient id="_Linear27" x2="1" gradientUnits="userSpaceOnUse" gradientTransform="matrix(-30.4285,-529.517,529.517,-30.4285,4391.87,7877.72)"><stop offset="0" stop-color="#0e3e80"/><stop offset="1" stop-color="#2475e7"/></linearGradient><linearGradient id="_Linear28" x2="1" gradientUnits="userSpaceOnUse" gradientTransform="matrix(357.283,-112.425,112.425,357.283,3499.44,7383.1)"><stop offset="0" stop-color="#a1c4f5"/><stop offset="1" stop-color="#2a79e7"/></linearGradient><linearGradient id="_Linear29" x2="1" gradientUnits="userSpaceOnUse" gradientTransform="matrix(159.146,-38.973,38.973,159.146,3457.16,7679.6)"><stop offset="0" stop-color="#649dee"/><stop offset="1" stop-color="#b8d3f7"/></linearGradient><linearGradient id="_Linear30" x2="1" gradientUnits="userSpaceOnUse" gradientTransform="matrix(-281.288,-260.858,260.858,-281.288,3838.58,8178.25)"><stop offset="0" stop-color="#124fa3"/><stop offset="1" stop-color="#1764d1"/></linearGradient><linearGradient id="_Linear31" x2="1" gradientUnits="userSpaceOnUse" gradientTransform="matrix(277.847,-15.5453,15.5453,277.847,3788.48,8020.14)"><stop offset="0" stop-color="#124fa3"/><stop offset="0.58" stop-color="#1b5ab1"/><stop offset="0.8" stop-color="#2e71ce"/><stop offset="1" stop-color="#4087ea"/></linearGradient><linearGradient id="_Linear32" x2="1" gradientUnits="userSpaceOnUse" gradientTransform="matrix(445.147,-236.284,236.284,445.147,4005.86,8168.77)"><stop offset="0" stop-color="#2f7ce8"/><stop offset="1" stop-color="#a7c7f5"/></linearGradient><linearGradient id="_Linear33" x2="1" gradientUnits="userSpaceOnUse" gradientTransform="matrix(2.10332e-14,-343.498,343.498,2.10332e-14,4043.16,7894.51)"><stop offset="0" stop-color="#5494ec"/><stop offset="0.46" stop-color="#2366c4"/><stop offset="1" stop-color="#1559b9"/></linearGradient><linearGradient id="_Linear34" x2="1" gradientUnits="userSpaceOnUse" gradientTransform="matrix(177.742,-418.877,418.877,177.742,3788.74,7606.61)"><stop offset="0" stop-color="#1e71e6"/><stop offset="1" stop-color="#10448d"/></linearGradient><linearGradient id="_Linear35" x2="1" gradientUnits="userSpaceOnUse" gradientTransform="matrix(-122.695,-335.09,335.09,-122.695,4344.85,7927.68)"><stop offset="0" stop-color="#dbe8fb"/><stop offset="1" stop-color="#1763cd"/></linearGradient></defs></svg>