<?xml version="1.0" encoding="UTF-8" standalone="no"?>
<!DOCTYPE svg PUBLIC "-//W3C//DTD SVG 1.1//EN" "http://www.w3.org/Graphics/SVG/1.1/DTD/svg11.dtd">
<svg width="100%" height="100%" viewBox="0 0 48 13" version="1.1" xmlns="http://www.w3.org/2000/svg" xmlns:xlink="http://www.w3.org/1999/xlink" xml:space="preserve" xmlns:serif="http://www.serif.com/" style="fill-rule:evenodd;clip-rule:evenodd;stroke-linejoin:round;stroke-miterlimit:1.41421;">
    <g transform="matrix(1,0,0,1,-363.474,-721.673)">
        <g transform="matrix(0.120952,0,0,0.120952,363.474,723.323)">
            <path d="M0,78.936C9.344,87.51 20.645,92.581 32.85,92.581C49.213,92.581 63.634,81.409 63.634,65.307C63.634,34.663 21.68,39.194 21.68,24.518C21.68,17.514 29.09,14.654 35.709,14.654C41.686,14.654 47.785,17.248 51.424,20.631L60.521,7.639C51.951,1.28 43.375,-0.931 34.148,-0.931C19.088,-0.931 4.154,8.416 4.154,24.654C4.154,53.655 46.1,47.505 46.1,65.57C46.1,72.182 40.645,76.987 32.85,76.987C24.545,76.987 16.623,72.702 11.424,66.995L0,78.936ZM138.948,45.827C138.948,34.845 132.659,15.952 109.079,15.952L96.093,15.952L96.093,75.702L109.079,75.702C132.659,75.702 138.948,56.809 138.948,45.827M156.483,45.827C156.483,49.278 156.067,91.288 107.129,91.288L78.562,91.288L78.562,0.366L107.129,0.366C156.067,0.366 156.483,42.376 156.483,45.827M248.674,0.366L231.141,0.366L231.144,54.262C231.143,76.639 212.169,76.987 209.719,76.987C207.269,76.987 188.294,76.639 188.294,54.26L188.289,0.366L170.755,0.366L170.759,52.967C170.759,81.151 189.276,92.58 209.718,92.58C230.159,92.58 248.679,81.151 248.679,52.967L248.674,0.366ZM357.843,-13.645C321.466,-5.719 307.48,13.456 307.48,27.649C345.482,23.056 340.838,-0.777 357.843,-13.645M396.851,50.707C389.123,52.576 374.171,54.885 364.213,54.885C343.648,54.885 339.063,43.152 338.041,38.083C330.014,36.264 316.786,37.224 310.419,38.676C316.694,40.053 320.41,44.909 321.531,53.866C322.28,53.602 325.422,52.571 328.677,52.571C335.653,52.571 341.565,60.619 341.565,69.534C341.565,82.726 334.161,92.508 326.999,92.508C322.118,92.508 320.597,90.13 318.948,90.13C317.302,90.13 315.97,92.58 311.284,92.58C303.992,92.58 295.961,81.775 295.961,69.485C295.961,63.815 299,52.486 311.036,52.486C314.11,52.486 315.668,53.29 316.039,53.512C315.834,47.303 311.381,41.729 303.351,41.729C296.525,41.729 279.951,48.31 267.966,58.457L264.405,53.481C275.692,45.026 299.912,32.91 327.981,32.91C331.863,32.91 335.389,33.196 338.346,33.685C339.703,30.066 343.948,23.056 356.463,23.056C376.088,23.056 390.574,39.75 396.851,50.707" style="fill:rgb(83,101,125);fill-rule:nonzero;"/>
        </g>
    </g>
</svg>
