<?xml version="1.0" encoding="UTF-8" standalone="no"?><!DOCTYPE svg PUBLIC "-//W3C//DTD SVG 1.1//EN" "http://www.w3.org/Graphics/SVG/1.1/DTD/svg11.dtd"><svg width="100%" height="100%" viewBox="0 0 24 21" version="1.1" xmlns="http://www.w3.org/2000/svg" xmlns:xlink="http://www.w3.org/1999/xlink" xml:space="preserve" xmlns:serif="http://www.serif.com/" style="fill-rule:evenodd;clip-rule:evenodd;stroke-linejoin:round;stroke-miterlimit:2;"><g id="Mail-Gradient" serif:id="Mail Gradient"><path d="M9.898,19.684l5.017,-5.335l-4.598,-0.044l-0.419,5.379Z" style="fill:#798aa0;"/><path d="M0.586,8.691c-0.361,0.14 -0.595,0.491 -0.586,0.878c0.01,0.386 0.26,0.725 0.627,0.848c3.068,1.022 7.966,2.654 7.966,2.654c0,0 6.827,5.098 9.693,7.238c0.272,0.203 0.629,0.255 0.947,0.136c0.319,-0.119 0.555,-0.391 0.628,-0.723c0.875,-3.978 3.231,-14.693 4.111,-18.697c0.067,-0.304 -0.038,-0.62 -0.275,-0.822c-0.236,-0.202 -0.564,-0.258 -0.854,-0.146c-4.31,1.672 -16.962,6.58 -22.257,8.634Z" style="fill:#53657d;"/><path d="M7.542,12.72c0,0 7.743,-5.83 11.934,-8.494c0.103,-0.066 0.24,-0.042 0.315,0.056c0.074,0.097 0.062,0.236 -0.028,0.319c-3.382,3.112 -9.357,9.823 -9.357,9.823c0,0 -0.237,2.997 -0.41,5.052c-0.014,0.162 -0.141,0.292 -0.303,0.309c-0.162,0.017 -0.313,-0.083 -0.36,-0.239c-0.738,-2.441 -1.791,-6.826 -1.791,-6.826Z" style="fill:url(#_Linear1);"/></g><defs><linearGradient id="_Linear1" x1="0" y1="0" x2="1" y2="0" gradientUnits="userSpaceOnUse" gradientTransform="matrix(7,-6,6,7,7.99623,13.7849)"><stop offset="0" style="stop-color:#8393a7;stop-opacity:1"/><stop offset="1" style="stop-color:#3d4b5c;stop-opacity:1"/></linearGradient></defs></svg>