<?xml version="1.0" encoding="UTF-8" standalone="no"?>
<!DOCTYPE svg PUBLIC "-//W3C//DTD SVG 1.1//EN" "http://www.w3.org/Graphics/SVG/1.1/DTD/svg11.dtd">
<svg width="100%" height="100%" viewBox="0 0 24 21" version="1.1" xmlns="http://www.w3.org/2000/svg" xmlns:xlink="http://www.w3.org/1999/xlink" xml:space="preserve" xmlns:serif="http://www.serif.com/" style="fill-rule:evenodd;clip-rule:evenodd;stroke-linejoin:round;stroke-miterlimit:1.41421;">
    <g transform="matrix(1,0,0,1,-364.008,-576)">
        <g id="Mail" transform="matrix(1,0,0,1,0.00346611,25.7849)">
            <path d="M372.983,569.335L378,564L373.507,563.965L372.983,569.335Z" style="fill:rgb(224,228,234);"/>
            <path d="M364.59,558.906C364.229,559.046 363.995,559.397 364.005,559.784C364.014,560.17 364.265,560.509 364.632,560.632C367.699,561.654 372.598,563.286 372.598,563.286C372.598,563.286 379.425,568.384 382.29,570.524C382.562,570.727 382.919,570.779 383.238,570.66C383.556,570.542 383.793,570.269 383.866,569.937C384.74,565.959 387.097,555.244 387.977,551.24C388.044,550.936 387.938,550.621 387.702,550.418C387.466,550.216 387.138,550.16 386.848,550.272C382.538,551.944 369.886,556.852 364.59,558.906Z" style="fill:rgb(83,101,125);"/>
            <path d="M370.396,562.552C370.396,562.552 378.986,557.092 383.176,554.428C383.28,554.362 383.417,554.386 383.491,554.484C383.566,554.581 383.554,554.719 383.464,554.803C380.082,557.914 373.507,563.965 373.507,563.965C373.507,563.965 373.244,567.08 373.07,569.135C373.056,569.298 372.929,569.427 372.767,569.444C372.606,569.461 372.455,569.361 372.407,569.205C371.67,566.764 370.396,562.552 370.396,562.552Z" style="fill:rgb(131,147,167);"/>
        </g>
    </g>
</svg>
