<?xml version="1.0" encoding="UTF-8" standalone="no"?>
<!DOCTYPE svg PUBLIC "-//W3C//DTD SVG 20010904//EN"
              "http://www.w3.org/TR/2001/REC-SVG-20010904/DTD/svg10.dtd">

<svg xmlns="http://www.w3.org/2000/svg"
     width="100%" height="100%"
     viewBox="0 0 500 500">
  <path id="Selection"
        fill="black " stroke="black" stroke-width="1"
        d="M 325.00,120.00
           C 325.00,120.00 332.55,137.00 332.55,137.00
             339.68,154.96 343.87,174.69 344.00,194.00
             344.00,194.00 344.00,212.00 344.00,212.00
             343.95,221.88 341.30,235.34 338.87,245.00
             325.88,296.73 288.73,341.26 238.00,359.31
             217.52,366.60 205.22,367.16 184.00,367.00
             166.08,366.87 160.80,362.91 150.00,362.00
             157.50,371.99 178.31,383.24 190.00,388.28
             240.90,410.24 301.71,401.75 345.00,367.33
             402.14,321.91 416.79,237.87 380.85,175.00
             371.42,158.52 358.14,142.65 343.00,131.13
             337.65,127.06 331.42,122.04 325.00,120.00 Z" />
</svg>
