<svg viewBox="0 0 24 24" xmlns="http://www.w3.org/2000/svg" fill-rule="evenodd" clip-rule="evenodd" stroke-linejoin="round" stroke-miterlimit="1.414"><path d="M10.498 24.001H2.244A2.27 2.27 0 0 1 0 21.743V2.258A2.244 2.244 0 0 1 2.244.001h7.884H4.5v24h5.998zm-5.998-21H3v18h1.5v-18zM0 7.501v10.5h3v-10.5H0z" fill="#8393a7"/><path d="M24 2.258v19.485a2.244 2.244 0 0 1-2.244 2.258H8.244A2.27 2.27 0 0 1 6 21.743V2.258A2.244 2.244 0 0 1 8.244.001h13.512A2.26 2.26 0 0 1 24 2.258zM9 3.001v18h12v-18H9zm-3 4.5v10.5h3v-10.5H6z" fill="#53657d"/><path d="M18.75 12.751l-5.682-5.696c-.582-.582-1.053-.39-1.053.444v3.002H3v4.5h9.015v3.001c0 .828.484 1.013 1.053.444l5.682-5.695z" fill="#53657d"/></svg>