<?xml version="1.0" encoding="UTF-8" standalone="no"?>
<!DOCTYPE svg PUBLIC "-//W3C//DTD SVG 1.1//EN" "http://www.w3.org/Graphics/SVG/1.1/DTD/svg11.dtd">
<svg width="100%" height="100%" viewBox="0 0 24 24" version="1.1" xmlns="http://www.w3.org/2000/svg" xmlns:xlink="http://www.w3.org/1999/xlink" xml:space="preserve" xmlns:serif="http://www.serif.com/" style="fill-rule:evenodd;clip-rule:evenodd;stroke-linejoin:round;stroke-miterlimit:1.41421;">
    <g transform="matrix(1,0,0,1,-396,-488)">
        <g id="move" transform="matrix(1.5,0,0,1.5,-423.681,-58.7463)">
            <g transform="matrix(0.666667,0,0,0.666667,202.454,132.498)">
                <path d="M516,366L519,366L519,369L520.5,369L520.5,372L518.244,372C517.011,371.991 516.002,370.975 516,369.743L516,366ZM520.5,351L519,351L519,356L516,356L516,350.258C516,349.001 517.005,348 518.244,348L520.5,348L520.5,351Z" style="fill:rgb(131,147,167);"/>
            </g>
            <g transform="matrix(1,0,0,1,538.454,356.498)">
                <path d="M24,9.505L24,22.495C24,23.333 23.33,24 22.504,24L13.496,24C12.674,23.994 12.001,23.317 12,22.495L12,9.505C12,8.667 12.67,8 13.496,8L22.504,8C23.32,8 24,8.674 24,9.505ZM14,10L14,22L22,22L22,10L14,10ZM12,13.333L12,20L14,20L14,13.333L12,13.333Z" style="fill:rgb(83,101,125);"/>
            </g>
            <g transform="matrix(1,0,0,1,537.954,356.418)">
                <path d="M20.5,16.746L15.833,12.746L15.833,15.413L9.833,15.413L9.833,18.079L15.833,18.079L15.833,20.746L20.5,16.746Z" style="fill:rgb(83,101,125);"/>
            </g>
        </g>
    </g>
</svg>
