<?xml version="1.0" encoding="UTF-8" standalone="no"?>
<!DOCTYPE svg PUBLIC "-//W3C//DTD SVG 1.1//EN" "http://www.w3.org/Graphics/SVG/1.1/DTD/svg11.dtd">
<svg width="100%" height="100%" viewBox="0 0 24 24" version="1.1" xmlns="http://www.w3.org/2000/svg" xmlns:xlink="http://www.w3.org/1999/xlink" xml:space="preserve" xmlns:serif="http://www.serif.com/" style="fill-rule:evenodd;clip-rule:evenodd;stroke-linejoin:round;stroke-miterlimit:1.41421;">
    <g transform="matrix(1,0,0,1,-620.001,-748)">
        <g id="move-no-comp" serif:id="move no comp" transform="matrix(1.5,0,0,1.5,-175.666,325.325)">
            <g transform="matrix(0.666667,0,0,0.666667,117.111,-216.883)">
                <path d="M635.001,748L641.758,748C642.982,748 644.002,749.011 644.002,750.258L644.002,769.743C644.002,770.968 643.047,771.95 641.758,772L628.246,772C627.013,771.991 626.003,770.975 626.002,769.743L626.002,762L629.002,762L629.002,769L641.002,769L641.002,751L635.001,751L635.001,748Z" style="fill:rgb(131,147,167);"/>
            </g>
            <g transform="matrix(1,0,0,1,520.611,269.038)">
                <path d="M20.5,16.746L15.833,12.746L15.833,15.413L9.833,15.413L9.833,18.079L15.833,18.079L15.833,20.746L20.5,16.746Z" style="fill:rgb(83,101,125);"/>
            </g>
        </g>
    </g>
</svg>
