<?xml version="1.0" encoding="UTF-8" standalone="no"?><!DOCTYPE svg PUBLIC "-//W3C//DTD SVG 1.1//EN" "http://www.w3.org/Graphics/SVG/1.1/DTD/svg11.dtd"><svg width="100%" height="100%" viewBox="0 0 25 25" version="1.1" xmlns="http://www.w3.org/2000/svg" xmlns:xlink="http://www.w3.org/1999/xlink" xml:space="preserve" xmlns:serif="http://www.serif.com/" style="fill-rule:evenodd;clip-rule:evenodd;stroke-linejoin:round;stroke-miterlimit:2;"><g id="New-Folder" serif:id="New Folder"><path d="M0.005,23.07c-0.002,-0.023 -0.003,-0.047 -0.003,-0.07c0,-3.752 0,-17.009 0,-21.5c0,-0.398 0.159,-0.779 0.44,-1.061c0.281,-0.281 0.663,-0.439 1.061,-0.439c3.219,0 10.499,0 10.499,0l3,4l7.501,0c0.398,0 0.779,0.158 1.061,0.439c0.281,0.282 0.439,0.663 0.439,1.061c0,3.892 0,14.238 0,17.5c0,0.552 -0.448,1 -1,1c-3.905,0 -18.096,0 -22.001,0l-0.005,0l10.005,0l0,-3l10,0l0,-14l-8,0l-3,-4l-7,0l0.001,10l-2.998,0l0,10.07Z" style="fill:#8393a7;"/><path d="M4.875,15.25l-4.875,0l0,3.5l4.875,0l0,5.25l3.25,0l0,-5.25l4.875,0l0,-3.5l-4.875,0l0,-5.25l-3.25,0l0,5.25Z" style="fill:#53657d;"/></g></svg>