<?xml version="1.0" encoding="UTF-8" standalone="no"?><!DOCTYPE svg PUBLIC "-//W3C//DTD SVG 1.1//EN" "http://www.w3.org/Graphics/SVG/1.1/DTD/svg11.dtd"><svg width="100%" height="100%" viewBox="0 0 24 24" version="1.1" xmlns="http://www.w3.org/2000/svg" xmlns:xlink="http://www.w3.org/1999/xlink" xml:space="preserve" xmlns:serif="http://www.serif.com/" style="fill-rule:evenodd;clip-rule:evenodd;stroke-linejoin:round;stroke-miterlimit:2;"><g id="play"><path d="M7.842,7.854l-3,0l0,2l3,0l0,3l2,0l0,-3l3,0l0,-2l-3,0l0,-3l-2,0l0,3Z" style="fill:#53657d;"/><path id="path-1_1_" d="M17.143,15.086l-1.097,0l-0.412,-0.412c1.372,-1.508 2.195,-3.565 2.195,-5.76c0,-4.937 -3.978,-8.914 -8.915,-8.914c-4.937,0 -8.914,3.977 -8.914,8.914c0,4.937 3.977,8.915 8.914,8.915c2.195,0 4.252,-0.823 5.76,-2.195l0.412,0.412l0,1.097l6.857,6.857l2.057,-2.057l-6.857,-6.857Zm-8.229,0c-3.428,0 -6.171,-2.743 -6.171,-6.172c0,-3.428 2.743,-6.171 6.171,-6.171c3.429,0 6.172,2.743 6.172,6.171c0,3.429 -2.743,6.172 -6.172,6.172Z" style="fill:#53657d;fill-rule:nonzero;"/></g></svg>