<svg viewBox="0 0 24 24" xmlns="http://www.w3.org/2000/svg" fill-rule="evenodd" clip-rule="evenodd" stroke-linejoin="round" stroke-miterlimit="1.414"><path d="M19.967 24H0c.028-2.525 1.754-4.31 2.667-4.644a26.229 26.229 0 0 1 3.058-.898c.484-.1 1.18-.387 1.416-.687.237-.3.119-2.096.119-2.096s-2.834.037-3.955-1.036C5.18 12.08 4.13 8.274 4.508 5.09c.378-3.195 2.16-5.092 5.465-5.092h.02c3.305 0 5.087 1.897 5.465 5.092.378 3.183-.673 6.99 1.204 9.548-1.121 1.073-3.955 1.036-3.955 1.036s-.117 1.797.118 2.096c.237.3.933.587 1.417.687 1.039.237 2.137.561 3.057.898.914.335 2.64 2.118 2.668 4.643z" fill="#53657d"/><path d="M16.13 4.757c.331-.109.702-.169 1.11-.169 2.048 0 3.142 1.506 3.142 3.038 0 1.485-.282 1.922-.282 1.922s.223-.103.282.33c.054.431-.15.74-.258 1.325-.126.679-.447.535-.447.535s-.093 1.038-.234 1.414c-.14.38-.481.72-.481.72s0 1.284.141 1.464c.141.18.574.304.846.417.394.16 1.283.17 1.828.375.545.206 2.227 1.141 2.223 3.46H18.91a4.753 4.753 0 0 0-1.059-.794 2.612 2.612 0 0 0-.287-.134c-1.515-.569-3.068-.547-4.139-1.325l.019-.936c5.387-.39 3.782-2.215 3.782-2.215-1.821-2.523-.642-6.11-1.098-9.427z" fill="#8393a7" fill-rule="nonzero"/></svg>