<?xml version="1.0" encoding="UTF-8" standalone="no"?>
<!DOCTYPE svg PUBLIC "-//W3C//DTD SVG 1.1//EN" "http://www.w3.org/Graphics/SVG/1.1/DTD/svg11.dtd">
<svg width="100%" height="100%" viewBox="0 0 24 24" version="1.1" xmlns="http://www.w3.org/2000/svg" xmlns:xlink="http://www.w3.org/1999/xlink" xml:space="preserve" xmlns:serif="http://www.serif.com/" style="fill-rule:evenodd;clip-rule:evenodd;stroke-linejoin:round;stroke-miterlimit:1.41421;">
    <g transform="matrix(1,0,0,1,-524,-544)">
        <g id="Options" transform="matrix(1,0,0,1,12,-19.9999)">
            <g transform="matrix(1.33333,0,0,1.33333,508,560)">
                <path d="M4.125,16.875C3.827,16.875 3.54,16.994 3.33,17.205C3.119,17.415 3,17.702 3,18C3,18.298 3.119,18.585 3.33,18.795C3.54,19.006 3.827,19.125 4.125,19.125C5.862,19.125 9,19.125 9,19.125L9,16.875C9,16.875 5.862,16.875 4.125,16.875ZM4.125,4.875C3.504,4.875 3,5.379 3,6C3,6.621 3.504,7.125 4.125,7.125C6.739,7.125 13,7.125 13,7.125L13,4.875C13,4.875 6.739,4.875 4.125,4.875ZM12.75,16.875L12.75,19.125C12.75,19.125 17.618,19.125 19.875,19.125C20.173,19.125 20.46,19.006 20.67,18.795C20.881,18.585 21,18.298 21,18C21,17.702 20.881,17.415 20.67,17.205C20.46,16.994 20.173,16.875 19.875,16.875C17.618,16.875 12.75,16.875 12.75,16.875ZM7.5,13.125L7.5,10.875C7.5,10.875 5.456,10.875 4.124,10.875C3.826,10.875 3.54,10.993 3.329,11.204C3.118,11.415 3,11.701 3,11.999C3,12 3,12 3,12.001C3,12.299 3.118,12.585 3.329,12.796C3.54,13.007 3.826,13.125 4.124,13.125C5.456,13.125 7.5,13.125 7.5,13.125ZM19.876,13.125C20.174,13.125 20.46,13.007 20.671,12.796C20.882,12.585 21,12.299 21,12.001C21,12 21,12 21,11.999C21,11.701 20.882,11.415 20.671,11.204C20.46,10.993 20.174,10.875 19.876,10.875C17.264,10.875 11,10.875 11,10.875L11,13.125C11,13.125 17.264,13.125 19.876,13.125ZM16.5,4.875L16.5,7.125C16.5,7.125 18.542,7.125 19.875,7.125C20.496,7.125 21,6.621 21,6C21,5.379 20.496,4.875 19.875,4.875C18.542,4.875 16.5,4.875 16.5,4.875Z" style="fill:rgb(83,101,125);fill-rule:nonzero;"/>
            </g>
            <g transform="matrix(1.125,0,0,1,-66,0.142925)">
                <rect x="528" y="563.857" width="2.667" height="8" style="fill:rgb(131,147,167);"/>
            </g>
            <g transform="matrix(1.125,0,0,1,-65,0.142925)">
                <rect x="517.333" y="571.857" width="2.667" height="8" style="fill:rgb(131,147,167);"/>
            </g>
            <g transform="matrix(1.125,0,0,1,-65.3333,0.142925)">
                <rect x="522.667" y="579.857" width="2.667" height="8" style="fill:rgb(131,147,167);"/>
            </g>
        </g>
    </g>
</svg>
