<svg viewBox="0 0 24 24" xmlns="http://www.w3.org/2000/svg" fill-rule="evenodd" clip-rule="evenodd" stroke-linejoin="round" stroke-miterlimit="1.414"><path d="M17.593 14.999c.05-.3.05-.65.05-1s-.05-.65-.05-1l2.147-1.65c.205-.15.256-.4.103-.65l-2.046-3.45c-.102-.2-.409-.3-.614-.2l-2.557 1a7.443 7.443 0 0 0-1.738-1l-.358-2.65a.548.548 0 0 0-.512-.4h-4.09c-.256 0-.461.2-.512.4l-.41 2.65c-.613.25-1.175.6-1.738 1l-2.557-1c-.256-.1-.512 0-.614.2l-2.045 3.45c-.102.2-.051.5.102.65l2.199 1.65c0 .35-.051.65-.051 1s.05.65.05 1l-2.147 1.65c-.204.15-.255.4-.102.65l2.046 3.45c.102.2.409.3.613.2l2.557-1c.512.4 1.125.75 1.739 1l.409 2.65c.051.25.256.4.511.4h4.092c.255 0 .46-.2.511-.4l.41-2.65c.613-.25 1.176-.6 1.738-1l2.557 1c.256.1.511 0 .614-.2l2.045-3.45c.103-.2.051-.5-.102-.65l-2.25-1.65zm-7.62 2.5c-1.995 0-3.58-1.55-3.58-3.5s1.585-3.5 3.58-3.5 3.58 1.55 3.58 3.5-1.585 3.5-3.58 3.5z" fill="#53657d" fill-rule="nonzero"/><path d="M12.954 3.742l.828.003c.229-.345.468-.663.757-.935l-.344-1.572a.329.329 0 0 1 .2-.334l2.29-.885a.329.329 0 0 1 .372.113l.774 1.406c.397.007.816.07 1.19.184L20.235.609c.093-.1.286-.11.387-.02l1.89 1.488c.14.106.166.257.084.386l-.845 1.387c.076.196.169.353.245.549.075.196.151.392.187.57l1.617.437a.36.36 0 0 1 .197.342l-.398 2.373c-.014.135-.136.246-.3.245l-1.648-.007a5.193 5.193 0 0 1-.757.936l.344 1.572a.329.329 0 0 1-.2.334l-.46.178c.13-.316.107-.699-.067-1.024l-1.567-2.643a2.02 2.02 0 0 0 .762-2.428c-.422-1.092-1.644-1.616-2.76-1.185-1.089.42-1.64 1.582-1.247 2.733l-.962.369c-.312-.213-.33-.27-1.162-.668l-.302-2.234-.319-.557z" fill="#8393a7"/></svg>