<?xml version="1.0" encoding="UTF-8" standalone="no"?>
<!DOCTYPE svg PUBLIC "-//W3C//DTD SVG 1.1//EN" "http://www.w3.org/Graphics/SVG/1.1/DTD/svg11.dtd">
<svg width="100%" height="100%" viewBox="0 0 24 24" version="1.1" xmlns="http://www.w3.org/2000/svg" xmlns:xlink="http://www.w3.org/1999/xlink" xml:space="preserve" xmlns:serif="http://www.serif.com/" style="fill-rule:evenodd;clip-rule:evenodd;stroke-linejoin:round;stroke-miterlimit:1.41421;">
    <g transform="matrix(1,0,0,1,-460.015,-436)">
        <g id="publish" transform="matrix(0.6,0,0,0.749995,11.8146,-857.742)">
            <g transform="matrix(1,0,0,1,752,1730)">
                <path d="M0,22C0,21.262 -0.404,20.625 -1,20.278L-1,8.263L16,19L35,7L16,-5L-3,7L-2.999,7L-3,7L-3,20.278C-3.596,20.625 -4,21.262 -4,22C-4,22.698 -3.641,23.312 -3.097,23.67L-5,27L1,27L-0.903,23.67C-0.359,23.312 0,22.698 0,22" style="fill:rgb(83,101,125);"/>
            </g>
            <g transform="matrix(1,0,0,1,768,1748.79)">
                <path d="M0,2.576L-1.068,1.902L-13,-5.635L-13,0L0,8.211L13,0L13,-5.634L1.068,1.902L0,2.576Z" style="fill:rgb(131,147,167);"/>
            </g>
        </g>
    </g>
</svg>
