<?xml version="1.0" encoding="UTF-8" standalone="no"?>
<!DOCTYPE svg PUBLIC "-//W3C//DTD SVG 1.1//EN" "http://www.w3.org/Graphics/SVG/1.1/DTD/svg11.dtd">
<svg width="100%" height="100%" viewBox="0 0 24 24" version="1.1" xmlns="http://www.w3.org/2000/svg" xmlns:xlink="http://www.w3.org/1999/xlink" xml:space="preserve" xmlns:serif="http://www.serif.com/" style="fill-rule:evenodd;clip-rule:evenodd;stroke-linejoin:round;stroke-miterlimit:1.41421;">
    <g transform="matrix(1,0,0,1,-964,-516)">
        <g transform="matrix(1,0,0,1,0,-0.0196082)">
            <g transform="matrix(1,0,0,1,0,0.0196082)">
                <path d="M964.168,526C965.127,520.343 970.081,516 976,516C979.3,516 982.3,517.35 984.475,519.525L987,516.98L988,525.468L979.623,524.552L982.3,521.7C980.725,520.05 978.475,519 976,519C971.737,519 968.141,522.004 967.225,526L964.168,526Z" style="fill:rgb(83,101,125);fill-rule:nonzero;"/>
            </g>
            <g transform="matrix(1,0,0,1,0,0.0196082)">
                <path d="M987.832,530C986.873,535.657 981.919,540 976,540C972.7,540 969.7,538.65 967.525,536.475L965,539.02L964,530.532L972.377,531.448L969.7,534.3C971.275,535.95 973.525,537 976,537C980.263,537 983.859,533.996 984.775,530L987.832,530Z" style="fill:rgb(131,147,167);fill-rule:nonzero;"/>
            </g>
        </g>
    </g>
</svg>
