<?xml version="1.0" encoding="UTF-8" standalone="no"?>
<!DOCTYPE svg PUBLIC "-//W3C//DTD SVG 1.1//EN" "http://www.w3.org/Graphics/SVG/1.1/DTD/svg11.dtd">
<svg width="100%" height="100%" viewBox="0 0 24 24" version="1.1" xmlns="http://www.w3.org/2000/svg" xmlns:xlink="http://www.w3.org/1999/xlink" xml:space="preserve" xmlns:serif="http://www.serif.com/" style="fill-rule:evenodd;clip-rule:evenodd;stroke-linejoin:round;stroke-miterlimit:1.41421;">
    <g transform="matrix(1,0,0,1,-732,-704)">
        <g id="rename-no-comp" serif:id="rename no comp" transform="matrix(-1.5,0,-0,1.5,1557.67,281.325)">
            <g transform="matrix(0.666667,0,0,0.666667,46.4451,-187.55)">
                <path d="M750,723L750,725.743C750,726.968 749.045,727.95 747.756,728L734.244,728C733.011,727.991 732.002,726.975 732,725.743L732,706.258C732,705.001 733.005,704 734.244,704L747.756,704C748.98,704 750,705.011 750,706.258L750,709L747,709L747,707L735,707L735,725L747,725L747,723L750,723Z" style="fill:rgb(83,101,125);"/>
            </g>
            <g id="Edit" transform="matrix(0.388871,0,0,0.388871,287.578,43.3504)">
                <g transform="matrix(0.0625,0,0,0.0625,647.974,616)">
                    <path d="M441.602,150.398C450.133,141.867 450.133,129.064 441.602,120.533L391.467,70.398C382.936,61.867 370.133,61.867 361.602,70.398L322.134,109.867L402.133,189.865L441.602,150.398Z" style="fill:rgb(131,147,167);fill-rule:nonzero;"/>
                </g>
                <g transform="matrix(0.0625,0,0,0.0625,647.974,616)">
                    <path d="M64,368L64,448L144,448L379.727,212.271L299.728,132.273L64,368Z" style="fill:rgb(83,101,125);fill-rule:nonzero;"/>
                </g>
            </g>
        </g>
    </g>
</svg>
