<?xml version="1.0" encoding="UTF-8" standalone="no"?>
<!DOCTYPE svg PUBLIC "-//W3C//DTD SVG 1.1//EN" "http://www.w3.org/Graphics/SVG/1.1/DTD/svg11.dtd">
<svg width="100%" height="100%" viewBox="0 0 24 24" version="1.1" xmlns="http://www.w3.org/2000/svg" xmlns:xlink="http://www.w3.org/1999/xlink" xml:space="preserve" xmlns:serif="http://www.serif.com/" style="fill-rule:evenodd;clip-rule:evenodd;stroke-linejoin:round;stroke-miterlimit:1.41421;">
    <g transform="matrix(1,0,0,1,-524.022,-436)">
        <g id="activity" transform="matrix(1,0,0,0.958326,373.522,-1302.86)">
            <g transform="matrix(1,0,0,1,127,1105)">
                <path d="M45.102,709.478L41.051,715.739L35.761,715.739C35.275,715.795 34.978,716.123 34.978,716.521C34.978,716.954 35.329,717.304 35.761,717.304L40.039,717.304L39.026,718.869L35.761,718.869C35.275,718.925 34.978,719.254 34.978,719.652C34.978,720.084 35.329,720.435 35.761,720.435L38.013,720.435L37,722L35.761,722C35.275,722.056 34.978,722.384 34.978,722.782C34.978,723.215 35.329,723.565 35.761,723.565L35.987,723.565L28.898,734.522L27.152,734.522C26.288,734.522 25.587,733.821 25.587,732.956L25.587,730.348L26.63,730.348C27.783,730.348 28.717,729.414 28.717,728.261C28.717,727.108 27.783,726.174 26.63,726.174L25.587,726.174L25.587,724.087L26.63,724.087C27.783,724.087 28.717,723.152 28.717,722C28.717,720.848 27.783,719.913 26.63,719.913L25.587,719.913L25.587,717.826L26.63,717.826C27.783,717.826 28.717,716.892 28.717,715.739C28.717,714.586 27.783,713.652 26.63,713.652L25.587,713.652L25.587,711.043C25.587,710.179 26.288,709.478 27.152,709.478L45.102,709.478Z" style="fill:rgb(83,101,125);"/>
            </g>
            <g transform="matrix(1,0,0,1,127,1105)">
                <path d="M45.102,709.478L45.935,709.478C46.799,709.478 47.5,710.179 47.5,711.043L47.5,732.956C47.5,733.764 46.888,734.429 45.935,734.522L28.898,734.522L35.987,723.565L43.587,723.565C44.019,723.565 44.37,723.215 44.37,722.782C44.37,722.384 44.072,722.056 43.587,722L37,722L38.013,720.435L43.587,720.435C44.019,720.435 44.37,720.084 44.37,719.652C44.37,719.254 44.072,718.925 43.587,718.869L39.026,718.869L40.039,717.304L43.587,717.304C44.019,717.304 44.37,716.954 44.37,716.521C44.37,716.123 44.072,715.795 43.587,715.739L41.051,715.739L45.102,709.478Z" style="fill:rgb(131,147,167);"/>
            </g>
            <g transform="matrix(1,0,0,1,127,1105)">
                <path d="M26.63,729.304C27.261,729.248 27.674,728.803 27.674,728.261C27.674,727.685 27.207,727.217 26.63,727.217L24.543,727.217C23.967,727.217 23.5,727.685 23.5,728.261C23.5,728.837 23.967,729.304 24.543,729.304L26.63,729.304Z" style="fill:rgb(131,147,167);"/>
            </g>
            <g transform="matrix(1,0,0,1,127,1105)">
                <path d="M26.63,723.043C27.261,722.987 27.674,722.542 27.674,722C27.674,721.424 27.207,720.957 26.63,720.957L24.543,720.957C23.967,720.957 23.5,721.424 23.5,722C23.5,722.576 23.967,723.043 24.543,723.043L26.63,723.043Z" style="fill:rgb(131,147,167);"/>
            </g>
            <g transform="matrix(1,0,0,1,127,1105)">
                <path d="M26.63,716.783C27.261,716.727 27.674,716.281 27.674,715.739C27.674,715.163 27.207,714.696 26.63,714.696L24.543,714.696C23.967,714.696 23.5,715.163 23.5,715.739C23.5,716.315 23.967,716.783 24.543,716.783L26.63,716.783Z" style="fill:rgb(131,147,167);"/>
            </g>
        </g>
    </g>
</svg>
