<?xml version="1.0" encoding="UTF-8" standalone="no"?>
<!DOCTYPE svg PUBLIC "-//W3C//DTD SVG 1.1//EN" "http://www.w3.org/Graphics/SVG/1.1/DTD/svg11.dtd">
<svg width="100%" height="100%" viewBox="0 0 24 24" version="1.1" xmlns="http://www.w3.org/2000/svg" xmlns:xlink="http://www.w3.org/1999/xlink" xml:space="preserve" xmlns:serif="http://www.serif.com/" style="fill-rule:evenodd;clip-rule:evenodd;stroke-linejoin:round;stroke-miterlimit:1.41421;">
    <g transform="matrix(1,0,0,1,-556,-488.01)">
        <g id="settings" transform="matrix(1.4104,0,0,1.41348,-180.513,-27.6187)">
            <g transform="matrix(1,0,0,1,0,11.3306)">
                <g transform="matrix(0.708333,0,0,0.708333,129.423,15.5684)">
                    <path d="M577.147,495.506C578.016,495.603 578.683,496.471 578.486,497.333C578.353,497.916 577.854,498.392 577.259,498.482C577.16,498.496 577.135,498.495 577.035,498.498L556.001,498.498C555.901,498.495 555.876,498.496 555.777,498.482C554.827,498.339 554.187,497.137 554.7,496.251C554.961,495.8 555.466,495.522 556.001,495.502L577.035,495.502C577.072,495.503 577.11,495.504 577.147,495.506Z" style="fill:rgb(83,101,125);fill-rule:nonzero;"/>
                </g>
                <g transform="matrix(0.708333,0,0,0.795508,129.802,-28.7274)">
                    <path d="M568.081,494.668C568.829,494.716 569.474,495.283 569.501,495.952C569.502,495.968 569.502,495.984 569.502,496L569.502,500.445C569.484,501.319 568.312,501.993 567.444,501.685C566.89,501.488 566.509,500.98 566.498,500.445L566.498,496C566.512,495.3 567.169,494.679 567.973,494.666C568.009,494.665 568.045,494.666 568.081,494.668Z" style="fill:rgb(131,147,167);fill-rule:nonzero;"/>
                </g>
            </g>
            <g transform="matrix(1,0,0,1,0,5.66393)">
                <g transform="matrix(0.708333,0,0,0.708333,129.423,15.5684)">
                    <path d="M577.147,495.506C578.135,495.617 578.824,496.746 578.388,497.65C578.176,498.088 577.74,498.409 577.259,498.482C577.16,498.496 577.135,498.495 577.035,498.498L556.001,498.498C555.901,498.495 555.876,498.496 555.777,498.482C554.863,498.344 554.223,497.23 554.648,496.35C554.89,495.847 555.425,495.523 556.001,495.502L577.035,495.502C577.072,495.503 577.11,495.504 577.147,495.506Z" style="fill:rgb(83,101,125);fill-rule:nonzero;"/>
                </g>
                <g transform="matrix(0.708333,0,0,0.795508,124.135,-28.7274)">
                    <path d="M568.081,494.668C568.829,494.716 569.474,495.283 569.501,495.952C569.502,495.968 569.502,495.984 569.502,496L569.502,500.445C569.484,501.311 568.401,502.024 567.444,501.685C566.89,501.489 566.509,500.98 566.498,500.445L566.498,496C566.512,495.3 567.169,494.679 567.973,494.666C568.009,494.665 568.045,494.666 568.081,494.668Z" style="fill:rgb(131,147,167);fill-rule:nonzero;"/>
                </g>
            </g>
            <g>
                <g transform="matrix(0.708333,0,0,0.708333,129.423,15.5684)">
                    <path d="M577.147,495.506C577.949,495.596 578.584,496.338 578.526,497.112C578.476,497.782 577.932,498.38 577.259,498.482C577.16,498.496 577.135,498.495 577.035,498.498L556.001,498.498C554.987,498.461 554.183,497.312 554.648,496.35C554.859,495.912 555.296,495.591 555.777,495.518C555.876,495.504 555.901,495.505 556.001,495.502L577.035,495.502C577.072,495.503 577.11,495.504 577.147,495.506Z" style="fill:rgb(83,101,125);fill-rule:nonzero;"/>
                </g>
                <g transform="matrix(0.708333,0,0,0.795508,133.344,-28.7274)">
                    <path d="M568.081,494.679C568.829,494.727 569.474,495.283 569.501,495.952C569.502,495.968 569.502,495.984 569.502,496L569.502,500.445C569.485,501.249 568.564,501.937 567.651,501.743C567.002,501.605 566.511,501.063 566.498,500.445L566.498,496C566.512,495.302 567.169,494.69 567.973,494.677C568.009,494.677 568.045,494.678 568.081,494.679Z" style="fill:rgb(131,147,167);fill-rule:nonzero;"/>
                </g>
            </g>
        </g>
    </g>
</svg>
