<?xml version="1.0" encoding="UTF-8" standalone="no"?>
<!DOCTYPE svg PUBLIC "-//W3C//DTD SVG 1.1//EN" "http://www.w3.org/Graphics/SVG/1.1/DTD/svg11.dtd">
<svg width="100%" height="100%" viewBox="0 0 24 24" version="1.1" xmlns="http://www.w3.org/2000/svg" xmlns:xlink="http://www.w3.org/1999/xlink" xml:space="preserve" xmlns:serif="http://www.serif.com/" style="fill-rule:evenodd;clip-rule:evenodd;stroke-linejoin:round;stroke-miterlimit:1.41421;">
    <g transform="matrix(1,0,0,1,-460,-517)">
        <g id="base-square" serif:id="base square" transform="matrix(1.5,0,0,1.5,-335.668,94.3246)">
            <g transform="matrix(0.666667,0,0,0.666667,186.445,49.7836)">
                <path d="M516,367L519,367L519,369L520.5,369L520.5,372L518.244,372C517.011,371.991 516.002,370.975 516,369.743L516,367ZM520.5,351L519,351L519,359L516,359L516,350.258C516,349.001 517.005,348 518.244,348L520.5,348L520.5,351Z" style="fill:rgb(131,147,167);"/>
            </g>
            <g transform="matrix(0.666667,0,0,0.666667,185.778,-14.2164)">
                <path d="M523,451L523,446.257C523,445.001 524.005,444 525.244,444L538.756,444C539.98,444 541,445.011 541,446.257L541,465.742C541,466.965 540.049,467.945 538.756,468L525.244,468C524.011,467.991 523.002,466.975 523,465.742L523,460L526,460L526,465L538,465L538,447L526,447L526,451L523,451Z" style="fill:rgb(83,101,125);"/>
            </g>
            <g id="Share-Icon" serif:id="Share Icon" transform="matrix(0.666667,0,0,0.666667,41.7784,-1600.22)">
                <path d="M752,2834L745,2840L745,2836L744,2836C740.82,2836 736.954,2837.93 735,2840C735.207,2836.03 739.715,2832 744,2832L745,2832L745,2828L752,2834Z" style="fill:rgb(83,101,125);"/>
            </g>
        </g>
    </g>
</svg>
