<?xml version="1.0" encoding="UTF-8" standalone="no"?>
<!DOCTYPE svg PUBLIC "-//W3C//DTD SVG 1.1//EN" "http://www.w3.org/Graphics/SVG/1.1/DTD/svg11.dtd">
<svg width="100%" height="100%" viewBox="0 0 24 24" version="1.1" xmlns="http://www.w3.org/2000/svg" xmlns:xlink="http://www.w3.org/1999/xlink" xml:space="preserve" xmlns:serif="http://www.serif.com/" style="fill-rule:evenodd;clip-rule:evenodd;stroke-linejoin:round;stroke-miterlimit:1.41421;">
    <g transform="matrix(1,0,0,1,-620,-776)">
        <g id="share-no-comp" serif:id="share no comp" transform="matrix(1.5,0,0,1.5,-175.667,353.325)">
            <g transform="matrix(0.666667,0,0,0.666667,117.111,-235.55)">
                <path d="M626.001,781L626.001,778.258C626.001,777.001 627.006,776 628.245,776L641.757,776C642.981,776 644.001,777.011 644.001,778.258L644.001,797.743C644.001,798.968 643.045,799.95 641.757,800L628.245,800C627.012,799.991 626.002,798.975 626.001,797.743L626.001,795L629.001,795L629.001,797L641.001,797L641.001,779L629.001,779L629.001,781L626.001,781Z" style="fill:rgb(131,147,167);"/>
            </g>
            <g id="Share-Icon" serif:id="Share Icon" transform="matrix(0.666667,0,0,0.666667,40.4447,-1599.55)">
                <path d="M751,2834L744,2840L744,2836L743,2836C739.82,2836 736.954,2837.93 735,2840C735.207,2836.03 738.715,2832 743,2832L744,2832L744,2828L751,2834Z" style="fill:rgb(83,101,125);"/>
            </g>
        </g>
    </g>
</svg>
