<svg viewBox="0 0 24 22" xmlns="http://www.w3.org/2000/svg" xmlns:serif="http://www.serif.com/" fill-rule="evenodd" clip-rule="evenodd" stroke-linejoin="round" stroke-miterlimit="1.414"><path d="M24 5.999l-7 6v-4h-1c-3.18 0-6.046 1.93-8 4 .207-3.97 3.715-8 8-8h1v-4l7 6z" fill="#8393a7" serif:id="Share Icon"/><path d="M8.322 5.999H3v13h15v-4.86l3-2.57v8.93a1.5 1.5 0 0 1-1.5 1.5h-18a1.5 1.5 0 0 1-1.5-1.5v-16c0-.83.672-1.5 1.5-1.5h9.893c-1.248.72-2.304 1.78-3.071 3z" fill="#53657d" serif:id="Share Icon"/></svg>