<?xml version="1.0" encoding="UTF-8" standalone="no"?><!DOCTYPE svg PUBLIC "-//W3C//DTD SVG 1.1//EN" "http://www.w3.org/Graphics/SVG/1.1/DTD/svg11.dtd"><svg width="100%" height="100%" viewBox="0 0 24 24" version="1.1" xmlns="http://www.w3.org/2000/svg" xmlns:xlink="http://www.w3.org/1999/xlink" xml:space="preserve" xmlns:serif="http://www.serif.com/" style="fill-rule:evenodd;clip-rule:evenodd;stroke-linejoin:round;stroke-miterlimit:2;"><g id="suggestion"><path d="M18.722,0.001l0.076,0.005l0.075,0.007l0.075,0.01l0.074,0.013l0.073,0.015l0.072,0.018l0.071,0.021l0.071,0.023l0.069,0.026l0.068,0.028l0.067,0.031l0.065,0.033l0.065,0.035l0.063,0.038l0.061,0.04l0.06,0.042l0.059,0.045l0.056,0.046l0.055,0.049l0.054,0.05l0.051,0.053l0.05,0.055l0.048,0.056l0.045,0.059l0.044,0.06l0.041,0.062l0.039,0.064l0.037,0.066l0.035,0.067l0.032,0.069l0.03,0.07l3.209,8.024l0.017,0.043l0.016,0.044l0.015,0.044l0.013,0.044l0.013,0.045l0.011,0.045l0.011,0.045l0.009,0.045l0.009,0.045l0.007,0.046l0.006,0.045l0.006,0.046l0.004,0.046l0.003,0.046l0.002,0.046l0.001,0.046l0,0.046l-0.001,0.045l-0.002,0.046l-0.003,0.046l-0.005,0.046l-0.005,0.046l-0.006,0.045l-0.008,0.046l-0.008,0.045l-0.01,0.046l-0.01,0.045l-0.012,0.044l-0.013,0.045l-0.013,0.044l-0.015,0.045l-0.016,0.044l-2.241,5.976l-0.014,0.037l-0.015,0.036l-0.031,0.07l-0.034,0.07l-0.037,0.067l-0.038,0.066l-0.041,0.064l-0.044,0.062l-0.045,0.06l-0.048,0.059l-0.049,0.056l-0.052,0.055l-0.054,0.052l-0.055,0.05l-0.057,0.048l-0.059,0.046l-0.061,0.044l-0.062,0.041l-0.064,0.039l-0.065,0.037l-0.066,0.034l-0.068,0.032l-0.069,0.029l-0.07,0.027l-0.072,0.024l-0.072,0.021l-0.074,0.019l-0.074,0.016l-0.075,0.013l-0.076,0.011l-0.077,0.007l-0.077,0.004l-0.039,0.002l-0.039,0l-4.733,0l-4.239,0.001l-0.04,0l-0.039,0.002l-0.039,0.002l-0.04,0.002l-0.039,0.004l-0.039,0.004l-0.038,0.005l-0.039,0.006l-0.039,0.006l-0.038,0.007l-0.038,0.008l-0.038,0.009l-0.038,0.01l-0.038,0.01l-0.037,0.011l-0.038,0.011l-0.037,0.013l-0.036,0.013l-0.037,0.014l-0.036,0.014l-0.036,0.016l-0.036,0.016l-0.035,0.016l-0.035,0.018l-0.035,0.018l-0.034,0.018l-0.034,0.02l-0.034,0.02l-0.033,0.021l-0.033,0.021l-0.033,0.022l-0.032,0.023l-0.274,0.192l-0.326,0.225l-0.182,0.125l-0.195,0.132l-0.206,0.138l-0.219,0.146l-0.229,0.152l-0.241,0.158l-0.252,0.164l-0.263,0.169l-0.272,0.174l-0.284,0.179l-0.293,0.184l-0.302,0.188l-0.312,0.191l-0.321,0.195l-0.33,0.198l-0.338,0.201l-0.347,0.203l-0.355,0.205l-0.362,0.207l-0.37,0.209l-0.377,0.21l-0.384,0.211l-0.391,0.211l-0.397,0.211l-0.201,0.106l-0.202,0.105l-0.204,0.106l-0.205,0.105l-0.207,0.105l-0.208,0.105l-0.209,0.105l-0.211,0.104l0.155,-0.318l0.15,-0.313l0.146,-0.31l0.141,-0.305l0.136,-0.301l0.131,-0.296l0.127,-0.291l0.122,-0.286l0.118,-0.281l0.114,-0.276l0.109,-0.27l0.104,-0.265l0.101,-0.259l0.097,-0.253l0.092,-0.247l0.088,-0.24l0.085,-0.234l0.08,-0.227l0.076,-0.22l0.073,-0.214l0.069,-0.206l0.066,-0.199l0.061,-0.191l0.059,-0.184l0.054,-0.176l0.051,-0.168l0.048,-0.16l0.045,-0.151l0.079,-0.277l0.067,-0.242l0.009,-0.039l0.008,-0.04l0.008,-0.039l0.006,-0.04l0.006,-0.04l0.005,-0.04l0.004,-0.039l0.003,-0.04l0.003,-0.04l0.002,-0.04l0.001,-0.04l0,-0.04l-0.001,-0.04l-0.001,-0.04l-0.002,-0.039l-0.003,-0.04l-0.004,-0.04l-0.005,-0.039l-0.005,-0.04l-0.006,-0.039l-0.007,-0.04l-0.008,-0.039l-0.009,-0.039l-0.009,-0.039l-0.01,-0.038l-0.011,-0.039l-0.011,-0.038l-0.013,-0.038l-0.013,-0.038l-0.014,-0.038l-0.015,-0.037l-0.015,-0.038l-2.351,-5.483l-0.022,-0.054l-0.02,-0.054l-0.019,-0.054l-0.017,-0.055l-0.016,-0.055l-0.014,-0.056l-0.012,-0.055l-0.011,-0.056l-0.009,-0.056l-0.007,-0.056l-0.006,-0.057l-0.004,-0.056l-0.003,-0.057l-0.001,-0.056l0,-0.057l0.002,-0.056l0.004,-0.057l0.005,-0.056l0.007,-0.056l0.009,-0.056l0.01,-0.056l0.011,-0.055l0.013,-0.056l0.015,-0.054l0.017,-0.055l0.018,-0.054l0.019,-0.054l0.021,-0.053l0.023,-0.053l0.024,-0.052l0.026,-0.051l0.027,-0.052l3.952,-7.113l0.034,-0.059l0.036,-0.057l0.038,-0.056l0.039,-0.055l0.041,-0.053l0.043,-0.051l0.044,-0.05l0.045,-0.048l0.047,-0.046l0.049,-0.045l0.05,-0.043l0.051,-0.042l0.053,-0.039l0.053,-0.038l0.055,-0.036l0.057,-0.035l0.057,-0.032l0.058,-0.031l0.059,-0.028l0.06,-0.027l0.062,-0.025l0.062,-0.022l0.062,-0.021l0.064,-0.019l0.064,-0.016l0.065,-0.014l0.066,-0.013l0.066,-0.01l0.066,-0.008l0.067,-0.005l0.068,-0.004l0.068,-0.001l12.469,0l0.076,0.001Zm-12.531,1.699l-0.025,0l-0.01,0.001l-0.01,0.001l-0.01,0.001l-0.009,0.001l-0.011,0.002l-0.009,0.002l-0.01,0.003l-0.009,0.003l-0.009,0.003l-0.01,0.003l-0.009,0.004l-0.009,0.004l-0.009,0.004l-0.009,0.005l-0.008,0.005l-0.009,0.005l-0.008,0.005l-0.008,0.006l-0.008,0.006l-0.008,0.006l-0.007,0.007l-0.007,0.006l-0.007,0.007l-0.007,0.007l-0.007,0.008l-0.006,0.007l-0.006,0.008l-0.006,0.008l-0.006,0.009l-0.005,0.008l-0.012,0.022l-3.94,7.09l-0.01,0.019l-0.003,0.008l-0.004,0.007l-0.003,0.008l-0.004,0.008l-0.003,0.008l-0.002,0.009l-0.003,0.008l-0.002,0.008l-0.002,0.008l-0.002,0.008l-0.001,0.009l-0.001,0.008l-0.001,0.009l-0.001,0.008l-0.001,0.008l0,0.009l0,0.008l0,0.017l0.002,0.018l0.002,0.016l0.004,0.017l0.004,0.016l0.006,0.017l0.003,0.007l0.008,0.02l2.348,5.48l0.025,0.06l0.028,0.07l0.026,0.069l0.024,0.07l0.023,0.071l0.022,0.071l0.02,0.071l0.019,0.072l0.017,0.072l0.015,0.072l0.015,0.072l0.013,0.073l0.011,0.073l0.01,0.073l0.008,0.073l0.007,0.074l0.006,0.074l0.004,0.073l0.003,0.073l0.001,0.074l0,0.074l-0.002,0.074l-0.003,0.074l-0.005,0.074l-0.006,0.073l-0.008,0.074l-0.009,0.074l-0.011,0.073l-0.012,0.074l-0.014,0.073l-0.015,0.073l-0.021,0.093l-0.079,0.286l-0.084,0.291l-0.047,0.161l-0.05,0.168l-0.054,0.176l-0.057,0.185l-0.061,0.192l-0.065,0.2l-0.068,0.208l-0.072,0.215l-0.076,0.223l-0.08,0.229l-0.084,0.237l-0.087,0.244l-0.045,0.122l0.282,-0.166l0.331,-0.196l0.322,-0.194l0.314,-0.19l0.305,-0.187l0.296,-0.184l0.287,-0.179l0.277,-0.175l0.267,-0.171l0.256,-0.165l0.246,-0.16l0.235,-0.155l0.225,-0.148l0.212,-0.142l0.202,-0.135l0.189,-0.129l0.176,-0.12l0.318,-0.22l0.265,-0.185l0.042,-0.03l0.061,-0.041l0.06,-0.039l0.062,-0.039l0.063,-0.037l0.062,-0.036l0.064,-0.035l0.065,-0.034l0.064,-0.032l0.066,-0.03l0.065,-0.03l0.067,-0.028l0.068,-0.027l0.067,-0.026l0.068,-0.024l0.069,-0.023l0.068,-0.021l0.069,-0.021l0.07,-0.018l0.07,-0.018l0.071,-0.016l0.071,-0.015l0.07,-0.013l0.071,-0.012l0.073,-0.011l0.071,-0.009l0.072,-0.008l0.073,-0.007l0.072,-0.005l0.073,-0.003l0.073,-0.002l0.065,-0.001l4.247,-0.001l4.725,0l0.013,0l0.019,-0.001l0.011,-0.001l0.012,-0.002l0.011,-0.002l0.011,-0.002l0.011,-0.003l0.01,-0.003l0.011,-0.004l0.01,-0.004l0.011,-0.004l0.01,-0.005l0.01,-0.005l0.009,-0.005l0.01,-0.006l0.01,-0.007l0.009,-0.006l0.009,-0.007l0.008,-0.008l0.009,-0.007l0.008,-0.008l0.008,-0.008l0.007,-0.009l0.007,-0.008l0.007,-0.009l0.006,-0.009l0.006,-0.01l0.006,-0.009l0.005,-0.01l0.005,-0.011l0.008,-0.017l0.005,-0.013l2.235,-5.959l0.005,-0.016l0.003,-0.007l0.002,-0.006l0.002,-0.007l0.001,-0.007l0.002,-0.007l0.001,-0.006l0.002,-0.007l0.001,-0.007l0.001,-0.007l0.001,-0.007l0,-0.006l0.001,-0.007l0,-0.007l0,-0.007l0,-0.007l0,-0.007l0,-0.007l-0.001,-0.007l0,-0.007l-0.001,-0.006l-0.001,-0.007l-0.001,-0.007l-0.002,-0.007l-0.001,-0.007l-0.002,-0.006l-0.001,-0.007l-0.002,-0.006l-0.002,-0.007l-0.002,-0.007l-0.003,-0.006l-0.006,-0.016l-3.2,-7.999l-0.01,-0.026l-0.005,-0.011l-0.006,-0.01l-0.005,-0.01l-0.006,-0.009l-0.006,-0.009l-0.006,-0.009l-0.007,-0.009l-0.007,-0.008l-0.007,-0.008l-0.008,-0.008l-0.008,-0.008l-0.009,-0.007l-0.008,-0.007l-0.009,-0.007l-0.009,-0.006l-0.009,-0.006l-0.01,-0.006l-0.01,-0.005l-0.01,-0.005l-0.01,-0.005l-0.01,-0.004l-0.01,-0.004l-0.01,-0.003l-0.011,-0.003l-0.011,-0.003l-0.01,-0.002l-0.011,-0.002l-0.011,-0.002l-0.012,-0.001l-0.011,0l-0.028,-0.001l-12.439,0Z" style="fill:#53657d;"/><circle cx="7" cy="9" r="1.5" style="fill:#8393a7;"/><circle cx="12" cy="9" r="1.5" style="fill:#8393a7;"/><circle cx="17" cy="9" r="1.5" style="fill:#8393a7;"/></g></svg>