<?xml version="1.0" encoding="UTF-8" standalone="no"?><!DOCTYPE svg PUBLIC "-//W3C//DTD SVG 1.1//EN" "http://www.w3.org/Graphics/SVG/1.1/DTD/svg11.dtd"><svg width="100%" height="100%" viewBox="0 0 24 23" version="1.1" xmlns="http://www.w3.org/2000/svg" xmlns:xlink="http://www.w3.org/1999/xlink" xml:space="preserve" xmlns:serif="http://www.serif.com/" style="fill-rule:evenodd;clip-rule:evenodd;stroke-linejoin:round;stroke-miterlimit:2;"><g id="suggestion-curves" serif:id="suggestion curves"><path d="M21.013,0.014c1.552,0.015 2.963,1.365 2.979,2.981c0.011,3.513 0.011,7.026 0,10.539c-0.015,1.558 -1.359,2.975 -2.998,2.98l-4.997,0l-6.995,6l0,-6c-2.005,0 -4.01,0.007 -6.015,0c-1.533,-0.014 -2.963,-1.344 -2.979,-2.98c-0.011,-3.513 -0.011,-7.026 0,-10.539c0.015,-1.552 1.364,-2.965 2.979,-2.981c6.009,-0.019 12.017,-0.019 18.026,0Zm-18.003,2.5c-0.266,0.001 -0.501,0.235 -0.503,0.497c-0.011,3.5 0,7 0,10.499c0,0.265 0.234,0.502 0.496,0.504c0,0 5.999,0 5.999,0l0.151,0.005c0.133,0.012 0.167,0.012 0.299,0.036c1.034,0.19 1.9,1.087 2.03,2.158c0.016,0.133 0.014,0.167 0.018,0.301l0,0.565l2.871,-2.463l0.115,-0.093c0.363,-0.259 0.779,-0.439 1.217,-0.491c0.13,-0.016 0.163,-0.014 0.294,-0.018c1.664,0 3.329,0 4.993,0c0.266,0 0.501,-0.234 0.503,-0.496c0.011,-3.5 0,-7 0,-10.5c0,-0.263 -0.233,-0.501 -0.496,-0.504c-5.995,-0.019 -11.991,0 -17.987,0Z" style="fill:#53657d;"/><path d="M17.996,9.914c0.91,0 1.649,-0.738 1.649,-1.65c0,-0.912 -0.738,-1.65 -1.649,-1.65c-0.912,0 -1.649,0.738 -1.649,1.65c0,0.911 0.739,1.65 1.649,1.65Zm-5.996,0c0.91,0 1.649,-0.738 1.649,-1.65c0,-0.912 -0.738,-1.65 -1.649,-1.65c-0.911,0 -1.649,0.738 -1.649,1.65c0,0.911 0.739,1.65 1.649,1.65Zm-5.996,0c0.91,0 1.649,-0.738 1.649,-1.65c0,-0.912 -0.737,-1.65 -1.649,-1.65c-0.911,0 -1.649,0.738 -1.649,1.65c0,0.911 0.739,1.65 1.649,1.65Z" style="fill:#53657d;fill-rule:nonzero;"/></g></svg>