<?xml version="1.0" encoding="UTF-8" standalone="no"?>
<!DOCTYPE svg PUBLIC "-//W3C//DTD SVG 1.1//EN" "http://www.w3.org/Graphics/SVG/1.1/DTD/svg11.dtd">
<svg width="100%" height="100%" viewBox="0 0 24 24" version="1.1" xmlns="http://www.w3.org/2000/svg" xmlns:xlink="http://www.w3.org/1999/xlink" xml:space="preserve" xmlns:serif="http://www.serif.com/" style="fill-rule:evenodd;clip-rule:evenodd;stroke-linejoin:round;stroke-miterlimit:1.41421;">
    <g transform="matrix(1,0,0,1,-524.016,-619.959)">
        <g id="tags">
            <g transform="matrix(0.0535696,0,0,0.0576923,522.302,617.19)">
                <path d="M442,107L442,248L229.2,451.7C237.2,459.7 250,464 258,464C266,464 280.8,460.3 289.4,451.7L480,272L480,144L442,107Z" style="fill:rgb(131,147,167);fill-rule:nonzero;"/>
            </g>
            <g transform="matrix(0.0535696,0,0,0.0576923,522.302,617.19)">
                <path d="M384,48L224,48L44.3,235.6C36.3,243.6 32.3,253.4 32,264C31.7,275.3 35.7,287.3 44.3,295.9L168.1,419.5C176.1,427.5 188.9,432 196.9,432C204.9,432 219.6,428.1 228.2,419.5L416,240L416,80L384,48ZM353.3,150.7C331.6,156.8 312,140.7 312,120C312,102.3 326.3,88 344,88C364.7,88 380.8,107.6 374.7,129.3C371.8,139.6 363.6,147.8 353.3,150.7Z" style="fill:rgb(83,101,125);fill-rule:nonzero;"/>
            </g>
        </g>
    </g>
</svg>
