<svg viewBox="0 0 22 24" xmlns="http://www.w3.org/2000/svg" fill-rule="evenodd" clip-rule="evenodd" stroke-linejoin="round" stroke-miterlimit="1.414"><path d="M4.234 8.47H1.411l.642 14.122a1.49 1.49 0 0 0 1.478 1.406h14.112a1.503 1.503 0 0 0 1.478-1.406l.642-14.123H16.94v11.3c0 .776-.63 1.406-1.409 1.406H5.64c-.77 0-1.406-.635-1.406-1.406v-11.3zM0 2.821h21.176V4.937a.711.711 0 0 1-.706.709H.696A.7.7 0 0 1 0 4.948V2.823zM7.058 1.41C7.058.631 7.684 0 8.469 0h4.236c.779 0 1.411.626 1.411 1.411v1.412H7.058V1.41z" fill="#53657d"/><path d="M7.058 8.47h1.411v9.881H7.058V8.47zm2.823 0h1.412v9.881H9.88V8.47zm2.824 0h1.411v9.881h-1.411V8.47z" fill="#8393a7"/></svg>