<?xml version="1.0" encoding="UTF-8" standalone="no"?><!DOCTYPE svg PUBLIC "-//W3C//DTD SVG 1.1//EN" "http://www.w3.org/Graphics/SVG/1.1/DTD/svg11.dtd"><svg width="100%" height="100%" viewBox="0 0 22 24" version="1.1" xmlns="http://www.w3.org/2000/svg" xmlns:xlink="http://www.w3.org/1999/xlink" xml:space="preserve" xmlns:serif="http://www.serif.com/" style="fill-rule:evenodd;clip-rule:evenodd;stroke-linejoin:round;stroke-miterlimit:2;"><g id="trash"><path d="M4,8l-3,0l1,14c0.035,0.778 1.219,2 2,2l13.644,0c0.781,-0.008 2.309,-1.22 2.356,-2l1,-14l-3,0l-1,12c0,0.776 -0.221,1 -1,1l-10,0c-0.771,0 -1,-0.229 -1,-1c0,0 -1,-12 -1,-12Zm-4,-5l22,0l0,2c0,0.388 -0.612,0.998 -1,1l-20,0c-0.383,0 -1,-0.617 -1,-1l0,-2Zm7.5,-1.412c0,-0.779 0.215,-1.588 1,-1.588l5,0c0.779,0 1,0.803 1,1.588l0,1.412l-7,0l0,-1.412Z" style="fill:#53657d;"/><path d="M6.5,8l2,0l0,11l-1.5,0l-0.5,-11Zm3.5,0l2,0l0,11l-2,0l0,-11Zm3.5,0l2,0l-0.5,11l-1.5,0l0,-11Z" style="fill:#8393a7;"/></g></svg>