<?xml version="1.0" encoding="UTF-8" standalone="no"?>
<!DOCTYPE svg PUBLIC "-//W3C//DTD SVG 1.1//EN" "http://www.w3.org/Graphics/SVG/1.1/DTD/svg11.dtd">
<svg width="100%" height="100%" viewBox="0 0 25 24" version="1.1" xmlns="http://www.w3.org/2000/svg" xmlns:xlink="http://www.w3.org/1999/xlink" xml:space="preserve" xmlns:serif="http://www.serif.com/" style="fill-rule:evenodd;clip-rule:evenodd;stroke-linejoin:round;stroke-miterlimit:1.41421;">
    <g transform="matrix(1,0,0,1,-891.996,-732)">
        <g id="upload-no-comp--Group-" serif:id="upload no comp (Group)" transform="matrix(1.5,0,0,1.5,72.3165,185.254)">
            <g transform="matrix(0.666667,0,0,0.666667,151.787,-96.8358)">
                <path d="M601,713L613,713L613,695L603,695L603,692L613.756,692C614.98,692 616,693.011 616,694.258L616,713.743C616,714.999 614.995,716 613.756,716L600.244,716C599.011,715.991 598.002,714.975 598,713.743L598,710L601,710L601,713Z" style="fill:rgb(131,147,167);"/>
            </g>
            <g transform="matrix(6.12323e-17,-1,1,6.12323e-17,533.707,384.998)">
                <path d="M20.5,16.746L15.833,12.746L15.833,15.413L9.833,15.413L9.833,18.079L15.833,18.079L15.833,20.746L20.5,16.746Z" style="fill:rgb(83,101,125);"/>
            </g>
        </g>
    </g>
</svg>
