<?xml version="1.0" encoding="UTF-8" standalone="no"?>
<!DOCTYPE svg PUBLIC "-//W3C//DTD SVG 1.1//EN" "http://www.w3.org/Graphics/SVG/1.1/DTD/svg11.dtd">
<svg width="100%" height="100%" viewBox="0 0 24 29" version="1.1" xmlns="http://www.w3.org/2000/svg" xmlns:xlink="http://www.w3.org/1999/xlink" xml:space="preserve" xmlns:serif="http://www.serif.com/" style="fill-rule:evenodd;clip-rule:evenodd;stroke-linejoin:round;stroke-miterlimit:2;">
    <g transform="matrix(1,0,0,1,-512.477,-555.989)">
        <g id="PI" transform="matrix(0.212722,0,0,0.212722,427.585,454.427)">
            <g transform="matrix(4.16667,0,0,4.16667,-484.257,-140.933)">
                <path d="M222.484,169.614C222.437,169.365 222.324,169.121 222.17,168.882L222,168.625C221.059,167.543 220.543,165.97 220.27,164.032L220.291,164.024C220.514,163.937 220.726,163.847 220.934,163.754C226.222,161.397 227.438,157.25 227.438,157.25C227.438,157.25 228.835,159.599 229.824,161.86L229.915,162.068L229.924,162.092C229.751,164.941 229.239,167.201 228,168.625L227.83,168.883C227.673,169.126 227.559,169.375 227.513,169.629C227.467,169.883 227.452,170.137 227.451,170.389C228.859,170.176 230.805,169.773 233.125,169C233.125,149.5 225,153.203 225,153.203C225,153.203 216.875,149.5 216.875,169C219.195,169.773 221.141,170.176 222.55,170.389C222.548,170.132 222.533,169.873 222.484,169.614Z" style="fill:rgb(83,101,125);fill-rule:nonzero;"/>
            </g>
            <g transform="matrix(4.16667,0,0,4.16667,-484.259,-140.831)">
                <path d="M236.143,175.197C235.098,174.3 232.027,173.649 229.97,173.298C229.813,175.918 227.66,178 225,178C222.34,178 220.188,175.918 220.03,173.298C217.973,173.649 214.902,174.3 213.856,175.197C212.233,176.592 212,180 212,180L238,180C238,180 237.767,176.592 236.143,175.197Z" style="fill:rgb(83,101,125);fill-rule:nonzero;"/>
            </g>
            <g transform="matrix(4.16667,0,0,4.16667,-484.257,-140.933)">
                <path d="M225,177C222.899,177 221.155,175.348 221.028,173.238L221.022,173.139C221.617,173.048 222,173 222,173C222,173 222.56,171.766 222.55,170.389C222.548,170.132 222.533,169.873 222.484,169.614C222.437,169.365 222.324,169.121 222.17,168.882L222,168.625C221.059,167.543 220.543,165.97 220.27,164.032L220.291,164.024C220.514,163.937 220.726,163.847 220.934,163.754C226.222,161.397 227.438,157.25 227.438,157.25C227.438,157.25 228.835,159.599 229.824,161.86L229.915,162.068L229.924,162.092C229.751,164.941 229.239,167.201 228,168.625L227.83,168.883C227.673,169.126 227.559,169.375 227.513,169.629C227.467,169.883 227.452,170.137 227.451,170.389C227.443,171.766 228,173 228,173C228,173 228.383,173.048 228.978,173.139L228.972,173.238C228.845,175.348 227.101,177 225,177Z" style="fill:rgb(131,147,167);fill-rule:nonzero;"/>
            </g>
            <g transform="matrix(4.70096,0,0,4.70096,-2122.89,-2155.05)">
                <path d="M540.511,560.511C540.447,560.447 540.349,560.434 540.271,560.478C540.192,560.522 540.153,560.613 540.175,560.701C540.614,562.456 541.741,566.965 541.962,567.848C541.984,567.938 542.064,568 542.156,568C543.461,568 552.539,568 553.844,568C553.936,568 554.016,567.938 554.038,567.848C554.259,566.965 555.386,562.456 555.825,560.701C555.847,560.613 555.808,560.522 555.729,560.478C555.651,560.434 555.553,560.447 555.489,560.511C554.568,561.432 552.673,563.327 552.142,563.858C552.104,563.896 552.053,563.917 552,563.917C551.947,563.917 551.896,563.896 551.859,563.858C551.238,563.236 548.762,560.753 548.142,560.131C548.104,560.094 548.053,560.072 548,560.072C547.947,560.072 547.896,560.094 547.858,560.131C547.238,560.753 544.762,563.236 544.141,563.858C544.104,563.896 544.053,563.917 544,563.917C543.947,563.917 543.896,563.896 543.858,563.858C543.327,563.327 541.432,561.432 540.511,560.511Z" style="fill:url(#_Linear1);"/>
            </g>
        </g>
    </g>
    <defs>
        <linearGradient id="_Linear1" x1="0" y1="0" x2="1" y2="0" gradientUnits="userSpaceOnUse" gradientTransform="matrix(11.6954,3.6538,-1.82938,5.85566,540.799,561.583)"><stop offset="0" style="stop-color:rgb(255,170,0);stop-opacity:1"/><stop offset="1" style="stop-color:rgb(255,195,0);stop-opacity:1"/></linearGradient>
    </defs>
</svg>
