<?xml version="1.0" encoding="UTF-8" standalone="no"?><!DOCTYPE svg PUBLIC "-//W3C//DTD SVG 1.1//EN" "http://www.w3.org/Graphics/SVG/1.1/DTD/svg11.dtd"><svg width="100%" height="100%" viewBox="0 0 21 24" version="1.1" xmlns="http://www.w3.org/2000/svg" xmlns:xlink="http://www.w3.org/1999/xlink" xml:space="preserve" xmlns:serif="http://www.serif.com/" style="fill-rule:evenodd;clip-rule:evenodd;stroke-linejoin:round;stroke-miterlimit:2;"><g id="verified"><path d="M10.357,0c2.836,0.02 5.645,0.849 8.11,2.189c0.76,0.414 1.59,0.846 2.027,1.527c0.078,0.122 0.104,0.259 0.104,0.419c-0.013,3.797 -0.164,7.626 -0.287,11.381c-0.005,0.166 0.02,0.341 -0.084,0.461c-2.721,2.998 -6.214,5.558 -9.777,7.827c-0.066,0.042 -0.135,0.101 -0.204,0.064c-3.51,-2.082 -6.819,-4.533 -9.551,-7.523c-0.166,-0.182 -0.387,-0.355 -0.4,-0.545c-0.169,-3.809 -0.266,-7.559 -0.295,-11.372c-0.003,-0.409 0.1,-0.784 0.459,-1.114c0.909,-0.832 2.069,-1.382 3.235,-1.872c2.08,-0.873 4.311,-1.426 6.546,-1.442c0.039,0 0.078,0 0.117,0Zm-0.103,3c-2.279,0.016 -4.549,0.692 -6.566,1.758c-0.228,0.12 -0.454,0.249 -0.673,0.386l-0.007,0.005c0.045,3.113 0.146,6.219 0.245,9.325l0.008,0.223c2.058,2.163 4.491,3.98 7.017,5.636c2.52,-1.689 4.919,-3.534 7.046,-5.665l0.014,-0.014c0.101,-3.141 0.201,-6.286 0.249,-9.43l0.001,-0.075c-1.484,-0.942 -3.176,-1.539 -4.908,-1.892c-0.799,-0.162 -1.622,-0.259 -2.426,-0.257Z" style="fill:#53657d;"/><path d="M13.974,6.653c0.865,0.081 1.491,1.143 0.95,1.946c-0.011,0.016 -0.023,0.032 -0.035,0.048l-4.343,5.824c-0.134,0.172 -0.19,0.212 -0.297,0.285c-0.441,0.3 -1.075,0.276 -1.491,-0.061c-0.041,-0.033 -0.05,-0.043 -0.089,-0.079l-2.881,-2.823c-0.433,-0.445 -0.489,-1.195 -0.097,-1.679c0.435,-0.538 1.329,-0.59 1.847,-0.107l1.86,1.822l3.487,-4.676c0,0 0.44,-0.465 0.911,-0.5c0.115,-0.008 0.142,-0.002 0.178,0Z" style="fill:#8393a7;"/></g></svg>