<?xml version="1.0" encoding="UTF-8" standalone="no"?><!DOCTYPE svg PUBLIC "-//W3C//DTD SVG 1.1//EN" "http://www.w3.org/Graphics/SVG/1.1/DTD/svg11.dtd"><svg width="100%" height="100%" viewBox="0 0 21 24" version="1.1" xmlns="http://www.w3.org/2000/svg" xmlns:xlink="http://www.w3.org/1999/xlink" xml:space="preserve" xmlns:serif="http://www.serif.com/" style="fill-rule:evenodd;clip-rule:evenodd;stroke-linejoin:round;stroke-miterlimit:2;"><g id="verified"><path d="M0,4c0,-1 5.3,-4 10.3,-4c5,0 10.3,3 10.3,4c0,2.336 -0.182,8.249 -0.262,10.752c-0.024,0.749 -0.326,1.462 -0.848,2c-2.256,2.267 -5.132,4.532 -8.636,6.794c-0.338,0.218 -0.772,0.221 -1.113,0.007c-3.657,-2.3 -6.547,-4.574 -8.685,-6.822c-0.485,-0.525 -0.765,-1.208 -0.787,-1.923c-0.084,-2.47 -0.269,-8.454 -0.269,-10.808Zm13.961,2.673c0.857,0.081 1.484,1.139 0.946,1.939c-0.011,0.016 -0.023,0.032 -0.035,0.048l-4.326,5.801c-0.134,0.171 -0.19,0.211 -0.297,0.284c-0.437,0.298 -1.068,0.277 -1.485,-0.061c-0.041,-0.033 -0.05,-0.042 -0.088,-0.078l-2.87,-2.813c-0.431,-0.443 -0.487,-1.189 -0.097,-1.672c0.434,-0.536 1.324,-0.588 1.84,-0.106l1.852,1.815l3.475,-4.659c0,0 0.438,-0.463 0.907,-0.497c0.115,-0.009 0.141,-0.002 0.178,-0.001Z" style="fill:#53657d;"/></g></svg>