<?xml version="1.0" encoding="UTF-8" standalone="no"?><!DOCTYPE svg PUBLIC "-//W3C//DTD SVG 1.1//EN" "http://www.w3.org/Graphics/SVG/1.1/DTD/svg11.dtd"><svg width="100%" height="100%" viewBox="0 0 22 24" version="1.1" xmlns="http://www.w3.org/2000/svg" xmlns:xlink="http://www.w3.org/1999/xlink" xml:space="preserve" xmlns:serif="http://www.serif.com/" style="fill-rule:evenodd;clip-rule:evenodd;stroke-linejoin:round;stroke-miterlimit:2;"><g id="favIcon"><path d="M10.569,0.416c0.304,0.054 0.49,0.351 0.403,0.649c-1.501,3.784 -3.35,7.42 -5.026,11.129c-0.151,0.297 -0.544,0.378 -0.799,0.145c-1.624,-1.787 -3.082,-3.717 -4.622,-5.577c-0.172,-0.227 -0.131,-0.542 0.095,-0.717c3.125,-2.001 6.425,-3.712 9.638,-5.567c0.092,-0.048 0.102,-0.08 0.311,-0.062Zm-8.912,6.167l3.715,4.484l4.052,-8.968c-2.589,1.494 -5.178,2.989 -7.767,4.484Z" style="fill:#8393a7;"/><path d="M5.562,11.501c0.154,0.029 0.281,0.116 0.363,0.246c1.845,3.628 3.354,7.417 5.03,11.126c0.155,0.391 -0.248,0.816 -0.656,0.652c-3.296,-1.704 -6.428,-3.709 -9.641,-5.564c-0.24,-0.154 -0.311,-0.463 -0.161,-0.706c1.454,-1.928 3.079,-3.72 4.619,-5.579c0.104,-0.115 0.111,-0.204 0.446,-0.175Zm-3.905,5.897l7.767,4.484l-4.052,-8.968c-1.238,1.495 -2.476,2.989 -3.715,4.484Z" style="fill:#8393a7;"/><path d="M10.546,0.413c0.172,0.023 0.319,0.121 0.404,0.279c1.104,2.616 1.961,5.33 2.94,7.995c0.077,0.242 -0.023,0.489 -0.241,0.611c-2.607,1.17 -5.314,2.102 -7.972,3.151c-0.376,0.13 -0.763,-0.228 -0.647,-0.62c1.505,-3.781 3.35,-7.418 5.025,-11.127c0.096,-0.188 0.176,-0.3 0.491,-0.289Zm-4.099,10.671l6.351,-2.508l-2.34,-6.368c-1.337,2.958 -2.674,5.917 -4.011,8.876Z" style="fill:#8393a7;"/><path d="M0.966,5.958c0.173,0.03 0.211,0.071 0.287,0.141c1.627,1.784 3.083,3.717 4.623,5.577c0.135,0.178 0.145,0.403 0.028,0.593c-1.453,1.928 -3.079,3.72 -4.619,5.579c-0.279,0.306 -0.812,0.15 -0.872,-0.268c-0.174,-3.707 -0.002,-7.422 -0.002,-11.132c0.014,-0.298 0.15,-0.522 0.555,-0.49Zm0.432,10.206l3.457,-4.173l-3.457,-4.174l0,8.347Z" style="fill:#8393a7;"/><path d="M13.476,8.367c0.257,0.036 0.443,0.248 0.444,0.508c-0.183,2.432 -0.558,4.846 -0.838,7.269c-0.05,0.323 -0.397,0.52 -0.702,0.389c-2.429,-1.277 -4.754,-2.743 -7.131,-4.115c-0.314,-0.199 -0.303,-0.69 0.03,-0.87c2.612,-1.155 5.311,-2.1 7.967,-3.149c0.067,-0.024 0.068,-0.042 0.23,-0.032Zm-6.848,3.707l5.56,3.21l0.654,-5.665c-2.071,0.818 -4.143,1.637 -6.214,2.455Z" style="fill:#8393a7;"/><path d="M5.524,11.498c0.064,0.006 0.119,0.02 0.178,0.044c2.44,1.261 4.758,2.745 7.137,4.118c0.181,0.116 0.27,0.313 0.237,0.526c-0.595,2.372 -1.398,4.688 -2.098,7.031c-0.135,0.387 -0.678,0.457 -0.902,0.103c-1.847,-3.627 -3.354,-7.417 -5.03,-11.126c-0.133,-0.336 -0.001,-0.701 0.478,-0.696Zm4.887,10.17l1.597,-5.348l-5.431,-3.136c1.278,2.828 2.556,5.656 3.834,8.484Z" style="fill:#8393a7;"/><path d="M10.548,0.413c0.059,0.008 0.111,0.022 0.166,0.045c3.29,1.712 6.426,3.708 9.638,5.562c0.321,0.204 0.306,0.697 -0.039,0.875c-2.202,0.906 -4.479,1.619 -6.718,2.427c-0.246,0.077 -0.497,-0.03 -0.615,-0.255c-1.093,-2.619 -1.959,-5.328 -2.938,-7.992c-0.106,-0.332 0.043,-0.682 0.506,-0.662Zm3.173,7.814l5.218,-1.883l-7.501,-4.331c0.761,2.072 1.522,4.143 2.283,6.214Z" style="fill:#8393a7;"/><path d="M13.475,8.367c0.123,0.017 0.231,0.072 0.317,0.159c2.351,2.809 4.47,5.804 6.705,8.706c0.232,0.33 -0.033,0.819 -0.444,0.792c-2.536,-0.379 -5.036,-0.967 -7.554,-1.452c-0.236,-0.056 -0.398,-0.252 -0.4,-0.5c0.179,-2.433 0.558,-4.847 0.838,-7.271c0.041,-0.26 0.249,-0.451 0.538,-0.434Zm-0.34,7.322l5.785,1.114l-5.142,-6.681c-0.215,1.856 -0.429,3.712 -0.643,5.567Z" style="fill:#8393a7;"/><path d="M12.643,15.597c2.537,0.375 5.037,0.967 7.556,1.452c0,0 0.673,0.518 0.189,0.889c-3.129,1.992 -6.424,3.711 -9.636,5.566c-0.352,0.183 -0.796,-0.128 -0.73,-0.528c0.599,-2.371 1.398,-4.687 2.097,-7.03c0.078,-0.225 0.183,-0.37 0.524,-0.349Zm-1.31,6.431l7.38,-4.26l-5.776,-1.112c-0.534,1.791 -1.069,3.582 -1.604,5.372Z" style="fill:#8393a7;"/><path d="M20.16,5.957c0.235,0.037 0.405,0.21 0.437,0.446c0.169,3.706 0.002,7.42 0.002,11.13c-0.019,0.415 -0.546,0.64 -0.855,0.336c-2.367,-2.798 -4.473,-5.806 -6.708,-8.71c-0.178,-0.256 -0.096,-0.601 0.181,-0.748c2.2,-0.913 4.48,-1.619 6.721,-2.427c0.064,-0.02 0.072,-0.036 0.222,-0.027Zm-5.93,3.135l5.382,6.991l0,-8.933c-1.794,0.648 -3.588,1.295 -5.382,1.942Z" style="fill:#8393a7;"/><path d="M10.634,0.009c0.15,0.029 0.188,0.042 0.323,0.112l9.601,5.543c0.408,0.262 0.437,0.46 0.452,0.784l0,11.085c-0.015,0.327 -0.076,0.542 -0.452,0.784l-9.601,5.543c-0.43,0.222 -0.616,0.148 -0.904,0l-9.601,-5.543c-0.407,-0.262 -0.437,-0.46 -0.452,-0.784l0,-11.085c0.023,-0.484 0.18,-0.608 0.452,-0.784l9.601,-5.543c0.152,-0.078 0.215,-0.147 0.581,-0.112Zm-8.825,6.961l0,10.041l8.696,5.021l8.696,-5.021l0,-10.041l-8.696,-5.02c-2.898,1.673 -5.797,3.346 -8.696,5.02Z" style="fill:#53657d;"/></g></svg>