<?xml version="1.0" encoding="utf-8"?>
<!-- Generator: Adobe Illustrator 16.0.4, SVG Export Plug-In . SVG Version: 6.00 Build 0)  -->
<!DOCTYPE svg PUBLIC "-//W3C//DTD SVG 1.1//EN" "http://www.w3.org/Graphics/SVG/1.1/DTD/svg11.dtd">
<svg version="1.1" xmlns="http://www.w3.org/2000/svg" xmlns:xlink="http://www.w3.org/1999/xlink" x="0px" y="0px"
	 width="482.504px" height="180.457px" viewBox="0 0 482.504 180.457" enable-background="new 0 0 482.504 180.457"
	 xml:space="preserve">
<g id="Background" display="none">
</g>
<g id="Dump_i_baggrunden" display="none">
	<g display="inline">
		<g>
			<defs>
				<rect id="SVGID_1_" x="-19.872" y="-15.127" width="508.639" height="256.487"/>
			</defs>
			<clipPath id="SVGID_2_">
				<use xlink:href="#SVGID_1_"  overflow="visible"/>
			</clipPath>
			<g transform="matrix(1 0 0 1 -1.907349e-06 -9.536743e-07)" clip-path="url(#SVGID_2_)">
				
					<image overflow="visible" width="704" height="355" xlink:href="C9618CD26BC7858D.jpg"  transform="matrix(0.7225 0 0 0.7225 -19.8716 -15.1274)">
				</image>
			</g>
		</g>
	</g>
</g>
<g id="Guides">
</g>
<g id="Foreground">
	<path fill="#ffffff" d="M234.469,121.422c-1.941-9.191-11.312-15.376-22.448-15.376c-10.781,0-19.264,6.008-22.269,15.376H234.469z
		 M212.905,159.248c10.178,0,18.269-6.448,21.846-12.249L255.34,159.6c-9.174,12.771-22.636,20.857-42.079,20.857
		c-29.873,0-49.668-19.619-49.668-48.604c0-27.927,21.741-46.663,50.194-46.663c28.636,0,47.195,21.208,47.195,51.434v3.184h-71.934
		C190.815,151.824,200.707,159.248,212.905,159.248z"/>
	<path fill="#ffffff" d="M388.75,180.457c-36.941,0-66.989-30.228-66.989-67.697c0-37.295,30.048-67.694,66.989-67.694
		c24.391,0,45.779,13.08,57.618,32.873l-23.684,13.963c-6.718-11.132-19.796-19.267-33.935-19.267
		c-21.208,0-39.77,18.737-39.77,40.125c0,21.565,18.562,40.123,39.77,40.123c14.139,0,27.396-7.954,33.935-19.619l23.861,14.142
		C434.707,167.2,413.319,180.457,388.75,180.457z"/>
	<path fill="#ffffff" d="M87.605,48.602H36.174v25.285l52.494-0.008c21.562,0,36.767,16.083,36.767,39.061c0,25.097-15.379,39.06-37.119,39.06
		H63.214V85.908h-27.04v91.366h51.431c40.475,0,65.399-27.396,65.399-64.335C153.005,75.115,128.259,48.602,87.605,48.602z"/>
	<rect fill="#ffffff" x="277.404" y="48.602" width="27.311" height="25.285"/>
	<rect fill="#ffffff" x="277.404" y="85.913" width="27.311" height="91.362"/>
	<path fill="#BFD730" d="M245.329,53.108c-1.975-1.573-36.979-15.758-70.854,2.743C159.791,37.606,122.654-10.365,0,8.71
		c0,0,121.856-35.517,177.171,36.89c0,0,28.534-15.138,62.271-2.749c0,0,6.449-24.002,34.924-33.783
		c30.853-10.596,55.988,12.074,55.988,12.074c0.811-0.564,74.395-54.298,152.149,18.113c0,0-77.712-63.596-153.084-7.102
		c0,0-19.764-25.145-51.174-15.88C250.909,24.337,245.651,50.723,245.329,53.108z"/>
</g>
</svg>
