<svg version="1.1" xmlns="http://www.w3.org/2000/svg" xmlns:xlink="http://www.w3.org/1999/xlink" width="819" height="631"><defs/><g><g/><g/><g/><g/><g/><g/><g/><g/><g/><g/><g/><g><rect fill="white" stroke="none" x="0" y="0" width="819" height="631"/></g><g><text fill="black" stroke="none" font-family="sans-serif" font-size="16.5pt" font-style="normal" font-weight="normal" text-decoration="normal" x="255.58755486203268" y="22.6179738" text-anchor="start" dominant-baseline="alphabetic" xml:space="preserve">Requesting an access-token</text></g><g/><g><path fill="none" stroke="black" paint-order="fill stroke markers" d=" M 37.74765856911621 118.97054218800001 L 37.74765856911621 631.6446149880001" stroke-miterlimit="10" stroke-width="1.2565541" stroke-dasharray="11.598960923076923,5.0262164"/><path fill="none" stroke="black" paint-order="fill stroke markers" d=" M 312.1907271714599 118.97054218800001 L 312.1907271714599 631.6446149880001" stroke-miterlimit="10" stroke-width="1.2565541" stroke-dasharray="11.598960923076923,5.0262164"/><path fill="none" stroke="black" paint-order="fill stroke markers" d=" M 758.7671270726318 118.97054218800001 L 758.7671270726318 631.6446149880001" stroke-miterlimit="10" stroke-width="1.2565541" stroke-dasharray="11.598960923076923,5.0262164"/></g><g><g><path fill="white" stroke="black" paint-order="fill stroke markers" d=" M 15.73283073711621 89.41638975600002 L 15.73283073711621 57.75122643600001 L 59.76248640111621 57.75122643600001 L 59.76248640111621 89.41638975600002" stroke-miterlimit="10" stroke-width="2.5633703640000003" stroke-dasharray=""/><path fill="white" stroke="black" paint-order="fill stroke markers" d=" M 59.76248640111621 56.65048504440001 L 59.76138566889743 56.750002470476886 L 59.758083582313375 56.849509944894095 L 59.75258047156996 56.9489975169871 L 59.74487688697368 57.04845523808161 L 59.734973598876564 57.147873162488395 L 59.72287159759917 57.24724134849785 L 59.708572093331554 57.3465498593742 L 59.69207651601221 57.4457887643491 L 59.67338651518513 57.54494813961476 L 59.652503959834824 57.64401806931628 L 59.62943093819942 57.74298864654325 L 59.60416975756186 57.841849974320425 L 59.57672294401915 57.940592166597405 L 59.547093242229785 58.03920534923725 L 59.51528361513924 58.13767966100388 L 59.48129724368371 58.23600525454817 L 59.445137526472045 58.334172297392705 L 59.40680807944581 58.43217097291501 L 59.366312735517766 58.529991481329205 L 59.32365554418857 58.62762404066595 L 59.278840771141816 58.72505888775068 L 59.23187289781744 58.82228627917988 L 59.182756620963644 58.91929649229543 L 59.13149685216719 59.01607982615686 L 59.07809871736224 59.11262660251144 L 59.02256755631777 59.20892716676198 L 58.964908922103604 59.304971888932315 L 58.905128580535134 59.400751164630265 L 58.84323250959668 59.49625541600807 L 58.779226898843774 59.59147509272019 L 58.71311814878413 59.68640067287828 L 58.64491287023769 59.78102266400345 L 58.57461788367545 59.87533160397543 L 58.5022402185375 59.969318061978825 L 58.427787112530034 60.06297263944614 L 58.35126601090161 60.15628597099768 L 58.272684565698626 60.24924872537805 L 58.1920506350001 60.34185160638929 L 58.10937228213194 60.43408535382045 L 58.024657774860515 60.52594074437366 L 57.93791558456595 60.617408592586415 L 57.849154385394996 60.708479751750104 L 57.758383053393615 60.79914511482471 L 57.665610665619354 60.88939561534948 L 57.570846499233674 60.97922222834956 L 57.474100030574256 61.06861597123853 L 57.375380934207335 61.15756790471657 L 57.274699081960286 61.24606913366447 L 57.17206454193443 61.33411080803308 L 57.067487577498255 61.42168412372834 L 56.96097864626103 61.50878032349165 L 56.85254839902714 61.59539069777562 L 56.742207678730956 61.68150658561499 L 56.62996751935255 61.76711937549275 L 56.515839144814315 61.85222050620124 L 56.39983396785861 61.93680146769832 L 56.281963588906464 62.02085380195832 L 56.162239794897545 62.104369103817845 L 56.04067455811147 62.18733902181633 L 55.91728003497063 62.2697552590311 L 55.792068564824504 62.35160957390711 L 55.66505266871577 62.4328937810811 L 55.53624504812818 62.51359975220007 L 55.405658583716466 62.59371941673418 L 55.273306334018244 62.67324476278373 L 55.139201534148185 62.7521678378804 L 55.00335759447454 62.83048074978243 L 54.86578809927805 62.908175667263905 L 54.7265068053936 62.98524482089782 L 54.58552764083452 63.06168050383303 L 54.44286470339978 63.13747507256495 L 54.298532259264235 63.212620947699854 L 54.15254474155202 63.28711061471286 L 54.004916748893265 63.360936624699335 L 53.8556630439642 63.4340915951198 L 53.704798552010935 63.50656821053819 L 53.55233835935696 63.578359223353345 L 53.39829771189448 63.64945745452381 L 53.242692013559875 63.71985579428573 L 53.085536824793316 63.78954720286377 L 52.92684786098271 63.85852471117517 L 52.7666409908922 63.92678142152658 L 52.60493223507529 63.994310508303826 L 52.4417377642728 64.06110521865452 L 52.27707389779582 64.12715887316328 L 52.11095710189379 64.19246486651971 L 51.943403988107846 64.25701666817889 L 51.77443131160975 64.32080782301445 L 51.60405596952635 64.38383195196405 L 51.43229499924986 64.44608275266734 L 51.25916557673419 64.5075540000961 L 51.08468501477731 64.56823954717684 L 50.90887076129001 64.62813332540541 L 50.731740397551135 64.6872293454539 L 50.55331163644945 64.74552169776953 L 50.37360232071237 64.80300455316568 L 50.19263042112172 64.8596721634047 L 50.010414034716646 64.91551886177277 L 49.826971382983935 64.97053906364663 L 49.6423208100359 65.0247272670519 L 49.45648078077596 65.07807805321343 L 49.26946987905217 65.13058608709704 L 49.08130680579887 65.18224611794311 L 48.89201037716657 65.23305297979161 L 48.70159952264039 65.28300159199867 L 48.51009328314712 65.33208695974473 L 48.317510809151116 65.38030417453389 L 48.12387135873928 65.42764841468485 L 47.929194295695304 65.47411494581308 L 47.733499087563246 65.51969912130417 L 47.53680530370086 65.56439638277854 L 47.339132613322604 65.60820226054732 L 47.1405007835328 65.65111237405922 L 46.94092967734889 65.69312243233865 L 46.740439251715195 65.73422823441479 L 46.539049555507205 65.7744256697417 L 46.3367807275267 65.81371071860933 L 46.13365299448794 65.85207945254552 L 45.92968666899494 65.88952803470889 L 45.72490214751029 65.9260527202724 L 45.51931990831548 65.96164985679792 L 45.31296050946312 65.99631588460149 L 45.10584458672112 66.03004733710921 L 44.89799285150915 66.06284084120392 L 44.689426088827545 66.09469311756257 L 44.48016515517875 66.12560098098405 L 44.270230976481756 66.15556134070776 L 44.05964454597948 66.18457120072271 L 43.848426922139495 66.21262766006708 L 43.63659922654816 66.23972791311832 L 43.42418264179851 66.26586924987369 L 43.211198409372024 66.2910490562213 L 42.99766782751444 66.31526481420151 L 42.783612249106014 66.3385141022587 L 42.5690530795262 66.36079459548343 L 42.35401177451316 66.38210406584494 L 42.138509838018194 66.40244038241397 L 41.92256882005537 66.42180151157581 L 41.70621031454653 66.44018551723366 L 41.48945595716194 66.45759056100228 L 41.27232742315669 66.4740149023918 L 41.054846425203245 66.48945689898177 L 40.837034711220184 66.5039150065854 L 40.618914062197376 66.51738777940398 L 40.400506290017965 66.52987387017144 L 40.18183323527717 66.54137203028912 L 39.96291676509822 66.55188110995061 L 39.743778770945724 66.56140005825667 L 39.52444116643647 66.5699279233204 L 39.30492588514813 66.57746385236243 L 39.08525487842591 66.58400709179611 L 38.86545011318741 66.58955698730296 L 38.645533569726 66.59411298389804 L 38.42552723951275 66.59767462598552 L 38.205453122997355 66.60024155740412 L 37.98533322740806 66.60181352146286 L 37.765189564551 66.60239036096665 L 37.54504414860901 66.601972018232 L 37.32491899394022 66.60055853509284 L 37.10483611287667 66.59815005289633 L 36.88481751352306 66.59474681248865 L 36.664885197555975 66.59034915419102 L 36.44506115802374 66.5849575177656 L 36.225367377147116 66.57857244237155 L 36.00582582412112 66.57119456651108 L 35.786458452918104 66.56282462796563 L 35.56728720009237 66.55346346372208 L 35.34833398258658 66.54311200988904 L 35.129620695540005 66.5317713016033 L 34.911169210099104 66.5194424729262 L 34.693001371230366 66.50612675673037 L 34.47513899553588 66.4918254845763 L 34.25760386907166 66.47654008657929 L 34.04041774516907 66.46027209126643 L 33.82360234225952 66.44302312542368 L 33.607179341702626 66.42479491393324 L 33.39117038561808 66.40558927960109 L 33.175597074721495 66.38540814297464 L 32.960480966164305 66.36425352215073 L 32.74584357137811 66.34212753257384 L 32.531706353923525 66.31903238682447 L 32.318090727343844 66.29497039439796 L 32.10501805302372 66.26994396147349 L 31.892509638053014 66.2439555906735 L 31.680586733096145 66.21700788081341 L 31.469270530267 66.18910352664176 L 31.25858216100977 66.1602453185707 L 31.0485426939858 66.13043614239702 L 30.83917313296677 66.09967897901345 L 30.6304944147343 66.06797690411072 L 30.42252740698632 66.03533308786992 L 30.215292906250294 66.00175079464545 L 30.008811635803607 65.96723338263864 L 29.803104243601233 65.93178430356194 L 29.59819130021097 65.89540710229372 L 29.3940932967564 65.85810541652378 L 29.19083064286778 65.81988297638962 L 28.98842366464112 65.7807436041034 L 28.786892602605572 65.74069121356973 L 28.586257609699402 65.69972980999431 L 28.38653874925469 65.65786348948332 L 28.187755992991065 65.61509643863396 L 27.98992921901849 65.57143293411565 L 27.793078209849508 65.52687734224247 L 27.597222650421 65.48143411853648 L 27.402382126125694 65.43510780728218 L 27.20857612085365 65.38790304107208 L 27.01582401504389 65.33982454034347 L 26.824145083746377 65.29087711290636 L 26.633558494694498 65.2410656534627 L 26.444083306388347 65.19039514311692 L 26.255738466188852 65.13887064887784 L 26.068542808423082 65.08649732315195 L 25.882515052500814 65.03328040322816 L 25.697673801042626 64.97922521075414 L 25.514037538019622 64.92433715120407 L 25.331624626905082 64.86862171333819 L 25.150453308838095 64.81208446865382 L 24.970541700799505 64.75473107082834 L 24.79190779380018 64.69656725515374 L 24.61456945108197 64.63759883796311 L 24.438544406331353 64.57783171604902 L 24.26385026190613 64.51727186607387 L 24.09050448707515 64.45592534397218 L 23.918524416271453 64.39379828434507 L 23.747927247358803 64.33089689984668 L 23.578730039911925 64.26722748056307 L 23.41094971351056 64.20279639338311 L 23.244603046047544 64.13761008136183 L 23.079706672050996 64.0716750630761 L 22.916277081020898 64.00499793197281 L 22.75433061578017 63.9375853557095 L 22.593883470840375 63.86944407548762 L 22.434951690782306 63.80058090537841 L 22.27755116865152 63.7310027316415 L 22.121697644369068 63.660716512036274 L 21.9674067031575 63.58972927512613 L 21.814693773982363 63.518048119575596 L 21.663574128009312 63.44568021344049 L 21.514062877077013 63.372632793451125 L 21.366174972185966 63.29891316428863 L 21.219925202003424 63.22452869785448 L 21.075328191384525 63.149486832533334 L 20.93239839990984 63.0737950724492 L 20.7911501204394 62.997460986715 L 20.651597477683456 62.92049220867569 L 20.513754426789983 62.842896435144944 L 20.377634751949202 62.76468142563545 L 20.24325206501517 62.68585500158298 L 20.110619804144587 62.60642504556425 L 19.979751232453022 62.526399500508674 L 19.85065943668858 62.44578636890406 L 19.723357325923267 62.3645937119964 L 19.59785763026207 62.28282964898372 L 19.474172899569975 62.20050235620419 L 19.35231550221698 62.11762006631847 L 19.232297623841276 62.0341910674865 L 19.11413126613068 61.95022370253862 L 18.997828245622497 61.86572636814137 L 18.883400192521858 61.78070751395776 L 18.770858549538712 61.695175641802365 L 18.660214570743577 61.60913930479112 L 18.55147932044213 61.52260710648604 L 18.44466367206879 61.43558770003484 L 18.339778307099376 61.348089787305646 L 18.236833713982985 61.26012211801682 L 18.135840187093137 61.17169348886198 L 18.03680782569837 61.08281274263036 L 17.939746532952288 60.99348876732251 L 17.844666014903282 60.90373049526153 L 17.75157577952393 60.81354690219982 L 17.660485135760187 60.722947006421535 L 17.571403192600524 60.63193986784075 L 17.48433885816502 60.54053458709549 L 17.399300838814575 60.44874030463767 L 17.316297638280243 60.356566199819014 L 17.235337556812922 60.26402148997322 L 17.156428690353287 60.17111542949413 L 17.079578929722228 60.07785730891038 L 17.004795959831764 59.98425645395631 L 16.93208725891657 59.89032222463943 L 16.86146009778614 59.79606401430437 L 16.79292153909774 59.70149124869363 L 16.726478436650115 59.606613385004955 L 16.66213743469815 59.511439910945654 L 16.599904967288413 59.41598034378382 L 16.539787257615792 59.32024422939662 L 16.48179031740115 59.224241141315716 L 16.425919946290186 59.127980679769905 L 16.372181731273447 59.03147247072513 L 16.320581046127653 58.93472616492187 L 16.27112305087832 58.83775143691009 L 16.223812691283758 58.74055798408177 L 16.178654698340498 58.64315552570121 L 16.135653587810207 58.54555380193307 L 16.094813659768104 58.44776257286839 L 16.05613899817296 58.3497916175486 L 16.0196334704587 58.25165073298757 L 15.985300727147681 58.15334973319199 L 15.953144201485621 58.054898448179905 L 15.923167109098287 57.95630672299779 L 15.895372447669939 57.85758441673599 L 15.869762996643562 57.75874140154287 L 15.846341316942908 57.659787561637586 L 15.82510975071644 57.56073279232165 L 15.80607042110308 57.46158699898947 L 15.789225232019923 57.36236009613774 L 15.77457586797184 57.26306200637407 L 15.762123793883035 57.16370265942468 L 15.751870254950532 57.06429199114147 L 15.743816276519688 56.96483994250841 L 15.737962663981627 56.86535645864751 L 15.734310002692727 56.76585148782425 L 15.732858657916072 56.666334980452774 L 15.73360877478493 56.56681688810091 L 15.736560278288245 56.46730716249495 L 15.741712873278122 56.367815754524536 L 15.74906604449935 56.268352613247544 L 15.758619056640946 56.16892768489523 L 15.77037095440965 56.06955091187757 L 15.784320562625478 55.970232231789055 L 15.800466486339232 55.87098157641492 L 15.818807110972 55.771808870738006 L 15.8393406024766 55.672724031946224 L 15.862064907520995 55.57373696844089 L 15.886977753693614 55.47485757884587 L 15.914076649730603 55.376095751017715 L 15.943358885764937 55.27746136105691 L 15.97482153359742 55.17896427232026 L 16.008461446989482 55.08061433443455 L 16.044275261977823 54.98242138231162 L 16.08225939721078 54.884395235164845 L 16.122410054306492 54.786545695527266 L 16.164723218232705 54.68888254827129 L 16.209194657708284 54.59141555963026 L 16.255819925626344 54.49415447622183 L 16.30459435949895 54.39710902407328 L 16.355513081923355 54.30028890764895 L 16.40857100106975 54.20370380887981 L 16.463762811190435 54.10736338619524 L 16.521082993150394 54.01127727355723 L 16.580525814979193 53.91545507949698 L 16.64208533244419 53.81990638615403 L 16.705755389644935 53.724640748318095 L 16.771529619628765 53.629667692473575 L 16.839401445027494 53.53499671584691 L 16.909364078715143 53.440637285456866 L 16.981410524486645 53.34659883716785 L 17.05553357775746 53.252890774746334 L 17.13172582628403 53.15952246892046 L 17.209979650904998 53.066503256443006 L 17.29028722630311 52.973842439157714 L 17.37264052178775 52.88154928306908 L 17.457031302098 52.78963301741581 L 17.543451128226152 52.69810283374788 L 17.63189135826161 52.606967885007364 L 17.722343148255067 52.51623728461321 L 17.814797453102905 52.425920105549835 L 17.909245027451682 52.33602537945989 L 18.005676426622667 52.24656209574106 L 18.104082007556308 52.15753920064718 L 18.20445192977651 52.06896559639356 L 18.306776156374696 51.980850140266824 L 18.41104445501347 51.893201643739154 L 18.51724639894987 51.80602887158716 L 18.625371368077992 51.71934054101541 L 18.735408549991032 51.63314532078473 L 18.847346941062497 51.5474518303453 L 18.961175347546558 51.46226863897477 L 19.076882386697427 51.37760426492128 L 19.19445648790761 51.29346717455169 L 19.31388589386496 51.20986578150492 L 19.435158661728412 51.12680844585059 L 19.55826266432224 51.04430347325308 L 19.683185591348764 50.962359114140874 L 19.809914950619387 50.88098356288161 L 19.93843806930379 50.800184956962596 L 20.06874209519721 50.71997137617709 L 20.200813998005636 50.64035084181633 L 20.33464057064885 50.5613313158674 L 20.470208430581117 50.48292070021704 L 20.607504021129404 50.40512683586149 L 20.746513612849082 50.32795750212234 L 20.887223304896807 50.25142041586866 L 21.02961902642064 50.17552323074529 L 21.17368653796709 50.100273536407514 L 21.319411432905056 50.025678857762045 L 21.466779138866485 49.95174665421458 L 21.615774919203584 49.878484318923874 L 21.766383874462484 49.8058991780624 L 21.918590943873163 49.733998490083756 L 22.07238090685552 49.662789444996825 L 22.22773838454141 49.59227916364677 L 22.384647841312542 49.52247469700298 L 22.543093586353983 49.45338302545394 L 22.703059775223277 49.38501105810922 L 22.86453041143483 49.3173656321086 L 23.02748934805959 49.25045351193829 L 23.191920289339688 49.18428138875455 L 23.357806792318023 49.118855879714566 L 23.52513226848254 49.054183527314706 L 23.69387998542505 48.990270798736326 L 23.86403306851448 48.927124085199026 L 24.035574502584325 48.864749701321536 L 24.208487133634122 48.80315388449026 L 24.382753670544865 48.74234279423555 L 24.558356686808082 48.68232251161576 L 24.73527862226848 48.62309903860914 L 24.913501784879948 48.56467829751363 L 25.093008352474747 48.50706613035466 L 25.2737803745457 48.450268298300934 L 25.45579977404125 48.394290481088326 L 25.639048349173123 48.33913827645191 L 25.823507775236518 48.28481719956619 L 26.009159606442537 48.23133268249359 L 26.19598527776278 48.17869007364124 L 26.383966106785792 48.12689463722616 L 26.573083295585324 48.07595155274883 L 26.763317932600096 48.02586591447525 L 26.954650994524933 47.976642730927495 L 27.147063348213084 47.92828692438291 L 27.340535752589524 47.88080333038186 L 27.53504886057505 47.83419669724416 L 27.730583221020943 47.788471685594295 L 27.927119280654118 47.74363286789533 L 28.124637386032376 47.69968472799165 L 28.323117785509787 47.65663166066065 L 28.522540631211804 47.614477971173166 L 28.722885981020035 47.57322787486302 L 28.92413380056646 47.532885496705475 L 29.126263965236824 47.49345487090473 L 29.329256262183108 47.45493994049049 L 29.53309039234477 47.41734455692372 L 29.737745972478663 47.38067247971144 L 29.94320253719731 47.34492737603081 L 30.149439541015457 47.310112820362406 L 30.35643636040459 47.2762322941328 L 30.56417229585526 47.24328918536636 L 30.772626573947036 47.21128678834652 L 30.981778349425827 47.18022830328631 L 31.19160670728837 47.150116836008365 L 31.402090664873732 47.120955397634305 L 31.613209173961568 47.09274690428368 L 31.824941122876893 47.06549417678231 L 32.037265338601266 47.03919994038023 L 32.25016058889004 47.01386682447918 L 32.4636055843956 46.98949736236963 L 32.67757898079628 46.96609399097749 L 32.89205938093073 46.94365905062039 L 33.10702533693768 46.92219478477368 L 33.322455352400674 46.901703339846044 L 33.538327884497676 46.882186764964906 L 33.754621346155375 46.86364701177149 L 33.97131410820786 46.84608593422567 L 34.18838450155948 46.82950528842056 L 34.405810819351814 46.81390673240693 L 34.62357131913425 46.79929182602737 L 34.841644225038294 46.78566203076035 L 35.060007729955075 46.77301870957403 L 35.27863999771607 46.76136312679001 L 35.49751916527669 46.750696447956834 L 35.716623344902594 46.74101973973351 L 35.93593062635839 46.732333969782786 L 36.1554190790987 46.724640006674434 L 36.375066754461145 46.717938619798346 L 36.59485168786123 46.71223047928761 L 36.814751900988774 46.70751615595155 L 37.03474540400571 46.703796121218545 L 37.254810197745066 46.701070747088984 L 37.47492427591086 46.699340306098 L 37.69506562727869 46.698604971288255 L 37.915212237896874 46.69886481619261 L 38.13534209328781 46.700119814826806 L 38.35543318064939 46.702369841692004 L 38.575463491056304 46.705614671787416 L 38.79541102166086 46.709853980632715 L 39.01525377789328 46.715087344300564 L 39.23496977566115 46.72131423945895 L 39.45453704354779 46.72853404342355 L 39.673933625009376 46.73674603421998 L 39.8931375805706 46.745949390656016 L 40.112126990018574 46.75614319240367 L 40.330879954594835 46.767326420091266 L 40.54937459918523 46.77949795540535 L 40.76758907450737 46.792656581202536 L 40.98550155929557 46.80680098163122 L 41.20309026248295 46.82192974226314 L 41.42033342538051 46.83804135023483 L 41.637209323853 46.85513419439893 L 41.85369627049129 46.87320656548526 L 42.06977261678114 46.89225665627179 L 42.28541675526796 46.912282561765295 L 42.50060712171762 46.93328227939192 L 42.715322197272805 46.95525370919741 L 42.92954051060487 46.97819465405708 L 43.143240640061016 47.00210281989557 L 43.356401215806365 47.026975815916224 L 43.569000921960985 47.05281115484016 L 43.78101849873142 47.07960625315501 L 43.99243274453668 47.107358431373285 L 44.20322251812836 47.136064914300285 L 44.41336674070475 47.16572283131164 L 44.62284439801873 47.19632921664036 L 44.831634542479115 47.22788100967341 L 45.039716295245455 47.260375055257796 L 45.247068848315884 47.29380810401604 L 45.45367146660787 47.3281768126711 L 45.659503490031774 47.36347774438077 L 45.864544335556765 47.39970736908131 L 46.06877349926916 47.436862063840415 L 46.27217055842278 47.47493811321959 L 46.47471517348121 47.51393170964561 L 46.67638709015172 47.55383895379134 L 46.87716614141071 47.59465585496562 L 47.07703224952037 47.63637833151234 L 47.27596542803644 47.679002211218624 L 47.47394578380685 47.72252323173201 L 47.670953518961 47.76693704098672 L 47.86696893288955 47.812239197638846 L 48.06197242421445 47.85842517151046 L 48.25594449274908 47.905490344042676 L 48.44886574144822 47.95343000875745 L 48.640716878347774 48.00223937172827 L 48.83147871849392 48.05191355205951 L 49.02113218586161 48.10244758237453 L 49.20965831526216 48.15383640931242 L 49.39703825423973 48.20607489403329 L 49.583253264956575 48.25915781273222 L 49.768284726066796 48.31307985716156 L 49.95211413457847 48.36783563516181 L 50.13472310770395 48.423419671200804 L 50.31609338469809 48.479826406921255 L 50.496206828684336 48.53705020169659 L 50.67504542846838 48.59508533319502 L 50.85259130033927 48.65392599795177 L 51.02882668985778 48.71356631194938 L 51.20373397363182 48.77400031120615 L 51.37729566107877 48.835221952372535 L 51.54949439617451 48.89722511333542 L 51.72031295918904 48.96000359383039 L 51.889734268408404 49.0235511160617 L 52.05774138184286 49.08786132533009 L 52.224317498921074 49.152927790668215 L 52.38944596217015 49.21874400548377 L 52.55311025888137 49.285303388210124 L 52.71529402276145 49.35259928296446 L 52.87598103556915 49.420624960213395 L 53.035155228737096 49.489373617445885 L 53.19280068497862 49.55883837985349 L 53.34890163987947 49.62901230101787 L 53.50344248347424 49.69988836360538 L 53.656407761807344 49.77145948006883 L 53.80778217847842 49.8437184933562 L 53.957550596171956 49.916658177626395 L 54.10569803817099 49.99027123897176 L 54.25220968985477 50.0645503161475 L 54.397070900180225 50.13948798130782 L 54.54026718314704 50.21507674074863 L 54.68178421924624 50.29130903565699 L 54.82160785689214 50.36817724286692 L 54.959724113837524 50.44567367562176 L 55.096119178571776 50.52379058434283 L 55.23077941170208 50.602520157404335 L 55.36369134731734 50.68185452191459 L 55.49484169433477 50.76178574450325 L 55.62421733782894 50.84230583211467 L 55.75180534034332 50.92340673280718 L 55.877592943183984 51.00508033655831 L 56.001567567695474 51.08731847607572 L 56.12371681651864 51.17011292761402 L 56.2440284748304 51.25345541179703 L 56.36249051156518 51.33733759444579 L 56.47909108061802 51.42175108741194 L 56.59381852202918 51.506687449416525 L 56.70666136315014 51.592138186894125 L 56.81760831979081 51.6780947548422 L 56.92664829734798 51.76454855767558 L 57.03377039191477 51.85149095008604 L 57.13896389137099 51.93891323790678 L 57.24221827645435 52.02680667898187 L 57.34352322181238 52.115162484040454 L 57.44286859703498 52.20397181757565 L 57.54024446766741 52.293225798728116 L 57.63564109620375 52.38291550217411 L 57.72904894306065 52.47303195901802 L 57.82045866753125 52.56356615768928 L 57.909861128719285 52.65450904484346 L 57.99724738645315 52.74585152626762 L 58.08260870217987 52.837584467789746 L 58.165936539839024 52.92969869619212 L 58.24722256671629 53.02218500012867 L 58.32645865427669 53.11503413104609 L 58.40363687897754 53.20823680410863 L 58.47874952306064 53.30178369912667 L 58.55178907532421 53.39566546148867 L 58.62274823187387 53.48987270309661 L 58.69161989685311 53.58439600330485 L 58.758397183152816 53.67922590986214 L 58.82307341310001 53.77435293985683 L 58.88564211912559 53.86976758066522 L 58.946097044411104 53.96546029090272 L 59.00443214351439 54.06142150137806 L 59.06064158297416 54.15764161605015 L 59.114719741893296 54.254111012987714 L 59.16666121250098 54.350820045331446 L 59.21646080069345 54.4477590422587 L 59.26411352655336 54.54491830995058 L 59.30961462484784 54.64228813256127 L 59.35295954550499 54.739858773189646 L 59.39414395406886 54.83762047485297 L 59.43316373213291 54.93556346146252 L 59.47001497775186 55.033677938801276 L 59.50469400583184 55.131954095503254 L 59.53719734849895 55.23038210403468 L 59.567521755446016 55.328952121676735 L 59.59566419425761 55.42765429150978 L 59.6216218507133 55.5264787433991 L 59.645392129069066 55.62541559498185 L 59.666972652316886 55.72445495265532 L 59.68636126242242 55.82358691256627 L 59.70355602054082 55.92280156160133 L 59.7185552072106 56.022088978378264 L 59.73135732252559 56.121439234238146 L 59.741961086284924 56.22084239423817 L 59.750365438121065 56.32028851814517 L 59.756569537605834 56.41976766142964 L 59.760572764334455 56.51926987626014 L 59.76237471798758 56.61878521249811 M 59.76248640111621 88.31564836440002 L 59.76138566889743 88.4151657904769 L 59.758083582313375 88.5146732648941 L 59.75258047156996 88.61416083698711 L 59.74487688697368 88.71361855808162 L 59.734973598876564 88.8130364824884 L 59.72287159759917 88.91240466849787 L 59.708572093331554 89.01171317937421 L 59.69207651601221 89.11095208434912 L 59.67338651518513 89.21011145961478 L 59.652503959834824 89.3091813893163 L 59.62943093819942 89.40815196654326 L 59.60416975756186 89.50701329432043 L 59.57672294401915 89.60575548659742 L 59.547093242229785 89.70436866923727 L 59.51528361513924 89.80284298100389 L 59.48129724368371 89.90116857454818 L 59.445137526472045 89.99933561739272 L 59.40680807944581 90.09733429291502 L 59.366312735517766 90.19515480132921 L 59.32365554418857 90.29278736066595 L 59.278840771141816 90.3902222077507 L 59.23187289781744 90.4874495991799 L 59.182756620963644 90.58445981229544 L 59.13149685216719 90.68124314615687 L 59.07809871736224 90.77778992251145 L 59.02256755631777 90.874090486762 L 58.964908922103604 90.97013520893233 L 58.905128580535134 91.06591448463028 L 58.84323250959668 91.16141873600809 L 58.779226898843774 91.25663841272019 L 58.71311814878413 91.3515639928783 L 58.64491287023769 91.44618598400346 L 58.57461788367545 91.54049492397544 L 58.5022402185375 91.63448138197883 L 58.427787112530034 91.72813595944615 L 58.35126601090161 91.82144929099769 L 58.272684565698626 91.91441204537807 L 58.1920506350001 92.0070149263893 L 58.10937228213194 92.09924867382047 L 58.024657774860515 92.19110406437368 L 57.93791558456595 92.28257191258642 L 57.849154385394996 92.37364307175011 L 57.758383053393615 92.46430843482472 L 57.665610665619354 92.55455893534949 L 57.570846499233674 92.64438554834958 L 57.474100030574256 92.73377929123853 L 57.375380934207335 92.82273122471658 L 57.274699081960286 92.91123245366448 L 57.17206454193443 92.9992741280331 L 57.067487577498255 93.08684744372835 L 56.96097864626103 93.17394364349167 L 56.85254839902714 93.26055401777563 L 56.742207678730956 93.346669905615 L 56.62996751935255 93.43228269549276 L 56.515839144814315 93.51738382620125 L 56.39983396785861 93.60196478769834 L 56.281963588906464 93.68601712195833 L 56.162239794897545 93.76953242381786 L 56.04067455811147 93.85250234181635 L 55.91728003497063 93.9349185790311 L 55.792068564824504 94.01677289390713 L 55.66505266871577 94.09805710108111 L 55.53624504812818 94.17876307220008 L 55.405658583716466 94.2588827367342 L 55.273306334018244 94.33840808278374 L 55.139201534148185 94.41733115788041 L 55.00335759447454 94.49564406978244 L 54.86578809927805 94.57333898726392 L 54.7265068053936 94.65040814089784 L 54.58552764083452 94.72684382383305 L 54.44286470339978 94.80263839256496 L 54.298532259264235 94.87778426769987 L 54.15254474155202 94.95227393471288 L 54.004916748893265 95.02609994469935 L 53.8556630439642 95.09925491511981 L 53.704798552010935 95.1717315305382 L 53.55233835935696 95.24352254335335 L 53.39829771189448 95.31462077452383 L 53.242692013559875 95.38501911428574 L 53.085536824793316 95.45471052286379 L 52.92684786098271 95.52368803117518 L 52.7666409908922 95.59194474152659 L 52.60493223507529 95.65947382830383 L 52.4417377642728 95.72626853865452 L 52.27707389779582 95.7923221931633 L 52.11095710189379 95.85762818651972 L 51.943403988107846 95.9221799881789 L 51.77443131160975 95.98597114301445 L 51.60405596952635 96.04899527196406 L 51.43229499924986 96.11124607266736 L 51.25916557673419 96.17271732009613 L 51.08468501477731 96.23340286717686 L 50.90887076129001 96.29329664540542 L 50.731740397551135 96.3523926654539 L 50.55331163644945 96.41068501776955 L 50.37360232071237 96.4681678731657 L 50.19263042112172 96.5248354834047 L 50.010414034716646 96.58068218177279 L 49.826971382983935 96.63570238364663 L 49.6423208100359 96.6898905870519 L 49.45648078077596 96.74324137321344 L 49.26946987905217 96.79574940709705 L 49.08130680579887 96.84740943794313 L 48.89201037716657 96.89821629979161 L 48.70159952264039 96.94816491199869 L 48.51009328314712 96.99725027974473 L 48.317510809151116 97.0454674945339 L 48.12387135873928 97.09281173468487 L 47.929194295695304 97.13927826581309 L 47.733499087563246 97.18486244130418 L 47.53680530370086 97.22955970277856 L 47.339132613322604 97.27336558054733 L 47.1405007835328 97.31627569405923 L 46.94092967734889 97.35828575233866 L 46.740439251715195 97.3993915544148 L 46.539049555507205 97.43958898974171 L 46.3367807275267 97.47887403860933 L 46.13365299448794 97.51724277254554 L 45.92968666899494 97.5546913547089 L 45.72490214751029 97.5912160402724 L 45.51931990831548 97.62681317679792 L 45.31296050946312 97.6614792046015 L 45.10584458672112 97.69521065710921 L 44.89799285150915 97.72800416120393 L 44.689426088827545 97.75985643756258 L 44.48016515517875 97.79076430098405 L 44.270230976481756 97.82072466070777 L 44.05964454597948 97.84973452072273 L 43.848426922139495 97.8777909800671 L 43.63659922654816 97.90489123311833 L 43.42418264179851 97.93103256987371 L 43.211198409372024 97.95621237622132 L 42.99766782751444 97.98042813420153 L 42.783612249106014 98.0036774222587 L 42.5690530795262 98.02595791548345 L 42.35401177451316 98.04726738584496 L 42.138509838018194 98.06760370241399 L 41.92256882005537 98.08696483157581 L 41.70621031454653 98.10534883723366 L 41.48945595716194 98.1227538810023 L 41.27232742315669 98.13917822239182 L 41.054846425203245 98.15462021898179 L 40.837034711220184 98.16907832658542 L 40.618914062197376 98.182551099404 L 40.400506290017965 98.19503719017146 L 40.18183323527717 98.20653535028914 L 39.96291676509822 98.21704442995062 L 39.743778770945724 98.22656337825667 L 39.52444116643647 98.23509124332041 L 39.30492588514813 98.24262717236243 L 39.08525487842591 98.24917041179611 L 38.86545011318741 98.25472030730296 L 38.645533569726 98.25927630389805 L 38.42552723951275 98.26283794598552 L 38.205453122997355 98.26540487740414 L 37.98533322740806 98.26697684146288 L 37.765189564551 98.26755368096666 L 37.54504414860901 98.26713533823201 L 37.32491899394022 98.26572185509286 L 37.10483611287667 98.26331337289633 L 36.88481751352306 98.25991013248867 L 36.664885197555975 98.25551247419104 L 36.44506115802374 98.25012083776562 L 36.225367377147116 98.24373576237157 L 36.00582582412112 98.2363578865111 L 35.786458452918104 98.22798794796564 L 35.56728720009237 98.21862678372209 L 35.34833398258658 98.20827532988906 L 35.129620695540005 98.1969346216033 L 34.911169210099104 98.18460579292622 L 34.693001371230366 98.17129007673037 L 34.47513899553588 98.1569888045763 L 34.25760386907166 98.14170340657931 L 34.04041774516907 98.12543541126645 L 33.82360234225952 98.1081864454237 L 33.607179341702626 98.08995823393326 L 33.39117038561808 98.07075259960111 L 33.175597074721495 98.05057146297464 L 32.960480966164305 98.02941684215075 L 32.74584357137811 98.00729085257386 L 32.531706353923525 97.9841957068245 L 32.318090727343844 97.96013371439797 L 32.10501805302372 97.9351072814735 L 31.892509638053014 97.90911891067351 L 31.680586733096145 97.88217120081342 L 31.469270530267 97.85426684664178 L 31.25858216100977 97.82540863857072 L 31.0485426939858 97.79559946239702 L 30.83917313296677 97.76484229901347 L 30.6304944147343 97.73314022411074 L 30.42252740698632 97.70049640786993 L 30.215292906250294 97.66691411464545 L 30.008811635803607 97.63239670263864 L 29.803104243601233 97.59694762356195 L 29.59819130021097 97.56057042229372 L 29.3940932967564 97.52326873652379 L 29.19083064286778 97.48504629638963 L 28.98842366464112 97.44590692410341 L 28.786892602605572 97.40585453356975 L 28.586257609699402 97.36489312999431 L 28.38653874925469 97.32302680948334 L 28.187755992991065 97.28025975863397 L 27.98992921901849 97.23659625411567 L 27.793078209849508 97.19204066224249 L 27.597222650421 97.14659743853649 L 27.402382126125694 97.10027112728218 L 27.20857612085365 97.05306636107208 L 27.01582401504389 97.00498786034348 L 26.824145083746377 96.95604043290636 L 26.633558494694498 96.9062289734627 L 26.444083306388347 96.85555846311694 L 26.255738466188852 96.80403396887786 L 26.068542808423082 96.75166064315196 L 25.882515052500814 96.69844372322818 L 25.697673801042626 96.64438853075416 L 25.514037538019622 96.58950047120409 L 25.331624626905082 96.53378503333819 L 25.150453308838095 96.47724778865383 L 24.970541700799505 96.41989439082836 L 24.79190779380018 96.36173057515376 L 24.61456945108197 96.30276215796312 L 24.438544406331353 96.24299503604902 L 24.26385026190613 96.18243518607389 L 24.09050448707515 96.1210886639722 L 23.918524416271453 96.05896160434507 L 23.747927247358803 95.99606021984668 L 23.578730039911925 95.93239080056308 L 23.41094971351056 95.86795971338313 L 23.244603046047544 95.80277340136185 L 23.079706672050996 95.73683838307612 L 22.916277081020898 95.67016125197281 L 22.75433061578017 95.6027486757095 L 22.593883470840375 95.53460739548763 L 22.434951690782306 95.46574422537843 L 22.27755116865152 95.39616605164152 L 22.121697644369068 95.32587983203629 L 21.9674067031575 95.25489259512614 L 21.814693773982363 95.1832114395756 L 21.663574128009312 95.1108435334405 L 21.514062877077013 95.03779611345114 L 21.366174972185966 94.96407648428864 L 21.219925202003424 94.88969201785449 L 21.075328191384525 94.81465015253335 L 20.93239839990984 94.7389583924492 L 20.7911501204394 94.662624306715 L 20.651597477683456 94.5856555286757 L 20.513754426789983 94.50805975514496 L 20.377634751949202 94.42984474563546 L 20.24325206501517 94.351018321583 L 20.110619804144587 94.27158836556427 L 19.979751232453022 94.19156282050868 L 19.85065943668858 94.11094968890407 L 19.723357325923267 94.02975703199641 L 19.59785763026207 93.94799296898373 L 19.474172899569975 93.8656656762042 L 19.35231550221698 93.78278338631848 L 19.232297623841276 93.69935438748651 L 19.11413126613068 93.61538702253864 L 18.997828245622497 93.53088968814139 L 18.883400192521858 93.44587083395777 L 18.770858549538712 93.36033896180237 L 18.660214570743577 93.27430262479113 L 18.55147932044213 93.18777042648605 L 18.44466367206879 93.10075102003485 L 18.339778307099376 93.01325310730566 L 18.236833713982985 92.92528543801683 L 18.135840187093137 92.836856808862 L 18.03680782569837 92.74797606263037 L 17.939746532952288 92.65865208732252 L 17.844666014903282 92.56889381526153 L 17.75157577952393 92.47871022219982 L 17.660485135760187 92.38811032642154 L 17.571403192600524 92.29710318784076 L 17.48433885816502 92.20569790709551 L 17.399300838814575 92.11390362463769 L 17.316297638280243 92.02172951981903 L 17.235337556812922 91.92918480997322 L 17.156428690353287 91.83627874949414 L 17.079578929722228 91.74302062891039 L 17.004795959831764 91.64941977395632 L 16.93208725891657 91.55548554463944 L 16.86146009778614 91.46122733430438 L 16.79292153909774 91.36665456869365 L 16.726478436650115 91.27177670500497 L 16.66213743469815 91.17660323094567 L 16.599904967288413 91.08114366378383 L 16.539787257615792 90.98540754939663 L 16.48179031740115 90.88940446131572 L 16.425919946290186 90.79314399976991 L 16.372181731273447 90.69663579072514 L 16.320581046127653 90.59988948492189 L 16.27112305087832 90.5029147569101 L 16.223812691283758 90.40572130408178 L 16.178654698340498 90.30831884570122 L 16.135653587810207 90.21071712193307 L 16.094813659768104 90.1129258928684 L 16.05613899817296 90.01495493754861 L 16.0196334704587 89.91681405298758 L 15.985300727147681 89.81851305319199 L 15.953144201485621 89.72006176817992 L 15.923167109098287 89.6214700429978 L 15.895372447669939 89.52274773673601 L 15.869762996643562 89.42390472154288 L 15.846341316942908 89.32495088163759 L 15.82510975071644 89.22589611232166 L 15.80607042110308 89.12675031898948 L 15.789225232019923 89.02752341613775 L 15.77457586797184 88.92822532637408 L 15.762123793883035 88.82886597942469 L 15.751870254950532 88.72945531114148 L 15.743816276519688 88.63000326250842 L 15.737962663981627 88.53051977864753 L 15.734310002692727 88.43101480782425 L 15.732858657916072 88.3314983004528" stroke-miterlimit="10" stroke-width="2.5633703640000003" stroke-dasharray=""/></g><g><g/><text fill="black" stroke="none" font-family="sans-serif" font-size="11pt" font-style="normal" font-weight="normal" text-decoration="normal" x="7.5393246000000005" y="114.44694742800002" text-anchor="start" dominant-baseline="alphabetic" xml:space="preserve">Auth DB</text></g><path fill="none" stroke="none"/><g><path fill="white" stroke="black" paint-order="fill stroke markers" d=" M 269.4970588203437 78.258189348 L 354.8843955225761 78.258189348 L 354.8843955225761 118.970542188 L 269.4970588203437 118.970542188 L 269.4970588203437 78.258189348 Z" stroke-miterlimit="10" stroke-width="2.4125838720000004" stroke-dasharray=""/></g><g><g/><text fill="black" stroke="none" font-family="sans-serif" font-size="11pt" font-style="normal" font-weight="normal" text-decoration="normal" x="285.8573932023437" y="103.89189298800001" text-anchor="start" dominant-baseline="alphabetic" xml:space="preserve">UCloud</text></g><path fill="none" stroke="none"/><g><path fill="white" stroke="black" paint-order="fill stroke markers" d=" M 705.4317942165106 78.40897584 L 812.1024599287529 78.40897584 L 812.1024599287529 118.970542188 L 705.4317942165106 118.970542188 L 705.4317942165106 78.40897584 Z" stroke-miterlimit="10" stroke-width="2.4125838720000004" stroke-dasharray=""/></g><g><text fill="black" stroke="none" font-family="sans-serif" font-size="11pt" font-style="normal" font-weight="normal" text-decoration="normal" x="721.7921285985107" y="103.891892988" text-anchor="start" dominant-baseline="alphabetic" xml:space="preserve">Provider P</text></g></g><g><g><g><rect fill="white" stroke="none" x="362.11712363853024" y="149.127840588" width="346.72360696703123" height="19.602243960000003"/></g><text fill="black" stroke="none" font-family="sans-serif" font-size="11pt" font-style="normal" font-weight="normal" text-decoration="normal" x="364.37892101853026" y="162.698624868" text-anchor="start" dominant-baseline="alphabetic" xml:space="preserve">auth.refresh() authenticated with refreshToken</text></g><g><path fill="none" stroke="black" paint-order="fill stroke markers" d=" M 758.7671270726318 168.730084548 L 324.6054816794599 168.730084548" stroke-miterlimit="10" stroke-width="1.2565541" stroke-dasharray=""/><g transform="translate(312.1907271714599,168.730084548) translate(-312.1907271714599,-168.730084548)"><path fill="black" stroke="none" paint-order="stroke fill markers" d=" M 324.7562681714599 162.447314048 L 312.1907271714599 168.730084548 L 324.7562681714599 175.012855048 Z"/></g></g><g><g><rect fill="white" stroke="none" x="90.84906571733883" y="191.348058348" width="168.24025430589845" height="19.602243960000003"/></g><text fill="black" stroke="none" font-family="sans-serif" font-size="11pt" font-style="normal" font-weight="normal" text-decoration="normal" x="93.11086309733884" y="204.918842628" text-anchor="start" dominant-baseline="alphabetic" xml:space="preserve">validate(refreshToken)</text></g><g><path fill="none" stroke="black" paint-order="fill stroke markers" d=" M 312.1907271714599 210.950302308 L 50.16241307711621 210.950302308" stroke-miterlimit="10" stroke-width="1.2565541" stroke-dasharray=""/><g transform="translate(37.74765856911621,210.950302308) translate(-37.74765856911621,-210.950302308)"><path fill="black" stroke="none" paint-order="stroke fill markers" d=" M 50.313199569116215 204.667531808 L 37.74765856911621 210.950302308 L 50.313199569116215 217.233072808 Z"/></g></g><g><g><rect fill="white" stroke="none" x="55.59072678911618" y="233.568276108" width="238.75693216234376" height="19.602243960000003"/></g><text fill="black" stroke="none" font-family="sans-serif" font-size="11pt" font-style="normal" font-weight="normal" text-decoration="normal" x="57.85252416911618" y="247.139060388" text-anchor="start" dominant-baseline="alphabetic" xml:space="preserve">SecurityPrincipal representing P</text></g><g><path fill="none" stroke="black" paint-order="fill stroke markers" d=" M 37.74765856911621 253.170520068 L 299.7759726634599 253.170520068" stroke-miterlimit="10" stroke-width="1.2565541" stroke-dasharray=""/><g transform="translate(312.1907271714599,253.170520068) translate(-312.1907271714599,-253.170520068)"><path fill="black" stroke="none" paint-order="stroke fill markers" d=" M 299.6251861714599 246.887749568 L 312.1907271714599 253.170520068 L 299.6251861714599 259.453290568 Z"/></g></g><g><g><rect fill="white" stroke="none" x="431.5004625667529" y="275.788493868" width="207.95692911058595" height="19.602243960000003"/></g><text fill="black" stroke="none" font-family="sans-serif" font-size="11pt" font-style="normal" font-weight="normal" text-decoration="normal" x="433.7622599467529" y="289.35927814800004" text-anchor="start" dominant-baseline="alphabetic" xml:space="preserve">AccessToken representing P</text></g><g><path fill="none" stroke="black" paint-order="fill stroke markers" d=" M 312.1907271714599 295.390737828 L 746.3523725646318 295.390737828" stroke-miterlimit="10" stroke-width="1.2565541" stroke-dasharray=""/><g transform="translate(758.7671270726318,295.390737828) translate(-758.7671270726318,-295.390737828)"><path fill="black" stroke="none" paint-order="stroke fill markers" d=" M 746.2015860726317 289.107967328 L 758.7671270726318 295.390737828 L 746.2015860726317 301.673508328 Z"/></g></g><path fill="none" stroke="black" paint-order="fill stroke markers" d=" M 7.5393246000000005 330.322941808 L 811.4606754 330.322941808 M 7.5393246000000005 335.349158208 L 811.4606754 335.349158208 M 7.5393246000000005 340.375374608 L 811.4606754 340.375374608" stroke-miterlimit="10" stroke-width="1.2565541" stroke-dasharray=""/><path fill="white" stroke="black" paint-order="fill stroke markers" d=" M 271.0565552435352 318.008711628 L 547.9434447564648 318.008711628 L 547.9434447564648 352.689604788 L 271.0565552435352 352.689604788 Z" stroke-miterlimit="10" stroke-width="1.2565541" stroke-dasharray=""/><g><text fill="black" stroke="none" font-family="sans-serif" font-size="11pt" font-style="normal" font-weight="normal" text-decoration="normal" x="292.16666412353516" y="339.118820508" text-anchor="start" dominant-baseline="alphabetic" xml:space="preserve">P can now use the access-token</text></g><g><g><rect fill="white" stroke="none" x="330.03379539145993" y="375.307578588" width="410.89026346117186" height="19.602243960000003"/></g><text fill="black" stroke="none" font-family="sans-serif" font-size="11pt" font-style="normal" font-weight="normal" text-decoration="normal" x="332.29559277145995" y="388.87836286800007" text-anchor="start" dominant-baseline="alphabetic" xml:space="preserve">jobs.control.update(...) authenticated with accessToken</text></g><g><path fill="none" stroke="black" paint-order="fill stroke markers" d=" M 758.7671270726318 394.909822548 L 324.6054816794599 394.909822548" stroke-miterlimit="10" stroke-width="1.2565541" stroke-dasharray=""/><g transform="translate(312.1907271714599,394.909822548) translate(-312.1907271714599,-394.909822548)"><path fill="black" stroke="none" paint-order="stroke fill markers" d=" M 324.7562681714599 388.627052048 L 312.1907271714599 394.909822548 L 324.7562681714599 401.19259304800005 Z"/></g></g><g><g><rect fill="white" stroke="none" x="104.2490596138232" y="417.52779634800004" width="141.4402665129297" height="19.602243960000003"/></g><text fill="black" stroke="none" font-family="sans-serif" font-size="11pt" font-style="normal" font-weight="normal" text-decoration="normal" x="106.51085699382321" y="431.09858062800004" text-anchor="start" dominant-baseline="alphabetic" xml:space="preserve">Fetch keypair for P</text></g><g><path fill="none" stroke="black" paint-order="fill stroke markers" d=" M 312.1907271714599 437.13004030800005 L 50.16241307711621 437.13004030800005" stroke-miterlimit="10" stroke-width="1.2565541" stroke-dasharray=""/><g transform="translate(37.74765856911621,437.13004030800005) translate(-37.74765856911621,-437.13004030800005)"><path fill="black" stroke="none" paint-order="stroke fill markers" d=" M 50.313199569116215 430.847269808 L 37.74765856911621 437.13004030800005 L 50.313199569116215 443.4128108080001 Z"/></g></g><g><g><rect fill="white" stroke="none" x="145.1990622841113" y="459.74801410800006" width="59.54026117235352" height="19.602243960000003"/></g><text fill="black" stroke="none" font-family="sans-serif" font-size="11pt" font-style="normal" font-weight="normal" text-decoration="normal" x="147.4608596641113" y="473.3187983880001" text-anchor="start" dominant-baseline="alphabetic" xml:space="preserve">Keypair</text></g><g><path fill="none" stroke="black" paint-order="fill stroke markers" d=" M 37.74765856911621 479.3502580680001 L 299.7759726634599 479.3502580680001" stroke-miterlimit="10" stroke-width="1.2565541" stroke-dasharray=""/><g transform="translate(312.1907271714599,479.3502580680001) translate(-312.1907271714599,-479.3502580680001)"><path fill="black" stroke="none" paint-order="stroke fill markers" d=" M 299.6251861714599 473.06748756800005 L 312.1907271714599 479.3502580680001 L 299.6251861714599 485.6330285680001 Z"/></g></g><path fill="white" stroke="black" paint-order="fill stroke markers" d=" M 170.78895416792471 501.9682318680001 L 440.0217158949951 501.9682318680001 L 453.5925001749951 515.5390161480001 L 453.5925001749951 536.6491250280001 L 170.78895416792471 536.6491250280001 L 170.78895416792471 501.9682318680001 M 440.0217158949951 501.9682318680001 L 440.0217158949951 515.5390161480001 L 453.5925001749951 515.5390161480001" stroke-miterlimit="10" stroke-width="1.2565541" stroke-dasharray=""/><g><text fill="black" stroke="none" font-family="sans-serif" font-size="11pt" font-style="normal" font-weight="normal" text-decoration="normal" x="191.89906304792476" y="523.0783407480001" text-anchor="start" dominant-baseline="alphabetic" xml:space="preserve">Verify accessToken using keypair</text></g><g><g><rect fill="white" stroke="none" x="522.633796726604" y="559.267098828" width="25.69026079088379" height="19.602243960000003"/></g><text fill="black" stroke="none" font-family="sans-serif" font-size="11pt" font-style="normal" font-weight="normal" text-decoration="normal" x="524.895594106604" y="572.837883108" text-anchor="start" dominant-baseline="alphabetic" xml:space="preserve">OK</text></g><g><path fill="none" stroke="black" paint-order="fill stroke markers" d=" M 312.1907271714599 578.869342788 L 746.3523725646318 578.869342788" stroke-miterlimit="10" stroke-width="1.2565541" stroke-dasharray=""/><g transform="translate(758.7671270726318,578.869342788) translate(-758.7671270726318,-578.869342788)"><path fill="black" stroke="none" paint-order="stroke fill markers" d=" M 746.2015860726317 572.5865722880001 L 758.7671270726318 578.869342788 L 746.2015860726317 585.152113288 Z"/></g></g></g><g/><g/></g></svg>