<svg version="1.1" xmlns="http://www.w3.org/2000/svg" xmlns:xlink="http://www.w3.org/1999/xlink" width="1391" height="1092"><defs/><g><g/><g/><g/><g/><g/><g/><g/><g/><g/><g/><g/><g/><g/><g/><g/><g/><g/><g/><g/><g/><g/><g/><g/><g/><g/><g/><g/><g/><g/><g/><g/><g/><g/><g><rect fill="white" stroke="none" x="0" y="0" width="1391" height="1092"/></g><g><g><path fill="lightgreen" stroke="black" paint-order="fill stroke markers" d=" M 255.45738786176753 58.505158896000005 L 607.8680842870048 58.505158896000005 L 607.8680842870048 1085.4365626619997 L 255.45738786176753 1085.4365626619997 L 255.45738786176753 58.505158896000005" stroke-miterlimit="10" stroke-width="1.2565541" stroke-dasharray=""/></g><g><text fill="black" stroke="none" font-family="sans-serif" font-size="11pt" font-style="normal" font-weight="bold" text-decoration="normal" x="396.7294017238002" y="79.615267776" text-anchor="start" dominant-baseline="alphabetic" xml:space="preserve"> UCloud</text><text fill="black" stroke="none" font-family="sans-serif" font-size="11pt" font-style="normal" font-weight="bold" text-decoration="normal" x="396.7294017238002" y="94.693916976" text-anchor="start" dominant-baseline="alphabetic" xml:space="preserve">Network</text></g><g><path fill="lightblue" stroke="black" paint-order="fill stroke markers" d=" M 652.4089663050047 23.824265736 L 1384.1346145892371 23.824265736 L 1384.1346145892371 1085.4365626619997 L 652.4089663050047 1085.4365626619997 L 652.4089663050047 23.824265736" stroke-miterlimit="10" stroke-width="1.2565541" stroke-dasharray=""/></g><g><text fill="black" stroke="none" font-family="sans-serif" font-size="11pt" font-style="normal" font-weight="bold" text-decoration="normal" x="983.0967912100604" y="44.934374616" text-anchor="start" dominant-baseline="alphabetic" xml:space="preserve">Provider</text><text fill="black" stroke="none" font-family="sans-serif" font-size="11pt" font-style="normal" font-weight="bold" text-decoration="normal" x="983.0967912100604" y="60.013023816" text-anchor="start" dominant-baseline="alphabetic" xml:space="preserve">Network</text></g><g><path fill="lightyellow" stroke="black" paint-order="fill stroke markers" d=" M 659.9482909050047 73.58380809600001 L 975.583991526409 73.58380809600001 L 975.583991526409 1085.4365626619997 L 659.9482909050047 1085.4365626619997 L 659.9482909050047 73.58380809600001" stroke-miterlimit="10" stroke-width="1.2565541" stroke-dasharray=""/></g><g><text fill="black" stroke="none" font-family="sans-serif" font-size="11pt" font-style="normal" font-weight="bold" text-decoration="normal" x="746.6994755662928" y="94.69391697600001" text-anchor="start" dominant-baseline="alphabetic" xml:space="preserve">New components</text></g><g><path fill="pink" stroke="black" paint-order="fill stroke markers" d=" M 990.662640726409 104.19346597200001 L 1376.5952899892372 104.19346597200001 L 1376.5952899892372 1085.4365626619997 L 990.662640726409 1085.4365626619997 L 990.662640726409 104.19346597200001" stroke-miterlimit="10" stroke-width="1.2565541" stroke-dasharray=""/></g><g><text fill="black" stroke="none" font-family="sans-serif" font-size="11pt" font-style="normal" font-weight="bold" text-decoration="normal" x="1097.3289623060653" y="125.30357485200001" text-anchor="start" dominant-baseline="alphabetic" xml:space="preserve">Existing components</text></g></g><g><path fill="none" stroke="black" paint-order="fill stroke markers" d=" M 52.930991012353516 180.71761066200003 L 52.930991012353516 1085.4365626619997" stroke-miterlimit="10" stroke-width="1.2565541" stroke-dasharray="11.598960923076923,5.0262164"/><path fill="none" stroke="black" paint-order="fill stroke markers" d=" M 305.69038081288375 180.71761066200003 L 305.69038081288375 1085.4365626619997" stroke-miterlimit="10" stroke-width="1.2565541" stroke-dasharray="11.598960923076923,5.0262164"/><path fill="none" stroke="black" paint-order="fill stroke markers" d=" M 560.9787612128837 180.71761066200003 L 560.9787612128837 1085.4365626619997" stroke-miterlimit="10" stroke-width="1.2565541" stroke-dasharray="11.598960923076923,5.0262164"/><path fill="none" stroke="black" paint-order="fill stroke markers" d=" M 753.3062857634695 180.71761066200003 L 753.3062857634695 1085.4365626619997" stroke-miterlimit="10" stroke-width="1.2565541" stroke-dasharray="11.598960923076923,5.0262164"/><path fill="none" stroke="black" paint-order="fill stroke markers" d=" M 914.5946661634696 180.71761066200003 L 914.5946661634696 1085.4365626619997" stroke-miterlimit="10" stroke-width="1.2565541" stroke-dasharray="11.598960923076923,5.0262164"/><path fill="none" stroke="black" paint-order="fill stroke markers" d=" M 1183.628965357823 180.71761066200003 L 1183.628965357823 1085.4365626619997" stroke-miterlimit="10" stroke-width="1.2565541" stroke-dasharray="11.598960923076923,5.0262164"/></g><g><g><path fill="white" stroke="black" paint-order="fill stroke markers" d=" M 61.525821056353514 101.85627534600002 A 8.594830044 8.594830044 0 1 1 61.52581675893885 101.84768051738848 M 52.930991012353516 110.45110539000001 L 52.930991012353516 128.847057414 M 42.07436358835351 117.08571103800001 L 63.78761843635352 117.08571103800001 M 52.930991012353516 128.847057414 L 42.07436358835351 146.03671750200002 M 52.930991012353516 128.847057414 L 63.78761843635352 146.03671750200002" stroke-miterlimit="10" stroke-width="2.5633703640000003" stroke-dasharray=""/></g><g><text fill="black" stroke="none" font-family="sans-serif" font-size="11pt" font-style="normal" font-weight="normal" text-decoration="normal" x="7.5393246000000005" y="161.11536670200002" text-anchor="start" dominant-baseline="alphabetic" xml:space="preserve">UCloud User</text><text fill="black" stroke="none" font-family="sans-serif" font-size="11pt" font-style="normal" font-weight="normal" text-decoration="normal" x="10.464323837060547" y="176.19401590200002" text-anchor="start" dominant-baseline="alphabetic" xml:space="preserve">Alice#1234</text></g><path fill="none" stroke="none"/><g><path fill="white" stroke="black" paint-order="fill stroke markers" d=" M 262.9967124617675 140.15604431400004 L 348.3840491639999 140.15604431400004 L 348.3840491639999 180.71761066200003 L 262.9967124617675 180.71761066200003 L 262.9967124617675 140.15604431400004 Z" stroke-miterlimit="10" stroke-width="2.4125838720000004" stroke-dasharray=""/></g><g><text fill="black" stroke="none" font-family="sans-serif" font-size="11pt" font-style="normal" font-weight="normal" text-decoration="normal" x="279.35704684376753" y="165.63896146200003" text-anchor="start" dominant-baseline="alphabetic" xml:space="preserve">UCloud</text></g><g><path fill="white" stroke="black" paint-order="fill stroke markers" d=" M 538.9639333808836 151.16345823 L 538.9639333808836 119.49829491000001 L 582.9935890448837 119.49829491000001 L 582.9935890448837 151.16345823" stroke-miterlimit="10" stroke-width="2.5633703640000003" stroke-dasharray=""/><path fill="white" stroke="black" paint-order="fill stroke markers" d=" M 582.9935890448837 118.39755351840002 L 582.9924883126649 118.4970709444769 L 582.9891862260808 118.5965784188941 L 582.9836831153374 118.69606599098711 L 582.9759795307411 118.79552371208162 L 582.966076242644 118.8949416364884 L 582.9539742413666 118.99430982249787 L 582.939674737099 119.09361833337421 L 582.9231791597797 119.19285723834912 L 582.9044891589526 119.29201661361478 L 582.8836066036023 119.39108654331629 L 582.8605335819669 119.49005712054326 L 582.8352724013293 119.58891844832043 L 582.8078255877866 119.68766064059741 L 582.7781958859972 119.78627382323727 L 582.7463862589067 119.88474813500389 L 582.7123998874512 119.98307372854818 L 582.6762401702396 120.08124077139271 L 582.6379107232133 120.17923944691502 L 582.5974153792853 120.27705995532921 L 582.554758187956 120.37469251466595 L 582.5099434149092 120.4721273617507 L 582.4629755415849 120.5693547531799 L 582.4138592647312 120.66636496629543 L 582.3625994959347 120.76314830015687 L 582.3092013611297 120.85969507651144 L 582.2536702000853 120.955995640762 L 582.1960115658711 121.05204036293233 L 582.1362312243026 121.14781963863028 L 582.0743351533641 121.24332389000809 L 582.0103295426112 121.33854356672019 L 581.9442207925516 121.4334691468783 L 581.8760155140052 121.52809113800346 L 581.8057205274429 121.62240007797544 L 581.733342862305 121.71638653597883 L 581.6588897562975 121.81004111344615 L 581.582368654669 121.90335444499769 L 581.503787209466 121.99631719937807 L 581.4231532787676 122.0889200803893 L 581.3404749258995 122.18115382782047 L 581.255760418628 122.27300921837367 L 581.1690182283335 122.36447706658642 L 581.0802570291625 122.4555482257501 L 580.9894856971611 122.54621358882471 L 580.8967133093868 122.63646408934949 L 580.8019491430011 122.72629070234957 L 580.7052026743418 122.81568444523853 L 580.6064835779748 122.90463637871657 L 580.5058017257278 122.99313760766448 L 580.4031671857019 123.08117928203309 L 580.2985902212657 123.16875259772834 L 580.1920812900285 123.25584879749167 L 580.0836510427946 123.34245917177563 L 579.9733103224984 123.428575059615 L 579.8610701631201 123.51418784949276 L 579.7469417885818 123.59928898020125 L 579.6309366116261 123.68386994169833 L 579.513066232674 123.76792227595833 L 579.3933424386651 123.85143757781786 L 579.271777201879 123.93440749581634 L 579.1483826787381 124.0168237330311 L 579.023171208592 124.09867804790713 L 578.8961553124832 124.17996225508111 L 578.7673476918957 124.26066822620008 L 578.6367612274839 124.34078789073419 L 578.5044089777857 124.42031323678374 L 578.3703041779156 124.49923631188041 L 578.234460238242 124.57754922378244 L 578.0968907430455 124.65524414126392 L 577.957609449161 124.73231329489784 L 577.816630284602 124.80874897783305 L 577.6739673471673 124.88454354656496 L 577.5296349030317 124.95968942169986 L 577.3836473853195 125.03417908871288 L 577.2360193926608 125.10800509869935 L 577.0867656877317 125.18116006911981 L 576.9359011957785 125.2536366845382 L 576.7834410031244 125.32542769735335 L 576.6294003556619 125.39652592852383 L 576.4737946573274 125.46692426828574 L 576.3166394685608 125.53661567686379 L 576.1579505047501 125.60559318517518 L 575.9977436346596 125.67384989552659 L 575.8360348788427 125.74137898230383 L 575.6728404080403 125.80817369265452 L 575.5081765415633 125.8742273471633 L 575.3420597456612 125.93953334051972 L 575.1745066318753 126.0040851421789 L 575.0055339553772 126.06787629701445 L 574.8351586132939 126.13090042596406 L 574.6633976430173 126.19315122666735 L 574.4902682205017 126.25462247409612 L 574.3157876585448 126.31530802117686 L 574.1399734050575 126.37520179940542 L 573.9628430413186 126.4342978194539 L 573.7844142802169 126.49259017176955 L 573.6047049644799 126.5500730271657 L 573.4237330648892 126.6067406374047 L 573.2415166784841 126.66258733577278 L 573.0580740267515 126.71760753764663 L 572.8734234538034 126.7717957410519 L 572.6875834245434 126.82514652721343 L 572.5005725228197 126.87765456109705 L 572.3124094495663 126.92931459194313 L 572.123113020934 126.98012145379161 L 571.9327021664079 127.03007006599869 L 571.7411959269145 127.07915543374473 L 571.5486134529186 127.12737264853389 L 571.3549740025068 127.17471688868487 L 571.1602969394628 127.22118341981309 L 570.9646017313307 127.26676759530417 L 570.7679079474683 127.31146485677856 L 570.5702352570901 127.35527073454733 L 570.3716034273002 127.39818084805923 L 570.1720323211164 127.44019090633866 L 569.9715418954827 127.4812967084148 L 569.7701521992747 127.5214941437417 L 569.5678833712942 127.56077919260933 L 569.3647556382554 127.59914792654554 L 569.1607893127624 127.63659650870889 L 568.9560047912778 127.6731211942724 L 568.7504225520829 127.70871833079792 L 568.5440631532306 127.7433843586015 L 568.3369472304886 127.77711581110921 L 568.1290954952766 127.80990931520392 L 567.920528732595 127.84176159156257 L 567.7112677989462 127.87266945498405 L 567.5013336202492 127.90262981470777 L 567.290747189747 127.93163967472273 L 567.0795295659069 127.9596961340671 L 566.8677018703156 127.98679638711833 L 566.655285285566 128.0129377238737 L 566.4423010531395 128.0381175302213 L 566.2287704712819 128.06233328820153 L 566.0147148928735 128.0855825762587 L 565.8001557232936 128.10786306948344 L 565.5851144182807 128.12917253984494 L 565.3696124817857 128.14950885641397 L 565.1536714638229 128.1688699855758 L 564.937312958314 128.18725399123366 L 564.7205586009294 128.2046590350023 L 564.5034300669241 128.22108337639182 L 564.2859490689707 128.2365253729818 L 564.0681373549877 128.2509834805854 L 563.8500167059649 128.26445625340398 L 563.6316089337854 128.27694234417146 L 563.4129358790447 128.28844050428916 L 563.1940194088656 128.29894958395062 L 562.9748814147132 128.30846853225668 L 562.7555438102039 128.31699639732042 L 562.5360285289156 128.32453232636243 L 562.3163575221934 128.3310755657961 L 562.0965527569549 128.33662546130296 L 561.8766362134935 128.34118145789805 L 561.6566298832802 128.34474309998552 L 561.4365557667649 128.34731003140413 L 561.2164358711756 128.34888199546288 L 560.9962922083184 128.34945883496667 L 560.7761467923765 128.349040492232 L 560.5560216377077 128.34762700909286 L 560.3359387566442 128.34521852689633 L 560.1159201572905 128.34181528648867 L 559.8959878413234 128.33741762819102 L 559.6761638017912 128.33202599176562 L 559.4564700209146 128.32564091637155 L 559.2369284678886 128.31826304051108 L 559.0175610966855 128.30989310196566 L 558.7983898438598 128.3005319377221 L 558.5794366263541 128.29018048388906 L 558.3607233393075 128.2788397756033 L 558.1422718538665 128.26651094692622 L 557.9241040149979 128.25319523073037 L 557.7062416393034 128.2388939585763 L 557.4887065128391 128.2236085605793 L 557.2715203889366 128.20734056526643 L 557.054704986027 128.19009159942368 L 556.8382819854701 128.17186338793326 L 556.6222730293855 128.1526577536011 L 556.406699718489 128.13247661697466 L 556.1915836099317 128.11132199615074 L 555.9769462151456 128.08919600657384 L 555.762808997691 128.0661008608245 L 555.5491933711113 128.04203886839798 L 555.3361206967912 128.0170124354735 L 555.1236122818204 127.99102406467351 L 554.9116893768636 127.96407635481341 L 554.7003731740344 127.93617200064178 L 554.4896848047772 127.90731379257072 L 554.2796453377533 127.87750461639702 L 554.0702757767342 127.84674745301346 L 553.8615970585017 127.81504537811074 L 553.6536300507538 127.78240156186993 L 553.4463955500178 127.74881926864545 L 553.239914279571 127.71430185663864 L 553.0342068873687 127.67885277756194 L 552.8292939439784 127.64247557629372 L 552.6251959405239 127.60517389052379 L 552.4219332866353 127.56695145038962 L 552.2195263084086 127.52781207810341 L 552.0179952463731 127.48775968756975 L 551.8173602534669 127.44679828399431 L 551.6176413930222 127.40493196348334 L 551.4188586367585 127.36216491263397 L 551.2210318627859 127.31850140811567 L 551.0241808536169 127.27394581624249 L 550.8283252941885 127.22850259253649 L 550.6334847698931 127.18217628128218 L 550.4396787646211 127.13497151507208 L 550.2469266588114 127.08689301434347 L 550.0552477275138 127.03794558690636 L 549.864661138462 126.9881341274627 L 549.6751859501558 126.93746361711693 L 549.4868411099563 126.88593912287786 L 549.2996454521906 126.83356579715196 L 549.1136176962683 126.78034887722818 L 548.9287764448101 126.72629368475415 L 548.7451401817871 126.67140562520409 L 548.5627272706726 126.61569018733819 L 548.3815559526056 126.55915294265382 L 548.201644344567 126.50179954482836 L 548.0230104375677 126.44363572915375 L 547.8456720948494 126.38466731196311 L 547.6696470500988 126.32490019004902 L 547.4949529056736 126.26434034007389 L 547.3216071308426 126.2029938179722 L 547.1496270600389 126.14086675834507 L 546.9790298911263 126.07796537384668 L 546.8098326836794 126.01429595456308 L 546.6420523572781 125.94986486738313 L 546.475705689815 125.88467855536184 L 546.3108093158185 125.81874353707612 L 546.1473797247884 125.75206640597281 L 545.9854332595477 125.6846538297095 L 545.8249861146079 125.61651254948762 L 545.6660543345498 125.54764937937843 L 545.508653812419 125.47807120564151 L 545.3528002881366 125.40778498603629 L 545.198509346925 125.33679774912613 L 545.0457964177498 125.2651165935756 L 544.8946767717767 125.1927486874405 L 544.7451655208445 125.11970126745113 L 544.5972776159534 125.04598163828864 L 544.4510278457709 124.97159717185448 L 544.306430835152 124.89655530653334 L 544.1635010436773 124.8208635464492 L 544.0222527642069 124.744529460715 L 543.882700121451 124.6675606826757 L 543.7448570705575 124.58996490914495 L 543.6087373957166 124.51174989963546 L 543.4743547087826 124.432923475583 L 543.341722447912 124.35349351956427 L 543.2108538762205 124.27346797450868 L 543.0817620804561 124.19285484290407 L 542.9544599696908 124.11166218599641 L 542.8289602740296 124.02989812298372 L 542.7052755433374 123.9475708302042 L 542.5834181459844 123.86468854031848 L 542.4634002676088 123.7812595414865 L 542.3452339098982 123.69729217653864 L 542.22893088939 123.61279484214138 L 542.1145028362894 123.52777598795777 L 542.0019611933062 123.44224411580237 L 541.891317214511 123.35620777879113 L 541.7825819642096 123.26967558048605 L 541.6757663158363 123.18265617403485 L 541.5708809508668 123.09515826130566 L 541.4679363577504 123.00719059201683 L 541.3669428308606 122.91876196286199 L 541.2679104694658 122.82988121663037 L 541.1708491767198 122.74055724132252 L 541.0757686586708 122.65079896926153 L 540.9826784232914 122.56061537619982 L 540.8915877795276 122.47001548042154 L 540.802505836368 122.37900834184076 L 540.7154415019324 122.28760306109551 L 540.6304034825821 122.19580877863768 L 540.5474002820478 122.10363467381903 L 540.4664402005803 122.01108996397322 L 540.3875313341208 121.91818390349414 L 540.3106815734897 121.82492578291038 L 540.2358986035993 121.73132492795632 L 540.163189902684 121.63739069863944 L 540.0925627415536 121.54313248830438 L 540.0240241828652 121.44855972269364 L 539.9575810804176 121.35368185900496 L 539.8932400784656 121.25850838494567 L 539.8310076110558 121.16304881778383 L 539.7708899013833 121.06731270339662 L 539.7128929611686 120.97130961531572 L 539.6570225900576 120.87504915376991 L 539.603284375041 120.77854094472514 L 539.5516836898951 120.68179463892189 L 539.5022256946457 120.5848199109101 L 539.4549153350513 120.48762645808178 L 539.4097573421079 120.39022399970122 L 539.3667562315777 120.29262227593307 L 539.3259163035356 120.1948310468684 L 539.2872416419405 120.0968600915486 L 539.2507361142261 119.99871920698757 L 539.2164033709151 119.90041820719199 L 539.1842468452531 119.80196692217991 L 539.1542697528657 119.7033751969978 L 539.1264750914374 119.604652890736 L 539.100865640411 119.50580987554288 L 539.0774439607104 119.40685603563759 L 539.056212394484 119.30780126632166 L 539.0371730648706 119.20865547298948 L 539.0203278757874 119.10942857013775 L 539.0056785117393 119.01013048037407 L 538.9932264376505 118.91077113342469 L 538.982972898718 118.81136046514148 L 538.9749189202871 118.71190841650842 L 538.9690653077491 118.61242493264753 L 538.9654126464602 118.51291996182425 L 538.9639613016835 118.41340345445279 L 538.9647114185524 118.31388536210092 L 538.9676629220558 118.21437563649496 L 538.9728155170455 118.11488422852455 L 538.9801686882669 118.01542108724756 L 538.9897217004084 117.91599615889524 L 539.0014735981771 117.81661938587759 L 539.0154232063929 117.71730070578906 L 539.0315691301067 117.61805005041494 L 539.0499097547395 117.51887734473802 L 539.070443246244 117.41979250594623 L 539.0931675512885 117.3208054424409 L 539.1180803974611 117.22192605284587 L 539.1451792934981 117.12316422501772 L 539.1744615295324 117.02452983505692 L 539.2059241773649 116.92603274632027 L 539.239564090757 116.82768280843456 L 539.2753779057452 116.72948985631163 L 539.3133620409783 116.63146370916486 L 539.3535126980739 116.53361416952727 L 539.3958258620002 116.4359510222713 L 539.4402973014758 116.33848403363028 L 539.4869225693939 116.24122295022184 L 539.5356970032665 116.14417749807329 L 539.5866157256909 116.04735738164896 L 539.6396736448372 115.95077228287983 L 539.694865454958 115.85443186019525 L 539.7521856369178 115.75834574755724 L 539.8116284587467 115.66252355349698 L 539.8731879762116 115.56697486015403 L 539.9368580334124 115.47170922231811 L 540.0026322633962 115.37673616647359 L 540.070504088795 115.28206518984692 L 540.1404667224826 115.18770575945688 L 540.2125131682541 115.09366731116786 L 540.286636221525 114.99995924874634 L 540.3628284700515 114.90659094292047 L 540.4410822946725 114.81357173044302 L 540.5213898700706 114.72091091315772 L 540.6037431655552 114.6286177570691 L 540.6881339458655 114.53670149141583 L 540.7745537719936 114.44517130774788 L 540.862994002029 114.35403635900738 L 540.9534457920225 114.26330575861321 L 541.0459000968704 114.17298857954984 L 541.1403476712192 114.0830938534599 L 541.2367790703902 113.99363056974107 L 541.3351846513237 113.9046076746472 L 541.435554573544 113.81603407039357 L 541.5378788001422 113.72791861426684 L 541.6421470987809 113.64027011773916 L 541.7483490427173 113.55309734558716 L 541.8564740118454 113.46640901501542 L 541.9665111937585 113.38021379478474 L 542.07844958483 113.29452030434531 L 542.1922779913141 113.20933711297478 L 542.3079850304649 113.12467273892129 L 542.4255591316751 113.0405356485517 L 542.5449885376324 112.95693425550492 L 542.6662613054959 112.8738769198506 L 542.7893653080897 112.79137194725308 L 542.9142882351163 112.70942758814088 L 543.0410175943869 112.62805203688163 L 543.1695407130712 112.54725343096261 L 543.2998447389647 112.4670398501771 L 543.4319166417731 112.38741931581635 L 543.5657432144163 112.30839978986741 L 543.7013110743486 112.22998917421705 L 543.8386066648969 112.1521953098615 L 543.9776162566166 112.07502597612235 L 544.1183259486643 111.99848888986867 L 544.2607216701881 111.9225917047453 L 544.4047891817346 111.84734201040753 L 544.5505140766725 111.77274733176205 L 544.697881782634 111.69881512821459 L 544.846877562971 111.62555279292388 L 544.99748651823 111.5529676520624 L 545.1496935876406 111.48106696408377 L 545.303483550623 111.40985791899683 L 545.4588410283089 111.33934763764678 L 545.6157504850801 111.269543171003 L 545.7741962301214 111.20045149945395 L 545.9341624189907 111.13207953210923 L 546.0956330552023 111.0644341061086 L 546.2585919918271 110.99752198593829 L 546.4230229331072 110.93134986275456 L 546.5889094360855 110.86592435371458 L 546.75623491225 110.80125200131471 L 546.9249826291925 110.73733927273634 L 547.095135712282 110.67419255919904 L 547.2666771463518 110.61181817532155 L 547.4395897774016 110.55022235849026 L 547.6138563143123 110.48941126823556 L 547.7894593305756 110.42939098561577 L 547.9663812660359 110.37016751260914 L 548.1446044286474 110.31174677151364 L 548.3241109962422 110.25413460435468 L 548.5048830183132 110.19733677230094 L 548.6869024178087 110.14135895508834 L 548.8701509929406 110.08620675045192 L 549.054610419004 110.03188567356621 L 549.24026225021 109.9784011564936 L 549.4270879215303 109.92575854764125 L 549.6150687505533 109.87396311122617 L 549.8041859393528 109.82302002674884 L 549.9944205763676 109.77293438847525 L 550.1857536382925 109.7237112049275 L 550.3781659919806 109.67535539838292 L 550.571638396357 109.62787180438187 L 550.7661515043425 109.58126517124417 L 550.9616858647884 109.5355401595943 L 551.1582219244216 109.49070134189533 L 551.3557400297999 109.44675320199167 L 551.5542204292773 109.40370013466065 L 551.7536432749793 109.36154644517318 L 551.9539886247875 109.32029634886302 L 552.1552364443339 109.27995397070549 L 552.3573666090043 109.24052334490473 L 552.5603589059506 109.2020084144905 L 552.7641930361123 109.16441303092373 L 552.9688486162461 109.12774095371145 L 553.1743051809648 109.09199585003081 L 553.3805421847829 109.05718129436242 L 553.5875390041721 109.0233007681328 L 553.7952749396227 108.99035765936637 L 554.0037292177145 108.95835526234653 L 554.2128809931933 108.92729677728633 L 554.4227093510558 108.89718531000838 L 554.6331933086412 108.86802387163432 L 554.844311817729 108.83981537828369 L 555.0560437666444 108.81256265078231 L 555.2683679823688 108.78626841438025 L 555.4812632326575 108.76093529847918 L 555.6947082281631 108.73656583636964 L 555.9086816245638 108.7131624649775 L 556.1231620246982 108.6907275246204 L 556.3381279807052 108.66926325877368 L 556.5535579961681 108.64877181384605 L 556.7694305282652 108.62925523896492 L 556.9857239899228 108.61071548577151 L 557.2024167519753 108.59315440822569 L 557.4194871453269 108.57657376242057 L 557.6369134631193 108.56097520640694 L 557.8546739629018 108.54636030002737 L 558.0727468688058 108.53273050476037 L 558.2911103737225 108.52008718357405 L 558.5097426414835 108.50843160079002 L 558.7286218090442 108.49776492195684 L 558.9477259886701 108.48808821373352 L 559.1670332701259 108.4794024437828 L 559.3865217228662 108.47170848067445 L 559.6061693982286 108.46500709379835 L 559.8259543316287 108.45929895328763 L 560.0458545447563 108.45458462995155 L 560.2658480477731 108.45086459521856 L 560.4859128415126 108.448139221089 L 560.7060269196784 108.44640878009801 L 560.9261682710462 108.44567344528826 L 561.1463148816644 108.44593329019261 L 561.3664447370553 108.44718828882681 L 561.5865358244168 108.44943831569202 L 561.8065661348238 108.45268314578742 L 562.0265136654283 108.45692245463273 L 562.2463564216607 108.46215581830057 L 562.4660724194287 108.46838271345896 L 562.6856396873153 108.47560251742357 L 562.9050362687768 108.48381450822 L 563.1242402243381 108.49301786465603 L 563.343229633786 108.50321166640367 L 563.5619825983623 108.51439489409127 L 563.7804772429527 108.52656642940536 L 563.9986917182748 108.53972505520255 L 564.2166042030631 108.55386945563123 L 564.4341929062505 108.56899821626314 L 564.651436069148 108.58510982423483 L 564.8683119676205 108.60220266839895 L 565.0847989142587 108.62027503948528 L 565.3008752605487 108.6393251302718 L 565.5165193990355 108.6593510357653 L 565.7317097654851 108.68035075339193 L 565.9464248410403 108.70232218319741 L 566.1606431543723 108.7252631280571 L 566.3743432838285 108.74917129389559 L 566.5875038595739 108.77404428991623 L 566.8001035657285 108.79987962884016 L 567.0121211424989 108.82667472715502 L 567.2235353883042 108.8544269053733 L 567.4343251618958 108.8831333883003 L 567.6444693844722 108.91279130531164 L 567.8539470417862 108.94339769064037 L 568.0627371862466 108.97494948367343 L 568.2708189390129 109.00744352925781 L 568.4781714920833 109.04087657801604 L 568.6847741103753 109.0752452866711 L 568.8906061337992 109.11054621838079 L 569.0956469793242 109.14677584308131 L 569.2998761430366 109.18393053784042 L 569.5032732021903 109.2220065872196 L 569.7058178172487 109.26100018364562 L 569.9074897339192 109.30090742779134 L 570.1082687851782 109.34172432896563 L 570.3081348932878 109.38344680551235 L 570.5070680718039 109.42607068521863 L 570.7050484275743 109.46959170573203 L 570.9020561627285 109.51400551498674 L 571.098071576657 109.55930767163885 L 571.2930750679819 109.60549364551046 L 571.4870471365166 109.65255881804268 L 571.6799683852157 109.70049848275747 L 571.8718195221153 109.74930784572828 L 572.0625813622614 109.79898202605952 L 572.2522348296291 109.84951605637454 L 572.4407609590296 109.90090488331242 L 572.6281408980072 109.9531433680333 L 572.814355908724 110.00622628673223 L 572.9993873698343 110.06014833116157 L 573.1832167783459 110.11490410916183 L 573.3658257514714 110.17048814520082 L 573.5471960284656 110.22689488092126 L 573.7273094724518 110.2841186756966 L 573.9061480722359 110.34215380719503 L 574.0836939441067 110.40099447195178 L 574.2599293336252 110.46063478594938 L 574.4348366173992 110.52106878520617 L 574.6083983048462 110.58229042637255 L 574.780597039942 110.64429358733544 L 574.9514156029566 110.7070720678304 L 575.1208369121758 110.77061959006171 L 575.2888440256104 110.8349297993301 L 575.4554201426886 110.89999626466822 L 575.6205486059376 110.96581247948379 L 575.7842129026488 111.03237186221013 L 575.9463966665289 111.09966775696446 L 576.1070836793366 111.1676934342134 L 576.2662578725045 111.2364420914459 L 576.4239033287461 111.3059068538535 L 576.580004283647 111.37608077501788 L 576.7345451272417 111.44695683760538 L 576.8875104055749 111.51852795406883 L 577.0388848222459 111.59078696735621 L 577.1886532399394 111.6637266516264 L 577.3368006819385 111.73733971297176 L 577.4833123336223 111.81161879014752 L 577.6281735439477 111.88655645530783 L 577.7713698269145 111.96214521474865 L 577.9128868630137 112.038377509657 L 578.0527105006596 112.11524571686692 L 578.190826757605 112.19274214962178 L 578.3272218223392 112.27085905834284 L 578.4618820554696 112.34958863140434 L 578.5947939910848 112.4289229959146 L 578.7259443381022 112.50885421850326 L 578.8553199815964 112.58937430611468 L 578.9829079841107 112.6704752068072 L 579.1086955869514 112.75214881055831 L 579.232670211463 112.83438695007574 L 579.3548194602861 112.91718140161403 L 579.4751311185979 113.00052388579704 L 579.5935931553327 113.0844060684458 L 579.7101937243855 113.16881956141195 L 579.8249211657967 113.25375592341653 L 579.9377640069176 113.33920666089413 L 580.0487109635583 113.42516322884221 L 580.1577509411154 113.5116170316756 L 580.2648730356823 113.59855942408605 L 580.3700665351384 113.68598171190679 L 580.4733209202218 113.77387515298189 L 580.5746258655798 113.86223095804047 L 580.6739712408024 113.95104029157567 L 580.7713471114349 114.04029427272812 L 580.8667437399712 114.12998397617412 L 580.9601515868281 114.22010043301803 L 581.0515613112988 114.3106346316893 L 581.1409637724868 114.40157751884347 L 581.2283500302207 114.49292000026763 L 581.3137113459474 114.58465294178976 L 581.3970391836065 114.67676717019214 L 581.4783252104837 114.76925347412869 L 581.5575612980442 114.86210260504609 L 581.634739522745 114.95530527810864 L 581.7098521668281 115.04885217312668 L 581.7828917190917 115.14273393548868 L 581.8538508756413 115.23694117709663 L 581.9227225406206 115.33146447730486 L 581.9894998269203 115.42629438386214 L 582.0541760568675 115.52142141385684 L 582.1167447628931 115.61683605466523 L 582.1771996881786 115.71252876490273 L 582.2355347872818 115.80848997537807 L 582.2917442267417 115.90471009005016 L 582.3458223856608 116.00117948698772 L 582.3977638562685 116.09788851933145 L 582.4475634444609 116.19482751625871 L 582.4952161703209 116.29198678395059 L 582.5407172686154 116.38935660656128 L 582.5840621892725 116.48692724718966 L 582.6252465978363 116.58468894885297 L 582.6642663759004 116.68263193546252 L 582.7011176215193 116.78074641280128 L 582.7357966495993 116.87902256950326 L 582.7682999922664 116.97745057803469 L 582.7986243992135 117.07602059567674 L 582.826766838025 117.1747227655098 L 582.8527244944808 117.27354721739911 L 582.8764947728365 117.37248406898186 L 582.8980752960844 117.47152342665532 L 582.9174639061899 117.57065538656629 L 582.9346586643082 117.66987003560133 L 582.949657850978 117.76915745237828 L 582.9624599662931 117.86850770823816 L 582.9730637300524 117.96791086823818 L 582.9814680818886 118.06735699214518 L 582.9876721813733 118.16683613542965 L 582.991675408102 118.26633835026014 L 582.993477361755 118.36585368649811 M 582.9935890448837 150.0627168384 L 582.9924883126649 150.1622342644769 L 582.9891862260808 150.2617417388941 L 582.9836831153374 150.3612293109871 L 582.9759795307411 150.4606870320816 L 582.966076242644 150.5601049564884 L 582.9539742413666 150.65947314249786 L 582.939674737099 150.7587816533742 L 582.9231791597797 150.8580205583491 L 582.9044891589526 150.95717993361475 L 582.8836066036023 151.05624986331628 L 582.8605335819669 151.15522044054325 L 582.8352724013293 151.25408176832042 L 582.8078255877866 151.3528239605974 L 582.7781958859972 151.45143714323726 L 582.7463862589067 151.54991145500387 L 582.7123998874512 151.64823704854817 L 582.6762401702396 151.74640409139272 L 582.6379107232133 151.844402766915 L 582.5974153792853 151.9422232753292 L 582.554758187956 152.03985583466596 L 582.5099434149092 152.13729068175067 L 582.4629755415849 152.23451807317988 L 582.4138592647312 152.33152828629542 L 582.3625994959347 152.42831162015685 L 582.3092013611297 152.52485839651143 L 582.2536702000853 152.621158960762 L 582.1960115658711 152.7172036829323 L 582.1362312243026 152.81298295863027 L 582.0743351533641 152.90848721000808 L 582.0103295426112 153.00370688672018 L 581.9442207925516 153.09863246687829 L 581.8760155140052 153.19325445800345 L 581.8057205274429 153.28756339797545 L 581.733342862305 153.38154985597882 L 581.6588897562975 153.47520443344615 L 581.582368654669 153.5685177649977 L 581.503787209466 153.66148051937805 L 581.4231532787676 153.75408340038928 L 581.3404749258995 153.84631714782046 L 581.255760418628 153.93817253837366 L 581.1690182283335 154.0296403865864 L 581.0802570291625 154.1207115457501 L 580.9894856971611 154.21137690882472 L 580.8967133093868 154.30162740934946 L 580.8019491430011 154.39145402234956 L 580.7052026743418 154.48084776523854 L 580.6064835779748 154.56979969871657 L 580.5058017257278 154.65830092766447 L 580.4031671857019 154.74634260203308 L 580.2985902212657 154.83391591772835 L 580.1920812900285 154.92101211749164 L 580.0836510427946 155.00762249177563 L 579.9733103224984 155.093738379615 L 579.8610701631201 155.17935116949275 L 579.7469417885818 155.26445230020124 L 579.6309366116261 155.3490332616983 L 579.513066232674 155.43308559595832 L 579.3933424386651 155.51660089781785 L 579.271777201879 155.59957081581632 L 579.1483826787381 155.6819870530311 L 579.023171208592 155.7638413679071 L 578.8961553124832 155.84512557508108 L 578.7673476918957 155.92583154620007 L 578.6367612274839 156.00595121073417 L 578.5044089777857 156.08547655678373 L 578.3703041779156 156.1643996318804 L 578.234460238242 156.24271254378243 L 578.0968907430455 156.3204074612639 L 577.957609449161 156.3974766148978 L 577.816630284602 156.47391229783304 L 577.6739673471673 156.54970686656495 L 577.5296349030317 156.62485274169987 L 577.3836473853195 156.69934240871285 L 577.2360193926608 156.77316841869933 L 577.0867656877317 156.84632338911982 L 576.9359011957785 156.91880000453818 L 576.7834410031244 156.99059101735335 L 576.6294003556619 157.0616892485238 L 576.4737946573274 157.1320875882857 L 576.3166394685608 157.20177899686377 L 576.1579505047501 157.27075650517517 L 575.9977436346596 157.33901321552656 L 575.8360348788427 157.40654230230382 L 575.6728404080403 157.47333701265453 L 575.5081765415633 157.53939066716327 L 575.3420597456612 157.60469666051972 L 575.1745066318753 157.6692484621789 L 575.0055339553772 157.73303961701444 L 574.8351586132939 157.79606374596406 L 574.6633976430173 157.85831454666734 L 574.4902682205017 157.9197857940961 L 574.3157876585448 157.98047134117684 L 574.1399734050575 158.0403651194054 L 573.9628430413186 158.0994611394539 L 573.7844142802169 158.15775349176954 L 573.6047049644799 158.21523634716567 L 573.4237330648892 158.2719039574047 L 573.2415166784841 158.32775065577277 L 573.0580740267515 158.38277085764662 L 572.8734234538034 158.4369590610519 L 572.6875834245434 158.49030984721344 L 572.5005725228197 158.54281788109705 L 572.3124094495663 158.5944779119431 L 572.123113020934 158.64528477379162 L 571.9327021664079 158.69523338599868 L 571.7411959269145 158.74431875374472 L 571.5486134529186 158.79253596853388 L 571.3549740025068 158.83988020868486 L 571.1602969394628 158.8863467398131 L 570.9646017313307 158.93193091530418 L 570.7679079474683 158.97662817677855 L 570.5702352570901 159.0204340545473 L 570.3716034273002 159.06334416805922 L 570.1720323211164 159.10535422633865 L 569.9715418954827 159.1464600284148 L 569.7701521992747 159.1866574637417 L 569.5678833712942 159.22594251260932 L 569.3647556382554 159.26431124654553 L 569.1607893127624 159.3017598287089 L 568.9560047912778 159.3382845142724 L 568.7504225520829 159.37388165079793 L 568.5440631532306 159.40854767860148 L 568.3369472304886 159.44227913110922 L 568.1290954952766 159.47507263520393 L 567.920528732595 159.50692491156258 L 567.7112677989462 159.53783277498405 L 567.5013336202492 159.56779313470776 L 567.290747189747 159.5968029947227 L 567.0795295659069 159.6248594540671 L 566.8677018703156 159.65195970711832 L 566.655285285566 159.67810104387368 L 566.4423010531395 159.7032808502213 L 566.2287704712819 159.7274966082015 L 566.0147148928735 159.7507458962587 L 565.8001557232936 159.77302638948342 L 565.5851144182807 159.79433585984495 L 565.3696124817857 159.81467217641398 L 565.1536714638229 159.83403330557582 L 564.937312958314 159.85241731123367 L 564.7205586009294 159.86982235500227 L 564.5034300669241 159.8862466963918 L 564.2859490689707 159.90168869298176 L 564.0681373549877 159.9161468005854 L 563.8500167059649 159.92961957340398 L 563.6316089337854 159.94210566417144 L 563.4129358790447 159.95360382428913 L 563.1940194088656 159.96411290395062 L 562.9748814147132 159.97363185225666 L 562.7555438102039 159.9821597173204 L 562.5360285289156 159.98969564636243 L 562.3163575221934 159.99623888579612 L 562.0965527569549 160.00178878130296 L 561.8766362134935 160.00634477789805 L 561.6566298832802 160.0099064199855 L 561.4365557667649 160.0124733514041 L 561.2164358711756 160.01404531546285 L 560.9962922083184 160.01462215496664 L 560.7761467923765 160.014203812232 L 560.5560216377077 160.01279032909284 L 560.3359387566442 160.01038184689634 L 560.1159201572905 160.00697860648864 L 559.8959878413234 160.00258094819102 L 559.6761638017912 159.9971893117656 L 559.4564700209146 159.99080423637156 L 559.2369284678886 159.9834263605111 L 559.0175610966855 159.97505642196563 L 558.7983898438598 159.96569525772207 L 558.5794366263541 159.95534380388904 L 558.3607233393075 159.9440030956033 L 558.1422718538665 159.9316742669262 L 557.9241040149979 159.91835855073037 L 557.7062416393034 159.9040572785763 L 557.4887065128391 159.8887718805793 L 557.2715203889366 159.87250388526644 L 557.054704986027 159.8552549194237 L 556.8382819854701 159.83702670793323 L 556.6222730293855 159.8178210736011 L 556.406699718489 159.79763993697463 L 556.1915836099317 159.77648531615074 L 555.9769462151456 159.75435932657385 L 555.762808997691 159.73126418082447 L 555.5491933711113 159.70720218839796 L 555.3361206967912 159.68217575547348 L 555.1236122818204 159.6561873846735 L 554.9116893768636 159.62923967481342 L 554.7003731740344 159.60133532064177 L 554.4896848047772 159.5724771125707 L 554.2796453377533 159.542667936397 L 554.0702757767342 159.51191077301345 L 553.8615970585017 159.48020869811072 L 553.6536300507538 159.4475648818699 L 553.4463955500178 159.41398258864544 L 553.239914279571 159.37946517663863 L 553.0342068873687 159.34401609756193 L 552.8292939439784 159.30763889629372 L 552.6251959405239 159.2703372105238 L 552.4219332866353 159.23211477038961 L 552.2195263084086 159.1929753981034 L 552.0179952463731 159.15292300756974 L 551.8173602534669 159.1119616039943 L 551.6176413930222 159.0700952834833 L 551.4188586367585 159.02732823263395 L 551.2210318627859 158.98366472811566 L 551.0241808536169 158.93910913624248 L 550.8283252941885 158.89366591253648 L 550.6334847698931 158.8473396012822 L 550.4396787646211 158.80013483507207 L 550.2469266588114 158.75205633434348 L 550.0552477275138 158.70310890690635 L 549.864661138462 158.6532974474627 L 549.6751859501558 158.60262693711692 L 549.4868411099563 158.55110244287783 L 549.2996454521906 158.49872911715195 L 549.1136176962683 158.44551219722817 L 548.9287764448101 158.39145700475413 L 548.7451401817871 158.33656894520408 L 548.5627272706726 158.28085350733818 L 548.3815559526056 158.22431626265382 L 548.201644344567 158.16696286482835 L 548.0230104375677 158.10879904915373 L 547.8456720948494 158.04983063196312 L 547.6696470500988 157.99006351004903 L 547.4949529056736 157.92950366007386 L 547.3216071308426 157.8681571379722 L 547.1496270600389 157.80603007834506 L 546.9790298911263 157.74312869384667 L 546.8098326836794 157.67945927456307 L 546.6420523572781 157.6150281873831 L 546.475705689815 157.54984187536184 L 546.3108093158185 157.4839068570761 L 546.1473797247884 157.41722972597282 L 545.9854332595477 157.3498171497095 L 545.8249861146079 157.28167586948763 L 545.6660543345498 157.21281269937842 L 545.508653812419 157.1432345256415 L 545.3528002881366 157.07294830603627 L 545.198509346925 157.00196106912614 L 545.0457964177498 156.9302799135756 L 544.8946767717767 156.8579120074405 L 544.7451655208445 156.78486458745112 L 544.5972776159534 156.71114495828863 L 544.4510278457709 156.6367604918545 L 544.306430835152 156.56171862653335 L 544.1635010436773 156.4860268664492 L 544.0222527642069 156.409692780715 L 543.882700121451 156.3327240026757 L 543.7448570705575 156.25512822914496 L 543.6087373957166 156.17691321963545 L 543.4743547087826 156.098086795583 L 543.341722447912 156.01865683956424 L 543.2108538762205 155.93863129450867 L 543.0817620804561 155.85801816290407 L 542.9544599696908 155.7768255059964 L 542.8289602740296 155.69506144298373 L 542.7052755433374 155.61273415020418 L 542.5834181459844 155.52985186031847 L 542.4634002676088 155.4464228614865 L 542.3452339098982 155.36245549653862 L 542.22893088939 155.27795816214137 L 542.1145028362894 155.19293930795774 L 542.0019611933062 155.10740743580237 L 541.891317214511 155.02137109879112 L 541.7825819642096 154.93483890048603 L 541.6757663158363 154.84781949403484 L 541.5708809508668 154.76032158130565 L 541.4679363577504 154.67235391201683 L 541.3669428308606 154.58392528286197 L 541.2679104694658 154.49504453663036 L 541.1708491767198 154.4057205613225 L 541.0757686586708 154.31596228926153 L 540.9826784232914 154.22577869619982 L 540.8915877795276 154.13517880042153 L 540.802505836368 154.04417166184075 L 540.7154415019324 153.9527663810955 L 540.6304034825821 153.86097209863766 L 540.5474002820478 153.76879799381902 L 540.4664402005803 153.6762532839732 L 540.3875313341208 153.58334722349412 L 540.3106815734897 153.4900891029104 L 540.2358986035993 153.3964882479563 L 540.163189902684 153.30255401863943 L 540.0925627415536 153.20829580830437 L 540.0240241828652 153.11372304269364 L 539.9575810804176 153.01884517900496 L 539.8932400784656 152.92367170494566 L 539.8310076110558 152.82821213778382 L 539.7708899013833 152.73247602339663 L 539.7128929611686 152.6364729353157 L 539.6570225900576 152.5402124737699 L 539.603284375041 152.44370426472514 L 539.5516836898951 152.34695795892188 L 539.5022256946457 152.2499832309101 L 539.4549153350513 152.15278977808177 L 539.4097573421079 152.0553873197012 L 539.3667562315777 151.95778559593307 L 539.3259163035356 151.8599943668684 L 539.2872416419405 151.7620234115486 L 539.2507361142261 151.66388252698758 L 539.2164033709151 151.565581527192 L 539.1842468452531 151.4671302421799 L 539.1542697528657 151.36853851699777 L 539.1264750914374 151.269816210736 L 539.100865640411 151.17097319554287 L 539.0774439607104 151.0720193556376 L 539.056212394484 150.97296458632167 L 539.0371730648706 150.87381879298948 L 539.0203278757874 150.77459189013774 L 539.0056785117393 150.67529380037408 L 538.9932264376505 150.57593445342468 L 538.982972898718 150.47652378514147 L 538.9749189202871 150.3770717365084 L 538.9690653077491 150.27758825264752 L 538.9654126464602 150.17808328182426 L 538.9639613016835 150.07856677445278" stroke-miterlimit="10" stroke-width="2.5633703640000003" stroke-dasharray=""/></g><g><text fill="black" stroke="none" font-family="sans-serif" font-size="11pt" font-style="normal" font-weight="normal" text-decoration="normal" x="521.6287627387626" y="176.19401590200002" text-anchor="start" dominant-baseline="alphabetic" xml:space="preserve">UCloud DB</text></g><path fill="none" stroke="none"/><g><path fill="white" stroke="black" paint-order="fill stroke markers" d=" M 667.4876155050047 140.15604431400004 L 839.1249560219344 140.15604431400004 L 839.1249560219344 180.71761066200003 L 667.4876155050047 180.71761066200003 L 667.4876155050047 140.15604431400004 Z" stroke-miterlimit="10" stroke-width="2.4125838720000004" stroke-dasharray=""/></g><g><text fill="black" stroke="none" font-family="sans-serif" font-size="11pt" font-style="normal" font-weight="normal" text-decoration="normal" x="683.8479498870047" y="165.63896146200003" text-anchor="start" dominant-baseline="alphabetic" xml:space="preserve">Integration Module</text></g><g><path fill="white" stroke="black" paint-order="fill stroke markers" d=" M 892.5798383314695 151.16345823 L 892.5798383314695 119.49829491000001 L 936.6094939954696 119.49829491000001 L 936.6094939954696 151.16345823" stroke-miterlimit="10" stroke-width="2.5633703640000003" stroke-dasharray=""/><path fill="white" stroke="black" paint-order="fill stroke markers" d=" M 936.6094939954696 118.39755351840002 L 936.6083932632508 118.4970709444769 L 936.6050911766667 118.5965784188941 L 936.5995880659233 118.69606599098711 L 936.591884481327 118.79552371208162 L 936.5819811932299 118.8949416364884 L 936.5698791919525 118.99430982249787 L 936.5555796876849 119.09361833337421 L 936.5390841103656 119.19285723834912 L 936.5203941095385 119.29201661361478 L 936.4995115541882 119.39108654331629 L 936.4764385325528 119.49005712054326 L 936.4511773519152 119.58891844832043 L 936.4237305383725 119.68766064059741 L 936.3941008365831 119.78627382323727 L 936.3622912094926 119.88474813500389 L 936.3283048380371 119.98307372854818 L 936.2921451208255 120.08124077139271 L 936.2538156737992 120.17923944691502 L 936.2133203298712 120.27705995532921 L 936.170663138542 120.37469251466595 L 936.1258483654951 120.4721273617507 L 936.0788804921708 120.5693547531799 L 936.0297642153171 120.66636496629543 L 935.9785044465206 120.76314830015687 L 935.9251063117156 120.85969507651144 L 935.8695751506712 120.955995640762 L 935.811916516457 121.05204036293233 L 935.7521361748885 121.14781963863028 L 935.69024010395 121.24332389000809 L 935.6262344931971 121.33854356672019 L 935.5601257431375 121.4334691468783 L 935.4919204645911 121.52809113800346 L 935.4216254780288 121.62240007797544 L 935.3492478128909 121.71638653597883 L 935.2747947068834 121.81004111344615 L 935.1982736052549 121.90335444499769 L 935.119692160052 121.99631719937807 L 935.0390582293535 122.0889200803893 L 934.9563798764854 122.18115382782047 L 934.8716653692139 122.27300921837367 L 934.7849231789194 122.36447706658642 L 934.6961619797484 122.4555482257501 L 934.605390647747 122.54621358882471 L 934.5126182599727 122.63646408934949 L 934.417854093587 122.72629070234957 L 934.3211076249277 122.81568444523853 L 934.2223885285607 122.90463637871657 L 934.1217066763137 122.99313760766448 L 934.0190721362878 123.08117928203309 L 933.9144951718516 123.16875259772834 L 933.8079862406144 123.25584879749167 L 933.6995559933805 123.34245917177563 L 933.5892152730843 123.428575059615 L 933.476975113706 123.51418784949276 L 933.3628467391677 123.59928898020125 L 933.246841562212 123.68386994169833 L 933.1289711832599 123.76792227595833 L 933.009247389251 123.85143757781786 L 932.8876821524649 123.93440749581634 L 932.764287629324 124.0168237330311 L 932.6390761591779 124.09867804790713 L 932.5120602630691 124.17996225508111 L 932.3832526424816 124.26066822620008 L 932.2526661780698 124.34078789073419 L 932.1203139283716 124.42031323678374 L 931.9862091285015 124.49923631188041 L 931.8503651888279 124.57754922378244 L 931.7127956936314 124.65524414126392 L 931.573514399747 124.73231329489784 L 931.4325352351879 124.80874897783305 L 931.2898722977532 124.88454354656496 L 931.1455398536176 124.95968942169986 L 930.9995523359054 125.03417908871288 L 930.8519243432467 125.10800509869935 L 930.7026706383176 125.18116006911981 L 930.5518061463644 125.2536366845382 L 930.3993459537103 125.32542769735335 L 930.2453053062478 125.39652592852383 L 930.0896996079133 125.46692426828574 L 929.9325444191467 125.53661567686379 L 929.773855455336 125.60559318517518 L 929.6136485852455 125.67384989552659 L 929.4519398294286 125.74137898230383 L 929.2887453586262 125.80817369265452 L 929.1240814921492 125.8742273471633 L 928.9579646962471 125.93953334051972 L 928.7904115824612 126.0040851421789 L 928.6214389059631 126.06787629701445 L 928.4510635638798 126.13090042596406 L 928.2793025936032 126.19315122666735 L 928.1061731710876 126.25462247409612 L 927.9316926091307 126.31530802117686 L 927.7558783556434 126.37520179940542 L 927.5787479919045 126.4342978194539 L 927.4003192308028 126.49259017176955 L 927.2206099150658 126.5500730271657 L 927.0396380154751 126.6067406374047 L 926.85742162907 126.66258733577278 L 926.6739789773374 126.71760753764663 L 926.4893284043893 126.7717957410519 L 926.3034883751293 126.82514652721343 L 926.1164774734056 126.87765456109705 L 925.9283144001522 126.92931459194313 L 925.73901797152 126.98012145379161 L 925.5486071169938 127.03007006599869 L 925.3571008775004 127.07915543374473 L 925.1645184035045 127.12737264853389 L 924.9708789530927 127.17471688868487 L 924.7762018900487 127.22118341981309 L 924.5805066819166 127.26676759530417 L 924.3838128980542 127.31146485677856 L 924.186140207676 127.35527073454733 L 923.9875083778861 127.39818084805923 L 923.7879372717023 127.44019090633866 L 923.5874468460686 127.4812967084148 L 923.3860571498606 127.5214941437417 L 923.1837883218801 127.56077919260933 L 922.9806605888413 127.59914792654554 L 922.7766942633483 127.63659650870889 L 922.5719097418637 127.6731211942724 L 922.3663275026688 127.70871833079792 L 922.1599681038165 127.7433843586015 L 921.9528521810745 127.77711581110921 L 921.7450004458625 127.80990931520392 L 921.5364336831809 127.84176159156257 L 921.3271727495321 127.87266945498405 L 921.1172385708351 127.90262981470777 L 920.9066521403329 127.93163967472273 L 920.6954345164928 127.9596961340671 L 920.4836068209015 127.98679638711833 L 920.2711902361519 128.0129377238737 L 920.0582060037254 128.0381175302213 L 919.8446754218678 128.06233328820153 L 919.6306198434594 128.0855825762587 L 919.4160606738795 128.10786306948344 L 919.2010193688666 128.12917253984494 L 918.9855174323716 128.14950885641397 L 918.7695764144088 128.1688699855758 L 918.5532179088999 128.18725399123366 L 918.3364635515153 128.2046590350023 L 918.11933501751 128.22108337639182 L 917.9018540195566 128.2365253729818 L 917.6840423055736 128.2509834805854 L 917.4659216565508 128.26445625340398 L 917.2475138843713 128.27694234417146 L 917.0288408296306 128.28844050428916 L 916.8099243594515 128.29894958395062 L 916.5907863652991 128.30846853225668 L 916.3714487607898 128.31699639732042 L 916.1519334795015 128.32453232636243 L 915.9322624727793 128.3310755657961 L 915.7124577075408 128.33662546130296 L 915.4925411640794 128.34118145789805 L 915.2725348338661 128.34474309998552 L 915.0524607173508 128.34731003140413 L 914.8323408217615 128.34888199546288 L 914.6121971589043 128.34945883496667 L 914.3920517429624 128.349040492232 L 914.1719265882936 128.34762700909286 L 913.9518437072301 128.34521852689633 L 913.7318251078764 128.34181528648867 L 913.5118927919093 128.33741762819102 L 913.2920687523771 128.33202599176562 L 913.0723749715005 128.32564091637155 L 912.8528334184745 128.31826304051108 L 912.6334660472714 128.30989310196566 L 912.4142947944457 128.3005319377221 L 912.19534157694 128.29018048388906 L 911.9766282898934 128.2788397756033 L 911.7581768044524 128.26651094692622 L 911.5400089655838 128.25319523073037 L 911.3221465898893 128.2388939585763 L 911.104611463425 128.2236085605793 L 910.8874253395225 128.20734056526643 L 910.6706099366129 128.19009159942368 L 910.454186936056 128.17186338793326 L 910.2381779799714 128.1526577536011 L 910.0226046690749 128.13247661697466 L 909.8074885605176 128.11132199615074 L 909.5928511657315 128.08919600657384 L 909.3787139482769 128.0661008608245 L 909.1650983216972 128.04203886839798 L 908.9520256473771 128.0170124354735 L 908.7395172324063 127.99102406467351 L 908.5275943274495 127.96407635481341 L 908.3162781246203 127.93617200064178 L 908.1055897553631 127.90731379257072 L 907.8955502883392 127.87750461639702 L 907.6861807273201 127.84674745301346 L 907.4775020090876 127.81504537811074 L 907.2695350013397 127.78240156186993 L 907.0623005006037 127.74881926864545 L 906.855819230157 127.71430185663864 L 906.6501118379546 127.67885277756194 L 906.4451988945643 127.64247557629372 L 906.2411008911098 127.60517389052379 L 906.0378382372212 127.56695145038962 L 905.8354312589945 127.52781207810341 L 905.633900196959 127.48775968756975 L 905.4332652040528 127.44679828399431 L 905.233546343608 127.40493196348334 L 905.0347635873444 127.36216491263397 L 904.8369368133718 127.31850140811567 L 904.6400858042028 127.27394581624249 L 904.4442302447744 127.22850259253649 L 904.249389720479 127.18217628128218 L 904.055583715207 127.13497151507208 L 903.8628316093973 127.08689301434347 L 903.6711526780997 127.03794558690636 L 903.4805660890479 126.9881341274627 L 903.2910909007417 126.93746361711693 L 903.1027460605422 126.88593912287786 L 902.9155504027765 126.83356579715196 L 902.7295226468542 126.78034887722818 L 902.544681395396 126.72629368475415 L 902.361045132373 126.67140562520409 L 902.1786322212585 126.61569018733819 L 901.9974609031915 126.55915294265382 L 901.8175492951528 126.50179954482836 L 901.6389153881536 126.44363572915375 L 901.4615770454353 126.38466731196311 L 901.2855520006847 126.32490019004902 L 901.1108578562595 126.26434034007389 L 900.9375120814285 126.2029938179722 L 900.7655320106248 126.14086675834507 L 900.5949348417122 126.07796537384668 L 900.4257376342653 126.01429595456308 L 900.257957307864 125.94986486738313 L 900.0916106404009 125.88467855536184 L 899.9267142664044 125.81874353707612 L 899.7632846753743 125.75206640597281 L 899.6013382101336 125.6846538297095 L 899.4408910651938 125.61651254948762 L 899.2819592851357 125.54764937937843 L 899.1245587630049 125.47807120564151 L 898.9687052387225 125.40778498603629 L 898.8144142975109 125.33679774912613 L 898.6617013683357 125.2651165935756 L 898.5105817223626 125.1927486874405 L 898.3610704714304 125.11970126745113 L 898.2131825665393 125.04598163828864 L 898.0669327963568 124.97159717185448 L 897.9223357857379 124.89655530653334 L 897.7794059942632 124.8208635464492 L 897.6381577147928 124.744529460715 L 897.4986050720369 124.6675606826757 L 897.3607620211434 124.58996490914495 L 897.2246423463025 124.51174989963546 L 897.0902596593685 124.432923475583 L 896.957627398498 124.35349351956427 L 896.8267588268064 124.27346797450868 L 896.697667031042 124.19285484290407 L 896.5703649202767 124.11166218599641 L 896.4448652246155 124.02989812298372 L 896.3211804939233 123.9475708302042 L 896.1993230965703 123.86468854031848 L 896.0793052181947 123.7812595414865 L 895.9611388604841 123.69729217653864 L 895.8448358399759 123.61279484214138 L 895.7304077868753 123.52777598795777 L 895.6178661438921 123.44224411580237 L 895.5072221650969 123.35620777879113 L 895.3984869147955 123.26967558048605 L 895.2916712664222 123.18265617403485 L 895.1867859014527 123.09515826130566 L 895.0838413083363 123.00719059201683 L 894.9828477814465 122.91876196286199 L 894.8838154200517 122.82988121663037 L 894.7867541273057 122.74055724132252 L 894.6916736092567 122.65079896926153 L 894.5985833738773 122.56061537619982 L 894.5074927301135 122.47001548042154 L 894.4184107869539 122.37900834184076 L 894.3313464525183 122.28760306109551 L 894.246308433168 122.19580877863768 L 894.1633052326337 122.10363467381903 L 894.0823451511662 122.01108996397322 L 894.0034362847067 121.91818390349414 L 893.9265865240756 121.82492578291038 L 893.8518035541852 121.73132492795632 L 893.77909485327 121.63739069863944 L 893.7084676921395 121.54313248830438 L 893.6399291334511 121.44855972269364 L 893.5734860310035 121.35368185900496 L 893.5091450290515 121.25850838494567 L 893.4469125616417 121.16304881778383 L 893.3867948519692 121.06731270339662 L 893.3287979117545 120.97130961531572 L 893.2729275406435 120.87504915376991 L 893.2191893256269 120.77854094472514 L 893.167588640481 120.68179463892189 L 893.1181306452316 120.5848199109101 L 893.0708202856372 120.48762645808178 L 893.0256622926938 120.39022399970122 L 892.9826611821636 120.29262227593307 L 892.9418212541215 120.1948310468684 L 892.9031465925264 120.0968600915486 L 892.866641064812 119.99871920698757 L 892.832308321501 119.90041820719199 L 892.800151795839 119.80196692217991 L 892.7701747034516 119.7033751969978 L 892.7423800420233 119.604652890736 L 892.7167705909969 119.50580987554288 L 892.6933489112963 119.40685603563759 L 892.6721173450699 119.30780126632166 L 892.6530780154565 119.20865547298948 L 892.6362328263733 119.10942857013775 L 892.6215834623252 119.01013048037407 L 892.6091313882364 118.91077113342469 L 892.5988778493039 118.81136046514148 L 892.590823870873 118.71190841650842 L 892.584970258335 118.61242493264753 L 892.5813175970461 118.51291996182425 L 892.5798662522694 118.41340345445279 L 892.5806163691383 118.31388536210092 L 892.5835678726417 118.21437563649496 L 892.5887204676314 118.11488422852455 L 892.5960736388528 118.01542108724756 L 892.6056266509943 117.91599615889524 L 892.617378548763 117.81661938587759 L 892.6313281569788 117.71730070578906 L 892.6474740806926 117.61805005041494 L 892.6658147053254 117.51887734473802 L 892.68634819683 117.41979250594623 L 892.7090725018744 117.3208054424409 L 892.733985348047 117.22192605284587 L 892.761084244084 117.12316422501772 L 892.7903664801183 117.02452983505692 L 892.8218291279508 116.92603274632027 L 892.8554690413429 116.82768280843456 L 892.8912828563311 116.72948985631163 L 892.9292669915642 116.63146370916486 L 892.9694176486598 116.53361416952727 L 893.011730812586 116.4359510222713 L 893.0562022520617 116.33848403363028 L 893.1028275199798 116.24122295022184 L 893.1516019538524 116.14417749807329 L 893.2025206762768 116.04735738164896 L 893.2555785954231 115.95077228287983 L 893.3107704055438 115.85443186019525 L 893.3680905875037 115.75834574755724 L 893.4275334093326 115.66252355349698 L 893.4890929267975 115.56697486015403 L 893.5527629839983 115.47170922231811 L 893.6185372139821 115.37673616647359 L 893.6864090393809 115.28206518984692 L 893.7563716730685 115.18770575945688 L 893.82841811884 115.09366731116786 L 893.9025411721109 114.99995924874634 L 893.9787334206374 114.90659094292047 L 894.0569872452584 114.81357173044302 L 894.1372948206565 114.72091091315772 L 894.2196481161411 114.6286177570691 L 894.3040388964514 114.53670149141583 L 894.3904587225795 114.44517130774788 L 894.4788989526149 114.35403635900738 L 894.5693507426084 114.26330575861321 L 894.6618050474563 114.17298857954984 L 894.7562526218051 114.0830938534599 L 894.8526840209761 113.99363056974107 L 894.9510896019096 113.9046076746472 L 895.0514595241299 113.81603407039357 L 895.153783750728 113.72791861426684 L 895.2580520493668 113.64027011773916 L 895.3642539933032 113.55309734558716 L 895.4723789624313 113.46640901501542 L 895.5824161443444 113.38021379478474 L 895.6943545354159 113.29452030434531 L 895.8081829419 113.20933711297478 L 895.9238899810508 113.12467273892129 L 896.041464082261 113.0405356485517 L 896.1608934882183 112.95693425550492 L 896.2821662560818 112.8738769198506 L 896.4052702586756 112.79137194725308 L 896.5301931857022 112.70942758814088 L 896.6569225449728 112.62805203688163 L 896.7854456636571 112.54725343096261 L 896.9157496895506 112.4670398501771 L 897.047821592359 112.38741931581635 L 897.1816481650022 112.30839978986741 L 897.3172160249345 112.22998917421705 L 897.4545116154828 112.1521953098615 L 897.5935212072025 112.07502597612235 L 897.7342308992502 111.99848888986867 L 897.876626620774 111.9225917047453 L 898.0206941323205 111.84734201040753 L 898.1664190272584 111.77274733176205 L 898.3137867332199 111.69881512821459 L 898.4627825135569 111.62555279292388 L 898.6133914688158 111.5529676520624 L 898.7655985382265 111.48106696408377 L 898.9193885012089 111.40985791899683 L 899.0747459788948 111.33934763764678 L 899.231655435666 111.269543171003 L 899.3901011807073 111.20045149945395 L 899.5500673695766 111.13207953210923 L 899.7115380057882 111.0644341061086 L 899.874496942413 110.99752198593829 L 900.0389278836931 110.93134986275456 L 900.2048143866714 110.86592435371458 L 900.3721398628359 110.80125200131471 L 900.5408875797784 110.73733927273634 L 900.7110406628678 110.67419255919904 L 900.8825820969377 110.61181817532155 L 901.0554947279875 110.55022235849026 L 901.2297612648982 110.48941126823556 L 901.4053642811615 110.42939098561577 L 901.5822862166218 110.37016751260914 L 901.7605093792333 110.31174677151364 L 901.9400159468281 110.25413460435468 L 902.1207879688991 110.19733677230094 L 902.3028073683946 110.14135895508834 L 902.4860559435265 110.08620675045192 L 902.6705153695899 110.03188567356621 L 902.8561672007959 109.9784011564936 L 903.0429928721162 109.92575854764125 L 903.2309737011392 109.87396311122617 L 903.4200908899387 109.82302002674884 L 903.6103255269535 109.77293438847525 L 903.8016585888784 109.7237112049275 L 903.9940709425665 109.67535539838292 L 904.1875433469429 109.62787180438187 L 904.3820564549284 109.58126517124417 L 904.5775908153743 109.5355401595943 L 904.7741268750075 109.49070134189533 L 904.9716449803858 109.44675320199167 L 905.1701253798632 109.40370013466065 L 905.3695482255652 109.36154644517318 L 905.5698935753734 109.32029634886302 L 905.7711413949198 109.27995397070549 L 905.9732715595902 109.24052334490473 L 906.1762638565365 109.2020084144905 L 906.3800979866982 109.16441303092373 L 906.584753566832 109.12774095371145 L 906.7902101315507 109.09199585003081 L 906.9964471353688 109.05718129436242 L 907.203443954758 109.0233007681328 L 907.4111798902086 108.99035765936637 L 907.6196341683004 108.95835526234653 L 907.8287859437792 108.92729677728633 L 908.0386143016417 108.89718531000838 L 908.2490982592271 108.86802387163432 L 908.4602167683149 108.83981537828369 L 908.6719487172303 108.81256265078231 L 908.8842729329547 108.78626841438025 L 909.0971681832434 108.76093529847918 L 909.310613178749 108.73656583636964 L 909.5245865751497 108.7131624649775 L 909.7390669752841 108.6907275246204 L 909.9540329312911 108.66926325877368 L 910.169462946754 108.64877181384605 L 910.3853354788511 108.62925523896492 L 910.6016289405087 108.61071548577151 L 910.8183217025612 108.59315440822569 L 911.0353920959128 108.57657376242057 L 911.2528184137052 108.56097520640694 L 911.4705789134877 108.54636030002737 L 911.6886518193917 108.53273050476037 L 911.9070153243084 108.52008718357405 L 912.1256475920694 108.50843160079002 L 912.3445267596301 108.49776492195684 L 912.563630939256 108.48808821373352 L 912.7829382207118 108.4794024437828 L 913.0024266734521 108.47170848067445 L 913.2220743488145 108.46500709379835 L 913.4418592822146 108.45929895328763 L 913.6617594953422 108.45458462995155 L 913.881752998359 108.45086459521856 L 914.1018177920985 108.448139221089 L 914.3219318702643 108.44640878009801 L 914.5420732216321 108.44567344528826 L 914.7622198322503 108.44593329019261 L 914.9823496876412 108.44718828882681 L 915.2024407750027 108.44943831569202 L 915.4224710854097 108.45268314578742 L 915.6424186160142 108.45692245463273 L 915.8622613722466 108.46215581830057 L 916.0819773700146 108.46838271345896 L 916.3015446379012 108.47560251742357 L 916.5209412193627 108.48381450822 L 916.740145174924 108.49301786465603 L 916.9591345843719 108.50321166640367 L 917.1778875489482 108.51439489409127 L 917.3963821935386 108.52656642940536 L 917.6145966688607 108.53972505520255 L 917.832509153649 108.55386945563123 L 918.0500978568364 108.56899821626314 L 918.2673410197339 108.58510982423483 L 918.4842169182064 108.60220266839895 L 918.7007038648446 108.62027503948528 L 918.9167802111346 108.6393251302718 L 919.1324243496214 108.6593510357653 L 919.347614716071 108.68035075339193 L 919.5623297916262 108.70232218319741 L 919.7765481049582 108.7252631280571 L 919.9902482344144 108.74917129389559 L 920.2034088101598 108.77404428991623 L 920.4160085163144 108.79987962884016 L 920.6280260930848 108.82667472715502 L 920.8394403388901 108.8544269053733 L 921.0502301124817 108.8831333883003 L 921.2603743350581 108.91279130531164 L 921.4698519923721 108.94339769064037 L 921.6786421368325 108.97494948367343 L 921.8867238895988 109.00744352925781 L 922.0940764426692 109.04087657801604 L 922.3006790609612 109.0752452866711 L 922.5065110843851 109.11054621838079 L 922.7115519299101 109.14677584308131 L 922.9157810936225 109.18393053784042 L 923.1191781527762 109.2220065872196 L 923.3217227678346 109.26100018364562 L 923.5233946845051 109.30090742779134 L 923.7241737357641 109.34172432896563 L 923.9240398438737 109.38344680551235 L 924.1229730223898 109.42607068521863 L 924.3209533781602 109.46959170573203 L 924.5179611133144 109.51400551498674 L 924.713976527243 109.55930767163885 L 924.9089800185678 109.60549364551046 L 925.1029520871025 109.65255881804268 L 925.2958733358016 109.70049848275747 L 925.4877244727012 109.74930784572828 L 925.6784863128473 109.79898202605952 L 925.868139780215 109.84951605637454 L 926.0566659096155 109.90090488331242 L 926.2440458485931 109.9531433680333 L 926.4302608593099 110.00622628673223 L 926.6152923204202 110.06014833116157 L 926.7991217289318 110.11490410916183 L 926.9817307020573 110.17048814520082 L 927.1631009790515 110.22689488092126 L 927.3432144230377 110.2841186756966 L 927.5220530228218 110.34215380719503 L 927.6995988946926 110.40099447195178 L 927.8758342842111 110.46063478594938 L 928.0507415679851 110.52106878520617 L 928.2243032554321 110.58229042637255 L 928.3965019905279 110.64429358733544 L 928.5673205535425 110.7070720678304 L 928.7367418627617 110.77061959006171 L 928.9047489761963 110.8349297993301 L 929.0713250932745 110.89999626466822 L 929.2364535565235 110.96581247948379 L 929.4001178532347 111.03237186221013 L 929.5623016171148 111.09966775696446 L 929.7229886299225 111.1676934342134 L 929.8821628230904 111.2364420914459 L 930.039808279332 111.3059068538535 L 930.1959092342329 111.37608077501788 L 930.3504500778276 111.44695683760538 L 930.5034153561608 111.51852795406883 L 930.6547897728318 111.59078696735621 L 930.8045581905253 111.6637266516264 L 930.9527056325244 111.73733971297176 L 931.0992172842082 111.81161879014752 L 931.2440784945336 111.88655645530783 L 931.3872747775004 111.96214521474865 L 931.5287918135996 112.038377509657 L 931.6686154512455 112.11524571686692 L 931.8067317081909 112.19274214962178 L 931.9431267729251 112.27085905834284 L 932.0777870060555 112.34958863140434 L 932.2106989416707 112.4289229959146 L 932.3418492886881 112.50885421850326 L 932.4712249321823 112.58937430611468 L 932.5988129346966 112.6704752068072 L 932.7246005375373 112.75214881055831 L 932.8485751620489 112.83438695007574 L 932.970724410872 112.91718140161403 L 933.0910360691838 113.00052388579704 L 933.2094981059186 113.0844060684458 L 933.3260986749714 113.16881956141195 L 933.4408261163826 113.25375592341653 L 933.5536689575035 113.33920666089413 L 933.6646159141442 113.42516322884221 L 933.7736558917013 113.5116170316756 L 933.8807779862682 113.59855942408605 L 933.9859714857243 113.68598171190679 L 934.0892258708077 113.77387515298189 L 934.1905308161657 113.86223095804047 L 934.2898761913883 113.95104029157567 L 934.3872520620208 114.04029427272812 L 934.4826486905571 114.12998397617412 L 934.576056537414 114.22010043301803 L 934.6674662618847 114.3106346316893 L 934.7568687230727 114.40157751884347 L 934.8442549808066 114.49292000026763 L 934.9296162965333 114.58465294178976 L 935.0129441341924 114.67676717019214 L 935.0942301610696 114.76925347412869 L 935.1734662486301 114.86210260504609 L 935.2506444733309 114.95530527810864 L 935.325757117414 115.04885217312668 L 935.3987966696776 115.14273393548868 L 935.4697558262272 115.23694117709663 L 935.5386274912065 115.33146447730486 L 935.6054047775062 115.42629438386214 L 935.6700810074534 115.52142141385684 L 935.732649713479 115.61683605466523 L 935.7931046387645 115.71252876490273 L 935.8514397378677 115.80848997537807 L 935.9076491773276 115.90471009005016 L 935.9617273362467 116.00117948698772 L 936.0136688068544 116.09788851933145 L 936.0634683950468 116.19482751625871 L 936.1111211209068 116.29198678395059 L 936.1566222192013 116.38935660656128 L 936.1999671398584 116.48692724718966 L 936.2411515484222 116.58468894885297 L 936.2801713264863 116.68263193546252 L 936.3170225721052 116.78074641280128 L 936.3517016001852 116.87902256950326 L 936.3842049428523 116.97745057803469 L 936.4145293497994 117.07602059567674 L 936.4426717886109 117.1747227655098 L 936.4686294450667 117.27354721739911 L 936.4923997234224 117.37248406898186 L 936.5139802466703 117.47152342665532 L 936.5333688567758 117.57065538656629 L 936.5505636148941 117.66987003560133 L 936.5655628015639 117.76915745237828 L 936.578364916879 117.86850770823816 L 936.5889686806383 117.96791086823818 L 936.5973730324745 118.06735699214518 L 936.6035771319592 118.16683613542965 L 936.6075803586879 118.26633835026014 L 936.6093823123409 118.36585368649811 M 936.6094939954696 150.0627168384 L 936.6083932632508 150.1622342644769 L 936.6050911766667 150.2617417388941 L 936.5995880659233 150.3612293109871 L 936.591884481327 150.4606870320816 L 936.5819811932299 150.5601049564884 L 936.5698791919525 150.65947314249786 L 936.5555796876849 150.7587816533742 L 936.5390841103656 150.8580205583491 L 936.5203941095385 150.95717993361475 L 936.4995115541882 151.05624986331628 L 936.4764385325528 151.15522044054325 L 936.4511773519152 151.25408176832042 L 936.4237305383725 151.3528239605974 L 936.3941008365831 151.45143714323726 L 936.3622912094926 151.54991145500387 L 936.3283048380371 151.64823704854817 L 936.2921451208255 151.74640409139272 L 936.2538156737992 151.844402766915 L 936.2133203298712 151.9422232753292 L 936.170663138542 152.03985583466596 L 936.1258483654951 152.13729068175067 L 936.0788804921708 152.23451807317988 L 936.0297642153171 152.33152828629542 L 935.9785044465206 152.42831162015685 L 935.9251063117156 152.52485839651143 L 935.8695751506712 152.621158960762 L 935.811916516457 152.7172036829323 L 935.7521361748885 152.81298295863027 L 935.69024010395 152.90848721000808 L 935.6262344931971 153.00370688672018 L 935.5601257431375 153.09863246687829 L 935.4919204645911 153.19325445800345 L 935.4216254780288 153.28756339797545 L 935.3492478128909 153.38154985597882 L 935.2747947068834 153.47520443344615 L 935.1982736052549 153.5685177649977 L 935.119692160052 153.66148051937805 L 935.0390582293535 153.75408340038928 L 934.9563798764854 153.84631714782046 L 934.8716653692139 153.93817253837366 L 934.7849231789194 154.0296403865864 L 934.6961619797484 154.1207115457501 L 934.605390647747 154.21137690882472 L 934.5126182599727 154.30162740934946 L 934.417854093587 154.39145402234956 L 934.3211076249277 154.48084776523854 L 934.2223885285607 154.56979969871657 L 934.1217066763137 154.65830092766447 L 934.0190721362878 154.74634260203308 L 933.9144951718516 154.83391591772835 L 933.8079862406144 154.92101211749164 L 933.6995559933805 155.00762249177563 L 933.5892152730843 155.093738379615 L 933.476975113706 155.17935116949275 L 933.3628467391677 155.26445230020124 L 933.246841562212 155.3490332616983 L 933.1289711832599 155.43308559595832 L 933.009247389251 155.51660089781785 L 932.8876821524649 155.59957081581632 L 932.764287629324 155.6819870530311 L 932.6390761591779 155.7638413679071 L 932.5120602630691 155.84512557508108 L 932.3832526424816 155.92583154620007 L 932.2526661780698 156.00595121073417 L 932.1203139283716 156.08547655678373 L 931.9862091285015 156.1643996318804 L 931.8503651888279 156.24271254378243 L 931.7127956936314 156.3204074612639 L 931.573514399747 156.3974766148978 L 931.4325352351879 156.47391229783304 L 931.2898722977532 156.54970686656495 L 931.1455398536176 156.62485274169987 L 930.9995523359054 156.69934240871285 L 930.8519243432467 156.77316841869933 L 930.7026706383176 156.84632338911982 L 930.5518061463644 156.91880000453818 L 930.3993459537103 156.99059101735335 L 930.2453053062478 157.0616892485238 L 930.0896996079133 157.1320875882857 L 929.9325444191467 157.20177899686377 L 929.773855455336 157.27075650517517 L 929.6136485852455 157.33901321552656 L 929.4519398294286 157.40654230230382 L 929.2887453586262 157.47333701265453 L 929.1240814921492 157.53939066716327 L 928.9579646962471 157.60469666051972 L 928.7904115824612 157.6692484621789 L 928.6214389059631 157.73303961701444 L 928.4510635638798 157.79606374596406 L 928.2793025936032 157.85831454666734 L 928.1061731710876 157.9197857940961 L 927.9316926091307 157.98047134117684 L 927.7558783556434 158.0403651194054 L 927.5787479919045 158.0994611394539 L 927.4003192308028 158.15775349176954 L 927.2206099150658 158.21523634716567 L 927.0396380154751 158.2719039574047 L 926.85742162907 158.32775065577277 L 926.6739789773374 158.38277085764662 L 926.4893284043893 158.4369590610519 L 926.3034883751293 158.49030984721344 L 926.1164774734056 158.54281788109705 L 925.9283144001522 158.5944779119431 L 925.73901797152 158.64528477379162 L 925.5486071169938 158.69523338599868 L 925.3571008775004 158.74431875374472 L 925.1645184035045 158.79253596853388 L 924.9708789530927 158.83988020868486 L 924.7762018900487 158.8863467398131 L 924.5805066819166 158.93193091530418 L 924.3838128980542 158.97662817677855 L 924.186140207676 159.0204340545473 L 923.9875083778861 159.06334416805922 L 923.7879372717023 159.10535422633865 L 923.5874468460686 159.1464600284148 L 923.3860571498606 159.1866574637417 L 923.1837883218801 159.22594251260932 L 922.9806605888413 159.26431124654553 L 922.7766942633483 159.3017598287089 L 922.5719097418637 159.3382845142724 L 922.3663275026688 159.37388165079793 L 922.1599681038165 159.40854767860148 L 921.9528521810745 159.44227913110922 L 921.7450004458625 159.47507263520393 L 921.5364336831809 159.50692491156258 L 921.3271727495321 159.53783277498405 L 921.1172385708351 159.56779313470776 L 920.9066521403329 159.5968029947227 L 920.6954345164928 159.6248594540671 L 920.4836068209015 159.65195970711832 L 920.2711902361519 159.67810104387368 L 920.0582060037254 159.7032808502213 L 919.8446754218678 159.7274966082015 L 919.6306198434594 159.7507458962587 L 919.4160606738795 159.77302638948342 L 919.2010193688666 159.79433585984495 L 918.9855174323716 159.81467217641398 L 918.7695764144088 159.83403330557582 L 918.5532179088999 159.85241731123367 L 918.3364635515153 159.86982235500227 L 918.11933501751 159.8862466963918 L 917.9018540195566 159.90168869298176 L 917.6840423055736 159.9161468005854 L 917.4659216565508 159.92961957340398 L 917.2475138843713 159.94210566417144 L 917.0288408296306 159.95360382428913 L 916.8099243594515 159.96411290395062 L 916.5907863652991 159.97363185225666 L 916.3714487607898 159.9821597173204 L 916.1519334795015 159.98969564636243 L 915.9322624727793 159.99623888579612 L 915.7124577075408 160.00178878130296 L 915.4925411640794 160.00634477789805 L 915.2725348338661 160.0099064199855 L 915.0524607173508 160.0124733514041 L 914.8323408217615 160.01404531546285 L 914.6121971589043 160.01462215496664 L 914.3920517429624 160.014203812232 L 914.1719265882936 160.01279032909284 L 913.9518437072301 160.01038184689634 L 913.7318251078764 160.00697860648864 L 913.5118927919093 160.00258094819102 L 913.2920687523771 159.9971893117656 L 913.0723749715005 159.99080423637156 L 912.8528334184745 159.9834263605111 L 912.6334660472714 159.97505642196563 L 912.4142947944457 159.96569525772207 L 912.19534157694 159.95534380388904 L 911.9766282898934 159.9440030956033 L 911.7581768044524 159.9316742669262 L 911.5400089655838 159.91835855073037 L 911.3221465898893 159.9040572785763 L 911.104611463425 159.8887718805793 L 910.8874253395225 159.87250388526644 L 910.6706099366129 159.8552549194237 L 910.454186936056 159.83702670793323 L 910.2381779799714 159.8178210736011 L 910.0226046690749 159.79763993697463 L 909.8074885605176 159.77648531615074 L 909.5928511657315 159.75435932657385 L 909.3787139482769 159.73126418082447 L 909.1650983216972 159.70720218839796 L 908.9520256473771 159.68217575547348 L 908.7395172324063 159.6561873846735 L 908.5275943274495 159.62923967481342 L 908.3162781246203 159.60133532064177 L 908.1055897553631 159.5724771125707 L 907.8955502883392 159.542667936397 L 907.6861807273201 159.51191077301345 L 907.4775020090876 159.48020869811072 L 907.2695350013397 159.4475648818699 L 907.0623005006037 159.41398258864544 L 906.855819230157 159.37946517663863 L 906.6501118379546 159.34401609756193 L 906.4451988945643 159.30763889629372 L 906.2411008911098 159.2703372105238 L 906.0378382372212 159.23211477038961 L 905.8354312589945 159.1929753981034 L 905.633900196959 159.15292300756974 L 905.4332652040528 159.1119616039943 L 905.233546343608 159.0700952834833 L 905.0347635873444 159.02732823263395 L 904.8369368133718 158.98366472811566 L 904.6400858042028 158.93910913624248 L 904.4442302447744 158.89366591253648 L 904.249389720479 158.8473396012822 L 904.055583715207 158.80013483507207 L 903.8628316093973 158.75205633434348 L 903.6711526780997 158.70310890690635 L 903.4805660890479 158.6532974474627 L 903.2910909007417 158.60262693711692 L 903.1027460605422 158.55110244287783 L 902.9155504027765 158.49872911715195 L 902.7295226468542 158.44551219722817 L 902.544681395396 158.39145700475413 L 902.361045132373 158.33656894520408 L 902.1786322212585 158.28085350733818 L 901.9974609031915 158.22431626265382 L 901.8175492951528 158.16696286482835 L 901.6389153881536 158.10879904915373 L 901.4615770454353 158.04983063196312 L 901.2855520006847 157.99006351004903 L 901.1108578562595 157.92950366007386 L 900.9375120814285 157.8681571379722 L 900.7655320106248 157.80603007834506 L 900.5949348417122 157.74312869384667 L 900.4257376342653 157.67945927456307 L 900.257957307864 157.6150281873831 L 900.0916106404009 157.54984187536184 L 899.9267142664044 157.4839068570761 L 899.7632846753743 157.41722972597282 L 899.6013382101336 157.3498171497095 L 899.4408910651938 157.28167586948763 L 899.2819592851357 157.21281269937842 L 899.1245587630049 157.1432345256415 L 898.9687052387225 157.07294830603627 L 898.8144142975109 157.00196106912614 L 898.6617013683357 156.9302799135756 L 898.5105817223626 156.8579120074405 L 898.3610704714304 156.78486458745112 L 898.2131825665393 156.71114495828863 L 898.0669327963568 156.6367604918545 L 897.9223357857379 156.56171862653335 L 897.7794059942632 156.4860268664492 L 897.6381577147928 156.409692780715 L 897.4986050720369 156.3327240026757 L 897.3607620211434 156.25512822914496 L 897.2246423463025 156.17691321963545 L 897.0902596593685 156.098086795583 L 896.957627398498 156.01865683956424 L 896.8267588268064 155.93863129450867 L 896.697667031042 155.85801816290407 L 896.5703649202767 155.7768255059964 L 896.4448652246155 155.69506144298373 L 896.3211804939233 155.61273415020418 L 896.1993230965703 155.52985186031847 L 896.0793052181947 155.4464228614865 L 895.9611388604841 155.36245549653862 L 895.8448358399759 155.27795816214137 L 895.7304077868753 155.19293930795774 L 895.6178661438921 155.10740743580237 L 895.5072221650969 155.02137109879112 L 895.3984869147955 154.93483890048603 L 895.2916712664222 154.84781949403484 L 895.1867859014527 154.76032158130565 L 895.0838413083363 154.67235391201683 L 894.9828477814465 154.58392528286197 L 894.8838154200517 154.49504453663036 L 894.7867541273057 154.4057205613225 L 894.6916736092567 154.31596228926153 L 894.5985833738773 154.22577869619982 L 894.5074927301135 154.13517880042153 L 894.4184107869539 154.04417166184075 L 894.3313464525183 153.9527663810955 L 894.246308433168 153.86097209863766 L 894.1633052326337 153.76879799381902 L 894.0823451511662 153.6762532839732 L 894.0034362847067 153.58334722349412 L 893.9265865240756 153.4900891029104 L 893.8518035541852 153.3964882479563 L 893.77909485327 153.30255401863943 L 893.7084676921395 153.20829580830437 L 893.6399291334511 153.11372304269364 L 893.5734860310035 153.01884517900496 L 893.5091450290515 152.92367170494566 L 893.4469125616417 152.82821213778382 L 893.3867948519692 152.73247602339663 L 893.3287979117545 152.6364729353157 L 893.2729275406435 152.5402124737699 L 893.2191893256269 152.44370426472514 L 893.167588640481 152.34695795892188 L 893.1181306452316 152.2499832309101 L 893.0708202856372 152.15278977808177 L 893.0256622926938 152.0553873197012 L 892.9826611821636 151.95778559593307 L 892.9418212541215 151.8599943668684 L 892.9031465925264 151.7620234115486 L 892.866641064812 151.66388252698758 L 892.832308321501 151.565581527192 L 892.800151795839 151.4671302421799 L 892.7701747034516 151.36853851699777 L 892.7423800420233 151.269816210736 L 892.7167705909969 151.17097319554287 L 892.6933489112963 151.0720193556376 L 892.6721173450699 150.97296458632167 L 892.6530780154565 150.87381879298948 L 892.6362328263733 150.77459189013774 L 892.6215834623252 150.67529380037408 L 892.6091313882364 150.57593445342468 L 892.5988778493039 150.47652378514147 L 892.590823870873 150.3770717365084 L 892.584970258335 150.27758825264752 L 892.5813175970461 150.17808328182426 L 892.5798662522694 150.07856677445278" stroke-miterlimit="10" stroke-width="2.5633703640000003" stroke-dasharray=""/></g><g><text fill="black" stroke="none" font-family="sans-serif" font-size="11pt" font-style="normal" font-weight="normal" text-decoration="normal" x="861.1446654005301" y="176.19401590200002" text-anchor="start" dominant-baseline="alphabetic" xml:space="preserve">Integration DB</text></g><path fill="none" stroke="none"/><g><path fill="white" stroke="black" paint-order="fill stroke markers" d=" M 998.201965326409 140.15604431400004 L 1369.0559653892371 140.15604431400004 L 1369.0559653892371 180.71761066200003 L 998.201965326409 180.71761066200003 L 998.201965326409 140.15604431400004 Z" stroke-miterlimit="10" stroke-width="2.4125838720000004" stroke-dasharray=""/></g><g><text fill="black" stroke="none" font-family="sans-serif" font-size="11pt" font-style="normal" font-weight="normal" text-decoration="normal" x="1014.562299708409" y="165.63896146200003" text-anchor="start" dominant-baseline="alphabetic" xml:space="preserve">                                 HPC                                 </text></g></g><g><path fill="white" stroke="black" paint-order="fill stroke markers" d=" M 298.15105621288376 230.477153022 L 313.22970541288373 230.477153022 L 313.22970541288373 975.3624235019997 L 298.15105621288376 975.3624235019997 L 298.15105621288376 230.477153022" stroke-miterlimit="10" stroke-width="1.2565541" stroke-dasharray=""/><path fill="white" stroke="black" paint-order="fill stroke markers" d=" M 745.7669611634695 272.697370782 L 760.8456103634695 272.697370782 L 760.8456103634695 848.7017702219998 L 745.7669611634695 848.7017702219998 L 745.7669611634695 272.697370782" stroke-miterlimit="10" stroke-width="1.2565541" stroke-dasharray=""/><path fill="white" stroke="black" paint-order="fill stroke markers" d=" M 1176.089640757823 329.996237742 L 1191.1682899578232 329.996237742 L 1191.1682899578232 706.9624677419998 L 1176.089640757823 706.9624677419998 L 1176.089640757823 329.996237742" stroke-miterlimit="10" stroke-width="1.2565541" stroke-dasharray=""/><path fill="white" stroke="black" paint-order="fill stroke markers" d=" M 1183.628965357823 464.19621562199995 L 1198.7076145578233 464.19621562199995 L 1198.7076145578233 506.4164333819999 L 1183.628965357823 506.4164333819999 L 1183.628965357823 464.19621562199995" stroke-miterlimit="10" stroke-width="1.2565541" stroke-dasharray=""/><path fill="white" stroke="black" paint-order="fill stroke markers" d=" M 1183.628965357823 602.9197882619999 L 1198.7076145578233 602.9197882619999 L 1198.7076145578233 645.1400060219999 L 1183.628965357823 645.1400060219999 L 1183.628965357823 602.9197882619999" stroke-miterlimit="10" stroke-width="1.2565541" stroke-dasharray=""/><path fill="white" stroke="black" paint-order="fill stroke markers" d=" M 907.0553415634696 764.2613347019999 L 922.1339907634696 764.2613347019999 L 922.1339907634696 806.4815524619999 L 907.0553415634696 806.4815524619999 L 907.0553415634696 764.2613347019999" stroke-miterlimit="10" stroke-width="1.2565541" stroke-dasharray=""/><path fill="white" stroke="black" paint-order="fill stroke markers" d=" M 553.4394366128837 890.9219879819998 L 568.5180858128837 890.9219879819998 L 568.5180858128837 933.1422057419998 L 553.4394366128837 933.1422057419998 L 553.4394366128837 890.9219879819998" stroke-miterlimit="10" stroke-width="1.2565541" stroke-dasharray=""/><g><text fill="black" stroke="none" font-family="sans-serif" font-size="11pt" font-style="normal" font-weight="normal" text-decoration="normal" x="94.3826907879116" y="224.445693342" text-anchor="start" dominant-baseline="alphabetic" xml:space="preserve">Connect with provider</text></g><g><path fill="none" stroke="black" paint-order="fill stroke markers" d=" M 52.930991012353516 230.477153022 L 285.7363017048838 230.477153022" stroke-miterlimit="10" stroke-width="1.2565541" stroke-dasharray=""/><g transform="translate(298.15105621288376,230.477153022) translate(-298.15105621288376,-230.477153022)"><path fill="black" stroke="none" paint-order="stroke fill markers" d=" M 285.58551521288376 224.194382522 L 298.15105621288376 230.477153022 L 285.58551521288376 236.759923522 Z"/></g></g><g><text fill="black" stroke="none" font-family="sans-serif" font-size="11pt" font-style="normal" font-weight="normal" text-decoration="normal" x="418.5566676387625" y="266.665911102" text-anchor="start" dominant-baseline="alphabetic" xml:space="preserve">Alice#1234 wishes to connect</text></g><g><path fill="none" stroke="black" paint-order="fill stroke markers" d=" M 313.22970541288373 272.697370782 L 733.3522066554696 272.697370782" stroke-miterlimit="10" stroke-width="1.2565541" stroke-dasharray=""/><g transform="translate(745.7669611634695,272.697370782) translate(-745.7669611634695,-272.697370782)"><path fill="black" stroke="none" paint-order="stroke fill markers" d=" M 733.2014201634695 266.414600282 L 745.7669611634695 272.697370782 L 733.2014201634695 278.98014128200003 Z"/></g></g><g><text fill="black" stroke="none" font-family="sans-serif" font-size="11pt" font-style="normal" font-weight="normal" text-decoration="normal" x="919.4092912100602" y="308.8861288620001" text-anchor="start" dominant-baseline="alphabetic" xml:space="preserve">Initialize user</text><text fill="black" stroke="none" font-family="sans-serif" font-size="11pt" font-style="normal" font-weight="normal" text-decoration="normal" x="919.4092912100602" y="323.96477806200005" text-anchor="start" dominant-baseline="alphabetic" xml:space="preserve">Alice#1234</text></g><g><path fill="none" stroke="black" paint-order="fill stroke markers" d=" M 760.8456103634695 329.996237742 L 1163.674886249823 329.996237742" stroke-miterlimit="10" stroke-width="1.2565541" stroke-dasharray=""/><g transform="translate(1176.089640757823,329.996237742) translate(-1176.089640757823,-329.996237742)"><path fill="black" stroke="none" paint-order="stroke fill markers" d=" M 1163.524099757823 323.713467242 L 1176.089640757823 329.996237742 L 1163.524099757823 336.27900824200003 Z"/></g></g><path fill="white" stroke="black" paint-order="fill stroke markers" d=" M 1089.8438534260654 352.61421154199996 L 1263.843293009581 352.61421154199996 L 1277.414077289581 366.18499582199996 L 1277.414077289581 402.373753902 L 1089.8438534260654 402.373753902 L 1089.8438534260654 352.61421154199996 M 1263.843293009581 352.61421154199996 L 1263.843293009581 366.18499582199996 L 1277.414077289581 366.18499582199996" stroke-miterlimit="10" stroke-width="1.2565541" stroke-dasharray=""/><g><text fill="black" stroke="none" font-family="sans-serif" font-size="11pt" font-style="normal" font-weight="normal" text-decoration="normal" x="1110.9539623060653" y="373.724320422" text-anchor="start" dominant-baseline="alphabetic" xml:space="preserve">This reuses existing</text><text fill="black" stroke="none" font-family="sans-serif" font-size="11pt" font-style="normal" font-weight="normal" text-decoration="normal" x="1110.9539623060653" y="388.802969622" text-anchor="start" dominant-baseline="alphabetic" xml:space="preserve">initialization scripts</text></g><g><text fill="black" stroke="none" font-family="sans-serif" font-size="11pt" font-style="normal" font-weight="normal" text-decoration="normal" x="1218.812480157823" y="438.56251198199993" text-anchor="start" dominant-baseline="alphabetic" xml:space="preserve">Create local user</text></g><g><path fill="none" stroke="black" paint-order="fill stroke markers" d=" M 1191.1682899578232 444.59397166199994 L 1259.022211357823 444.59397166199994 L 1259.022211357823 464.19621562199995 L 1211.122369065823 464.19621562199995" stroke-miterlimit="10" stroke-width="1.2565541" stroke-dasharray=""/><g transform="translate(1198.707614557823,464.19621562199995) translate(-1198.707614557823,-464.19621562199995)"><path fill="black" stroke="none" paint-order="stroke fill markers" d=" M 1211.273155557823 457.9134451219999 L 1198.707614557823 464.19621562199995 L 1211.273155557823 470.478986122 Z"/></g></g><g><text fill="black" stroke="none" font-family="sans-serif" font-size="11pt" font-style="normal" font-weight="normal" text-decoration="normal" x="1218.812480157823" y="500.3849737019999" text-anchor="start" dominant-baseline="alphabetic" xml:space="preserve">UID 1100</text></g><g><path fill="none" stroke="black" paint-order="fill stroke markers" d=" M 1198.707614557823 506.4164333819999 L 1259.022211357823 506.4164333819999 L 1259.022211357823 526.0186773419999 L 1203.583044465823 526.0186773419999" stroke-miterlimit="10" stroke-width="1.2565541" stroke-dasharray="6.03145968"/><g transform="translate(1191.168289957823,526.0186773419999) translate(-1191.168289957823,-526.0186773419999)"><path fill="black" stroke="none" paint-order="stroke fill markers" d=" M 1203.7338309578229 519.735906842 L 1191.168289957823 526.0186773419999 L 1203.7338309578229 532.3014478419999 Z"/></g></g><g><text fill="black" stroke="none" font-family="sans-serif" font-size="11pt" font-style="normal" font-weight="normal" text-decoration="normal" x="1218.812480157823" y="562.2074354219999" text-anchor="start" dominant-baseline="alphabetic" xml:space="preserve">Additional config</text><text fill="black" stroke="none" font-family="sans-serif" font-size="11pt" font-style="normal" font-weight="normal" text-decoration="normal" x="1218.812480157823" y="577.2860846219999" text-anchor="start" dominant-baseline="alphabetic" xml:space="preserve">e.g. Slurm account</text></g><g><path fill="none" stroke="black" paint-order="fill stroke markers" d=" M 1191.1682899578232 583.3175443019999 L 1259.022211357823 583.3175443019999 L 1259.022211357823 602.9197882619999 L 1211.122369065823 602.9197882619999" stroke-miterlimit="10" stroke-width="1.2565541" stroke-dasharray=""/><g transform="translate(1198.707614557823,602.9197882619999) translate(-1198.707614557823,-602.9197882619999)"><path fill="black" stroke="none" paint-order="stroke fill markers" d=" M 1211.273155557823 596.6370177619999 L 1198.707614557823 602.9197882619999 L 1211.273155557823 609.2025587619999 Z"/></g></g><g><text fill="black" stroke="none" font-family="sans-serif" font-size="11pt" font-style="normal" font-weight="normal" text-decoration="normal" x="1218.812480157823" y="639.1085463419998" text-anchor="start" dominant-baseline="alphabetic" xml:space="preserve">OK</text></g><g><path fill="none" stroke="black" paint-order="fill stroke markers" d=" M 1198.707614557823 645.1400060219999 L 1259.022211357823 645.1400060219999 L 1259.022211357823 664.7422499819999 L 1203.583044465823 664.7422499819999" stroke-miterlimit="10" stroke-width="1.2565541" stroke-dasharray="6.03145968"/><g transform="translate(1191.168289957823,664.7422499819999) translate(-1191.168289957823,-664.7422499819999)"><path fill="black" stroke="none" paint-order="stroke fill markers" d=" M 1203.7338309578229 658.4594794819999 L 1191.168289957823 664.7422499819999 L 1203.7338309578229 671.0250204819998 Z"/></g></g><g><text fill="black" stroke="none" font-family="sans-serif" font-size="11pt" font-style="normal" font-weight="normal" text-decoration="normal" x="907.2259606741716" y="700.9310080619998" text-anchor="start" dominant-baseline="alphabetic" xml:space="preserve">OK: UID 1100, ...</text></g><g><path fill="none" stroke="black" paint-order="fill stroke markers" d=" M 1176.089640757823 706.9624677419998 L 773.2603648714695 706.9624677419998" stroke-miterlimit="10" stroke-width="1.2565541" stroke-dasharray="6.03145968"/><g transform="translate(760.8456103634695,706.9624677419998) translate(-760.8456103634695,-706.9624677419998)"><path fill="black" stroke="none" paint-order="stroke fill markers" d=" M 773.4111513634696 700.6796972419999 L 760.8456103634695 706.9624677419998 L 773.4111513634696 713.2452382419998 Z"/></g></g><g><text fill="black" stroke="none" font-family="sans-serif" font-size="11pt" font-style="normal" font-weight="normal" text-decoration="normal" x="780.9504759634696" y="743.1512258219999" text-anchor="start" dominant-baseline="alphabetic" xml:space="preserve">Alice#1234 is </text><text fill="black" stroke="none" font-family="sans-serif" font-size="11pt" font-style="normal" font-weight="normal" text-decoration="normal" x="780.9504759634696" y="758.2298750219999" text-anchor="start" dominant-baseline="alphabetic" xml:space="preserve">UID 1100</text></g><g><path fill="none" stroke="black" paint-order="fill stroke markers" d=" M 760.8456103634695 764.2613347019999 L 894.6405870554696 764.2613347019999" stroke-miterlimit="10" stroke-width="1.2565541" stroke-dasharray=""/><g transform="translate(907.0553415634696,764.2613347019999) translate(-907.0553415634696,-764.2613347019999)"><path fill="black" stroke="none" paint-order="stroke fill markers" d=" M 894.4898005634695 757.9785642019999 L 907.0553415634696 764.2613347019999 L 894.4898005634695 770.5441052019999 Z"/></g></g><g><text fill="black" stroke="none" font-family="sans-serif" font-size="11pt" font-style="normal" font-weight="normal" text-decoration="normal" x="823.3671429480277" y="800.4500927819998" text-anchor="start" dominant-baseline="alphabetic" xml:space="preserve">OK</text></g><g><path fill="none" stroke="black" paint-order="fill stroke markers" d=" M 907.0553415634696 806.4815524619999 L 773.2603648714695 806.4815524619999" stroke-miterlimit="10" stroke-width="1.2565541" stroke-dasharray="6.03145968"/><g transform="translate(760.8456103634695,806.4815524619999) translate(-760.8456103634695,-806.4815524619999)"><path fill="black" stroke="none" paint-order="stroke fill markers" d=" M 773.4111513634696 800.1987819619999 L 760.8456103634695 806.4815524619999 L 773.4111513634696 812.7643229619998 Z"/></g></g><g><text fill="black" stroke="none" font-family="sans-serif" font-size="11pt" font-style="normal" font-weight="normal" text-decoration="normal" x="404.16499741171174" y="842.6703105419998" text-anchor="start" dominant-baseline="alphabetic" xml:space="preserve">Mapping for Alice#1234 complete</text></g><g><path fill="none" stroke="black" paint-order="fill stroke markers" d=" M 745.7669611634695 848.7017702219998 L 325.6444599208837 848.7017702219998" stroke-miterlimit="10" stroke-width="1.2565541" stroke-dasharray="6.03145968"/><g transform="translate(313.22970541288373,848.7017702219998) translate(-313.22970541288373,-848.7017702219998)"><path fill="black" stroke="none" paint-order="stroke fill markers" d=" M 325.7952464128837 842.4189997219999 L 313.22970541288373 848.7017702219998 L 325.7952464128837 854.9845407219998 Z"/></g></g><g><text fill="black" stroke="none" font-family="sans-serif" font-size="11pt" font-style="normal" font-weight="normal" text-decoration="normal" x="333.3345710128837" y="884.8905283019998" text-anchor="start" dominant-baseline="alphabetic" xml:space="preserve">Mark mapping as complete</text></g><g><path fill="none" stroke="black" paint-order="fill stroke markers" d=" M 313.22970541288373 890.9219879819998 L 541.0246821048837 890.9219879819998" stroke-miterlimit="10" stroke-width="1.2565541" stroke-dasharray=""/><g transform="translate(553.4394366128837,890.9219879819998) translate(-553.4394366128837,-890.9219879819998)"><path fill="black" stroke="none" paint-order="stroke fill markers" d=" M 540.8738956128836 884.6392174819998 L 553.4394366128837 890.9219879819998 L 540.8738956128836 897.2047584819998 Z"/></g></g><g><text fill="black" stroke="none" font-family="sans-serif" font-size="11pt" font-style="normal" font-weight="normal" text-decoration="normal" x="422.7512379974418" y="927.1107460619997" text-anchor="start" dominant-baseline="alphabetic" xml:space="preserve">OK</text></g><g><path fill="none" stroke="black" paint-order="fill stroke markers" d=" M 553.4394366128837 933.1422057419998 L 325.6444599208837 933.1422057419998" stroke-miterlimit="10" stroke-width="1.2565541" stroke-dasharray="6.03145968"/><g transform="translate(313.22970541288373,933.1422057419998) translate(-313.22970541288373,-933.1422057419998)"><path fill="black" stroke="none" paint-order="stroke fill markers" d=" M 325.7952464128837 926.8594352419998 L 313.22970541288373 933.1422057419998 L 325.7952464128837 939.4249762419997 Z"/></g></g><g><text fill="black" stroke="none" font-family="sans-serif" font-size="11pt" font-style="normal" font-weight="normal" text-decoration="normal" x="145.99935758173484" y="969.3309638219997" text-anchor="start" dominant-baseline="alphabetic" xml:space="preserve">Success</text></g><g><path fill="none" stroke="black" paint-order="fill stroke markers" d=" M 298.15105621288376 975.3624235019997 L 65.34574552035352 975.3624235019997" stroke-miterlimit="10" stroke-width="1.2565541" stroke-dasharray="6.03145968"/><g transform="translate(52.930991012353516,975.3624235019997) translate(-52.930991012353516,-975.3624235019997)"><path fill="black" stroke="none" paint-order="stroke fill markers" d=" M 65.49653201235351 969.0796530019998 L 52.930991012353516 975.3624235019997 L 65.49653201235351 981.6451940019997 Z"/></g></g><path fill="none" stroke="black" paint-order="fill stroke markers" d=" M 7.5393246000000005 1010.2946274819997 L 1383.4606754 1010.2946274819997 M 7.5393246000000005 1015.3208438819996 L 1383.4606754 1015.3208438819996 M 7.5393246000000005 1020.3470602819996 L 1383.4606754 1020.3470602819996" stroke-miterlimit="10" stroke-width="1.2565541" stroke-dasharray=""/><path fill="white" stroke="black" paint-order="fill stroke markers" d=" M 454.0065598211719 997.9803973019997 L 936.9934401788281 997.9803973019997 L 936.9934401788281 1032.6612904619997 L 454.0065598211719 1032.6612904619997 Z" stroke-miterlimit="10" stroke-width="1.2565541" stroke-dasharray=""/><g><text fill="black" stroke="none" font-family="sans-serif" font-size="11pt" font-style="normal" font-weight="normal" text-decoration="normal" x="475.1166687011719" y="1019.0905061819997" text-anchor="start" dominant-baseline="alphabetic" xml:space="preserve"> Alice#1234 can now consume resources from the provider </text></g></g></g></svg>