<?xml version="1.0" encoding="UTF-8" standalone="no"?>
<!DOCTYPE svg PUBLIC "-//W3C//DTD SVG 1.1//EN" "http://www.w3.org/Graphics/SVG/1.1/DTD/svg11.dtd">
<svg width="100%" height="100%" viewBox="0 0 9564 7284" version="1.1" xmlns="http://www.w3.org/2000/svg" xmlns:xlink="http://www.w3.org/1999/xlink" xml:space="preserve" xmlns:serif="http://www.serif.com/" style="fill-rule:evenodd;clip-rule:evenodd;stroke-linecap:round;stroke-linejoin:round;stroke-miterlimit:1.5;">
    <g transform="matrix(1,0,0,1,-8571.17,-46173.1)">
        <g transform="matrix(1.49011,0,0,4.22313,-2422.02,-37316.4)">
            <g id="final" transform="matrix(0.89244,0,0,0.236791,6166.64,18105.7)">
                <g transform="matrix(0.751975,0,0,1,84.855,59.0551)">
                    <g transform="matrix(1,0,0,1,0.827725,0.751335)">
                        <path d="M3634.01,7695.94L3940.87,7105.39L3429.44,7400.66L3634.01,7695.94Z" style="fill:url(#_Linear1);"/>
                    </g>
                    <g transform="matrix(1,0,0,1,0.827725,0.751335)">
                        <path d="M3429.44,7991.21L3634.01,7695.94L3429.44,7400.66L3429.44,7991.21Z" style="fill:url(#_Linear2);"/>
                    </g>
                    <g transform="matrix(1,0,0,1,0.827725,0.751335)">
                        <path d="M3940.87,8286.49L3634.01,7695.94L3429.44,7991.21L3940.87,8286.49Z" style="fill:url(#_Linear3);"/>
                    </g>
                    <g transform="matrix(1,0,0,1,0.827725,0.751335)">
                        <path d="M3940.87,8286.49L4094.3,7961.69L3634.01,7695.94L3940.87,8286.49Z" style="fill:url(#_Linear4);"/>
                    </g>
                    <g transform="matrix(1,0,0,1,0.827725,0.751335)">
                        <path d="M4452.3,7991.21L4094.3,7961.69L3940.87,8286.49L4452.3,7991.21Z" style="fill:url(#_Linear5);"/>
                    </g>
                    <g transform="matrix(1,0,0,1,0.827725,0.751335)">
                        <path d="M4196.59,7489.24L4094.3,7961.69L3634.01,7695.94L4196.59,7489.24Z" style="fill:url(#_Linear6);"/>
                    </g>
                    <g transform="matrix(1,0,0,1,0.827725,0.751335)">
                        <path d="M3940.87,7105.39L4196.59,7489.24L3634.01,7695.94L3940.87,7105.39Z" style="fill:url(#_Linear7);"/>
                    </g>
                    <g transform="matrix(1,0,0,1,0.827725,0.751335)">
                        <path d="M4452.3,7400.66L4196.59,7489.24L3940.87,7105.39L4452.3,7400.66Z" style="fill:url(#_Linear8);"/>
                    </g>
                    <g transform="matrix(1,0,0,1,0.827725,0.751335)">
                        <path d="M4452.3,7991.21L4196.59,7489.24L4094.3,7961.69L4452.3,7991.21Z" style="fill:url(#_Linear9);"/>
                    </g>
                    <g transform="matrix(1,0,0,1,0.827725,0.751335)">
                        <path d="M4452.3,7400.66L4196.59,7489.24L4452.3,7991.21L4452.3,7400.66Z" style="fill:url(#_Linear10);"/>
                    </g>
                </g>
                <g transform="matrix(0.751975,0,0,1,84.855,59.0551)">
                    <g transform="matrix(1,0,0,1,0.827725,0.751335)">
                        <path d="M3582.87,7725.47L3940.87,7016.8L3352.72,7356.37L3582.87,7725.47Z" style="fill:none;stroke:white;stroke-opacity:0.4;stroke-width:25px;"/>
                    </g>
                    <g transform="matrix(1,0,0,1,0.827725,0.751335)">
                        <path d="M3352.72,8035.5L3940.87,8375.07L3582.87,7725.47L3352.72,8035.5Z" style="fill:none;stroke:white;stroke-opacity:0.4;stroke-width:25px;"/>
                    </g>
                    <g transform="matrix(1,0,0,1,0.827725,0.751335)">
                        <path d="M3940.87,7016.8L3582.87,7725.47L4247.73,7459.72L3940.87,7016.8Z" style="fill:none;stroke:white;stroke-opacity:0.4;stroke-width:25px;"/>
                    </g>
                    <g transform="matrix(1,0,0,1,0.827725,0.751335)">
                        <path d="M3352.72,8035.5L3582.87,7725.47L3352.72,7356.37L3352.72,8035.5Z" style="fill:none;stroke:white;stroke-opacity:0.4;stroke-width:25px;"/>
                    </g>
                    <g transform="matrix(1,0,0,1,0.827725,0.751335)">
                        <path d="M4094.3,8020.74L4247.73,7459.72L3582.87,7725.47L4094.3,8020.74Z" style="fill:none;stroke:white;stroke-opacity:0.4;stroke-width:25px;"/>
                    </g>
                    <g transform="matrix(1,0,0,1,0.827725,0.751335)">
                        <path d="M3582.87,7725.47L4094.3,8020.74L3940.87,8375.07L3582.87,7725.47Z" style="fill:none;stroke:white;stroke-opacity:0.4;stroke-width:25px;"/>
                    </g>
                    <g transform="matrix(1,0,0,1,0.827725,0.751335)">
                        <path d="M3940.87,7016.8L4247.73,7459.72L4529.02,7356.37L3940.87,7016.8Z" style="fill:none;stroke:white;stroke-opacity:0.4;stroke-width:25px;"/>
                    </g>
                    <g transform="matrix(1,0,0,1,0.827725,0.751335)">
                        <path d="M4529.02,8035.5L4247.73,7459.72L4094.3,8020.74L4529.02,8035.5Z" style="fill:none;stroke:white;stroke-opacity:0.4;stroke-width:25px;"/>
                    </g>
                    <g transform="matrix(1,0,0,1,0.827725,0.751335)">
                        <path d="M3940.87,8375.07L4094.3,8020.74L4529.02,8035.5L3940.87,8375.07Z" style="fill:none;stroke:white;stroke-opacity:0.4;stroke-width:25px;"/>
                    </g>
                    <g transform="matrix(1,0,0,1,0.827725,0.751335)">
                        <path d="M4529.02,7356.37L4529.02,8035.5L4247.73,7459.72L4529.02,7356.37Z" style="fill:none;stroke:white;stroke-opacity:0.4;stroke-width:25px;"/>
                    </g>
                    <g transform="matrix(1,0,0,1,0.827725,0.751335)">
                        <path d="M3940.87,7016.8L4529.02,7356.37L4529.02,8035.5L3940.87,8375.07L3352.72,8035.5L3352.72,7356.37L3940.87,7016.8Z" style="fill:none;stroke:white;stroke-opacity:0.4;stroke-width:25px;"/>
                    </g>
                    <g transform="matrix(1.61658,0,0,1.61658,-2429.04,-4373.41)">
                        <circle cx="3940.87" cy="7046.33" r="25.572" style="fill:rgb(252,252,252);stroke:white;stroke-opacity:0.568627;stroke-width:10.31px;"/>
                    </g>
                    <g transform="matrix(1.61658,0,0,1.61658,-1840.89,-3354.71)">
                        <circle cx="3940.87" cy="7046.33" r="25.572" style="fill:rgb(252,252,252);stroke:white;stroke-opacity:0.568627;stroke-width:10.31px;"/>
                    </g>
                    <g transform="matrix(1.61658,0,0,1.61658,-2429.04,-3015.14)">
                        <circle cx="3940.87" cy="7046.33" r="25.572" style="fill:rgb(252,252,252);stroke:white;stroke-opacity:0.568627;stroke-width:10.31px;"/>
                    </g>
                    <g transform="matrix(1.61658,0,0,1.61658,-3017.18,-3354.71)">
                        <circle cx="3940.87" cy="7046.33" r="25.572" style="fill:rgb(252,252,252);stroke:white;stroke-opacity:0.568627;stroke-width:10.31px;"/>
                    </g>
                    <g transform="matrix(1.61658,0,0,1.61658,-3017.18,-4033.84)">
                        <circle cx="3940.87" cy="7046.33" r="25.572" style="fill:rgb(252,252,252);stroke:white;stroke-opacity:0.568627;stroke-width:10.31px;"/>
                    </g>
                    <g transform="matrix(1.61658,0,0,1.61658,-1840.89,-4033.84)">
                        <circle cx="3940.87" cy="7046.33" r="25.572" style="fill:rgb(252,252,252);stroke:white;stroke-opacity:0.568627;stroke-width:10.31px;"/>
                    </g>
                    <g transform="matrix(2.07846,0,0,2.07846,-3942.39,-7185.06)">
                        <circle cx="3940.87" cy="7046.33" r="25.572" style="fill:rgb(252,252,252);stroke:white;stroke-opacity:0.568627;stroke-width:10.02px;"/>
                    </g>
                    <g transform="matrix(2.07846,0,0,2.07846,-4095.82,-6624.03)">
                        <circle cx="3940.87" cy="7046.33" r="25.572" style="fill:rgb(252,252,252);stroke:white;stroke-opacity:0.568627;stroke-width:10.02px;"/>
                    </g>
                    <g transform="matrix(2.07846,0,0,2.07846,-4607.25,-6919.31)">
                        <circle cx="3940.87" cy="7046.33" r="25.572" style="fill:rgb(252,252,252);stroke:white;stroke-opacity:0.568627;stroke-width:10.02px;"/>
                    </g>
                </g>
            </g>
        </g>
        <g transform="matrix(1.49011,0,0,4.22313,-2422.02,-37316.4)">
            <g transform="matrix(0.671093,0,0,0.236791,-19173.7,14828.9)">
                <path d="M41098.3,22007.4L41814.3,22420.8L42530.3,22007.4L49127.8,22007.4L49127.8,28149.1L39564,28149.1L39564,22007.4L41098.3,22007.4Z" style="fill:url(#_Linear11);"/>
            </g>
        </g>
        <g transform="matrix(1.49011,0,0,4.22313,-2422.02,-37316.4)">
            <g transform="matrix(0.671093,0,0,0.236791,1853.78,17447.8)">
                <text x="11241.1px" y="10837.2px" style="font-family:'IBMPlexSans', 'IBM Plex Sans', sans-serif;font-size:833.333px;fill:white;">SDUCloud</text>
            </g>
        </g>
    </g>
    <defs>
        <linearGradient id="_Linear1" x1="0" y1="0" x2="1" y2="0" gradientUnits="userSpaceOnUse" gradientTransform="matrix(357.283,-112.425,112.425,357.283,3499.44,7383.1)"><stop offset="0" style="stop-color:rgb(161,196,245);stop-opacity:1"/><stop offset="1" style="stop-color:rgb(42,121,231);stop-opacity:1"/></linearGradient>
        <linearGradient id="_Linear2" x1="0" y1="0" x2="1" y2="0" gradientUnits="userSpaceOnUse" gradientTransform="matrix(159.146,-38.973,38.973,159.146,3457.16,7679.6)"><stop offset="0" style="stop-color:rgb(100,157,238);stop-opacity:1"/><stop offset="1" style="stop-color:rgb(184,211,247);stop-opacity:1"/></linearGradient>
        <linearGradient id="_Linear3" x1="0" y1="0" x2="1" y2="0" gradientUnits="userSpaceOnUse" gradientTransform="matrix(-281.288,-260.858,260.858,-281.288,3838.58,8178.25)"><stop offset="0" style="stop-color:rgb(18,79,163);stop-opacity:1"/><stop offset="1" style="stop-color:rgb(23,100,209);stop-opacity:1"/></linearGradient>
        <linearGradient id="_Linear4" x1="0" y1="0" x2="1" y2="0" gradientUnits="userSpaceOnUse" gradientTransform="matrix(277.847,-15.5453,15.5453,277.847,3788.48,8020.14)"><stop offset="0" style="stop-color:rgb(18,79,163);stop-opacity:1"/><stop offset="0.58" style="stop-color:rgb(27,90,177);stop-opacity:1"/><stop offset="0.8" style="stop-color:rgb(46,113,206);stop-opacity:1"/><stop offset="1" style="stop-color:rgb(64,135,234);stop-opacity:1"/></linearGradient>
        <linearGradient id="_Linear5" x1="0" y1="0" x2="1" y2="0" gradientUnits="userSpaceOnUse" gradientTransform="matrix(445.147,-236.284,236.284,445.147,4005.86,8168.77)"><stop offset="0" style="stop-color:rgb(47,124,232);stop-opacity:1"/><stop offset="1" style="stop-color:rgb(167,199,245);stop-opacity:1"/></linearGradient>
        <linearGradient id="_Linear6" x1="0" y1="0" x2="1" y2="0" gradientUnits="userSpaceOnUse" gradientTransform="matrix(2.10332e-14,-343.498,343.498,2.10332e-14,4043.16,7894.51)"><stop offset="0" style="stop-color:rgb(84,148,236);stop-opacity:1"/><stop offset="0.46" style="stop-color:rgb(35,102,196);stop-opacity:1"/><stop offset="1" style="stop-color:rgb(21,89,185);stop-opacity:1"/></linearGradient>
        <linearGradient id="_Linear7" x1="0" y1="0" x2="1" y2="0" gradientUnits="userSpaceOnUse" gradientTransform="matrix(177.742,-418.877,418.877,177.742,3788.74,7606.61)"><stop offset="0" style="stop-color:rgb(30,113,230);stop-opacity:1"/><stop offset="1" style="stop-color:rgb(16,68,141);stop-opacity:1"/></linearGradient>
        <linearGradient id="_Linear8" x1="0" y1="0" x2="1" y2="0" gradientUnits="userSpaceOnUse" gradientTransform="matrix(407.85,213.188,-213.188,407.85,4043.16,7189.72)"><stop offset="0" style="stop-color:rgb(18,78,162);stop-opacity:1"/><stop offset="1" style="stop-color:rgb(64,134,234);stop-opacity:1"/></linearGradient>
        <linearGradient id="_Linear9" x1="0" y1="0" x2="1" y2="0" gradientUnits="userSpaceOnUse" gradientTransform="matrix(-122.695,-335.09,335.09,-122.695,4344.85,7927.68)"><stop offset="0" style="stop-color:rgb(219,232,251);stop-opacity:1"/><stop offset="1" style="stop-color:rgb(23,99,205);stop-opacity:1"/></linearGradient>
        <linearGradient id="_Linear10" x1="0" y1="0" x2="1" y2="0" gradientUnits="userSpaceOnUse" gradientTransform="matrix(-30.4285,-529.517,529.517,-30.4285,4391.87,7877.72)"><stop offset="0" style="stop-color:rgb(14,62,128);stop-opacity:1"/><stop offset="1" style="stop-color:rgb(36,117,231);stop-opacity:1"/></linearGradient>
        <linearGradient id="_Linear11" x1="0" y1="0" x2="1" y2="0" gradientUnits="userSpaceOnUse" gradientTransform="matrix(25286.8,-3195.87,3195.87,25286.8,31459.5,25764.3)"><stop offset="0" style="stop-color:rgb(161,196,245);stop-opacity:1"/><stop offset="0.19" style="stop-color:rgb(111,164,239);stop-opacity:1"/><stop offset="0.4" style="stop-color:rgb(63,134,233);stop-opacity:1"/><stop offset="1" style="stop-color:rgb(42,121,231);stop-opacity:1"/></linearGradient>
    </defs>
</svg>
