<?xml version="1.0" encoding="UTF-8" standalone="no"?><!DOCTYPE svg PUBLIC "-//W3C//DTD SVG 1.1//EN" "http://www.w3.org/Graphics/SVG/1.1/DTD/svg11.dtd"><svg width="100%" height="100%" viewBox="0 0 2296 1749" version="1.1" xmlns="http://www.w3.org/2000/svg" xmlns:xlink="http://www.w3.org/1999/xlink" xml:space="preserve" xmlns:serif="http://www.serif.com/" style="fill-rule:evenodd;clip-rule:evenodd;stroke-linecap:round;stroke-linejoin:round;stroke-miterlimit:1.5;"><g id="final"><g><path d="M466.426,174.913l73.647,-141.732l-122.744,70.866l49.097,70.866Z" style="fill:url(#_Linear1);"/><path d="M417.329,245.78l49.097,-70.867l-49.097,-70.866l0,141.733Z" style="fill:url(#_Linear2);"/><path d="M540.073,316.646l-73.647,-141.733l-49.097,70.867l122.744,70.866Z" style="fill:url(#_Linear3);"/><path d="M540.073,316.646l36.823,-77.953l-110.47,-63.78l73.647,141.733Z" style="fill:url(#_Linear4);"/><path d="M662.816,245.78l-85.92,-7.087l-36.823,77.953l122.743,-70.866Z" style="fill:url(#_Linear5);"/><path d="M601.444,125.307l-24.548,113.386l-110.47,-63.78l135.018,-49.606Z" style="fill:url(#_Linear6);"/><path d="M540.073,33.181l61.371,92.126l-135.018,49.606l73.647,-141.732Z" style="fill:url(#_Linear7);"/><path d="M662.816,104.047l-61.372,21.26l-61.371,-92.126l122.743,70.866Z" style="fill:url(#_Linear8);"/><path d="M662.816,245.78l-61.372,-120.473l-24.548,113.386l85.92,7.087Z" style="fill:url(#_Linear9);"/><path d="M662.816,104.047l-61.372,21.26l61.372,120.473l0,-141.733Z" style="fill:url(#_Linear10);"/></g><g><path d="M454.152,182l85.921,-170.079l-141.156,81.496l55.235,88.583Z" style="fill:none;stroke:#fff;stroke-opacity:0.4;stroke-width:6px;"/><path d="M398.917,256.409l141.156,81.497l-85.921,-155.906l-55.235,74.409Z" style="fill:none;stroke:#fff;stroke-opacity:0.4;stroke-width:6px;"/><path d="M540.073,11.921l-85.921,170.079l159.567,-63.78l-73.646,-106.299Z" style="fill:none;stroke:#fff;stroke-opacity:0.4;stroke-width:6px;"/><path d="M398.917,256.409l55.235,-74.409l-55.235,-88.583l0,162.992Z" style="fill:none;stroke:#fff;stroke-opacity:0.4;stroke-width:6px;"/><path d="M576.896,252.866l36.823,-134.646l-159.567,63.78l122.744,70.866Z" style="fill:none;stroke:#fff;stroke-opacity:0.4;stroke-width:6px;"/><path d="M454.152,182l122.744,70.866l-36.823,85.04l-85.921,-155.906Z" style="fill:none;stroke:#fff;stroke-opacity:0.4;stroke-width:6px;"/><path d="M540.073,11.921l73.646,106.299l67.509,-24.803l-141.155,-81.496Z" style="fill:none;stroke:#fff;stroke-opacity:0.4;stroke-width:6px;"/><path d="M681.228,256.409l-67.509,-138.189l-36.823,134.646l104.332,3.543Z" style="fill:none;stroke:#fff;stroke-opacity:0.4;stroke-width:6px;"/><path d="M540.073,337.906l36.823,-85.04l104.332,3.543l-141.155,81.497Z" style="fill:none;stroke:#fff;stroke-opacity:0.4;stroke-width:6px;"/><path d="M681.228,93.417l0,162.992l-67.509,-138.189l67.509,-24.803Z" style="fill:none;stroke:#fff;stroke-opacity:0.4;stroke-width:6px;"/><path d="M540.073,11.921l141.155,81.496l0,162.992l-141.155,81.497l-141.156,-81.497l0,-162.992l141.156,-81.496Z" style="fill:none;stroke:#fff;stroke-opacity:0.4;stroke-width:6px;"/><circle cx="540.073" cy="11.921" r="9.921" style="fill:#fcfcfc;stroke:#fff;stroke-opacity:0.568627;stroke-width:4px;"/><circle cx="681.228" cy="256.409" r="9.921" style="fill:#fcfcfc;stroke:#fff;stroke-opacity:0.568627;stroke-width:4px;"/><circle cx="540.073" cy="337.906" r="9.921" style="fill:#fcfcfc;stroke:#fff;stroke-opacity:0.568627;stroke-width:4px;"/><circle cx="398.917" cy="256.409" r="9.921" style="fill:#fcfcfc;stroke:#fff;stroke-opacity:0.568627;stroke-width:4px;"/><circle cx="398.917" cy="93.417" r="9.921" style="fill:#fcfcfc;stroke:#fff;stroke-opacity:0.568627;stroke-width:4px;"/><circle cx="681.228" cy="93.417" r="9.921" style="fill:#fcfcfc;stroke:#fff;stroke-opacity:0.568627;stroke-width:4px;"/><circle cx="613.719" cy="118.22" r="12.756" style="fill:#fcfcfc;stroke:#fff;stroke-opacity:0.568627;stroke-width:5px;"/><circle cx="576.896" cy="252.866" r="12.756" style="fill:#fcfcfc;stroke:#fff;stroke-opacity:0.568627;stroke-width:5px;"/><circle cx="454.152" cy="182" r="12.756" style="fill:#fcfcfc;stroke:#fff;stroke-opacity:0.568627;stroke-width:5px;"/></g></g><path d="M368.231,274.126l171.842,99.213l171.841,-99.213l1583.39,0l0,1474.02l-2295.31,0l0,-1474.02l368.231,0Z" style="fill:url(#_Linear11);"/><text x="722.462px" y="247.713px" style="font-family:'IBMPlexSans', 'IBM Plex Sans', sans-serif;font-size:200px;fill:#fff;">SDUCloud</text><defs><linearGradient id="_Linear1" x1="0" y1="0" x2="1" y2="0" gradientUnits="userSpaceOnUse" gradientTransform="matrix(85.7479,-26.9821,26.9821,85.7479,434.129,99.833)"><stop offset="0" style="stop-color:#a1c4f5;stop-opacity:1"/><stop offset="1" style="stop-color:#2a79e7;stop-opacity:1"/></linearGradient><linearGradient id="_Linear2" x1="0" y1="0" x2="1" y2="0" gradientUnits="userSpaceOnUse" gradientTransform="matrix(38.195,-9.35352,9.35352,38.195,423.983,170.992)"><stop offset="0" style="stop-color:#649dee;stop-opacity:1"/><stop offset="1" style="stop-color:#b8d3f7;stop-opacity:1"/></linearGradient><linearGradient id="_Linear3" x1="0" y1="0" x2="1" y2="0" gradientUnits="userSpaceOnUse" gradientTransform="matrix(-67.5091,-62.606,62.606,-67.5091,515.524,290.669)"><stop offset="0" style="stop-color:#124fa3;stop-opacity:1"/><stop offset="1" style="stop-color:#1764d1;stop-opacity:1"/></linearGradient><linearGradient id="_Linear4" x1="0" y1="0" x2="1" y2="0" gradientUnits="userSpaceOnUse" gradientTransform="matrix(66.6834,-3.73087,3.73087,66.6834,503.5,252.722)"><stop offset="0" style="stop-color:#124fa3;stop-opacity:1"/><stop offset="0.58" style="stop-color:#1b5ab1;stop-opacity:1"/><stop offset="0.8" style="stop-color:#2e71ce;stop-opacity:1"/><stop offset="1" style="stop-color:#4087ea;stop-opacity:1"/></linearGradient><linearGradient id="_Linear5" x1="0" y1="0" x2="1" y2="0" gradientUnits="userSpaceOnUse" gradientTransform="matrix(106.835,-56.7082,56.7082,106.835,555.67,288.394)"><stop offset="0" style="stop-color:#2f7ce8;stop-opacity:1"/><stop offset="1" style="stop-color:#a7c7f5;stop-opacity:1"/></linearGradient><linearGradient id="_Linear6" x1="0" y1="0" x2="1" y2="0" gradientUnits="userSpaceOnUse" gradientTransform="matrix(5.04797e-15,-82.4396,82.4396,5.04797e-15,564.621,222.571)"><stop offset="0" style="stop-color:#5494ec;stop-opacity:1"/><stop offset="0.46" style="stop-color:#2366c4;stop-opacity:1"/><stop offset="1" style="stop-color:#1559b9;stop-opacity:1"/></linearGradient><linearGradient id="_Linear7" x1="0" y1="0" x2="1" y2="0" gradientUnits="userSpaceOnUse" gradientTransform="matrix(42.658,-100.531,100.531,42.658,503.56,153.474)"><stop offset="0" style="stop-color:#1e71e6;stop-opacity:1"/><stop offset="1" style="stop-color:#10448d;stop-opacity:1"/></linearGradient><linearGradient id="_Linear8" x1="0" y1="0" x2="1" y2="0" gradientUnits="userSpaceOnUse" gradientTransform="matrix(97.8841,51.1652,-51.1652,97.8841,564.621,53.4205)"><stop offset="0" style="stop-color:#124ea2;stop-opacity:1"/><stop offset="1" style="stop-color:#4086ea;stop-opacity:1"/></linearGradient><linearGradient id="_Linear9" x1="0" y1="0" x2="1" y2="0" gradientUnits="userSpaceOnUse" gradientTransform="matrix(-29.4468,-80.4216,80.4216,-29.4468,637.028,230.532)"><stop offset="0" style="stop-color:#dbe8fb;stop-opacity:1"/><stop offset="1" style="stop-color:#1763cd;stop-opacity:1"/></linearGradient><linearGradient id="_Linear10" x1="0" y1="0" x2="1" y2="0" gradientUnits="userSpaceOnUse" gradientTransform="matrix(-7.30285,-127.084,127.084,-7.30285,648.312,218.541)"><stop offset="0" style="stop-color:#0e3e80;stop-opacity:1"/><stop offset="1" style="stop-color:#2475e7;stop-opacity:1"/></linearGradient><linearGradient id="_Linear11" x1="0" y1="0" x2="1" y2="0" gradientUnits="userSpaceOnUse" gradientTransform="matrix(2167.2,1177.29,-1177.29,2167.2,51.0105,377.986)"><stop offset="0" style="stop-color:#1e71e6;stop-opacity:0"/><stop offset="0.47" style="stop-color:#1a64cd;stop-opacity:0"/><stop offset="1" style="stop-color:#10448d;stop-opacity:0"/></linearGradient></defs></svg>