<?xml version="1.0" encoding="UTF-8" standalone="no"?>
<!DOCTYPE svg PUBLIC "-//W3C//DTD SVG 1.1//EN" "http://www.w3.org/Graphics/SVG/1.1/DTD/svg11.dtd">
<svg width="100%" height="100%" viewBox="0 0 5142 613" version="1.1" xmlns="http://www.w3.org/2000/svg" xmlns:xlink="http://www.w3.org/1999/xlink" xml:space="preserve" xmlns:serif="http://www.serif.com/" style="fill-rule:evenodd;clip-rule:evenodd;stroke-miterlimit:10;">
    <g transform="matrix(1,0,0,1,1648.7,-1708.85)">
        <g transform="matrix(2,0,0,2,0,1339.37)">
            <g transform="matrix(1,0,0,1,482.581,28.377)">
                <path d="M0,443.22C-10.479,434.871 -196.242,359.596 -376.004,457.777C-453.935,360.954 -651.008,106.382 -1301.91,207.61C-1301.91,207.61 -655.242,19.128 -361.698,403.377C-361.698,403.377 -210.276,323.043 -31.239,388.792C-31.239,388.792 2.985,261.416 154.093,209.514C317.821,153.283 451.211,273.59 451.211,273.59C455.512,270.594 846.006,-14.557 1258.63,369.71C1258.63,369.71 846.234,32.222 446.251,332.021C446.251,332.021 341.37,198.582 174.683,247.75C29.612,290.539 1.71,430.564 0,443.22Z" style="fill:none;fill-rule:nonzero;stroke:rgb(190,215,48);stroke-width:1px;"/>
            </g>
        </g>
    </g>
</svg>
