<?xml version="1.0" encoding="utf-8"?>
<!-- Generator: Adobe Illustrator 26.0.3, SVG Export Plug-In . SVG Version: 6.00 Build 0)  -->
<svg version="1.1" id="Lager_1" xmlns="http://www.w3.org/2000/svg" xmlns:xlink="http://www.w3.org/1999/xlink" x="0px" y="0px"
	 viewBox="0 0 320 96.28" style="enable-background:new 0 0 320 96.28;" xml:space="preserve">
<style type="text/css">
	.st0{fill:#FFFFFF;}
	.st1{fill:#003399;}
	.st2{fill:#FFCC00;}
</style>
<g>
	<path class="st0" d="M98.73,31.98c1.53,0,2.56,0.97,2.96,2.46c1.36,0.12,2.7,0.26,4.02,0.4c-0.56-3.4-2.79-6.17-6.98-6.17
		c-3.34,0-5.89,2.11-6.83,5.03c1.34,0.08,2.67,0.17,3.99,0.27C96.41,32.73,97.39,31.98,98.73,31.98"/>
	<path class="st0" d="M91.5,36.31c0,4.46,3.25,7.54,7.64,7.54c2.65,0,4.61-1.04,5.98-2.72l-2.37-2.1c-1.15,1.06-2.16,1.5-3.55,1.5
		c-1.86,0-3.17-0.98-3.58-2.86h10.18c0.03-0.38,0.05-0.76,0.05-1.09c0-0.59-0.05-1.17-0.14-1.74c-1.32-0.14-2.66-0.27-4.02-0.4
		c0.05,0.21,0.1,0.42,0.13,0.64h-6.25c0.07-0.41,0.18-0.78,0.33-1.12c-1.32-0.1-2.65-0.18-3.99-0.27c-0.26,0.8-0.4,1.66-0.4,2.55
		V36.31z"/>
	<path class="st0" d="M20.6,24.47h-4.2v12.88c1.37-0.26,2.77-0.51,4.2-0.74V24.47z"/>
	<path class="st0" d="M46.29,32.47h3.44v-3.54h-3.44v-3.73h-4.15v3.73H40.4v3.54h1.75v1.6c1.37-0.11,2.75-0.2,4.15-0.29V32.47z"/>
	<path class="st0" d="M59.32,31.98c1.02,0,1.81,0.43,2.35,1.15c1.38-0.03,2.77-0.05,4.16-0.07c-0.96-2.54-3.08-4.4-6.51-4.4
		c-3.24,0-5.73,1.99-6.74,4.77c1.42-0.07,2.84-0.12,4.28-0.17C57.41,32.45,58.25,31.98,59.32,31.98"/>
	<path class="st0" d="M76.92,33.11c0.37-0.08,0.77-0.12,1.2-0.12h0.22v-4.33c-2.46-0.11-3.82,1.2-4.67,3.21v-2.94h-4.15v4.11
		c0.08,0,0.15,0,0.23,0C72.16,33.04,74.55,33.07,76.92,33.11"/>
	<path class="st0" d="M89.53,32.99h0.22v-4.33c-2.46-0.11-3.82,1.2-4.67,3.21v-2.94h-4.15v4.27c2.16,0.06,4.29,0.14,6.41,0.24
		C87.96,33.14,88.7,32.99,89.53,32.99"/>
	<path class="st0" d="M111.89,35.52v-0.05c0-1.98,1.53-3.37,3.55-3.37c2.02,0,3.58,1.39,3.58,3.37v0.05c0,0.38-0.06,0.74-0.17,1.08
		c1.45,0.24,2.88,0.49,4.26,0.75v-8.41h-4.15v1.9c-1.12-1.22-2.46-2.18-4.72-2.18c-3.25,0-6.29,2.3-6.48,6.4
		c1.4,0.16,2.78,0.33,4.13,0.51C111.89,35.55,111.89,35.53,111.89,35.52"/>
	<path class="st0" d="M30.18,32.5c0.27-0.13,0.88-0.26,1.18-0.26c0.3,0,0.91,0.13,1.18,0.26c1.06,0.5,1.53,1.25,1.67,2.29
		c1.32-0.14,2.65-0.27,4-0.39c-0.46-2.12-1.74-3.91-3.71-4.91c-0.9-0.46-1.95-0.83-3.14-0.83c-1.19,0-2.24,0.38-3.14,0.83
		c-2.45,1.24-3.83,3.72-3.9,6.53c1.36-0.2,2.74-0.39,4.14-0.57C28.47,34.05,28.91,33.1,30.18,32.5"/>
	<path class="st0" d="M20.6,43.52V36.6c-1.43,0.24-2.84,0.48-4.2,0.74v6.17H20.6z"/>
	<path class="st0" d="M46.4,43.76c1.39,0,2.4-0.33,3.28-0.84V39.6c-0.6,0.33-1.28,0.52-2.05,0.52c-0.93,0-1.34-0.46-1.34-1.41v-4.92
		c-1.4,0.09-2.78,0.19-4.15,0.29v5.31C42.15,42.75,43.87,43.76,46.4,43.76"/>
	<path class="st0" d="M52.08,36.31c0,4.46,3.25,7.54,7.64,7.54c2.65,0,4.61-1.04,5.98-2.72l-2.37-2.1c-1.15,1.06-2.16,1.5-3.55,1.5
		c-1.86,0-3.17-0.98-3.58-2.86h10.18c0.03-0.38,0.06-0.76,0.06-1.09c0-1.23-0.2-2.43-0.61-3.51c-1.39,0.01-2.78,0.04-4.16,0.07
		c0.38,0.52,0.63,1.18,0.74,1.95h-6.25c0.12-0.71,0.36-1.33,0.7-1.82c-1.44,0.05-2.86,0.1-4.28,0.17c-0.32,0.87-0.49,1.83-0.49,2.82
		V36.31z"/>
	<path class="st0" d="M73.67,43.52v-5.39c0-2.94,1.21-4.58,3.25-5.02c-2.37-0.04-4.76-0.07-7.17-0.07c-0.08,0-0.15,0-0.23,0v10.47
		H73.67z"/>
	<path class="st0" d="M85.08,43.52v-5.39c0-2.43,0.82-3.97,2.26-4.68c-2.11-0.1-4.25-0.18-6.41-0.24v10.31H85.08z"/>
	<path class="st0" d="M107.74,35.52c0,4.33,3.08,6.8,6.5,6.8c2.21,0,3.55-0.9,4.78-2.37v0.71c0,2.61-1.34,3.97-4.18,3.97
		c-1.94,0-3.44-0.49-4.94-1.33l-1.42,3.1c1.86,0.98,4.09,1.52,6.47,1.52c2.84,0,4.94-0.6,6.3-1.96c1.23-1.23,1.86-3.13,1.86-5.74
		v-2.88c-1.38-0.26-2.81-0.51-4.26-0.75c-0.45,1.39-1.78,2.3-3.41,2.3c-2,0-3.52-1.34-3.55-3.32c-1.36-0.18-2.73-0.35-4.13-0.51
		c-0.01,0.13-0.02,0.26-0.02,0.4V35.52z"/>
	<path class="st0" d="M34.26,35.49v1.42v6.07v0.53h4.15V36.3v-0.05c0-0.64-0.07-1.25-0.2-1.85c-1.35,0.12-2.68,0.25-4,0.39
		C34.24,35.01,34.26,35.24,34.26,35.49"/>
	<path class="st0" d="M24.31,36.3v7.21h4.15v-0.53v-6.06v-1.42c0-0.01,0-0.02,0-0.04c-1.41,0.18-2.79,0.37-4.14,0.57
		c0,0.07-0.01,0.15-0.01,0.22V36.3z"/>
	<rect x="138.98" y="15.82" class="st1" width="50.24" height="33.74"/>
	<path class="st0" d="M188.69,49.03H139.5V16.34h49.19V49.03z M189.75,15.29h-1.05H139.5h-1.05v1.05v32.69v1.05h1.05h49.19h1.05
		v-1.05V16.34V15.29z"/>
	<polygon class="st2" points="172.99,26.84 173.39,25.6 173.79,26.84 175.09,26.84 174.04,27.6 174.43,28.82 173.39,28.06 
		172.35,28.82 172.75,27.6 171.7,26.84 	"/>
	<polygon class="st2" points="163.69,21.49 164.09,20.25 164.49,21.49 165.79,21.49 164.73,22.25 165.13,23.47 164.09,22.71 
		163.05,23.47 163.45,22.25 162.39,21.49 	"/>
	<polygon class="st2" points="151.65,32.2 152.95,32.21 153.34,30.97 153.74,32.2 155.04,32.2 153.99,32.96 154.38,34.18 
		153.34,33.42 152.31,34.18 152.7,32.96 	"/>
	<polygon class="st2" points="155.83,39.54 154.79,38.79 153.75,39.54 154.15,38.32 153.09,37.57 154.39,37.57 154.79,36.33 
		155.19,37.57 156.48,37.57 155.43,38.32 	"/>
	<polygon class="st2" points="155.43,27.61 155.82,28.83 154.79,28.08 153.75,28.83 154.15,27.61 153.09,26.86 154.39,26.86 
		154.79,25.62 155.18,26.86 156.48,26.86 	"/>
	<polygon class="st2" points="158.32,22.93 158.72,21.69 159.11,22.93 160.41,22.93 159.36,23.69 159.75,24.91 158.72,24.15 
		157.68,24.91 158.07,23.69 157.02,22.93 	"/>
	<polygon class="st2" points="159.76,43.47 158.72,42.71 157.69,43.47 158.08,42.25 157.03,41.49 158.33,41.49 158.72,40.26 
		159.12,41.49 160.42,41.49 159.37,42.25 	"/>
	<polygon class="st2" points="165.13,44.89 164.09,44.14 163.05,44.89 163.45,43.67 162.39,42.91 163.69,42.92 164.09,41.68 
		164.49,42.91 165.79,42.91 164.73,43.67 	"/>
	<polygon class="st2" points="170.49,43.47 169.45,42.71 168.42,43.47 168.81,42.25 167.76,41.49 169.06,41.49 169.45,40.26 
		169.85,41.49 171.15,41.49 170.1,42.25 	"/>
	<polygon class="st2" points="170.11,23.69 170.51,24.91 169.47,24.15 168.43,24.91 168.83,23.69 167.77,22.93 169.07,22.93 
		169.47,21.69 169.87,22.93 171.17,22.93 	"/>
	<polygon class="st2" points="174.43,39.54 173.39,38.79 172.35,39.54 172.75,38.32 171.7,37.57 172.99,37.57 173.39,36.33 
		173.79,37.57 175.09,37.57 174.04,38.32 	"/>
	<polygon class="st2" points="175.86,34.16 174.82,33.41 173.78,34.16 174.18,32.94 173.12,32.19 174.42,32.19 174.82,30.95 
		175.22,32.19 176.52,32.19 175.46,32.94 	"/>
</g>
<g>
	<path class="st0" d="M202.42,27l1.59,0.5c-0.24,0.88-0.65,1.54-1.21,1.97c-0.57,0.43-1.28,0.64-2.15,0.64
		c-1.08,0-1.96-0.37-2.66-1.1c-0.69-0.73-1.04-1.74-1.04-3.01c0-1.35,0.35-2.39,1.05-3.13c0.7-0.74,1.61-1.12,2.75-1.12
		c0.99,0,1.8,0.29,2.42,0.88c0.37,0.35,0.65,0.84,0.83,1.49l-1.62,0.39c-0.1-0.42-0.3-0.75-0.6-0.99s-0.67-0.36-1.11-0.36
		c-0.6,0-1.09,0.21-1.46,0.65c-0.37,0.43-0.56,1.13-0.56,2.09c0,1.02,0.18,1.75,0.55,2.18s0.85,0.65,1.44,0.65
		c0.44,0,0.81-0.14,1.12-0.41C202.06,28.03,202.28,27.59,202.42,27z"/>
	<path class="st0" d="M205.04,26.96c0-0.51,0.13-1.01,0.38-1.49c0.25-0.48,0.62-0.85,1.08-1.1c0.47-0.25,0.99-0.38,1.56-0.38
		c0.89,0,1.62,0.29,2.18,0.86c0.57,0.58,0.85,1.3,0.85,2.18c0,0.89-0.29,1.62-0.86,2.2c-0.57,0.58-1.29,0.87-2.17,0.87
		c-0.54,0-1.05-0.12-1.54-0.36c-0.49-0.24-0.86-0.6-1.11-1.07C205.17,28.2,205.04,27.63,205.04,26.96z M206.63,27.04
		c0,0.58,0.14,1.03,0.42,1.33c0.28,0.31,0.62,0.46,1.02,0.46c0.41,0,0.75-0.15,1.02-0.46c0.27-0.31,0.41-0.76,0.41-1.35
		c0-0.57-0.14-1.01-0.41-1.32c-0.27-0.31-0.61-0.46-1.02-0.46c-0.41,0-0.75,0.15-1.02,0.46C206.77,26.02,206.63,26.46,206.63,27.04z
		"/>
	<path class="st0" d="M212.14,27.82v-1.55h3.05v1.55H212.14z"/>
	<path class="st0" d="M215.41,24.12h0.86v-0.44c0-0.49,0.05-0.86,0.16-1.1s0.3-0.44,0.58-0.59s0.64-0.23,1.07-0.23
		c0.44,0,0.88,0.07,1.3,0.2l-0.21,1.08c-0.25-0.06-0.49-0.09-0.71-0.09c-0.22,0-0.39,0.05-0.48,0.16s-0.15,0.31-0.15,0.6v0.41h1.16
		v1.22h-1.16v4.64h-1.55v-4.64h-0.86V24.12z"/>
	<path class="st0" d="M223.73,29.97V29.1c-0.21,0.31-0.5,0.56-0.84,0.74c-0.35,0.18-0.72,0.27-1.1,0.27c-0.39,0-0.75-0.09-1.06-0.26
		c-0.31-0.17-0.54-0.42-0.68-0.73s-0.21-0.74-0.21-1.3v-3.71h1.55v2.69c0,0.82,0.03,1.33,0.09,1.51s0.16,0.33,0.31,0.44
		c0.15,0.11,0.34,0.16,0.58,0.16c0.27,0,0.5-0.07,0.71-0.22c0.21-0.15,0.35-0.33,0.43-0.54c0.08-0.21,0.12-0.74,0.12-1.58v-2.47
		h1.55v5.86H223.73z"/>
	<path class="st0" d="M232.13,29.97h-1.55v-2.99c0-0.63-0.03-1.04-0.1-1.23s-0.17-0.33-0.32-0.43c-0.15-0.1-0.33-0.15-0.54-0.15
		c-0.27,0-0.51,0.07-0.72,0.22c-0.21,0.15-0.36,0.34-0.44,0.58c-0.08,0.24-0.12,0.69-0.12,1.35v2.65h-1.55v-5.86h1.44v0.86
		c0.51-0.66,1.16-0.99,1.94-0.99c0.34,0,0.66,0.06,0.94,0.19c0.28,0.12,0.5,0.28,0.64,0.47c0.15,0.19,0.25,0.41,0.3,0.65
		c0.06,0.24,0.09,0.59,0.09,1.04V29.97z"/>
	<path class="st0" d="M239.09,29.97h-1.44v-0.86c-0.24,0.33-0.52,0.58-0.85,0.75c-0.33,0.16-0.66,0.25-0.99,0.25
		c-0.67,0-1.25-0.27-1.73-0.81c-0.48-0.54-0.72-1.3-0.72-2.27c0-0.99,0.23-1.75,0.7-2.26c0.47-0.52,1.06-0.77,1.78-0.77
		c0.66,0,1.22,0.27,1.7,0.82v-2.91h1.55V29.97z M234.94,26.92c0,0.62,0.09,1.08,0.26,1.36c0.25,0.4,0.6,0.61,1.05,0.61
		c0.36,0,0.66-0.15,0.91-0.45c0.25-0.3,0.38-0.76,0.38-1.36c0-0.67-0.12-1.16-0.36-1.45c-0.24-0.3-0.56-0.44-0.94-0.44
		c-0.37,0-0.68,0.15-0.93,0.44C235.07,25.9,234.94,26.34,234.94,26.92z"/>
	<path class="st0" d="M244.02,28.11l1.55,0.26c-0.2,0.57-0.51,1-0.94,1.29s-0.97,0.44-1.61,0.44c-1.02,0-1.78-0.33-2.27-1
		c-0.39-0.53-0.58-1.21-0.58-2.02c0-0.97,0.25-1.73,0.76-2.28c0.51-0.55,1.15-0.82,1.93-0.82c0.87,0,1.56,0.29,2.07,0.86
		c0.51,0.58,0.75,1.46,0.72,2.64h-3.89c0.01,0.46,0.14,0.82,0.38,1.07s0.54,0.38,0.9,0.38c0.24,0,0.45-0.07,0.61-0.2
		S243.94,28.4,244.02,28.11z M244.11,26.54c-0.01-0.45-0.13-0.79-0.35-1.02s-0.49-0.35-0.81-0.35c-0.34,0-0.62,0.12-0.84,0.37
		c-0.22,0.25-0.33,0.58-0.33,1H244.11z"/>
	<path class="st0" d="M252.31,29.97h-1.44v-0.86c-0.24,0.33-0.52,0.58-0.85,0.75c-0.33,0.16-0.66,0.25-0.99,0.25
		c-0.67,0-1.25-0.27-1.73-0.81c-0.48-0.54-0.72-1.3-0.72-2.27c0-0.99,0.23-1.75,0.7-2.26c0.47-0.52,1.06-0.77,1.78-0.77
		c0.66,0,1.22,0.27,1.7,0.82v-2.91h1.55V29.97z M248.16,26.92c0,0.62,0.09,1.08,0.26,1.36c0.25,0.4,0.6,0.61,1.05,0.61
		c0.36,0,0.66-0.15,0.91-0.45c0.25-0.3,0.38-0.76,0.38-1.36c0-0.67-0.12-1.16-0.36-1.45c-0.24-0.3-0.56-0.44-0.94-0.44
		c-0.37,0-0.68,0.15-0.93,0.44C248.29,25.9,248.16,26.34,248.16,26.92z"/>
	<path class="st0" d="M256.92,29.97v-8.08h1.55v2.91c0.48-0.54,1.05-0.82,1.7-0.82c0.72,0,1.31,0.26,1.78,0.77
		c0.47,0.52,0.7,1.26,0.7,2.22c0,1-0.24,1.77-0.72,2.31c-0.48,0.54-1.06,0.81-1.74,0.81c-0.34,0-0.67-0.08-0.99-0.25
		c-0.33-0.17-0.61-0.41-0.84-0.74v0.86H256.92z M258.47,26.92c0,0.61,0.1,1.06,0.29,1.35c0.27,0.41,0.63,0.62,1.07,0.62
		c0.34,0,0.64-0.15,0.88-0.44c0.24-0.29,0.36-0.75,0.36-1.38c0-0.67-0.12-1.15-0.37-1.45s-0.56-0.44-0.93-0.44
		c-0.37,0-0.68,0.14-0.93,0.43C258.59,25.89,258.47,26.33,258.47,26.92z"/>
	<path class="st0" d="M263.17,24.12h1.65l1.4,4.16l1.37-4.16h1.61l-2.07,5.63l-0.37,1.02c-0.14,0.34-0.27,0.6-0.39,0.78
		c-0.12,0.18-0.27,0.33-0.43,0.44c-0.16,0.11-0.36,0.2-0.59,0.26c-0.23,0.06-0.5,0.09-0.79,0.09c-0.3,0-0.59-0.03-0.88-0.09
		l-0.14-1.21c0.24,0.05,0.46,0.07,0.66,0.07c0.36,0,0.63-0.11,0.8-0.32s0.31-0.48,0.4-0.81L263.17,24.12z"/>
</g>
<g>
	<path class="st0" d="M200.25,37.67v1.24h-1.06v2.36c0,0.48,0.01,0.76,0.03,0.84c0.02,0.08,0.07,0.14,0.14,0.2
		c0.07,0.05,0.16,0.08,0.26,0.08c0.14,0,0.35-0.05,0.62-0.15l0.13,1.2c-0.36,0.15-0.77,0.23-1.23,0.23c-0.28,0-0.53-0.05-0.76-0.14
		c-0.23-0.09-0.39-0.21-0.5-0.36s-0.18-0.35-0.22-0.6c-0.03-0.18-0.05-0.54-0.05-1.09V38.9h-0.71v-1.24h0.71V36.5l1.56-0.9v2.07
		H200.25z"/>
	<path class="st0" d="M202.88,35.44v2.97c0.5-0.58,1.1-0.88,1.8-0.88c0.36,0,0.68,0.07,0.97,0.2s0.5,0.3,0.65,0.51
		c0.15,0.21,0.25,0.43,0.3,0.68c0.05,0.25,0.08,0.64,0.08,1.16v3.44h-1.55v-3.09c0-0.61-0.03-1-0.09-1.17
		c-0.06-0.17-0.16-0.3-0.31-0.39c-0.15-0.1-0.34-0.15-0.56-0.15c-0.26,0-0.49,0.06-0.69,0.19c-0.2,0.12-0.35,0.31-0.45,0.56
		c-0.09,0.25-0.14,0.62-0.14,1.12v2.93h-1.55v-8.08H202.88z"/>
	<path class="st0" d="M211.65,41.66l1.55,0.26c-0.2,0.57-0.51,1-0.94,1.29s-0.97,0.44-1.61,0.44c-1.02,0-1.78-0.33-2.27-1
		c-0.39-0.53-0.58-1.21-0.58-2.02c0-0.97,0.25-1.73,0.76-2.28c0.51-0.55,1.15-0.82,1.93-0.82c0.87,0,1.56,0.29,2.07,0.86
		c0.51,0.58,0.75,1.46,0.72,2.64h-3.89c0.01,0.46,0.14,0.82,0.38,1.07s0.54,0.38,0.9,0.38c0.24,0,0.45-0.07,0.61-0.2
		S211.57,41.95,211.65,41.66z M211.74,40.09c-0.01-0.45-0.13-0.79-0.35-1.02s-0.49-0.35-0.81-0.35c-0.34,0-0.62,0.12-0.84,0.37
		c-0.22,0.25-0.33,0.58-0.33,1H211.74z"/>
	<path class="st0" d="M217.71,43.52v-8.08h6.01v1.37h-4.38v1.79h4.07v1.36h-4.07v2.2h4.53v1.36H217.71z"/>
	<path class="st0" d="M229.12,43.52v-0.88c-0.21,0.31-0.5,0.56-0.84,0.74c-0.35,0.18-0.72,0.27-1.1,0.27
		c-0.39,0-0.75-0.09-1.06-0.26c-0.31-0.17-0.54-0.42-0.68-0.73s-0.21-0.74-0.21-1.3v-3.71h1.55v2.69c0,0.82,0.03,1.33,0.09,1.51
		s0.16,0.33,0.31,0.44c0.15,0.11,0.34,0.16,0.58,0.16c0.27,0,0.5-0.07,0.71-0.22c0.21-0.15,0.35-0.33,0.43-0.54
		c0.08-0.21,0.12-0.74,0.12-1.58v-2.47h1.55v5.86H229.12z"/>
	<path class="st0" d="M233.66,43.52h-1.55v-5.86h1.44v0.83c0.25-0.39,0.47-0.65,0.67-0.78s0.42-0.19,0.67-0.19
		c0.35,0,0.69,0.1,1.02,0.29l-0.48,1.35c-0.26-0.17-0.51-0.25-0.73-0.25c-0.22,0-0.4,0.06-0.55,0.18c-0.15,0.12-0.27,0.34-0.36,0.65
		c-0.09,0.31-0.13,0.97-0.13,1.96V43.52z"/>
	<path class="st0" d="M236.22,40.51c0-0.51,0.13-1.01,0.38-1.49c0.25-0.48,0.62-0.85,1.08-1.1c0.47-0.25,0.99-0.38,1.56-0.38
		c0.89,0,1.62,0.29,2.18,0.86c0.57,0.58,0.85,1.3,0.85,2.18c0,0.89-0.29,1.62-0.86,2.2c-0.57,0.58-1.29,0.87-2.17,0.87
		c-0.54,0-1.05-0.12-1.54-0.36c-0.49-0.24-0.86-0.6-1.11-1.07C236.35,41.75,236.22,41.18,236.22,40.51z M237.81,40.59
		c0,0.58,0.14,1.03,0.42,1.33c0.28,0.31,0.62,0.46,1.02,0.46c0.41,0,0.75-0.15,1.02-0.46c0.27-0.31,0.41-0.76,0.41-1.35
		c0-0.57-0.14-1.01-0.41-1.32c-0.27-0.31-0.61-0.46-1.02-0.46c-0.41,0-0.75,0.15-1.02,0.46C237.95,39.57,237.81,40.01,237.81,40.59z
		"/>
	<path class="st0" d="M243.46,37.67h1.45v0.86c0.19-0.29,0.44-0.53,0.76-0.72s0.68-0.28,1.07-0.28c0.68,0,1.26,0.27,1.74,0.8
		c0.48,0.53,0.71,1.28,0.71,2.23c0,0.98-0.24,1.74-0.72,2.28c-0.48,0.54-1.06,0.81-1.74,0.81c-0.32,0-0.62-0.06-0.88-0.19
		c-0.26-0.13-0.54-0.35-0.83-0.66v2.95h-1.55V37.67z M244.99,40.49c0,0.66,0.13,1.14,0.39,1.46c0.26,0.31,0.58,0.47,0.96,0.47
		c0.36,0,0.66-0.14,0.9-0.43s0.36-0.76,0.36-1.42c0-0.61-0.12-1.07-0.37-1.37c-0.25-0.3-0.55-0.45-0.92-0.45
		c-0.38,0-0.7,0.15-0.95,0.44C245.12,39.49,244.99,39.92,244.99,40.49z"/>
	<path class="st0" d="M253.82,41.66l1.55,0.26c-0.2,0.57-0.51,1-0.94,1.29s-0.97,0.44-1.61,0.44c-1.02,0-1.78-0.33-2.27-1
		c-0.39-0.53-0.58-1.21-0.58-2.02c0-0.97,0.25-1.73,0.76-2.28c0.51-0.55,1.15-0.82,1.93-0.82c0.87,0,1.56,0.29,2.07,0.86
		c0.51,0.58,0.75,1.46,0.72,2.64h-3.89c0.01,0.46,0.14,0.82,0.38,1.07s0.54,0.38,0.9,0.38c0.24,0,0.45-0.07,0.61-0.2
		S253.74,41.95,253.82,41.66z M253.91,40.09c-0.01-0.45-0.13-0.79-0.35-1.02s-0.49-0.35-0.81-0.35c-0.34,0-0.62,0.12-0.84,0.37
		c-0.22,0.25-0.33,0.58-0.33,1H253.91z"/>
	<path class="st0" d="M257.88,39.45l-1.41-0.25c0.16-0.57,0.43-0.98,0.82-1.26s0.96-0.41,1.73-0.41c0.69,0,1.21,0.08,1.55,0.25
		c0.34,0.16,0.58,0.37,0.72,0.62c0.14,0.25,0.21,0.71,0.21,1.39l-0.02,1.81c0,0.51,0.02,0.89,0.07,1.14s0.14,0.51,0.28,0.79h-1.54
		c-0.04-0.1-0.09-0.26-0.15-0.46c-0.03-0.09-0.04-0.15-0.06-0.18c-0.27,0.26-0.55,0.45-0.85,0.58c-0.3,0.13-0.62,0.19-0.97,0.19
		c-0.6,0-1.08-0.16-1.43-0.49c-0.35-0.33-0.52-0.74-0.52-1.24c0-0.33,0.08-0.63,0.24-0.88s0.38-0.46,0.67-0.6
		c0.29-0.14,0.7-0.26,1.24-0.36c0.73-0.14,1.23-0.26,1.51-0.38v-0.15c0-0.3-0.07-0.51-0.22-0.64c-0.15-0.13-0.43-0.19-0.83-0.19
		c-0.28,0-0.49,0.05-0.65,0.16S257.98,39.18,257.88,39.45z M259.96,40.71c-0.2,0.07-0.51,0.15-0.95,0.24
		c-0.43,0.09-0.71,0.18-0.85,0.27c-0.2,0.14-0.3,0.33-0.3,0.55c0,0.22,0.08,0.4,0.24,0.56c0.16,0.16,0.37,0.24,0.62,0.24
		c0.28,0,0.55-0.09,0.8-0.28c0.19-0.14,0.31-0.31,0.37-0.51c0.04-0.13,0.06-0.38,0.06-0.76V40.71z"/>
	<path class="st0" d="M268.36,43.52h-1.55v-2.99c0-0.63-0.03-1.04-0.1-1.23s-0.17-0.33-0.32-0.43c-0.15-0.1-0.33-0.15-0.54-0.15
		c-0.27,0-0.51,0.07-0.72,0.22c-0.21,0.15-0.36,0.34-0.44,0.58c-0.08,0.24-0.12,0.69-0.12,1.35v2.65h-1.55v-5.86h1.44v0.86
		c0.51-0.66,1.16-0.99,1.94-0.99c0.34,0,0.66,0.06,0.94,0.19c0.28,0.12,0.5,0.28,0.64,0.47c0.15,0.19,0.25,0.41,0.3,0.65
		c0.06,0.24,0.09,0.59,0.09,1.04V43.52z"/>
	<path class="st0" d="M273.09,35.44h1.64v4.38c0,0.69,0.02,1.15,0.06,1.35c0.07,0.33,0.24,0.6,0.5,0.8c0.26,0.2,0.62,0.3,1.08,0.3
		c0.46,0,0.81-0.09,1.05-0.28c0.24-0.19,0.38-0.42,0.43-0.7c0.05-0.28,0.07-0.73,0.07-1.37v-4.47h1.64v4.25
		c0,0.97-0.04,1.66-0.13,2.06c-0.09,0.4-0.25,0.74-0.49,1.01c-0.24,0.28-0.56,0.5-0.95,0.66c-0.4,0.16-0.92,0.25-1.56,0.25
		c-0.77,0-1.36-0.09-1.76-0.27c-0.4-0.18-0.72-0.41-0.95-0.69s-0.39-0.58-0.46-0.9c-0.11-0.46-0.16-1.15-0.16-2.05V35.44z"/>
	<path class="st0" d="M286.61,43.52h-1.55v-2.99c0-0.63-0.03-1.04-0.1-1.23s-0.17-0.33-0.32-0.43c-0.15-0.1-0.33-0.15-0.54-0.15
		c-0.27,0-0.51,0.07-0.72,0.22c-0.21,0.15-0.36,0.34-0.44,0.58c-0.08,0.24-0.12,0.69-0.12,1.35v2.65h-1.55v-5.86h1.44v0.86
		c0.51-0.66,1.16-0.99,1.94-0.99c0.34,0,0.66,0.06,0.94,0.19c0.28,0.12,0.5,0.28,0.64,0.47c0.15,0.19,0.25,0.41,0.3,0.65
		c0.06,0.24,0.09,0.59,0.09,1.04V43.52z"/>
	<path class="st0" d="M288.19,36.87v-1.43h1.55v1.43H288.19z M288.19,43.52v-5.86h1.55v5.86H288.19z"/>
	<path class="st0" d="M290.97,40.51c0-0.51,0.13-1.01,0.38-1.49c0.25-0.48,0.62-0.85,1.08-1.1c0.47-0.25,0.99-0.38,1.56-0.38
		c0.89,0,1.62,0.29,2.18,0.86c0.57,0.58,0.85,1.3,0.85,2.18c0,0.89-0.29,1.62-0.86,2.2c-0.57,0.58-1.29,0.87-2.17,0.87
		c-0.54,0-1.05-0.12-1.54-0.36c-0.49-0.24-0.86-0.6-1.11-1.07C291.1,41.75,290.97,41.18,290.97,40.51z M292.57,40.59
		c0,0.58,0.14,1.03,0.42,1.33c0.28,0.31,0.62,0.46,1.02,0.46c0.41,0,0.75-0.15,1.02-0.46c0.27-0.31,0.41-0.76,0.41-1.35
		c0-0.57-0.14-1.01-0.41-1.32c-0.27-0.31-0.61-0.46-1.02-0.46c-0.41,0-0.75,0.15-1.02,0.46C292.7,39.57,292.57,40.01,292.57,40.59z"
		/>
	<path class="st0" d="M303.6,43.52h-1.55v-2.99c0-0.63-0.03-1.04-0.1-1.23s-0.17-0.33-0.32-0.43c-0.15-0.1-0.33-0.15-0.54-0.15
		c-0.27,0-0.51,0.07-0.72,0.22c-0.21,0.15-0.36,0.34-0.44,0.58c-0.08,0.24-0.12,0.69-0.12,1.35v2.65h-1.55v-5.86h1.44v0.86
		c0.51-0.66,1.16-0.99,1.94-0.99c0.34,0,0.66,0.06,0.94,0.19c0.28,0.12,0.5,0.28,0.64,0.47c0.15,0.19,0.25,0.41,0.3,0.65
		c0.06,0.24,0.09,0.59,0.09,1.04V43.52z"/>
</g>
<g>
	<g>
		<g>
			<path class="st0" d="M17.62,73.14c-0.65-0.35-1.15-0.83-1.52-1.44c-0.37-0.61-0.55-1.3-0.55-2.06c0-0.76,0.18-1.45,0.55-2.06
				c0.37-0.61,0.87-1.09,1.52-1.44c0.65-0.35,1.37-0.52,2.18-0.52c0.81,0,1.53,0.17,2.17,0.52c0.64,0.35,1.15,0.83,1.52,1.44
				c0.37,0.61,0.56,1.3,0.56,2.06c0,0.76-0.19,1.45-0.56,2.06c-0.37,0.61-0.88,1.09-1.52,1.44c-0.64,0.35-1.37,0.52-2.17,0.52
				C18.99,73.66,18.27,73.49,17.62,73.14z M21.04,71.82c0.37-0.21,0.66-0.5,0.87-0.88c0.21-0.38,0.32-0.81,0.32-1.29
				s-0.11-0.91-0.32-1.29c-0.21-0.38-0.5-0.67-0.87-0.88c-0.37-0.21-0.78-0.32-1.24-0.32s-0.87,0.11-1.24,0.32
				c-0.37,0.21-0.66,0.5-0.87,0.88c-0.21,0.38-0.32,0.81-0.32,1.29s0.11,0.91,0.32,1.29c0.21,0.38,0.5,0.67,0.87,0.88
				c0.37,0.21,0.78,0.32,1.24,0.32S20.67,72.03,21.04,71.82z M18.12,64.86c-0.15-0.14-0.22-0.33-0.22-0.55s0.07-0.4,0.22-0.55
				c0.15-0.14,0.33-0.22,0.55-0.22c0.22,0,0.41,0.07,0.55,0.22s0.22,0.33,0.22,0.55s-0.07,0.4-0.22,0.55
				c-0.14,0.14-0.33,0.22-0.55,0.22C18.46,65.08,18.27,65.01,18.12,64.86z M20.37,64.86c-0.14-0.14-0.22-0.33-0.22-0.55
				s0.07-0.4,0.22-0.55c0.14-0.14,0.33-0.22,0.55-0.22c0.22,0,0.41,0.07,0.56,0.22c0.15,0.14,0.22,0.33,0.22,0.55
				s-0.07,0.4-0.22,0.55c-0.15,0.14-0.33,0.22-0.56,0.22C20.7,65.08,20.51,65.01,20.37,64.86z"/>
			<path class="st0" d="M27.91,67.7c0.35-0.15,0.76-0.22,1.21-0.22v1.6c-0.19-0.02-0.32-0.02-0.39-0.02c-0.5,0-0.88,0.14-1.16,0.42
				c-0.28,0.28-0.42,0.69-0.42,1.25v2.82h-1.73v-5.97h1.65v0.79C27.28,68.06,27.56,67.84,27.91,67.7z"/>
			<path class="st0" d="M36.16,71.03h-4.52c0.08,0.37,0.27,0.66,0.58,0.88c0.3,0.21,0.68,0.32,1.13,0.32c0.31,0,0.59-0.05,0.83-0.14
				c0.24-0.09,0.46-0.24,0.67-0.44l0.92,1c-0.56,0.64-1.38,0.96-2.46,0.96c-0.67,0-1.27-0.13-1.79-0.39
				c-0.52-0.26-0.92-0.63-1.2-1.09c-0.28-0.47-0.42-0.99-0.42-1.59c0-0.58,0.14-1.11,0.42-1.58c0.28-0.47,0.66-0.84,1.14-1.1
				c0.48-0.26,1.03-0.39,1.63-0.39c0.58,0,1.11,0.13,1.59,0.38c0.47,0.25,0.85,0.61,1.11,1.08c0.27,0.47,0.41,1.01,0.41,1.64
				C36.2,70.59,36.18,70.75,36.16,71.03z M32.11,69.12c-0.27,0.22-0.43,0.53-0.49,0.91h2.94c-0.06-0.38-0.22-0.68-0.49-0.9
				c-0.27-0.23-0.59-0.34-0.98-0.34C32.71,68.78,32.38,68.89,32.11,69.12z"/>
			<path class="st0" d="M38.05,73.44c-0.47-0.12-0.85-0.28-1.13-0.46l0.58-1.24c0.27,0.17,0.59,0.31,0.97,0.42
				c0.38,0.11,0.75,0.16,1.11,0.16c0.73,0,1.1-0.18,1.1-0.54c0-0.17-0.1-0.29-0.3-0.37c-0.2-0.07-0.51-0.14-0.92-0.19
				c-0.49-0.07-0.89-0.16-1.21-0.25c-0.32-0.1-0.59-0.27-0.83-0.51c-0.23-0.24-0.35-0.59-0.35-1.04c0-0.38,0.11-0.71,0.33-1
				c0.22-0.29,0.54-0.52,0.95-0.68c0.42-0.16,0.91-0.24,1.48-0.24c0.42,0,0.84,0.05,1.26,0.14c0.42,0.09,0.76,0.22,1.04,0.38
				l-0.58,1.23c-0.53-0.3-1.1-0.44-1.72-0.44c-0.37,0-0.65,0.05-0.83,0.16c-0.18,0.1-0.28,0.24-0.28,0.4c0,0.18,0.1,0.31,0.3,0.39
				c0.2,0.07,0.52,0.14,0.95,0.21c0.49,0.08,0.89,0.17,1.2,0.26s0.58,0.26,0.81,0.5c0.23,0.24,0.34,0.58,0.34,1.02
				c0,0.37-0.11,0.7-0.33,0.99c-0.22,0.29-0.55,0.51-0.97,0.67c-0.43,0.16-0.93,0.24-1.51,0.24C39.01,73.62,38.52,73.56,38.05,73.44
				z"/>
			<path class="st0" d="M49.54,67.56v5.97H47.9v-0.71c-0.23,0.26-0.5,0.46-0.82,0.59c-0.32,0.14-0.66,0.21-1.03,0.21
				c-0.78,0-1.41-0.23-1.86-0.68c-0.46-0.45-0.69-1.12-0.69-2.01v-3.37h1.73v3.12c0,0.96,0.4,1.44,1.21,1.44c0.41,0,0.75-0.14,1-0.4
				c0.25-0.27,0.38-0.67,0.38-1.2v-2.95H49.54z"/>
			<path class="st0" d="M56.71,68.14c0.45,0.44,0.68,1.1,0.68,1.97v3.42h-1.73v-3.15c0-0.47-0.1-0.83-0.31-1.06
				c-0.21-0.23-0.51-0.35-0.9-0.35c-0.44,0-0.78,0.14-1.04,0.4c-0.26,0.27-0.39,0.67-0.39,1.2v2.95h-1.73v-5.97h1.65v0.7
				c0.23-0.25,0.51-0.45,0.85-0.58c0.34-0.14,0.71-0.21,1.12-0.21C55.66,67.47,56.26,67.7,56.71,68.14z"/>
			<path class="st0" d="M65.18,65.3v8.23h-1.65v-0.69c-0.43,0.52-1.05,0.78-1.86,0.78c-0.56,0-1.07-0.13-1.53-0.38
				c-0.45-0.25-0.81-0.61-1.07-1.08s-0.39-1.01-0.39-1.62c0-0.61,0.13-1.15,0.39-1.62s0.62-0.82,1.07-1.08
				c0.45-0.25,0.96-0.38,1.53-0.38c0.76,0,1.36,0.24,1.79,0.72V65.3H65.18z M63.05,71.75c0.29-0.3,0.43-0.7,0.43-1.2
				c0-0.5-0.14-0.9-0.43-1.2c-0.29-0.3-0.65-0.45-1.09-0.45c-0.44,0-0.81,0.15-1.1,0.45c-0.29,0.3-0.43,0.7-0.43,1.2
				c0,0.5,0.14,0.9,0.43,1.2c0.29,0.3,0.65,0.45,1.1,0.45C62.4,72.2,62.76,72.05,63.05,71.75z"/>
			<path class="st0" d="M66.76,69.71h3.14v1.39h-3.14V69.71z"/>
			<path class="st0" d="M74.3,70.48l-1.04,1.09v1.96h-1.79v-7.76h1.79v3.63l3.44-3.63h2l-3.22,3.46l3.41,4.3h-2.1L74.3,70.48z"/>
			<path class="st0" d="M84.24,68.13c0.5,0.44,0.74,1.1,0.74,1.99v3.4h-1.62v-0.74c-0.33,0.55-0.93,0.83-1.82,0.83
				c-0.46,0-0.86-0.08-1.19-0.23c-0.34-0.16-0.59-0.37-0.77-0.64c-0.18-0.27-0.27-0.58-0.27-0.93c0-0.55,0.21-0.99,0.63-1.31
				s1.06-0.48,1.94-0.48h1.38c0-0.38-0.11-0.67-0.34-0.87c-0.23-0.2-0.57-0.31-1.03-0.31c-0.32,0-0.63,0.05-0.94,0.15
				c-0.31,0.1-0.57,0.23-0.78,0.4l-0.62-1.21c0.33-0.23,0.72-0.41,1.17-0.53c0.45-0.13,0.92-0.19,1.4-0.19
				C83.03,67.47,83.74,67.69,84.24,68.13z M82.76,72.25c0.23-0.14,0.39-0.34,0.49-0.6v-0.61h-1.19c-0.71,0-1.07,0.23-1.07,0.7
				c0,0.22,0.09,0.4,0.26,0.53c0.17,0.13,0.41,0.19,0.72,0.19C82.27,72.45,82.54,72.39,82.76,72.25z"/>
			<path class="st0" d="M90.54,73.24c-0.17,0.13-0.38,0.22-0.63,0.28c-0.25,0.06-0.51,0.09-0.78,0.09c-0.71,0-1.26-0.18-1.65-0.54
				c-0.39-0.36-0.58-0.89-0.58-1.6v-2.45h-0.92V67.7h0.92v-1.45h1.73v1.45h1.49v1.33h-1.49v2.43c0,0.25,0.06,0.45,0.19,0.58
				c0.13,0.14,0.31,0.21,0.55,0.21c0.27,0,0.51-0.07,0.7-0.22L90.54,73.24z"/>
			<path class="st0" d="M95.51,73.24c-0.17,0.13-0.38,0.22-0.63,0.28c-0.25,0.06-0.51,0.09-0.78,0.09c-0.71,0-1.26-0.18-1.65-0.54
				c-0.39-0.36-0.58-0.89-0.58-1.6v-2.45h-0.92V67.7h0.92v-1.45h1.73v1.45h1.49v1.33H93.6v2.43c0,0.25,0.06,0.45,0.19,0.58
				c0.13,0.14,0.31,0.21,0.55,0.21c0.27,0,0.51-0.07,0.7-0.22L95.51,73.24z"/>
			<path class="st0" d="M102.44,71.03h-4.52c0.08,0.37,0.27,0.66,0.58,0.88s0.68,0.32,1.13,0.32c0.31,0,0.59-0.05,0.83-0.14
				c0.24-0.09,0.46-0.24,0.67-0.44l0.92,1c-0.56,0.64-1.38,0.96-2.46,0.96c-0.67,0-1.27-0.13-1.79-0.39
				c-0.52-0.26-0.92-0.63-1.2-1.09c-0.28-0.47-0.42-0.99-0.42-1.59c0-0.58,0.14-1.11,0.42-1.58c0.28-0.47,0.66-0.84,1.14-1.1
				c0.48-0.26,1.03-0.39,1.63-0.39c0.58,0,1.11,0.13,1.59,0.38c0.47,0.25,0.85,0.61,1.11,1.08c0.27,0.47,0.41,1.01,0.41,1.64
				C102.48,70.59,102.47,70.75,102.44,71.03z M98.39,69.12c-0.27,0.22-0.43,0.53-0.49,0.91h2.94c-0.06-0.38-0.22-0.68-0.49-0.9
				s-0.59-0.34-0.98-0.34C98.99,68.78,98.66,68.89,98.39,69.12z"/>
			<path class="st0" d="M109.93,67.56v4.97c0,1.09-0.28,1.91-0.85,2.44c-0.57,0.53-1.4,0.8-2.5,0.8c-0.58,0-1.12-0.07-1.64-0.21
				c-0.52-0.14-0.95-0.34-1.29-0.61l0.69-1.24c0.25,0.21,0.57,0.37,0.95,0.49s0.77,0.18,1.15,0.18c0.6,0,1.04-0.14,1.33-0.4
				c0.28-0.27,0.43-0.68,0.43-1.23V72.5c-0.45,0.5-1.08,0.74-1.89,0.74c-0.55,0-1.05-0.12-1.5-0.36c-0.45-0.24-0.82-0.58-1.08-1.01
				c-0.27-0.44-0.4-0.94-0.4-1.51s0.13-1.07,0.4-1.51c0.27-0.44,0.63-0.77,1.08-1.01c0.45-0.24,0.96-0.36,1.5-0.36
				c0.87,0,1.52,0.28,1.97,0.85v-0.77H109.93z M107.79,71.42c0.29-0.27,0.44-0.62,0.44-1.06c0-0.44-0.15-0.79-0.44-1.06
				c-0.29-0.27-0.67-0.4-1.13-0.4s-0.84,0.14-1.13,0.4c-0.3,0.27-0.44,0.62-0.44,1.06c0,0.44,0.15,0.79,0.44,1.06
				c0.3,0.27,0.67,0.4,1.13,0.4S107.49,71.69,107.79,71.42z"/>
			<path class="st0" d="M116.22,68.13c0.5,0.44,0.74,1.1,0.74,1.99v3.4h-1.62v-0.74c-0.33,0.55-0.93,0.83-1.82,0.83
				c-0.46,0-0.86-0.08-1.19-0.23s-0.59-0.37-0.77-0.64c-0.18-0.27-0.27-0.58-0.27-0.93c0-0.55,0.21-0.99,0.63-1.31
				c0.42-0.32,1.06-0.48,1.94-0.48h1.38c0-0.38-0.11-0.67-0.34-0.87c-0.23-0.2-0.57-0.31-1.03-0.31c-0.32,0-0.63,0.05-0.94,0.15
				c-0.31,0.1-0.57,0.23-0.78,0.4l-0.62-1.21c0.33-0.23,0.72-0.41,1.17-0.53c0.45-0.13,0.92-0.19,1.4-0.19
				C115.02,67.47,115.73,67.69,116.22,68.13z M114.75,72.25c0.23-0.14,0.39-0.34,0.49-0.6v-0.61h-1.19c-0.71,0-1.07,0.23-1.07,0.7
				c0,0.22,0.09,0.4,0.26,0.53c0.17,0.13,0.41,0.19,0.72,0.19C114.25,72.45,114.52,72.39,114.75,72.25z"/>
			<path class="st0" d="M122.52,73.24c-0.17,0.13-0.38,0.22-0.63,0.28c-0.25,0.06-0.51,0.09-0.78,0.09c-0.71,0-1.26-0.18-1.65-0.54
				c-0.39-0.36-0.58-0.89-0.58-1.6v-2.45h-0.92V67.7h0.92v-1.45h1.73v1.45h1.49v1.33h-1.49v2.43c0,0.25,0.06,0.45,0.19,0.58
				c0.13,0.14,0.31,0.21,0.55,0.21c0.27,0,0.51-0.07,0.7-0.22L122.52,73.24z"/>
			<path class="st0" d="M123.42,69.71h3.14v1.39h-3.14V69.71z"/>
			<path class="st0" d="M128.96,73.41c-0.57-0.17-1.03-0.38-1.38-0.65l0.61-1.35c0.33,0.24,0.73,0.44,1.19,0.59s0.92,0.22,1.38,0.22
				c0.51,0,0.89-0.08,1.13-0.23c0.24-0.15,0.37-0.35,0.37-0.6c0-0.19-0.07-0.34-0.22-0.46c-0.14-0.12-0.33-0.22-0.55-0.29
				c-0.23-0.07-0.53-0.16-0.92-0.24c-0.59-0.14-1.08-0.28-1.45-0.42c-0.38-0.14-0.7-0.37-0.97-0.68c-0.27-0.31-0.41-0.72-0.41-1.24
				c0-0.45,0.12-0.86,0.37-1.23c0.24-0.37,0.61-0.66,1.1-0.87c0.49-0.21,1.09-0.32,1.8-0.32c0.5,0,0.98,0.06,1.45,0.18
				c0.47,0.12,0.89,0.29,1.24,0.51l-0.55,1.36c-0.72-0.41-1.43-0.61-2.15-0.61c-0.5,0-0.87,0.08-1.11,0.24
				c-0.24,0.16-0.36,0.38-0.36,0.64c0,0.27,0.14,0.46,0.42,0.59c0.28,0.13,0.7,0.26,1.27,0.38c0.59,0.14,1.08,0.28,1.45,0.42
				c0.38,0.14,0.7,0.36,0.97,0.67c0.27,0.3,0.41,0.71,0.41,1.23c0,0.44-0.12,0.85-0.37,1.21c-0.25,0.37-0.62,0.66-1.11,0.87
				c-0.5,0.21-1.1,0.32-1.81,0.32C130.13,73.66,129.54,73.58,128.96,73.41z"/>
			<path class="st0" d="M137.85,71.19l-0.83,0.82v1.52h-1.73V65.3h1.73v4.66l2.53-2.4h2.06l-2.49,2.53l2.71,3.44h-2.1L137.85,71.19z
				"/>
			<path class="st0" d="M147.29,68.13c0.5,0.44,0.74,1.1,0.74,1.99v3.4h-1.62v-0.74c-0.33,0.55-0.93,0.83-1.82,0.83
				c-0.46,0-0.86-0.08-1.19-0.23c-0.34-0.16-0.59-0.37-0.77-0.64c-0.18-0.27-0.27-0.58-0.27-0.93c0-0.55,0.21-0.99,0.63-1.31
				c0.42-0.32,1.06-0.48,1.94-0.48h1.38c0-0.38-0.11-0.67-0.34-0.87c-0.23-0.2-0.57-0.31-1.03-0.31c-0.32,0-0.63,0.05-0.94,0.15
				c-0.31,0.1-0.57,0.23-0.78,0.4l-0.62-1.21c0.33-0.23,0.72-0.41,1.17-0.53c0.45-0.13,0.92-0.19,1.4-0.19
				C146.09,67.47,146.8,67.69,147.29,68.13z M145.82,72.25c0.23-0.14,0.39-0.34,0.49-0.6v-0.61h-1.19c-0.71,0-1.07,0.23-1.07,0.7
				c0,0.22,0.09,0.4,0.26,0.53c0.17,0.13,0.41,0.19,0.72,0.19C145.33,72.45,145.59,72.39,145.82,72.25z"/>
			<path class="st0" d="M155.9,67.56v4.97c0,1.09-0.28,1.91-0.85,2.44c-0.57,0.53-1.4,0.8-2.5,0.8c-0.58,0-1.12-0.07-1.64-0.21
				c-0.52-0.14-0.95-0.34-1.29-0.61l0.69-1.24c0.25,0.21,0.57,0.37,0.95,0.49c0.38,0.12,0.77,0.18,1.15,0.18
				c0.6,0,1.04-0.14,1.33-0.4c0.28-0.27,0.43-0.68,0.43-1.23V72.5c-0.45,0.5-1.08,0.74-1.89,0.74c-0.55,0-1.05-0.12-1.5-0.36
				c-0.45-0.24-0.82-0.58-1.08-1.01c-0.27-0.44-0.4-0.94-0.4-1.51s0.13-1.07,0.4-1.51c0.27-0.44,0.63-0.77,1.08-1.01
				s0.96-0.36,1.5-0.36c0.87,0,1.52,0.28,1.97,0.85v-0.77H155.9z M153.76,71.42c0.29-0.27,0.44-0.62,0.44-1.06
				c0-0.44-0.15-0.79-0.44-1.06c-0.29-0.27-0.67-0.4-1.13-0.4c-0.46,0-0.84,0.14-1.13,0.4c-0.3,0.27-0.44,0.62-0.44,1.06
				c0,0.44,0.15,0.79,0.44,1.06c0.3,0.27,0.67,0.4,1.13,0.4C153.09,71.82,153.46,71.69,153.76,71.42z"/>
			<path class="st0" d="M163.47,71.03h-4.52c0.08,0.37,0.27,0.66,0.58,0.88s0.68,0.32,1.13,0.32c0.31,0,0.59-0.05,0.83-0.14
				c0.24-0.09,0.46-0.24,0.67-0.44l0.92,1c-0.56,0.64-1.38,0.96-2.46,0.96c-0.67,0-1.27-0.13-1.79-0.39
				c-0.52-0.26-0.92-0.63-1.2-1.09c-0.28-0.47-0.42-0.99-0.42-1.59c0-0.58,0.14-1.11,0.42-1.58c0.28-0.47,0.66-0.84,1.14-1.1
				c0.48-0.26,1.03-0.39,1.63-0.39c0.58,0,1.11,0.13,1.59,0.38c0.47,0.25,0.85,0.61,1.11,1.08c0.27,0.47,0.41,1.01,0.41,1.64
				C163.5,70.59,163.49,70.75,163.47,71.03z M159.42,69.12c-0.27,0.22-0.43,0.53-0.49,0.91h2.94c-0.06-0.38-0.22-0.68-0.49-0.9
				s-0.59-0.34-0.98-0.34C160.01,68.78,159.68,68.89,159.42,69.12z"/>
			<path class="st0" d="M167.29,67.7c0.35-0.15,0.76-0.22,1.21-0.22v1.6c-0.19-0.02-0.32-0.02-0.39-0.02c-0.5,0-0.88,0.14-1.16,0.42
				c-0.28,0.28-0.42,0.69-0.42,1.25v2.82h-1.73v-5.97h1.65v0.79C166.66,68.06,166.94,67.84,167.29,67.7z"/>
			<path class="st0" d="M172.22,67.7c0.35-0.15,0.76-0.22,1.21-0.22v1.6c-0.19-0.02-0.32-0.02-0.39-0.02c-0.5,0-0.88,0.14-1.16,0.42
				c-0.28,0.28-0.42,0.69-0.42,1.25v2.82h-1.73v-5.97h1.65v0.79C171.58,68.06,171.86,67.84,172.22,67.7z"/>
			<path class="st0" d="M179.19,68.13c0.5,0.44,0.74,1.1,0.74,1.99v3.4h-1.62v-0.74c-0.33,0.55-0.93,0.83-1.82,0.83
				c-0.46,0-0.86-0.08-1.19-0.23s-0.59-0.37-0.77-0.64c-0.18-0.27-0.27-0.58-0.27-0.93c0-0.55,0.21-0.99,0.63-1.31
				c0.42-0.32,1.06-0.48,1.94-0.48h1.38c0-0.38-0.11-0.67-0.34-0.87c-0.23-0.2-0.57-0.31-1.03-0.31c-0.32,0-0.63,0.05-0.94,0.15
				c-0.31,0.1-0.57,0.23-0.78,0.4l-0.62-1.21c0.33-0.23,0.72-0.41,1.17-0.53c0.45-0.13,0.92-0.19,1.4-0.19
				C177.98,67.47,178.69,67.69,179.19,68.13z M177.71,72.25c0.23-0.14,0.39-0.34,0.49-0.6v-0.61h-1.19c-0.71,0-1.07,0.23-1.07,0.7
				c0,0.22,0.09,0.4,0.26,0.53c0.17,0.13,0.41,0.19,0.72,0.19C177.22,72.45,177.48,72.39,177.71,72.25z"/>
			<path class="st0" d="M184.2,71.19l-0.83,0.82v1.52h-1.73V65.3h1.73v4.66l2.53-2.4h2.06l-2.49,2.53l2.71,3.44h-2.1L184.2,71.19z"
				/>
		</g>
	</g>
</g>
</svg>
