<svg xmlns="http://www.w3.org/2000/svg" width="3840" height="2160"><path d="M1765,1006L1488,1324L2024,1507Z" fill="#4c7ce3" stroke="#4c7ce3" stroke-width="1.51"/><path d="M1488,1324L1785,1921L2024,1507Z" fill="#4b84df" stroke="#4b84df" stroke-width="1.51"/><path d="M1139,759L1289,1352L1488,1324Z" fill="#4c73e8" stroke="#4c73e8" stroke-width="1.51"/><path d="M1206,1657L1785,1921L1488,1324Z" fill="#4b81e0" stroke="#4b81e0" stroke-width="1.51"/><path d="M1289,1352L1206,1657L1488,1324Z" fill="#4b7ae3" stroke="#4b7ae3" stroke-width="1.51"/><path d="M1765,1006L1139,759L1488,1324Z" fill="#4c72e8" stroke="#4c72e8" stroke-width="1.51"/><path d="M1289,1352L930,1569L1206,1657Z" fill="#4c7ae4" stroke="#4c7ae4" stroke-width="1.51"/><path d="M2024,1507L2363,656L1765,1006Z" fill="#4c7be3" stroke="#4c7be3" stroke-width="1.51"/><path d="M1765,1006L2030,290L1493,599Z" fill="#4b6ceb" stroke="#4b6ceb" stroke-width="1.51"/><path d="M2461,1799L2576,1461L2024,1507Z" fill="#498cda" stroke="#498cda" stroke-width="1.51"/><path d="M2299,1977L2461,1799L2024,1507Z" fill="#488fd9" stroke="#488fd9" stroke-width="1.51"/><path d="M1785,1921L2299,1977L2024,1507Z" fill="#498dda" stroke="#498dda" stroke-width="1.51"/><path d="M1493,599L1139,759L1765,1006Z" fill="#4b6ceb" stroke="#4b6ceb" stroke-width="1.51"/><path d="M2576,1461L2363,656L2024,1507Z" fill="#4b83df" stroke="#4b83df" stroke-width="1.51"/><path d="M843,1300L930,1569L1289,1352Z" fill="#4c75e6" stroke="#4c75e6" stroke-width="1.51"/><path d="M1690,2272L1992,2230L1785,1921Z" fill="#4791d7" stroke="#4791d7" stroke-width="1.51"/><path d="M1785,1921L1992,2230L2299,1977Z" fill="#4792d6" stroke="#4792d6" stroke-width="1.51"/><path d="M1690,2272L1785,1921L1367,2300Z" fill="#488fd8" stroke="#488fd8" stroke-width="1.51"/><path d="M826,1024L843,1300L1289,1352Z" fill="#4b70e9" stroke="#4b70e9" stroke-width="1.51"/><path d="M1367,2300L1785,1921L1206,1657Z" fill="#4a89dc" stroke="#4a89dc" stroke-width="1.51"/><path d="M1139,759L826,1024L1289,1352Z" fill="#4b6deb" stroke="#4b6deb" stroke-width="1.51"/><path d="M2363,656L2030,290L1765,1006Z" fill="#4c71e9" stroke="#4c71e9" stroke-width="1.51"/><path d="M1493,599L1029,434L1139,759Z" fill="#4964ef" stroke="#4964ef" stroke-width="1.51"/><path d="M2576,1461L2712,767L2363,656Z" fill="#4b80e1" stroke="#4b80e1" stroke-width="1.51"/><path d="M2363,656L2499,349L2030,290Z" fill="#4b6fe9" stroke="#4b6fe9" stroke-width="1.51"/><path d="M872,2072L1367,2300L1206,1657Z" fill="#4b85dd" stroke="#4b85dd" stroke-width="1.51"/><path d="M1139,759L1029,434L826,1024Z" fill="#4965ef" stroke="#4965ef" stroke-width="1.51"/><path d="M1298,-203L1029,434L1493,599Z" fill="#475cf3" stroke="#475cf3" stroke-width="1.51"/><path d="M2712,767L2499,349L2363,656Z" fill="#4c76e6" stroke="#4c76e6" stroke-width="1.51"/><path d="M514,1857L930,1569L843,1300Z" fill="#4b76e6" stroke="#4b76e6" stroke-width="1.51"/><path d="M514,1857L872,2072L930,1569Z" fill="#4b7ce2" stroke="#4b7ce2" stroke-width="1.51"/><path d="M930,1569L872,2072L1206,1657Z" fill="#4c7ee2" stroke="#4c7ee2" stroke-width="1.51"/><path d="M2299,1977L2570,2221L2461,1799Z" fill="#4597d4" stroke="#4597d4" stroke-width="1.51"/><path d="M2461,1799L3129,1571L2576,1461Z" fill="#4891d7" stroke="#4891d7" stroke-width="1.51"/><path d="M2576,1461L3199,1094L2712,767Z" fill="#4b87dd" stroke="#4b87dd" stroke-width="1.51"/><path d="M1992,2230L2570,2221L2299,1977Z" fill="#4498d3" stroke="#4498d3" stroke-width="1.51"/><path d="M2489,2613L2570,2221L1992,2230Z" fill="#4499d3" stroke="#4499d3" stroke-width="1.51"/><path d="M1949,2714L1992,2230L1690,2272Z" fill="#4793d6" stroke="#4793d6" stroke-width="1.51"/><path d="M2570,2221L3129,1571L2461,1799Z" fill="#4597d4" stroke="#4597d4" stroke-width="1.51"/><path d="M2712,767L3156,177L2499,349Z" fill="#4b76e6" stroke="#4b76e6" stroke-width="1.51"/><path d="M1367,2300L1515,2656L1690,2272Z" fill="#488ed9" stroke="#488ed9" stroke-width="1.51"/><path d="M1173,2624L1515,2656L1367,2300Z" fill="#498cda" stroke="#498cda" stroke-width="1.51"/><path d="M418,1026L514,1857L843,1300Z" fill="#4b6fea" stroke="#4b6fea" stroke-width="1.51"/><path d="M872,2072L1173,2624L1367,2300Z" fill="#4a89db" stroke="#4a89db" stroke-width="1.51"/><path d="M418,1026L843,1300L826,1024Z" fill="#4b6aec" stroke="#4b6aec" stroke-width="1.51"/><path d="M2499,349L2212,-17L2030,290Z" fill="#4a69ed" stroke="#4a69ed" stroke-width="1.51"/><path d="M2030,290L1830,-234L1493,599Z" fill="#4962f0" stroke="#4962f0" stroke-width="1.51"/><path d="M610,346L418,1026L826,1024Z" fill="#4860f1" stroke="#4860f1" stroke-width="1.51"/><path d="M1515,2656L1949,2714L1690,2272Z" fill="#4891d7" stroke="#4891d7" stroke-width="1.51"/><path d="M3129,1571L3199,1094L2576,1461Z" fill="#488fd8" stroke="#488fd8" stroke-width="1.51"/><path d="M2499,349L2760,-194L2212,-17Z" fill="#4a68ed" stroke="#4a68ed" stroke-width="1.51"/><path d="M855,2617L1173,2624L872,2072Z" fill="#4a87dd" stroke="#4a87dd" stroke-width="1.51"/><path d="M1515,2656L855,2617L1949,2714Z" fill="#498dd9" stroke="#498dd9" stroke-width="1.51"/><path d="M3275,2433L3447,1656L3129,1571Z" fill="#409fd0" stroke="#409fd0" stroke-width="1.51"/><path d="M1949,2714L2489,2613L1992,2230Z" fill="#4596d4" stroke="#4596d4" stroke-width="1.51"/><path d="M3199,1094L3237,931L2712,767Z" fill="#4a85de" stroke="#4a85de" stroke-width="1.51"/><path d="M3410,1388L3237,931L3199,1094Z" fill="#498ed9" stroke="#498ed9" stroke-width="1.51"/><path d="M1029,434L610,346L826,1024Z" fill="#475ef2" stroke="#475ef2" stroke-width="1.51"/><path d="M635,74L610,346L1029,434Z" fill="#4454f6" stroke="#4454f6" stroke-width="1.51"/><path d="M2212,-17L1830,-234L2030,290Z" fill="#4961f1" stroke="#4961f1" stroke-width="1.51"/><path d="M1830,-234L1298,-203L1493,599Z" fill="#465af4" stroke="#465af4" stroke-width="1.51"/><path d="M1173,2624L855,2617L1515,2656Z" fill="#498adb" stroke="#498adb" stroke-width="1.51"/><path d="M265,2197L855,2617L872,2072Z" fill="#4b82df" stroke="#4b82df" stroke-width="1.51"/><path d="M3129,1571L3410,1388L3199,1094Z" fill="#4792d7" stroke="#4792d7" stroke-width="1.51"/><path d="M3447,1656L3410,1388L3129,1571Z" fill="#4597d4" stroke="#4597d4" stroke-width="1.51"/><path d="M418,1026L129,1110L514,1857Z" fill="#4a6aec" stroke="#4a6aec" stroke-width="1.51"/><path d="M514,1857L265,2197L872,2072Z" fill="#4c7fe1" stroke="#4c7fe1" stroke-width="1.51"/><path d="M24,437L129,1110L418,1026Z" fill="#465cf3" stroke="#465cf3" stroke-width="1.51"/><path d="M1830,-234L1388,-317L1298,-203Z" fill="#4558f5" stroke="#4558f5" stroke-width="1.51"/><path d="M1298,-203L635,74L1029,434Z" fill="#4353f7" stroke="#4353f7" stroke-width="1.51"/><path d="M3275,2433L3129,1571L2570,2221Z" fill="#409fcf" stroke="#409fcf" stroke-width="1.51"/><path d="M610,346L268,353L418,1026Z" fill="#4557f5" stroke="#4557f5" stroke-width="1.51"/><path d="M331,-45L635,74L370,-579Z" fill="#3d47fc" stroke="#3d47fc" stroke-width="1.51"/><path d="M3237,931L3156,177L2712,767Z" fill="#4b7ee1" stroke="#4b7ee1" stroke-width="1.51"/><path d="M3410,1388L3455,724L3237,931Z" fill="#498cda" stroke="#498cda" stroke-width="1.51"/><path d="M3900,1438L3455,724L3410,1388Z" fill="#4693d6" stroke="#4693d6" stroke-width="1.51"/><path d="M-126,2247L265,2197L-253,1931Z" fill="#4c79e4" stroke="#4c79e4" stroke-width="1.51"/><path d="M2212,-17L2260,-493L1830,-234Z" fill="#4861f0" stroke="#4861f0" stroke-width="1.51"/><path d="M3455,724L3156,177L3237,931Z" fill="#4c81e0" stroke="#4c81e0" stroke-width="1.51"/><path d="M3156,177L2942,-45L2499,349Z" fill="#4b70e9" stroke="#4b70e9" stroke-width="1.51"/><path d="M1830,-234L1588,-619L1388,-317Z" fill="#465af4" stroke="#465af4" stroke-width="1.51"/><path d="M2942,-45L2760,-194L2499,349Z" fill="#4b6beb" stroke="#4b6beb" stroke-width="1.51"/><path d="M635,74L268,353L610,346Z" fill="#4250f8" stroke="#4250f8" stroke-width="1.51"/><path d="M2489,2613L2934,2739L2570,2221Z" fill="#419dd0" stroke="#419dd0" stroke-width="1.51"/><path d="M1949,2714L2934,2739L2489,2613Z" fill="#439ad2" stroke="#439ad2" stroke-width="1.51"/><path d="M2934,2739L3275,2433L2570,2221Z" fill="#3fa0ce" stroke="#3fa0ce" stroke-width="1.51"/><path d="M2760,-194L2260,-493L2212,-17Z" fill="#4966ee" stroke="#4966ee" stroke-width="1.51"/><path d="M755,-660L635,74L1298,-203Z" fill="#414ff9" stroke="#414ff9" stroke-width="1.51"/><path d="M2260,-493L1588,-619L1830,-234Z" fill="#485ef2" stroke="#485ef2" stroke-width="1.51"/><path d="M-126,2247L248,2499L265,2197Z" fill="#4c7ce3" stroke="#4c7ce3" stroke-width="1.51"/><path d="M265,2197L248,2499L855,2617Z" fill="#4b80e1" stroke="#4b80e1" stroke-width="1.51"/><path d="M129,1110L-253,1931L514,1857Z" fill="#4b6fe9" stroke="#4b6fe9" stroke-width="1.51"/><path d="M268,353L24,437L418,1026Z" fill="#4455f6" stroke="#4455f6" stroke-width="1.51"/><path d="M-1,-111L24,437L268,353Z" fill="#3d48fc" stroke="#3d48fc" stroke-width="1.51"/><path d="M331,-45L268,353L635,74Z" fill="#3f4afb" stroke="#3f4afb" stroke-width="1.51"/><path d="M755,-660L1298,-203L1388,-317Z" fill="#4353f7" stroke="#4353f7" stroke-width="1.51"/><path d="M2260,-493L2987,-594L1588,-619Z" fill="#4964ef" stroke="#4964ef" stroke-width="1.51"/><path d="M2760,-194L2698,-499L2260,-493Z" fill="#4a68ed" stroke="#4a68ed" stroke-width="1.51"/><path d="M2987,-594L2698,-499L2760,-194Z" fill="#4b6ceb" stroke="#4b6ceb" stroke-width="1.51"/><path d="M2987,-594L2760,-194L2942,-45Z" fill="#4b6dea" stroke="#4b6dea" stroke-width="1.51"/><path d="M3447,1656L3900,1438L3410,1388Z" fill="#4399d2" stroke="#4399d2" stroke-width="1.51"/><path d="M3275,2433L3559,2302L3447,1656Z" fill="#3aa6cb" stroke="#3aa6cb" stroke-width="1.51"/><path d="M3738,2512L3559,2302L3275,2433Z" fill="#38a8ca" stroke="#38a8ca" stroke-width="1.51"/><path d="M-292,805L-258,1246L129,1110Z" fill="#475ef2" stroke="#475ef2" stroke-width="1.51"/><path d="M3156,177L3441,-4L2942,-45Z" fill="#4b72e8" stroke="#4b72e8" stroke-width="1.51"/><path d="M3727,227L3441,-4L3156,177Z" fill="#4c77e5" stroke="#4c77e5" stroke-width="1.51"/><path d="M3727,227L3156,177L3455,724Z" fill="#4b7ee2" stroke="#4b7ee2" stroke-width="1.51"/><path d="M3895,1724L3900,1438L3447,1656Z" fill="#419fcf" stroke="#419fcf" stroke-width="1.51"/><path d="M-253,1931L265,2197L514,1857Z" fill="#4c78e5" stroke="#4c78e5" stroke-width="1.51"/><path d="M-258,1246L-253,1931L129,1110Z" fill="#4a67ed" stroke="#4a67ed" stroke-width="1.51"/><path d="M3559,2302L3895,1724L3447,1656Z" fill="#3ca4cc" stroke="#3ca4cc" stroke-width="1.51"/><path d="M-258,1246L-567,1617L-253,1931Z" fill="#4b6ceb" stroke="#4b6ceb" stroke-width="1.51"/><path d="M24,437L-292,805L129,1110Z" fill="#4556f5" stroke="#4556f5" stroke-width="1.51"/><path d="M-533,548L-292,805L24,437Z" fill="#4251f8" stroke="#4251f8" stroke-width="1.51"/><path d="M4004,553L3727,227L3455,724Z" fill="#4b84de" stroke="#4b84de" stroke-width="1.51"/><path d="M331,-45L-1,-111L268,353Z" fill="#3c45fd" stroke="#3c45fd" stroke-width="1.51"/><path d="M1588,-619L755,-660L1388,-317Z" fill="#4454f7" stroke="#4454f7" stroke-width="1.51"/><path d="M-292,805L-431,1063L-258,1246Z" fill="#475ef2" stroke="#475ef2" stroke-width="1.51"/><path d="M-431,1063L-445,1228L-258,1246Z" fill="#4861f0" stroke="#4861f0" stroke-width="1.51"/><path d="M3529,-353L2987,-594L2942,-45Z" fill="#4b70e9" stroke="#4b70e9" stroke-width="1.51"/><path d="M2698,-499L2987,-594L2260,-493Z" fill="#4a69ec" stroke="#4a69ec" stroke-width="1.51"/><path d="M1588,-619L4254,-625L755,-660Z" fill="#4962f0" stroke="#4962f0" stroke-width="1.51"/><path d="M3529,-353L2942,-45L3441,-4Z" fill="#4b72e8" stroke="#4b72e8" stroke-width="1.51"/><path d="M-571,2379L-115,2547L-126,2247Z" fill="#4c7ae4" stroke="#4c7ae4" stroke-width="1.51"/><path d="M-126,2247L-115,2547L248,2499Z" fill="#4c7ae4" stroke="#4c7ae4" stroke-width="1.51"/><path d="M248,2499L-115,2547L855,2617Z" fill="#4b7ee1" stroke="#4b7ee1" stroke-width="1.51"/><path d="M855,2617L-115,2547L1949,2714Z" fill="#4a86dd" stroke="#4a86dd" stroke-width="1.51"/><path d="M-571,2379L-126,2247L-253,1931Z" fill="#4c7ae4" stroke="#4c7ae4" stroke-width="1.51"/><path d="M2934,2739L3738,2512L3275,2433Z" fill="#3aa6cb" stroke="#3aa6cb" stroke-width="1.51"/><path d="M3559,2302L3904,2402L3895,1724Z" fill="#35abc7" stroke="#35abc7" stroke-width="1.51"/><path d="M370,-579L-1,-111L331,-45Z" fill="#3b43fe" stroke="#3b43fe" stroke-width="1.51"/><path d="M-292,805L-533,548L-431,1063Z" fill="#4557f5" stroke="#4557f5" stroke-width="1.51"/><path d="M4139,986L3455,724L3900,1438Z" fill="#4792d6" stroke="#4792d6" stroke-width="1.51"/><path d="M4139,986L4004,553L3455,724Z" fill="#498cda" stroke="#498cda" stroke-width="1.51"/><path d="M755,-660L370,-579L635,74Z" fill="#3e49fb" stroke="#3e49fb" stroke-width="1.51"/><path d="M4301,1956L3900,1438L3895,1724Z" fill="#3da2cd" stroke="#3da2cd" stroke-width="1.51"/><path d="M4522,1321L4139,986L3900,1438Z" fill="#4497d3" stroke="#4497d3" stroke-width="1.51"/><path d="M3738,2512L3904,2402L3559,2302Z" fill="#35abc8" stroke="#35abc8" stroke-width="1.51"/><path d="M-533,548L-567,1617L-445,1228Z" fill="#4860f1" stroke="#4860f1" stroke-width="1.51"/><path d="M-445,1228L-567,1617L-258,1246Z" fill="#4966ee" stroke="#4966ee" stroke-width="1.51"/><path d="M4007,50L3441,-4L3727,227Z" fill="#4c7ae4" stroke="#4c7ae4" stroke-width="1.51"/><path d="M4007,50L3529,-353L3441,-4Z" fill="#4b77e5" stroke="#4b77e5" stroke-width="1.51"/><path d="M-431,1063L-533,548L-445,1228Z" fill="#465bf3" stroke="#465bf3" stroke-width="1.51"/><path d="M-1,-111L-533,548L24,437Z" fill="#3e48fc" stroke="#3e48fc" stroke-width="1.51"/><path d="M-797,-234L-533,548L-1,-111Z" fill="#3a41fe" stroke="#3a41fe" stroke-width="1.51"/><path d="M4004,553L4007,50L3727,227Z" fill="#4b80e0" stroke="#4b80e0" stroke-width="1.51"/><path d="M4496,292L4007,50L4004,553Z" fill="#4b81e0" stroke="#4b81e0" stroke-width="1.51"/><path d="M3904,2402L4301,1956L3895,1724Z" fill="#37a9c9" stroke="#37a9c9" stroke-width="1.51"/><path d="M4139,986L4548,1014L4004,553Z" fill="#488ed9" stroke="#488ed9" stroke-width="1.51"/><path d="M-567,1617L-571,2379L-253,1931Z" fill="#4c75e6" stroke="#4c75e6" stroke-width="1.51"/><path d="M370,-579L-288,-399L-1,-111Z" fill="#3940ff" stroke="#3940ff" stroke-width="1.51"/><path d="M2934,2739L4013,2890L3738,2512Z" fill="#37a9c9" stroke="#37a9c9" stroke-width="1.51"/><path d="M3738,2512L4013,2890L3904,2402Z" fill="#33acc7" stroke="#33acc7" stroke-width="1.51"/><path d="M4662,2476L4548,2020L4301,1956Z" fill="#34acc7" stroke="#34acc7" stroke-width="1.51"/><path d="M1949,2714L4013,2890L2934,2739Z" fill="#3ea1ce" stroke="#3ea1ce" stroke-width="1.51"/><path d="M-115,2547L4013,2890L1949,2714Z" fill="#4694d5" stroke="#4694d5" stroke-width="1.51"/><path d="M4548,2020L4522,1321L4301,1956Z" fill="#3da3cd" stroke="#3da3cd" stroke-width="1.51"/><path d="M4301,1956L4522,1321L3900,1438Z" fill="#409fcf" stroke="#409fcf" stroke-width="1.51"/><path d="M3529,-353L3812,-531L2987,-594Z" fill="#4b74e7" stroke="#4b74e7" stroke-width="1.51"/><path d="M4007,50L3812,-531L3529,-353Z" fill="#4c79e4" stroke="#4c79e4" stroke-width="1.51"/><path d="M4254,-625L3812,-531L4007,50Z" fill="#4c7ae4" stroke="#4c7ae4" stroke-width="1.51"/><path d="M-797,-234L-714,2477L-567,1617Z" fill="#4964ef" stroke="#4964ef" stroke-width="1.51"/><path d="M-567,1617L-714,2477L-571,2379Z" fill="#4c7ae4" stroke="#4c7ae4" stroke-width="1.51"/><path d="M-571,2379L-714,2477L-115,2547Z" fill="#4c7ae4" stroke="#4c7ae4" stroke-width="1.51"/><path d="M4522,1321L4548,1014L4139,986Z" fill="#4694d5" stroke="#4694d5" stroke-width="1.51"/><path d="M370,-579L-451,-433L-288,-399Z" fill="#383fff" stroke="#383fff" stroke-width="1.51"/><path d="M-288,-399L-797,-234L-1,-111Z" fill="#383fff" stroke="#383fff" stroke-width="1.51"/><path d="M-533,548L-797,-234L-567,1617Z" fill="#4353f7" stroke="#4353f7" stroke-width="1.51"/><path d="M755,-660L-451,-433L370,-579Z" fill="#3b43fe" stroke="#3b43fe" stroke-width="1.51"/><path d="M4522,1321L4662,2476L4548,1014Z" fill="#40a0cf" stroke="#40a0cf" stroke-width="1.51"/><path d="M4662,2476L4301,1956L3904,2402Z" fill="#33acc7" stroke="#33acc7" stroke-width="1.51"/><path d="M4548,1014L4496,292L4004,553Z" fill="#4a89dc" stroke="#4a89dc" stroke-width="1.51"/><path d="M-451,-433L-797,-234L-288,-399Z" fill="#383fff" stroke="#383fff" stroke-width="1.51"/><path d="M4548,2020L4662,2476L4522,1321Z" fill="#39a7ca" stroke="#39a7ca" stroke-width="1.51"/><path d="M4548,1014L4663,-93L4496,292Z" fill="#4b83df" stroke="#4b83df" stroke-width="1.51"/><path d="M4013,2890L4662,2476L3904,2402Z" fill="#33acc7" stroke="#33acc7" stroke-width="1.51"/><path d="M3812,-531L4254,-625L2987,-594Z" fill="#4c78e5" stroke="#4c78e5" stroke-width="1.51"/><path d="M2987,-594L4254,-625L1588,-619Z" fill="#4b6dea" stroke="#4b6dea" stroke-width="1.51"/><path d="M4663,-93L4254,-625L4007,50Z" fill="#4c7ae4" stroke="#4c7ae4" stroke-width="1.51"/><path d="M4496,292L4663,-93L4007,50Z" fill="#4c7ce3" stroke="#4c7ce3" stroke-width="1.51"/><path d="M4662,2476L4663,-93L4548,1014Z" fill="#4694d5" stroke="#4694d5" stroke-width="1.51"/></svg>