<svg xmlns="http://www.w3.org/2000/svg" width="477.363" height="160"><g fill="#FFFFFF"><path d="M92.491 93.459c0-.696-.905-1.081-1.931-1.081H78.5c-.91 0-1.823.537-1.936 1.396l-8.191 46.185c-.111.693-.111 1.157-.567 1.157-.454 0-.454-.464-.681-1.157l-9.788-27.16c-.685-1.853-2.277-3.48-7.169-3.48h-7.845c-4.895 0-6.488 1.628-7.169 3.48l-9.788 27.16c-.227.693-.227 1.157-.678 1.157-.456 0-.456-.464-.57-1.157l-8.194-46.185c-.109-.859-1.023-1.396-1.928-1.396H1.931C.908 92.378 0 92.763 0 93.459v.232l10.696 50.518c1.021 4.876 4.321 6.269 10.235 6.269h6.143c5.12 0 7.849-1.704 9.448-6.189l8.985-25.532c.224-.696.343-.849.797-.849.453 0 .453.152.683.849l8.985 25.532c1.593 4.485 4.325 6.189 9.448 6.189h6.141c5.913 0 9.213-1.393 10.237-6.269L92.49 93.691v-.232zm76.339 55.083c0-.08-.109-.229-.109-.385l-18.66-48.506c-2.732-7.2-10.923-7.896-15.814-7.896-4.895 0-13.083.696-15.813 7.896l-18.657 48.506c0 .156-.114.305-.114.385 0 .775.907 1.316 2.047 1.316h12.06c1.019 0 1.936-.617 2.163-1.316l5.231-14.699h26.166l5.235 14.699c.227.699 1.137 1.316 2.161 1.316h12.059c1.135 0 2.045-.541 2.045-1.316m-24.571-23.514h-20.027l8.194-22.98c.337-.931.68-1.236 1.82-1.236 1.137 0 1.48.305 1.823 1.236l8.19 22.98zm87.032-31.489c0-.624-.797-1.16-1.934-1.16H216.84c-1.023 0-1.82.617-2.163 1.233l-13.65 23.06c-.794 1.312-1.48 1.541-2.047 1.541-.458 0-1.137-.229-1.934-1.541l-13.657-23.06c-.34-.616-1.13-1.233-2.156-1.233h-12.63c-1.137 0-1.82.537-1.82 1.16 0 .152.113.388.23.617L184.19 121c2.163 3.405 4.437 4.953 6.942 5.649v21.664c0 .845.91 1.545 2.16 1.545h11.379c1.248 0 2.158-.7 2.158-1.545v-21.664c2.502-.696 4.777-2.244 6.938-5.649l17.293-26.845c.118-.229.231-.381.231-.616m61.545 5.877v-4.949c0-1.081-.563-1.472-2.273-1.625-3.641-.391-8.076-1.087-21.611-1.087-14.795 0-26.281 2.712-26.281 15.859v40.699c0 .845 1.018 1.545 2.273 1.545h11.146c1.257 0 2.28-.7 2.28-1.545v-23.677h30.827c1.25 0 2.274-.696 2.274-1.545v-5.572c0-.849-1.024-1.542-2.274-1.542H258.37v-8.363c0-5.102 2.388-6.65 8.987-6.65h23.206c1.252 0 2.273-.696 2.273-1.548M437.027 18.287s0-2.367-2.334-2.798L350.972.031s-2.337-.435-2.33 1.939v3.491s0 2.37 2.337 2.805l19.496 3.597v11.198c-8.885 4.81-14.723 12.846-14.745 21.966-.021 8.629 5.171 16.307 13.227 21.213-7.794 2.287-14.003 5.987-16.356 11.029l-21.674 69.729c-.483 1.638.325 2.625 1.823 2.629l11.324.017c1.406 0 2.679-.58 3.03-1.823l18.757-64.14c6.935-13.177 38.109-11.878 41.736.096l7.618 28.227c.225 1.479 1.491 1.834 2.983 1.834l9.209.013c1.83.007 3.321-.892 2.997-2.622l-8.659-33.817c-1.101-4.87-5.629-8.427-11.888-10.717 8.439-4.847 13.927-12.67 13.949-21.518.017-6.842-3.242-13.088-8.619-17.829V20.12l19.5 3.607s2.34.431 2.34-1.939v-3.501zm-27.65 26.855c-.021 8.506-8.815 15.385-19.646 15.362-10.83-.026-19.589-6.941-19.568-15.448.02-8.509 8.814-15.378 19.645-15.358 10.824.023 19.588 6.941 19.569 15.444"/></g><path fill="#BFD730" d="M470.556 73.35c-4.177 6.932-36.402 62.771-51.19 62.771-10.071 0-19.171-16.178-24.207-23.421-.975-1.402-2.506-.812-2.506-.812l-12.352 7.571s-1.413.742-.76 2.45c3.014 7.995 23.972 33.229 37.218 33.001 20.766-.358 45.214-50.329 59.737-77.5 1.336-2.496 1.412-2.542-1.83-4.273-2.731-1.451-3.046-1.557-4.11.213"/></svg>