<svg viewBox="0 0 2697 1679" xmlns="http://www.w3.org/2000/svg" fill-rule="evenodd" clip-rule="evenodd" stroke-linecap="round" stroke-linejoin="round" stroke-miterlimit="1.5"><path d="M1688.67 1192.82c.07 2.79 2 2.83 5.78 5l152.84 88.25c7.44 4.3 19.24 4.47 26.33.37l102.75-59.32c3.5-2.02 5.2-4.7 5.14-7.42v29.82c0 2.66-1.7 5.28-5.14 7.26l-102.75 59.33c-7.09 4.09-18.89 3.92-26.33-.37l-152.84-88.25c-3.77-2.18-5.71-5-5.78-7.79v-26.88z" fill="#89c2d4"/><path d="M1822.89 1114.4c-7.44-4.3-19.24-4.46-26.33-.37l-102.75 59.33c-7.1 4.09-6.8 10.9.64 15.2l152.84 88.24c7.45 4.3 19.25 4.47 26.33.37l102.76-59.32c7.09-4.1 6.8-10.9-.64-15.2l-152.85-88.25z" fill="#fff" stroke="#000" stroke-width="10"/><path d="M1705.8 1178.76a8.88 8.88 0 018.03 0c2.21 1.28 2.21 3.35 0 4.63a8.88 8.88 0 01-8.03 0c-2.21-1.28-2.21-3.35 0-4.63zM1807.79 1119.87a8.88 8.88 0 018.03 0c2.21 1.28 2.21 3.36 0 4.63a8.88 8.88 0 01-8.03 0c-2.21-1.27-2.21-3.35 0-4.63zM1859.23 1268.43a8.88 8.88 0 018.03 0c2.21 1.28 2.21 3.36 0 4.63a8.88 8.88 0 01-8.03 0c-2.22-1.27-2.22-3.35 0-4.63zM1961.22 1209.54a8.88 8.88 0 018.03 0c2.21 1.28 2.21 3.36 0 4.63a8.88 8.88 0 01-8.03 0c-2.22-1.27-2.22-3.35 0-4.63zM1780.08 1222.73a8.88 8.88 0 018.03 0c2.21 1.28 2.21 3.36 0 4.63a8.88 8.88 0 01-8.03 0c-2.21-1.27-2.21-3.35 0-4.63zM1882.07 1163.84a8.88 8.88 0 018.03 0c2.21 1.28 2.21 3.36 0 4.63a8.88 8.88 0 01-8.03 0c-2.22-1.27-2.22-3.35 0-4.63z"/><g><path d="M1688.67 1133.5c.07 2.79 2 2.83 5.78 5l152.84 88.25c7.44 4.3 19.24 4.47 26.33.37l102.75-59.32c3.5-2.02 5.2-4.7 5.14-7.42v29.82c0 2.66-1.7 5.28-5.14 7.26l-102.75 59.33c-7.09 4.09-18.89 3.92-26.33-.37l-152.84-88.25c-3.77-2.18-5.71-5-5.78-7.79v-26.88z" fill="#89c2d4"/><path d="M1822.89 1055.08c-7.44-4.3-19.24-4.46-26.33-.37l-102.75 59.32c-7.1 4.1-6.8 10.91.64 15.2l152.84 88.25c7.45 4.3 19.25 4.47 26.33.37l102.76-59.32c7.09-4.1 6.8-10.9-.64-15.2l-152.85-88.25z" fill="#fff" stroke="#000" stroke-width="10"/><path d="M1705.8 1119.43a8.88 8.88 0 018.03 0c2.21 1.28 2.21 3.36 0 4.63a8.88 8.88 0 01-8.03 0c-2.21-1.27-2.21-3.35 0-4.63zM1807.79 1060.55a8.88 8.88 0 018.03 0c2.21 1.28 2.21 3.36 0 4.63a8.88 8.88 0 01-8.03 0c-2.21-1.27-2.21-3.35 0-4.63zM1859.23 1209.1a8.88 8.88 0 018.03 0c2.21 1.28 2.21 3.36 0 4.63a8.88 8.88 0 01-8.03 0c-2.22-1.27-2.22-3.35 0-4.63zM1961.22 1150.21a8.88 8.88 0 018.03 0c2.21 1.28 2.21 3.36 0 4.63a8.88 8.88 0 01-8.03 0c-2.22-1.27-2.22-3.35 0-4.63zM1780.08 1163.4a8.88 8.88 0 018.03 0c2.21 1.28 2.21 3.36 0 4.63a8.88 8.88 0 01-8.03 0c-2.21-1.27-2.21-3.35 0-4.63zM1882.07 1104.52a8.88 8.88 0 018.03 0c2.21 1.28 2.21 3.35 0 4.63a8.87 8.87 0 01-8.03 0c-2.22-1.28-2.22-3.35 0-4.63z"/></g><g><path d="M1688.67 1074.17c.07 2.79 2 2.83 5.78 5l152.84 88.25c7.44 4.3 19.24 4.47 26.33.37l102.75-59.32c3.5-2.02 5.2-4.7 5.14-7.42v29.82c0 2.66-1.7 5.28-5.14 7.26l-102.75 59.33c-7.09 4.09-18.89 3.92-26.33-.37l-152.84-88.25c-3.77-2.18-5.71-5-5.78-7.79v-26.88z" fill="#89c2d4"/><path d="M1822.89 995.75c-7.44-4.3-19.24-4.46-26.33-.37l-102.75 59.33c-7.1 4.09-6.8 10.9.64 15.2l152.84 88.24c7.45 4.3 19.25 4.47 26.33.37l102.76-59.32c7.09-4.1 6.8-10.9-.64-15.2l-152.85-88.25z" fill="#fff" stroke="#000" stroke-width="10"/><path d="M1705.8 1060.11a8.88 8.88 0 018.03 0c2.21 1.28 2.21 3.36 0 4.63a8.88 8.88 0 01-8.03 0c-2.21-1.27-2.21-3.35 0-4.63zM1807.79 1001.22a8.88 8.88 0 018.03 0c2.21 1.28 2.21 3.36 0 4.63a8.88 8.88 0 01-8.03 0c-2.21-1.27-2.21-3.35 0-4.63zM1859.23 1149.78a8.88 8.88 0 018.03 0c2.21 1.28 2.21 3.36 0 4.63a8.88 8.88 0 01-8.03 0c-2.22-1.27-2.22-3.35 0-4.63zM1961.22 1090.89a8.88 8.88 0 018.03 0c2.21 1.28 2.21 3.36 0 4.63a8.88 8.88 0 01-8.03 0c-2.22-1.27-2.22-3.35 0-4.63zM1780.08 1104.08a8.88 8.88 0 018.03 0c2.21 1.28 2.21 3.36 0 4.63a8.88 8.88 0 01-8.03 0c-2.21-1.27-2.21-3.35 0-4.63zM1882.07 1045.19a8.88 8.88 0 018.03 0c2.21 1.28 2.21 3.36 0 4.63a8.88 8.88 0 01-8.03 0c-2.22-1.27-2.22-3.35 0-4.63z"/></g><g><path d="M1688.67 1014.85c.07 2.79 2 2.83 5.78 5l152.84 88.25c7.44 4.3 19.24 4.47 26.33.37l102.75-59.32c3.5-2.02 5.2-4.7 5.14-7.42v29.82c0 2.66-1.7 5.28-5.14 7.26l-102.75 59.33c-7.09 4.09-18.89 3.92-26.33-.37l-152.84-88.25c-3.77-2.18-5.71-5-5.78-7.79v-26.88z" fill="#89c2d4"/><path d="M1822.89 936.42c-7.44-4.3-19.24-4.46-26.33-.37l-102.75 59.33c-7.1 4.1-6.8 10.9.64 15.2l152.84 88.25c7.45 4.3 19.25 4.46 26.33.37l102.76-59.33c7.09-4.09 6.8-10.9-.64-15.2l-152.85-88.25z" fill="#fff" stroke="#000" stroke-width="10"/><path d="M1705.8 1000.78a8.88 8.88 0 018.03 0c2.21 1.28 2.21 3.35 0 4.63a8.88 8.88 0 01-8.03 0c-2.21-1.27-2.21-3.35 0-4.63zM1807.79 941.9a8.88 8.88 0 018.03 0c2.21 1.27 2.21 3.35 0 4.63a8.88 8.88 0 01-8.03 0c-2.21-1.28-2.21-3.36 0-4.63zM1859.23 1090.45a8.88 8.88 0 018.03 0c2.21 1.28 2.21 3.36 0 4.63a8.88 8.88 0 01-8.03 0c-2.22-1.27-2.22-3.35 0-4.63zM1961.22 1031.56a8.88 8.88 0 018.03 0c2.21 1.28 2.21 3.36 0 4.63a8.88 8.88 0 01-8.03 0c-2.22-1.27-2.22-3.35 0-4.63zM1780.08 1044.75a8.88 8.88 0 018.03 0c2.21 1.28 2.21 3.36 0 4.63a8.88 8.88 0 01-8.03 0c-2.21-1.27-2.21-3.35 0-4.63zM1882.07 985.87a8.88 8.88 0 018.03 0c2.21 1.27 2.21 3.35 0 4.63a8.88 8.88 0 01-8.03 0c-2.22-1.28-2.22-3.36 0-4.63z"/><g stroke="#000" stroke-width="10"><path d="M1758.55 970.37c24.66-14.23 64.7-14.24 89.35 0 24.65 14.24 24.65 37.35 0 51.59-24.66 14.23-64.7 14.23-89.35 0-24.66-14.24-24.66-37.35 0-51.59z" fill="none"/><path d="M1792.54 987.5c7.09-4.1 18.6-4.1 25.69 0s7.09 10.74 0 14.83c-7.1 4.1-18.6 4.1-25.69 0s-7.09-10.74 0-14.83zM1908.03 1008.02c-2.46-1.42-6.18-1.57-8.31-.34l-76.55 44.2c-2.13 1.22-1.86 3.37.6 4.79l35.63 20.57c2.45 1.42 6.18 1.57 8.3.34l76.55-44.2c2.13-1.22 1.87-3.37-.6-4.79l-35.62-20.57z" fill="none"/><path d="M1894.39 1035.39l-77.34-18.9 88.27 3.04c1.76.08 3.5.32 5.14.72 7.82 1.9 10.56 6.85 6.13 11.03-4.44 4.18-14.38 6.02-22.2 4.11z" fill="#fff"/></g></g><g><path d="M1522.4 1290.25c.07 2.79 2 2.83 5.78 5l152.84 88.25c7.44 4.3 19.24 4.47 26.33.37l102.75-59.32c3.5-2.02 5.2-4.7 5.14-7.42v29.82c0 2.66-1.7 5.28-5.14 7.26l-102.75 59.33c-7.09 4.09-18.89 3.92-26.33-.37l-152.84-88.25c-3.77-2.18-5.71-5-5.78-7.79v-26.88z" fill="#89c2d4"/><path d="M1656.61 1211.83c-7.44-4.3-19.24-4.46-26.33-.37l-102.75 59.32c-7.1 4.1-6.8 10.91.64 15.2l152.84 88.25c7.45 4.3 19.25 4.47 26.33.37l102.76-59.32c7.09-4.1 6.8-10.9-.64-15.2l-152.85-88.25z" fill="#fff" stroke="#000" stroke-width="10"/><path d="M1539.53 1276.18a8.88 8.88 0 018.03 0c2.21 1.28 2.21 3.36 0 4.63a8.88 8.88 0 01-8.03 0c-2.21-1.27-2.21-3.35 0-4.63zM1641.52 1217.3a8.88 8.88 0 018.03 0c2.21 1.28 2.21 3.36 0 4.63a8.88 8.88 0 01-8.03 0c-2.21-1.27-2.21-3.35 0-4.63zM1692.95 1365.85a8.87 8.87 0 018.03 0c2.21 1.28 2.21 3.35 0 4.63a8.88 8.88 0 01-8.03 0c-2.21-1.28-2.21-3.35 0-4.63zM1794.94 1306.97a8.88 8.88 0 018.03 0c2.21 1.28 2.21 3.36 0 4.63a8.88 8.88 0 01-8.03 0c-2.21-1.27-2.21-3.35 0-4.63zM1613.81 1320.15a8.88 8.88 0 018.03 0c2.21 1.28 2.21 3.36 0 4.63a8.88 8.88 0 01-8.03 0c-2.22-1.27-2.22-3.35 0-4.63zM1715.8 1261.27a8.88 8.88 0 018.03 0c2.21 1.28 2.21 3.35 0 4.63a8.88 8.88 0 01-8.03 0c-2.21-1.28-2.21-3.35 0-4.63z"/><g><path d="M1522.4 1230.92c.07 2.79 2 2.83 5.78 5l152.84 88.25c7.44 4.3 19.24 4.47 26.33.37l102.75-59.32c3.5-2.02 5.2-4.7 5.14-7.42v29.82c0 2.66-1.7 5.28-5.14 7.26l-102.75 59.33c-7.09 4.09-18.89 3.92-26.33-.37l-152.84-88.25c-3.77-2.18-5.71-5-5.78-7.79v-26.88z" fill="#89c2d4"/><path d="M1656.61 1152.5c-7.44-4.3-19.24-4.46-26.33-.37l-102.75 59.33c-7.1 4.09-6.8 10.9.64 15.2L1681 1314.9c7.45 4.3 19.25 4.47 26.33.38l102.76-59.33c7.09-4.1 6.8-10.9-.64-15.2l-152.85-88.25z" fill="#fff" stroke="#000" stroke-width="10"/><path d="M1539.53 1216.86a8.88 8.88 0 018.03 0c2.21 1.28 2.21 3.36 0 4.63a8.88 8.88 0 01-8.03 0c-2.21-1.27-2.21-3.35 0-4.63zM1641.52 1157.97a8.88 8.88 0 018.03 0c2.21 1.28 2.21 3.36 0 4.63a8.88 8.88 0 01-8.03 0c-2.21-1.27-2.21-3.35 0-4.63zM1692.95 1306.53a8.88 8.88 0 018.03 0c2.21 1.28 2.21 3.36 0 4.63a8.88 8.88 0 01-8.03 0c-2.21-1.27-2.21-3.35 0-4.63zM1794.94 1247.64a8.88 8.88 0 018.03 0c2.21 1.28 2.21 3.36 0 4.63a8.88 8.88 0 01-8.03 0c-2.21-1.27-2.21-3.35 0-4.63zM1613.81 1260.83a8.88 8.88 0 018.03 0c2.21 1.28 2.21 3.36 0 4.63a8.88 8.88 0 01-8.03 0c-2.22-1.27-2.22-3.35 0-4.63zM1715.8 1201.94a8.88 8.88 0 018.03 0c2.21 1.28 2.21 3.36 0 4.63a8.88 8.88 0 01-8.03 0c-2.21-1.27-2.21-3.35 0-4.63z"/></g><g><path d="M1522.4 1171.6c.07 2.79 2 2.83 5.78 5l152.84 88.25c7.44 4.3 19.24 4.47 26.33.37l102.75-59.32c3.5-2.02 5.2-4.7 5.14-7.42v29.82c0 2.66-1.7 5.28-5.14 7.26l-102.75 59.33c-7.09 4.09-18.89 3.92-26.33-.37l-152.84-88.25c-3.77-2.18-5.71-5-5.78-7.79v-26.88z" fill="#89c2d4"/><path d="M1656.61 1093.18c-7.44-4.3-19.24-4.46-26.33-.37l-102.75 59.33c-7.1 4.09-6.8 10.9.64 15.2l152.84 88.24c7.45 4.3 19.25 4.47 26.33.37l102.76-59.32c7.09-4.1 6.8-10.9-.64-15.2l-152.85-88.25z" fill="#fff" stroke="#000" stroke-width="10"/><path d="M1539.53 1157.53a8.88 8.88 0 018.03 0c2.21 1.28 2.21 3.35 0 4.63a8.88 8.88 0 01-8.03 0c-2.21-1.28-2.21-3.35 0-4.63zM1641.52 1098.65a8.88 8.88 0 018.03 0c2.21 1.28 2.21 3.36 0 4.63a8.88 8.88 0 01-8.03 0c-2.21-1.27-2.21-3.35 0-4.63zM1692.95 1247.2a8.88 8.88 0 018.03 0c2.21 1.28 2.21 3.36 0 4.63a8.88 8.88 0 01-8.03 0c-2.21-1.27-2.21-3.35 0-4.63zM1794.94 1188.31a8.88 8.88 0 018.03 0c2.21 1.28 2.21 3.36 0 4.63a8.88 8.88 0 01-8.03 0c-2.21-1.27-2.21-3.35 0-4.63zM1613.81 1201.5a8.88 8.88 0 018.03 0c2.21 1.28 2.21 3.36 0 4.63a8.88 8.88 0 01-8.03 0c-2.22-1.27-2.22-3.35 0-4.63zM1715.8 1142.62a8.88 8.88 0 018.03 0c2.21 1.28 2.21 3.36 0 4.63a8.88 8.88 0 01-8.03 0c-2.21-1.27-2.21-3.35 0-4.63z"/></g><g><path d="M1522.4 1112.27c.07 2.79 2 2.83 5.78 5l152.84 88.25c7.44 4.3 19.24 4.47 26.33.37l102.75-59.32c3.5-2.02 5.2-4.7 5.14-7.42v29.82c0 2.66-1.7 5.28-5.14 7.26l-102.75 59.33c-7.09 4.09-18.89 3.92-26.33-.37l-152.84-88.25c-3.77-2.18-5.71-5-5.78-7.79v-26.88z" fill="#89c2d4"/><path d="M1656.61 1033.85c-7.44-4.3-19.24-4.46-26.33-.37l-102.75 59.32c-7.1 4.1-6.8 10.91.64 15.2l152.84 88.25c7.45 4.3 19.25 4.47 26.33.37l102.76-59.32c7.09-4.1 6.8-10.9-.64-15.2l-152.85-88.25z" fill="#fff" stroke="#000" stroke-width="10"/><path d="M1539.53 1098.21a8.88 8.88 0 018.03 0c2.21 1.28 2.21 3.36 0 4.63a8.88 8.88 0 01-8.03 0c-2.21-1.27-2.21-3.35 0-4.63zM1641.52 1039.32a8.88 8.88 0 018.03 0c2.21 1.28 2.21 3.36 0 4.63a8.88 8.88 0 01-8.03 0c-2.21-1.27-2.21-3.35 0-4.63zM1692.95 1187.88a8.88 8.88 0 018.03 0c2.21 1.28 2.21 3.35 0 4.63a8.88 8.88 0 01-8.03 0c-2.21-1.27-2.21-3.35 0-4.63zM1794.94 1128.99a8.88 8.88 0 018.03 0c2.21 1.28 2.21 3.36 0 4.63a8.88 8.88 0 01-8.03 0c-2.21-1.27-2.21-3.35 0-4.63zM1613.81 1142.18a8.88 8.88 0 018.03 0c2.21 1.28 2.21 3.36 0 4.63a8.88 8.88 0 01-8.03 0c-2.22-1.27-2.22-3.35 0-4.63zM1715.8 1083.29a8.88 8.88 0 018.03 0c2.21 1.28 2.21 3.36 0 4.63a8.88 8.88 0 01-8.03 0c-2.21-1.27-2.21-3.35 0-4.63z"/><g stroke="#000" stroke-width="10"><path d="M1592.28 1067.8c24.66-14.24 64.7-14.24 89.35 0 24.66 14.23 24.65 37.35 0 51.59-24.66 14.23-64.7 14.23-89.35 0-24.66-14.24-24.66-37.35 0-51.59z" fill="none"/><path d="M1626.27 1084.93c7.09-4.1 18.6-4.1 25.69 0s7.09 10.74 0 14.83c-7.1 4.1-18.6 4.1-25.69 0s-7.09-10.74 0-14.83zM1741.75 1105.45c-2.46-1.42-6.18-1.57-8.31-.34l-76.55 44.2c-2.13 1.22-1.86 3.37.6 4.79l35.63 20.57c2.46 1.42 6.18 1.57 8.3.34l76.56-44.2c2.12-1.22 1.86-3.37-.6-4.79l-35.63-20.57z" fill="none"/><path d="M1728.12 1132.82l-77.34-18.91 88.27 3.05c1.76.08 3.5.31 5.14.72 7.82 1.9 10.56 6.85 6.13 11.03-4.44 4.18-14.38 6.02-22.2 4.11z" fill="#fff"/></g></g></g><g><path d="M1511.19 631.22c-11.59 6.69-11.12 17.82 1.05 24.85l249.86 144.26c12.17 7.02 31.45 7.3 43.04.6l167.98-96.98c11.58-6.69 11.11-17.82-1.05-24.85" fill="none" stroke="#000" stroke-width="10"/><path d="M1500.73 582.62c.11 4.55 3.28 4.62 9.44 8.18l249.86 144.26c12.17 7.03 31.46 7.3 43.05.6l167.97-96.97c5.72-3.3 8.5-7.69 8.39-12.13v48.75c0 4.35-2.78 8.63-8.4 11.87l-167.96 96.98c-11.6 6.69-30.88 6.42-43.05-.6l-249.86-144.27c-6.16-3.56-9.33-8.17-9.44-12.73v-43.94z" fill="#89c2d4"/><path d="M1720.13 454.42c-12.17-7.02-31.45-7.3-43.04-.6L1509.1 550.8c-11.58 6.69-11.11 17.82 1.05 24.85l249.86 144.26c12.17 7.02 31.46 7.3 43.05.6l167.97-96.98c11.59-6.69 11.12-17.82-1.05-24.85l-249.86-144.26z" fill="#fff" stroke="#000" stroke-width="10"/><path d="M1950.87 666.86c3.85-2.22 6.98-.42 6.98 4.03s-3.13 9.87-6.98 12.1c-3.85 2.22-6.98.41-6.98-4.04s3.13-9.86 6.98-12.09zM1928.29 679.9c3.85-2.23 6.98-.42 6.98 4.02 0 4.45-3.13 9.87-6.98 12.1-3.85 2.22-6.98.42-6.98-4.03s3.13-9.87 6.98-12.1z" fill="#fff"/><path d="M1907.34 700.05l-91.37 52.76" fill="none" stroke="#fff" stroke-width="10"/></g><g><path d="M1731.21 941.78l-13.4-56.26 26.8-15.48-13.4 71.74z"/><path d="M1731.21 909.78v-104" fill="none" stroke="#000" stroke-width="10"/></g><g><path d="M1800.1 236.13c0-14.08-10.37-22.78-22.4-22.78-11.97 0-22.4 8.7-22.4 22.78 0 14.08 10.43 22.78 22.4 22.78 12.03 0 22.4-8.7 22.4-22.78zm-3.58-.06c0 12.28-8.7 19.58-18.82 19.58-9.98 0-18.75-7.3-18.75-19.58 0-12.42 8.7-19.65 18.75-19.65 10.11 0 18.82 7.3 18.82 19.65zM1837.1 243.3c0-8.83-5.77-15.36-14.6-15.36-4.29 0-8.32 1.73-11.2 6.2V214h-3.33v44.16h3.33v-5.64c2.5 4.36 6.6 6.28 11.07 6.28 8.96 0 14.72-6.72 14.72-15.5zm-3.53 0c0 6.85-4.03 12.48-11.2 12.48-7.23 0-11.2-5.63-11.2-12.48 0-6.91 3.97-12.48 11.2-12.48 7.17 0 11.2 5.57 11.2 12.48zM1849.19 217.89a2.73 2.73 0 00-2.75-2.75 2.73 2.73 0 00-2.76 2.75 2.73 2.73 0 002.76 2.75 2.73 2.73 0 002.75-2.75zm-1.09 40.9v-30.34h-3.33v30.34c0 4.8-.19 9.28-4.99 9.28-1.6 0-2.88-.45-2.88-.45v2.88s.96.45 2.88.45c7.17 0 8.32-6.47 8.32-12.16zM1883.62 241.83c0-8-5.63-13.9-13.44-13.9-7.87 0-14.4 6.22-14.4 15.37 0 9.09 5.57 15.49 14.21 15.49s12.35-4.48 12.35-4.48l-1.6-2.37s-3.71 3.84-10.43 3.84-10.69-4.67-11-11.71h24.12s.2-1.28.2-2.24zm-3.4-.64h-20.79c.2-4.16 3.2-10.37 10.56-10.37s10.24 6.53 10.24 10.37zM1915.43 253.67l-1.92-2.24s-3.2 4.35-9.92 4.35-11.33-5.31-11.33-12.67 5.25-12.16 11.2-12.16c5.89 0 8.45 2.88 9.73 4.35l2.11-2.24c-.64-.83-3.84-5.12-11.71-5.12-7.8 0-14.85 6.2-14.85 15.36 0 9.09 6.53 15.49 14.53 15.49 8 0 11.07-3.84 12.16-5.12zM1933.22 257.83l-.32-2.88s-1.28.83-3.2.83c-3.97 0-4.35-3.9-4.35-7.17v-17.02h7.55v-3.01h-7.49v-9.47h-3.39v9.47h-4.48v3h4.48v15.05c0 4.8.06 6.97 1.09 8.96 1.09 1.98 2.75 3.2 5.63 3.2 1.92 0 3.4-.32 4.48-.96zM1772.26 310.63c0-6.72-5.37-9.67-6.4-10.24-1.02-.58-5.95-2.63-9.09-3.97-3.13-1.35-6.59-3.33-6.59-8.32 0-5 4.1-7.68 9.22-7.68 5.12 0 7.68 2.69 9.34 4.8l2.43-2.11c-.38-.64-4.1-5.76-11.52-5.76s-12.99 4.48-12.99 10.88 4.67 9.28 6.4 10.24a82.3 82.3 0 007.23 3.2c2.56 1.02 8.45 3.2 8.45 8.96 0 5.76-4.6 9.28-10.3 9.28-5.7 0-9.54-3.9-11.14-6.85l-2.69 1.92c.96 1.79 4.93 7.93 13.5 7.93 8.58 0 14.15-5.56 14.15-12.28zM1792.1 321.83l-.32-2.88s-1.28.83-3.2.83c-3.96 0-4.35-3.9-4.35-7.17v-17.02h7.55v-3.01h-7.48v-9.47h-3.4v9.47h-4.48v3h4.48v15.05c0 4.8.07 6.97 1.1 8.96 1.08 1.98 2.74 3.2 5.62 3.2 1.92 0 3.4-.32 4.48-.96zM1826.02 307.43c0-8.96-6.72-15.5-15.23-15.5-8.45 0-15.17 6.54-15.17 15.5s6.72 15.36 15.17 15.36c8.51 0 15.23-6.4 15.23-15.36zm-3.52-.13c0 6.85-4.48 12.48-11.7 12.48-7.18 0-11.66-5.63-11.66-12.48 0-6.91 4.48-12.48 11.65-12.48 7.23 0 11.71 5.57 11.71 12.48zM1847.14 295.65l.32-3.26s-1.28-.45-3.2-.45c-3.2 0-6.46 2.05-7.55 6.08v-5.57h-3.33v29.7h3.33v-16c0-4.55 1.54-11.01 7.23-11.01 1.6 0 2.5.25 3.2.51zM1871.78 322.15v-17.6c0-7.88-3.58-12.61-11.84-12.61-4.48 0-8 1.73-9.92 3l1.28 2.44c.64-.51 4.16-2.56 8.77-2.56 4.67 0 8.32 2.69 8.32 8.13v1.6l-8.13.32c-8 .32-11.84 3.84-11.84 8.96 0 5.12 4.16 8.96 9.92 8.96s8.96-3.52 10.05-4.8v4.16h3.4zm-3.39-15.04v7.36c-1.4 2.24-4.6 5.44-9.4 5.44-4.8 0-7.24-2.88-7.24-6.08s1.98-5.9 8.2-6.21l8.44-.51zM1907.62 315.75v-23.3h-3.4v5.63c-1.98-3.52-5.88-6.14-11.2-6.14-7.8 0-14.52 5.82-14.52 15.1s6.72 15.1 14.53 15.1c5.31 0 9.02-2.49 11.2-6.33v2.18c0 7.8-2.75 13.95-11.52 13.95-4.8 0-9.28-2.43-10.88-4.03l-1.92 2.56s4.8 4.48 12.48 4.48c7.68 0 11.2-3.84 12.8-6.4 1.6-2.56 2.43-6.08 2.43-12.8zm-3.2-8.77c0 6.72-3.84 12.16-11.2 12.16-7.36 0-11.2-5.44-11.2-12.16s3.84-12.1 11.2-12.1c7.36 0 11.2 5.38 11.2 12.1zM1942.82 305.83c0-8-5.63-13.9-13.44-13.9-7.87 0-14.4 6.22-14.4 15.37 0 9.09 5.57 15.49 14.2 15.49 8.65 0 12.36-4.48 12.36-4.48l-1.6-2.37s-3.71 3.84-10.43 3.84-10.69-4.67-11-11.71h24.12s.19-1.28.19-2.24zm-3.4-.64h-20.8c.2-4.16 3.2-10.37 10.57-10.37 7.36 0 10.24 6.53 10.24 10.37zM1791.4 374.63c0-6.72-5.38-9.67-6.4-10.24-1.03-.58-5.96-2.63-9.1-3.97-3.13-1.35-6.59-3.33-6.59-8.32 0-5 4.1-7.68 9.22-7.68 5.12 0 7.68 2.69 9.34 4.8l2.43-2.11c-.38-.64-4.1-5.76-11.52-5.76s-12.99 4.48-12.99 10.88 4.67 9.28 6.4 10.24a82.3 82.3 0 007.23 3.2c2.56 1.02 8.45 3.2 8.45 8.96 0 5.76-4.6 9.28-10.3 9.28-5.7 0-9.54-3.9-11.14-6.85l-2.69 1.92c.96 1.79 4.93 7.93 13.5 7.93 8.58 0 14.15-5.56 14.15-12.28zM1824.67 369.83c0-8-5.63-13.9-13.44-13.9-7.87 0-14.4 6.22-14.4 15.37 0 9.09 5.57 15.49 14.21 15.49s12.35-4.48 12.35-4.48l-1.6-2.37s-3.7 3.84-10.43 3.84c-6.72 0-10.69-4.67-11-11.71h24.12s.2-1.28.2-2.24zm-3.39-.64h-20.8c.2-4.16 3.2-10.37 10.56-10.37s10.24 6.53 10.24 10.37zM1845.47 359.65l.32-3.26s-1.28-.45-3.2-.45c-3.2 0-6.46 2.05-7.55 6.08v-5.57h-3.33v29.7h3.33v-16c0-4.55 1.54-11.01 7.23-11.01 1.6 0 2.5.25 3.2.51zM1873.95 356.45h-3.52l-10.24 24.9-10.24-24.9h-3.52l12.48 29.7h2.56l12.48-29.7zM1904.48 369.83c0-8-5.63-13.9-13.44-13.9-7.87 0-14.4 6.22-14.4 15.37 0 9.09 5.57 15.49 14.2 15.49 8.65 0 12.36-4.48 12.36-4.48l-1.6-2.37s-3.71 3.84-10.43 3.84-10.69-4.67-11-11.71h24.12s.2-1.28.2-2.24zm-3.4-.64h-20.8c.2-4.16 3.2-10.37 10.57-10.37 7.36 0 10.24 6.53 10.24 10.37zM1925.28 359.65l.32-3.26s-1.28-.45-3.2-.45c-3.2 0-6.46 2.05-7.55 6.08v-5.57h-3.33v29.7h3.33v-16c0-4.55 1.53-11.01 7.23-11.01 1.6 0 2.5.25 3.2.51zM1782.3 458.47l2.24-1.28c-3.2-4.8-7.68-16-7.68-27.2s4.48-22.4 7.68-27.2l-2.24-1.28c-5.12 7.68-8.96 17.28-8.96 28.48s3.84 20.8 8.96 28.48zM1832.03 428.13c0-14.08-10.37-22.78-22.4-22.78-11.97 0-22.4 8.7-22.4 22.78 0 14.08 10.43 22.78 22.4 22.78 12.03 0 22.4-8.7 22.4-22.78zm-3.58-.06c0 12.28-8.7 19.58-18.82 19.58-9.98 0-18.75-7.3-18.75-19.58 0-12.42 8.7-19.65 18.75-19.65 10.11 0 18.82 7.3 18.82 19.65zM1864.99 438.63c0-6.72-5.38-9.67-6.4-10.24-1.02-.58-5.95-2.63-9.09-3.97-3.13-1.35-6.59-3.33-6.59-8.32 0-5 4.1-7.68 9.22-7.68 5.12 0 7.68 2.69 9.34 4.8l2.43-2.11c-.38-.64-4.1-5.76-11.52-5.76s-12.99 4.48-12.99 10.88 4.67 9.28 6.4 10.24a82.3 82.3 0 007.23 3.2c2.56 1.02 8.45 3.2 8.45 8.96 0 5.76-4.6 9.28-10.3 9.28-5.7 0-9.54-3.9-11.14-6.85l-2.69 1.92c.96 1.79 4.93 7.93 13.5 7.93 8.58 0 14.15-5.56 14.15-12.28zM1897.76 438.63c0-6.72-5.38-9.67-6.4-10.24-1.02-.58-5.95-2.63-9.09-3.97-3.13-1.35-6.59-3.33-6.59-8.32 0-5 4.1-7.68 9.22-7.68 5.12 0 7.68 2.69 9.34 4.8l2.43-2.11c-.38-.64-4.1-5.76-11.52-5.76s-12.99 4.48-12.99 10.88 4.67 9.28 6.4 10.24a82.3 82.3 0 007.23 3.2c2.56 1.02 8.45 3.2 8.45 8.96 0 5.76-4.6 9.28-10.3 9.28-5.7 0-9.54-3.9-11.14-6.85l-2.69 1.92c.96 1.79 4.93 7.93 13.5 7.93 8.58 0 14.15-5.56 14.15-12.28zM1913.44 429.99c0-11.2-3.84-20.8-8.96-28.48l-2.24 1.28c3.2 4.8 7.68 16 7.68 27.2s-4.48 22.4-7.68 27.2l2.24 1.28c5.12-7.68 8.96-17.28 8.96-28.48z" fill-rule="nonzero"/></g><g><path d="M1604.94 1470.4c0-14.09-10.36-22.8-22.4-22.8-11.96 0-22.4 8.71-22.4 22.8 0 14.07 10.44 22.78 22.4 22.78 12.04 0 22.4-8.7 22.4-22.79zm-3.58-.07c0 12.29-8.7 19.58-18.82 19.58-9.98 0-18.75-7.3-18.75-19.58 0-12.42 8.7-19.65 18.75-19.65 10.12 0 18.82 7.3 18.82 19.65zM1641.93 1477.56c0-8.83-5.76-15.36-14.59-15.36-4.29 0-8.32 1.73-11.2 6.2v-20.15h-3.32v44.16h3.32v-5.63c2.5 4.35 6.6 6.27 11.07 6.27 8.96 0 14.72-6.72 14.72-15.49zm-3.52 0c0 6.85-4.03 12.48-11.2 12.48-7.23 0-11.2-5.63-11.2-12.48 0-6.91 3.97-12.48 11.2-12.48 7.17 0 11.2 5.57 11.2 12.48zM1654.03 1452.15a2.73 2.73 0 00-2.75-2.75 2.73 2.73 0 00-2.75 2.75 2.73 2.73 0 002.75 2.75 2.73 2.73 0 002.75-2.75zm-1.09 40.9v-30.34h-3.33v30.34c0 4.8-.19 9.28-4.99 9.28-1.6 0-2.88-.45-2.88-.45v2.88s.96.45 2.88.45c7.17 0 8.32-6.46 8.32-12.16zM1688.46 1476.09c0-8-5.63-13.89-13.44-13.89-7.87 0-14.4 6.2-14.4 15.36 0 9.09 5.57 15.49 14.21 15.49s12.35-4.48 12.35-4.48l-1.6-2.37s-3.7 3.84-10.43 3.84c-6.72 0-10.69-4.67-11-11.71h24.12s.2-1.28.2-2.24zm-3.39-.64h-20.8c.2-4.16 3.2-10.37 10.56-10.37s10.24 6.53 10.24 10.37zM1720.27 1487.93l-1.92-2.24s-3.2 4.35-9.92 4.35-11.33-5.31-11.33-12.67 5.25-12.16 11.2-12.16c5.9 0 8.45 2.88 9.73 4.35l2.11-2.24c-.64-.83-3.84-5.12-11.7-5.12-7.82 0-14.86 6.2-14.86 15.36 0 9.09 6.53 15.49 14.53 15.49 8 0 11.07-3.84 12.16-5.12zM1738.06 1492.09l-.32-2.88s-1.28.83-3.2.83c-3.97 0-4.35-3.9-4.35-7.17v-17.02h7.55v-3h-7.49v-9.48h-3.39v9.47h-4.48v3h4.48v15.05c0 4.8.07 6.98 1.09 8.96 1.09 1.98 2.75 3.2 5.63 3.2 1.92 0 3.4-.32 4.48-.96zM1782.35 1480.89c0-6.72-5.38-9.66-6.4-10.24-1.02-.58-5.95-2.62-9.09-3.97-3.13-1.34-6.59-3.33-6.59-8.32 0-5 4.1-7.68 9.22-7.68 5.12 0 7.68 2.69 9.34 4.8l2.43-2.11c-.38-.64-4.1-5.76-11.52-5.76s-12.99 4.48-12.99 10.88 4.67 9.28 6.4 10.24a82.3 82.3 0 007.23 3.2c2.56 1.02 8.45 3.2 8.45 8.96 0 5.76-4.6 9.28-10.3 9.28-5.7 0-9.54-3.9-11.14-6.85l-2.69 1.92c.96 1.8 4.93 7.94 13.5 7.94 8.58 0 14.15-5.57 14.15-12.3zM1802.2 1492.09l-.33-2.88s-1.28.83-3.2.83c-3.97 0-4.35-3.9-4.35-7.17v-17.02h7.55v-3h-7.49v-9.48H1791v9.47h-4.48v3h4.48v15.05c0 4.8.07 6.98 1.09 8.96 1.09 1.98 2.75 3.2 5.63 3.2 1.92 0 3.4-.32 4.48-.96zM1836.11 1477.69c0-8.96-6.72-15.49-15.23-15.49-8.45 0-15.17 6.53-15.17 15.49s6.72 15.36 15.17 15.36c8.51 0 15.23-6.4 15.23-15.36zm-3.52-.13c0 6.85-4.48 12.48-11.71 12.48-7.17 0-11.65-5.63-11.65-12.48 0-6.91 4.48-12.48 11.65-12.48 7.23 0 11.71 5.57 11.71 12.48zM1857.23 1465.91l.32-3.26s-1.28-.45-3.2-.45c-3.2 0-6.46 2.05-7.55 6.08v-5.57h-3.33v29.7h3.33v-16c0-4.55 1.53-11 7.23-11 1.6 0 2.5.25 3.2.5zM1881.87 1492.4v-17.6c0-7.86-3.58-12.6-11.84-12.6-4.48 0-8 1.73-9.92 3l1.28 2.44c.64-.51 4.16-2.56 8.77-2.56 4.67 0 8.32 2.69 8.32 8.13v1.6l-8.13.32c-8 .32-11.84 3.84-11.84 8.96 0 5.12 4.16 8.96 9.92 8.96s8.96-3.52 10.05-4.8v4.16h3.39zm-3.4-15.03v7.36c-1.4 2.24-4.6 5.44-9.4 5.44-4.8 0-7.23-2.88-7.23-6.08s1.98-5.89 8.19-6.2l8.45-.52zM1917.7 1486v-23.29h-3.38v5.63c-1.99-3.51-5.9-6.14-11.2-6.14-7.81 0-14.53 5.82-14.53 15.1 0 9.29 6.72 15.1 14.53 15.1 5.3 0 9.02-2.49 11.2-6.33v2.18c0 7.8-2.76 13.95-11.52 13.95-4.8 0-9.28-2.43-10.88-4.03l-1.92 2.56s4.8 4.48 12.48 4.48c7.68 0 11.2-3.84 12.8-6.4 1.6-2.56 2.43-6.08 2.43-12.8zm-3.2-8.76c0 6.72-3.83 12.16-11.2 12.16-7.35 0-11.2-5.44-11.2-12.16s3.85-12.1 11.2-12.1c7.37 0 11.2 5.38 11.2 12.1zM1952.9 1476.09c0-8-5.62-13.89-13.43-13.89-7.87 0-14.4 6.2-14.4 15.36 0 9.09 5.57 15.49 14.2 15.49 8.65 0 12.36-4.48 12.36-4.48l-1.6-2.37s-3.71 3.84-10.43 3.84-10.7-4.67-11.01-11.71h24.13s.19-1.28.19-2.24zm-3.38-.64h-20.8c.19-4.16 3.2-10.37 10.56-10.37s10.24 6.53 10.24 10.37zM1703.95 1515.39v-3.14h-29.7v3.14h13.12v41.02h3.46v-41.02h13.12zM1728.91 1556.4v-17.6c0-7.86-3.58-12.6-11.84-12.6-4.48 0-8 1.73-9.92 3l1.28 2.44c.64-.51 4.16-2.56 8.77-2.56 4.67 0 8.32 2.69 8.32 8.13v1.6l-8.13.32c-8 .32-11.84 3.84-11.84 8.96 0 5.12 4.16 8.96 9.92 8.96s8.96-3.52 10.05-4.8v4.16h3.4zm-3.39-15.03v7.36c-1.4 2.24-4.6 5.44-9.4 5.44-4.8 0-7.24-2.88-7.24-6.08s1.98-5.89 8.2-6.2l8.44-.52zM1751.63 1529.91l.32-3.26s-1.28-.45-3.2-.45c-3.2 0-6.46 2.05-7.55 6.08v-5.57h-3.33v29.7h3.33v-16c0-4.55 1.54-11 7.23-11 1.6 0 2.5.25 3.2.5zM1783.63 1550v-23.29h-3.4v5.63c-1.97-3.51-5.88-6.14-11.19-6.14-7.8 0-14.53 5.82-14.53 15.1 0 9.29 6.72 15.1 14.53 15.1 5.31 0 9.02-2.49 11.2-6.33v2.18c0 7.8-2.75 13.95-11.52 13.95-4.8 0-9.28-2.43-10.88-4.03l-1.92 2.56s4.8 4.48 12.48 4.48c7.68 0 11.2-3.84 12.8-6.4 1.6-2.56 2.43-6.08 2.43-12.8zm-3.2-8.76c0 6.72-3.84 12.16-11.2 12.16-7.36 0-11.2-5.44-11.2-12.16s3.84-12.1 11.2-12.1c7.36 0 11.2 5.38 11.2 12.1zM1818.83 1540.09c0-8-5.63-13.89-13.44-13.89-7.87 0-14.4 6.2-14.4 15.36 0 9.09 5.57 15.49 14.2 15.49 8.65 0 12.36-4.48 12.36-4.48l-1.6-2.37s-3.71 3.84-10.43 3.84-10.69-4.67-11-11.71h24.12s.19-1.28.19-2.24zm-3.4-.64h-20.8c.2-4.16 3.2-10.37 10.57-10.37 7.36 0 10.24 6.53 10.24 10.37zM1838.03 1556.09l-.32-2.88s-1.28.83-3.2.83c-3.97 0-4.35-3.9-4.35-7.17v-17.02h7.55v-3h-7.49v-9.48h-3.39v9.47h-4.48v3h4.48v15.05c0 4.8.06 6.98 1.09 8.96 1.09 1.98 2.75 3.2 5.63 3.2 1.92 0 3.4-.32 4.48-.96zM1696.43 1628.73l2.24-1.28c-3.2-4.8-7.68-16-7.68-27.2s4.48-22.4 7.68-27.2l-2.24-1.28c-5.12 7.68-8.96 17.28-8.96 28.48s3.84 20.8 8.96 28.48zM1746.16 1598.4c0-14.09-10.37-22.8-22.4-22.8-11.97 0-22.4 8.71-22.4 22.8 0 14.07 10.43 22.78 22.4 22.78 12.03 0 22.4-8.7 22.4-22.79zm-3.58-.07c0 12.29-8.7 19.58-18.82 19.58-9.98 0-18.75-7.3-18.75-19.58 0-12.42 8.7-19.65 18.75-19.65 10.11 0 18.82 7.3 18.82 19.65zM1779.12 1608.89c0-6.72-5.38-9.66-6.4-10.24-1.02-.58-5.95-2.62-9.09-3.97-3.13-1.34-6.59-3.33-6.59-8.32 0-5 4.1-7.68 9.22-7.68 5.12 0 7.68 2.69 9.34 4.8l2.43-2.11c-.38-.64-4.1-5.76-11.52-5.76s-12.99 4.48-12.99 10.88 4.67 9.28 6.4 10.24a82.3 82.3 0 007.23 3.2c2.56 1.02 8.45 3.2 8.45 8.96 0 5.76-4.6 9.28-10.3 9.28-5.7 0-9.54-3.9-11.14-6.85l-2.69 1.92c.96 1.8 4.93 7.94 13.5 7.94 8.58 0 14.15-5.57 14.15-12.3zM1811.7 1579.39v-3.14H1782v3.14h13.12v41.02h3.46v-41.02h13.12zM1825.13 1600.25c0-11.2-3.84-20.8-8.96-28.48l-2.24 1.28c3.2 4.8 7.68 16 7.68 27.2s-4.48 22.4-7.68 27.2l2.24 1.28c5.12-7.68 8.96-17.28 8.96-28.48z" fill-rule="nonzero"/></g><g><path d="M2353.43 1194.63c.07 2.79 2 2.83 5.78 5l152.84 88.25c7.44 4.3 19.24 4.47 26.33.37l102.75-59.32c3.5-2.02 5.2-4.7 5.14-7.42v29.82c0 2.66-1.7 5.28-5.14 7.26l-102.75 59.33c-7.09 4.09-18.89 3.92-26.33-.37l-152.84-88.25c-3.77-2.18-5.71-5-5.78-7.79v-26.88z" fill="#89c2d4"/><path d="M2487.65 1116.21c-7.44-4.3-19.24-4.46-26.33-.37l-102.75 59.33c-7.1 4.09-6.8 10.9.64 15.2l152.84 88.24c7.45 4.3 19.24 4.47 26.33.38l102.76-59.33c7.09-4.1 6.8-10.9-.65-15.2l-152.84-88.25z" fill="#fff" stroke="#000" stroke-width="10"/><path d="M2370.56 1180.57a8.88 8.88 0 018.03 0c2.21 1.28 2.21 3.36 0 4.63a8.88 8.88 0 01-8.03 0c-2.21-1.27-2.21-3.35 0-4.63zM2472.55 1121.68a8.88 8.88 0 018.03 0c2.21 1.28 2.21 3.36 0 4.63a8.88 8.88 0 01-8.03 0c-2.22-1.27-2.22-3.35 0-4.63zM2523.99 1270.24a8.87 8.87 0 018.03 0c2.21 1.28 2.21 3.35 0 4.63a8.88 8.88 0 01-8.03 0c-2.21-1.27-2.21-3.35 0-4.63zM2625.98 1211.35a8.88 8.88 0 018.03 0c2.21 1.28 2.21 3.36 0 4.63a8.88 8.88 0 01-8.03 0c-2.21-1.27-2.21-3.35 0-4.63zM2444.84 1224.54a8.88 8.88 0 018.03 0c2.21 1.28 2.21 3.36 0 4.63a8.88 8.88 0 01-8.03 0c-2.21-1.27-2.21-3.35 0-4.63zM2546.83 1165.65a8.88 8.88 0 018.03 0c2.21 1.28 2.21 3.35 0 4.63a8.88 8.88 0 01-8.03 0c-2.21-1.27-2.21-3.35 0-4.63z"/><g><path d="M2353.43 1135.31c.07 2.79 2 2.83 5.78 5l152.84 88.25c7.44 4.3 19.24 4.47 26.33.37l102.75-59.32c3.5-2.02 5.2-4.7 5.14-7.42v29.82c0 2.66-1.7 5.28-5.14 7.26l-102.75 59.33c-7.09 4.09-18.89 3.92-26.33-.37l-152.84-88.25c-3.77-2.18-5.71-5-5.78-7.79v-26.88z" fill="#89c2d4"/><path d="M2487.65 1056.88c-7.44-4.3-19.24-4.46-26.33-.37l-102.75 59.33c-7.1 4.09-6.8 10.9.64 15.2l152.84 88.24c7.45 4.3 19.24 4.47 26.33.38l102.76-59.33c7.09-4.1 6.8-10.9-.65-15.2l-152.84-88.25z" fill="#fff" stroke="#000" stroke-width="10"/><path d="M2370.56 1121.24a8.88 8.88 0 018.03 0c2.21 1.28 2.21 3.36 0 4.63a8.88 8.88 0 01-8.03 0c-2.21-1.27-2.21-3.35 0-4.63zM2472.55 1062.36a8.88 8.88 0 018.03 0c2.21 1.28 2.21 3.36 0 4.63a8.88 8.88 0 01-8.03 0c-2.22-1.27-2.22-3.35 0-4.63zM2523.99 1210.91a8.88 8.88 0 018.03 0c2.21 1.28 2.21 3.36 0 4.63a8.88 8.88 0 01-8.03 0c-2.21-1.27-2.21-3.35 0-4.63zM2625.98 1152.02a8.88 8.88 0 018.03 0c2.21 1.28 2.21 3.36 0 4.63a8.88 8.88 0 01-8.03 0c-2.21-1.27-2.21-3.35 0-4.63zM2444.84 1165.21a8.88 8.88 0 018.03 0c2.21 1.28 2.21 3.36 0 4.63a8.88 8.88 0 01-8.03 0c-2.21-1.27-2.21-3.35 0-4.63zM2546.83 1106.33a8.88 8.88 0 018.03 0c2.21 1.28 2.21 3.36 0 4.63a8.88 8.88 0 01-8.03 0c-2.21-1.27-2.21-3.35 0-4.63z"/></g><g><path d="M2353.43 1075.98c.07 2.79 2 2.83 5.78 5l152.84 88.25c7.44 4.3 19.24 4.47 26.33.37l102.75-59.32c3.5-2.02 5.2-4.7 5.14-7.42v29.82c0 2.66-1.7 5.28-5.14 7.26l-102.75 59.33c-7.09 4.09-18.89 3.92-26.33-.37l-152.84-88.25c-3.77-2.18-5.71-5-5.78-7.79v-26.88z" fill="#89c2d4"/><path d="M2487.65 997.56c-7.44-4.3-19.24-4.46-26.33-.37l-102.75 59.32c-7.1 4.1-6.8 10.9.64 15.2l152.84 88.25c7.45 4.3 19.24 4.47 26.33.37l102.76-59.32c7.09-4.1 6.8-10.9-.65-15.2l-152.84-88.25z" fill="#fff" stroke="#000" stroke-width="10"/><path d="M2370.56 1061.92a8.88 8.88 0 018.03 0c2.21 1.28 2.21 3.35 0 4.63a8.88 8.88 0 01-8.03 0c-2.21-1.27-2.21-3.35 0-4.63zM2472.55 1003.03a8.88 8.88 0 018.03 0c2.21 1.28 2.21 3.36 0 4.63a8.88 8.88 0 01-8.03 0c-2.22-1.27-2.22-3.35 0-4.63zM2523.99 1151.58a8.88 8.88 0 018.03 0c2.21 1.28 2.21 3.36 0 4.63a8.88 8.88 0 01-8.03 0c-2.21-1.27-2.21-3.35 0-4.63zM2625.98 1092.7a8.88 8.88 0 018.03 0c2.21 1.28 2.21 3.36 0 4.63a8.88 8.88 0 01-8.03 0c-2.21-1.27-2.21-3.35 0-4.63zM2444.84 1105.89a8.88 8.88 0 018.03 0c2.21 1.28 2.21 3.36 0 4.63a8.88 8.88 0 01-8.03 0c-2.21-1.27-2.21-3.35 0-4.63zM2546.83 1047a8.88 8.88 0 018.03 0c2.21 1.28 2.21 3.36 0 4.63a8.88 8.88 0 01-8.03 0c-2.21-1.27-2.21-3.35 0-4.63z"/></g><g><path d="M2353.43 1016.65c.07 2.79 2 2.83 5.78 5l152.84 88.25c7.44 4.3 19.24 4.47 26.33.37l102.75-59.32c3.5-2.02 5.2-4.7 5.14-7.42v29.82c0 2.66-1.7 5.28-5.14 7.26l-102.75 59.33c-7.09 4.09-18.89 3.92-26.33-.38l-152.84-88.24c-3.77-2.18-5.71-5-5.78-7.79v-26.88z" fill="#89c2d4"/><path d="M2487.65 938.23c-7.44-4.3-19.24-4.46-26.33-.37l-102.75 59.33c-7.1 4.1-6.8 10.9.64 15.2l152.84 88.25c7.45 4.3 19.24 4.46 26.33.37l102.76-59.33c7.09-4.09 6.8-10.9-.65-15.2l-152.84-88.25z" fill="#fff" stroke="#000" stroke-width="10"/><path d="M2370.56 1002.59a8.88 8.88 0 018.03 0c2.21 1.28 2.21 3.36 0 4.63a8.88 8.88 0 01-8.03 0c-2.21-1.27-2.21-3.35 0-4.63zM2472.55 943.7a8.88 8.88 0 018.03 0c2.21 1.28 2.21 3.36 0 4.64a8.88 8.88 0 01-8.03 0c-2.22-1.28-2.22-3.36 0-4.63zM2523.99 1092.26a8.88 8.88 0 018.03 0c2.21 1.28 2.21 3.35 0 4.63a8.88 8.88 0 01-8.03 0c-2.21-1.28-2.21-3.35 0-4.63zM2625.98 1033.37a8.88 8.88 0 018.03 0c2.21 1.28 2.21 3.36 0 4.63a8.88 8.88 0 01-8.03 0c-2.21-1.27-2.21-3.35 0-4.63zM2444.84 1046.56a8.88 8.88 0 018.03 0c2.21 1.28 2.21 3.36 0 4.63a8.88 8.88 0 01-8.03 0c-2.21-1.27-2.21-3.35 0-4.63zM2546.83 987.68a8.88 8.88 0 018.03 0c2.21 1.28 2.21 3.35 0 4.63a8.88 8.88 0 01-8.03 0c-2.21-1.28-2.21-3.35 0-4.63z"/><g stroke="#000" stroke-width="10"><path d="M2423.31 972.18c24.66-14.23 64.7-14.24 89.35 0 24.66 14.24 24.65 37.35 0 51.59-24.66 14.23-64.7 14.23-89.35 0-24.66-14.24-24.66-37.35 0-51.59z" fill="none"/><path d="M2457.3 989.31c7.09-4.1 18.6-4.1 25.69 0s7.09 10.74 0 14.83c-7.09 4.1-18.6 4.1-25.69 0s-7.09-10.74 0-14.83zM2572.78 1009.83c-2.46-1.42-6.18-1.57-8.31-.34l-76.55 44.2c-2.13 1.22-1.86 3.37.6 4.79l35.63 20.57c2.45 1.42 6.18 1.57 8.3.34l76.56-44.2c2.12-1.22 1.86-3.37-.6-4.79l-35.63-20.57z" fill="none"/><path d="M2559.15 1037.2l-77.34-18.91 88.27 3.05c1.76.08 3.5.32 5.14.72 7.82 1.9 10.56 6.85 6.13 11.03-4.44 4.18-14.38 6.02-22.2 4.11z" fill="#fff"/></g></g><g><path d="M2187.16 1292.06c.07 2.79 2 2.83 5.78 5l152.84 88.25c7.44 4.3 19.24 4.47 26.33.37l102.75-59.32c3.5-2.02 5.2-4.7 5.14-7.42v29.82c0 2.66-1.7 5.28-5.14 7.26l-102.75 59.33c-7.09 4.09-18.89 3.92-26.33-.37l-152.84-88.25c-3.77-2.18-5.71-5-5.78-7.79v-26.88z" fill="#89c2d4"/><path d="M2321.37 1213.64c-7.44-4.3-19.24-4.46-26.33-.37l-102.75 59.33c-7.1 4.09-6.8 10.9.64 15.2l152.84 88.24c7.45 4.3 19.25 4.47 26.33.38l102.76-59.33c7.09-4.1 6.8-10.9-.65-15.2l-152.84-88.25z" fill="#fff" stroke="#000" stroke-width="10"/><path d="M2204.29 1277.99a8.88 8.88 0 018.03 0c2.21 1.28 2.21 3.36 0 4.63a8.88 8.88 0 01-8.03 0c-2.22-1.27-2.22-3.35 0-4.63zM2306.28 1219.11a8.88 8.88 0 018.03 0c2.21 1.28 2.21 3.36 0 4.63a8.88 8.88 0 01-8.03 0c-2.21-1.27-2.21-3.35 0-4.63zM2357.71 1367.66a8.88 8.88 0 018.03 0c2.21 1.28 2.21 3.36 0 4.63a8.88 8.88 0 01-8.03 0c-2.21-1.27-2.21-3.35 0-4.63zM2459.7 1308.78a8.88 8.88 0 018.03 0c2.21 1.28 2.21 3.36 0 4.63a8.88 8.88 0 01-8.03 0c-2.22-1.27-2.22-3.35 0-4.63zM2278.57 1321.96a8.88 8.88 0 018.03 0c2.21 1.28 2.21 3.36 0 4.63a8.88 8.88 0 01-8.03 0c-2.21-1.27-2.21-3.35 0-4.63zM2380.56 1263.08a8.88 8.88 0 018.03 0c2.21 1.28 2.21 3.36 0 4.63a8.88 8.88 0 01-8.03 0c-2.21-1.27-2.21-3.35 0-4.63z"/><g><path d="M2187.16 1232.73c.07 2.79 2 2.83 5.78 5l152.84 88.25c7.44 4.3 19.24 4.47 26.33.37l102.75-59.32c3.5-2.02 5.2-4.7 5.14-7.42v29.82c0 2.66-1.7 5.28-5.14 7.26l-102.75 59.33c-7.09 4.09-18.89 3.92-26.33-.37l-152.84-88.25c-3.77-2.18-5.71-5-5.78-7.79v-26.88z" fill="#89c2d4"/><path d="M2321.37 1154.31c-7.44-4.3-19.24-4.46-26.33-.37l-102.75 59.32c-7.1 4.1-6.8 10.9.64 15.2l152.84 88.25c7.45 4.3 19.25 4.47 26.33.37l102.76-59.32c7.09-4.1 6.8-10.9-.65-15.2l-152.84-88.25z" fill="#fff" stroke="#000" stroke-width="10"/><path d="M2204.29 1218.67a8.88 8.88 0 018.03 0c2.21 1.28 2.21 3.35 0 4.63a8.88 8.88 0 01-8.03 0c-2.22-1.27-2.22-3.35 0-4.63zM2306.28 1159.78a8.88 8.88 0 018.03 0c2.21 1.28 2.21 3.36 0 4.63a8.88 8.88 0 01-8.03 0c-2.21-1.27-2.21-3.35 0-4.63zM2357.71 1308.34a8.88 8.88 0 018.03 0c2.21 1.28 2.21 3.36 0 4.63a8.88 8.88 0 01-8.03 0c-2.21-1.27-2.21-3.35 0-4.63zM2459.7 1249.45a8.88 8.88 0 018.03 0c2.21 1.28 2.21 3.36 0 4.63a8.88 8.88 0 01-8.03 0c-2.22-1.27-2.22-3.35 0-4.63zM2278.57 1262.64a8.88 8.88 0 018.03 0c2.21 1.28 2.21 3.36 0 4.63a8.88 8.88 0 01-8.03 0c-2.21-1.27-2.21-3.35 0-4.63zM2380.56 1203.75a8.88 8.88 0 018.03 0c2.21 1.28 2.21 3.36 0 4.63a8.88 8.88 0 01-8.03 0c-2.21-1.27-2.21-3.35 0-4.63z"/></g><g><path d="M2187.16 1173.41c.07 2.79 2 2.83 5.78 5l152.84 88.25c7.44 4.3 19.24 4.47 26.33.37l102.75-59.32c3.5-2.02 5.2-4.7 5.14-7.42v29.82c0 2.66-1.7 5.28-5.14 7.26l-102.75 59.33c-7.09 4.09-18.89 3.92-26.33-.37l-152.84-88.25c-3.77-2.18-5.71-5-5.78-7.79v-26.88z" fill="#89c2d4"/><path d="M2321.37 1094.99c-7.44-4.3-19.24-4.46-26.33-.37l-102.75 59.33c-7.1 4.09-6.8 10.9.64 15.2l152.84 88.24c7.45 4.3 19.25 4.47 26.33.37l102.76-59.32c7.09-4.1 6.8-10.9-.65-15.2l-152.84-88.25z" fill="#fff" stroke="#000" stroke-width="10"/><path d="M2204.29 1159.34a8.88 8.88 0 018.03 0c2.21 1.28 2.21 3.36 0 4.63a8.88 8.88 0 01-8.03 0c-2.22-1.27-2.22-3.35 0-4.63zM2306.28 1100.46a8.88 8.88 0 018.03 0c2.21 1.28 2.21 3.36 0 4.63a8.88 8.88 0 01-8.03 0c-2.21-1.27-2.21-3.35 0-4.63zM2357.71 1249.01a8.88 8.88 0 018.03 0c2.21 1.28 2.21 3.35 0 4.63a8.88 8.88 0 01-8.03 0c-2.21-1.28-2.21-3.35 0-4.63zM2459.7 1190.12a8.88 8.88 0 018.03 0c2.21 1.28 2.21 3.36 0 4.63a8.88 8.88 0 01-8.03 0c-2.22-1.27-2.22-3.35 0-4.63zM2278.57 1203.31a8.88 8.88 0 018.03 0c2.21 1.28 2.21 3.36 0 4.63a8.88 8.88 0 01-8.03 0c-2.21-1.27-2.21-3.35 0-4.63zM2380.56 1144.43a8.88 8.88 0 018.03 0c2.21 1.28 2.21 3.36 0 4.63a8.88 8.88 0 01-8.03 0c-2.21-1.27-2.21-3.35 0-4.63z"/></g><g><path d="M2187.16 1114.08c.07 2.79 2 2.83 5.78 5l152.84 88.25c7.44 4.3 19.24 4.47 26.33.37l102.75-59.32c3.5-2.02 5.2-4.7 5.14-7.42v29.82c0 2.66-1.7 5.28-5.14 7.26l-102.75 59.33c-7.09 4.09-18.89 3.92-26.33-.37l-152.84-88.25c-3.77-2.18-5.71-5-5.78-7.79v-26.88z" fill="#89c2d4"/><path d="M2321.37 1035.66c-7.44-4.3-19.24-4.46-26.33-.37l-102.75 59.33c-7.1 4.09-6.8 10.9.64 15.2l152.84 88.24c7.45 4.3 19.25 4.47 26.33.38l102.76-59.33c7.09-4.1 6.8-10.9-.65-15.2l-152.84-88.25z" fill="#fff" stroke="#000" stroke-width="10"/><path d="M2204.29 1100.02a8.88 8.88 0 018.03 0c2.21 1.28 2.21 3.36 0 4.63a8.88 8.88 0 01-8.03 0c-2.22-1.27-2.22-3.35 0-4.63zM2306.28 1041.13a8.87 8.87 0 018.03 0c2.21 1.28 2.21 3.35 0 4.63a8.88 8.88 0 01-8.03 0c-2.21-1.27-2.21-3.35 0-4.63zM2357.71 1189.68a8.88 8.88 0 018.03 0c2.21 1.28 2.21 3.36 0 4.63a8.88 8.88 0 01-8.03 0c-2.21-1.27-2.21-3.35 0-4.63zM2459.7 1130.8a8.88 8.88 0 018.03 0c2.21 1.28 2.21 3.36 0 4.63a8.88 8.88 0 01-8.03 0c-2.22-1.27-2.22-3.35 0-4.63zM2278.57 1143.99a8.88 8.88 0 018.03 0c2.21 1.28 2.21 3.36 0 4.63a8.88 8.88 0 01-8.03 0c-2.21-1.27-2.21-3.35 0-4.63zM2380.56 1085.1a8.88 8.88 0 018.03 0c2.21 1.28 2.21 3.36 0 4.63a8.88 8.88 0 01-8.03 0c-2.21-1.27-2.21-3.35 0-4.63z"/><g stroke="#000" stroke-width="10"><path d="M2257.04 1069.61c24.66-14.24 64.7-14.24 89.35 0 24.66 14.23 24.65 37.35 0 51.59-24.66 14.23-64.7 14.23-89.35 0-24.66-14.24-24.66-37.35 0-51.59z" fill="none"/><path d="M2291.03 1086.74c7.09-4.1 18.6-4.1 25.69 0s7.09 10.74 0 14.83c-7.1 4.1-18.6 4.1-25.69 0s-7.09-10.74 0-14.83zM2406.51 1107.26c-2.46-1.42-6.18-1.57-8.31-.34l-76.55 44.2c-2.13 1.22-1.86 3.37.6 4.79l35.63 20.57c2.45 1.42 6.18 1.57 8.3.34l76.56-44.2c2.12-1.22 1.86-3.37-.6-4.79l-35.63-20.57z" fill="none"/><path d="M2392.88 1134.63l-77.34-18.91 88.27 3.05c1.76.08 3.5.32 5.14.72 7.82 1.9 10.56 6.85 6.13 11.03-4.44 4.18-14.38 6.02-22.2 4.11z" fill="#fff"/></g></g></g><g><path d="M2176.28 618.33c-11.59 6.7-11.12 17.83 1.05 24.85l249.86 144.26c12.17 7.03 31.46 7.3 43.04.6l167.98-96.97c11.59-6.7 11.11-17.83-1.05-24.85" fill="none" stroke="#000" stroke-width="10"/><path d="M2165.82 569.73c.11 4.56 3.28 4.63 9.44 8.18l249.86 144.26c12.17 7.03 31.46 7.3 43.05.61l167.97-96.98c5.72-3.3 8.5-7.68 8.39-12.12v48.74c0 4.35-2.78 8.63-8.4 11.87l-167.96 96.98c-11.6 6.7-30.88 6.42-43.05-.6L2175.26 626.4c-6.16-3.56-9.33-8.18-9.44-12.73v-43.95z" fill="#89c2d4"/><path d="M2385.23 441.53c-12.17-7.02-31.45-7.3-43.04-.6L2174.2 537.9c-11.59 6.69-11.11 17.83 1.05 24.85l249.86 144.26c12.17 7.03 31.46 7.3 43.05.6l167.97-96.97c11.59-6.7 11.12-17.83-1.05-24.86l-249.86-144.26z" fill="#fff" stroke="#000" stroke-width="10"/><path d="M2615.96 653.97c3.85-2.22 6.98-.41 6.98 4.04 0 4.44-3.13 9.86-6.98 12.09-3.85 2.22-6.98.42-6.98-4.03s3.13-9.87 6.98-12.1zM2593.39 667c3.85-2.22 6.98-.41 6.98 4.04s-3.13 9.87-6.98 12.1c-3.85 2.21-6.98.4-6.98-4.04 0-4.45 3.13-9.87 6.98-12.1z" fill="#fff"/><path d="M2572.43 687.17l-91.37 52.75" fill="none" stroke="#fff" stroke-width="10"/></g><g><path d="M2396.3 941.78l-13.4-56.26 26.8-15.48-13.4 71.74z"/><path d="M2396.3 909.78v-104" fill="none" stroke="#000" stroke-width="10"/></g><g><path d="M2465.2 235.4c0-14.07-10.37-22.78-22.4-22.78-11.97 0-22.4 8.7-22.4 22.79 0 14.08 10.43 22.78 22.4 22.78 12.03 0 22.4-8.7 22.4-22.78zm-3.59-.06c0 12.29-8.7 19.59-18.82 19.59-9.98 0-18.75-7.3-18.75-19.59 0-12.41 8.7-19.65 18.75-19.65 10.12 0 18.82 7.3 18.82 19.65zM2502.18 242.57c0-8.83-5.75-15.36-14.59-15.36-4.28 0-8.32 1.73-11.2 6.21v-20.16h-3.32v44.16h3.32v-5.63c2.5 4.35 6.6 6.27 11.08 6.27 8.96 0 14.71-6.72 14.71-15.49zm-3.51 0c0 6.85-4.04 12.48-11.2 12.48-7.24 0-11.2-5.63-11.2-12.48 0-6.9 3.96-12.48 11.2-12.48 7.16 0 11.2 5.57 11.2 12.48zM2514.28 217.17a2.73 2.73 0 00-2.75-2.76 2.73 2.73 0 00-2.75 2.76 2.73 2.73 0 002.75 2.75 2.73 2.73 0 002.75-2.75zm-1.09 40.9v-30.34h-3.33v30.33c0 4.8-.19 9.28-4.99 9.28-1.6 0-2.88-.45-2.88-.45v2.88s.96.45 2.88.45c7.17 0 8.32-6.46 8.32-12.16zM2548.71 241.1c0-8-5.63-13.89-13.44-13.89-7.87 0-14.4 6.21-14.4 15.36 0 9.1 5.57 15.5 14.21 15.5s12.35-4.49 12.35-4.49l-1.6-2.37s-3.7 3.84-10.43 3.84c-6.72 0-10.69-4.67-11-11.7h24.12s.2-1.29.2-2.25zm-3.39-.64h-20.8c.2-4.16 3.2-10.37 10.56-10.37s10.24 6.53 10.24 10.37zM2580.52 252.94l-1.92-2.24s-3.2 4.35-9.92 4.35-11.33-5.3-11.33-12.67c0-7.36 5.25-12.16 11.2-12.16 5.9 0 8.45 2.88 9.73 4.35l2.11-2.24c-.64-.83-3.84-5.12-11.7-5.12-7.82 0-14.86 6.21-14.86 15.36 0 9.1 6.53 15.5 14.53 15.5 8 0 11.07-3.85 12.16-5.13zM2598.31 257.1l-.32-2.88s-1.28.83-3.2.83c-3.96 0-4.35-3.9-4.35-7.16v-17.03h7.55v-3h-7.48v-9.48h-3.4v9.47h-4.48v3.01h4.48v15.04c0 4.8.07 6.98 1.1 8.96 1.08 1.99 2.74 3.2 5.62 3.2 1.92 0 3.4-.32 4.48-.96zM2437.35 309.9c0-6.72-5.37-9.66-6.4-10.24-1.02-.57-5.95-2.62-9.08-3.97-3.14-1.34-6.6-3.32-6.6-8.32 0-4.99 4.1-7.68 9.22-7.68 5.12 0 7.68 2.7 9.34 4.8l2.44-2.1c-.39-.65-4.1-5.77-11.52-5.77-7.43 0-13 4.48-13 10.88s4.68 9.28 6.4 10.24a82.3 82.3 0 007.24 3.2c2.56 1.03 8.44 3.2 8.44 8.96 0 5.76-4.6 9.28-10.3 9.28-5.7 0-9.54-3.9-11.14-6.85l-2.68 1.92c.96 1.8 4.92 7.94 13.5 7.94s14.14-5.57 14.14-12.29zM2457.2 321.1l-.32-2.88s-1.28.83-3.2.83c-3.97 0-4.36-3.9-4.36-7.16v-17.03h7.56v-3h-7.5v-9.48H2446v9.47h-4.48v3.01h4.48v15.04c0 4.8.06 6.98 1.08 8.96 1.1 1.99 2.76 3.2 5.64 3.2 1.92 0 3.39-.32 4.48-.96zM2491.12 306.7c0-8.96-6.72-15.49-15.24-15.49-8.44 0-15.16 6.53-15.16 15.5 0 8.95 6.72 15.35 15.16 15.35 8.52 0 15.24-6.4 15.24-15.36zm-3.52-.13c0 6.85-4.48 12.48-11.72 12.48-7.16 0-11.64-5.63-11.64-12.48 0-6.9 4.48-12.48 11.64-12.48 7.24 0 11.72 5.57 11.72 12.48zM2512.23 294.93l.32-3.27s-1.28-.45-3.2-.45c-3.2 0-6.46 2.05-7.55 6.08v-5.56h-3.32v29.7h3.32v-16c0-4.55 1.54-11.02 7.23-11.02 1.6 0 2.5.26 3.2.52zM2536.87 321.42v-17.6c0-7.87-3.58-12.6-11.84-12.6-4.48 0-8 1.72-9.92 3l1.28 2.43c.64-.5 4.16-2.56 8.77-2.56 4.67 0 8.32 2.7 8.32 8.13v1.6l-8.13.32c-8 .32-11.84 3.84-11.84 8.96 0 5.12 4.16 8.96 9.92 8.96s8.96-3.52 10.05-4.8v4.16h3.4zm-3.39-15.04v7.36c-1.4 2.24-4.6 5.44-9.4 5.44-4.8 0-7.24-2.88-7.24-6.08s1.99-5.89 8.2-6.2l8.44-.52zM2572.71 315.02v-23.3h-3.39v5.64c-1.98-3.52-5.89-6.15-11.2-6.15-7.8 0-14.53 5.83-14.53 15.1 0 9.29 6.72 15.11 14.53 15.11 5.31 0 9.03-2.5 11.2-6.33v2.17c0 7.81-2.75 13.95-11.52 13.95-4.8 0-9.28-2.43-10.88-4.03l-1.92 2.56s4.8 4.48 12.48 4.48c7.68 0 11.2-3.84 12.8-6.4 1.6-2.56 2.43-6.08 2.43-12.8zm-3.2-8.77c0 6.72-3.84 12.16-11.2 12.16-7.36 0-11.2-5.44-11.2-12.16s3.84-12.1 11.2-12.1c7.36 0 11.2 5.38 11.2 12.1zM2607.91 305.1c0-8-5.63-13.89-13.44-13.89-7.87 0-14.4 6.21-14.4 15.36 0 9.1 5.57 15.5 14.21 15.5s12.35-4.49 12.35-4.49l-1.6-2.37s-3.7 3.84-10.43 3.84c-6.72 0-10.69-4.67-11-11.7h24.12s.2-1.29.2-2.25zm-3.39-.64h-20.8c.2-4.16 3.2-10.37 10.56-10.37s10.24 6.53 10.24 10.37zM2456.48 373.9c0-6.72-5.37-9.66-6.4-10.24-1.02-.57-5.95-2.62-9.08-3.97-3.14-1.34-6.6-3.32-6.6-8.32 0-4.99 4.1-7.68 9.22-7.68 5.12 0 7.68 2.7 9.34 4.8l2.44-2.1c-.39-.65-4.1-5.77-11.52-5.77-7.43 0-13 4.48-13 10.88s4.68 9.28 6.4 10.24a82.3 82.3 0 007.24 3.2c2.56 1.03 8.44 3.2 8.44 8.96 0 5.76-4.6 9.28-10.3 9.28-5.7 0-9.54-3.9-11.14-6.85l-2.68 1.92c.96 1.8 4.92 7.94 13.5 7.94s14.14-5.57 14.14-12.29zM2489.77 369.1c0-8-5.64-13.89-13.44-13.89-7.88 0-14.4 6.21-14.4 15.36 0 9.1 5.56 15.5 14.2 15.5s12.36-4.49 12.36-4.49l-1.6-2.37s-3.72 3.84-10.44 3.84c-6.72 0-10.68-4.67-11-11.7h24.12s.2-1.29.2-2.25zm-3.4-.64h-20.8c.2-4.16 3.2-10.37 10.56-10.37s10.24 6.53 10.24 10.37zM2510.56 358.93l.32-3.27s-1.28-.45-3.2-.45c-3.2 0-6.46 2.05-7.55 6.08v-5.56h-3.32v29.7h3.32v-16c0-4.55 1.54-11.02 7.23-11.02 1.6 0 2.5.26 3.2.52zM2539.04 355.73h-3.52l-10.24 24.9-10.24-24.9h-3.52l12.48 29.7h2.56l12.48-29.7zM2569.57 369.1c0-8-5.63-13.89-13.44-13.89-7.87 0-14.4 6.21-14.4 15.36 0 9.1 5.57 15.5 14.21 15.5s12.35-4.49 12.35-4.49l-1.6-2.37s-3.7 3.84-10.43 3.84c-6.72 0-10.69-4.67-11-11.7h24.12s.2-1.29.2-2.25zm-3.39-.64h-20.8c.2-4.16 3.2-10.37 10.56-10.37s10.24 6.53 10.24 10.37zM2590.37 358.93l.32-3.27s-1.28-.45-3.2-.45c-3.2 0-6.46 2.05-7.55 6.08v-5.56h-3.33v29.7h3.33v-16c0-4.55 1.54-11.02 7.23-11.02 1.6 0 2.5.26 3.2.52zM2447.4 457.74l2.24-1.28c-3.2-4.8-7.68-16-7.68-27.2s4.48-22.4 7.68-27.2l-2.24-1.28c-5.12 7.68-8.96 17.28-8.96 28.48s3.84 20.8 8.96 28.48zM2497.12 427.4c0-14.07-10.36-22.78-22.4-22.78-11.96 0-22.4 8.7-22.4 22.79 0 14.08 10.44 22.78 22.4 22.78 12.04 0 22.4-8.7 22.4-22.78zm-3.58-.06c0 12.29-8.7 19.59-18.82 19.59-9.98 0-18.75-7.3-18.75-19.59 0-12.41 8.7-19.65 18.75-19.65 10.12 0 18.82 7.3 18.82 19.65zM2530.08 437.9c0-6.72-5.37-9.66-6.4-10.24-1.02-.57-5.95-2.62-9.09-3.97-3.13-1.34-6.59-3.32-6.59-8.32 0-4.99 4.1-7.68 9.22-7.68 5.12 0 7.68 2.7 9.34 4.8l2.43-2.1c-.38-.65-4.1-5.77-11.52-5.77s-12.99 4.48-12.99 10.88 4.67 9.28 6.4 10.24a82.3 82.3 0 007.23 3.2c2.56 1.03 8.45 3.2 8.45 8.96 0 5.76-4.6 9.28-10.3 9.28-5.7 0-9.54-3.9-11.14-6.85l-2.69 1.92c.96 1.8 4.93 7.94 13.5 7.94 8.58 0 14.15-5.57 14.15-12.29zM2562.85 437.9c0-6.72-5.37-9.66-6.4-10.24-1.02-.57-5.95-2.62-9.09-3.97-3.13-1.34-6.59-3.32-6.59-8.32 0-4.99 4.1-7.68 9.22-7.68 5.12 0 7.68 2.7 9.34 4.8l2.43-2.1c-.38-.65-4.1-5.77-11.52-5.77s-12.99 4.48-12.99 10.88 4.67 9.28 6.4 10.24a82.3 82.3 0 007.23 3.2c2.56 1.03 8.45 3.2 8.45 8.96 0 5.76-4.6 9.28-10.3 9.28-5.7 0-9.54-3.9-11.14-6.85l-2.69 1.92c.96 1.8 4.93 7.94 13.5 7.94 8.58 0 14.15-5.57 14.15-12.29zM2578.53 429.26c0-11.2-3.84-20.8-8.96-28.48l-2.24 1.28c3.2 4.8 7.68 16 7.68 27.2s-4.48 22.4-7.68 27.2l2.24 1.28c5.12-7.68 8.96-17.28 8.96-28.48z" fill-rule="nonzero"/></g><g><path d="M2269.45 1470.4c0-14.09-10.37-22.8-22.4-22.8-11.97 0-22.4 8.71-22.4 22.8 0 14.07 10.43 22.78 22.4 22.78 12.03 0 22.4-8.7 22.4-22.79zm-3.59-.07c0 12.29-8.7 19.58-18.81 19.58-9.99 0-18.75-7.3-18.75-19.58 0-12.42 8.7-19.65 18.75-19.65 10.11 0 18.81 7.3 18.81 19.65zM2306.44 1477.56c0-8.83-5.76-15.36-14.6-15.36-4.28 0-8.31 1.73-11.2 6.2v-20.15h-3.32v44.16h3.33v-5.63c2.5 4.35 6.59 6.27 11.07 6.27 8.96 0 14.72-6.72 14.72-15.49zm-3.52 0c0 6.85-4.03 12.48-11.2 12.48-7.23 0-11.2-5.63-11.2-12.48 0-6.91 3.97-12.48 11.2-12.48 7.17 0 11.2 5.57 11.2 12.48zM2318.54 1452.15a2.73 2.73 0 00-2.76-2.75 2.73 2.73 0 00-2.75 2.75 2.73 2.73 0 002.75 2.75 2.73 2.73 0 002.76-2.75zm-1.1 40.9v-30.34h-3.32v30.34c0 4.8-.2 9.28-5 9.28-1.6 0-2.87-.45-2.87-.45v2.88s.96.45 2.88.45c7.17 0 8.32-6.46 8.32-12.16zM2352.97 1476.09c0-8-5.63-13.89-13.44-13.89-7.87 0-14.4 6.2-14.4 15.36 0 9.09 5.57 15.49 14.2 15.49 8.65 0 12.36-4.48 12.36-4.48l-1.6-2.37s-3.71 3.84-10.43 3.84-10.7-4.67-11.01-11.71h24.13s.19-1.28.19-2.24zm-3.4-.64h-20.8c.2-4.16 3.2-10.37 10.57-10.37 7.36 0 10.24 6.53 10.24 10.37zM2384.78 1487.93l-1.92-2.24s-3.2 4.35-9.92 4.35-11.33-5.31-11.33-12.67 5.25-12.16 11.2-12.16c5.89 0 8.45 2.88 9.73 4.35l2.1-2.24c-.63-.83-3.83-5.12-11.7-5.12-7.81 0-14.85 6.2-14.85 15.36 0 9.09 6.53 15.49 14.53 15.49 8 0 11.07-3.84 12.16-5.12zM2402.57 1492.09l-.32-2.88s-1.28.83-3.2.83c-3.97 0-4.35-3.9-4.35-7.17v-17.02h7.55v-3h-7.5v-9.48h-3.38v9.47h-4.48v3h4.48v15.05c0 4.8.06 6.98 1.09 8.96 1.08 1.98 2.75 3.2 5.63 3.2 1.92 0 3.39-.32 4.48-.96zM2446.85 1480.89c0-6.72-5.37-9.66-6.4-10.24-1.02-.58-5.95-2.62-9.08-3.97-3.14-1.34-6.6-3.33-6.6-8.32 0-5 4.1-7.68 9.22-7.68 5.12 0 7.68 2.69 9.34 4.8l2.44-2.11c-.39-.64-4.1-5.76-11.52-5.76-7.43 0-13 4.48-13 10.88s4.68 9.28 6.4 10.24a82.3 82.3 0 007.24 3.2c2.56 1.02 8.44 3.2 8.44 8.96 0 5.76-4.6 9.28-10.3 9.28-5.7 0-9.54-3.9-11.14-6.85l-2.68 1.92c.96 1.8 4.92 7.94 13.5 7.94s14.14-5.57 14.14-12.3zM2466.7 1492.09l-.32-2.88s-1.28.83-3.2.83c-3.97 0-4.36-3.9-4.36-7.17v-17.02h7.56v-3h-7.5v-9.48h-3.38v9.47h-4.48v3h4.48v15.05c0 4.8.06 6.98 1.08 8.96 1.1 1.98 2.76 3.2 5.64 3.2 1.92 0 3.39-.32 4.48-.96zM2500.62 1477.69c0-8.96-6.72-15.49-15.24-15.49-8.44 0-15.16 6.53-15.16 15.49s6.72 15.36 15.16 15.36c8.52 0 15.24-6.4 15.24-15.36zm-3.52-.13c0 6.85-4.48 12.48-11.72 12.48-7.16 0-11.64-5.63-11.64-12.48 0-6.91 4.48-12.48 11.64-12.48 7.24 0 11.72 5.57 11.72 12.48zM2521.73 1465.91l.32-3.26s-1.28-.45-3.2-.45c-3.2 0-6.46 2.05-7.55 6.08v-5.57h-3.33v29.7h3.33v-16c0-4.55 1.54-11 7.23-11 1.6 0 2.5.25 3.2.5zM2546.37 1492.4v-17.6c0-7.86-3.58-12.6-11.84-12.6-4.48 0-8 1.73-9.92 3l1.28 2.44c.64-.51 4.16-2.56 8.77-2.56 4.67 0 8.32 2.69 8.32 8.13v1.6l-8.13.32c-8 .32-11.84 3.84-11.84 8.96 0 5.12 4.16 8.96 9.92 8.96s8.96-3.52 10.05-4.8v4.16h3.4zm-3.39-15.03v7.36c-1.4 2.24-4.6 5.44-9.4 5.44-4.8 0-7.24-2.88-7.24-6.08s1.99-5.89 8.2-6.2l8.44-.52zM2582.21 1486v-23.29h-3.39v5.63c-1.98-3.51-5.89-6.14-11.2-6.14-7.8 0-14.53 5.82-14.53 15.1 0 9.29 6.72 15.1 14.53 15.1 5.31 0 9.03-2.49 11.2-6.33v2.18c0 7.8-2.75 13.95-11.52 13.95-4.8 0-9.28-2.43-10.88-4.03l-1.92 2.56s4.8 4.48 12.48 4.48c7.68 0 11.2-3.84 12.8-6.4 1.6-2.56 2.43-6.08 2.43-12.8zm-3.2-8.76c0 6.72-3.84 12.16-11.2 12.16-7.36 0-11.2-5.44-11.2-12.16s3.84-12.1 11.2-12.1c7.36 0 11.2 5.38 11.2 12.1zM2617.41 1476.09c0-8-5.63-13.89-13.44-13.89-7.87 0-14.4 6.2-14.4 15.36 0 9.09 5.57 15.49 14.21 15.49s12.35-4.48 12.35-4.48l-1.6-2.37s-3.7 3.84-10.43 3.84c-6.72 0-10.69-4.67-11-11.71h24.12s.2-1.28.2-2.24zm-3.39-.64h-20.8c.2-4.16 3.2-10.37 10.56-10.37s10.24 6.53 10.24 10.37zM2368.45 1515.39v-3.14h-29.7v3.14h13.13v41.02h3.45v-41.02h13.12zM2393.42 1556.4v-17.6c0-7.86-3.59-12.6-11.84-12.6-4.48 0-8 1.73-9.92 3l1.28 2.44c.64-.51 4.16-2.56 8.77-2.56 4.67 0 8.32 2.69 8.32 8.13v1.6l-8.13.32c-8 .32-11.84 3.84-11.84 8.96 0 5.12 4.16 8.96 9.92 8.96s8.96-3.52 10.05-4.8v4.16h3.39zm-3.4-15.03v7.36c-1.4 2.24-4.6 5.44-9.4 5.44-4.8 0-7.23-2.88-7.23-6.08s1.98-5.89 8.19-6.2l8.45-.52zM2416.14 1529.91l.32-3.26s-1.28-.45-3.2-.45c-3.2 0-6.47 2.05-7.55 6.08v-5.57h-3.33v29.7h3.33v-16c0-4.55 1.53-11 7.23-11 1.6 0 2.5.25 3.2.5zM2448.14 1550v-23.29h-3.4v5.63c-1.98-3.51-5.88-6.14-11.2-6.14-7.8 0-14.52 5.82-14.52 15.1 0 9.29 6.72 15.1 14.52 15.1 5.32 0 9.03-2.49 11.2-6.33v2.18c0 7.8-2.75 13.95-11.52 13.95-4.8 0-9.28-2.43-10.88-4.03l-1.92 2.56s4.8 4.48 12.48 4.48c7.68 0 11.2-3.84 12.8-6.4 1.6-2.56 2.44-6.08 2.44-12.8zm-3.2-8.76c0 6.72-3.84 12.16-11.2 12.16-7.36 0-11.2-5.44-11.2-12.16s3.84-12.1 11.2-12.1c7.36 0 11.2 5.38 11.2 12.1zM2483.34 1540.09c0-8-5.64-13.89-13.44-13.89-7.88 0-14.4 6.2-14.4 15.36 0 9.09 5.56 15.49 14.2 15.49s12.36-4.48 12.36-4.48l-1.6-2.37s-3.72 3.84-10.44 3.84c-6.72 0-10.68-4.67-11-11.71h24.12s.2-1.28.2-2.24zm-3.4-.64h-20.8c.2-4.16 3.2-10.37 10.56-10.37s10.24 6.53 10.24 10.37zM2502.54 1556.09l-.32-2.88s-1.28.83-3.2.83c-3.97 0-4.36-3.9-4.36-7.17v-17.02h7.56v-3h-7.5v-9.48h-3.38v9.47h-4.48v3h4.48v15.05c0 4.8.06 6.98 1.08 8.96 1.1 1.98 2.76 3.2 5.64 3.2 1.92 0 3.39-.32 4.48-.96zM2360.94 1628.73l2.24-1.28c-3.2-4.8-7.68-16-7.68-27.2s4.48-22.4 7.68-27.2l-2.24-1.28c-5.12 7.68-8.96 17.28-8.96 28.48s3.84 20.8 8.96 28.48zM2410.67 1598.4c0-14.09-10.37-22.8-22.4-22.8-11.97 0-22.4 8.71-22.4 22.8 0 14.07 10.43 22.78 22.4 22.78 12.03 0 22.4-8.7 22.4-22.79zm-3.59-.07c0 12.29-8.7 19.58-18.81 19.58-9.99 0-18.76-7.3-18.76-19.58 0-12.42 8.7-19.65 18.76-19.65 10.1 0 18.81 7.3 18.81 19.65zM2443.62 1608.89c0-6.72-5.37-9.66-6.4-10.24-1.02-.58-5.95-2.62-9.08-3.97-3.14-1.34-6.6-3.33-6.6-8.32 0-5 4.1-7.68 9.22-7.68 5.12 0 7.68 2.69 9.34 4.8l2.44-2.11c-.39-.64-4.1-5.76-11.52-5.76-7.43 0-13 4.48-13 10.88s4.68 9.28 6.4 10.24a82.3 82.3 0 007.24 3.2c2.56 1.02 8.44 3.2 8.44 8.96 0 5.76-4.6 9.28-10.3 9.28-5.7 0-9.54-3.9-11.14-6.85l-2.68 1.92c.96 1.8 4.92 7.94 13.5 7.94s14.14-5.57 14.14-12.3zM2476.2 1579.39v-3.14h-29.7v3.14h13.13v41.02h3.45v-41.02h13.12zM2489.64 1600.25c0-11.2-3.84-20.8-8.96-28.48l-2.24 1.28c3.2 4.8 7.68 16 7.68 27.2s-4.48 22.4-7.68 27.2l2.24 1.28c5.12-7.68 8.96-17.28 8.96-28.48z" fill-rule="nonzero"/></g></g><g><path d="M846.1 644.1c-11.6 6.7-11.12 17.83 1.05 24.86L1097 813.22c12.16 7.02 31.45 7.3 43.04.6l167.97-96.98c11.59-6.69 11.12-17.83-1.05-24.85" fill="none" stroke="#000" stroke-width="10"/><path d="M835.63 595.5c.12 4.56 3.28 4.63 9.45 8.19l249.86 144.26c12.16 7.02 31.45 7.3 43.04.6l167.97-96.98c5.72-3.3 8.5-7.68 8.4-12.12v48.74c0 4.36-2.79 8.63-8.4 11.87l-167.97 96.99c-11.59 6.69-30.88 6.41-43.04-.61L845.08 652.18c-6.17-3.56-9.33-8.17-9.45-12.73V595.5z" fill="#89c2d4"/><path d="M1055.04 467.3c-12.17-7.02-31.45-7.29-43.04-.6l-167.98 96.98c-11.58 6.7-11.11 17.83 1.05 24.86l249.86 144.25c12.17 7.03 31.46 7.3 43.05.61l167.97-96.98c11.59-6.7 11.12-17.83-1.05-24.85L1055.04 467.3z" fill="#fff" stroke="#000" stroke-width="10"/><path d="M1285.77 679.75c3.85-2.23 6.98-.42 6.98 4.03s-3.13 9.87-6.98 12.1c-3.85 2.22-6.98.41-6.98-4.04s3.13-9.87 6.98-12.1zM1263.2 692.78c3.85-2.22 6.98-.42 6.98 4.03s-3.13 9.87-6.98 12.1c-3.85 2.22-6.98.41-6.98-4.04s3.13-9.87 6.98-12.09z" fill="#fff"/><path d="M1242.25 712.94l-91.37 52.75" fill="none" stroke="#fff" stroke-width="10"/><g><path d="M1062.32 964.78l-13.4-56.26 26.8-15.48-13.4 71.74z"/><path d="M1062.32 932.78v-104" fill="none" stroke="#000" stroke-width="10"/></g><g><path d="M1127.54 328.68l-4.48-44.16h-4.04l-15.23 37.7-15.17-37.7h-3.96l-4.48 44.16h3.45l3.65-38.4 16.38 39.17h.32l16.32-39.1 3.78 38.33h3.46zM1161.13 312.36c0-8-5.63-13.88-13.43-13.88-7.88 0-14.4 6.2-14.4 15.36 0 9.08 5.56 15.48 14.2 15.48s12.35-4.48 12.35-4.48l-1.6-2.36s-3.7 3.84-10.43 3.84c-6.72 0-10.68-4.68-11-11.72h24.12s.2-1.28.2-2.24zm-3.39-.64h-20.8c.2-4.16 3.2-10.36 10.56-10.36s10.24 6.52 10.24 10.36zM1180.33 328.36l-.32-2.88s-1.28.84-3.2.84c-3.96 0-4.35-3.9-4.35-7.17v-17.03h7.55v-3h-7.48v-9.48h-3.4v9.48h-4.48v3h4.48v15.04c0 4.8.07 6.98 1.1 8.96 1.08 1.99 2.74 3.2 5.62 3.2 1.92 0 3.4-.32 4.48-.96zM1206.57 328.68v-17.6c0-7.87-3.58-12.6-11.84-12.6-4.48 0-8 1.72-9.92 3l1.28 2.44c.64-.52 4.16-2.56 8.77-2.56 4.67 0 8.32 2.68 8.32 8.12v1.6l-8.13.32c-8 .32-11.84 3.84-11.84 8.96 0 5.12 4.16 8.96 9.92 8.96s8.96-3.52 10.05-4.8v4.16h3.4zm-3.39-15.04V321c-1.4 2.24-4.6 5.44-9.4 5.44-4.8 0-7.24-2.88-7.24-6.08s1.99-5.88 8.2-6.2l8.44-.52zM1213.3 313.84c0 8.76 5.75 15.48 14.71 15.48 4.48 0 8.52-1.92 11.01-6.14v5.5h3.4v-44.16h-3.4v20.04c-2.88-4.36-6.85-6.08-11.13-6.08-8.84 0-14.6 6.52-14.6 15.36zm3.51 0c0-6.92 4.04-12.48 11.2-12.48 7.24 0 11.2 5.56 11.2 12.48 0 6.84-3.96 12.48-11.2 12.48-7.16 0-11.2-5.64-11.2-12.48zM1272.81 328.68v-17.6c0-7.87-3.58-12.6-11.84-12.6-4.48 0-8 1.72-9.92 3l1.28 2.44c.64-.52 4.16-2.56 8.77-2.56 4.67 0 8.32 2.68 8.32 8.12v1.6l-8.13.32c-8 .32-11.84 3.84-11.84 8.96 0 5.12 4.16 8.96 9.92 8.96s8.96-3.52 10.05-4.8v4.16h3.4zm-3.39-15.04V321c-1.4 2.24-4.6 5.44-9.4 5.44-4.8 0-7.24-2.88-7.24-6.08s1.98-5.88 8.2-6.2l8.44-.52zM1293.93 328.36l-.32-2.88s-1.28.84-3.2.84c-3.97 0-4.35-3.9-4.35-7.17v-17.03h7.55v-3h-7.49v-9.48h-3.39v9.48h-4.48v3h4.48v15.04c0 4.8.07 6.98 1.09 8.96 1.09 1.99 2.75 3.2 5.63 3.2 1.92 0 3.4-.32 4.48-.96zM1320.17 328.68v-17.6c0-7.87-3.58-12.6-11.84-12.6-4.48 0-8 1.72-9.92 3l1.28 2.44c.64-.52 4.16-2.56 8.77-2.56 4.67 0 8.32 2.68 8.32 8.12v1.6l-8.13.32c-8 .32-11.84 3.84-11.84 8.96 0 5.12 4.16 8.96 9.92 8.96s8.96-3.52 10.05-4.8v4.16h3.4zm-3.4-15.04V321c-1.4 2.24-4.6 5.44-9.4 5.44-4.8 0-7.23-2.88-7.23-6.08s1.98-5.88 8.2-6.2l8.44-.52zM1148.65 381.16c0-6.72-5.37-9.66-6.4-10.24-1.02-.57-5.95-2.62-9.08-3.96-3.14-1.35-6.6-3.33-6.6-8.32 0-5 4.1-7.68 9.22-7.68 5.12 0 7.68 2.68 9.34 4.8l2.44-2.12c-.39-.64-4.1-5.76-11.52-5.76-7.43 0-13 4.48-13 10.88s4.68 9.28 6.4 10.24a82.3 82.3 0 007.24 3.2c2.56 1.03 8.44 3.2 8.44 8.96 0 5.76-4.6 9.28-10.3 9.28-5.7 0-9.54-3.9-11.14-6.84l-2.68 1.92c.96 1.79 4.92 7.93 13.5 7.93s14.14-5.57 14.14-12.29zM1181.93 376.36c0-8-5.63-13.88-13.44-13.88-7.87 0-14.4 6.2-14.4 15.36 0 9.08 5.57 15.48 14.21 15.48s12.35-4.48 12.35-4.48l-1.6-2.36s-3.7 3.84-10.43 3.84c-6.72 0-10.69-4.68-11-11.72h24.12s.2-1.28.2-2.24zm-3.39-.64h-20.8c.2-4.16 3.2-10.36 10.56-10.36s10.24 6.52 10.24 10.36zM1202.73 366.19l.32-3.27s-1.28-.44-3.2-.44c-3.2 0-6.46 2.04-7.55 6.08v-5.57h-3.33v29.7h3.33v-16c0-4.55 1.54-11.01 7.23-11.01 1.6 0 2.5.25 3.2.5zM1231.21 362.99h-3.52l-10.24 24.9-10.24-24.9h-3.52l12.48 29.7h2.56l12.48-29.7zM1261.74 376.36c0-8-5.63-13.88-13.44-13.88-7.87 0-14.4 6.2-14.4 15.36 0 9.08 5.57 15.48 14.21 15.48s12.35-4.48 12.35-4.48l-1.6-2.36s-3.7 3.84-10.43 3.84c-6.72 0-10.69-4.68-11-11.72h24.12s.2-1.28.2-2.24zm-3.39-.64h-20.8c.2-4.16 3.2-10.36 10.56-10.36s10.24 6.52 10.24 10.36zM1282.54 366.19l.32-3.27s-1.28-.44-3.2-.44c-3.2 0-6.46 2.04-7.55 6.08v-5.57h-3.33v29.7h3.33v-16c0-4.55 1.54-11.01 7.23-11.01 1.6 0 2.5.25 3.2.5zM1131.96 465l2.24-1.28c-3.2-4.8-7.68-16-7.68-27.2s4.48-22.4 7.68-27.2l-2.24-1.28c-5.12 7.68-8.96 17.28-8.96 28.48s3.84 20.8 8.96 28.48zM1186.35 456.68l-4.48-44.16h-4.03l-15.23 37.7-15.17-37.7h-3.96l-4.48 44.16h3.45l3.65-38.4 16.38 39.17h.32l16.32-39.1 3.78 38.33h3.45zM1230 434.6c0-12.99-10.11-22.08-22.85-22.08H1195v44.16h12.16c12.74 0 22.85-9.08 22.85-22.08zm-3.58 0c0 11.46-8.45 18.95-19.59 18.95h-8.38v-37.89h8.38c11.08 0 19.59 7.55 19.59 18.94zM1262.64 445.16c0-6.72-5.38-9.66-6.4-10.24-1.02-.57-5.95-2.62-9.09-3.96-3.13-1.35-6.59-3.33-6.59-8.32 0-5 4.1-7.68 9.22-7.68 5.12 0 7.68 2.68 9.34 4.8l2.43-2.12c-.38-.64-4.1-5.76-11.52-5.76s-12.99 4.48-12.99 10.88 4.67 9.28 6.4 10.24a82.3 82.3 0 007.23 3.2c2.56 1.03 8.45 3.2 8.45 8.96 0 5.76-4.6 9.28-10.3 9.28-5.7 0-9.54-3.9-11.14-6.84l-2.69 1.92c.96 1.79 4.93 7.93 13.5 7.93 8.58 0 14.15-5.57 14.15-12.29zM1278.32 436.52c0-11.2-3.84-20.8-8.96-28.48l-2.24 1.28c3.2 4.8 7.68 16 7.68 27.2s-4.48 22.4-7.68 27.2l2.24 1.28c5.12-7.68 8.96-17.28 8.96-28.48z" fill-rule="nonzero"/></g><g><path d="M916.87 1243.24c.07 2.79 2 2.83 5.78 5l152.84 88.25c7.44 4.3 19.24 4.47 26.33.37l102.75-59.32c3.5-2.02 5.2-4.7 5.14-7.42v29.82c0 2.66-1.7 5.28-5.14 7.26l-102.75 59.33c-7.09 4.09-18.89 3.92-26.33-.37l-152.84-88.25c-3.77-2.18-5.7-5-5.78-7.79v-26.88z" fill="#89c2d4"/><path d="M1051.09 1164.82c-7.44-4.3-19.24-4.46-26.33-.37l-102.75 59.32c-7.1 4.1-6.8 10.91.64 15.2l152.84 88.25c7.45 4.3 19.24 4.47 26.33.37l102.76-59.32c7.09-4.1 6.8-10.9-.65-15.2l-152.84-88.25z" fill="#fff" stroke="#000" stroke-width="10"/><path d="M934 1229.17a8.88 8.88 0 018.03 0c2.22 1.28 2.22 3.36 0 4.63a8.88 8.88 0 01-8.02 0c-2.22-1.27-2.22-3.35 0-4.63zM1036 1170.29a8.88 8.88 0 018.03 0c2.21 1.28 2.21 3.36 0 4.63a8.88 8.88 0 01-8.03 0c-2.21-1.27-2.21-3.35 0-4.63zM1087.43 1318.84a8.88 8.88 0 018.03 0c2.21 1.28 2.21 3.36 0 4.63a8.88 8.88 0 01-8.03 0c-2.22-1.27-2.22-3.35 0-4.63zM1189.42 1259.96a8.88 8.88 0 018.03 0c2.21 1.28 2.21 3.36 0 4.63a8.88 8.88 0 01-8.03 0c-2.22-1.27-2.22-3.35 0-4.63zM1008.28 1273.14a8.88 8.88 0 018.03 0c2.21 1.28 2.21 3.36 0 4.63a8.88 8.88 0 01-8.03 0c-2.21-1.27-2.21-3.35 0-4.63zM1110.27 1214.26a8.88 8.88 0 018.03 0c2.21 1.28 2.21 3.35 0 4.63a8.88 8.88 0 01-8.03 0c-2.22-1.28-2.22-3.35 0-4.63z"/><g><path d="M916.87 1183.91c.07 2.79 2 2.83 5.78 5l152.84 88.25c7.44 4.3 19.24 4.47 26.33.37l102.75-59.32c3.5-2.02 5.2-4.7 5.14-7.42v29.82c0 2.66-1.7 5.28-5.14 7.26l-102.75 59.33c-7.09 4.09-18.89 3.92-26.33-.37l-152.84-88.25c-3.77-2.18-5.7-5-5.78-7.79v-26.88z" fill="#89c2d4"/><path d="M1051.09 1105.49c-7.44-4.3-19.24-4.46-26.33-.37l-102.75 59.33c-7.1 4.09-6.8 10.9.64 15.2l152.84 88.24c7.45 4.3 19.24 4.47 26.33.38l102.76-59.33c7.09-4.1 6.8-10.9-.65-15.2l-152.84-88.25z" fill="#fff" stroke="#000" stroke-width="10"/><path d="M934 1169.85a8.88 8.88 0 018.03 0c2.22 1.28 2.22 3.36 0 4.63a8.88 8.88 0 01-8.02 0c-2.22-1.27-2.22-3.35 0-4.63zM1036 1110.96a8.88 8.88 0 018.03 0c2.21 1.28 2.21 3.36 0 4.63a8.88 8.88 0 01-8.03 0c-2.21-1.27-2.21-3.35 0-4.63zM1087.43 1259.52a8.88 8.88 0 018.03 0c2.21 1.28 2.21 3.36 0 4.63a8.88 8.88 0 01-8.03 0c-2.22-1.27-2.22-3.35 0-4.63zM1189.42 1200.63a8.88 8.88 0 018.03 0c2.21 1.28 2.21 3.36 0 4.63a8.88 8.88 0 01-8.03 0c-2.22-1.27-2.22-3.35 0-4.63zM1008.28 1213.82a8.88 8.88 0 018.03 0c2.21 1.28 2.21 3.36 0 4.63a8.88 8.88 0 01-8.03 0c-2.21-1.27-2.21-3.35 0-4.63zM1110.27 1154.93a8.88 8.88 0 018.03 0c2.21 1.28 2.21 3.36 0 4.63a8.88 8.88 0 01-8.03 0c-2.22-1.27-2.22-3.35 0-4.63z"/></g><g><path d="M916.87 1124.59c.07 2.79 2 2.83 5.78 5l152.84 88.25c7.44 4.3 19.24 4.47 26.33.37l102.75-59.32c3.5-2.02 5.2-4.7 5.14-7.42v29.82c0 2.66-1.7 5.28-5.14 7.26l-102.75 59.33c-7.09 4.09-18.89 3.92-26.33-.37l-152.84-88.25c-3.77-2.18-5.7-5-5.78-7.79v-26.88z" fill="#89c2d4"/><path d="M1051.09 1046.17c-7.44-4.3-19.24-4.46-26.33-.37l-102.75 59.33c-7.1 4.09-6.8 10.9.64 15.2l152.84 88.24c7.45 4.3 19.24 4.47 26.33.37l102.76-59.32c7.09-4.1 6.8-10.9-.65-15.2l-152.84-88.25z" fill="#fff" stroke="#000" stroke-width="10"/><path d="M934 1110.52a8.88 8.88 0 018.03 0c2.22 1.28 2.22 3.35 0 4.63a8.88 8.88 0 01-8.02 0c-2.22-1.28-2.22-3.35 0-4.63zM1036 1051.64a8.88 8.88 0 018.03 0c2.21 1.28 2.21 3.36 0 4.63a8.88 8.88 0 01-8.03 0c-2.21-1.27-2.21-3.35 0-4.63zM1087.43 1200.19a8.88 8.88 0 018.03 0c2.21 1.28 2.21 3.36 0 4.63a8.88 8.88 0 01-8.03 0c-2.22-1.27-2.22-3.35 0-4.63zM1189.42 1141.3a8.88 8.88 0 018.03 0c2.21 1.28 2.21 3.36 0 4.63a8.88 8.88 0 01-8.03 0c-2.22-1.27-2.22-3.35 0-4.63zM1008.28 1154.49a8.88 8.88 0 018.03 0c2.21 1.28 2.21 3.36 0 4.63a8.88 8.88 0 01-8.03 0c-2.21-1.27-2.21-3.35 0-4.63zM1110.27 1095.61a8.88 8.88 0 018.03 0c2.21 1.28 2.21 3.36 0 4.63a8.88 8.88 0 01-8.03 0c-2.22-1.27-2.22-3.35 0-4.63z"/></g><g><path d="M916.87 1065.26c.07 2.79 2 2.83 5.78 5l152.84 88.25c7.44 4.3 19.24 4.47 26.33.37l102.75-59.32c3.5-2.02 5.2-4.7 5.14-7.42v29.82c0 2.66-1.7 5.28-5.14 7.26l-102.75 59.33c-7.09 4.09-18.89 3.92-26.33-.37l-152.84-88.25c-3.77-2.18-5.7-5-5.78-7.79v-26.88z" fill="#89c2d4"/><path d="M1051.09 986.84c-7.44-4.3-19.24-4.46-26.33-.37l-102.75 59.33c-7.1 4.09-6.8 10.9.64 15.2l152.84 88.24c7.45 4.3 19.24 4.47 26.33.38l102.76-59.33c7.09-4.1 6.8-10.9-.65-15.2l-152.84-88.25z" fill="#fff" stroke="#000" stroke-width="10"/><path d="M934 1051.2a8.88 8.88 0 018.03 0c2.22 1.28 2.22 3.36 0 4.63a8.88 8.88 0 01-8.02 0c-2.22-1.27-2.22-3.35 0-4.63zM1036 992.31a8.88 8.88 0 018.03 0c2.21 1.28 2.21 3.36 0 4.64a8.88 8.88 0 01-8.03 0c-2.21-1.28-2.21-3.36 0-4.64zM1087.43 1140.86a8.88 8.88 0 018.03 0c2.21 1.28 2.21 3.36 0 4.63a8.88 8.88 0 01-8.03 0c-2.22-1.27-2.22-3.35 0-4.63zM1189.42 1081.98a8.88 8.88 0 018.03 0c2.21 1.28 2.21 3.36 0 4.63a8.88 8.88 0 01-8.03 0c-2.22-1.27-2.22-3.35 0-4.63zM1008.28 1095.17a8.88 8.88 0 018.03 0c2.21 1.28 2.21 3.36 0 4.63a8.88 8.88 0 01-8.03 0c-2.21-1.27-2.21-3.35 0-4.63zM1110.27 1036.28a8.88 8.88 0 018.03 0c2.21 1.28 2.21 3.35 0 4.63a8.87 8.87 0 01-8.03 0c-2.22-1.28-2.22-3.35 0-4.63z"/><g stroke="#000" stroke-width="10"><path d="M986.75 1020.79c24.66-14.24 64.7-14.24 89.35 0 24.66 14.23 24.66 37.35 0 51.59-24.66 14.23-64.7 14.23-89.35 0-24.66-14.24-24.66-37.35 0-51.59z" fill="none"/><path d="M1020.74 1037.92c7.09-4.1 18.6-4.1 25.69 0s7.09 10.74 0 14.83c-7.1 4.1-18.6 4.1-25.69 0s-7.09-10.74 0-14.83zM1136.23 1058.44c-2.46-1.42-6.18-1.57-8.31-.34l-76.55 44.2c-2.13 1.22-1.86 3.37.6 4.79l35.63 20.57c2.45 1.42 6.18 1.57 8.3.34l76.55-44.2c2.13-1.22 1.87-3.37-.6-4.79l-35.62-20.57z" fill="none"/><path d="M1122.59 1085.81l-77.34-18.91 88.27 3.05c1.76.08 3.5.31 5.14.72 7.82 1.9 10.56 6.85 6.13 11.03-4.44 4.18-14.38 6.02-22.2 4.11z" fill="#fff"/></g></g></g><g><path d="M1003.08 1450.06l-4.48-44.16h-4.03l-15.23 37.7-15.17-37.7h-3.97l-4.48 44.16h3.46l3.65-38.4 16.38 39.17h.32l16.32-39.1 3.78 38.33h3.45zM1036.68 1433.74c0-8-5.63-13.89-13.44-13.89-7.87 0-14.4 6.2-14.4 15.36 0 9.09 5.57 15.49 14.21 15.49s12.35-4.48 12.35-4.48l-1.6-2.37s-3.71 3.84-10.43 3.84-10.69-4.67-11-11.71h24.12s.2-1.28.2-2.24zm-3.39-.64h-20.8c.2-4.16 3.2-10.37 10.56-10.37s10.24 6.53 10.24 10.37zM1055.88 1449.74l-.32-2.88s-1.28.83-3.2.83c-3.97 0-4.35-3.9-4.35-7.17v-17.02h7.55v-3h-7.49v-9.48h-3.39v9.47h-4.48v3h4.48v15.05c0 4.8.07 6.98 1.09 8.96 1.09 1.98 2.75 3.2 5.63 3.2 1.92 0 3.4-.32 4.48-.96zM1082.12 1450.06v-17.6c0-7.87-3.58-12.6-11.84-12.6-4.48 0-8 1.72-9.92 3l1.28 2.43c.64-.51 4.16-2.56 8.77-2.56 4.67 0 8.32 2.69 8.32 8.13v1.6l-8.13.32c-8 .32-11.84 3.84-11.84 8.96 0 5.12 4.16 8.96 9.92 8.96s8.96-3.52 10.05-4.8v4.16h3.4zm-3.4-15.04v7.36c-1.4 2.24-4.6 5.44-9.4 5.44-4.8 0-7.23-2.88-7.23-6.08s1.98-5.89 8.2-6.2l8.44-.52zM1088.84 1435.21c0 8.77 5.76 15.49 14.72 15.49 4.48 0 8.51-1.92 11-6.14v5.5h3.4v-44.16h-3.4v20.03c-2.87-4.35-6.84-6.08-11.13-6.08-8.83 0-14.59 6.53-14.59 15.36zm3.52 0c0-6.91 4.03-12.48 11.2-12.48 7.23 0 11.2 5.57 11.2 12.48 0 6.85-3.97 12.48-11.2 12.48-7.17 0-11.2-5.63-11.2-12.48zM1148.36 1450.06v-17.6c0-7.87-3.58-12.6-11.84-12.6-4.48 0-8 1.72-9.92 3l1.28 2.43c.64-.51 4.16-2.56 8.77-2.56 4.67 0 8.32 2.69 8.32 8.13v1.6l-8.13.32c-8 .32-11.84 3.84-11.84 8.96 0 5.12 4.16 8.96 9.92 8.96s8.96-3.52 10.05-4.8v4.16h3.39zm-3.4-15.04v7.36c-1.4 2.24-4.6 5.44-9.4 5.44-4.8 0-7.23-2.88-7.23-6.08s1.98-5.89 8.19-6.2l8.45-.52zM1169.48 1449.74l-.32-2.88s-1.28.83-3.2.83c-3.97 0-4.35-3.9-4.35-7.17v-17.02h7.55v-3h-7.49v-9.48h-3.4v9.47h-4.47v3h4.48v15.05c0 4.8.06 6.98 1.09 8.96 1.08 1.98 2.75 3.2 5.63 3.2 1.92 0 3.4-.32 4.48-.96zM1195.72 1450.06v-17.6c0-7.87-3.59-12.6-11.84-12.6-4.48 0-8 1.72-9.92 3l1.28 2.43c.64-.51 4.16-2.56 8.77-2.56 4.67 0 8.32 2.69 8.32 8.13v1.6l-8.13.32c-8 .32-11.84 3.84-11.84 8.96 0 5.12 4.16 8.96 9.92 8.96s8.96-3.52 10.05-4.8v4.16h3.39zm-3.4-15.04v7.36c-1.4 2.24-4.6 5.44-9.4 5.44-4.8 0-7.23-2.88-7.23-6.08s1.98-5.89 8.19-6.2l8.45-.52zM1023.85 1473.04v-3.14h-29.7v3.14h13.12v41.02h3.46v-41.02h13.12zM1048.81 1514.06v-17.6c0-7.87-3.58-12.6-11.84-12.6-4.48 0-8 1.72-9.92 3l1.28 2.43c.64-.51 4.16-2.56 8.77-2.56 4.67 0 8.32 2.69 8.32 8.13v1.6l-8.13.32c-8 .32-11.84 3.84-11.84 8.96 0 5.12 4.16 8.96 9.92 8.96s8.96-3.52 10.05-4.8v4.16h3.4zm-3.39-15.04v7.36c-1.4 2.24-4.6 5.44-9.4 5.44-4.8 0-7.24-2.88-7.24-6.08s1.98-5.89 8.2-6.2l8.44-.52zM1071.53 1487.56l.32-3.26s-1.28-.45-3.2-.45c-3.2 0-6.46 2.05-7.55 6.08v-5.57h-3.33v29.7h3.33v-16c0-4.54 1.54-11 7.23-11 1.6 0 2.5.25 3.2.5zM1103.53 1507.66v-23.3h-3.4v5.64c-1.98-3.52-5.88-6.15-11.2-6.15-7.8 0-14.52 5.83-14.52 15.1 0 9.29 6.72 15.1 14.53 15.1 5.31 0 9.02-2.49 11.2-6.33v2.18c0 7.8-2.75 13.95-11.52 13.95-4.8 0-9.28-2.43-10.88-4.03l-1.92 2.56s4.8 4.48 12.48 4.48c7.68 0 11.2-3.84 12.8-6.4 1.6-2.56 2.43-6.08 2.43-12.8zm-3.2-8.77c0 6.72-3.84 12.16-11.2 12.16-7.36 0-11.2-5.44-11.2-12.16s3.84-12.1 11.2-12.1c7.36 0 11.2 5.38 11.2 12.1zM1138.73 1497.74c0-8-5.63-13.89-13.44-13.89-7.87 0-14.4 6.2-14.4 15.36 0 9.09 5.57 15.49 14.2 15.49 8.65 0 12.36-4.48 12.36-4.48l-1.6-2.37s-3.71 3.84-10.43 3.84-10.69-4.67-11.01-11.71h24.13s.19-1.28.19-2.24zm-3.4-.64h-20.8c.2-4.16 3.2-10.37 10.57-10.37 7.36 0 10.24 6.53 10.24 10.37zM1157.93 1513.74l-.32-2.88s-1.28.83-3.2.83c-3.97 0-4.35-3.9-4.35-7.17v-17.02h7.55v-3h-7.49v-9.48h-3.4v9.47h-4.47v3h4.48v15.05c0 4.8.06 6.98 1.09 8.96 1.09 1.98 2.75 3.2 5.63 3.2 1.92 0 3.4-.32 4.48-.96zM1009.67 1586.38l2.24-1.28c-3.2-4.8-7.68-16-7.68-27.2s4.48-22.4 7.68-27.2l-2.24-1.28c-5.12 7.68-8.96 17.28-8.96 28.48s3.84 20.8 8.96 28.48zM1064.07 1578.06l-4.48-44.16h-4.03l-15.23 37.7-15.17-37.7h-3.97l-4.48 44.16h3.46l3.65-38.4 16.38 39.17h.32l16.32-39.1 3.78 38.33h3.45zM1107.72 1555.98c0-13-10.11-22.08-22.85-22.08h-12.16v44.16h12.16c12.74 0 22.85-9.09 22.85-22.08zm-3.59 0c0 11.46-8.44 18.94-19.58 18.94h-8.38v-37.88h8.38c11.07 0 19.58 7.55 19.58 18.94zM1138.25 1537.04v-3.14h-29.7v3.14h13.12v41.02h3.46v-41.02h13.12zM1151.69 1557.9c0-11.2-3.84-20.8-8.96-28.48l-2.24 1.28c3.2 4.8 7.68 16 7.68 27.2s-4.48 22.4-7.68 27.2l2.24 1.28c5.12-7.68 8.96-17.28 8.96-28.48z" fill-rule="nonzero"/></g></g><g><path d="M89.57 1416.31l-29.1 16.81c-11.6 6.69-11.13 17.83 1.04 24.85l249.86 144.26c12.17 7.03 31.46 7.3 43.05.6l167.97-96.97c11.59-6.7 11.12-17.83-1.05-24.86l-25.77-17.93M471.92 1452.47l-200.44-115.73c-12.17-7.02-31.46-7.3-43.05-.6l-119.86 69.2" fill="#fff" stroke="#000" stroke-width="10"/><path d="M50 1384.52c.11 4.55 3.28 4.62 9.44 8.18l249.86 144.26c12.17 7.03 31.46 7.3 43.05.6l167.97-96.97c5.72-3.3 8.5-7.69 8.39-12.12v48.74c0 4.35-2.78 8.63-8.4 11.87l-167.96 96.98c-11.6 6.69-30.88 6.42-43.05-.6L59.44 1441.18c-6.16-3.56-9.33-8.17-9.44-12.73v-43.94z" fill="#89c2d4"/><path d="M269.4 1256.32c-12.16-7.03-31.45-7.3-43.03-.6L58.39 1352.7c-11.59 6.69-11.12 17.82 1.05 24.85L309.3 1521.8c12.17 7.02 31.46 7.3 43.05.6l167.97-96.98c11.59-6.69 11.12-17.83-1.05-24.85L269.4 1256.32z" fill="#fff" stroke="#000" stroke-width="10"/><path d="M500.14 1468.76c3.85-2.23 6.98-.42 6.98 4.03s-3.13 9.87-6.98 12.1c-3.85 2.22-6.98.41-6.98-4.04s3.13-9.87 6.98-12.09zM477.57 1481.8c3.85-2.23 6.98-.42 6.98 4.03s-3.13 9.87-6.98 12.1c-3.86 2.22-6.98.41-6.98-4.04s3.12-9.87 6.98-12.09z" fill="#fff"/><path d="M456.61 1501.96l-91.36 52.75" fill="none" stroke="#fff" stroke-width="10"/><g><path d="M89.57 1308.03l-29.1 16.81c-11.6 6.69-11.13 17.83 1.04 24.85l249.86 144.26c12.17 7.03 31.46 7.3 43.05.6l167.97-96.97c11.59-6.7 11.12-17.83-1.05-24.86l-25.77-17.93M471.92 1344.19l-200.44-115.73c-12.17-7.02-31.46-7.3-43.05-.6l-119.86 69.2" fill="#fff" stroke="#000" stroke-width="10"/><path d="M50 1276.24c.11 4.55 3.28 4.62 9.44 8.18l249.86 144.26c12.17 7.03 31.46 7.3 43.05.6l167.97-96.97c5.72-3.3 8.5-7.69 8.39-12.12v48.74c0 4.35-2.78 8.63-8.4 11.87l-167.96 96.98c-11.6 6.69-30.88 6.42-43.05-.6L59.44 1332.9c-6.16-3.56-9.33-8.17-9.44-12.73v-43.94z" fill="#89c2d4"/><path d="M269.4 1148.04c-12.16-7.03-31.45-7.3-43.03-.6l-167.98 96.98c-11.59 6.69-11.12 17.82 1.05 24.85l249.86 144.26c12.17 7.02 31.46 7.3 43.05.6l167.97-96.98c11.59-6.69 11.12-17.83-1.05-24.85L269.4 1148.04z" fill="#fff" stroke="#000" stroke-width="10"/><path d="M500.14 1360.48c3.85-2.23 6.98-.42 6.98 4.03s-3.13 9.87-6.98 12.1c-3.85 2.22-6.98.41-6.98-4.04s3.13-9.87 6.98-12.09zM477.57 1373.52c3.85-2.23 6.98-.42 6.98 4.03s-3.13 9.87-6.98 12.1c-3.86 2.22-6.98.41-6.98-4.04s3.12-9.87 6.98-12.09z" fill="#fff"/><path d="M456.61 1393.68l-91.36 52.75" fill="none" stroke="#fff" stroke-width="10"/></g><g><path d="M89.57 1204.59l-29.1 16.81c-11.6 6.69-11.13 17.83 1.04 24.85l249.86 144.26c12.17 7.03 31.46 7.3 43.05.6l167.97-96.97c11.59-6.7 11.12-17.83-1.05-24.86l-25.77-17.93M471.92 1240.75l-200.44-115.73c-12.17-7.02-31.46-7.3-43.05-.6l-119.86 69.2" fill="#fff" stroke="#000" stroke-width="10"/><path d="M50 1172.8c.11 4.55 3.28 4.62 9.44 8.18l249.86 144.26c12.17 7.03 31.46 7.3 43.05.6l167.97-96.97c5.72-3.3 8.5-7.69 8.39-12.12v48.74c0 4.35-2.78 8.63-8.4 11.87l-167.96 96.98c-11.6 6.69-30.88 6.42-43.05-.6L59.44 1229.46c-6.16-3.56-9.33-8.17-9.44-12.73v-43.94z" fill="#89c2d4"/><path d="M269.4 1044.6c-12.16-7.03-31.45-7.3-43.03-.6l-167.98 96.98c-11.59 6.69-11.12 17.82 1.05 24.85l249.86 144.26c12.17 7.02 31.46 7.3 43.05.6l167.97-96.98c11.59-6.69 11.12-17.83-1.05-24.85L269.4 1044.6z" fill="#fff" stroke="#000" stroke-width="10"/><path d="M500.14 1257.04c3.85-2.23 6.98-.42 6.98 4.03s-3.13 9.87-6.98 12.1c-3.85 2.22-6.98.41-6.98-4.04s3.13-9.87 6.98-12.09zM477.57 1270.08c3.85-2.23 6.98-.42 6.98 4.03s-3.13 9.87-6.98 12.1c-3.86 2.22-6.98.41-6.98-4.04s3.12-9.87 6.98-12.09z" fill="#fff"/><path d="M456.61 1290.24l-91.36 52.75" fill="none" stroke="#fff" stroke-width="10"/></g><g><path d="M89.57 1098.7l-29.1 16.81c-11.6 6.7-11.13 17.83 1.04 24.85l249.86 144.26c12.17 7.03 31.46 7.3 43.05.6l167.97-96.97c11.59-6.7 11.12-17.83-1.05-24.85l-25.77-17.94M471.92 1134.86l-200.44-115.73c-12.17-7.02-31.46-7.3-43.05-.6l-119.86 69.2" fill="#fff" stroke="#000" stroke-width="10"/><path d="M50 1066.91c.11 4.55 3.28 4.63 9.44 8.18l249.86 144.26c12.17 7.03 31.46 7.3 43.05.6l167.97-96.97c5.72-3.3 8.5-7.69 8.39-12.12v48.74c0 4.35-2.78 8.63-8.4 11.87l-167.96 96.98c-11.6 6.69-30.88 6.42-43.05-.6L59.44 1123.57c-6.16-3.56-9.33-8.17-9.44-12.73v-43.94z" fill="#89c2d4"/><path d="M269.4 938.71c-12.16-7.02-31.45-7.3-43.03-.6l-167.98 96.98c-11.59 6.69-11.12 17.83 1.05 24.85L309.3 1204.2c12.17 7.03 31.46 7.3 43.05.6l167.97-96.97c11.59-6.7 11.12-17.83-1.05-24.86L269.4 938.71z" fill="#fff" stroke="#000" stroke-width="10"/><path d="M500.14 1151.15c3.85-2.23 6.98-.42 6.98 4.03s-3.13 9.87-6.98 12.1c-3.85 2.22-6.98.41-6.98-4.04s3.13-9.86 6.98-12.09zM477.57 1164.19c3.85-2.23 6.98-.42 6.98 4.03s-3.13 9.87-6.98 12.1c-3.86 2.22-6.98.41-6.98-4.04s3.12-9.86 6.98-12.09z" fill="#fff"/><path d="M456.61 1184.35l-91.36 52.75" fill="none" stroke="#fff" stroke-width="10"/></g><g><path d="M89.57 733.31l-29.1 16.81c-11.6 6.7-11.13 17.83 1.04 24.85l249.86 144.26c12.17 7.03 31.46 7.3 43.05.6l167.97-96.97c11.59-6.7 11.12-17.83-1.05-24.85l-25.77-17.94M471.92 769.47L271.48 653.75c-12.17-7.03-31.46-7.3-43.05-.61l-119.86 69.2" fill="#fff" stroke="#000" stroke-width="10"/><path d="M50 701.52c.11 4.56 3.28 4.63 9.44 8.18L309.3 853.96c12.17 7.03 31.46 7.3 43.05.61l167.97-96.98c5.72-3.3 8.5-7.68 8.39-12.12v48.74c0 4.35-2.78 8.63-8.4 11.87l-167.96 96.98c-11.6 6.7-30.88 6.42-43.05-.6L59.44 758.2c-6.16-3.56-9.33-8.18-9.44-12.73v-43.95z" fill="#89c2d4"/><path d="M269.4 573.32c-12.16-7.02-31.45-7.3-43.03-.6L58.39 669.7c-11.59 6.69-11.12 17.83 1.05 24.85L309.3 838.81c12.17 7.03 31.46 7.3 43.05.6l167.97-96.97c11.59-6.7 11.12-17.83-1.05-24.86L269.4 573.32z" fill="#fff" stroke="#000" stroke-width="10"/><path d="M500.14 785.76c3.85-2.22 6.98-.41 6.98 4.04 0 4.44-3.13 9.86-6.98 12.09-3.85 2.22-6.98.42-6.98-4.03s3.13-9.87 6.98-12.1zM477.57 798.8c3.85-2.23 6.98-.42 6.98 4.03s-3.13 9.87-6.98 12.1c-3.86 2.21-6.98.4-6.98-4.04 0-4.45 3.12-9.87 6.98-12.1z" fill="#fff"/><path d="M456.61 818.96l-91.36 52.75" fill="none" stroke="#fff" stroke-width="10"/><g><path d="M89.57 625.03l-29.1 16.81c-11.6 6.7-11.13 17.83 1.04 24.85l249.86 144.26c12.17 7.03 31.46 7.3 43.05.6l167.97-96.97c11.59-6.7 11.12-17.83-1.05-24.85l-25.77-17.94M471.92 661.2L271.48 545.46c-12.17-7.03-31.46-7.3-43.05-.61l-119.86 69.2" fill="#fff" stroke="#000" stroke-width="10"/><path d="M50 593.24c.11 4.56 3.28 4.63 9.44 8.18L309.3 745.68c12.17 7.03 31.46 7.3 43.05.61l167.97-96.98c5.72-3.3 8.5-7.68 8.39-12.12v48.74c0 4.35-2.78 8.63-8.4 11.87l-167.96 96.98c-11.6 6.7-30.88 6.42-43.05-.6L59.44 649.92c-6.16-3.56-9.33-8.18-9.44-12.73v-43.95z" fill="#89c2d4"/><path d="M269.4 465.04c-12.16-7.02-31.45-7.3-43.03-.6L58.39 561.42c-11.59 6.69-11.12 17.83 1.05 24.85L309.3 730.53c12.17 7.03 31.46 7.3 43.05.6l167.97-96.97c11.59-6.7 11.12-17.83-1.05-24.86L269.4 465.04z" fill="#fff" stroke="#000" stroke-width="10"/><path d="M500.14 677.48c3.85-2.22 6.98-.41 6.98 4.04 0 4.44-3.13 9.86-6.98 12.09-3.85 2.22-6.98.42-6.98-4.03s3.13-9.87 6.98-12.1zM477.57 690.52c3.85-2.23 6.98-.42 6.98 4.03s-3.13 9.87-6.98 12.1c-3.86 2.21-6.98.4-6.98-4.04 0-4.45 3.12-9.87 6.98-12.1z" fill="#fff"/><path d="M456.61 710.68l-91.36 52.75" fill="none" stroke="#fff" stroke-width="10"/></g><g><path d="M89.57 521.6l-29.1 16.8c-11.6 6.7-11.13 17.83 1.04 24.85l249.86 144.26c12.17 7.03 31.46 7.3 43.05.6l167.97-96.97c11.59-6.7 11.12-17.83-1.05-24.85l-25.77-17.94M471.92 557.75L271.48 442.03c-12.17-7.03-31.46-7.3-43.05-.61l-119.86 69.2" fill="#fff" stroke="#000" stroke-width="10"/><path d="M50 489.8c.11 4.56 3.28 4.63 9.44 8.19L309.3 642.24c12.17 7.03 31.46 7.3 43.05.61l167.97-96.98c5.72-3.3 8.5-7.68 8.39-12.12v48.74c0 4.35-2.78 8.63-8.4 11.87l-167.96 96.98c-11.6 6.7-30.88 6.42-43.05-.6L59.44 546.48c-6.16-3.56-9.33-8.18-9.44-12.73V489.8z" fill="#89c2d4"/><path d="M269.4 361.6c-12.16-7.02-31.45-7.3-43.03-.6L58.39 457.98c-11.59 6.69-11.12 17.83 1.05 24.85L309.3 627.1c12.17 7.03 31.46 7.3 43.05.6l167.97-96.97c11.59-6.7 11.12-17.83-1.05-24.86L269.4 361.6z" fill="#fff" stroke="#000" stroke-width="10"/><path d="M500.14 574.04c3.85-2.22 6.98-.41 6.98 4.04 0 4.44-3.13 9.86-6.98 12.09-3.85 2.22-6.98.42-6.98-4.03s3.13-9.87 6.98-12.1zM477.57 587.08c3.85-2.23 6.98-.42 6.98 4.03s-3.13 9.87-6.98 12.1c-3.86 2.21-6.98.4-6.98-4.04 0-4.45 3.12-9.87 6.98-12.1z" fill="#fff"/><path d="M456.61 607.24l-91.36 52.75" fill="none" stroke="#fff" stroke-width="10"/></g><g><path d="M89.57 415.7l-29.1 16.81c-11.6 6.7-11.13 17.83 1.04 24.85l249.86 144.26c12.17 7.03 31.46 7.3 43.05.6l167.97-96.97c11.59-6.7 11.12-17.83-1.05-24.85l-25.77-17.94M471.92 451.86L271.48 336.14c-12.17-7.03-31.46-7.3-43.05-.61l-119.86 69.2" fill="#fff" stroke="#000" stroke-width="10"/><path d="M50 383.91c.11 4.56 3.28 4.63 9.44 8.18L309.3 536.35c12.17 7.03 31.46 7.3 43.05.61l167.97-96.98c5.72-3.3 8.5-7.69 8.39-12.12v48.74c0 4.35-2.78 8.63-8.4 11.87l-167.96 96.98c-11.6 6.7-30.88 6.42-43.05-.6L59.44 440.59c-6.16-3.56-9.33-8.18-9.44-12.73V383.9z" fill="#89c2d4"/><path d="M269.4 255.71c-12.16-7.02-31.45-7.3-43.03-.6L58.39 352.09c-11.59 6.69-11.12 17.83 1.05 24.85L309.3 521.2c12.17 7.03 31.46 7.3 43.05.6l167.97-96.97c11.59-6.7 11.12-17.83-1.05-24.86L269.4 255.71z" fill="#fff" stroke="#000" stroke-width="10"/><path d="M500.14 468.15c3.85-2.22 6.98-.41 6.98 4.03 0 4.45-3.13 9.87-6.98 12.1-3.85 2.22-6.98.42-6.98-4.03s3.13-9.87 6.98-12.1zM477.57 481.19c3.85-2.23 6.98-.42 6.98 4.03s-3.13 9.86-6.98 12.09c-3.86 2.23-6.98.42-6.98-4.03s3.12-9.87 6.98-12.1z" fill="#fff"/><path d="M456.61 501.35l-91.36 52.75" fill="none" stroke="#fff" stroke-width="10"/></g></g><g><path d="M238.68 111.96v-3.14h-15.74V67.8h-3.46v44.16h19.2zM266.97 111.96v-29.7h-3.33V98.2c0 5.76-2.56 11.52-9.15 11.52-6.53 0-7.36-4.8-7.36-9.28V82.26h-3.33v17.67c0 7.3 2.05 12.67 10.24 12.67 4.16 0 7.68-1.92 9.6-5.44v4.8h3.33zM294.62 103.83c0-5.63-5.57-7.55-9.28-8.83-3.65-1.28-6.85-2.62-6.85-5.7 0-3.07 2.37-4.73 5.7-4.73 3.32 0 5.37 1.15 7.42 3.39l2.05-2.05c-2.3-2.62-5-4.16-9.35-4.16s-9.02 2.56-9.02 7.94c0 5.37 5.57 7.3 8.13 8.19 2.56.9 7.87 2.24 7.87 6.08s-3.27 5.63-6.98 5.63c-3.7 0-6.65-1.85-8.57-4.67l-2.37 1.92c1.86 3.07 5.31 5.76 10.81 5.76 5.5 0 10.44-3.2 10.44-8.77zM313.69 111.64l-.32-2.88s-1.28.83-3.2.83c-3.97 0-4.35-3.9-4.35-7.17V85.4h7.55v-3h-7.49v-9.48h-3.4v9.47h-4.47v3.01h4.48v15.04c0 4.8.06 6.98 1.09 8.96 1.08 1.98 2.75 3.2 5.63 3.2 1.92 0 3.39-.32 4.48-.96zM333.2 85.46l.33-3.26s-1.28-.45-3.2-.45c-3.2 0-6.47 2.05-7.55 6.08v-5.57h-3.33v29.7h3.33v-16c0-4.54 1.53-11 7.23-11 1.6 0 2.5.25 3.2.5zM363.93 95.64c0-8-5.63-13.89-13.44-13.89-7.87 0-14.4 6.21-14.4 15.36 0 9.09 5.57 15.49 14.2 15.49 8.65 0 12.36-4.48 12.36-4.48l-1.6-2.37s-3.71 3.84-10.43 3.84-10.7-4.67-11.01-11.71h24.13s.19-1.28.19-2.24zm-3.4-.64h-20.8c.2-4.16 3.2-10.37 10.57-10.37 7.36 0 10.24 6.53 10.24 10.37zM242.1 169.88l-2.24-2.24c-3.2 3.52-8 5.82-14.08 5.82-10.88 0-18.56-8.12-18.56-19.64 0-11.52 7.68-19.52 18.56-19.52 6.4 0 11.52 2.94 13.76 5.82l2.24-2.56c-3.2-3.2-8.32-6.4-16-6.4-12.48 0-22.27 9.34-22.27 22.78 0 13.44 9.47 22.79 22.27 22.79 8 0 13.12-3.33 16.32-6.85zM249.14 131.8h3.2v44.16h-3.2zM267.13 135.7a2.73 2.73 0 00-2.76-2.75 2.73 2.73 0 00-2.75 2.75 2.73 2.73 0 002.75 2.76 2.73 2.73 0 002.76-2.76zm-1.1 40.26v-29.7h-3.32v29.7h3.33zM301.56 159.64c0-8-5.63-13.89-13.44-13.89-7.87 0-14.4 6.21-14.4 15.36 0 9.09 5.57 15.49 14.2 15.49 8.65 0 12.36-4.48 12.36-4.48l-1.6-2.37s-3.71 3.84-10.43 3.84-10.7-4.67-11.01-11.71h24.13s.19-1.28.19-2.24zm-3.4-.64h-20.8c.2-4.16 3.2-10.37 10.57-10.37 7.36 0 10.24 6.53 10.24 10.37zM332.02 175.96v-17.73c0-7.04-1.98-12.48-10.5-12.48-4.28 0-8.12 2.5-9.6 6.02v-5.5h-3.32v29.69h3.33v-14.72c0-7.04 3.07-12.6 9.47-12.6s7.23 4.92 7.23 9.72v17.6h3.4zM353.46 175.64l-.32-2.88s-1.28.83-3.2.83c-3.97 0-4.35-3.9-4.35-7.17V149.4h7.55v-3h-7.49v-9.48h-3.4v9.47h-4.47v3.01h4.48v15.04c0 4.8.06 6.98 1.09 8.96 1.08 1.98 2.75 3.2 5.63 3.2 1.92 0 3.39-.32 4.48-.96zM377.26 167.83c0-5.63-5.56-7.55-9.27-8.83-3.65-1.28-6.85-2.62-6.85-5.7 0-3.07 2.37-4.73 5.7-4.73 3.32 0 5.37 1.15 7.42 3.39l2.04-2.05c-2.3-2.62-4.99-4.16-9.34-4.16s-9.02 2.56-9.02 7.94c0 5.37 5.57 7.3 8.13 8.19 2.56.9 7.87 2.24 7.87 6.08s-3.27 5.63-6.98 5.63c-3.71 0-6.65-1.85-8.57-4.67l-2.37 1.92c1.85 3.07 5.3 5.76 10.81 5.76 5.5 0 10.43-3.2 10.43-8.77z" fill-rule="nonzero"/></g></g><g><path d="M1066.12 589.78v-448M733.8 1340.8V141.78M1731.21 589.78V145.65M2396.3 589.78v-447M733.8 141.78h1662.5M567.52 636.88h166.27M567.52 1340.8h166.27" fill="none" stroke="#000" stroke-width="10"/><path d="M1361.41 94.8V50.64h-3.46v18.94h-27.32V50.64h-3.46V94.8h3.46V72.72h27.32V94.8h3.46zM1376.39 54.54a2.73 2.73 0 00-2.75-2.75 2.73 2.73 0 00-2.75 2.75 2.73 2.73 0 002.75 2.76 2.73 2.73 0 002.75-2.76zm-1.09 40.26V65.1h-3.33v29.7h3.33zM1412.1 88.4V65.1h-3.4v5.64c-1.98-3.52-5.88-6.15-11.2-6.15-7.8 0-14.52 5.83-14.52 15.1 0 9.29 6.72 15.11 14.53 15.11 5.31 0 9.02-2.5 11.2-6.34v2.18c0 7.8-2.75 13.95-11.52 13.95-4.8 0-9.28-2.43-10.88-4.03l-1.92 2.56s4.8 4.48 12.48 4.48c7.68 0 11.2-3.84 12.8-6.4 1.6-2.56 2.43-6.08 2.43-12.8zm-3.2-8.77c0 6.72-3.84 12.16-11.2 12.16-7.36 0-11.2-5.44-11.2-12.16s3.84-12.1 11.2-12.1c7.36 0 11.2 5.38 11.2 12.1zM1445.44 94.8V77.07c0-7.04-1.98-12.48-10.5-12.48-4.28 0-8.12 2.5-9.6 6.02V50.64h-3.32V94.8h3.33V80.08c0-7.04 3.07-12.6 9.47-12.6s7.23 4.92 7.23 9.72v17.6h3.39zM1451.59 75.41h14.02v3.2h-14.02zM1496.71 62.42c0-3.84-1.47-6.47-4.03-8.7-2.56-2.25-6.02-3.08-10.18-3.08h-10.1V94.8h3.45V74.2h6.65c4.16 0 7.62-.84 10.18-3.08 2.56-2.24 4.03-4.86 4.03-8.7zm-3.65 0c0 6.27-4.86 8.64-10.43 8.64h-6.78V53.78h6.78c5.57 0 10.43 2.36 10.43 8.64zM1527.75 78.48c0-8-5.63-13.89-13.44-13.89-7.87 0-14.4 6.21-14.4 15.36 0 9.09 5.57 15.49 14.2 15.49 8.65 0 12.36-4.48 12.36-4.48l-1.6-2.37s-3.71 3.84-10.43 3.84-10.69-4.67-11.01-11.71h24.13s.19-1.28.19-2.24zm-3.4-.64h-20.8c.2-4.16 3.2-10.37 10.57-10.37 7.36 0 10.24 6.53 10.24 10.37zM1548.55 68.3l.32-3.26s-1.28-.45-3.2-.45c-3.2 0-6.46 2.05-7.55 6.08V65.1h-3.33v29.7h3.33v-16c0-4.54 1.53-11 7.23-11 1.6 0 2.5.25 3.2.5zM1566.79 53.52l.32-2.88s-.96-.64-4.16-.64a7.51 7.51 0 00-6.27 3.4c-.96 1.4-1.73 3.64-1.73 7.8v4.03h-4.48v3.01h4.48V94.8h3.33V68.24h7.55v-3h-7.55v-4.36c0-4.16.51-8 5.31-8 1.09 0 2.11.2 3.2.64zM1597.38 80.08c0-8.96-6.72-15.49-15.23-15.49-8.45 0-15.17 6.53-15.17 15.49s6.72 15.36 15.17 15.36c8.51 0 15.23-6.4 15.23-15.36zm-3.52-.13c0 6.85-4.48 12.48-11.71 12.48-7.17 0-11.65-5.63-11.65-12.48 0-6.91 4.48-12.48 11.65-12.48 7.23 0 11.71 5.57 11.71 12.48zM1618.5 68.3l.32-3.26s-1.28-.45-3.2-.45c-3.2 0-6.46 2.05-7.55 6.08V65.1h-3.33v29.7h3.33v-16c0-4.54 1.53-11 7.23-11 1.6 0 2.5.25 3.2.5zM1664.38 94.8V76.75c0-5.95-1.73-12.16-9.92-12.16-3.97 0-7.49 2.37-9.4 6.21-1.29-3.84-4.17-6.2-8.84-6.2-3.97 0-7.74 2.74-8.96 6v-5.5h-3.33v29.7h3.33V79.31c0-6.27 3.07-11.84 8.83-11.84 5.12 0 6.4 4.29 6.4 9.28V94.8h3.33V79.31c0-6.27 3.07-11.84 8.83-11.84s6.4 5.57 6.4 9.28V94.8h3.33zM1694.14 94.8V77.2c0-7.87-3.58-12.6-11.84-12.6-4.48 0-8 1.72-9.92 3l1.28 2.43c.64-.51 4.16-2.56 8.77-2.56 4.67 0 8.32 2.69 8.32 8.13v1.6l-8.13.32c-8 .32-11.84 3.84-11.84 8.96 0 5.12 4.16 8.96 9.92 8.96s8.96-3.52 10.05-4.8v4.16h3.39zm-3.4-15.04v7.36c-1.4 2.24-4.6 5.44-9.4 5.44-4.8 0-7.23-2.88-7.23-6.08s1.98-5.89 8.19-6.2l8.45-.52zM1726.53 94.8V77.07c0-7.04-1.98-12.48-10.5-12.48-4.28 0-8.12 2.5-9.6 6.02v-5.5h-3.32V94.8h3.33V80.08c0-7.04 3.07-12.6 9.47-12.6s7.23 4.92 7.23 9.72v17.6h3.39zM1760.25 90.32l-1.92-2.24s-3.2 4.35-9.92 4.35-11.33-5.31-11.33-12.67 5.25-12.16 11.2-12.16c5.9 0 8.45 2.88 9.73 4.35l2.11-2.24c-.64-.83-3.84-5.12-11.7-5.12-7.82 0-14.86 6.21-14.86 15.36 0 9.09 6.53 15.49 14.53 15.49 8 0 11.07-3.84 12.16-5.12zM1791.48 78.48c0-8-5.63-13.89-13.44-13.89-7.87 0-14.4 6.21-14.4 15.36 0 9.09 5.57 15.49 14.2 15.49 8.65 0 12.36-4.48 12.36-4.48l-1.6-2.37s-3.71 3.84-10.43 3.84-10.69-4.67-11.01-11.71h24.13s.19-1.28.19-2.24zm-3.4-.64h-20.8c.2-4.16 3.2-10.37 10.57-10.37 7.36 0 10.24 6.53 10.24 10.37zM1811.96 50.64h3.46V94.8h-3.46zM1849.08 94.8V77.07c0-7.04-1.98-12.48-10.5-12.48-4.28 0-8.12 2.5-9.6 6.02v-5.5h-3.32V94.8h3.32V80.08c0-7.04 3.08-12.6 9.48-12.6s7.23 4.92 7.23 9.72v17.6h3.39zM1870.52 94.48l-.32-2.88s-1.28.83-3.2.83c-3.97 0-4.35-3.9-4.35-7.17V68.24h7.55v-3h-7.49v-9.48h-3.39v9.47h-4.48v3.01h4.48v15.04c0 4.8.06 6.98 1.09 8.96 1.09 1.98 2.75 3.2 5.63 3.2 1.92 0 3.4-.32 4.48-.96zM1901.88 78.48c0-8-5.63-13.89-13.44-13.89-7.87 0-14.4 6.21-14.4 15.36 0 9.09 5.57 15.49 14.2 15.49 8.65 0 12.36-4.48 12.36-4.48l-1.6-2.37s-3.71 3.84-10.43 3.84-10.69-4.67-11-11.71h24.12s.19-1.28.19-2.24zm-3.4-.64h-20.8c.2-4.16 3.2-10.37 10.57-10.37 7.36 0 10.24 6.53 10.24 10.37zM1922.68 68.3l.32-3.26s-1.28-.45-3.2-.45c-3.2 0-6.46 2.05-7.55 6.08V65.1h-3.33v29.7h3.33v-16c0-4.54 1.53-11 7.23-11 1.6 0 2.5.25 3.2.5zM1952.25 90.32l-1.92-2.24s-3.2 4.35-9.92 4.35-11.33-5.31-11.33-12.67 5.25-12.16 11.2-12.16c5.89 0 8.45 2.88 9.73 4.35l2.11-2.24c-.64-.83-3.84-5.12-11.7-5.12-7.82 0-14.86 6.21-14.86 15.36 0 9.09 6.53 15.49 14.53 15.49 8 0 11.07-3.84 12.16-5.12zM1986.04 80.08c0-8.96-6.72-15.49-15.23-15.49-8.45 0-15.17 6.53-15.17 15.49s6.72 15.36 15.17 15.36c8.51 0 15.23-6.4 15.23-15.36zm-3.52-.13c0 6.85-4.48 12.48-11.71 12.48-7.17 0-11.65-5.63-11.65-12.48 0-6.91 4.48-12.48 11.65-12.48 7.23 0 11.71 5.57 11.71 12.48zM2016.82 94.8V77.07c0-7.04-1.98-12.48-10.5-12.48-4.28 0-8.12 2.5-9.6 6.02v-5.5h-3.32V94.8h3.32V80.08c0-7.04 3.08-12.6 9.48-12.6s7.23 4.92 7.23 9.72v17.6h3.39zM2049.53 94.8V77.07c0-7.04-1.98-12.48-10.5-12.48-4.28 0-8.12 2.5-9.6 6.02v-5.5h-3.32V94.8h3.33V80.08c0-7.04 3.07-12.6 9.47-12.6s7.23 4.92 7.23 9.72v17.6h3.39zM2084.41 78.48c0-8-5.63-13.89-13.44-13.89-7.87 0-14.4 6.21-14.4 15.36 0 9.09 5.57 15.49 14.2 15.49 8.65 0 12.36-4.48 12.36-4.48l-1.6-2.37s-3.71 3.84-10.43 3.84-10.69-4.67-11-11.71h24.12s.19-1.28.19-2.24zm-3.4-.64h-20.8c.2-4.16 3.2-10.37 10.57-10.37 7.36 0 10.24 6.53 10.24 10.37zM2116.21 90.32l-1.92-2.24s-3.2 4.35-9.92 4.35-11.33-5.31-11.33-12.67 5.25-12.16 11.2-12.16c5.89 0 8.45 2.88 9.73 4.35l2.11-2.24c-.64-.83-3.84-5.12-11.71-5.12-7.8 0-14.85 6.21-14.85 15.36 0 9.09 6.53 15.49 14.53 15.49 8 0 11.07-3.84 12.16-5.12zM2134 94.48l-.32-2.88s-1.28.83-3.2.83c-3.97 0-4.35-3.9-4.35-7.17V68.24h7.55v-3h-7.49v-9.48h-3.39v9.47h-4.48v3.01h4.48v15.04c0 4.8.06 6.98 1.09 8.96 1.09 1.98 2.75 3.2 5.63 3.2 1.92 0 3.4-.32 4.48-.96z" fill-rule="nonzero"/></g></svg>