<svg viewBox="0 0 2304 1699" xmlns="http://www.w3.org/2000/svg" fill-rule="evenodd" clip-rule="evenodd" stroke-linecap="round" stroke-linejoin="round" stroke-miterlimit="1.5"><g fill="none" stroke="#000" stroke-width="10"><path d="M590.54 950.27v64l720.53 415.54 942.23-543.54v-64l-720.53-416-942.23 544z"/><path d="M590.54 950.27l720.53 416 942.23-544M1311.07 1366.27v63.54" stroke-linejoin="miter" stroke-miterlimit="1"/></g><g stroke-width="7"><g stroke="#33525c"><path d="M1255.64 930.27v20l-277.13 160-277.12-160v-20l277.12-160 277.13 160z" fill="#89c2d4"/><path d="M701.39 930.27l277.13 160 277.12-160M978.52 1090.27v20" fill="none" stroke-linejoin="miter" stroke-miterlimit="1"/></g><path d="M1006.23 796.27l166.28 96v20l-110.85 64-166.28-96v-20l110.85-64z" fill="#fff" stroke="#150900"/><path d="M895.38 860.27l166.27 96 110.85-64M1061.65 956.27v20" fill="none" stroke="#000" stroke-linejoin="miter" stroke-miterlimit="1"/><g><path d="M883.69 867.02l166.27 96v20l-110.85 64-166.28-96v-20l110.86-64z" fill="#fff" stroke="#150900"/><path d="M772.84 931.02l166.27 96 110.85-64M939.11 1027.02v20" fill="none" stroke="#000" stroke-linejoin="miter" stroke-miterlimit="1"/></g></g><g stroke-width="7"><g stroke="#33525c"><path d="M1588.19 1122.27v20l-277.13 160-277.12-160v-20l277.12-160 277.13 160z" fill="#89c2d4"/><path d="M1033.94 1122.27l277.13 160 277.12-160M1311.07 1282.27v20" fill="none" stroke-linejoin="miter" stroke-miterlimit="1"/></g><path d="M1338.78 988.27l166.28 96v20l-110.85 64-166.28-96v-20l110.85-64z" fill="#fff" stroke="#150900"/><path d="M1227.93 1052.27l166.28 96 110.85-64M1394.21 1148.27v20" fill="none" stroke="#000" stroke-linejoin="miter" stroke-miterlimit="1"/><g><path d="M1216.24 1059.02l166.28 96v20l-110.85 64-166.28-96v-20l110.85-64z" fill="#fff" stroke="#150900"/><path d="M1105.39 1123.02l166.28 96 110.85-64M1271.66 1219.02v20" fill="none" stroke="#000" stroke-linejoin="miter" stroke-miterlimit="1"/></g></g><g stroke-width="7"><g stroke="#33525c"><path d="M1809.9 610.27v20l-277.13 160-277.12-160v-20l277.12-160 277.13 160z" fill="#89c2d4"/><path d="M1255.64 610.27l277.13 160 277.12-160M1532.77 770.27v20" fill="none" stroke-linejoin="miter" stroke-miterlimit="1"/></g><path d="M1560.48 476.27l166.28 96v20l-110.85 64-166.28-96v-20l110.85-64z" fill="#fff" stroke="#150900"/><path d="M1449.63 540.27l166.28 96 110.85-64M1615.91 636.27v20" fill="none" stroke="#000" stroke-linejoin="miter" stroke-miterlimit="1"/><g><path d="M1437.94 547.02l166.28 96v20l-110.85 64-166.28-96v-20l110.85-64z" fill="#fff" stroke="#150900"/><path d="M1327.09 611.02l166.28 96 110.85-64M1493.37 707.02v20" fill="none" stroke="#000" stroke-linejoin="miter" stroke-miterlimit="1"/></g></g><g stroke-width="7"><g stroke="#33525c"><path d="M2142.45 802.27v20l-277.13 160-277.12-160v-20l277.12-160 277.13 160z" fill="#89c2d4"/><path d="M1588.19 802.27l277.13 160 277.12-160M1865.32 962.27v20" fill="none" stroke-linejoin="miter" stroke-miterlimit="1"/></g><path d="M1893.04 668.27l166.28 96v20l-110.86 64-166.27-96v-20l110.85-64z" fill="#fff" stroke="#150900"/><path d="M1782.18 732.27l166.28 96 110.85-64M1948.46 828.27v20" fill="none" stroke="#000" stroke-linejoin="miter" stroke-miterlimit="1"/><g><path d="M1770.49 739.02l166.28 96v20l-110.85 64-166.28-96v-20l110.85-64z" fill="#fff" stroke="#150900"/><path d="M1659.64 803.02l166.28 96 110.85-64M1825.92 899.02v20" fill="none" stroke="#000" stroke-linejoin="miter" stroke-miterlimit="1"/></g></g><g stroke-width="7"><path d="M1809.9 992.27v20l-166.28 96-609.68-350v-20l166.28-96 609.68 350z" fill="#ebebeb" stroke="#150900"/><path d="M1033.94 738.27l609.68 350 166.28-96M1643.62 1088.27v20" fill="none" stroke="#000" stroke-linejoin="miter" stroke-miterlimit="1"/></g><g><path d="M924.12 960.74a15 15 0 10-15.02-25.99 15 15 0 0015.02 25.99z" fill="#004e8e"/><path d="M908.83 952.25L566.65 1149.8v-648.1" fill="none" stroke="#004e8e" stroke-width="10" stroke-linecap="butt"/><path d="M50.78 501.26h1033.29" fill="none" stroke="#004e8e" stroke-width="10"/><g><path d="M88.78 63.57a42.14 42.14 0 00-6.84-3.33 22.4 22.4 0 00-7.5-1.22c-4.86 0-8.92 1.68-12.18 5.03a16.98 16.98 0 00-4.9 12.32c0 4.95 1.56 9.04 4.67 12.29 3.12 3.24 7.13 4.86 12.03 4.86 2.6 0 5.22-.43 7.84-1.28a32.37 32.37 0 007.52-3.58l-.06 7.16a61.48 61.48 0 01-7.55 2.95 28.77 28.77 0 01-8 1.09c-6.79 0-12.35-2.24-16.7-6.72-4.36-4.48-6.53-10.14-6.53-16.96a22.6 22.6 0 016.81-16.61 22.53 22.53 0 0116.55-6.82c3.03 0 5.59.28 7.68.83a32.2 32.2 0 017.16 3.08v6.9zM107.73 68.82c4.22 0 7.82 1.54 10.78 4.64a15.4 15.4 0 014.45 11.04c0 4.3-1.58 7.91-4.74 10.81a16 16 0 01-11.2 4.35c-4.05 0-7.61-1.53-10.68-4.6-3.08-3.08-4.61-6.64-4.61-10.7 0-4.51 1.53-8.24 4.6-11.16 3.08-2.92 6.88-4.38 11.4-4.38zm-.51 25.08c2.73 0 5.07-.94 7.04-2.81a9.12 9.12 0 002.94-6.85c0-2.65-.96-4.93-2.88-6.85a9.35 9.35 0 00-6.85-2.88c-2.77 0-5.15.95-7.13 2.85a9.32 9.32 0 00-2.98 7c0 2.52 1 4.74 3 6.66a9.64 9.64 0 006.86 2.88zM129.23 69.52h6.08v4.6c.64-1.19 1.73-2.35 3.27-3.48 1.53-1.13 2.94-1.7 4.22-1.7 1.32 0 2.58.3 3.78.9.76.38 1.85 1.1 3.26 2.18l-3.65 5.5a13 13 0 00-1.98-1.6c-.9-.55-1.7-.83-2.43-.83-2.4 0-4.14 1.21-5.25 3.65a16.5 16.5 0 00-1.22 6.78V98.9h-6.08V69.52zM156.11 85.07c0 2.69.87 4.83 2.6 6.43 1.72 1.6 4.01 2.4 6.87 2.4 2.1 0 4.25-.5 6.47-1.53.38-.17 1.6-.81 3.64-1.92v5.95a59.58 59.58 0 01-5.24 2.3c-1.88.64-3.78.96-5.7.96-4.52 0-8.13-1.5-10.81-4.5-2.7-3.02-4.04-6.82-4.04-11.43 0-3.93 1.2-7.38 3.62-10.37a11.55 11.55 0 019.44-4.48c4.44 0 7.83 1.64 10.18 4.93 2.04 2.86 3.07 6.61 3.07 11.26h-20.1zm14.2-4.41a9.34 9.34 0 00-2.36-4.64 6.08 6.08 0 00-4.54-1.76c-1.92 0-3.5.57-4.74 1.72a8.36 8.36 0 00-2.43 4.68h14.08zM234.45 63.57a42.1 42.1 0 00-6.85-3.33 22.4 22.4 0 00-7.49-1.22c-4.86 0-8.93 1.68-12.2 5.03a16.98 16.98 0 00-4.89 12.32c0 4.95 1.56 9.04 4.67 12.29 3.12 3.24 7.13 4.86 12.04 4.86 2.6 0 5.21-.43 7.84-1.28a32.37 32.37 0 007.52-3.58l-.07 7.16a61.42 61.42 0 01-7.55 2.95 28.77 28.77 0 01-8 1.09c-6.78 0-12.35-2.24-16.7-6.72-4.35-4.48-6.53-10.14-6.53-16.96a22.6 22.6 0 016.82-16.61 22.53 22.53 0 0116.54-6.82c3.03 0 5.59.28 7.68.83a32.2 32.2 0 017.17 3.08v6.9zM253.4 68.82c4.21 0 7.81 1.54 10.77 4.64a15.4 15.4 0 014.45 11.04c0 4.3-1.58 7.91-4.73 10.81a16 16 0 01-11.2 4.35c-4.06 0-7.62-1.53-10.7-4.6-3.06-3.08-4.6-6.64-4.6-10.7 0-4.51 1.54-8.24 4.6-11.16 3.08-2.92 6.88-4.38 11.4-4.38zm-.52 25.08c2.73 0 5.08-.94 7.04-2.81a9.12 9.12 0 002.94-6.85c0-2.65-.96-4.93-2.88-6.85a9.35 9.35 0 00-6.85-2.88c-2.77 0-5.15.95-7.13 2.85a9.32 9.32 0 00-2.98 7c0 2.52 1 4.74 3.01 6.66a9.64 9.64 0 006.85 2.88zM273.62 69.52h6.08v2.56a21.31 21.31 0 013.84-2.24c1.4-.6 2.87-.9 4.41-.9 1.75 0 3.28.37 4.58 1.1 1.3.72 2.55 1.83 3.74 3.32 1.4-1.4 2.91-2.5 4.51-3.26 1.6-.77 3.32-1.16 5.16-1.16 3.66 0 6.31 1.52 7.93 4.55 1.24 2.3 1.86 5.46 1.86 9.47V98.9h-6.08V82.2c0-2.9-.5-4.94-1.47-6.09-.82-.98-2.01-1.47-3.59-1.47-1.32 0-2.56.32-3.71.96-.6.34-1.64 1.1-3.14 2.3v21h-6.08V82.83c0-3.03-.42-5.15-1.28-6.37a4.13 4.13 0 00-3.58-1.82c-1.32 0-2.56.28-3.71.83a14 14 0 00-3.4 2.37V98.9h-6.07V69.52zM323.34 69.52h6.15v1.73a10 10 0 013.39-1.83c1.28-.4 2.62-.6 4.03-.6 4.14 0 7.4 1.51 9.8 4.54 2.21 2.82 3.32 6.36 3.32 10.62 0 4.44-1.07 8.09-3.2 10.95-2.39 3.2-5.72 4.8-9.98 4.8-2.78 0-5.23-.77-7.36-2.3v17.98h-6.15V69.52zm12.42 24.77a7.12 7.12 0 006.27-3.2c1.28-1.88 1.92-4.25 1.92-7.1 0-2.7-.66-4.96-1.98-6.79a7.26 7.26 0 00-6.21-3.07c-1.02 0-2.11.19-3.26.57-1.16.39-2.16.9-3.01 1.54v15.94c1.32.76 2.39 1.3 3.2 1.63.8.32 1.83.48 3.07.48zM356.5 53.71h6.02v45.18h-6.02zM373.84 85.07c0 2.69.86 4.83 2.6 6.43 1.72 1.6 4.01 2.4 6.87 2.4 2.1 0 4.25-.5 6.46-1.53.39-.17 1.6-.81 3.65-1.92v5.95a59.71 59.71 0 01-5.25 2.3c-1.87.64-3.77.96-5.7.96-4.51 0-8.12-1.5-10.8-4.5-2.7-3.02-4.04-6.82-4.04-11.43 0-3.93 1.2-7.38 3.62-10.37a11.55 11.55 0 019.44-4.48c4.43 0 7.83 1.64 10.17 4.93 2.05 2.86 3.07 6.61 3.07 11.26h-20.1zm14.2-4.41a9.34 9.34 0 00-2.36-4.64 6.08 6.08 0 00-4.54-1.76c-1.92 0-3.5.57-4.74 1.72a8.36 8.36 0 00-2.43 4.68h14.08zM407.89 83.92l-11.59-14.4h7.68l7.87 10.05 7.94-10.05h7.94l-11.78 14.4 12.54 14.98h-7.87l-8.77-10.5-8.76 10.5h-7.88l12.68-14.98zM449.55 53.71h12.86c7.6 0 13.72 1.69 18.37 5.06 5.25 3.8 7.87 9.38 7.87 16.77 0 6.4-1.72 11.63-5.18 15.7-3.46 4.08-8.32 6.48-14.6 7.2a85.98 85.98 0 01-10.23.46h-9.09V53.7zm14.46 39.1c5.38 0 9.65-1.34 12.8-4.03 3.42-2.9 5.12-6.97 5.12-12.22 0-5.33-1.55-9.43-4.67-12.29-3.11-2.86-7.36-4.29-12.73-4.29h-8.58v32.84h8.06zM495.63 69.52h6.08V98.9h-6.08V69.52zm3.14-10.43c1.02 0 1.86.37 2.52 1.12.67.74 1 1.63 1 2.65 0 1.11-.39 1.99-1.16 2.63-.76.64-1.7.96-2.81.96-.98 0-1.8-.35-2.47-1.06-.66-.7-.99-1.57-.99-2.59a3.5 3.5 0 011.12-2.66 3.9 3.9 0 012.79-1.05zM512.97 85.07c0 2.69.87 4.83 2.6 6.43 1.72 1.6 4.02 2.4 6.88 2.4 2.09 0 4.24-.5 6.46-1.53.38-.17 1.6-.81 3.65-1.92v5.95a59.58 59.58 0 01-5.25 2.3c-1.88.64-3.78.96-5.7.96-4.52 0-8.12-1.5-10.81-4.5-2.69-3.02-4.03-6.82-4.03-11.43 0-3.93 1.2-7.38 3.61-10.37a11.55 11.55 0 019.44-4.48c4.44 0 7.83 1.64 10.18 4.93 2.05 2.86 3.07 6.61 3.07 11.26h-20.1zm14.21-4.41a9.34 9.34 0 00-2.37-4.64 6.08 6.08 0 00-4.54-1.76c-1.92 0-3.5.57-4.74 1.72a8.37 8.37 0 00-2.43 4.68h14.08zM572.37 51.86a51.13 51.13 0 00-7.01 14.04 53.59 53.59 0 00-2.15 15.72c0 5.54.73 10.68 2.18 15.42a43.82 43.82 0 006.98 13.5h-4.16c-3.89-5.07-6.7-9.68-8.45-13.82a40.06 40.06 0 01-3.14-15.87c0-4.9 1.11-10.05 3.33-15.43 2.09-4.99 4.84-9.51 8.26-13.56h4.16zM611.92 63.57a42.18 42.18 0 00-6.85-3.33 22.4 22.4 0 00-7.49-1.22c-4.86 0-8.93 1.68-12.19 5.03a16.98 16.98 0 00-4.9 12.32c0 4.95 1.56 9.04 4.68 12.29 3.11 3.24 7.12 4.86 12.03 4.86 2.6 0 5.21-.43 7.84-1.28a32.38 32.38 0 007.52-3.58l-.07 7.16a61.48 61.48 0 01-7.55 2.95 28.78 28.78 0 01-8 1.09c-6.78 0-12.35-2.24-16.7-6.72-4.35-4.48-6.53-10.14-6.53-16.96a22.6 22.6 0 016.82-16.61 22.52 22.52 0 0116.54-6.82c3.03 0 5.59.28 7.68.83 2.09.56 4.48 1.58 7.17 3.08v6.9zM653.13 63.57a42.1 42.1 0 00-6.84-3.33 22.4 22.4 0 00-7.5-1.22c-4.86 0-8.92 1.68-12.18 5.03a16.98 16.98 0 00-4.9 12.32c0 4.95 1.56 9.04 4.67 12.29 3.12 3.24 7.13 4.86 12.03 4.86 2.6 0 5.22-.43 7.84-1.28a32.37 32.37 0 007.52-3.58l-.06 7.16a61.42 61.42 0 01-7.55 2.95 28.77 28.77 0 01-8 1.09c-6.79 0-12.35-2.24-16.7-6.72-4.36-4.48-6.53-10.14-6.53-16.96a22.6 22.6 0 016.81-16.61 22.52 22.52 0 0116.55-6.82c3.03 0 5.59.28 7.68.83a32.2 32.2 0 017.16 3.08v6.9zM658.25 53.71h12.87c7.6 0 13.72 1.69 18.37 5.06 5.24 3.8 7.87 9.38 7.87 16.77 0 6.4-1.73 11.63-5.19 15.7-3.45 4.08-8.32 6.48-14.59 7.2a85.98 85.98 0 01-10.24.46h-9.09V53.7zm14.47 39.1c5.37 0 9.64-1.34 12.8-4.03 3.41-2.9 5.12-6.97 5.12-12.22 0-5.33-1.56-9.43-4.67-12.29-3.12-2.86-7.36-4.29-12.74-4.29h-8.58v32.84h8.07zM709 80.78c0-5.54-.72-10.6-2.17-15.16a51.67 51.67 0 00-6.98-13.76h4.16c3.89 5.03 6.7 9.64 8.45 13.82 2.1 5 3.14 10.28 3.14 15.87 0 4.9-1.08 9.95-3.24 15.14a52.77 52.77 0 01-8.35 13.85l-4.16.07a47.41 47.41 0 006.98-13.99A54.99 54.99 0 00709 80.78z" fill="#004e8e" fill-rule="nonzero"/><path d="M83.23 185.84c0-5.76-3.52-9.8-8.51-11.4v-.12c2.75-1.15 7.04-3.4 7.04-10.24 0-6.91-5.89-11.07-12.6-11.07-6.73 0-12.68 4.16-12.68 11.07 0 6.85 4.35 9.09 7.04 10.24v.13c-4.93 1.6-8.45 5.63-8.45 11.39 0 8 5.76 12.67 14.08 12.67s14.08-4.67 14.08-12.67zm-5-21.38c0 5.44-3.96 8.39-9.08 8.39S60 169.9 60 164.46s4.03-8.38 9.15-8.38 9.09 2.94 9.09 8.38zm1.48 21.19c0 6.08-4.8 9.85-10.56 9.85-5.76 0-10.56-3.77-10.56-9.85s4.48-9.73 10.56-9.73 10.56 3.65 10.56 9.73zM141.15 191.73l-2.24-2.24c-3.2 3.52-8 5.82-14.08 5.82-10.88 0-18.56-8.13-18.56-19.65 0-11.52 7.68-19.52 18.56-19.52 6.4 0 11.52 2.95 13.76 5.83l2.24-2.56c-3.2-3.2-8.32-6.4-16-6.4-12.48 0-22.27 9.34-22.27 22.78 0 13.44 9.47 22.79 22.27 22.79 8 0 13.12-3.33 16.32-6.85zM172.83 165.42c0-3.84-1.47-6.46-4.03-8.7-2.56-2.24-6.02-3.07-10.18-3.07h-10.1v44.16h3.45V177.2h6.65c4.16 0 7.62-.83 10.18-3.07 2.56-2.24 4.03-4.87 4.03-8.7zm-3.65 0c0 6.28-4.86 8.64-10.43 8.64h-6.78v-17.28h6.78c5.57 0 10.43 2.37 10.43 8.64zM211.55 180.02v-26.37h-3.46v26.69c0 3.32-.06 7.36-2.24 10.36-2.1 2.88-5.5 4.68-9.98 4.68s-7.87-1.8-9.98-4.68c-2.18-3-2.24-7.04-2.24-10.36v-26.7h-3.46v26.38c0 4.99.2 9.4 3.14 13.12 2.88 3.58 7.1 5.44 12.54 5.44 5.44 0 9.66-1.86 12.54-5.44 2.95-3.72 3.14-8.13 3.14-13.12zM258.72 193.33l-1.92-2.24s-3.2 4.35-9.92 4.35-11.33-5.31-11.33-12.67 5.25-12.16 11.2-12.16c5.89 0 8.45 2.88 9.73 4.35l2.11-2.24c-.64-.83-3.84-5.12-11.71-5.12-7.8 0-14.85 6.2-14.85 15.36 0 9.09 6.53 15.49 14.53 15.49 8 0 11.07-3.84 12.16-5.12zM292.51 183.09c0-8.96-6.72-15.49-15.23-15.49-8.45 0-15.17 6.53-15.17 15.49s6.72 15.36 15.17 15.36c8.51 0 15.23-6.4 15.23-15.36zm-3.52-.13c0 6.85-4.48 12.48-11.71 12.48-7.17 0-11.65-5.63-11.65-12.48 0-6.91 4.48-12.48 11.65-12.48 7.23 0 11.71 5.57 11.71 12.48zM313.63 171.31l.32-3.26s-1.28-.45-3.2-.45c-3.2 0-6.46 2.05-7.55 6.08v-5.57h-3.33v29.7h3.33v-16c0-4.55 1.53-11.01 7.23-11.01 1.6 0 2.5.26 3.2.51zM344.35 181.49c0-8-5.63-13.89-13.44-13.89-7.87 0-14.4 6.2-14.4 15.36 0 9.09 5.57 15.49 14.2 15.49 8.65 0 12.36-4.48 12.36-4.48l-1.6-2.37s-3.71 3.84-10.43 3.84-10.69-4.67-11.01-11.71h24.13s.19-1.28.19-2.24zm-3.4-.64h-20.8c.2-4.16 3.2-10.37 10.57-10.37 7.36 0 10.24 6.53 10.24 10.37zM369.44 189.68c0-5.63-5.57-7.55-9.28-8.83-3.65-1.28-6.85-2.63-6.85-5.7 0-3.07 2.37-4.73 5.7-4.73 3.32 0 5.37 1.15 7.42 3.39l2.05-2.05c-2.3-2.62-5-4.16-9.35-4.16s-9.02 2.56-9.02 7.94c0 5.37 5.57 7.3 8.13 8.19 2.56.9 7.87 2.24 7.87 6.08s-3.26 5.63-6.98 5.63c-3.7 0-6.65-1.86-8.57-4.67l-2.37 1.92c1.86 3.07 5.31 5.76 10.82 5.76 5.5 0 10.43-3.2 10.43-8.77zM429.47 168.11h-3.52l-8 24.9-9.28-24.96h-2.56L396.83 193l-8-24.9h-3.52l9.92 29.7h2.88l9.28-24.96 9.28 24.96h2.88l9.92-29.7zM439.97 157.55a2.73 2.73 0 00-2.75-2.75 2.73 2.73 0 00-2.75 2.75 2.73 2.73 0 002.75 2.75 2.73 2.73 0 002.75-2.75zm-1.09 40.26v-29.7h-3.33v29.7h3.33zM460.95 197.49l-.32-2.88s-1.28.83-3.2.83c-3.96 0-4.35-3.9-4.35-7.17v-17.02h7.55v-3.01h-7.48v-9.47h-3.4v9.47h-4.48v3h4.48v15.05c0 4.8.07 6.97 1.1 8.96 1.08 1.98 2.74 3.2 5.62 3.2 1.92 0 3.4-.32 4.48-.96zM490.46 197.8v-17.72c0-7.04-1.99-12.48-10.5-12.48-4.29 0-8.13 2.5-9.6 6.02v-19.97h-3.33v44.16h3.33v-14.72c0-7.04 3.07-12.61 9.47-12.61s7.24 4.93 7.24 9.73v17.6h3.39zM525.02 197.49l-.32-2.88s-1.28.83-3.2.83c-3.96 0-4.35-3.9-4.35-7.17v-17.02h7.55v-3.01h-7.48v-9.47h-3.4v9.47h-4.48v3h4.48v15.05c0 4.8.07 6.97 1.1 8.96 1.08 1.98 2.74 3.2 5.62 3.2 1.92 0 3.4-.32 4.48-.96zM571.1 168.11h-3.52l-8 24.9-9.28-24.96h-2.56L538.46 193l-8-24.9h-3.52l9.92 29.7h2.88l9.28-24.96 9.28 24.96h2.88l9.92-29.7zM605.02 183.09c0-8.96-6.72-15.49-15.23-15.49-8.45 0-15.17 6.53-15.17 15.49s6.72 15.36 15.17 15.36c8.51 0 15.23-6.4 15.23-15.36zm-3.52-.13c0 6.85-4.48 12.48-11.7 12.48-7.18 0-11.66-5.63-11.66-12.48 0-6.91 4.48-12.48 11.65-12.48 7.23 0 11.71 5.57 11.71 12.48zM608.86 178.6h14.08v3.2h-14.08zM669.4 168.11h-3.52l-8 24.9-9.28-24.96h-2.56L636.76 193l-8-24.9h-3.52l9.92 29.7h2.88l9.28-24.96 9.28 24.96h2.88l9.92-29.7zM695.96 197.8v-17.6c0-7.86-3.58-12.6-11.84-12.6-4.48 0-8 1.73-9.92 3l1.28 2.44c.64-.51 4.16-2.56 8.77-2.56 4.67 0 8.32 2.69 8.32 8.13v1.6l-8.13.32c-8 .32-11.84 3.84-11.84 8.96 0 5.12 4.16 8.96 9.92 8.96s8.96-3.52 10.05-4.8v4.16h3.4zm-3.39-15.03v7.36c-1.4 2.24-4.6 5.44-9.4 5.44-4.8 0-7.24-2.88-7.24-6.08s1.99-5.89 8.2-6.21l8.44-.51zM727.2 168.11h-3.53l-10.24 25.86-10.24-25.86h-3.52l11.97 29.25-1.73 4.93c-1.4 4.03-2.62 4.67-4.41 4.67-1.8 0-2.95-.64-2.95-.64l-.64 3.2s1.54.77 3.59.77 4.6-.64 6.65-5.57l15.04-36.6zM770.52 186.29c0-6.72-5.37-9.67-6.4-10.24-1.02-.58-5.95-2.63-9.09-3.97-3.13-1.34-6.59-3.33-6.59-8.32 0-5 4.1-7.68 9.22-7.68 5.12 0 7.68 2.69 9.34 4.8l2.43-2.11c-.38-.64-4.1-5.76-11.52-5.76s-12.99 4.48-12.99 10.88 4.67 9.28 6.4 10.24a82.3 82.3 0 007.23 3.2c2.56 1.02 8.45 3.2 8.45 8.96 0 5.76-4.6 9.28-10.3 9.28-5.7 0-9.54-3.9-11.14-6.85l-2.69 1.92c.96 1.8 4.93 7.94 13.5 7.94 8.58 0 14.15-5.57 14.15-12.3zM823.96 197.8l-4.48-44.15h-4.03l-15.23 37.7-15.17-37.7h-3.97l-4.48 44.16h3.46l3.65-38.4 16.38 39.17h.32l16.32-39.1 3.78 38.33h3.45zM857.18 156.78v-3.13h-29.7v3.13h13.12v41.03h3.46v-41.03h13.12zM116.2 258.45c0-4.8-4.17-8.96-8.97-8.96a9.16 9.16 0 00-8.96 8.96c0 4.8 4.16 8.96 8.96 8.96 4.8 0 8.96-4.16 8.96-8.96zM190.91 269.84c0-7.55-5.76-10.75-8.96-11.2v-.2c2.56-.63 7.68-3.2 7.68-10.23 0-7.04-6.08-11.2-12.8-11.2-6.72 0-10.3 3.2-13.12 6.72l2.24 1.92c2.56-2.88 5.44-5.57 10.56-5.57s9.6 3 9.6 8.45c0 5.44-3.84 8.51-9.28 8.51h-2.88v3.33h2.88c5.76 0 10.56 3.2 10.56 9.47 0 6.2-4.67 9.54-11.4 9.54-6.71 0-10.68-6.66-10.68-6.66l-2.56 2.05s4.29 7.68 13.12 7.68c8.77 0 15.04-5.12 15.04-12.61zM228.03 281.8v-3.2h-24l12.8-12.47c2.24-2.24 9.4-8.32 9.4-16.13 0-7.87-5.88-13-13.88-13s-11.84 5.77-13.44 9.29l2.56 1.6c1.28-2.88 4.48-7.81 10.88-7.81s10.37 4.29 10.37 10.05c0 5.76-4.6 10.56-7.49 13.44l-16 15.68.64 2.56h28.16zM266.43 281.8l-19.07-26.87 17.8-17.28h-4.49l-20.86 20.67v-20.67h-3.46v44.16h3.46v-19.52l5.18-5.12 17.09 24.64h4.35zM275.97 241.55a2.73 2.73 0 00-2.76-2.75 2.73 2.73 0 00-2.75 2.75 2.73 2.73 0 002.75 2.75 2.73 2.73 0 002.76-2.75zm-1.1 40.26v-29.7h-3.32v29.7h3.33zM312.96 269.33c0-6.08-4.16-9.92-10.37-10.95 3.97-1.15 6.98-5.18 6.98-9.66s-1.6-6.91-4.16-8.83-5.9-2.24-10.24-2.24h-9.73v44.16h11.84c5.12 0 8.32-.64 11-2.88 2.76-2.24 4.68-5.12 4.68-9.6zm-3.71.19a8.27 8.27 0 01-3.84 7.36c-2.56 1.73-6.08 1.8-9.28 1.8h-7.24v-18.25h7.24c3.2 0 6.72.13 9.28 1.86 2.56 1.79 3.84 3.84 3.84 7.23zm-3.2-20.67c0 3.84-1.8 5.7-3.52 6.91-1.67 1.22-4.16 1.6-7.68 1.6h-5.96v-16.58h6.6c5.56 0 10.56 1.41 10.56 8.07zM361.73 267.09c0-8.96-6.72-15.49-15.24-15.49-8.44 0-15.16 6.53-15.16 15.49s6.72 15.36 15.16 15.36c8.52 0 15.24-6.4 15.24-15.36zm-3.52-.13c0 6.85-4.48 12.48-11.72 12.48-7.16 0-11.64-5.63-11.64-12.48 0-6.91 4.48-12.48 11.64-12.48 7.24 0 11.72 5.57 11.72 12.48zM381.89 240.53l.32-2.88s-.96-.64-4.16-.64a7.51 7.51 0 00-6.28 3.39c-.96 1.4-1.72 3.65-1.72 7.8v4.04h-4.48v3h4.48v26.57h3.32v-26.56h7.56v-3.01h-7.56v-4.35c0-4.16.52-8 5.32-8 1.08 0 2.1.19 3.2.64zM417.09 281.8v-3.13h-15.75v-41.02h-3.45v44.16h19.2zM434.05 281.8v-44.15h-12.48v2.88h9.08v41.28h3.4zM486.33 277.33l-1.92-2.24s-3.2 4.35-9.92 4.35-11.33-5.31-11.33-12.67 5.25-12.16 11.2-12.16c5.9 0 8.45 2.88 9.73 4.35l2.11-2.24c-.64-.83-3.84-5.12-11.7-5.12-7.82 0-14.86 6.2-14.86 15.36 0 9.09 6.53 15.49 14.53 15.49 8 0 11.07-3.84 12.16-5.12zM513.72 281.8v-17.6c0-7.86-3.58-12.6-11.84-12.6-4.48 0-8 1.73-9.92 3l1.28 2.44c.64-.51 4.16-2.56 8.77-2.56 4.67 0 8.32 2.69 8.32 8.13v1.6l-8.13.32c-8 .32-11.84 3.84-11.84 8.96 0 5.12 4.16 8.96 9.92 8.96s8.96-3.52 10.05-4.8v4.16h3.4zm-3.39-15.03v7.36c-1.4 2.24-4.6 5.44-9.4 5.44-4.8 0-7.24-2.88-7.24-6.08s1.99-5.89 8.2-6.21l8.44-.51zM547.13 277.33l-1.92-2.24s-3.2 4.35-9.92 4.35-11.33-5.31-11.33-12.67 5.25-12.16 11.2-12.16c5.9 0 8.45 2.88 9.73 4.35l2.11-2.24c-.64-.83-3.84-5.12-11.7-5.12-7.82 0-14.86 6.2-14.86 15.36 0 9.09 6.53 15.49 14.53 15.49 8 0 11.07-3.84 12.16-5.12zM576.5 281.8v-17.72c0-7.04-1.98-12.48-10.49-12.48-4.29 0-8.13 2.5-9.6 6.02v-19.97h-3.33v44.16h3.33v-14.72c0-7.04 3.07-12.61 9.47-12.61s7.24 4.93 7.24 9.73v17.6h3.39zM611.71 265.49c0-8-5.63-13.89-13.44-13.89-7.87 0-14.4 6.2-14.4 15.36 0 9.09 5.57 15.49 14.21 15.49s12.35-4.48 12.35-4.48l-1.6-2.37s-3.7 3.84-10.43 3.84c-6.72 0-10.69-4.67-11-11.71h24.12s.2-1.28.2-2.24zm-3.39-.64h-20.8c.2-4.16 3.2-10.37 10.56-10.37s10.24 6.53 10.24 10.37zM116.2 322.45c0-4.8-4.17-8.96-8.97-8.96a9.16 9.16 0 00-8.96 8.96c0 4.8 4.16 8.96 8.96 8.96 4.8 0 8.96-4.16 8.96-8.96zM190.91 332.05c0-9.28-7.36-14.4-14.72-14.4-2.24 0-4.67.32-6.6 1.28l3.08-14.21h17.28v-3.07h-19.84l-4.16 20.16 2.24 1.28c1.6-1.6 4.8-2.37 7.68-2.37 5.76 0 11.52 3.65 11.52 11.33s-5.76 11.39-11.52 11.39-9.6-3.07-11.2-6.27l-2.56 1.92c1.28 2.56 5.44 7.49 13.44 7.49 8 0 15.36-5.25 15.36-14.53zM211.4 345.8v-44.15H198.9v2.88H208v41.28h3.4zM254.6 345.8v-3.2h-24l12.8-12.47c2.23-2.24 9.4-8.32 9.4-16.13 0-7.87-5.89-13-13.89-13s-11.84 5.77-13.44 9.29l2.56 1.6c1.28-2.88 4.48-7.81 10.88-7.81s10.37 4.29 10.37 10.05c0 5.76-4.6 10.56-7.49 13.44l-16 15.68.64 2.56h28.16zM292.99 345.8l-19.07-26.87 17.8-17.28h-4.49l-20.86 20.67v-20.67h-3.46v44.16h3.46v-19.52l5.18-5.12 17.09 24.64h4.35zM302.53 305.55a2.73 2.73 0 00-2.76-2.75 2.73 2.73 0 00-2.75 2.75 2.73 2.73 0 002.75 2.75 2.73 2.73 0 002.76-2.75zm-1.1 40.26v-29.7h-3.32v29.7h3.33zM339.52 333.33c0-6.08-4.16-9.92-10.37-10.95 3.97-1.15 6.98-5.18 6.98-9.66s-1.6-6.91-4.16-8.83-5.9-2.24-10.24-2.24H312v44.16h11.84c5.12 0 8.32-.64 11-2.88 2.76-2.24 4.68-5.12 4.68-9.6zm-3.71.19a8.27 8.27 0 01-3.84 7.36c-2.56 1.73-6.08 1.8-9.28 1.8h-7.24v-18.25h7.24c3.2 0 6.72.13 9.28 1.86 2.56 1.79 3.84 3.84 3.84 7.23zm-3.2-20.67c0 3.84-1.8 5.7-3.52 6.91-1.67 1.22-4.16 1.6-7.68 1.6h-5.96v-16.58h6.6c5.56 0 10.56 1.41 10.56 8.07zM388.29 331.09c0-8.96-6.72-15.49-15.24-15.49-8.44 0-15.16 6.53-15.16 15.49s6.72 15.36 15.16 15.36c8.52 0 15.24-6.4 15.24-15.36zm-3.52-.13c0 6.85-4.48 12.48-11.72 12.48-7.16 0-11.64-5.63-11.64-12.48 0-6.91 4.48-12.48 11.64-12.48 7.24 0 11.72 5.57 11.72 12.48zM408.45 304.53l.32-2.88s-.96-.64-4.16-.64a7.51 7.51 0 00-6.28 3.39c-.96 1.4-1.72 3.65-1.72 7.8v4.04h-4.48v3h4.48v26.57h3.32v-26.56h7.56v-3.01h-7.56v-4.35c0-4.16.52-8 5.32-8 1.08 0 2.1.19 3.2.64zM443.64 345.8v-3.13H427.9v-41.02h-3.46v44.16h19.2zM477.24 345.8v-3.2h-24l12.8-12.47c2.24-2.24 9.41-8.32 9.41-16.13 0-7.87-5.89-13-13.89-13s-11.84 5.77-13.44 9.29l2.56 1.6c1.28-2.88 4.48-7.81 10.88-7.81s10.37 4.29 10.37 10.05c0 5.76-4.6 10.56-7.49 13.44l-16 15.68.64 2.56h28.16zM522.17 341.33l-1.92-2.24s-3.2 4.35-9.92 4.35S499 338.13 499 330.77s5.25-12.16 11.2-12.16c5.9 0 8.45 2.88 9.73 4.35l2.11-2.24c-.64-.83-3.84-5.12-11.7-5.12-7.82 0-14.86 6.2-14.86 15.36 0 9.09 6.53 15.49 14.53 15.49 8 0 11.07-3.84 12.16-5.12zM549.56 345.8v-17.6c0-7.86-3.58-12.6-11.84-12.6-4.48 0-8 1.73-9.92 3l1.28 2.44c.64-.51 4.16-2.56 8.77-2.56 4.67 0 8.32 2.69 8.32 8.13v1.6l-8.13.32c-8 .32-11.84 3.84-11.84 8.96 0 5.12 4.16 8.96 9.92 8.96s8.96-3.52 10.05-4.8v4.16h3.4zm-3.39-15.03v7.36c-1.4 2.24-4.6 5.44-9.4 5.44-4.8 0-7.24-2.88-7.24-6.08s1.99-5.89 8.2-6.21l8.44-.51zM582.97 341.33l-1.92-2.24s-3.2 4.35-9.92 4.35-11.33-5.31-11.33-12.67 5.25-12.16 11.2-12.16c5.9 0 8.45 2.88 9.73 4.35l2.11-2.24c-.64-.83-3.84-5.12-11.7-5.12-7.82 0-14.86 6.2-14.86 15.36 0 9.09 6.53 15.49 14.53 15.49 8 0 11.07-3.84 12.16-5.12zM612.35 345.8v-17.72c0-7.04-1.99-12.48-10.5-12.48-4.29 0-8.13 2.5-9.6 6.02v-19.97h-3.33v44.16h3.33v-14.72c0-7.04 3.07-12.61 9.47-12.61s7.24 4.93 7.24 9.73v17.6h3.39zM647.55 329.49c0-8-5.63-13.89-13.44-13.89-7.87 0-14.4 6.2-14.4 15.36 0 9.09 5.57 15.49 14.21 15.49s12.35-4.48 12.35-4.48l-1.6-2.37s-3.7 3.84-10.43 3.84c-6.72 0-10.69-4.67-11-11.71h24.12s.2-1.28.2-2.24zm-3.39-.64h-20.8c.2-4.16 3.2-10.37 10.56-10.37s10.24 6.53 10.24 10.37zM92.51 423.73l-2.24-2.24c-3.2 3.52-8 5.83-14.08 5.83-10.88 0-18.56-8.13-18.56-19.65 0-11.52 7.68-19.52 18.56-19.52 6.4 0 11.52 2.94 13.76 5.82l2.24-2.56c-3.2-3.2-8.32-6.4-16-6.4-12.48 0-22.27 9.35-22.27 22.79s9.47 22.78 22.27 22.78c8 0 13.12-3.33 16.32-6.85zM127.07 415.1c0-8.97-6.72-15.5-15.23-15.5-8.45 0-15.17 6.53-15.17 15.5 0 8.95 6.72 15.35 15.17 15.35 8.51 0 15.23-6.4 15.23-15.36zm-3.52-.14c0 6.85-4.48 12.48-11.71 12.48-7.17 0-11.65-5.63-11.65-12.48 0-6.9 4.48-12.48 11.65-12.48 7.23 0 11.71 5.57 11.71 12.48zM148.2 403.32l.31-3.27s-1.28-.45-3.2-.45c-3.2 0-6.46 2.05-7.55 6.08v-5.56h-3.33v29.7h3.33v-16c0-4.55 1.54-11.02 7.23-11.02 1.6 0 2.5.26 3.2.52zM178.91 413.5c0-8-5.63-13.9-13.44-13.9-7.87 0-14.4 6.21-14.4 15.36 0 9.1 5.57 15.5 14.2 15.5 8.65 0 12.36-4.49 12.36-4.49l-1.6-2.37s-3.71 3.84-10.43 3.84-10.69-4.67-11-11.7h24.12s.2-1.29.2-2.25zm-3.4-.65h-20.8c.2-4.16 3.2-10.37 10.57-10.37 7.36 0 10.24 6.53 10.24 10.37zM204 421.68c0-5.63-5.57-7.55-9.28-8.83-3.65-1.28-6.85-2.62-6.85-5.7 0-3.07 2.37-4.73 5.7-4.73 3.32 0 5.37 1.15 7.42 3.4l2.05-2.06c-2.3-2.62-5-4.16-9.35-4.16s-9.02 2.56-9.02 7.94c0 5.38 5.57 7.3 8.13 8.2 2.56.89 7.87 2.23 7.87 6.07 0 3.84-3.26 5.63-6.98 5.63-3.7 0-6.65-1.85-8.57-4.67l-2.37 1.92c1.86 3.07 5.31 5.76 10.82 5.76 5.5 0 10.43-3.2 10.43-8.77zM228.45 389.56a2.73 2.73 0 00-2.76-2.76 2.73 2.73 0 00-2.75 2.76 2.73 2.73 0 002.75 2.75 2.73 2.73 0 002.76-2.75zm-1.1 40.25v-29.7h-3.32v29.7h3.33zM260.7 429.81v-17.73c0-7.04-1.98-12.48-10.5-12.48-4.28 0-8.12 2.5-9.6 6.02v-5.5h-3.32v29.7h3.33v-14.73c0-7.04 3.07-12.6 9.47-12.6s7.23 4.92 7.23 9.72v17.6h3.4zM303.26 429.81v-17.6c0-7.87-3.58-12.6-11.84-12.6-4.48 0-8 1.72-9.92 3l1.28 2.43c.64-.5 4.16-2.56 8.77-2.56 4.67 0 8.32 2.7 8.32 8.13v1.6l-8.13.32c-8 .32-11.84 3.84-11.84 8.96 0 5.12 4.16 8.96 9.92 8.96s8.96-3.52 10.05-4.8v4.16h3.4zm-3.39-15.04v7.36c-1.4 2.24-4.6 5.44-9.4 5.44-4.8 0-7.24-2.88-7.24-6.08s1.98-5.89 8.2-6.2l8.44-.52zM361.5 423.73l-2.24-2.24c-3.2 3.52-8 5.83-14.08 5.83-10.88 0-18.56-8.13-18.56-19.65 0-11.52 7.68-19.52 18.56-19.52 6.4 0 11.52 2.94 13.76 5.82l2.24-2.56c-3.2-3.2-8.32-6.4-16-6.4-12.48 0-22.27 9.35-22.27 22.79s9.47 22.78 22.27 22.78c8 0 13.12-3.33 16.32-6.85zM402.78 423.73l-2.24-2.24c-3.2 3.52-8 5.83-14.08 5.83-10.88 0-18.56-8.13-18.56-19.65 0-11.52 7.68-19.52 18.56-19.52 6.4 0 11.52 2.94 13.76 5.82l2.24-2.56c-3.2-3.2-8.32-6.4-16-6.4-12.48 0-22.27 9.35-22.27 22.79s9.47 22.78 22.27 22.78c8 0 13.12-3.33 16.32-6.85zM445.15 407.73c0-12.99-10.11-22.08-22.85-22.08h-12.16v44.16h12.16c12.74 0 22.85-9.09 22.85-22.08zm-3.58 0c0 11.46-8.45 18.95-19.59 18.95h-8.38v-37.9h8.38c11.07 0 19.59 7.56 19.59 18.95zM483.55 421.68c0-5.63-5.57-7.55-9.28-8.83-3.65-1.28-6.85-2.62-6.85-5.7 0-3.07 2.37-4.73 5.7-4.73s5.38 1.15 7.42 3.4l2.05-2.06c-2.3-2.62-4.99-4.16-9.34-4.16s-9.03 2.56-9.03 7.94c0 5.38 5.57 7.3 8.13 8.2 2.56.89 7.87 2.23 7.87 6.07 0 3.84-3.26 5.63-6.97 5.63s-6.66-1.85-8.58-4.67l-2.37 1.92c1.86 3.07 5.32 5.76 10.82 5.76s10.43-3.2 10.43-8.77zM514.2 429.81v-17.73c0-7.04-1.98-12.48-10.49-12.48-4.29 0-8.13 2.5-9.6 6.02v-19.97h-3.33v44.16h3.33V415.1c0-7.04 3.07-12.6 9.47-12.6s7.24 4.92 7.24 9.72v17.6h3.39zM544.28 429.81v-17.6c0-7.87-3.58-12.6-11.84-12.6-4.48 0-8 1.72-9.92 3l1.28 2.43c.64-.5 4.16-2.56 8.77-2.56 4.67 0 8.32 2.7 8.32 8.13v1.6l-8.13.32c-8 .32-11.84 3.84-11.84 8.96 0 5.12 4.16 8.96 9.92 8.96s8.96-3.52 10.05-4.8v4.16h3.4zm-3.39-15.04v7.36c-1.4 2.24-4.6 5.44-9.4 5.44-4.8 0-7.24-2.88-7.24-6.08s1.99-5.89 8.2-6.2l8.44-.52zM567 403.32l.32-3.27s-1.28-.45-3.2-.45c-3.2 0-6.46 2.05-7.55 6.08v-5.56h-3.33v29.7h3.33v-16c0-4.55 1.54-11.02 7.23-11.02 1.6 0 2.5.26 3.2.52zM597.72 413.5c0-8-5.63-13.9-13.44-13.9-7.87 0-14.4 6.21-14.4 15.36 0 9.1 5.57 15.5 14.21 15.5s12.35-4.49 12.35-4.49l-1.6-2.37s-3.7 3.84-10.43 3.84c-6.72 0-10.69-4.67-11-11.7h24.12s.2-1.29.2-2.25zm-3.39-.65h-20.8c.2-4.16 3.2-10.37 10.56-10.37s10.24 6.53 10.24 10.37zM644.44 417.84c0-7.55-5.76-10.75-8.96-11.2v-.19c2.56-.64 7.68-3.2 7.68-10.24s-6.08-11.2-12.8-11.2c-6.72 0-10.3 3.2-13.12 6.72l2.24 1.92c2.56-2.88 5.44-5.57 10.56-5.57s9.6 3.01 9.6 8.45c0 5.44-3.84 8.51-9.28 8.51h-2.88v3.33h2.88c5.76 0 10.56 3.2 10.56 9.47 0 6.21-4.67 9.54-11.39 9.54-6.72 0-10.69-6.66-10.69-6.66l-2.56 2.05s4.3 7.68 13.12 7.68c8.77 0 15.04-5.12 15.04-12.6zM681.56 429.81v-3.2h-24l12.8-12.48c2.24-2.24 9.41-8.32 9.41-16.13 0-7.87-5.89-12.99-13.89-12.99s-11.84 5.76-13.44 9.28l2.56 1.6c1.28-2.88 4.48-7.8 10.88-7.8s10.37 4.28 10.37 10.04c0 5.76-4.6 10.56-7.49 13.44l-16 15.68.64 2.56h28.16zM735 429.81l-4.48-44.16h-4.03l-15.23 37.7-15.17-37.7h-3.97l-4.48 44.16h3.46l3.65-38.4 16.38 39.17h.32l16.32-39.1 3.78 38.33H735zM747.74 389.56a2.73 2.73 0 00-2.75-2.76 2.73 2.73 0 00-2.75 2.76 2.73 2.73 0 002.75 2.75 2.73 2.73 0 002.75-2.75zm-1.09 40.25v-29.7h-3.33v29.7h3.33zM784.73 417.33c0-6.08-4.16-9.92-10.36-10.94 3.96-1.15 6.97-5.19 6.97-9.67 0-4.48-1.6-6.9-4.16-8.83-2.56-1.92-5.89-2.24-10.24-2.24h-9.73v44.16h11.84c5.12 0 8.32-.64 11.01-2.88 2.75-2.24 4.67-5.12 4.67-9.6zm-3.7.2a8.27 8.27 0 01-3.85 7.35c-2.56 1.73-6.08 1.8-9.28 1.8h-7.23v-18.24h7.23c3.2 0 6.72.12 9.28 1.85 2.56 1.8 3.84 3.84 3.84 7.23zm-3.2-20.68c0 3.84-1.8 5.7-3.53 6.91-1.66 1.22-4.16 1.6-7.68 1.6h-5.95V388.8h6.6c5.56 0 10.55 1.4 10.55 8.06zM833.5 415.1c0-8.97-6.72-15.5-15.23-15.5-8.45 0-15.17 6.53-15.17 15.5 0 8.95 6.72 15.35 15.17 15.35 8.51 0 15.23-6.4 15.23-15.36zm-3.52-.14c0 6.85-4.48 12.48-11.7 12.48-7.18 0-11.66-5.63-11.66-12.48 0-6.9 4.48-12.48 11.65-12.48 7.23 0 11.71 5.57 11.71 12.48zM853.66 388.53l.32-2.88s-.96-.64-4.16-.64a7.51 7.51 0 00-6.27 3.4c-.96 1.4-1.73 3.64-1.73 7.8v4.03h-4.48v3.01h4.48v26.56h3.33v-26.56h7.55v-3h-7.55v-4.36c0-4.16.51-8 5.31-8 1.1 0 2.12.2 3.2.64zM888.86 429.81v-3.13h-15.74v-41.03h-3.46v44.16h19.2zM921.18 417.84c0-7.55-5.76-10.75-8.96-11.2v-.19c2.56-.64 7.68-3.2 7.68-10.24s-6.08-11.2-12.8-11.2c-6.72 0-10.3 3.2-13.12 6.72l2.24 1.92c2.56-2.88 5.44-5.57 10.56-5.57s9.6 3.01 9.6 8.45c0 5.44-3.84 8.51-9.28 8.51h-2.88v3.33h2.88c5.76 0 10.56 3.2 10.56 9.47 0 6.21-4.67 9.54-11.39 9.54-6.72 0-10.69-6.66-10.69-6.66l-2.56 2.05s4.3 7.68 13.12 7.68c8.77 0 15.04-5.12 15.04-12.6zM967.4 425.33l-1.93-2.24s-3.2 4.35-9.92 4.35-11.33-5.3-11.33-12.67c0-7.36 5.25-12.16 11.2-12.16 5.9 0 8.45 2.88 9.73 4.35l2.11-2.24c-.64-.83-3.84-5.12-11.7-5.12-7.82 0-14.86 6.21-14.86 15.36 0 9.1 6.53 15.5 14.53 15.5 8 0 11.07-3.85 12.16-5.13zM994.78 429.81v-17.6c0-7.87-3.58-12.6-11.84-12.6-4.48 0-8 1.72-9.92 3l1.28 2.43c.64-.5 4.16-2.56 8.77-2.56 4.67 0 8.32 2.7 8.32 8.13v1.6l-8.13.32c-8 .32-11.84 3.84-11.84 8.96 0 5.12 4.16 8.96 9.92 8.96s8.96-3.52 10.05-4.8v4.16h3.4zm-3.39-15.04v7.36c-1.4 2.24-4.6 5.44-9.4 5.44-4.8 0-7.24-2.88-7.24-6.08s1.98-5.89 8.2-6.2l8.44-.52zM1028.2 425.33l-1.93-2.24s-3.2 4.35-9.92 4.35-11.33-5.3-11.33-12.67c0-7.36 5.25-12.16 11.2-12.16 5.9 0 8.45 2.88 9.73 4.35l2.11-2.24c-.64-.83-3.84-5.12-11.7-5.12-7.82 0-14.86 6.21-14.86 15.36 0 9.1 6.53 15.5 14.53 15.5 8 0 11.07-3.85 12.16-5.13zM1057.57 429.81v-17.73c0-7.04-1.99-12.48-10.5-12.48-4.29 0-8.13 2.5-9.6 6.02v-19.97h-3.33v44.16h3.33V415.1c0-7.04 3.07-12.6 9.47-12.6s7.23 4.92 7.23 9.72v17.6h3.4zM1092.76 413.5c0-8-5.63-13.9-13.44-13.9-7.87 0-14.4 6.21-14.4 15.36 0 9.1 5.57 15.5 14.21 15.5s12.35-4.49 12.35-4.49l-1.6-2.37s-3.71 3.84-10.43 3.84-10.69-4.67-11-11.7h24.12s.2-1.29.2-2.25zm-3.39-.65h-20.8c.2-4.16 3.2-10.37 10.56-10.37s10.24 6.53 10.24 10.37z" fill-rule="nonzero"/></g></g><g><path d="M1733.82 603.65a15 15 0 1015.65 25.61 15 15 0 00-15.65-25.6z" fill="#004e8e"/><path d="M1749.32 611.77l251.57-153.59-2.26-83.87" fill="none" stroke="#004e8e" stroke-width="10" stroke-linecap="butt"/><path d="M1753 373h495.77" fill="none" stroke="#004e8e" stroke-width="10"/><g><path d="M1785.16 50h5.25l22.78 27.46c1.88 2.22 3.12 3.73 3.71 4.54.35.47 1 1.47 1.99 3 0-1.32-.07-3.3-.2-5.94-.12-2.65-.19-4.63-.19-5.96V50h6.34v45.18h-5.31l-22.6-27.32a95.31 95.31 0 01-5.75-7.88c0 1.33.05 3.1.16 5.35.1 2.24.16 3.6.16 4.06v25.8h-6.34V50zM1832.84 50h6.4v26.69c0 4.1.97 7.24 2.91 9.44 1.94 2.2 4.94 3.3 9 3.3 4.56 0 7.82-1.24 9.79-3.72 1.79-2.22 2.68-5.67 2.68-10.37V50h6.4v28.29c0 5.8-1.7 10.23-5.08 13.28-3.4 3.05-8.04 4.57-13.92 4.57-6.02 0-10.55-1.73-13.6-5.21-3.05-3.48-4.58-8.27-4.58-14.37V50zM1877.89 50h5.76l14.2 18.69L1911.95 50h5.63v45.18h-6.34v-31.3c0-.76.01-1.5.04-2.2.02-.7.11-1.48.28-2.34l-13.24 18.5h-1.1l-13.24-18.5c.21 2.14.32 4.04.32 5.7v30.14h-6.4V50zM1938.82 50h5.5l19.46 45.18h-7.17l-6.08-14.33h-16.83l-5.5 14.33h-7.04L1938.82 50zm9.15 24.96l-6.27-15.87-5.82 15.87h12.1zM1983.68 65.8h6.08v2.57a16.39 16.39 0 013.84-2.3c1.32-.56 2.7-.84 4.16-.84 4.35 0 7.34 1.45 8.96 4.35 1.2 2.14 1.8 5.6 1.8 10.37v15.23h-6.02V79.5c0-2.81-.26-4.8-.77-5.95-.81-1.79-2.46-2.69-4.93-2.69-1.2 0-2.45.32-3.78.96a15.47 15.47 0 00-3.26 2.18v21.18h-6.08V65.81zM2029.64 65.1c4.22 0 7.82 1.55 10.78 4.64a15.4 15.4 0 014.45 11.04c0 4.31-1.58 7.92-4.73 10.82a16 16 0 01-11.2 4.35c-4.06 0-7.62-1.53-10.7-4.6-3.06-3.08-4.6-6.64-4.6-10.7 0-4.52 1.54-8.24 4.6-11.16 3.08-2.92 6.88-4.39 11.4-4.39zm-.51 25.1c2.73 0 5.08-.95 7.04-2.82a9.12 9.12 0 002.94-6.85c0-2.65-.96-4.93-2.88-6.85a9.35 9.35 0 00-6.85-2.88c-2.77 0-5.15.95-7.13 2.85a9.32 9.32 0 00-2.98 7c0 2.52 1 4.74 3.01 6.66a9.64 9.64 0 006.85 2.88zM2069.06 50h6.08v45.18h-6.08l-.06-1.6a12.5 12.5 0 01-3.43 1.7c-1.34.45-2.59.67-3.74.67-4.35 0-7.72-1.56-10.11-4.67-2.18-2.82-3.27-6.46-3.27-10.94 0-4.36 1.13-7.94 3.4-10.76 2.47-3.07 5.84-4.6 10.1-4.6 1.2 0 2.37.18 3.53.54 1.15.36 2.34.89 3.58 1.57V50zm0 22.53a8.07 8.07 0 00-5.95-2.37c-2.86 0-5 1-6.43 3-1.43 2.01-2.15 4.5-2.15 7.5 0 2.73.7 5 2.11 6.84a7.66 7.66 0 006.4 3.08c.9 0 1.97-.2 3.2-.61a8.2 8.2 0 002.82-1.44v-16zM2086.98 81.36c0 2.69.86 4.83 2.6 6.43 1.72 1.6 4.01 2.4 6.87 2.4 2.1 0 4.25-.51 6.47-1.53.38-.17 1.6-.81 3.64-1.92v5.95a59.71 59.71 0 01-5.24 2.3c-1.88.64-3.78.96-5.7.96-4.52 0-8.13-1.5-10.82-4.51-2.68-3-4.03-6.82-4.03-11.42 0-3.93 1.2-7.39 3.62-10.37a11.55 11.55 0 019.44-4.48c4.44 0 7.83 1.64 10.17 4.93 2.05 2.85 3.08 6.6 3.08 11.26h-20.1zm14.2-4.42a9.34 9.34 0 00-2.36-4.64 6.08 6.08 0 00-4.54-1.76c-1.92 0-3.5.58-4.74 1.73a8.36 8.36 0 00-2.43 4.67h14.08z" fill="#004e8e" fill-rule="nonzero"/><path d="M1785.96 178.24v-3.2h-6.78V144h-3.14L1753 175.68v2.56h22.79v10.24h3.39v-10.24h6.78zm-10.17-3.2h-18.95l18.95-25.92v25.92zM1841.51 188.48v-44.16h-3.45v38.08l-29.12-38.08h-3.46v44.16h3.46v-38.72l29.44 38.72h3.13zM1883.43 170.69v-26.37h-3.45v26.69c0 3.33-.07 7.36-2.24 10.37-2.11 2.88-5.5 4.67-9.99 4.67-4.48 0-7.87-1.8-9.98-4.67-2.18-3.01-2.24-7.04-2.24-10.37v-26.69h-3.46v26.37c0 4.99.2 9.4 3.14 13.12 2.88 3.58 7.1 5.44 12.54 5.44 5.44 0 9.67-1.86 12.55-5.44 2.94-3.71 3.13-8.13 3.13-13.12zM1938.8 188.48l-4.49-44.16h-4.03l-15.23 37.7-15.17-37.7h-3.97l-4.48 44.16h3.46l3.65-38.4 16.38 39.17h.32l16.32-39.1 3.78 38.33h3.45zM1982 188.48l-18.89-44.29h-1.92l-18.88 44.29h3.65l5.5-13.25h21.06l5.44 13.25h4.03zm-10.82-16.45h-18.43l9.21-22.59 9.22 22.6zM2023.34 188.48v-17.73c0-7.04-1.99-12.48-10.5-12.48-4.29 0-8.13 2.5-9.6 6.02v-5.5h-3.33v29.69h3.33v-14.72c0-7.04 3.07-12.6 9.47-12.6s7.24 4.92 7.24 9.72v17.6h3.39zM2060.78 173.76c0-8.96-6.72-15.49-15.23-15.49-8.45 0-15.17 6.53-15.17 15.49s6.72 15.36 15.17 15.36c8.5 0 15.23-6.4 15.23-15.36zm-3.52-.13c0 6.85-4.48 12.48-11.71 12.48-7.17 0-11.65-5.63-11.65-12.48 0-6.91 4.48-12.48 11.65-12.48 7.23 0 11.7 5.57 11.7 12.48zM2065.9 173.63c0 8.77 5.76 15.49 14.72 15.49 4.48 0 8.5-1.92 11-6.14v5.5h3.4v-44.16h-3.4v20.03c-2.87-4.35-6.84-6.08-11.13-6.08-8.83 0-14.6 6.53-14.6 15.36zm3.52 0c0-6.91 4.03-12.48 11.2-12.48 7.23 0 11.2 5.57 11.2 12.48 0 6.85-3.97 12.48-11.2 12.48-7.17 0-11.2-5.63-11.2-12.48zM2130.54 172.16c0-8-5.64-13.89-13.44-13.89-7.87 0-14.4 6.21-14.4 15.36 0 9.09 5.57 15.49 14.2 15.49 8.64 0 12.36-4.48 12.36-4.48l-1.6-2.37s-3.72 3.84-10.43 3.84c-6.72 0-10.7-4.67-11.01-11.71h24.12s.2-1.28.2-2.24zm-3.4-.64h-20.8c.2-4.16 3.2-10.37 10.57-10.37 7.35 0 10.23 6.53 10.23 10.37zM2155.62 180.35c0-5.63-5.56-7.55-9.28-8.83-3.64-1.28-6.84-2.62-6.84-5.7 0-3.07 2.36-4.73 5.7-4.73 3.32 0 5.37 1.15 7.42 3.39l2.04-2.05c-2.3-2.62-4.99-4.16-9.34-4.16s-9.02 2.56-9.02 7.94c0 5.37 5.56 7.3 8.12 8.19 2.56.9 7.88 2.24 7.88 6.08s-3.27 5.63-6.98 5.63c-3.71 0-6.66-1.85-8.58-4.67l-2.36 1.92c1.85 3.07 5.3 5.76 10.81 5.76 5.5 0 10.43-3.2 10.43-8.77zM1785.64 237.76c0-8.77-5.57-15.49-14.72-15.49-4.48 0-8.57 2.05-11.07 6.27v-5.76h-3.33v41.86h3.33v-17.73c2.88 4.48 6.91 6.21 11.2 6.21 8.83 0 14.6-6.53 14.6-15.36zm-3.52 0c0 6.91-4.03 12.35-11.2 12.35-7.23 0-11.2-5.57-11.2-12.35 0-6.98 3.97-12.6 11.2-12.6 7.17 0 11.2 5.75 11.2 12.6zM1818.6 236.16c0-8-5.63-13.89-13.44-13.89-7.87 0-14.4 6.21-14.4 15.36 0 9.09 5.57 15.49 14.21 15.49s12.35-4.48 12.35-4.48l-1.6-2.37s-3.71 3.84-10.43 3.84-10.69-4.67-11-11.71h24.12s.2-1.28.2-2.24zm-3.39-.64h-20.8c.2-4.16 3.2-10.37 10.56-10.37s10.24 6.53 10.24 10.37zM1839.4 225.98l.32-3.26s-1.28-.45-3.2-.45c-3.2 0-6.46 2.05-7.55 6.08v-5.57h-3.33v29.7h3.33v-16c0-4.54 1.54-11 7.23-11 1.6 0 2.5.25 3.2.5zM1875.69 244.35c0-5.63-5.57-7.55-9.28-8.83-3.65-1.28-6.85-2.62-6.85-5.7 0-3.07 2.37-4.73 5.7-4.73s5.37 1.15 7.42 3.39l2.05-2.05c-2.3-2.62-5-4.16-9.34-4.16-4.36 0-9.03 2.56-9.03 7.94 0 5.37 5.57 7.3 8.13 8.19 2.56.9 7.87 2.24 7.87 6.08s-3.26 5.63-6.97 5.63c-3.72 0-6.66-1.85-8.58-4.67l-2.37 1.92c1.86 3.07 5.31 5.76 10.82 5.76 5.5 0 10.43-3.2 10.43-8.77zM1910.76 237.76c0-8.96-6.72-15.49-15.23-15.49-8.45 0-15.17 6.53-15.17 15.49s6.72 15.36 15.17 15.36c8.51 0 15.23-6.4 15.23-15.36zm-3.52-.13c0 6.85-4.48 12.48-11.71 12.48-7.17 0-11.65-5.63-11.65-12.48 0-6.91 4.48-12.48 11.65-12.48 7.23 0 11.71 5.57 11.71 12.48zM1942.57 248l-1.92-2.24s-3.2 4.35-9.92 4.35-11.33-5.31-11.33-12.67 5.25-12.16 11.2-12.16c5.89 0 8.45 2.88 9.73 4.35l2.11-2.24c-.64-.83-3.84-5.12-11.71-5.12-7.8 0-14.85 6.21-14.85 15.36 0 9.09 6.53 15.49 14.53 15.49 8 0 11.07-3.84 12.16-5.12zM1972.2 252.48l-14.08-18.37 12.16-11.33h-4.16l-14.27 13.38v-27.84h-3.33v44.16h3.33v-12.6l4.03-3.72 12.16 16.32h4.16zM2002.28 236.16c0-8-5.63-13.89-13.44-13.89-7.87 0-14.4 6.21-14.4 15.36 0 9.09 5.57 15.49 14.21 15.49s12.35-4.48 12.35-4.48l-1.6-2.37s-3.71 3.84-10.43 3.84-10.69-4.67-11-11.71h24.12s.2-1.28.2-2.24zm-3.4-.64h-20.79c.2-4.16 3.2-10.37 10.56-10.37s10.24 6.53 10.24 10.37zM2021.48 252.16l-.32-2.88s-1.28.83-3.2.83c-3.97 0-4.35-3.9-4.35-7.17v-17.02h7.55v-3h-7.49v-9.48h-3.39v9.47h-4.48v3.01h4.48v15.04c0 4.8.07 6.98 1.09 8.96 1.09 1.98 2.75 3.2 5.63 3.2 1.92 0 3.4-.32 4.48-.96zM2035.24 247.36h-3.84l-3.84 14.08h2.56l5.12-14.08zM2086.44 252.48v-3.2h-24l12.8-12.48c2.24-2.24 9.4-8.32 9.4-16.13 0-7.87-5.88-12.99-13.88-12.99s-11.84 5.76-13.44 9.28l2.56 1.6c1.28-2.88 4.48-7.8 10.88-7.8s10.37 4.28 10.37 10.04c0 5.76-4.6 10.56-7.49 13.44l-16 15.68.64 2.56h28.16zM2143.4 246.4l-2.24-2.24c-3.2 3.52-8 5.82-14.08 5.82-10.88 0-18.56-8.12-18.56-19.64 0-11.52 7.68-19.52 18.56-19.52 6.4 0 11.52 2.94 13.76 5.82l2.24-2.56c-3.2-3.2-8.32-6.4-16-6.4-12.48 0-22.27 9.34-22.27 22.78 0 13.44 9.47 22.79 22.27 22.79 8 0 13.12-3.33 16.32-6.85zM2184.69 246.4l-2.24-2.24c-3.2 3.52-8 5.82-14.08 5.82-10.88 0-18.56-8.12-18.56-19.64 0-11.52 7.68-19.52 18.56-19.52 6.4 0 11.52 2.94 13.76 5.82l2.24-2.56c-3.2-3.2-8.32-6.4-16-6.4-12.48 0-22.28 9.34-22.28 22.78 0 13.44 9.48 22.79 22.28 22.79 8 0 13.12-3.33 16.32-6.85zM2227.05 230.4c0-13-10.1-22.08-22.84-22.08h-12.16v44.16h12.16c12.73 0 22.84-9.09 22.84-22.08zm-3.58 0c0 11.46-8.45 18.94-19.58 18.94h-8.39v-37.88h8.39c11.07 0 19.58 7.55 19.58 18.94zM2252.97 244.35c0-5.63-5.56-7.55-9.28-8.83-3.64-1.28-6.84-2.62-6.84-5.7 0-3.07 2.36-4.73 5.7-4.73 3.32 0 5.37 1.15 7.42 3.39l2.04-2.05c-2.3-2.62-4.99-4.16-9.34-4.16s-9.02 2.56-9.02 7.94c0 5.37 5.56 7.3 8.12 8.19 2.56.9 7.88 2.24 7.88 6.08s-3.27 5.63-6.98 5.63c-3.71 0-6.66-1.85-8.58-4.67l-2.36 1.92c1.85 3.07 5.3 5.76 10.81 5.76 5.5 0 10.43-3.2 10.43-8.77zM1785.64 301.76c0-8.77-5.57-15.49-14.72-15.49-4.48 0-8.57 2.05-11.07 6.27v-5.76h-3.33v41.86h3.33v-17.73c2.88 4.48 6.91 6.21 11.2 6.21 8.83 0 14.6-6.53 14.6-15.36zm-3.52 0c0 6.91-4.03 12.35-11.2 12.35-7.23 0-11.2-5.57-11.2-12.35 0-6.98 3.97-12.6 11.2-12.6 7.17 0 11.2 5.75 11.2 12.6zM1818.6 300.16c0-8-5.63-13.89-13.44-13.89-7.87 0-14.4 6.21-14.4 15.36 0 9.09 5.57 15.49 14.21 15.49s12.35-4.48 12.35-4.48l-1.6-2.37s-3.71 3.84-10.43 3.84-10.69-4.67-11-11.71h24.12s.2-1.28.2-2.24zm-3.39-.64h-20.8c.2-4.16 3.2-10.37 10.56-10.37s10.24 6.53 10.24 10.37zM1839.4 289.98l.32-3.26s-1.28-.45-3.2-.45c-3.2 0-6.46 2.05-7.55 6.08v-5.57h-3.33v29.7h3.33v-16c0-4.54 1.54-11 7.23-11 1.6 0 2.5.25 3.2.5zM1894.31 316.48v-44.16h-3.45v38.08l-29.12-38.08h-3.46v44.16h3.46v-38.72l29.44 38.72h3.13zM1936.23 298.69v-26.37h-3.45v26.69c0 3.33-.07 7.36-2.24 10.37-2.11 2.88-5.5 4.67-9.99 4.67-4.48 0-7.87-1.8-9.98-4.67-2.18-3.01-2.24-7.04-2.24-10.37v-26.69h-3.46v26.37c0 4.99.2 9.4 3.14 13.12 2.88 3.58 7.1 5.44 12.54 5.44 5.44 0 9.67-1.86 12.55-5.44 2.94-3.71 3.13-8.13 3.13-13.12zM1991.6 316.48l-4.49-44.16h-4.03l-15.23 37.7-15.17-37.7h-3.97l-4.48 44.16h3.46l3.65-38.4 16.38 39.17h.32l16.32-39.1 3.78 38.33h3.45zM2034.8 316.48l-18.89-44.29H2014l-18.88 44.29h3.65l5.5-13.25h21.06l5.44 13.25h4.03zm-10.82-16.45h-18.43l9.21-22.59 9.22 22.6zM2076.14 316.48v-17.73c0-7.04-1.99-12.48-10.5-12.48-4.29 0-8.13 2.5-9.6 6.02v-5.5h-3.33v29.69h3.33v-14.72c0-7.04 3.07-12.6 9.47-12.6s7.24 4.92 7.24 9.72v17.6h3.39zM2113.58 301.76c0-8.96-6.72-15.49-15.23-15.49-8.45 0-15.17 6.53-15.17 15.49s6.72 15.36 15.17 15.36c8.5 0 15.23-6.4 15.23-15.36zm-3.52-.13c0 6.85-4.48 12.48-11.71 12.48-7.17 0-11.65-5.63-11.65-12.48 0-6.91 4.48-12.48 11.65-12.48 7.23 0 11.7 5.57 11.7 12.48zM2118.7 301.63c0 8.77 5.76 15.49 14.72 15.49 4.48 0 8.5-1.92 11-6.14v5.5h3.4v-44.16h-3.4v20.03c-2.88-4.35-6.84-6.08-11.13-6.08-8.83 0-14.6 6.53-14.6 15.36zm3.52 0c0-6.91 4.03-12.48 11.2-12.48 7.23 0 11.2 5.57 11.2 12.48 0 6.85-3.97 12.48-11.2 12.48-7.17 0-11.2-5.63-11.2-12.48zM2183.34 300.16c0-8-5.64-13.89-13.44-13.89-7.88 0-14.4 6.21-14.4 15.36 0 9.09 5.56 15.49 14.2 15.49s12.36-4.48 12.36-4.48l-1.6-2.37s-3.72 3.84-10.44 3.84c-6.72 0-10.68-4.67-11-11.71h24.12s.2-1.28.2-2.24zm-3.4-.64h-20.8c.2-4.16 3.2-10.37 10.56-10.37s10.24 6.53 10.24 10.37z" fill-rule="nonzero"/></g></g><g><path d="M1646.35 980.78a15 15 0 10-15 26 15 15 0 0015-26z" fill="#004e8e"/><path d="M1646.64 998.27l256.34 148v128" fill="none" stroke="#004e8e" stroke-width="10" stroke-linecap="butt"/><path d="M1670.72 1274.27h464.53" fill="none" stroke="#004e8e" stroke-width="10"/><g><path fill="#004e8e" fill-rule="nonzero" d="M1674.41 1303.27h6.34v45.18h-6.34zM1699.69 1303.27h5.25l-15.04 45.18h-5.25l15.04-45.18zM1728.55 1302.38c6.96 0 12.71 2.28 17.28 6.85 4.57 4.56 6.85 10.3 6.85 17.21 0 6.32-2.35 11.72-7.04 16.2a23.22 23.22 0 01-16.58 6.72 24.22 24.22 0 01-17.12-6.66 21.67 21.67 0 01-7.13-16.51c0-6.74 2.26-12.4 6.78-16.96 4.52-4.57 10.18-6.85 16.96-6.85zm.58 40.7c4.6 0 8.6-1.66 11.96-4.99a16.22 16.22 0 005.06-11.97c0-4.9-1.65-9.03-4.96-12.38a16.54 16.54 0 00-12.26-5.02c-4.82 0-8.95 1.65-12.38 4.96a16.19 16.19 0 00-5.15 12.12c0 4.83 1.74 8.91 5.21 12.26a17.4 17.4 0 0012.52 5.02zM1775.78 1303.27h12.86c7.6 0 13.72 1.69 18.37 5.06 5.25 3.8 7.87 9.38 7.87 16.76 0 6.4-1.72 11.64-5.18 15.72-3.46 4.07-8.32 6.47-14.6 7.2a86.13 86.13 0 01-10.23.44h-9.09v-45.18zm14.46 39.1c5.38 0 9.65-1.34 12.8-4.03 3.42-2.9 5.12-6.97 5.12-12.22 0-5.33-1.55-9.43-4.67-12.29-3.11-2.86-7.36-4.29-12.73-4.29h-8.58v32.83h8.06zM1821.86 1319.08h6.08v29.38h-6.08v-29.38zm3.14-10.43c1.02 0 1.86.37 2.52 1.12.66.74 1 1.63 1 2.65 0 1.11-.39 1.99-1.16 2.63-.76.64-1.7.96-2.81.96-.98 0-1.8-.35-2.47-1.06-.66-.7-.99-1.57-.99-2.59a3.5 3.5 0 011.12-2.66 3.9 3.9 0 012.79-1.05zM1839.21 1334.63c0 2.69.86 4.83 2.6 6.43 1.72 1.6 4.01 2.4 6.87 2.4 2.1 0 4.25-.51 6.47-1.53.38-.17 1.6-.81 3.64-1.92v5.95a59.58 59.58 0 01-5.24 2.3c-1.88.64-3.78.96-5.7.96-4.52 0-8.13-1.5-10.82-4.51-2.68-3-4.03-6.82-4.03-11.42 0-3.93 1.2-7.38 3.62-10.37a11.56 11.56 0 019.44-4.48c4.44 0 7.83 1.64 10.17 4.93 2.05 2.86 3.08 6.6 3.08 11.26h-20.1zm14.2-4.42a9.34 9.34 0 00-2.36-4.64 6.08 6.08 0 00-4.54-1.76c-1.92 0-3.5.58-4.74 1.73a8.37 8.37 0 00-2.43 4.67h14.08z"/><path d="M1722.07 1441.56l-4.48-44.16h-4.03l-15.23 37.7-15.17-37.7h-3.97l-4.48 44.16h3.46l3.65-38.4 16.38 39.17h.32l16.32-39.1 3.78 38.33h3.45zM1755.67 1425.24c0-8-5.63-13.89-13.44-13.89-7.87 0-14.4 6.21-14.4 15.36 0 9.09 5.57 15.49 14.21 15.49s12.35-4.48 12.35-4.48l-1.6-2.37s-3.71 3.84-10.43 3.84-10.69-4.67-11-11.71h24.12s.2-1.28.2-2.24zm-3.39-.64h-20.8c.2-4.16 3.2-10.37 10.56-10.37s10.24 6.53 10.24 10.37zM1803.16 1441.56v-18.05c0-5.95-1.73-12.16-9.92-12.16-3.97 0-7.49 2.37-9.4 6.21-1.29-3.84-4.17-6.2-8.84-6.2-3.97 0-7.74 2.74-8.96 6v-5.5h-3.33v29.7h3.33v-15.49c0-6.27 3.07-11.84 8.83-11.84 5.12 0 6.4 4.29 6.4 9.28v18.05h3.33v-15.49c0-6.27 3.07-11.84 8.83-11.84s6.4 5.57 6.4 9.28v18.05h3.33zM1840.6 1426.84c0-8.96-6.72-15.49-15.23-15.49-8.45 0-15.17 6.53-15.17 15.49s6.72 15.36 15.17 15.36c8.51 0 15.23-6.4 15.23-15.36zm-3.52-.13c0 6.85-4.48 12.48-11.71 12.48-7.17 0-11.65-5.63-11.65-12.48 0-6.91 4.48-12.48 11.65-12.48 7.23 0 11.71 5.57 11.71 12.48zM1861.72 1415.06l.32-3.26s-1.28-.45-3.2-.45c-3.2 0-6.46 2.05-7.55 6.08v-5.57h-3.33v29.7h3.33v-16c0-4.54 1.53-11 7.23-11 1.6 0 2.5.25 3.2.5zM1890.2 1411.86h-3.52l-10.24 25.86-10.24-25.86h-3.52l11.97 29.25-1.73 4.93c-1.4 4.03-2.62 4.67-4.42 4.67-1.79 0-2.94-.64-2.94-.64l-.64 3.2s1.54.77 3.58.77c2.05 0 4.61-.64 6.66-5.57l15.04-36.6zM1932.25 1437.08l-1.92-2.24s-3.2 4.35-9.92 4.35-11.33-5.31-11.33-12.67 5.25-12.16 11.2-12.16c5.89 0 8.45 2.88 9.73 4.35l2.1-2.24c-.63-.83-3.83-5.12-11.7-5.12-7.81 0-14.85 6.21-14.85 15.36 0 9.09 6.53 15.49 14.53 15.49 8 0 11.07-3.84 12.16-5.12zM1966.04 1426.84c0-8.96-6.72-15.49-15.23-15.49-8.45 0-15.17 6.53-15.17 15.49s6.72 15.36 15.17 15.36c8.5 0 15.23-6.4 15.23-15.36zm-3.52-.13c0 6.85-4.48 12.48-11.71 12.48-7.17 0-11.65-5.63-11.65-12.48 0-6.91 4.48-12.48 11.65-12.48 7.23 0 11.7 5.57 11.7 12.48zM1996.82 1441.56v-17.73c0-7.04-1.98-12.48-10.5-12.48-4.28 0-8.12 2.5-9.6 6.02v-5.5h-3.32v29.69h3.33v-14.72c0-7.04 3.07-12.6 9.47-12.6s7.23 4.92 7.23 9.72v17.6h3.4zM2018.26 1441.24l-.32-2.88s-1.28.83-3.2.83c-3.96 0-4.35-3.9-4.35-7.17V1415h7.55v-3h-7.48v-9.48h-3.4v9.47h-4.48v3.01h4.48v15.04c0 4.8.07 6.98 1.1 8.96 1.08 1.98 2.74 3.2 5.62 3.2 1.92 0 3.4-.32 4.48-.96zM2037.78 1415.06l.32-3.26s-1.28-.45-3.2-.45c-3.2 0-6.46 2.05-7.55 6.08v-5.57h-3.33v29.7h3.33v-16c0-4.54 1.54-11 7.23-11 1.6 0 2.5.25 3.2.5zM2071.06 1426.84c0-8.96-6.72-15.49-15.23-15.49-8.45 0-15.17 6.53-15.17 15.49s6.72 15.36 15.17 15.36c8.51 0 15.23-6.4 15.23-15.36zm-3.52-.13c0 6.85-4.48 12.48-11.7 12.48-7.18 0-11.66-5.63-11.66-12.48 0-6.91 4.48-12.48 11.65-12.48 7.23 0 11.71 5.57 11.71 12.48zM2078.75 1397.4h3.2v44.16h-3.2zM2092.32 1397.4h3.2v44.16h-3.2zM2131.16 1425.24c0-8-5.64-13.89-13.44-13.89-7.88 0-14.4 6.21-14.4 15.36 0 9.09 5.56 15.49 14.2 15.49s12.36-4.48 12.36-4.48l-1.6-2.37s-3.72 3.84-10.44 3.84c-6.72 0-10.68-4.67-11-11.71h24.12s.2-1.28.2-2.24zm-3.4-.64h-20.8c.2-4.16 3.2-10.37 10.56-10.37s10.24 6.53 10.24 10.37zM2151.96 1415.06l.32-3.26s-1.28-.45-3.2-.45c-3.2 0-6.47 2.05-7.56 6.08v-5.57h-3.32v29.7h3.32v-16c0-4.54 1.54-11 7.24-11 1.6 0 2.5.25 3.2.5zM2159.64 1436.44h-3.84l-3.84 14.08h2.56l5.12-14.08zM1694.36 1497.43c0-5.63-5.57-7.55-9.28-8.83-3.65-1.28-6.85-2.62-6.85-5.7 0-3.07 2.37-4.73 5.7-4.73s5.37 1.15 7.42 3.39l2.05-2.05c-2.3-2.62-5-4.16-9.34-4.16-4.36 0-9.03 2.56-9.03 7.94 0 5.37 5.57 7.3 8.13 8.19 2.56.9 7.87 2.24 7.87 6.08s-3.26 5.63-6.97 5.63c-3.72 0-6.66-1.85-8.58-4.67l-2.37 1.92c1.86 3.07 5.31 5.76 10.82 5.76 5.5 0 10.43-3.2 10.43-8.77zM1726.87 1489.24c0-8-5.63-13.89-13.44-13.89-7.87 0-14.4 6.21-14.4 15.36 0 9.09 5.57 15.49 14.21 15.49s12.35-4.48 12.35-4.48l-1.6-2.37s-3.71 3.84-10.43 3.84-10.69-4.67-11-11.71h24.12s.2-1.28.2-2.24zm-3.39-.64h-20.8c.2-4.16 3.2-10.37 10.56-10.37s10.24 6.53 10.24 10.37zM1758.68 1501.08l-1.92-2.24s-3.2 4.35-9.92 4.35-11.33-5.31-11.33-12.67 5.25-12.16 11.2-12.16c5.89 0 8.45 2.88 9.73 4.35l2.11-2.24c-.64-.83-3.84-5.12-11.71-5.12-7.8 0-14.85 6.21-14.85 15.36 0 9.09 6.53 15.49 14.53 15.49 8 0 11.07-3.84 12.16-5.12zM1787.16 1505.56v-29.7h-3.33v15.94c0 5.76-2.56 11.52-9.15 11.52-6.53 0-7.36-4.8-7.36-9.28v-18.18h-3.33v17.67c0 7.3 2.05 12.67 10.24 12.67 4.16 0 7.68-1.92 9.6-5.44v4.8h3.33zM1810.52 1479.06l.32-3.26s-1.28-.45-3.2-.45c-3.2 0-6.46 2.05-7.55 6.08v-5.57h-3.33v29.7h3.33v-16c0-4.54 1.53-11 7.23-11 1.6 0 2.5.25 3.2.5zM1820.7 1465.3a2.73 2.73 0 00-2.76-2.75 2.73 2.73 0 00-2.75 2.75 2.73 2.73 0 002.75 2.76 2.73 2.73 0 002.76-2.76zm-1.1 40.26v-29.7h-3.32v29.7h3.33zM1841.69 1505.24l-.32-2.88s-1.28.83-3.2.83c-3.97 0-4.35-3.9-4.35-7.17V1479h7.55v-3h-7.49v-9.48h-3.4v9.47h-4.47v3.01h4.48v15.04c0 4.8.06 6.98 1.09 8.96 1.08 1.98 2.75 3.2 5.63 3.2 1.92 0 3.39-.32 4.48-.96zM1870.49 1475.86h-3.52l-10.24 25.86-10.24-25.86h-3.52l11.97 29.25-1.73 4.93c-1.41 4.03-2.63 4.67-4.42 4.67s-2.94-.64-2.94-.64l-.64 3.2s1.53.77 3.58.77 4.61-.64 6.66-5.57l15.04-36.6zM1900.89 1464.28l.32-2.88s-.96-.64-4.16-.64a7.51 7.51 0 00-6.27 3.4c-.96 1.4-1.73 3.64-1.73 7.8v4.03h-4.48v3.01h4.48v26.56h3.33V1479h7.55v-3h-7.55v-4.36c0-4.16.5-8 5.3-8 1.1 0 2.12.2 3.2.64zM1928.92 1489.24c0-8-5.63-13.89-13.44-13.89-7.87 0-14.4 6.21-14.4 15.36 0 9.09 5.57 15.49 14.2 15.49 8.65 0 12.36-4.48 12.36-4.48l-1.6-2.37s-3.71 3.84-10.43 3.84-10.69-4.67-11.01-11.71h24.13s.19-1.28.19-2.24zm-3.4-.64h-20.8c.2-4.16 3.2-10.37 10.57-10.37 7.36 0 10.24 6.53 10.24 10.37zM1957.08 1505.56v-17.6c0-7.87-3.58-12.6-11.84-12.6-4.48 0-8 1.72-9.92 3l1.28 2.43c.64-.51 4.16-2.56 8.77-2.56 4.67 0 8.32 2.69 8.32 8.13v1.6l-8.13.32c-8 .32-11.84 3.84-11.84 8.96 0 5.12 4.16 8.96 9.92 8.96s8.96-3.52 10.05-4.8v4.16h3.39zm-3.4-15.04v7.36c-1.4 2.24-4.6 5.44-9.4 5.44-4.8 0-7.23-2.88-7.23-6.08s1.98-5.89 8.19-6.2l8.45-.52zM1978.2 1505.24l-.32-2.88s-1.28.83-3.2.83c-3.97 0-4.35-3.9-4.35-7.17V1479h7.55v-3h-7.49v-9.48h-3.4v9.47h-4.47v3.01h4.48v15.04c0 4.8.06 6.98 1.09 8.96 1.09 1.98 2.75 3.2 5.63 3.2 1.92 0 3.4-.32 4.48-.96zM2006.8 1505.56v-29.7h-3.32v15.94c0 5.76-2.56 11.52-9.15 11.52-6.53 0-7.36-4.8-7.36-9.28v-18.18h-3.33v17.67c0 7.3 2.05 12.67 10.24 12.67 4.16 0 7.68-1.92 9.6-5.44v4.8h3.33zM2030.17 1479.06l.32-3.26s-1.28-.45-3.2-.45c-3.2 0-6.47 2.05-7.55 6.08v-5.57h-3.33v29.7h3.33v-16c0-4.54 1.53-11 7.23-11 1.6 0 2.5.25 3.2.5zM2060.89 1489.24c0-8-5.64-13.89-13.44-13.89-7.88 0-14.4 6.21-14.4 15.36 0 9.09 5.56 15.49 14.2 15.49s12.36-4.48 12.36-4.48l-1.6-2.37s-3.72 3.84-10.44 3.84c-6.72 0-10.68-4.67-11-11.71h24.12s.2-1.28.2-2.24zm-3.4-.64h-20.8c.2-4.16 3.2-10.37 10.56-10.37s10.24 6.53 10.24 10.37zM2085.97 1497.43c0-5.63-5.56-7.55-9.28-8.83-3.64-1.28-6.84-2.62-6.84-5.7 0-3.07 2.36-4.73 5.7-4.73 3.32 0 5.37 1.15 7.42 3.39l2.04-2.05c-2.3-2.62-4.99-4.16-9.34-4.16s-9.02 2.56-9.02 7.94c0 5.37 5.56 7.3 8.12 8.19 2.56.9 7.88 2.24 7.88 6.08s-3.27 5.63-6.98 5.63c-3.71 0-6.66-1.85-8.58-4.67l-2.36 1.92c1.85 3.07 5.3 5.76 10.81 5.76 5.5 0 10.43-3.2 10.43-8.77zM2100.89 1500.44h-3.84l-3.84 14.08h2.56l5.12-14.08zM1701.27 1537.18c0-3.84-1.47-6.47-4.03-8.7-2.56-2.25-6.02-3.08-10.18-3.08h-10.1v44.16h3.45v-20.6h6.65c4.16 0 7.62-.84 10.18-3.08 2.56-2.24 4.03-4.86 4.03-8.7zm-3.65 0c0 6.27-4.86 8.64-10.43 8.64h-6.78v-17.28h6.78c5.57 0 10.43 2.36 10.43 8.64zM1744.47 1563.48l-2.24-2.24c-3.2 3.52-8 5.82-14.08 5.82-10.88 0-18.56-8.12-18.56-19.64 0-11.52 7.68-19.52 18.56-19.52 6.4 0 11.52 2.94 13.76 5.82l2.24-2.56c-3.2-3.2-8.32-6.4-16-6.4-12.48 0-22.27 9.34-22.27 22.78 0 13.44 9.47 22.79 22.27 22.79 8 0 13.12-3.33 16.32-6.85zM1752.15 1525.4h3.2v44.16h-3.2zM1791.13 1553.24c0-8-5.63-13.89-13.44-13.89-7.87 0-14.4 6.21-14.4 15.36 0 9.09 5.57 15.49 14.2 15.49 8.65 0 12.36-4.48 12.36-4.48l-1.6-2.37s-3.71 3.84-10.43 3.84-10.7-4.67-11.01-11.71h24.13s.19-1.28.19-2.24zm-3.4-.64h-20.8c.2-4.16 3.2-10.37 10.57-10.37 7.36 0 10.24 6.53 10.24 10.37zM1831.45 1569.56v-17.6c0-7.87-3.59-12.6-11.84-12.6-4.48 0-8 1.72-9.92 3l1.28 2.43c.64-.51 4.16-2.56 8.77-2.56 4.67 0 8.32 2.69 8.32 8.13v1.6l-8.13.32c-8 .32-11.84 3.84-11.84 8.96 0 5.12 4.16 8.96 9.92 8.96s8.96-3.52 10.05-4.8v4.16h3.39zm-3.4-15.04v7.36c-1.4 2.24-4.6 5.44-9.4 5.44-4.8 0-7.23-2.88-7.23-6.08s1.98-5.89 8.19-6.2l8.45-.52zM1863.83 1569.56v-17.73c0-7.04-1.98-12.48-10.5-12.48-4.28 0-8.12 2.5-9.6 6.02v-5.5h-3.32v29.69h3.33v-14.72c0-7.04 3.07-12.6 9.47-12.6s7.23 4.92 7.23 9.72v17.6h3.4zM1870.87 1554.71c0 8.77 5.76 15.49 14.72 15.49 4.48 0 8.51-1.92 11.01-6.14v5.5h3.4v-44.16h-3.4v20.03c-2.88-4.35-6.85-6.08-11.14-6.08-8.83 0-14.59 6.53-14.59 15.36zm3.52 0c0-6.91 4.03-12.48 11.2-12.48 7.23 0 11.2 5.57 11.2 12.48 0 6.85-3.97 12.48-11.2 12.48-7.17 0-11.2-5.63-11.2-12.48zM1923.67 1525.4h3.2v44.16h-3.2zM1960.47 1569.56v-17.73c0-7.04-1.98-12.48-10.5-12.48-4.28 0-8.12 2.5-9.6 6.02v-5.5h-3.32v29.69h3.33v-14.72c0-7.04 3.07-12.6 9.47-12.6s7.23 4.92 7.23 9.72v17.6h3.4zM1990.36 1529.3a2.73 2.73 0 00-2.75-2.75 2.73 2.73 0 00-2.75 2.75 2.73 2.73 0 002.75 2.76 2.73 2.73 0 002.75-2.76zm-1.02 40.26v-29.7h-3.4v29.7h3.4zm-6.79-41.28l.32-2.88s-.96-.64-4.16-.64a7.51 7.51 0 00-6.27 3.4c-.96 1.4-1.73 3.64-1.73 7.8v4.03h-4.48v3.01h4.48v26.56h3.33V1543h7.55v-3h-7.55v-4.36c0-4.16.51-8 5.31-8 1.09 0 2.11.2 3.2.64zM2022.62 1569.56v-17.73c0-7.04-1.99-12.48-10.5-12.48-4.29 0-8.13 2.5-9.6 6.02v-5.5h-3.33v29.69h3.33v-14.72c0-7.04 3.07-12.6 9.47-12.6s7.23 4.92 7.23 9.72v17.6h3.4zM2036.63 1529.3a2.73 2.73 0 00-2.75-2.75 2.73 2.73 0 00-2.75 2.75 2.73 2.73 0 002.75 2.76 2.73 2.73 0 002.75-2.76zm-1.09 40.26v-29.7h-3.32v29.7h3.32zM2057.63 1569.24l-.32-2.88s-1.28.83-3.2.83c-3.97 0-4.36-3.9-4.36-7.17V1543h7.56v-3h-7.5v-9.48h-3.38v9.47h-4.48v3.01h4.48v15.04c0 4.8.06 6.98 1.08 8.96 1.1 1.98 2.76 3.2 5.64 3.2 1.92 0 3.39-.32 4.48-.96zM2086.43 1539.86h-3.52l-10.24 25.86-10.24-25.86h-3.52l11.96 29.25-1.72 4.93c-1.41 4.03-2.63 4.67-4.42 4.67-1.8 0-2.94-.64-2.94-.64l-.64 3.2s1.53.77 3.58.77 4.6-.64 6.66-5.57l15.04-36.6zM1699.35 1592.54v-3.14h-22.4v44.16h3.46v-20.54h17.79v-3.14h-17.8v-17.34h18.95zM1728.47 1633.56v-17.6c0-7.87-3.58-12.6-11.84-12.6-4.48 0-8 1.72-9.92 3l1.28 2.44c.64-.52 4.16-2.56 8.77-2.56 4.67 0 8.32 2.68 8.32 8.12v1.6l-8.13.32c-8 .32-11.84 3.84-11.84 8.96 0 5.12 4.16 8.96 9.92 8.96s8.96-3.52 10.05-4.8v4.16h3.4zm-3.39-15.04v7.36c-1.4 2.24-4.6 5.44-9.4 5.44-4.8 0-7.24-2.88-7.24-6.08s1.98-5.88 8.2-6.2l8.44-.52zM1766.87 1618.72c0-8.84-5.76-15.36-14.59-15.36-4.29 0-8.32 1.72-11.2 6.2v-20.16h-3.33v44.16h3.33v-5.63c2.5 4.35 6.6 6.27 11.07 6.27 8.96 0 14.72-6.72 14.72-15.48zm-3.52 0c0 6.84-4.03 12.48-11.2 12.48-7.23 0-11.2-5.64-11.2-12.48 0-6.92 3.97-12.48 11.2-12.48 7.17 0 11.2 5.56 11.2 12.48zM1788 1607.07l.31-3.27s-1.28-.44-3.2-.44c-3.2 0-6.46 2.04-7.55 6.08v-5.57h-3.33v29.7h3.33v-16c0-4.55 1.54-11.01 7.23-11.01 1.6 0 2.5.25 3.2.5zM1798.17 1593.3a2.73 2.73 0 00-2.75-2.74 2.73 2.73 0 00-2.76 2.75 2.73 2.73 0 002.76 2.75 2.73 2.73 0 002.75-2.75zm-1.09 40.26v-29.7h-3.33v29.7h3.33zM1831.45 1629.08l-1.92-2.24s-3.2 4.36-9.92 4.36-11.33-5.32-11.33-12.68c0-7.36 5.25-12.16 11.2-12.16 5.89 0 8.45 2.88 9.73 4.36l2.11-2.24c-.64-.84-3.84-5.12-11.71-5.12-7.81 0-14.85 6.2-14.85 15.36 0 9.08 6.53 15.48 14.53 15.48 8 0 11.07-3.84 12.16-5.12zM1850.2 1589.4h3.2v44.16h-3.2zM1868.18 1593.3a2.73 2.73 0 00-2.75-2.74 2.73 2.73 0 00-2.75 2.75 2.73 2.73 0 002.75 2.75 2.73 2.73 0 002.75-2.75zm-1.08 40.26v-29.7h-3.33v29.7h3.33zM1900.44 1633.56v-17.72c0-7.04-1.98-12.48-10.5-12.48-4.28 0-8.12 2.5-9.6 6.01v-5.5h-3.32v29.7h3.32v-14.73c0-7.04 3.08-12.6 9.48-12.6s7.23 4.92 7.23 9.72v17.6h3.39zM1933.72 1633.56l-14.08-18.36 12.16-11.33h-4.16l-14.27 13.37v-27.84h-3.33v44.16h3.33v-12.6l4.03-3.72 12.16 16.32h4.16zM1956.25 1625.44c0-5.64-5.57-7.56-9.28-8.84-3.65-1.28-6.85-2.62-6.85-5.7 0-3.06 2.37-4.73 5.7-4.73 3.32 0 5.37 1.15 7.42 3.4l2.05-2.05c-2.3-2.63-5-4.16-9.35-4.16s-9.02 2.56-9.02 7.93c0 5.38 5.57 7.3 8.13 8.2 2.56.89 7.87 2.23 7.87 6.07 0 3.84-3.26 5.64-6.98 5.64-3.7 0-6.65-1.86-8.57-4.68l-2.37 1.92c1.86 3.08 5.31 5.76 10.82 5.76 5.5 0 10.43-3.2 10.43-8.76z" fill-rule="nonzero"/></g></g></svg>