<svg version="1.1" xmlns="http://www.w3.org/2000/svg" xmlns:xlink="http://www.w3.org/1999/xlink" width="1296" height="1092"><defs/><g><g/><g/><g/><g/><g/><g/><g/><g/><g/><g/><g/><g/><g/><g/><g/><g/><g/><g/><g/><g/><g/><g/><g/><g/><g/><g/><g/><g/><g/><g/><g/><g/><g/><g><rect fill="white" stroke="none" x="0" y="0" width="1296" height="1092"/></g><g><g><path fill="lightgreen" stroke="black" paint-order="fill stroke markers" d=" M 255.45738786176753 58.505158896000005 L 513.1680873387627 58.505158896000005 L 513.1680873387627 1085.4365626619997 L 255.45738786176753 1085.4365626619997 L 255.45738786176753 58.505158896000005" stroke-miterlimit="10" stroke-width="1.2565541" stroke-dasharray=""/></g><g><text fill="black" stroke="none" font-family="sans-serif" font-size="11pt" font-style="normal" font-weight="bold" text-decoration="normal" x="349.37940324967917" y="79.615267776" text-anchor="start" dominant-baseline="alphabetic" xml:space="preserve"> UCloud</text><text fill="black" stroke="none" font-family="sans-serif" font-size="11pt" font-style="normal" font-weight="bold" text-decoration="normal" x="349.37940324967917" y="94.693916976" text-anchor="start" dominant-baseline="alphabetic" xml:space="preserve">Network</text></g><g><path fill="lightblue" stroke="black" paint-order="fill stroke markers" d=" M 557.7089693567626 23.824265736 L 1289.434617640995 23.824265736 L 1289.434617640995 1085.4365626619997 L 557.7089693567626 1085.4365626619997 L 557.7089693567626 23.824265736" stroke-miterlimit="10" stroke-width="1.2565541" stroke-dasharray=""/></g><g><text fill="black" stroke="none" font-family="sans-serif" font-size="11pt" font-style="normal" font-weight="bold" text-decoration="normal" x="888.3967942618183" y="44.934374616" text-anchor="start" dominant-baseline="alphabetic" xml:space="preserve">Provider</text><text fill="black" stroke="none" font-family="sans-serif" font-size="11pt" font-style="normal" font-weight="bold" text-decoration="normal" x="888.3967942618183" y="60.013023816" text-anchor="start" dominant-baseline="alphabetic" xml:space="preserve">Network</text></g><g><path fill="lightyellow" stroke="black" paint-order="fill stroke markers" d=" M 565.2482939567626 73.58380809600001 L 880.8839945781668 73.58380809600001 L 880.8839945781668 1085.4365626619997 L 565.2482939567626 1085.4365626619997 L 565.2482939567626 73.58380809600001" stroke-miterlimit="10" stroke-width="1.2565541" stroke-dasharray=""/></g><g><text fill="black" stroke="none" font-family="sans-serif" font-size="11pt" font-style="normal" font-weight="bold" text-decoration="normal" x="651.9994786180507" y="94.69391697600001" text-anchor="start" dominant-baseline="alphabetic" xml:space="preserve">New components</text></g><g><path fill="pink" stroke="black" paint-order="fill stroke markers" d=" M 895.9626437781668 104.19346597200001 L 1281.895293040995 104.19346597200001 L 1281.895293040995 1085.4365626619997 L 895.9626437781668 1085.4365626619997 L 895.9626437781668 104.19346597200001" stroke-miterlimit="10" stroke-width="1.2565541" stroke-dasharray=""/></g><g><text fill="black" stroke="none" font-family="sans-serif" font-size="11pt" font-style="normal" font-weight="bold" text-decoration="normal" x="1002.6289653578231" y="125.30357485200001" text-anchor="start" dominant-baseline="alphabetic" xml:space="preserve">Existing components</text></g></g><g><path fill="none" stroke="black" paint-order="fill stroke markers" d=" M 52.930991012353516 180.71761066200003 L 52.930991012353516 1085.4365626619997" stroke-miterlimit="10" stroke-width="1.2565541" stroke-dasharray="11.598960923076923,5.0262164"/><path fill="none" stroke="black" paint-order="fill stroke markers" d=" M 305.69038081288375 180.71761066200003 L 305.69038081288375 1085.4365626619997" stroke-miterlimit="10" stroke-width="1.2565541" stroke-dasharray="11.598960923076923,5.0262164"/><path fill="none" stroke="black" paint-order="fill stroke markers" d=" M 466.27876426464155 180.71761066200003 L 466.27876426464155 1085.4365626619997" stroke-miterlimit="10" stroke-width="1.2565541" stroke-dasharray="11.598960923076923,5.0262164"/><path fill="none" stroke="black" paint-order="fill stroke markers" d=" M 658.6062888152275 180.71761066200003 L 658.6062888152275 1085.4365626619997" stroke-miterlimit="10" stroke-width="1.2565541" stroke-dasharray="11.598960923076923,5.0262164"/><path fill="none" stroke="black" paint-order="fill stroke markers" d=" M 819.8946692152274 180.71761066200003 L 819.8946692152274 1085.4365626619997" stroke-miterlimit="10" stroke-width="1.2565541" stroke-dasharray="11.598960923076923,5.0262164"/><path fill="none" stroke="black" paint-order="fill stroke markers" d=" M 1088.9289684095809 180.71761066200003 L 1088.9289684095809 1085.4365626619997" stroke-miterlimit="10" stroke-width="1.2565541" stroke-dasharray="11.598960923076923,5.0262164"/></g><g><g><path fill="white" stroke="black" paint-order="fill stroke markers" d=" M 61.525821056353514 101.85627534600002 A 8.594830044 8.594830044 0 1 1 61.52581675893885 101.84768051738848 M 52.930991012353516 110.45110539000001 L 52.930991012353516 128.847057414 M 42.07436358835351 117.08571103800001 L 63.78761843635352 117.08571103800001 M 52.930991012353516 128.847057414 L 42.07436358835351 146.03671750200002 M 52.930991012353516 128.847057414 L 63.78761843635352 146.03671750200002" stroke-miterlimit="10" stroke-width="2.5633703640000003" stroke-dasharray=""/></g><g><text fill="black" stroke="none" font-family="sans-serif" font-size="11pt" font-style="normal" font-weight="normal" text-decoration="normal" x="7.5393246000000005" y="161.11536670200002" text-anchor="start" dominant-baseline="alphabetic" xml:space="preserve">UCloud User</text><text fill="black" stroke="none" font-family="sans-serif" font-size="11pt" font-style="normal" font-weight="normal" text-decoration="normal" x="10.464323837060547" y="176.19401590200002" text-anchor="start" dominant-baseline="alphabetic" xml:space="preserve">Alice#1234</text></g><path fill="none" stroke="none"/><g><path fill="white" stroke="black" paint-order="fill stroke markers" d=" M 262.9967124617675 140.15604431400004 L 348.3840491639999 140.15604431400004 L 348.3840491639999 180.71761066200003 L 262.9967124617675 180.71761066200003 L 262.9967124617675 140.15604431400004 Z" stroke-miterlimit="10" stroke-width="2.4125838720000004" stroke-dasharray=""/></g><g><text fill="black" stroke="none" font-family="sans-serif" font-size="11pt" font-style="normal" font-weight="normal" text-decoration="normal" x="279.35704684376753" y="165.63896146200003" text-anchor="start" dominant-baseline="alphabetic" xml:space="preserve">UCloud</text></g><g><path fill="white" stroke="black" paint-order="fill stroke markers" d=" M 444.2639364326416 151.16345823 L 444.2639364326416 119.49829491000001 L 488.29359209664153 119.49829491000001 L 488.29359209664153 151.16345823" stroke-miterlimit="10" stroke-width="2.5633703640000003" stroke-dasharray=""/><path fill="white" stroke="black" paint-order="fill stroke markers" d=" M 488.29359209664153 118.39755351840002 L 488.29249136442274 118.4970709444769 L 488.2891892778387 118.5965784188941 L 488.2836861670953 118.69606599098711 L 488.275982582499 118.79552371208162 L 488.2660792944019 118.8949416364884 L 488.25397729312454 118.99430982249787 L 488.2396777888569 119.09361833337421 L 488.22318221153756 119.19285723834912 L 488.20449221071044 119.29201661361478 L 488.18360965536016 119.39108654331629 L 488.16053663372475 119.49005712054326 L 488.1352754530872 119.58891844832043 L 488.1078286395445 119.68766064059741 L 488.07819893775513 119.78627382323727 L 488.04638931066455 119.88474813500389 L 488.01240293920904 119.98307372854818 L 487.9762432219974 120.08124077139271 L 487.93791377497115 120.17923944691502 L 487.8974184310431 120.27705995532921 L 487.8547612397139 120.37469251466595 L 487.80994646666716 120.4721273617507 L 487.7629785933428 120.5693547531799 L 487.713862316489 120.66636496629543 L 487.66260254769253 120.76314830015687 L 487.60920441288755 120.85969507651144 L 487.5536732518431 120.955995640762 L 487.49601461762893 121.05204036293233 L 487.4362342760605 121.14781963863028 L 487.374338205122 121.24332389000809 L 487.31033259436913 121.33854356672019 L 487.2442238443095 121.4334691468783 L 487.176018565763 121.52809113800346 L 487.1057235792008 121.62240007797544 L 487.03334591406286 121.71638653597883 L 486.9588928080554 121.81004111344615 L 486.88237170642697 121.90335444499769 L 486.803790261224 121.99631719937807 L 486.72315633052546 122.0889200803893 L 486.64047797765727 122.18115382782047 L 486.55576347038584 122.27300921837367 L 486.4690212800913 122.36447706658642 L 486.3802600809203 122.4555482257501 L 486.289488748919 122.54621358882471 L 486.1967163611447 122.63646408934949 L 486.101952194759 122.72629070234957 L 486.0052057260996 122.81568444523853 L 485.9064866297327 122.90463637871657 L 485.8058047774856 122.99313760766448 L 485.70317023745974 123.08117928203309 L 485.5985932730236 123.16875259772834 L 485.4920843417864 123.25584879749167 L 485.38365409455247 123.34245917177563 L 485.2733133742563 123.428575059615 L 485.1610732148779 123.51418784949276 L 485.0469448403397 123.59928898020125 L 484.9309396633839 123.68386994169833 L 484.8130692844318 123.76792227595833 L 484.69334549042287 123.85143757781786 L 484.5717802536368 123.93440749581634 L 484.44838573049594 124.0168237330311 L 484.32317426034984 124.09867804790713 L 484.1961583642411 124.17996225508111 L 484.0673507436535 124.26066822620008 L 483.9367642792418 124.34078789073419 L 483.8044120295436 124.42031323678374 L 483.67030722967354 124.49923631188041 L 483.53446328999985 124.57754922378244 L 483.39689379480336 124.65524414126392 L 483.2576125009189 124.73231329489784 L 483.1166333363599 124.80874897783305 L 482.97397039892513 124.88454354656496 L 482.8296379547896 124.95968942169986 L 482.68365043707735 125.03417908871288 L 482.5360224444186 125.10800509869935 L 482.3867687394895 125.18116006911981 L 482.23590424753627 125.2536366845382 L 482.0834440548823 125.32542769735335 L 481.92940340741984 125.39652592852383 L 481.7737977090852 125.46692426828574 L 481.61664252031863 125.53661567686379 L 481.4579535565081 125.60559318517518 L 481.29774668641755 125.67384989552659 L 481.13603793060065 125.74137898230383 L 480.9728434597981 125.80817369265452 L 480.80817959332114 125.8742273471633 L 480.6420627974191 125.93953334051972 L 480.4745096836332 126.0040851421789 L 480.3055370071351 126.06787629701445 L 480.13516166505167 126.13090042596406 L 479.9634006947752 126.19315122666735 L 479.79027127225953 126.25462247409612 L 479.61579071030263 126.31530802117686 L 479.4399764568154 126.37520179940542 L 479.26284609307646 126.4342978194539 L 479.0844173319748 126.49259017176955 L 478.9047080162377 126.5500730271657 L 478.72373611664705 126.6067406374047 L 478.541519730242 126.66258733577278 L 478.35807707850927 126.71760753764663 L 478.1734265055612 126.7717957410519 L 477.9875864763013 126.82514652721343 L 477.8005755745775 126.87765456109705 L 477.61241250132423 126.92931459194313 L 477.4231160726919 126.98012145379161 L 477.23270521816573 127.03007006599869 L 477.04119897867247 127.07915543374473 L 476.84861650467644 127.12737264853389 L 476.65497705426463 127.17471688868487 L 476.46029999122067 127.22118341981309 L 476.2646047830886 127.26676759530417 L 476.0679109992262 127.31146485677856 L 475.87023830884795 127.35527073454733 L 475.67160647905814 127.39818084805923 L 475.47203537287425 127.44019090633866 L 475.27154494724056 127.4812967084148 L 475.07015525103253 127.5214941437417 L 474.867886423052 127.56077919260933 L 474.6647586900133 127.59914792654554 L 474.4607923645203 127.63659650870889 L 474.2560078430356 127.6731211942724 L 474.05042560384084 127.70871833079792 L 473.84406620498845 127.7433843586015 L 473.63695028224646 127.77711581110921 L 473.42909854703447 127.80990931520392 L 473.2205317843529 127.84176159156257 L 473.0112708507041 127.87266945498405 L 472.8013366720071 127.90262981470777 L 472.5907502415048 127.93163967472273 L 472.37953261766484 127.9596961340671 L 472.1677049220735 127.98679638711833 L 471.95528833732385 128.0129377238737 L 471.74230410489736 128.0381175302213 L 471.5287735230398 128.06233328820153 L 471.31471794463135 128.0855825762587 L 471.1001587750515 128.10786306948344 L 470.8851174700385 128.12917253984494 L 470.66961553354355 128.14950885641397 L 470.4536745155807 128.1688699855758 L 470.2373160100719 128.18725399123366 L 470.02056165268726 128.2046590350023 L 469.80343311868205 128.22108337639182 L 469.58595212072856 128.2365253729818 L 469.3681404067455 128.2509834805854 L 469.1500197577227 128.26445625340398 L 468.9316119855433 128.27694234417146 L 468.7129389308025 128.28844050428916 L 468.49402246062357 128.29894958395062 L 468.27488446647106 128.30846853225668 L 468.05554686196183 128.31699639732042 L 467.8360315806735 128.32453232636243 L 467.6163605739512 128.3310755657961 L 467.3965558087128 128.33662546130296 L 467.1766392652513 128.34118145789805 L 466.9566329350381 128.34474309998552 L 466.73655881852267 128.34731003140413 L 466.5164389229334 128.34888199546288 L 466.29629526007636 128.34945883496667 L 466.07614984413436 128.349040492232 L 465.8560246894656 128.34762700909286 L 465.63594180840204 128.34521852689633 L 465.4159232090484 128.34181528648867 L 465.19599089308133 128.33741762819102 L 464.9761668535491 128.33202599176562 L 464.75647307267246 128.32564091637155 L 464.5369315196465 128.31826304051108 L 464.31756414844347 128.30989310196566 L 464.09839289561774 128.3005319377221 L 463.8794396781119 128.29018048388906 L 463.66072639106534 128.2788397756033 L 463.44227490562446 128.26651094692622 L 463.2241070667557 128.25319523073037 L 463.0062446910612 128.2388939585763 L 462.788709564597 128.2236085605793 L 462.5715234406944 128.20734056526643 L 462.35470803778486 128.19009159942368 L 462.13828503722794 128.17186338793326 L 461.9222760811434 128.1526577536011 L 461.7067027702468 128.13247661697466 L 461.49158666168967 128.11132199615074 L 461.27694926690344 128.08919600657384 L 461.06281204944884 128.0661008608245 L 460.84919642286917 128.04203886839798 L 460.63612374854904 128.0170124354735 L 460.42361533357837 127.99102406467351 L 460.21169242862146 127.96407635481341 L 460.00037622579237 127.93617200064178 L 459.7896878565351 127.90731379257072 L 459.57964838951114 127.87750461639702 L 459.37027882849213 127.84674745301346 L 459.16160011025966 127.81504537811074 L 458.9536331025117 127.78240156186993 L 458.74639860177564 127.74881926864545 L 458.5399173313289 127.71430185663864 L 458.3342099391266 127.67885277756194 L 458.1292969957363 127.64247557629372 L 457.92519899228176 127.60517389052379 L 457.7219363383931 127.56695145038962 L 457.5195293601665 127.52781207810341 L 457.31799829813093 127.48775968756975 L 457.1173633052247 127.44679828399431 L 456.91764444478 127.40493196348334 L 456.7188616885164 127.36216491263397 L 456.5210349145438 127.31850140811567 L 456.32418390537487 127.27394581624249 L 456.12832834594633 127.22850259253649 L 455.93348782165106 127.18217628128218 L 455.739681816379 127.13497151507208 L 455.54692971056926 127.08689301434347 L 455.3552507792717 127.03794558690636 L 455.16466419021987 126.9881341274627 L 454.9751890019137 126.93746361711693 L 454.7868441617142 126.88593912287786 L 454.5996485039484 126.83356579715196 L 454.4136207480262 126.78034887722818 L 454.228779496568 126.72629368475415 L 454.045143233545 126.67140562520409 L 453.8627303224304 126.61569018733819 L 453.6815590043634 126.55915294265382 L 453.50164739632487 126.50179954482836 L 453.32301348932555 126.44363572915375 L 453.1456751466073 126.38466731196311 L 452.9696501018567 126.32490019004902 L 452.79495595743145 126.26434034007389 L 452.6216101826005 126.2029938179722 L 452.4496301117968 126.14086675834507 L 452.27903294288416 126.07796537384668 L 452.1098357354373 126.01429595456308 L 451.9420554090359 125.94986486738313 L 451.7757087415729 125.88467855536184 L 451.61081236757633 125.81874353707612 L 451.44738277654625 125.75206640597281 L 451.2854363113055 125.6846538297095 L 451.1249891663657 125.61651254948762 L 450.9660573863076 125.54764937937843 L 450.80865686417684 125.47807120564151 L 450.65280333989443 125.40778498603629 L 450.49851239868286 125.33679774912613 L 450.3457994695077 125.2651165935756 L 450.19467982353467 125.1927486874405 L 450.04516857260234 125.11970126745113 L 449.8972806677113 125.04598163828864 L 449.7510308975288 124.97159717185448 L 449.6064338869099 124.89655530653334 L 449.46350409543516 124.8208635464492 L 449.32225581596475 124.744529460715 L 449.1827031732088 124.6675606826757 L 449.0448601223153 124.58996490914495 L 448.90874044747454 124.51174989963546 L 448.7743577605405 124.432923475583 L 448.6417254996699 124.35349351956427 L 448.51085692797835 124.27346797450868 L 448.3817651322139 124.19285484290407 L 448.2544630214486 124.11166218599641 L 448.1289633257874 124.02989812298372 L 448.0052785950953 123.9475708302042 L 447.88342119774234 123.86468854031848 L 447.7634033193666 123.7812595414865 L 447.645236961656 123.69729217653864 L 447.52893394114784 123.61279484214138 L 447.4145058880472 123.52777598795777 L 447.301964245064 123.44224411580237 L 447.1913202662689 123.35620777879113 L 447.0825850159675 123.26967558048605 L 446.9757693675941 123.18265617403485 L 446.87088400262473 123.09515826130566 L 446.7679394095083 123.00719059201683 L 446.6669458826185 122.91876196286199 L 446.5679135212237 122.82988121663037 L 446.4708522284776 122.74055724132252 L 446.37577171042864 122.65079896926153 L 446.2826814750493 122.56061537619982 L 446.1915908312855 122.47001548042154 L 446.10250888812584 122.37900834184076 L 446.0154445536904 122.28760306109551 L 445.9304065343399 122.19580877863768 L 445.8474033338056 122.10363467381903 L 445.76644325233826 122.01108996397322 L 445.6875343858786 121.91818390349414 L 445.6106846252476 121.82492578291038 L 445.5359016553571 121.73132492795632 L 445.4631929544419 121.63739069863944 L 445.39256579331146 121.54313248830438 L 445.3240272346231 121.44855972269364 L 445.25758413217545 121.35368185900496 L 445.1932431302235 121.25850838494567 L 445.13101066281376 121.16304881778383 L 445.07089295314114 121.06731270339662 L 445.0128960129265 120.97130961531572 L 444.9570256418155 120.87504915376991 L 444.9032874267988 120.77854094472514 L 444.851686741653 120.68179463892189 L 444.80222874640367 120.5848199109101 L 444.7549183868091 120.48762645808178 L 444.70976039386585 120.39022399970122 L 444.6667592833355 120.29262227593307 L 444.62591935529343 120.1948310468684 L 444.5872446936983 120.0968600915486 L 444.55073916598406 119.99871920698757 L 444.516406422673 119.90041820719199 L 444.48424989701095 119.80196692217991 L 444.45427280462366 119.7033751969978 L 444.42647814319525 119.604652890736 L 444.4008686921689 119.50580987554288 L 444.3774470124682 119.40685603563759 L 444.3562154462418 119.30780126632166 L 444.3371761166284 119.20865547298948 L 444.3203309275453 119.10942857013775 L 444.30568156349716 119.01013048037407 L 444.29322948940836 118.91077113342469 L 444.2829759504759 118.81136046514148 L 444.27492197204504 118.71190841650842 L 444.26906835950695 118.61242493264753 L 444.2654156982181 118.51291996182425 L 444.2639643534414 118.41340345445279 L 444.26471447031025 118.31388536210092 L 444.26766597381356 118.21437563649496 L 444.2728185688035 118.11488422852455 L 444.2801717400247 118.01542108724756 L 444.2897247521663 117.91599615889524 L 444.301476649935 117.81661938587759 L 444.3154262581508 117.71730070578906 L 444.33157218186454 117.61805005041494 L 444.34991280649734 117.51887734473802 L 444.3704462980019 117.41979250594623 L 444.3931706030463 117.3208054424409 L 444.41808344921895 117.22192605284587 L 444.44518234525594 117.12316422501772 L 444.47446458129025 117.02452983505692 L 444.5059272291228 116.92603274632027 L 444.53956714251484 116.82768280843456 L 444.57538095750317 116.72948985631163 L 444.6133650927361 116.63146370916486 L 444.65351574983185 116.53361416952727 L 444.695828913758 116.4359510222713 L 444.74030035323364 116.33848403363028 L 444.7869256211517 116.24122295022184 L 444.8357000550243 116.14417749807329 L 444.8866187774487 116.04735738164896 L 444.9396766965951 115.95077228287983 L 444.99486850671576 115.85443186019525 L 445.05218868867576 115.75834574755724 L 445.11163151050454 115.66252355349698 L 445.17319102796955 115.56697486015403 L 445.2368610851703 115.47170922231811 L 445.30263531515413 115.37673616647359 L 445.37050714055283 115.28206518984692 L 445.44046977424046 115.18770575945688 L 445.512516220012 115.09366731116786 L 445.5866392732828 114.99995924874634 L 445.6628315218094 114.90659094292047 L 445.74108534643034 114.81357173044302 L 445.8213929218285 114.72091091315772 L 445.9037462173131 114.6286177570691 L 445.9881369976233 114.53670149141583 L 446.0745568237515 114.44517130774788 L 446.16299705378697 114.35403635900738 L 446.2534488437804 114.26330575861321 L 446.3459031486282 114.17298857954984 L 446.44035072297703 114.0830938534599 L 446.536782122148 113.99363056974107 L 446.63518770308167 113.9046076746472 L 446.73555762530185 113.81603407039357 L 446.8378818519 113.72791861426684 L 446.9421501505388 113.64027011773916 L 447.0483520944752 113.55309734558716 L 447.15647706360335 113.46640901501542 L 447.26651424551636 113.38021379478474 L 447.37845263658784 113.29452030434531 L 447.4922810430719 113.20933711297478 L 447.6079880822228 113.12467273892129 L 447.72556218343294 113.0405356485517 L 447.8449915893903 112.95693425550492 L 447.96626435725375 112.8738769198506 L 448.0893683598476 112.79137194725308 L 448.21429128687413 112.70942758814088 L 448.3410206461447 112.62805203688163 L 448.46954376482915 112.54725343096261 L 448.59984779072255 112.4670398501771 L 448.731919693531 112.38741931581635 L 448.8657462661742 112.30839978986741 L 449.0013141261065 112.22998917421705 L 449.13860971665474 112.1521953098615 L 449.2776193083744 112.07502597612235 L 449.41832900042215 111.99848888986867 L 449.560724721946 111.9225917047453 L 449.7047922334924 111.84734201040753 L 449.8505171284304 111.77274733176205 L 449.9978848343918 111.69881512821459 L 450.1468806147289 111.62555279292388 L 450.2974895699878 111.5529676520624 L 450.4496966393985 111.48106696408377 L 450.6034866023809 111.40985791899683 L 450.75884408006675 111.33934763764678 L 450.9157535368379 111.269543171003 L 451.0741992818793 111.20045149945395 L 451.2341654707486 111.13207953210923 L 451.3956361069602 111.0644341061086 L 451.55859504358494 110.99752198593829 L 451.72302598486505 110.93134986275456 L 451.88891248784336 110.86592435371458 L 452.0562379640079 110.80125200131471 L 452.2249856809504 110.73733927273634 L 452.3951387640398 110.67419255919904 L 452.5666801981097 110.61181817532155 L 452.73959282915945 110.55022235849026 L 452.9138593660702 110.48941126823556 L 453.0894623823334 110.42939098561577 L 453.26638431779384 110.37016751260914 L 453.4446074804053 110.31174677151364 L 453.6241140480001 110.25413460435468 L 453.80488607007106 110.19733677230094 L 453.9869054695666 110.14135895508834 L 454.17015404469845 110.08620675045192 L 454.3546134707619 110.03188567356621 L 454.5402653019679 109.9784011564936 L 454.7270909732881 109.92575854764125 L 454.91507180231116 109.87396311122617 L 455.1041889911107 109.82302002674884 L 455.29442362812546 109.77293438847525 L 455.48575669005027 109.7237112049275 L 455.6781690437384 109.67535539838292 L 455.8716414481149 109.62787180438187 L 456.0661545561004 109.58126517124417 L 456.2616889165463 109.5355401595943 L 456.45822497617945 109.49070134189533 L 456.6557430815577 109.44675320199167 L 456.85422348103515 109.40370013466065 L 457.0536463267371 109.36154644517318 L 457.25399167654535 109.32029634886302 L 457.4552394960918 109.27995397070549 L 457.6573696607622 109.24052334490473 L 457.86036195770845 109.2020084144905 L 458.06419608787013 109.16441303092373 L 458.268851668004 109.12774095371145 L 458.47430823272265 109.09199585003081 L 458.6805452365408 109.05718129436242 L 458.88754205592994 109.0233007681328 L 459.0952779913806 108.99035765936637 L 459.3037322694724 108.95835526234653 L 459.5128840449512 108.92729677728633 L 459.7227124028137 108.89718531000838 L 459.93319636039905 108.86802387163432 L 460.1443148694869 108.83981537828369 L 460.35604681840226 108.81256265078231 L 460.5683710341266 108.78626841438025 L 460.7812662844154 108.76093529847918 L 460.9947112799209 108.73656583636964 L 461.20868467632164 108.7131624649775 L 461.4231650764561 108.6907275246204 L 461.63813103246304 108.66926325877368 L 461.853561047926 108.64877181384605 L 462.06943358002303 108.62925523896492 L 462.28572704168073 108.61071548577151 L 462.5024198037332 108.59315440822569 L 462.71949019708484 108.57657376242057 L 462.93691651487717 108.56097520640694 L 463.15467701465957 108.54636030002737 L 463.37274992056365 108.53273050476037 L 463.59111342548044 108.52008718357405 L 463.80974569324144 108.50843160079002 L 464.02862486080204 108.49776492195684 L 464.24772904042794 108.48808821373352 L 464.4670363218837 108.4794024437828 L 464.68652477462405 108.47170848067445 L 464.90617244998646 108.46500709379835 L 465.12595738338655 108.45929895328763 L 465.3458575965141 108.45458462995155 L 465.5658510995311 108.45086459521856 L 465.7859158932704 108.448139221089 L 466.0060299714362 108.44640878009801 L 466.226171322804 108.44567344528826 L 466.4463179334222 108.44593329019261 L 466.6664477888132 108.44718828882681 L 466.8865388761747 108.44943831569202 L 467.1065691865816 108.45268314578742 L 467.3265167171862 108.45692245463273 L 467.54635947341865 108.46215581830057 L 467.76607547118647 108.46838271345896 L 467.9856427390731 108.47560251742357 L 468.2050393205347 108.48381450822 L 468.4242432760959 108.49301786465603 L 468.6432326855439 108.50321166640367 L 468.8619856501202 108.51439489409127 L 469.0804802947106 108.52656642940536 L 469.29869477003274 108.53972505520255 L 469.51660725482094 108.55386945563123 L 469.7341959580083 108.56899821626314 L 469.95143912090583 108.58510982423483 L 470.1683150193783 108.60220266839895 L 470.38480196601665 108.62027503948528 L 470.60087831230646 108.6393251302718 L 470.8165224507933 108.6593510357653 L 471.031712817243 108.68035075339193 L 471.2464278927981 108.70232218319741 L 471.4606462061302 108.7252631280571 L 471.67434633558634 108.74917129389559 L 471.8875069113317 108.77404428991623 L 472.10010661748635 108.79987962884016 L 472.31212419425674 108.82667472715502 L 472.523538440062 108.8544269053733 L 472.73432821365367 108.8831333883003 L 472.9444724362301 108.91279130531164 L 473.15395009354404 108.94339769064037 L 473.36274023800445 108.97494948367343 L 473.5708219907708 109.00744352925781 L 473.7781745438412 109.04087657801604 L 473.98477716213324 109.0752452866711 L 474.1906091855571 109.11054621838079 L 474.3956500310821 109.14677584308131 L 474.5998791947945 109.18393053784042 L 474.8032762539481 109.2220065872196 L 475.0058208690065 109.26100018364562 L 475.20749278567706 109.30090742779134 L 475.408271836936 109.34172432896563 L 475.6081379450457 109.38344680551235 L 475.8070711235618 109.42607068521863 L 476.00505147933217 109.46959170573203 L 476.2020592144863 109.51400551498674 L 476.39807462841486 109.55930767163885 L 476.5930781197398 109.60549364551046 L 476.7870501882744 109.65255881804268 L 476.9799714369736 109.70049848275747 L 477.1718225738731 109.74930784572828 L 477.36258441401924 109.79898202605952 L 477.55223788138693 109.84951605637454 L 477.74076401078753 109.90090488331242 L 477.92814394976506 109.9531433680333 L 478.1143589604819 110.00622628673223 L 478.29939042159214 110.06014833116157 L 478.4832198301038 110.11490410916183 L 478.6658288032293 110.17048814520082 L 478.84719908022345 110.22689488092126 L 479.02731252420966 110.2841186756966 L 479.2061511239937 110.34215380719503 L 479.3836969958646 110.40099447195178 L 479.55993238538315 110.46063478594938 L 479.73483966915717 110.52106878520617 L 479.9084013566041 110.58229042637255 L 480.08060009169986 110.64429358733544 L 480.25141865471437 110.7070720678304 L 480.42083996393376 110.77061959006171 L 480.5888470773682 110.8349297993301 L 480.7554231944464 110.89999626466822 L 480.9205516576955 110.96581247948379 L 481.0842159544067 111.03237186221013 L 481.2463997182868 111.09966775696446 L 481.40708673109447 111.1676934342134 L 481.56626092426245 111.2364420914459 L 481.723906380504 111.3059068538535 L 481.8800073354048 111.37608077501788 L 482.03454817899956 111.44695683760538 L 482.18751345733267 111.51852795406883 L 482.3388878740038 111.59078696735621 L 482.4886562916973 111.6637266516264 L 482.63680373369635 111.73733971297176 L 482.7833153853801 111.81161879014752 L 482.92817659570557 111.88655645530783 L 483.0713728786724 111.96214521474865 L 483.21288991477155 112.038377509657 L 483.35271355241747 112.11524571686692 L 483.4908298093629 112.19274214962178 L 483.6272248740971 112.27085905834284 L 483.76188510722744 112.34958863140434 L 483.8947970428427 112.4289229959146 L 484.0259473898601 112.50885421850326 L 484.15532303335425 112.58937430611468 L 484.28291103586866 112.6704752068072 L 484.4086986387093 112.75214881055831 L 484.53267326322083 112.83438695007574 L 484.654822512044 112.91718140161403 L 484.7751341703557 113.00052388579704 L 484.8935962070905 113.0844060684458 L 485.01019677614335 113.16881956141195 L 485.1249242175545 113.25375592341653 L 485.2377670586755 113.33920666089413 L 485.34871401531615 113.42516322884221 L 485.45775399287334 113.5116170316756 L 485.5648760874401 113.59855942408605 L 485.6700695868963 113.68598171190679 L 485.77332397197966 113.77387515298189 L 485.8746289173377 113.86223095804047 L 485.97397429256034 113.95104029157567 L 486.07135016319273 114.04029427272812 L 486.1667467917291 114.12998397617412 L 486.26015463858596 114.22010043301803 L 486.3515643630566 114.3106346316893 L 486.44096682424464 114.40157751884347 L 486.5283530819785 114.49292000026763 L 486.6137143977052 114.58465294178976 L 486.6970422353644 114.67676717019214 L 486.77832826224164 114.76925347412869 L 486.85756434980203 114.86210260504609 L 486.9347425745029 114.95530527810864 L 487.009855218586 115.04885217312668 L 487.0828947708495 115.14273393548868 L 487.1538539273992 115.23694117709663 L 487.2227255923784 115.33146447730486 L 487.28950287867815 115.42629438386214 L 487.3541791086254 115.52142141385684 L 487.41674781465093 115.61683605466523 L 487.47720273993644 115.71252876490273 L 487.53553783903976 115.80848997537807 L 487.5917472784995 115.90471009005016 L 487.64582543741864 116.00117948698772 L 487.6977669080263 116.09788851933145 L 487.7475664962188 116.19482751625871 L 487.7952192220787 116.29198678395059 L 487.8407203203732 116.38935660656128 L 487.8840652410303 116.48692724718966 L 487.9252496495942 116.58468894885297 L 487.9642694276582 116.68263193546252 L 488.00112067327717 116.78074641280128 L 488.0357997013572 116.87902256950326 L 488.0683030440243 116.97745057803469 L 488.0986274509714 117.07602059567674 L 488.12676988978296 117.1747227655098 L 488.1527275462386 117.27354721739911 L 488.1764978245944 117.37248406898186 L 488.1980783478422 117.47152342665532 L 488.21746695794775 117.57065538656629 L 488.23466171606617 117.66987003560133 L 488.24966090273597 117.76915745237828 L 488.26246301805094 117.86850770823816 L 488.27306678181026 117.96791086823818 L 488.2814711336464 118.06735699214518 L 488.28767523313115 118.16683613542965 L 488.2916784598598 118.26633835026014 L 488.29348041351295 118.36585368649811 M 488.29359209664153 150.0627168384 L 488.29249136442274 150.1622342644769 L 488.2891892778387 150.2617417388941 L 488.2836861670953 150.3612293109871 L 488.275982582499 150.4606870320816 L 488.2660792944019 150.5601049564884 L 488.25397729312454 150.65947314249786 L 488.2396777888569 150.7587816533742 L 488.22318221153756 150.8580205583491 L 488.20449221071044 150.95717993361475 L 488.18360965536016 151.05624986331628 L 488.16053663372475 151.15522044054325 L 488.1352754530872 151.25408176832042 L 488.1078286395445 151.3528239605974 L 488.07819893775513 151.45143714323726 L 488.04638931066455 151.54991145500387 L 488.01240293920904 151.64823704854817 L 487.9762432219974 151.74640409139272 L 487.93791377497115 151.844402766915 L 487.8974184310431 151.9422232753292 L 487.8547612397139 152.03985583466596 L 487.80994646666716 152.13729068175067 L 487.7629785933428 152.23451807317988 L 487.713862316489 152.33152828629542 L 487.66260254769253 152.42831162015685 L 487.60920441288755 152.52485839651143 L 487.5536732518431 152.621158960762 L 487.49601461762893 152.7172036829323 L 487.4362342760605 152.81298295863027 L 487.374338205122 152.90848721000808 L 487.31033259436913 153.00370688672018 L 487.2442238443095 153.09863246687829 L 487.176018565763 153.19325445800345 L 487.1057235792008 153.28756339797545 L 487.03334591406286 153.38154985597882 L 486.9588928080554 153.47520443344615 L 486.88237170642697 153.5685177649977 L 486.803790261224 153.66148051937805 L 486.72315633052546 153.75408340038928 L 486.64047797765727 153.84631714782046 L 486.55576347038584 153.93817253837366 L 486.4690212800913 154.0296403865864 L 486.3802600809203 154.1207115457501 L 486.289488748919 154.21137690882472 L 486.1967163611447 154.30162740934946 L 486.101952194759 154.39145402234956 L 486.0052057260996 154.48084776523854 L 485.9064866297327 154.56979969871657 L 485.8058047774856 154.65830092766447 L 485.70317023745974 154.74634260203308 L 485.5985932730236 154.83391591772835 L 485.4920843417864 154.92101211749164 L 485.38365409455247 155.00762249177563 L 485.2733133742563 155.093738379615 L 485.1610732148779 155.17935116949275 L 485.0469448403397 155.26445230020124 L 484.9309396633839 155.3490332616983 L 484.8130692844318 155.43308559595832 L 484.69334549042287 155.51660089781785 L 484.5717802536368 155.59957081581632 L 484.44838573049594 155.6819870530311 L 484.32317426034984 155.7638413679071 L 484.1961583642411 155.84512557508108 L 484.0673507436535 155.92583154620007 L 483.9367642792418 156.00595121073417 L 483.8044120295436 156.08547655678373 L 483.67030722967354 156.1643996318804 L 483.53446328999985 156.24271254378243 L 483.39689379480336 156.3204074612639 L 483.2576125009189 156.3974766148978 L 483.1166333363599 156.47391229783304 L 482.97397039892513 156.54970686656495 L 482.8296379547896 156.62485274169987 L 482.68365043707735 156.69934240871285 L 482.5360224444186 156.77316841869933 L 482.3867687394895 156.84632338911982 L 482.23590424753627 156.91880000453818 L 482.0834440548823 156.99059101735335 L 481.92940340741984 157.0616892485238 L 481.7737977090852 157.1320875882857 L 481.61664252031863 157.20177899686377 L 481.4579535565081 157.27075650517517 L 481.29774668641755 157.33901321552656 L 481.13603793060065 157.40654230230382 L 480.9728434597981 157.47333701265453 L 480.80817959332114 157.53939066716327 L 480.6420627974191 157.60469666051972 L 480.4745096836332 157.6692484621789 L 480.3055370071351 157.73303961701444 L 480.13516166505167 157.79606374596406 L 479.9634006947752 157.85831454666734 L 479.79027127225953 157.9197857940961 L 479.61579071030263 157.98047134117684 L 479.4399764568154 158.0403651194054 L 479.26284609307646 158.0994611394539 L 479.0844173319748 158.15775349176954 L 478.9047080162377 158.21523634716567 L 478.72373611664705 158.2719039574047 L 478.541519730242 158.32775065577277 L 478.35807707850927 158.38277085764662 L 478.1734265055612 158.4369590610519 L 477.9875864763013 158.49030984721344 L 477.8005755745775 158.54281788109705 L 477.61241250132423 158.5944779119431 L 477.4231160726919 158.64528477379162 L 477.23270521816573 158.69523338599868 L 477.04119897867247 158.74431875374472 L 476.84861650467644 158.79253596853388 L 476.65497705426463 158.83988020868486 L 476.46029999122067 158.8863467398131 L 476.2646047830886 158.93193091530418 L 476.0679109992262 158.97662817677855 L 475.87023830884795 159.0204340545473 L 475.67160647905814 159.06334416805922 L 475.47203537287425 159.10535422633865 L 475.27154494724056 159.1464600284148 L 475.07015525103253 159.1866574637417 L 474.867886423052 159.22594251260932 L 474.6647586900133 159.26431124654553 L 474.4607923645203 159.3017598287089 L 474.2560078430356 159.3382845142724 L 474.05042560384084 159.37388165079793 L 473.84406620498845 159.40854767860148 L 473.63695028224646 159.44227913110922 L 473.42909854703447 159.47507263520393 L 473.2205317843529 159.50692491156258 L 473.0112708507041 159.53783277498405 L 472.8013366720071 159.56779313470776 L 472.5907502415048 159.5968029947227 L 472.37953261766484 159.6248594540671 L 472.1677049220735 159.65195970711832 L 471.95528833732385 159.67810104387368 L 471.74230410489736 159.7032808502213 L 471.5287735230398 159.7274966082015 L 471.31471794463135 159.7507458962587 L 471.1001587750515 159.77302638948342 L 470.8851174700385 159.79433585984495 L 470.66961553354355 159.81467217641398 L 470.4536745155807 159.83403330557582 L 470.2373160100719 159.85241731123367 L 470.02056165268726 159.86982235500227 L 469.80343311868205 159.8862466963918 L 469.58595212072856 159.90168869298176 L 469.3681404067455 159.9161468005854 L 469.1500197577227 159.92961957340398 L 468.9316119855433 159.94210566417144 L 468.7129389308025 159.95360382428913 L 468.49402246062357 159.96411290395062 L 468.27488446647106 159.97363185225666 L 468.05554686196183 159.9821597173204 L 467.8360315806735 159.98969564636243 L 467.6163605739512 159.99623888579612 L 467.3965558087128 160.00178878130296 L 467.1766392652513 160.00634477789805 L 466.9566329350381 160.0099064199855 L 466.73655881852267 160.0124733514041 L 466.5164389229334 160.01404531546285 L 466.29629526007636 160.01462215496664 L 466.07614984413436 160.014203812232 L 465.8560246894656 160.01279032909284 L 465.63594180840204 160.01038184689634 L 465.4159232090484 160.00697860648864 L 465.19599089308133 160.00258094819102 L 464.9761668535491 159.9971893117656 L 464.75647307267246 159.99080423637156 L 464.5369315196465 159.9834263605111 L 464.31756414844347 159.97505642196563 L 464.09839289561774 159.96569525772207 L 463.8794396781119 159.95534380388904 L 463.66072639106534 159.9440030956033 L 463.44227490562446 159.9316742669262 L 463.2241070667557 159.91835855073037 L 463.0062446910612 159.9040572785763 L 462.788709564597 159.8887718805793 L 462.5715234406944 159.87250388526644 L 462.35470803778486 159.8552549194237 L 462.13828503722794 159.83702670793323 L 461.9222760811434 159.8178210736011 L 461.7067027702468 159.79763993697463 L 461.49158666168967 159.77648531615074 L 461.27694926690344 159.75435932657385 L 461.06281204944884 159.73126418082447 L 460.84919642286917 159.70720218839796 L 460.63612374854904 159.68217575547348 L 460.42361533357837 159.6561873846735 L 460.21169242862146 159.62923967481342 L 460.00037622579237 159.60133532064177 L 459.7896878565351 159.5724771125707 L 459.57964838951114 159.542667936397 L 459.37027882849213 159.51191077301345 L 459.16160011025966 159.48020869811072 L 458.9536331025117 159.4475648818699 L 458.74639860177564 159.41398258864544 L 458.5399173313289 159.37946517663863 L 458.3342099391266 159.34401609756193 L 458.1292969957363 159.30763889629372 L 457.92519899228176 159.2703372105238 L 457.7219363383931 159.23211477038961 L 457.5195293601665 159.1929753981034 L 457.31799829813093 159.15292300756974 L 457.1173633052247 159.1119616039943 L 456.91764444478 159.0700952834833 L 456.7188616885164 159.02732823263395 L 456.5210349145438 158.98366472811566 L 456.32418390537487 158.93910913624248 L 456.12832834594633 158.89366591253648 L 455.93348782165106 158.8473396012822 L 455.739681816379 158.80013483507207 L 455.54692971056926 158.75205633434348 L 455.3552507792717 158.70310890690635 L 455.16466419021987 158.6532974474627 L 454.9751890019137 158.60262693711692 L 454.7868441617142 158.55110244287783 L 454.5996485039484 158.49872911715195 L 454.4136207480262 158.44551219722817 L 454.228779496568 158.39145700475413 L 454.045143233545 158.33656894520408 L 453.8627303224304 158.28085350733818 L 453.6815590043634 158.22431626265382 L 453.50164739632487 158.16696286482835 L 453.32301348932555 158.10879904915373 L 453.1456751466073 158.04983063196312 L 452.9696501018567 157.99006351004903 L 452.79495595743145 157.92950366007386 L 452.6216101826005 157.8681571379722 L 452.4496301117968 157.80603007834506 L 452.27903294288416 157.74312869384667 L 452.1098357354373 157.67945927456307 L 451.9420554090359 157.6150281873831 L 451.7757087415729 157.54984187536184 L 451.61081236757633 157.4839068570761 L 451.44738277654625 157.41722972597282 L 451.2854363113055 157.3498171497095 L 451.1249891663657 157.28167586948763 L 450.9660573863076 157.21281269937842 L 450.80865686417684 157.1432345256415 L 450.65280333989443 157.07294830603627 L 450.49851239868286 157.00196106912614 L 450.3457994695077 156.9302799135756 L 450.19467982353467 156.8579120074405 L 450.04516857260234 156.78486458745112 L 449.8972806677113 156.71114495828863 L 449.7510308975288 156.6367604918545 L 449.6064338869099 156.56171862653335 L 449.46350409543516 156.4860268664492 L 449.32225581596475 156.409692780715 L 449.1827031732088 156.3327240026757 L 449.0448601223153 156.25512822914496 L 448.90874044747454 156.17691321963545 L 448.7743577605405 156.098086795583 L 448.6417254996699 156.01865683956424 L 448.51085692797835 155.93863129450867 L 448.3817651322139 155.85801816290407 L 448.2544630214486 155.7768255059964 L 448.1289633257874 155.69506144298373 L 448.0052785950953 155.61273415020418 L 447.88342119774234 155.52985186031847 L 447.7634033193666 155.4464228614865 L 447.645236961656 155.36245549653862 L 447.52893394114784 155.27795816214137 L 447.4145058880472 155.19293930795774 L 447.301964245064 155.10740743580237 L 447.1913202662689 155.02137109879112 L 447.0825850159675 154.93483890048603 L 446.9757693675941 154.84781949403484 L 446.87088400262473 154.76032158130565 L 446.7679394095083 154.67235391201683 L 446.6669458826185 154.58392528286197 L 446.5679135212237 154.49504453663036 L 446.4708522284776 154.4057205613225 L 446.37577171042864 154.31596228926153 L 446.2826814750493 154.22577869619982 L 446.1915908312855 154.13517880042153 L 446.10250888812584 154.04417166184075 L 446.0154445536904 153.9527663810955 L 445.9304065343399 153.86097209863766 L 445.8474033338056 153.76879799381902 L 445.76644325233826 153.6762532839732 L 445.6875343858786 153.58334722349412 L 445.6106846252476 153.4900891029104 L 445.5359016553571 153.3964882479563 L 445.4631929544419 153.30255401863943 L 445.39256579331146 153.20829580830437 L 445.3240272346231 153.11372304269364 L 445.25758413217545 153.01884517900496 L 445.1932431302235 152.92367170494566 L 445.13101066281376 152.82821213778382 L 445.07089295314114 152.73247602339663 L 445.0128960129265 152.6364729353157 L 444.9570256418155 152.5402124737699 L 444.9032874267988 152.44370426472514 L 444.851686741653 152.34695795892188 L 444.80222874640367 152.2499832309101 L 444.7549183868091 152.15278977808177 L 444.70976039386585 152.0553873197012 L 444.6667592833355 151.95778559593307 L 444.62591935529343 151.8599943668684 L 444.5872446936983 151.7620234115486 L 444.55073916598406 151.66388252698758 L 444.516406422673 151.565581527192 L 444.48424989701095 151.4671302421799 L 444.45427280462366 151.36853851699777 L 444.42647814319525 151.269816210736 L 444.4008686921689 151.17097319554287 L 444.3774470124682 151.0720193556376 L 444.3562154462418 150.97296458632167 L 444.3371761166284 150.87381879298948 L 444.3203309275453 150.77459189013774 L 444.30568156349716 150.67529380037408 L 444.29322948940836 150.57593445342468 L 444.2829759504759 150.47652378514147 L 444.27492197204504 150.3770717365084 L 444.26906835950695 150.27758825264752 L 444.2654156982181 150.17808328182426 L 444.2639643534414 150.07856677445278" stroke-miterlimit="10" stroke-width="2.5633703640000003" stroke-dasharray=""/></g><g><text fill="black" stroke="none" font-family="sans-serif" font-size="11pt" font-style="normal" font-weight="normal" text-decoration="normal" x="426.92876579052046" y="176.19401590200002" text-anchor="start" dominant-baseline="alphabetic" xml:space="preserve">UCloud DB</text></g><path fill="none" stroke="none"/><g><path fill="white" stroke="black" paint-order="fill stroke markers" d=" M 572.7876185567626 140.15604431400004 L 744.4249590736923 140.15604431400004 L 744.4249590736923 180.71761066200003 L 572.7876185567626 180.71761066200003 L 572.7876185567626 140.15604431400004 Z" stroke-miterlimit="10" stroke-width="2.4125838720000004" stroke-dasharray=""/></g><g><text fill="black" stroke="none" font-family="sans-serif" font-size="11pt" font-style="normal" font-weight="normal" text-decoration="normal" x="589.1479529387626" y="165.63896146200003" text-anchor="start" dominant-baseline="alphabetic" xml:space="preserve">Integration Module</text></g><g><path fill="white" stroke="black" paint-order="fill stroke markers" d=" M 797.8798413832274 151.16345823 L 797.8798413832274 119.49829491000001 L 841.9094970472274 119.49829491000001 L 841.9094970472274 151.16345823" stroke-miterlimit="10" stroke-width="2.5633703640000003" stroke-dasharray=""/><path fill="white" stroke="black" paint-order="fill stroke markers" d=" M 841.9094970472274 118.39755351840002 L 841.9083963150086 118.4970709444769 L 841.9050942284246 118.5965784188941 L 841.8995911176811 118.69606599098711 L 841.8918875330849 118.79552371208162 L 841.8819842449877 118.8949416364884 L 841.8698822437103 118.99430982249787 L 841.8555827394428 119.09361833337421 L 841.8390871621234 119.19285723834912 L 841.8203971612963 119.29201661361478 L 841.799514605946 119.39108654331629 L 841.7764415843106 119.49005712054326 L 841.7511804036731 119.58891844832043 L 841.7237335901303 119.68766064059741 L 841.6941038883409 119.78627382323727 L 841.6622942612504 119.88474813500389 L 841.6283078897949 119.98307372854818 L 841.5921481725833 120.08124077139271 L 841.553818725557 120.17923944691502 L 841.513323381629 120.27705995532921 L 841.4706661902998 120.37469251466595 L 841.4258514172529 120.4721273617507 L 841.3788835439286 120.5693547531799 L 841.3297672670749 120.66636496629543 L 841.2785074982784 120.76314830015687 L 841.2251093634734 120.85969507651144 L 841.169578202429 120.955995640762 L 841.1119195682148 121.05204036293233 L 841.0521392266463 121.14781963863028 L 840.9902431557078 121.24332389000809 L 840.9262375449549 121.33854356672019 L 840.8601287948953 121.4334691468783 L 840.7919235163489 121.52809113800346 L 840.7216285297866 121.62240007797544 L 840.6492508646487 121.71638653597883 L 840.5747977586412 121.81004111344615 L 840.4982766570128 121.90335444499769 L 840.4196952118098 121.99631719937807 L 840.3390612811113 122.0889200803893 L 840.2563829282432 122.18115382782047 L 840.1716684209717 122.27300921837367 L 840.0849262306772 122.36447706658642 L 839.9961650315062 122.4555482257501 L 839.9053936995048 122.54621358882471 L 839.8126213117305 122.63646408934949 L 839.7178571453449 122.72629070234957 L 839.6211106766855 122.81568444523853 L 839.5223915803185 122.90463637871657 L 839.4217097280715 122.99313760766448 L 839.3190751880456 123.08117928203309 L 839.2144982236094 123.16875259772834 L 839.1079892923722 123.25584879749167 L 838.9995590451383 123.34245917177563 L 838.8892183248421 123.428575059615 L 838.7769781654638 123.51418784949276 L 838.6628497909255 123.59928898020125 L 838.5468446139698 123.68386994169833 L 838.4289742350177 123.76792227595833 L 838.3092504410088 123.85143757781786 L 838.1876852042227 123.93440749581634 L 838.0642906810818 124.0168237330311 L 837.9390792109357 124.09867804790713 L 837.8120633148269 124.17996225508111 L 837.6832556942394 124.26066822620008 L 837.5526692298276 124.34078789073419 L 837.4203169801294 124.42031323678374 L 837.2862121802593 124.49923631188041 L 837.1503682405857 124.57754922378244 L 837.0127987453892 124.65524414126392 L 836.8735174515048 124.73231329489784 L 836.7325382869457 124.80874897783305 L 836.589875349511 124.88454354656496 L 836.4455429053754 124.95968942169986 L 836.2995553876632 125.03417908871288 L 836.1519273950045 125.10800509869935 L 836.0026736900754 125.18116006911981 L 835.8518091981222 125.2536366845382 L 835.6993490054681 125.32542769735335 L 835.5453083580056 125.39652592852383 L 835.3897026596711 125.46692426828574 L 835.2325474709045 125.53661567686379 L 835.0738585070939 125.60559318517518 L 834.9136516370033 125.67384989552659 L 834.7519428811864 125.74137898230383 L 834.588748410384 125.80817369265452 L 834.424084543907 125.8742273471633 L 834.257967748005 125.93953334051972 L 834.090414634219 126.0040851421789 L 833.921441957721 126.06787629701445 L 833.7510666156376 126.13090042596406 L 833.579305645361 126.19315122666735 L 833.4061762228454 126.25462247409612 L 833.2316956608885 126.31530802117686 L 833.0558814074012 126.37520179940542 L 832.8787510436623 126.4342978194539 L 832.7003222825606 126.49259017176955 L 832.5206129668236 126.5500730271657 L 832.339641067233 126.6067406374047 L 832.1574246808278 126.66258733577278 L 831.9739820290952 126.71760753764663 L 831.7893314561471 126.7717957410519 L 831.6034914268871 126.82514652721343 L 831.4164805251634 126.87765456109705 L 831.22831745191 126.92931459194313 L 831.0390210232778 126.98012145379161 L 830.8486101687516 127.03007006599869 L 830.6571039292583 127.07915543374473 L 830.4645214552623 127.12737264853389 L 830.2708820048505 127.17471688868487 L 830.0762049418065 127.22118341981309 L 829.8805097336744 127.26676759530417 L 829.683815949812 127.31146485677856 L 829.4861432594338 127.35527073454733 L 829.2875114296439 127.39818084805923 L 829.0879403234601 127.44019090633866 L 828.8874498978264 127.4812967084148 L 828.6860602016184 127.5214941437417 L 828.4837913736379 127.56077919260933 L 828.2806636405991 127.59914792654554 L 828.0766973151061 127.63659650870889 L 827.8719127936215 127.6731211942724 L 827.6663305544266 127.70871833079792 L 827.4599711555743 127.7433843586015 L 827.2528552328323 127.77711581110921 L 827.0450034976203 127.80990931520392 L 826.8364367349387 127.84176159156257 L 826.6271758012899 127.87266945498405 L 826.4172416225929 127.90262981470777 L 826.2066551920907 127.93163967472273 L 825.9954375682506 127.9596961340671 L 825.7836098726593 127.98679638711833 L 825.5711932879098 128.0129377238737 L 825.3582090554833 128.0381175302213 L 825.1446784736256 128.06233328820153 L 824.9306228952172 128.0855825762587 L 824.7160637256374 128.10786306948344 L 824.5010224206244 128.12917253984494 L 824.2855204841294 128.14950885641397 L 824.0695794661666 128.1688699855758 L 823.8532209606577 128.18725399123366 L 823.6364666032731 128.2046590350023 L 823.4193380692678 128.22108337639182 L 823.2018570713144 128.2365253729818 L 822.9840453573314 128.2509834805854 L 822.7659247083086 128.26445625340398 L 822.5475169361291 128.27694234417146 L 822.3288438813884 128.28844050428916 L 822.1099274112094 128.29894958395062 L 821.8907894170569 128.30846853225668 L 821.6714518125476 128.31699639732042 L 821.4519365312593 128.32453232636243 L 821.2322655245371 128.3310755657961 L 821.0124607592986 128.33662546130296 L 820.7925442158372 128.34118145789805 L 820.5725378856239 128.34474309998552 L 820.3524637691086 128.34731003140413 L 820.1323438735193 128.34888199546288 L 819.9122002106621 128.34945883496667 L 819.6920547947202 128.349040492232 L 819.4719296400514 128.34762700909286 L 819.2518467589879 128.34521852689633 L 819.0318281596342 128.34181528648867 L 818.8118958436671 128.33741762819102 L 818.5920718041349 128.33202599176562 L 818.3723780232583 128.32564091637155 L 818.1528364702323 128.31826304051108 L 817.9334690990293 128.30989310196566 L 817.7142978462035 128.3005319377221 L 817.4953446286978 128.29018048388906 L 817.2766313416512 128.2788397756033 L 817.0581798562102 128.26651094692622 L 816.8400120173416 128.25319523073037 L 816.6221496416471 128.2388939585763 L 816.4046145151829 128.2236085605793 L 816.1874283912803 128.20734056526643 L 815.9706129883707 128.19009159942368 L 815.7541899878138 128.17186338793326 L 815.5381810317292 128.1526577536011 L 815.3226077208327 128.13247661697466 L 815.1074916122755 128.11132199615074 L 814.8928542174893 128.08919600657384 L 814.6787170000347 128.0661008608245 L 814.465101373455 128.04203886839798 L 814.2520286991349 128.0170124354735 L 814.0395202841642 127.99102406467351 L 813.8275973792073 127.96407635481341 L 813.6162811763782 127.93617200064178 L 813.4055928071209 127.90731379257072 L 813.195553340097 127.87750461639702 L 812.9861837790779 127.84674745301346 L 812.7775050608454 127.81504537811074 L 812.5695380530975 127.78240156186993 L 812.3623035523615 127.74881926864545 L 812.1558222819148 127.71430185663864 L 811.9501148897124 127.67885277756194 L 811.7452019463221 127.64247557629372 L 811.5411039428676 127.60517389052379 L 811.337841288979 127.56695145038962 L 811.1354343107523 127.52781207810341 L 810.9339032487168 127.48775968756975 L 810.7332682558106 127.44679828399431 L 810.5335493953659 127.40493196348334 L 810.3347666391022 127.36216491263397 L 810.1369398651296 127.31850140811567 L 809.9400888559607 127.27394581624249 L 809.7442332965322 127.22850259253649 L 809.5493927722368 127.18217628128218 L 809.3555867669648 127.13497151507208 L 809.1628346611551 127.08689301434347 L 808.9711557298575 127.03794558690636 L 808.7805691408057 126.9881341274627 L 808.5910939524995 126.93746361711693 L 808.4027491123001 126.88593912287786 L 808.2155534545343 126.83356579715196 L 808.029525698612 126.78034887722818 L 807.8446844471538 126.72629368475415 L 807.6610481841308 126.67140562520409 L 807.4786352730163 126.61569018733819 L 807.2974639549493 126.55915294265382 L 807.1175523469107 126.50179954482836 L 806.9389184399114 126.44363572915375 L 806.7615800971931 126.38466731196311 L 806.5855550524425 126.32490019004902 L 806.4108609080173 126.26434034007389 L 806.2375151331863 126.2029938179722 L 806.0655350623827 126.14086675834507 L 805.89493789347 126.07796537384668 L 805.7257406860231 126.01429595456308 L 805.5579603596218 125.94986486738313 L 805.3916136921587 125.88467855536184 L 805.2267173181622 125.81874353707612 L 805.0632877271321 125.75206640597281 L 804.9013412618914 125.6846538297095 L 804.7408941169516 125.61651254948762 L 804.5819623368935 125.54764937937843 L 804.4245618147627 125.47807120564151 L 804.2687082904803 125.40778498603629 L 804.1144173492687 125.33679774912613 L 803.9617044200935 125.2651165935756 L 803.8105847741205 125.1927486874405 L 803.6610735231882 125.11970126745113 L 803.5131856182971 125.04598163828864 L 803.3669358481146 124.97159717185448 L 803.2223388374957 124.89655530653334 L 803.079409046021 124.8208635464492 L 802.9381607665506 124.744529460715 L 802.7986081237947 124.6675606826757 L 802.6607650729012 124.58996490914495 L 802.5246453980603 124.51174989963546 L 802.3902627111263 124.432923475583 L 802.2576304502558 124.35349351956427 L 802.1267618785643 124.27346797450868 L 801.9976700827998 124.19285484290407 L 801.8703679720345 124.11166218599641 L 801.7448682763733 124.02989812298372 L 801.6211835456811 123.9475708302042 L 801.4993261483281 123.86468854031848 L 801.3793082699525 123.7812595414865 L 801.2611419122419 123.69729217653864 L 801.1448388917337 123.61279484214138 L 801.0304108386331 123.52777598795777 L 800.9178691956499 123.44224411580237 L 800.8072252168547 123.35620777879113 L 800.6984899665533 123.26967558048605 L 800.59167431818 123.18265617403485 L 800.4867889532105 123.09515826130566 L 800.3838443600941 123.00719059201683 L 800.2828508332043 122.91876196286199 L 800.1838184718096 122.82988121663037 L 800.0867571790635 122.74055724132252 L 799.9916766610145 122.65079896926153 L 799.8985864256351 122.56061537619982 L 799.8074957818714 122.47001548042154 L 799.7184138387117 122.37900834184076 L 799.6313495042762 122.28760306109551 L 799.5463114849258 122.19580877863768 L 799.4633082843915 122.10363467381903 L 799.382348202924 122.01108996397322 L 799.3034393364645 121.91818390349414 L 799.2265895758334 121.82492578291038 L 799.151806605943 121.73132492795632 L 799.0790979050278 121.63739069863944 L 799.0084707438973 121.54313248830438 L 798.9399321852089 121.44855972269364 L 798.8734890827614 121.35368185900496 L 798.8091480808093 121.25850838494567 L 798.7469156133996 121.16304881778383 L 798.686797903727 121.06731270339662 L 798.6288009635123 120.97130961531572 L 798.5729305924013 120.87504915376991 L 798.5191923773847 120.77854094472514 L 798.4675916922388 120.68179463892189 L 798.4181336969895 120.5848199109101 L 798.370823337395 120.48762645808178 L 798.3256653444516 120.39022399970122 L 798.2826642339214 120.29262227593307 L 798.2418243058793 120.1948310468684 L 798.2031496442842 120.0968600915486 L 798.1666441165698 119.99871920698757 L 798.1323113732589 119.90041820719199 L 798.1001548475969 119.80196692217991 L 798.0701777552094 119.7033751969978 L 798.0423830937812 119.604652890736 L 798.0167736427547 119.50580987554288 L 797.9933519630541 119.40685603563759 L 797.9721203968277 119.30780126632166 L 797.9530810672143 119.20865547298948 L 797.9362358781311 119.10942857013775 L 797.9215865140831 119.01013048037407 L 797.9091344399942 118.91077113342469 L 797.8988809010617 118.81136046514148 L 797.8908269226308 118.71190841650842 L 797.8849733100928 118.61242493264753 L 797.8813206488039 118.51291996182425 L 797.8798693040272 118.41340345445279 L 797.8806194208961 118.31388536210092 L 797.8835709243995 118.21437563649496 L 797.8887235193893 118.11488422852455 L 797.8960766906106 118.01542108724756 L 797.9056297027521 117.91599615889524 L 797.9173816005208 117.81661938587759 L 797.9313312087367 117.71730070578906 L 797.9474771324504 117.61805005041494 L 797.9658177570832 117.51887734473802 L 797.9863512485878 117.41979250594623 L 798.0090755536322 117.3208054424409 L 798.0339883998048 117.22192605284587 L 798.0610872958418 117.12316422501772 L 798.0903695318761 117.02452983505692 L 798.1218321797086 116.92603274632027 L 798.1554720931007 116.82768280843456 L 798.191285908089 116.72948985631163 L 798.229270043322 116.63146370916486 L 798.2694207004176 116.53361416952727 L 798.3117338643439 116.4359510222713 L 798.3562053038195 116.33848403363028 L 798.4028305717376 116.24122295022184 L 798.4516050056102 116.14417749807329 L 798.5025237280346 116.04735738164896 L 798.5555816471809 115.95077228287983 L 798.6107734573017 115.85443186019525 L 798.6680936392615 115.75834574755724 L 798.7275364610904 115.66252355349698 L 798.7890959785553 115.56697486015403 L 798.8527660357561 115.47170922231811 L 798.9185402657399 115.37673616647359 L 798.9864120911387 115.28206518984692 L 799.0563747248264 115.18770575945688 L 799.1284211705978 115.09366731116786 L 799.2025442238687 114.99995924874634 L 799.2787364723952 114.90659094292047 L 799.3569902970162 114.81357173044302 L 799.4372978724143 114.72091091315772 L 799.5196511678989 114.6286177570691 L 799.6040419482092 114.53670149141583 L 799.6904617743373 114.44517130774788 L 799.7789020043728 114.35403635900738 L 799.8693537943662 114.26330575861321 L 799.9618080992141 114.17298857954984 L 800.0562556735629 114.0830938534599 L 800.1526870727339 113.99363056974107 L 800.2510926536675 113.9046076746472 L 800.3514625758877 113.81603407039357 L 800.4537868024859 113.72791861426684 L 800.5580551011246 113.64027011773916 L 800.664257045061 113.55309734558716 L 800.7723820141891 113.46640901501542 L 800.8824191961022 113.38021379478474 L 800.9943575871737 113.29452030434531 L 801.1081859936578 113.20933711297478 L 801.2238930328086 113.12467273892129 L 801.3414671340188 113.0405356485517 L 801.4608965399761 112.95693425550492 L 801.5821693078396 112.8738769198506 L 801.7052733104334 112.79137194725308 L 801.83019623746 112.70942758814088 L 801.9569255967306 112.62805203688163 L 802.0854487154149 112.54725343096261 L 802.2157527413084 112.4670398501771 L 802.3478246441168 112.38741931581635 L 802.48165121676 112.30839978986741 L 802.6172190766923 112.22998917421705 L 802.7545146672406 112.1521953098615 L 802.8935242589603 112.07502597612235 L 803.034233951008 111.99848888986867 L 803.1766296725318 111.9225917047453 L 803.3206971840783 111.84734201040753 L 803.4664220790162 111.77274733176205 L 803.6137897849777 111.69881512821459 L 803.7627855653147 111.62555279292388 L 803.9133945205737 111.5529676520624 L 804.0656015899843 111.48106696408377 L 804.2193915529667 111.40985791899683 L 804.3747490306527 111.33934763764678 L 804.5316584874238 111.269543171003 L 804.6901042324652 111.20045149945395 L 804.8500704213344 111.13207953210923 L 805.011541057546 111.0644341061086 L 805.1744999941708 110.99752198593829 L 805.3389309354509 110.93134986275456 L 805.5048174384292 110.86592435371458 L 805.6721429145937 110.80125200131471 L 805.8408906315362 110.73733927273634 L 806.0110437146257 110.67419255919904 L 806.1825851486955 110.61181817532155 L 806.3554977797453 110.55022235849026 L 806.529764316656 110.48941126823556 L 806.7053673329193 110.42939098561577 L 806.8822892683796 110.37016751260914 L 807.0605124309911 110.31174677151364 L 807.2400189985859 110.25413460435468 L 807.4207910206569 110.19733677230094 L 807.6028104201524 110.14135895508834 L 807.7860589952843 110.08620675045192 L 807.9705184213477 110.03188567356621 L 808.1561702525537 109.9784011564936 L 808.342995923874 109.92575854764125 L 808.530976752897 109.87396311122617 L 808.7200939416965 109.82302002674884 L 808.9103285787113 109.77293438847525 L 809.1016616406362 109.7237112049275 L 809.2940739943243 109.67535539838292 L 809.4875463987007 109.62787180438187 L 809.6820595066862 109.58126517124417 L 809.8775938671321 109.5355401595943 L 810.0741299267653 109.49070134189533 L 810.2716480321436 109.44675320199167 L 810.470128431621 109.40370013466065 L 810.669551277323 109.36154644517318 L 810.8698966271312 109.32029634886302 L 811.0711444466776 109.27995397070549 L 811.273274611348 109.24052334490473 L 811.4762669082943 109.2020084144905 L 811.680101038456 109.16441303092373 L 811.8847566185898 109.12774095371145 L 812.0902131833085 109.09199585003081 L 812.2964501871267 109.05718129436242 L 812.5034470065158 109.0233007681328 L 812.7111829419664 108.99035765936637 L 812.9196372200582 108.95835526234653 L 813.128788995537 108.92729677728633 L 813.3386173533995 108.89718531000838 L 813.549101310985 108.86802387163432 L 813.7602198200727 108.83981537828369 L 813.9719517689881 108.81256265078231 L 814.1842759847125 108.78626841438025 L 814.3971712350012 108.76093529847918 L 814.6106162305068 108.73656583636964 L 814.8245896269075 108.7131624649775 L 815.0390700270419 108.6907275246204 L 815.2540359830489 108.66926325877368 L 815.4694659985119 108.64877181384605 L 815.6853385306089 108.62925523896492 L 815.9016319922665 108.61071548577151 L 816.118324754319 108.59315440822569 L 816.3353951476706 108.57657376242057 L 816.552821465463 108.56097520640694 L 816.7705819652455 108.54636030002737 L 816.9886548711495 108.53273050476037 L 817.2070183760662 108.52008718357405 L 817.4256506438272 108.50843160079002 L 817.6445298113879 108.49776492195684 L 817.8636339910138 108.48808821373352 L 818.0829412724696 108.4794024437828 L 818.3024297252099 108.47170848067445 L 818.5220774005724 108.46500709379835 L 818.7418623339724 108.45929895328763 L 818.9617625471 108.45458462995155 L 819.1817560501169 108.45086459521856 L 819.4018208438563 108.448139221089 L 819.6219349220221 108.44640878009801 L 819.8420762733899 108.44567344528826 L 820.0622228840081 108.44593329019261 L 820.282352739399 108.44718828882681 L 820.5024438267606 108.44943831569202 L 820.7224741371675 108.45268314578742 L 820.942421667772 108.45692245463273 L 821.1622644240044 108.46215581830057 L 821.3819804217724 108.46838271345896 L 821.601547689659 108.47560251742357 L 821.8209442711205 108.48381450822 L 822.0401482266818 108.49301786465603 L 822.2591376361297 108.50321166640367 L 822.477890600706 108.51439489409127 L 822.6963852452964 108.52656642940536 L 822.9145997206185 108.53972505520255 L 823.1325122054068 108.55386945563123 L 823.3501009085942 108.56899821626314 L 823.5673440714917 108.58510982423483 L 823.7842199699642 108.60220266839895 L 824.0007069166024 108.62027503948528 L 824.2167832628924 108.6393251302718 L 824.4324274013792 108.6593510357653 L 824.6476177678288 108.68035075339193 L 824.862332843384 108.70232218319741 L 825.076551156716 108.7252631280571 L 825.2902512861722 108.74917129389559 L 825.5034118619176 108.77404428991623 L 825.7160115680722 108.79987962884016 L 825.9280291448426 108.82667472715502 L 826.1394433906479 108.8544269053733 L 826.3502331642395 108.8831333883003 L 826.560377386816 108.91279130531164 L 826.7698550441299 108.94339769064037 L 826.9786451885903 108.97494948367343 L 827.1867269413566 109.00744352925781 L 827.394079494427 109.04087657801604 L 827.600682112719 109.0752452866711 L 827.8065141361429 109.11054621838079 L 828.0115549816679 109.14677584308131 L 828.2157841453803 109.18393053784042 L 828.419181204534 109.2220065872196 L 828.6217258195924 109.26100018364562 L 828.8233977362629 109.30090742779134 L 829.0241767875219 109.34172432896563 L 829.2240428956316 109.38344680551235 L 829.4229760741476 109.42607068521863 L 829.620956429918 109.46959170573203 L 829.8179641650722 109.51400551498674 L 830.0139795790008 109.55930767163885 L 830.2089830703256 109.60549364551046 L 830.4029551388603 109.65255881804268 L 830.5958763875594 109.70049848275747 L 830.787727524459 109.74930784572828 L 830.9784893646051 109.79898202605952 L 831.1681428319728 109.84951605637454 L 831.3566689613733 109.90090488331242 L 831.544048900351 109.9531433680333 L 831.7302639110677 110.00622628673223 L 831.915295372178 110.06014833116157 L 832.0991247806896 110.11490410916183 L 832.2817337538152 110.17048814520082 L 832.4631040308093 110.22689488092126 L 832.6432174747955 110.2841186756966 L 832.8220560745796 110.34215380719503 L 832.9996019464504 110.40099447195178 L 833.1758373359689 110.46063478594938 L 833.350744619743 110.52106878520617 L 833.5243063071899 110.58229042637255 L 833.6965050422857 110.64429358733544 L 833.8673236053003 110.7070720678304 L 834.0367449145195 110.77061959006171 L 834.2047520279541 110.8349297993301 L 834.3713281450323 110.89999626466822 L 834.5364566082814 110.96581247948379 L 834.7001209049926 111.03237186221013 L 834.8623046688726 111.09966775696446 L 835.0229916816803 111.1676934342134 L 835.1821658748482 111.2364420914459 L 835.3398113310898 111.3059068538535 L 835.4959122859907 111.37608077501788 L 835.6504531295855 111.44695683760538 L 835.8034184079186 111.51852795406883 L 835.9547928245896 111.59078696735621 L 836.1045612422831 111.6637266516264 L 836.2527086842822 111.73733971297176 L 836.399220335966 111.81161879014752 L 836.5440815462914 111.88655645530783 L 836.6872778292582 111.96214521474865 L 836.8287948653574 112.038377509657 L 836.9686185030033 112.11524571686692 L 837.1067347599487 112.19274214962178 L 837.2431298246829 112.27085905834284 L 837.3777900578133 112.34958863140434 L 837.5107019934285 112.4289229959146 L 837.6418523404459 112.50885421850326 L 837.7712279839401 112.58937430611468 L 837.8988159864545 112.6704752068072 L 838.0246035892951 112.75214881055831 L 838.1485782138067 112.83438695007574 L 838.2707274626298 112.91718140161403 L 838.3910391209416 113.00052388579704 L 838.5095011576764 113.0844060684458 L 838.6261017267292 113.16881956141195 L 838.7408291681404 113.25375592341653 L 838.8536720092613 113.33920666089413 L 838.964618965902 113.42516322884221 L 839.0736589434591 113.5116170316756 L 839.180781038026 113.59855942408605 L 839.2859745374822 113.68598171190679 L 839.3892289225655 113.77387515298189 L 839.4905338679235 113.86223095804047 L 839.5898792431461 113.95104029157567 L 839.6872551137786 114.04029427272812 L 839.7826517423149 114.12998397617412 L 839.8760595891719 114.22010043301803 L 839.9674693136425 114.3106346316893 L 840.0568717748305 114.40157751884347 L 840.1442580325644 114.49292000026763 L 840.2296193482911 114.58465294178976 L 840.3129471859502 114.67676717019214 L 840.3942332128274 114.76925347412869 L 840.4734693003879 114.86210260504609 L 840.5506475250887 114.95530527810864 L 840.6257601691718 115.04885217312668 L 840.6987997214354 115.14273393548868 L 840.769758877985 115.23694117709663 L 840.8386305429643 115.33146447730486 L 840.905407829264 115.42629438386214 L 840.9700840592112 115.52142141385684 L 841.0326527652368 115.61683605466523 L 841.0931076905223 115.71252876490273 L 841.1514427896255 115.80848997537807 L 841.2076522290854 115.90471009005016 L 841.2617303880045 116.00117948698772 L 841.3136718586122 116.09788851933145 L 841.3634714468046 116.19482751625871 L 841.4111241726646 116.29198678395059 L 841.4566252709591 116.38935660656128 L 841.4999701916162 116.48692724718966 L 841.54115460018 116.58468894885297 L 841.5801743782441 116.68263193546252 L 841.617025623863 116.78074641280128 L 841.651704651943 116.87902256950326 L 841.6842079946101 116.97745057803469 L 841.7145324015572 117.07602059567674 L 841.7426748403687 117.1747227655098 L 841.7686324968245 117.27354721739911 L 841.7924027751802 117.37248406898186 L 841.8139832984281 117.47152342665532 L 841.8333719085336 117.57065538656629 L 841.850566666652 117.66987003560133 L 841.8655658533218 117.76915745237828 L 841.8783679686368 117.86850770823816 L 841.8889717323962 117.96791086823818 L 841.8973760842323 118.06735699214518 L 841.903580183717 118.16683613542965 L 841.9075834104457 118.26633835026014 L 841.9093853640987 118.36585368649811 M 841.9094970472274 150.0627168384 L 841.9083963150086 150.1622342644769 L 841.9050942284246 150.2617417388941 L 841.8995911176811 150.3612293109871 L 841.8918875330849 150.4606870320816 L 841.8819842449877 150.5601049564884 L 841.8698822437103 150.65947314249786 L 841.8555827394428 150.7587816533742 L 841.8390871621234 150.8580205583491 L 841.8203971612963 150.95717993361475 L 841.799514605946 151.05624986331628 L 841.7764415843106 151.15522044054325 L 841.7511804036731 151.25408176832042 L 841.7237335901303 151.3528239605974 L 841.6941038883409 151.45143714323726 L 841.6622942612504 151.54991145500387 L 841.6283078897949 151.64823704854817 L 841.5921481725833 151.74640409139272 L 841.553818725557 151.844402766915 L 841.513323381629 151.9422232753292 L 841.4706661902998 152.03985583466596 L 841.4258514172529 152.13729068175067 L 841.3788835439286 152.23451807317988 L 841.3297672670749 152.33152828629542 L 841.2785074982784 152.42831162015685 L 841.2251093634734 152.52485839651143 L 841.169578202429 152.621158960762 L 841.1119195682148 152.7172036829323 L 841.0521392266463 152.81298295863027 L 840.9902431557078 152.90848721000808 L 840.9262375449549 153.00370688672018 L 840.8601287948953 153.09863246687829 L 840.7919235163489 153.19325445800345 L 840.7216285297866 153.28756339797545 L 840.6492508646487 153.38154985597882 L 840.5747977586412 153.47520443344615 L 840.4982766570128 153.5685177649977 L 840.4196952118098 153.66148051937805 L 840.3390612811113 153.75408340038928 L 840.2563829282432 153.84631714782046 L 840.1716684209717 153.93817253837366 L 840.0849262306772 154.0296403865864 L 839.9961650315062 154.1207115457501 L 839.9053936995048 154.21137690882472 L 839.8126213117305 154.30162740934946 L 839.7178571453449 154.39145402234956 L 839.6211106766855 154.48084776523854 L 839.5223915803185 154.56979969871657 L 839.4217097280715 154.65830092766447 L 839.3190751880456 154.74634260203308 L 839.2144982236094 154.83391591772835 L 839.1079892923722 154.92101211749164 L 838.9995590451383 155.00762249177563 L 838.8892183248421 155.093738379615 L 838.7769781654638 155.17935116949275 L 838.6628497909255 155.26445230020124 L 838.5468446139698 155.3490332616983 L 838.4289742350177 155.43308559595832 L 838.3092504410088 155.51660089781785 L 838.1876852042227 155.59957081581632 L 838.0642906810818 155.6819870530311 L 837.9390792109357 155.7638413679071 L 837.8120633148269 155.84512557508108 L 837.6832556942394 155.92583154620007 L 837.5526692298276 156.00595121073417 L 837.4203169801294 156.08547655678373 L 837.2862121802593 156.1643996318804 L 837.1503682405857 156.24271254378243 L 837.0127987453892 156.3204074612639 L 836.8735174515048 156.3974766148978 L 836.7325382869457 156.47391229783304 L 836.589875349511 156.54970686656495 L 836.4455429053754 156.62485274169987 L 836.2995553876632 156.69934240871285 L 836.1519273950045 156.77316841869933 L 836.0026736900754 156.84632338911982 L 835.8518091981222 156.91880000453818 L 835.6993490054681 156.99059101735335 L 835.5453083580056 157.0616892485238 L 835.3897026596711 157.1320875882857 L 835.2325474709045 157.20177899686377 L 835.0738585070939 157.27075650517517 L 834.9136516370033 157.33901321552656 L 834.7519428811864 157.40654230230382 L 834.588748410384 157.47333701265453 L 834.424084543907 157.53939066716327 L 834.257967748005 157.60469666051972 L 834.090414634219 157.6692484621789 L 833.921441957721 157.73303961701444 L 833.7510666156376 157.79606374596406 L 833.579305645361 157.85831454666734 L 833.4061762228454 157.9197857940961 L 833.2316956608885 157.98047134117684 L 833.0558814074012 158.0403651194054 L 832.8787510436623 158.0994611394539 L 832.7003222825606 158.15775349176954 L 832.5206129668236 158.21523634716567 L 832.339641067233 158.2719039574047 L 832.1574246808278 158.32775065577277 L 831.9739820290952 158.38277085764662 L 831.7893314561471 158.4369590610519 L 831.6034914268871 158.49030984721344 L 831.4164805251634 158.54281788109705 L 831.22831745191 158.5944779119431 L 831.0390210232778 158.64528477379162 L 830.8486101687516 158.69523338599868 L 830.6571039292583 158.74431875374472 L 830.4645214552623 158.79253596853388 L 830.2708820048505 158.83988020868486 L 830.0762049418065 158.8863467398131 L 829.8805097336744 158.93193091530418 L 829.683815949812 158.97662817677855 L 829.4861432594338 159.0204340545473 L 829.2875114296439 159.06334416805922 L 829.0879403234601 159.10535422633865 L 828.8874498978264 159.1464600284148 L 828.6860602016184 159.1866574637417 L 828.4837913736379 159.22594251260932 L 828.2806636405991 159.26431124654553 L 828.0766973151061 159.3017598287089 L 827.8719127936215 159.3382845142724 L 827.6663305544266 159.37388165079793 L 827.4599711555743 159.40854767860148 L 827.2528552328323 159.44227913110922 L 827.0450034976203 159.47507263520393 L 826.8364367349387 159.50692491156258 L 826.6271758012899 159.53783277498405 L 826.4172416225929 159.56779313470776 L 826.2066551920907 159.5968029947227 L 825.9954375682506 159.6248594540671 L 825.7836098726593 159.65195970711832 L 825.5711932879098 159.67810104387368 L 825.3582090554833 159.7032808502213 L 825.1446784736256 159.7274966082015 L 824.9306228952172 159.7507458962587 L 824.7160637256374 159.77302638948342 L 824.5010224206244 159.79433585984495 L 824.2855204841294 159.81467217641398 L 824.0695794661666 159.83403330557582 L 823.8532209606577 159.85241731123367 L 823.6364666032731 159.86982235500227 L 823.4193380692678 159.8862466963918 L 823.2018570713144 159.90168869298176 L 822.9840453573314 159.9161468005854 L 822.7659247083086 159.92961957340398 L 822.5475169361291 159.94210566417144 L 822.3288438813884 159.95360382428913 L 822.1099274112094 159.96411290395062 L 821.8907894170569 159.97363185225666 L 821.6714518125476 159.9821597173204 L 821.4519365312593 159.98969564636243 L 821.2322655245371 159.99623888579612 L 821.0124607592986 160.00178878130296 L 820.7925442158372 160.00634477789805 L 820.5725378856239 160.0099064199855 L 820.3524637691086 160.0124733514041 L 820.1323438735193 160.01404531546285 L 819.9122002106621 160.01462215496664 L 819.6920547947202 160.014203812232 L 819.4719296400514 160.01279032909284 L 819.2518467589879 160.01038184689634 L 819.0318281596342 160.00697860648864 L 818.8118958436671 160.00258094819102 L 818.5920718041349 159.9971893117656 L 818.3723780232583 159.99080423637156 L 818.1528364702323 159.9834263605111 L 817.9334690990293 159.97505642196563 L 817.7142978462035 159.96569525772207 L 817.4953446286978 159.95534380388904 L 817.2766313416512 159.9440030956033 L 817.0581798562102 159.9316742669262 L 816.8400120173416 159.91835855073037 L 816.6221496416471 159.9040572785763 L 816.4046145151829 159.8887718805793 L 816.1874283912803 159.87250388526644 L 815.9706129883707 159.8552549194237 L 815.7541899878138 159.83702670793323 L 815.5381810317292 159.8178210736011 L 815.3226077208327 159.79763993697463 L 815.1074916122755 159.77648531615074 L 814.8928542174893 159.75435932657385 L 814.6787170000347 159.73126418082447 L 814.465101373455 159.70720218839796 L 814.2520286991349 159.68217575547348 L 814.0395202841642 159.6561873846735 L 813.8275973792073 159.62923967481342 L 813.6162811763782 159.60133532064177 L 813.4055928071209 159.5724771125707 L 813.195553340097 159.542667936397 L 812.9861837790779 159.51191077301345 L 812.7775050608454 159.48020869811072 L 812.5695380530975 159.4475648818699 L 812.3623035523615 159.41398258864544 L 812.1558222819148 159.37946517663863 L 811.9501148897124 159.34401609756193 L 811.7452019463221 159.30763889629372 L 811.5411039428676 159.2703372105238 L 811.337841288979 159.23211477038961 L 811.1354343107523 159.1929753981034 L 810.9339032487168 159.15292300756974 L 810.7332682558106 159.1119616039943 L 810.5335493953659 159.0700952834833 L 810.3347666391022 159.02732823263395 L 810.1369398651296 158.98366472811566 L 809.9400888559607 158.93910913624248 L 809.7442332965322 158.89366591253648 L 809.5493927722368 158.8473396012822 L 809.3555867669648 158.80013483507207 L 809.1628346611551 158.75205633434348 L 808.9711557298575 158.70310890690635 L 808.7805691408057 158.6532974474627 L 808.5910939524995 158.60262693711692 L 808.4027491123001 158.55110244287783 L 808.2155534545343 158.49872911715195 L 808.029525698612 158.44551219722817 L 807.8446844471538 158.39145700475413 L 807.6610481841308 158.33656894520408 L 807.4786352730163 158.28085350733818 L 807.2974639549493 158.22431626265382 L 807.1175523469107 158.16696286482835 L 806.9389184399114 158.10879904915373 L 806.7615800971931 158.04983063196312 L 806.5855550524425 157.99006351004903 L 806.4108609080173 157.92950366007386 L 806.2375151331863 157.8681571379722 L 806.0655350623827 157.80603007834506 L 805.89493789347 157.74312869384667 L 805.7257406860231 157.67945927456307 L 805.5579603596218 157.6150281873831 L 805.3916136921587 157.54984187536184 L 805.2267173181622 157.4839068570761 L 805.0632877271321 157.41722972597282 L 804.9013412618914 157.3498171497095 L 804.7408941169516 157.28167586948763 L 804.5819623368935 157.21281269937842 L 804.4245618147627 157.1432345256415 L 804.2687082904803 157.07294830603627 L 804.1144173492687 157.00196106912614 L 803.9617044200935 156.9302799135756 L 803.8105847741205 156.8579120074405 L 803.6610735231882 156.78486458745112 L 803.5131856182971 156.71114495828863 L 803.3669358481146 156.6367604918545 L 803.2223388374957 156.56171862653335 L 803.079409046021 156.4860268664492 L 802.9381607665506 156.409692780715 L 802.7986081237947 156.3327240026757 L 802.6607650729012 156.25512822914496 L 802.5246453980603 156.17691321963545 L 802.3902627111263 156.098086795583 L 802.2576304502558 156.01865683956424 L 802.1267618785643 155.93863129450867 L 801.9976700827998 155.85801816290407 L 801.8703679720345 155.7768255059964 L 801.7448682763733 155.69506144298373 L 801.6211835456811 155.61273415020418 L 801.4993261483281 155.52985186031847 L 801.3793082699525 155.4464228614865 L 801.2611419122419 155.36245549653862 L 801.1448388917337 155.27795816214137 L 801.0304108386331 155.19293930795774 L 800.9178691956499 155.10740743580237 L 800.8072252168547 155.02137109879112 L 800.6984899665533 154.93483890048603 L 800.59167431818 154.84781949403484 L 800.4867889532105 154.76032158130565 L 800.3838443600941 154.67235391201683 L 800.2828508332043 154.58392528286197 L 800.1838184718096 154.49504453663036 L 800.0867571790635 154.4057205613225 L 799.9916766610145 154.31596228926153 L 799.8985864256351 154.22577869619982 L 799.8074957818714 154.13517880042153 L 799.7184138387117 154.04417166184075 L 799.6313495042762 153.9527663810955 L 799.5463114849258 153.86097209863766 L 799.4633082843915 153.76879799381902 L 799.382348202924 153.6762532839732 L 799.3034393364645 153.58334722349412 L 799.2265895758334 153.4900891029104 L 799.151806605943 153.3964882479563 L 799.0790979050278 153.30255401863943 L 799.0084707438973 153.20829580830437 L 798.9399321852089 153.11372304269364 L 798.8734890827614 153.01884517900496 L 798.8091480808093 152.92367170494566 L 798.7469156133996 152.82821213778382 L 798.686797903727 152.73247602339663 L 798.6288009635123 152.6364729353157 L 798.5729305924013 152.5402124737699 L 798.5191923773847 152.44370426472514 L 798.4675916922388 152.34695795892188 L 798.4181336969895 152.2499832309101 L 798.370823337395 152.15278977808177 L 798.3256653444516 152.0553873197012 L 798.2826642339214 151.95778559593307 L 798.2418243058793 151.8599943668684 L 798.2031496442842 151.7620234115486 L 798.1666441165698 151.66388252698758 L 798.1323113732589 151.565581527192 L 798.1001548475969 151.4671302421799 L 798.0701777552094 151.36853851699777 L 798.0423830937812 151.269816210736 L 798.0167736427547 151.17097319554287 L 797.9933519630541 151.0720193556376 L 797.9721203968277 150.97296458632167 L 797.9530810672143 150.87381879298948 L 797.9362358781311 150.77459189013774 L 797.9215865140831 150.67529380037408 L 797.9091344399942 150.57593445342468 L 797.8988809010617 150.47652378514147 L 797.8908269226308 150.3770717365084 L 797.8849733100928 150.27758825264752 L 797.8813206488039 150.17808328182426 L 797.8798693040272 150.07856677445278" stroke-miterlimit="10" stroke-width="2.5633703640000003" stroke-dasharray=""/></g><g><text fill="black" stroke="none" font-family="sans-serif" font-size="11pt" font-style="normal" font-weight="normal" text-decoration="normal" x="766.4446684522879" y="176.19401590200002" text-anchor="start" dominant-baseline="alphabetic" xml:space="preserve">Integration DB</text></g><path fill="none" stroke="none"/><g><path fill="white" stroke="black" paint-order="fill stroke markers" d=" M 903.5019683781668 140.15604431400004 L 1274.355968440995 140.15604431400004 L 1274.355968440995 180.71761066200003 L 903.5019683781668 180.71761066200003 L 903.5019683781668 140.15604431400004 Z" stroke-miterlimit="10" stroke-width="2.4125838720000004" stroke-dasharray=""/></g><g><text fill="black" stroke="none" font-family="sans-serif" font-size="11pt" font-style="normal" font-weight="normal" text-decoration="normal" x="919.8623027601668" y="165.63896146200003" text-anchor="start" dominant-baseline="alphabetic" xml:space="preserve">                                 HPC                                 </text></g></g><g><path fill="white" stroke="black" paint-order="fill stroke markers" d=" M 298.15105621288376 230.477153022 L 313.22970541288373 230.477153022 L 313.22970541288373 975.3624235019997 L 298.15105621288376 975.3624235019997 L 298.15105621288376 230.477153022" stroke-miterlimit="10" stroke-width="1.2565541" stroke-dasharray=""/><path fill="white" stroke="black" paint-order="fill stroke markers" d=" M 651.0669642152275 272.697370782 L 666.1456134152274 272.697370782 L 666.1456134152274 848.7017702219998 L 651.0669642152275 848.7017702219998 L 651.0669642152275 272.697370782" stroke-miterlimit="10" stroke-width="1.2565541" stroke-dasharray=""/><path fill="white" stroke="black" paint-order="fill stroke markers" d=" M 1081.3896438095808 329.996237742 L 1096.468293009581 329.996237742 L 1096.468293009581 706.9624677419998 L 1081.3896438095808 706.9624677419998 L 1081.3896438095808 329.996237742" stroke-miterlimit="10" stroke-width="1.2565541" stroke-dasharray=""/><path fill="white" stroke="black" paint-order="fill stroke markers" d=" M 1088.9289684095809 464.19621562199995 L 1104.007617609581 464.19621562199995 L 1104.007617609581 506.4164333819999 L 1088.9289684095809 506.4164333819999 L 1088.9289684095809 464.19621562199995" stroke-miterlimit="10" stroke-width="1.2565541" stroke-dasharray=""/><path fill="white" stroke="black" paint-order="fill stroke markers" d=" M 1088.9289684095809 602.9197882619999 L 1104.007617609581 602.9197882619999 L 1104.007617609581 645.1400060219999 L 1088.9289684095809 645.1400060219999 L 1088.9289684095809 602.9197882619999" stroke-miterlimit="10" stroke-width="1.2565541" stroke-dasharray=""/><path fill="white" stroke="black" paint-order="fill stroke markers" d=" M 812.3553446152274 764.2613347019999 L 827.4339938152274 764.2613347019999 L 827.4339938152274 806.4815524619999 L 812.3553446152274 806.4815524619999 L 812.3553446152274 764.2613347019999" stroke-miterlimit="10" stroke-width="1.2565541" stroke-dasharray=""/><path fill="white" stroke="black" paint-order="fill stroke markers" d=" M 458.73943966464157 890.9219879819998 L 473.81808886464154 890.9219879819998 L 473.81808886464154 933.1422057419998 L 458.73943966464157 933.1422057419998 L 458.73943966464157 890.9219879819998" stroke-miterlimit="10" stroke-width="1.2565541" stroke-dasharray=""/><g><text fill="black" stroke="none" font-family="sans-serif" font-size="11pt" font-style="normal" font-weight="normal" text-decoration="normal" x="94.3826907879116" y="224.445693342" text-anchor="start" dominant-baseline="alphabetic" xml:space="preserve">Connect with provider</text></g><g><path fill="none" stroke="black" paint-order="fill stroke markers" d=" M 52.930991012353516 230.477153022 L 285.7363017048838 230.477153022" stroke-miterlimit="10" stroke-width="1.2565541" stroke-dasharray=""/><g transform="translate(298.15105621288376,230.477153022) translate(-298.15105621288376,-230.477153022)"><path fill="black" stroke="none" paint-order="stroke fill markers" d=" M 285.58551521288376 224.194382522 L 298.15105621288376 230.477153022 L 285.58551521288376 236.759923522 Z"/></g></g><g><text fill="black" stroke="none" font-family="sans-serif" font-size="11pt" font-style="normal" font-weight="normal" text-decoration="normal" x="371.20666916464154" y="266.665911102" text-anchor="start" dominant-baseline="alphabetic" xml:space="preserve">Alice#1234 wishes to connect</text></g><g><path fill="none" stroke="black" paint-order="fill stroke markers" d=" M 313.22970541288373 272.697370782 L 638.6522097072275 272.697370782" stroke-miterlimit="10" stroke-width="1.2565541" stroke-dasharray=""/><g transform="translate(651.0669642152275,272.697370782) translate(-651.0669642152275,-272.697370782)"><path fill="black" stroke="none" paint-order="stroke fill markers" d=" M 638.5014232152274 266.414600282 L 651.0669642152275 272.697370782 L 638.5014232152274 278.98014128200003 Z"/></g></g><g><text fill="black" stroke="none" font-family="sans-serif" font-size="11pt" font-style="normal" font-weight="normal" text-decoration="normal" x="824.7092942618182" y="308.8861288620001" text-anchor="start" dominant-baseline="alphabetic" xml:space="preserve">Initialize user</text><text fill="black" stroke="none" font-family="sans-serif" font-size="11pt" font-style="normal" font-weight="normal" text-decoration="normal" x="824.7092942618182" y="323.96477806200005" text-anchor="start" dominant-baseline="alphabetic" xml:space="preserve">Alice#1234</text></g><g><path fill="none" stroke="black" paint-order="fill stroke markers" d=" M 666.1456134152274 329.996237742 L 1068.9748893015808 329.996237742" stroke-miterlimit="10" stroke-width="1.2565541" stroke-dasharray=""/><g transform="translate(1081.3896438095808,329.996237742) translate(-1081.3896438095808,-329.996237742)"><path fill="black" stroke="none" paint-order="stroke fill markers" d=" M 1068.8241028095808 323.713467242 L 1081.3896438095808 329.996237742 L 1068.8241028095808 336.27900824200003 Z"/></g></g><path fill="white" stroke="black" paint-order="fill stroke markers" d=" M 995.1438564778231 352.61421154199996 L 1169.1432960613388 352.61421154199996 L 1182.7140803413388 366.18499582199996 L 1182.7140803413388 402.373753902 L 995.1438564778231 402.373753902 L 995.1438564778231 352.61421154199996 M 1169.1432960613388 352.61421154199996 L 1169.1432960613388 366.18499582199996 L 1182.7140803413388 366.18499582199996" stroke-miterlimit="10" stroke-width="1.2565541" stroke-dasharray=""/><g><text fill="black" stroke="none" font-family="sans-serif" font-size="11pt" font-style="normal" font-weight="normal" text-decoration="normal" x="1016.2539653578231" y="373.724320422" text-anchor="start" dominant-baseline="alphabetic" xml:space="preserve">This reuses existing</text><text fill="black" stroke="none" font-family="sans-serif" font-size="11pt" font-style="normal" font-weight="normal" text-decoration="normal" x="1016.2539653578231" y="388.802969622" text-anchor="start" dominant-baseline="alphabetic" xml:space="preserve">initialization scripts</text></g><g><text fill="black" stroke="none" font-family="sans-serif" font-size="11pt" font-style="normal" font-weight="normal" text-decoration="normal" x="1124.112483209581" y="438.56251198199993" text-anchor="start" dominant-baseline="alphabetic" xml:space="preserve">Create local user</text></g><g><path fill="none" stroke="black" paint-order="fill stroke markers" d=" M 1096.468293009581 444.59397166199994 L 1164.3222144095807 444.59397166199994 L 1164.3222144095807 464.19621562199995 L 1116.4223721175808 464.19621562199995" stroke-miterlimit="10" stroke-width="1.2565541" stroke-dasharray=""/><g transform="translate(1104.0076176095808,464.19621562199995) translate(-1104.0076176095808,-464.19621562199995)"><path fill="black" stroke="none" paint-order="stroke fill markers" d=" M 1116.5731586095808 457.9134451219999 L 1104.0076176095808 464.19621562199995 L 1116.5731586095808 470.478986122 Z"/></g></g><g><text fill="black" stroke="none" font-family="sans-serif" font-size="11pt" font-style="normal" font-weight="normal" text-decoration="normal" x="1124.112483209581" y="500.3849737019999" text-anchor="start" dominant-baseline="alphabetic" xml:space="preserve">UID 1100</text></g><g><path fill="none" stroke="black" paint-order="fill stroke markers" d=" M 1104.0076176095808 506.4164333819999 L 1164.3222144095807 506.4164333819999 L 1164.3222144095807 526.0186773419999 L 1108.8830475175807 526.0186773419999" stroke-miterlimit="10" stroke-width="1.2565541" stroke-dasharray="6.03145968"/><g transform="translate(1096.4682930095807,526.0186773419999) translate(-1096.4682930095807,-526.0186773419999)"><path fill="black" stroke="none" paint-order="stroke fill markers" d=" M 1109.0338340095807 519.735906842 L 1096.4682930095807 526.0186773419999 L 1109.0338340095807 532.3014478419999 Z"/></g></g><g><text fill="black" stroke="none" font-family="sans-serif" font-size="11pt" font-style="normal" font-weight="normal" text-decoration="normal" x="1124.112483209581" y="562.2074354219999" text-anchor="start" dominant-baseline="alphabetic" xml:space="preserve">Additional config</text><text fill="black" stroke="none" font-family="sans-serif" font-size="11pt" font-style="normal" font-weight="normal" text-decoration="normal" x="1124.112483209581" y="577.2860846219999" text-anchor="start" dominant-baseline="alphabetic" xml:space="preserve">e.g. Slurm account</text></g><g><path fill="none" stroke="black" paint-order="fill stroke markers" d=" M 1096.468293009581 583.3175443019999 L 1164.3222144095807 583.3175443019999 L 1164.3222144095807 602.9197882619999 L 1116.4223721175808 602.9197882619999" stroke-miterlimit="10" stroke-width="1.2565541" stroke-dasharray=""/><g transform="translate(1104.0076176095808,602.9197882619999) translate(-1104.0076176095808,-602.9197882619999)"><path fill="black" stroke="none" paint-order="stroke fill markers" d=" M 1116.5731586095808 596.6370177619999 L 1104.0076176095808 602.9197882619999 L 1116.5731586095808 609.2025587619999 Z"/></g></g><g><text fill="black" stroke="none" font-family="sans-serif" font-size="11pt" font-style="normal" font-weight="normal" text-decoration="normal" x="1124.112483209581" y="639.1085463419998" text-anchor="start" dominant-baseline="alphabetic" xml:space="preserve">OK</text></g><g><path fill="none" stroke="black" paint-order="fill stroke markers" d=" M 1104.0076176095808 645.1400060219999 L 1164.3222144095807 645.1400060219999 L 1164.3222144095807 664.7422499819999 L 1108.8830475175807 664.7422499819999" stroke-miterlimit="10" stroke-width="1.2565541" stroke-dasharray="6.03145968"/><g transform="translate(1096.4682930095807,664.7422499819999) translate(-1096.4682930095807,-664.7422499819999)"><path fill="black" stroke="none" paint-order="stroke fill markers" d=" M 1109.0338340095807 658.4594794819999 L 1096.4682930095807 664.7422499819999 L 1109.0338340095807 671.0250204819998 Z"/></g></g><g><text fill="black" stroke="none" font-family="sans-serif" font-size="11pt" font-style="normal" font-weight="normal" text-decoration="normal" x="812.5259637259295" y="700.9310080619998" text-anchor="start" dominant-baseline="alphabetic" xml:space="preserve">OK: UID 1100, ...</text></g><g><path fill="none" stroke="black" paint-order="fill stroke markers" d=" M 1081.3896438095808 706.9624677419998 L 678.5603679232274 706.9624677419998" stroke-miterlimit="10" stroke-width="1.2565541" stroke-dasharray="6.03145968"/><g transform="translate(666.1456134152274,706.9624677419998) translate(-666.1456134152274,-706.9624677419998)"><path fill="black" stroke="none" paint-order="stroke fill markers" d=" M 678.7111544152275 700.6796972419999 L 666.1456134152274 706.9624677419998 L 678.7111544152275 713.2452382419998 Z"/></g></g><g><text fill="black" stroke="none" font-family="sans-serif" font-size="11pt" font-style="normal" font-weight="normal" text-decoration="normal" x="686.2504790152275" y="743.1512258219999" text-anchor="start" dominant-baseline="alphabetic" xml:space="preserve">Alice#1234 is </text><text fill="black" stroke="none" font-family="sans-serif" font-size="11pt" font-style="normal" font-weight="normal" text-decoration="normal" x="686.2504790152275" y="758.2298750219999" text-anchor="start" dominant-baseline="alphabetic" xml:space="preserve">UID 1100</text></g><g><path fill="none" stroke="black" paint-order="fill stroke markers" d=" M 666.1456134152274 764.2613347019999 L 799.9405901072274 764.2613347019999" stroke-miterlimit="10" stroke-width="1.2565541" stroke-dasharray=""/><g transform="translate(812.3553446152274,764.2613347019999) translate(-812.3553446152274,-764.2613347019999)"><path fill="black" stroke="none" paint-order="stroke fill markers" d=" M 799.7898036152274 757.9785642019999 L 812.3553446152274 764.2613347019999 L 799.7898036152274 770.5441052019999 Z"/></g></g><g><text fill="black" stroke="none" font-family="sans-serif" font-size="11pt" font-style="normal" font-weight="normal" text-decoration="normal" x="728.6671459997856" y="800.4500927819998" text-anchor="start" dominant-baseline="alphabetic" xml:space="preserve">OK</text></g><g><path fill="none" stroke="black" paint-order="fill stroke markers" d=" M 812.3553446152274 806.4815524619999 L 678.5603679232274 806.4815524619999" stroke-miterlimit="10" stroke-width="1.2565541" stroke-dasharray="6.03145968"/><g transform="translate(666.1456134152274,806.4815524619999) translate(-666.1456134152274,-806.4815524619999)"><path fill="black" stroke="none" paint-order="stroke fill markers" d=" M 678.7111544152275 800.1987819619999 L 666.1456134152274 806.4815524619999 L 678.7111544152275 812.7643229619998 Z"/></g></g><g><text fill="black" stroke="none" font-family="sans-serif" font-size="11pt" font-style="normal" font-weight="normal" text-decoration="normal" x="356.81499893759076" y="842.6703105419998" text-anchor="start" dominant-baseline="alphabetic" xml:space="preserve">Mapping for Alice#1234 complete</text></g><g><path fill="none" stroke="black" paint-order="fill stroke markers" d=" M 651.0669642152275 848.7017702219998 L 325.6444599208837 848.7017702219998" stroke-miterlimit="10" stroke-width="1.2565541" stroke-dasharray="6.03145968"/><g transform="translate(313.22970541288373,848.7017702219998) translate(-313.22970541288373,-848.7017702219998)"><path fill="black" stroke="none" paint-order="stroke fill markers" d=" M 325.7952464128837 842.4189997219999 L 313.22970541288373 848.7017702219998 L 325.7952464128837 854.9845407219998 Z"/></g></g><g><text fill="black" stroke="none" font-family="sans-serif" font-size="11pt" font-style="normal" font-weight="normal" text-decoration="normal" x="333.33457101288377" y="884.8905283019998" text-anchor="start" dominant-baseline="alphabetic" xml:space="preserve">Save mapping</text></g><g><path fill="none" stroke="black" paint-order="fill stroke markers" d=" M 313.22970541288373 890.9219879819998 L 446.3246851566416 890.9219879819998" stroke-miterlimit="10" stroke-width="1.2565541" stroke-dasharray=""/><g transform="translate(458.73943966464157,890.9219879819998) translate(-458.73943966464157,-890.9219879819998)"><path fill="black" stroke="none" paint-order="stroke fill markers" d=" M 446.17389866464157 884.6392174819998 L 458.73943966464157 890.9219879819998 L 446.17389866464157 897.2047584819998 Z"/></g></g><g><text fill="black" stroke="none" font-family="sans-serif" font-size="11pt" font-style="normal" font-weight="normal" text-decoration="normal" x="375.4012395233208" y="927.1107460619997" text-anchor="start" dominant-baseline="alphabetic" xml:space="preserve">OK</text></g><g><path fill="none" stroke="black" paint-order="fill stroke markers" d=" M 458.73943966464157 933.1422057419998 L 325.6444599208837 933.1422057419998" stroke-miterlimit="10" stroke-width="1.2565541" stroke-dasharray="6.03145968"/><g transform="translate(313.22970541288373,933.1422057419998) translate(-313.22970541288373,-933.1422057419998)"><path fill="black" stroke="none" paint-order="stroke fill markers" d=" M 325.7952464128837 926.8594352419998 L 313.22970541288373 933.1422057419998 L 325.7952464128837 939.4249762419997 Z"/></g></g><g><text fill="black" stroke="none" font-family="sans-serif" font-size="11pt" font-style="normal" font-weight="normal" text-decoration="normal" x="145.99935758173484" y="969.3309638219997" text-anchor="start" dominant-baseline="alphabetic" xml:space="preserve">Success</text></g><g><path fill="none" stroke="black" paint-order="fill stroke markers" d=" M 298.15105621288376 975.3624235019997 L 65.34574552035352 975.3624235019997" stroke-miterlimit="10" stroke-width="1.2565541" stroke-dasharray="6.03145968"/><g transform="translate(52.930991012353516,975.3624235019997) translate(-52.930991012353516,-975.3624235019997)"><path fill="black" stroke="none" paint-order="stroke fill markers" d=" M 65.49653201235351 969.0796530019998 L 52.930991012353516 975.3624235019997 L 65.49653201235351 981.6451940019997 Z"/></g></g><path fill="none" stroke="black" paint-order="fill stroke markers" d=" M 7.5393246000000005 1010.2946274819997 L 1288.4606754 1010.2946274819997 M 7.5393246000000005 1015.3208438819996 L 1288.4606754 1015.3208438819996 M 7.5393246000000005 1020.3470602819996 L 1288.4606754 1020.3470602819996" stroke-miterlimit="10" stroke-width="1.2565541" stroke-dasharray=""/><path fill="white" stroke="black" paint-order="fill stroke markers" d=" M 406.5065598211719 997.9803973019997 L 889.4934401788281 997.9803973019997 L 889.4934401788281 1032.6612904619997 L 406.5065598211719 1032.6612904619997 Z" stroke-miterlimit="10" stroke-width="1.2565541" stroke-dasharray=""/><g><text fill="black" stroke="none" font-family="sans-serif" font-size="11pt" font-style="normal" font-weight="normal" text-decoration="normal" x="427.6166687011719" y="1019.0905061819997" text-anchor="start" dominant-baseline="alphabetic" xml:space="preserve"> Alice#1234 can now consume resources from the provider </text></g></g></g></svg>