<svg viewBox="0 0 1276 1458" xmlns="http://www.w3.org/2000/svg" fill-rule="evenodd" clip-rule="evenodd" stroke-linecap="round" stroke-linejoin="round" stroke-miterlimit="1.5"><path d="M3634.01,7695.94L3940.87,7105.39L3429.44,7400.66L3634.01,7695.94Z" fill="url(#_Linear1)" transform="matrix(1,0,0,1,-538.475,-7395.28) matrix(1.32983,0,0,1,-2929.39,220.709) matrix(1,0,0,1,38.4584,147.638) matrix(0.751975,0,0,1,84.855,59.0551) matrix(1,0,0,1,0.827725,0.751335)"/><path d="M3429.44,7991.21L3634.01,7695.94L3429.44,7400.66L3429.44,7991.21Z" fill="url(#_Linear2)" transform="matrix(1,0,0,1,-538.475,-7395.28) matrix(1.32983,0,0,1,-2929.39,220.709) matrix(1,0,0,1,38.4584,147.638) matrix(0.751975,0,0,1,84.855,59.0551) matrix(1,0,0,1,0.827725,0.751335)"/><path d="M3940.87,8286.49L3634.01,7695.94L3429.44,7991.21L3940.87,8286.49Z" fill="url(#_Linear3)" transform="matrix(1,0,0,1,-538.475,-7395.28) matrix(1.32983,0,0,1,-2929.39,220.709) matrix(1,0,0,1,38.4584,147.638) matrix(0.751975,0,0,1,84.855,59.0551) matrix(1,0,0,1,0.827725,0.751335)"/><path d="M3940.87,8286.49L4094.3,7961.69L3634.01,7695.94L3940.87,8286.49Z" fill="url(#_Linear4)" transform="matrix(1,0,0,1,-538.475,-7395.28) matrix(1.32983,0,0,1,-2929.39,220.709) matrix(1,0,0,1,38.4584,147.638) matrix(0.751975,0,0,1,84.855,59.0551) matrix(1,0,0,1,0.827725,0.751335)"/><path d="M4452.3,7991.21L4094.3,7961.69L3940.87,8286.49L4452.3,7991.21Z" fill="url(#_Linear5)" transform="matrix(1,0,0,1,-538.475,-7395.28) matrix(1.32983,0,0,1,-2929.39,220.709) matrix(1,0,0,1,38.4584,147.638) matrix(0.751975,0,0,1,84.855,59.0551) matrix(1,0,0,1,0.827725,0.751335)"/><path d="M4196.59,7489.24L4094.3,7961.69L3634.01,7695.94L4196.59,7489.24Z" fill="url(#_Linear6)" transform="matrix(1,0,0,1,-538.475,-7395.28) matrix(1.32983,0,0,1,-2929.39,220.709) matrix(1,0,0,1,38.4584,147.638) matrix(0.751975,0,0,1,84.855,59.0551) matrix(1,0,0,1,0.827725,0.751335)"/><path d="M3940.87,7105.39L4196.59,7489.24L3634.01,7695.94L3940.87,7105.39Z" fill="url(#_Linear7)" transform="matrix(1,0,0,1,-538.475,-7395.28) matrix(1.32983,0,0,1,-2929.39,220.709) matrix(1,0,0,1,38.4584,147.638) matrix(0.751975,0,0,1,84.855,59.0551) matrix(1,0,0,1,0.827725,0.751335)"/><path d="M4452.3,7400.66L4196.59,7489.24L3940.87,7105.39L4452.3,7400.66Z" fill="url(#_Linear8)" transform="matrix(1,0,0,1,-538.475,-7395.28) matrix(1.32983,0,0,1,-2929.39,220.709) matrix(1,0,0,1,38.4584,147.638) matrix(0.751975,0,0,1,84.855,59.0551) matrix(1,0,0,1,0.827725,0.751335)"/><path d="M4452.3,7991.21L4196.59,7489.24L4094.3,7961.69L4452.3,7991.21Z" fill="url(#_Linear9)" transform="matrix(1,0,0,1,-538.475,-7395.28) matrix(1.32983,0,0,1,-2929.39,220.709) matrix(1,0,0,1,38.4584,147.638) matrix(0.751975,0,0,1,84.855,59.0551) matrix(1,0,0,1,0.827725,0.751335)"/><path d="M4452.3,7400.66L4196.59,7489.24L4452.3,7991.21L4452.3,7400.66Z" fill="url(#_Linear10)" transform="matrix(1,0,0,1,-538.475,-7395.28) matrix(1.32983,0,0,1,-2929.39,220.709) matrix(1,0,0,1,38.4584,147.638) matrix(0.751975,0,0,1,84.855,59.0551) matrix(1,0,0,1,0.827725,0.751335)"/><g><path d="M3582.87 7725.47L3940.87 7016.8 3352.72 7356.37 3582.87 7725.47zM3352.72 8035.5L3940.87 8375.07 3582.87 7725.47 3352.72 8035.5zM3940.87 7016.8L3582.87 7725.47 4247.73 7459.72 3940.87 7016.8z" fill="none" stroke="#fff" stroke-opacity=".4" stroke-width="25px" transform="matrix(1,0,0,1,-538.475,-7395.28) matrix(1.32983,0,0,1,-2929.39,220.709) matrix(1,0,0,1,38.4584,147.638) matrix(0.751975,0,0,1,84.855,59.0551) matrix(1,0,0,1,0.827725,0.751335)"/><path d="M3352.72 8035.5L3582.87 7725.47 3352.72 7356.37 3352.72 8035.5zM4094.3 8020.74L4247.73 7459.72 3582.87 7725.47 4094.3 8020.74z" fill="none" stroke="#fff" stroke-opacity=".4" stroke-width="25px" transform="matrix(1,0,0,1,-538.475,-7395.28) matrix(1.32983,0,0,1,-2929.39,220.709) matrix(1,0,0,1,38.4584,147.638) matrix(0.751975,0,0,1,84.855,59.0551) matrix(1,0,0,1,0.827725,0.751335)"/><path d="M3582.87 7725.47L4094.3 8020.74 3940.87 8375.07 3582.87 7725.47zM3940.87 7016.8L4247.73 7459.72 4529.02 7356.37 3940.87 7016.8zM4529.02 8035.5L4247.73 7459.72 4094.3 8020.74 4529.02 8035.5z" fill="none" stroke="#fff" stroke-opacity=".4" stroke-width="25px" transform="matrix(1,0,0,1,-538.475,-7395.28) matrix(1.32983,0,0,1,-2929.39,220.709) matrix(1,0,0,1,38.4584,147.638) matrix(0.751975,0,0,1,84.855,59.0551) matrix(1,0,0,1,0.827725,0.751335)"/><path d="M3940.87 8375.07L4094.3 8020.74 4529.02 8035.5 3940.87 8375.07zM4529.02 7356.37L4529.02 8035.5 4247.73 7459.72 4529.02 7356.37z" fill="none" stroke="#fff" stroke-opacity=".4" stroke-width="25px" transform="matrix(1,0,0,1,-538.475,-7395.28) matrix(1.32983,0,0,1,-2929.39,220.709) matrix(1,0,0,1,38.4584,147.638) matrix(0.751975,0,0,1,84.855,59.0551) matrix(1,0,0,1,0.827725,0.751335)"/><path d="M3940.87,7016.8L4529.02,7356.37L4529.02,8035.5L3940.87,8375.07L3352.72,8035.5L3352.72,7356.37L3940.87,7016.8Z" fill="none" stroke="#fff" stroke-opacity=".4" stroke-width="25px" transform="matrix(1,0,0,1,-538.475,-7395.28) matrix(1.32983,0,0,1,-2929.39,220.709) matrix(1,0,0,1,38.4584,147.638) matrix(0.751975,0,0,1,84.855,59.0551) matrix(1,0,0,1,0.827725,0.751335)"/><circle cx="3940.87" cy="7046.33" r="25.572" fill="#fcfcfc" stroke="#fff" stroke-opacity=".568627" stroke-width="10.31px" transform="matrix(1,0,0,1,-538.475,-7395.28) matrix(1.32983,0,0,1,-2929.39,220.709) matrix(1,0,0,1,38.4584,147.638) matrix(0.751975,0,0,1,84.855,59.0551) matrix(1.61658,0,0,1.61658,-2429.04,-4373.41)"/><circle cx="3940.87" cy="7046.33" r="25.572" fill="#fcfcfc" stroke="#fff" stroke-opacity=".568627" stroke-width="10.31px" transform="matrix(1,0,0,1,-538.475,-7395.28) matrix(1.32983,0,0,1,-2929.39,220.709) matrix(1,0,0,1,38.4584,147.638) matrix(0.751975,0,0,1,84.855,59.0551) matrix(1.61658,0,0,1.61658,-1840.89,-3354.71)"/><circle cx="3940.87" cy="7046.33" r="25.572" fill="#fcfcfc" stroke="#fff" stroke-opacity=".568627" stroke-width="10.31px" transform="matrix(1,0,0,1,-538.475,-7395.28) matrix(1.32983,0,0,1,-2929.39,220.709) matrix(1,0,0,1,38.4584,147.638) matrix(0.751975,0,0,1,84.855,59.0551) matrix(1.61658,0,0,1.61658,-2429.04,-3015.14)"/><circle cx="3940.87" cy="7046.33" r="25.572" fill="#fcfcfc" stroke="#fff" stroke-opacity=".568627" stroke-width="10.31px" transform="matrix(1,0,0,1,-538.475,-7395.28) matrix(1.32983,0,0,1,-2929.39,220.709) matrix(1,0,0,1,38.4584,147.638) matrix(0.751975,0,0,1,84.855,59.0551) matrix(1.61658,0,0,1.61658,-3017.18,-3354.71)"/><circle cx="3940.87" cy="7046.33" r="25.572" fill="#fcfcfc" stroke="#fff" stroke-opacity=".568627" stroke-width="10.31px" transform="matrix(1,0,0,1,-538.475,-7395.28) matrix(1.32983,0,0,1,-2929.39,220.709) matrix(1,0,0,1,38.4584,147.638) matrix(0.751975,0,0,1,84.855,59.0551) matrix(1.61658,0,0,1.61658,-3017.18,-4033.84)"/><circle cx="3940.87" cy="7046.33" r="25.572" fill="#fcfcfc" stroke="#fff" stroke-opacity=".568627" stroke-width="10.31px" transform="matrix(1,0,0,1,-538.475,-7395.28) matrix(1.32983,0,0,1,-2929.39,220.709) matrix(1,0,0,1,38.4584,147.638) matrix(0.751975,0,0,1,84.855,59.0551) matrix(1.61658,0,0,1.61658,-1840.89,-4033.84)"/><circle cx="3940.87" cy="7046.33" r="25.572" fill="#fcfcfc" stroke="#fff" stroke-opacity=".568627" stroke-width="10.02px" transform="matrix(1,0,0,1,-538.475,-7395.28) matrix(1.32983,0,0,1,-2929.39,220.709) matrix(1,0,0,1,38.4584,147.638) matrix(0.751975,0,0,1,84.855,59.0551) matrix(2.07846,0,0,2.07846,-3942.39,-7185.06)"/><circle cx="3940.87" cy="7046.33" r="25.572" fill="#fcfcfc" stroke="#fff" stroke-opacity=".568627" stroke-width="10.02px" transform="matrix(1,0,0,1,-538.475,-7395.28) matrix(1.32983,0,0,1,-2929.39,220.709) matrix(1,0,0,1,38.4584,147.638) matrix(0.751975,0,0,1,84.855,59.0551) matrix(2.07846,0,0,2.07846,-4095.82,-6624.03)"/><circle cx="3940.87" cy="7046.33" r="25.572" fill="#fcfcfc" stroke="#fff" stroke-opacity=".568627" stroke-width="10.02px" transform="matrix(1,0,0,1,-538.475,-7395.28) matrix(1.32983,0,0,1,-2929.39,220.709) matrix(1,0,0,1,38.4584,147.638) matrix(0.751975,0,0,1,84.855,59.0551) matrix(2.07846,0,0,2.07846,-4607.25,-6919.31)"/></g><defs><linearGradient id="_Linear1" x2="1" gradientUnits="userSpaceOnUse" gradientTransform="matrix(357.283,-112.425,112.425,357.283,3499.44,7383.1)"><stop offset="0" stop-color="#a1c4f5"/><stop offset="1" stop-color="#2a79e7"/></linearGradient><linearGradient id="_Linear2" x2="1" gradientUnits="userSpaceOnUse" gradientTransform="matrix(159.146,-38.973,38.973,159.146,3457.16,7679.6)"><stop offset="0" stop-color="#649dee"/><stop offset="1" stop-color="#b8d3f7"/></linearGradient><linearGradient id="_Linear3" x2="1" gradientUnits="userSpaceOnUse" gradientTransform="matrix(-281.288,-260.858,260.858,-281.288,3838.58,8178.25)"><stop offset="0" stop-color="#124fa3"/><stop offset="1" stop-color="#1764d1"/></linearGradient><linearGradient id="_Linear4" x2="1" gradientUnits="userSpaceOnUse" gradientTransform="matrix(277.847,-15.5453,15.5453,277.847,3788.48,8020.14)"><stop offset="0" stop-color="#124fa3"/><stop offset="0.58" stop-color="#1b5ab1"/><stop offset="0.8" stop-color="#2e71ce"/><stop offset="1" stop-color="#4087ea"/></linearGradient><linearGradient id="_Linear5" x2="1" gradientUnits="userSpaceOnUse" gradientTransform="matrix(445.147,-236.284,236.284,445.147,4005.86,8168.77)"><stop offset="0" stop-color="#2f7ce8"/><stop offset="1" stop-color="#a7c7f5"/></linearGradient><linearGradient id="_Linear6" x2="1" gradientUnits="userSpaceOnUse" gradientTransform="matrix(2.10332e-14,-343.498,343.498,2.10332e-14,4043.16,7894.51)"><stop offset="0" stop-color="#5494ec"/><stop offset="0.46" stop-color="#2366c4"/><stop offset="1" stop-color="#1559b9"/></linearGradient><linearGradient id="_Linear7" x2="1" gradientUnits="userSpaceOnUse" gradientTransform="matrix(177.742,-418.877,418.877,177.742,3788.74,7606.61)"><stop offset="0" stop-color="#1e71e6"/><stop offset="1" stop-color="#10448d"/></linearGradient><linearGradient id="_Linear8" x2="1" gradientUnits="userSpaceOnUse" gradientTransform="matrix(407.85,213.188,-213.188,407.85,4043.16,7189.72)"><stop offset="0" stop-color="#124ea2"/><stop offset="1" stop-color="#4086ea"/></linearGradient><linearGradient id="_Linear9" x2="1" gradientUnits="userSpaceOnUse" gradientTransform="matrix(-122.695,-335.09,335.09,-122.695,4344.85,7927.68)"><stop offset="0" stop-color="#dbe8fb"/><stop offset="1" stop-color="#1763cd"/></linearGradient><linearGradient id="_Linear10" x2="1" gradientUnits="userSpaceOnUse" gradientTransform="matrix(-30.4285,-529.517,529.517,-30.4285,4391.87,7877.72)"><stop offset="0" stop-color="#0e3e80"/><stop offset="1" stop-color="#2475e7"/></linearGradient></defs></svg>