<svg version="1.1" xmlns="http://www.w3.org/2000/svg" xmlns:xlink="http://www.w3.org/1999/xlink" width="1208" height="709"><defs/><g><g/><g/><g/><g/><g/><g/><g/><g/><g/><g/><g/><g/><g/><g/><g/><g/><g/><g/><g/><g/><g/><g/><g/><g><rect fill="white" stroke="none" x="0" y="0" width="1208" height="709"/></g><g><g><path fill="lightgreen" stroke="black" paint-order="fill stroke markers" d=" M 219.3240565629394 58.505158896000005 L 461.2692104622978 58.505158896000005 L 461.2692104622978 702.438872982 L 219.3240565629394 702.438872982 L 219.3240565629394 58.505158896000005" stroke-miterlimit="10" stroke-width="1.2565541" stroke-dasharray=""/></g><g><text fill="black" stroke="none" font-family="sans-serif" font-size="11pt" font-style="normal" font-weight="bold" text-decoration="normal" x="305.36329916203266" y="79.615267776" text-anchor="start" dominant-baseline="alphabetic" xml:space="preserve"> UCloud</text><text fill="black" stroke="none" font-family="sans-serif" font-size="11pt" font-style="normal" font-weight="bold" text-decoration="normal" x="305.36329916203266" y="94.693916976" text-anchor="start" dominant-baseline="alphabetic" xml:space="preserve">Network</text></g><g><path fill="lightblue" stroke="black" paint-order="fill stroke markers" d=" M 476.34785966229776 23.824265736 L 1201.1324477679343 23.824265736 L 1201.1324477679343 702.438872982 L 476.34785966229776 702.438872982 L 476.34785966229776 23.824265736" stroke-miterlimit="10" stroke-width="1.2565541" stroke-dasharray=""/></g><g><text fill="black" stroke="none" font-family="sans-serif" font-size="11pt" font-style="normal" font-weight="bold" text-decoration="normal" x="803.5651544780555" y="44.934374616" text-anchor="start" dominant-baseline="alphabetic" xml:space="preserve">Provider</text><text fill="black" stroke="none" font-family="sans-serif" font-size="11pt" font-style="normal" font-weight="bold" text-decoration="normal" x="803.5651544780555" y="60.013023816" text-anchor="start" dominant-baseline="alphabetic" xml:space="preserve">Network</text></g><g><path fill="lightyellow" stroke="black" paint-order="fill stroke markers" d=" M 483.88718426229775 73.58380809600001 L 792.5818247051063 73.58380809600001 L 792.5818247051063 702.438872982 L 483.88718426229775 702.438872982 L 483.88718426229775 73.58380809600001" stroke-miterlimit="10" stroke-width="1.2565541" stroke-dasharray=""/></g><g><text fill="black" stroke="none" font-family="sans-serif" font-size="11pt" font-style="normal" font-weight="bold" text-decoration="normal" x="567.167838834288" y="94.69391697600001" text-anchor="start" dominant-baseline="alphabetic" xml:space="preserve">New components</text></g><g><path fill="pink" stroke="black" paint-order="fill stroke markers" d=" M 807.6604739051063 104.19346597200001 L 1193.5931231679344 104.19346597200001 L 1193.5931231679344 702.438872982 L 807.6604739051063 702.438872982 L 807.6604739051063 104.19346597200001" stroke-miterlimit="10" stroke-width="1.2565541" stroke-dasharray=""/></g><g><text fill="black" stroke="none" font-family="sans-serif" font-size="11pt" font-style="normal" font-weight="bold" text-decoration="normal" x="914.3267954847626" y="125.30357485200001" text-anchor="start" dominant-baseline="alphabetic" xml:space="preserve">Existing components</text></g></g><g><path fill="none" stroke="black" paint-order="fill stroke markers" d=" M 52.930991012353516 180.71761066200003 L 52.930991012353516 702.438872982" stroke-miterlimit="10" stroke-width="1.2565541" stroke-dasharray="11.598960923076923,5.0262164"/><path fill="none" stroke="black" paint-order="fill stroke markers" d=" M 269.5570495140556 180.71761066200003 L 269.5570495140556 702.438872982" stroke-miterlimit="10" stroke-width="1.2565541" stroke-dasharray="11.598960923076923,5.0262164"/><path fill="none" stroke="black" paint-order="fill stroke markers" d=" M 414.3798873881767 180.71761066200003 L 414.3798873881767 702.438872982" stroke-miterlimit="10" stroke-width="1.2565541" stroke-dasharray="11.598960923076923,5.0262164"/><path fill="none" stroke="black" paint-order="fill stroke markers" d=" M 577.2451791207626 180.71761066200003 L 577.2451791207626 702.438872982" stroke-miterlimit="10" stroke-width="1.2565541" stroke-dasharray="11.598960923076923,5.0262164"/><path fill="none" stroke="black" paint-order="fill stroke markers" d=" M 731.5924993421669 180.71761066200003 L 731.5924993421669 702.438872982" stroke-miterlimit="10" stroke-width="1.2565541" stroke-dasharray="11.598960923076923,5.0262164"/><path fill="none" stroke="black" paint-order="fill stroke markers" d=" M 1000.6267985365204 180.71761066200003 L 1000.6267985365204 702.438872982" stroke-miterlimit="10" stroke-width="1.2565541" stroke-dasharray="11.598960923076923,5.0262164"/></g><g><g><path fill="white" stroke="black" paint-order="fill stroke markers" d=" M 61.525821056353514 101.85627534600002 A 8.594830044 8.594830044 0 1 1 61.52581675893885 101.84768051738848 M 52.930991012353516 110.45110539000001 L 52.930991012353516 128.847057414 M 42.07436358835351 117.08571103800001 L 63.78761843635352 117.08571103800001 M 52.930991012353516 128.847057414 L 42.07436358835351 146.03671750200002 M 52.930991012353516 128.847057414 L 63.78761843635352 146.03671750200002" stroke-miterlimit="10" stroke-width="2.5633703640000003" stroke-dasharray=""/></g><g><text fill="black" stroke="none" font-family="sans-serif" font-size="11pt" font-style="normal" font-weight="normal" text-decoration="normal" x="7.5393246000000005" y="161.11536670200002" text-anchor="start" dominant-baseline="alphabetic" xml:space="preserve">UCloud User</text><text fill="black" stroke="none" font-family="sans-serif" font-size="11pt" font-style="normal" font-weight="normal" text-decoration="normal" x="10.464323837060547" y="176.19401590200002" text-anchor="start" dominant-baseline="alphabetic" xml:space="preserve">Alice#1234</text></g><path fill="none" stroke="none"/><g><path fill="white" stroke="black" paint-order="fill stroke markers" d=" M 226.86338116293942 140.15604431400004 L 312.25071786517185 140.15604431400004 L 312.25071786517185 180.71761066200003 L 226.86338116293942 180.71761066200003 L 226.86338116293942 140.15604431400004 Z" stroke-miterlimit="10" stroke-width="2.4125838720000004" stroke-dasharray=""/></g><g><text fill="black" stroke="none" font-family="sans-serif" font-size="11pt" font-style="normal" font-weight="normal" text-decoration="normal" x="243.2237155449394" y="165.63896146200003" text-anchor="start" dominant-baseline="alphabetic" xml:space="preserve">UCloud</text></g><g><path fill="white" stroke="black" paint-order="fill stroke markers" d=" M 392.36505955617673 151.16345823 L 392.36505955617673 119.49829491000001 L 436.3947152201767 119.49829491000001 L 436.3947152201767 151.16345823" stroke-miterlimit="10" stroke-width="2.5633703640000003" stroke-dasharray=""/><path fill="white" stroke="black" paint-order="fill stroke markers" d=" M 436.3947152201767 118.39755351840002 L 436.3936144879579 118.4970709444769 L 436.3903124013739 118.5965784188941 L 436.38480929063047 118.69606599098711 L 436.3771057060342 118.79552371208162 L 436.36720241793705 118.8949416364884 L 436.3551004166597 118.99430982249787 L 436.34080091239207 119.09361833337421 L 436.3243053350727 119.19285723834912 L 436.30561533424566 119.29201661361478 L 436.2847327788953 119.39108654331629 L 436.2616597572599 119.49005712054326 L 436.2363985766224 119.58891844832043 L 436.20895176307965 119.68766064059741 L 436.1793220612903 119.78627382323727 L 436.1475124341997 119.88474813500389 L 436.1135260627442 119.98307372854818 L 436.07736634553254 120.08124077139271 L 436.0390368985063 120.17923944691502 L 435.99854155457825 120.27705995532921 L 435.9558843632491 120.37469251466595 L 435.9110695902023 120.4721273617507 L 435.86410171687794 120.5693547531799 L 435.81498544002415 120.66636496629543 L 435.7637256712277 120.76314830015687 L 435.7103275364227 120.85969507651144 L 435.6547963753783 120.955995640762 L 435.5971377411641 121.05204036293233 L 435.53735739959563 121.14781963863028 L 435.47546132865716 121.24332389000809 L 435.4114557179043 121.33854356672019 L 435.34534696784465 121.4334691468783 L 435.27714168929816 121.52809113800346 L 435.20684670273596 121.62240007797544 L 435.134469037598 121.71638653597883 L 435.06001593159056 121.81004111344615 L 434.9834948299621 121.90335444499769 L 434.90491338475914 121.99631719937807 L 434.8242794540606 122.0889200803893 L 434.74160110119243 122.18115382782047 L 434.656886593921 122.27300921837367 L 434.57014440362644 122.36447706658642 L 434.4813832044555 122.4555482257501 L 434.39061187245414 122.54621358882471 L 434.29783948467986 122.63646408934949 L 434.20307531829417 122.72629070234957 L 434.10632884963474 122.81568444523853 L 434.00760975326784 122.90463637871657 L 433.90692790102077 122.99313760766448 L 433.80429336099496 123.08117928203309 L 433.69971639655876 123.16875259772834 L 433.59320746532154 123.25584879749167 L 433.48477721808763 123.34245917177563 L 433.37443649779146 123.428575059615 L 433.26219633841305 123.51418784949276 L 433.14806796387484 123.59928898020125 L 433.03206278691914 123.68386994169833 L 432.914192407967 123.76792227595833 L 432.79446861395803 123.85143757781786 L 432.67290337717196 123.93440749581634 L 432.5495088540311 124.0168237330311 L 432.424297383885 124.09867804790713 L 432.2972814877763 124.17996225508111 L 432.1684738671887 124.26066822620008 L 432.03788740277696 124.34078789073419 L 431.90553515307874 124.42031323678374 L 431.7714303532087 124.49923631188041 L 431.635586413535 124.57754922378244 L 431.4980169183385 124.65524414126392 L 431.3587356244541 124.73231329489784 L 431.21775645989504 124.80874897783305 L 431.0750935224603 124.88454354656496 L 430.93076107832474 124.95968942169986 L 430.7847735606125 125.03417908871288 L 430.6371455679538 125.10800509869935 L 430.4878918630247 125.18116006911981 L 430.33702737107143 125.2536366845382 L 430.18456717841747 125.32542769735335 L 430.030526530955 125.39652592852383 L 429.8749208326204 125.46692426828574 L 429.7177656438538 125.53661567686379 L 429.55907668004323 125.60559318517518 L 429.3988698099527 125.67384989552659 L 429.2371610541358 125.74137898230383 L 429.0739665833333 125.80817369265452 L 428.9093027168563 125.8742273471633 L 428.74318592095426 125.93953334051972 L 428.57563280716835 126.0040851421789 L 428.4066601306703 126.06787629701445 L 428.23628478858683 126.13090042596406 L 428.06452381831036 126.19315122666735 L 427.8913943957947 126.25462247409612 L 427.7169138338378 126.31530802117686 L 427.54109958035053 126.37520179940542 L 427.3639692166116 126.4342978194539 L 427.18554045550997 126.49259017176955 L 427.00583113977285 126.5500730271657 L 426.8248592401822 126.6067406374047 L 426.64264285377715 126.66258733577278 L 426.4592002020444 126.71760753764663 L 426.2745496290964 126.7717957410519 L 426.0887095998365 126.82514652721343 L 425.9016986981127 126.87765456109705 L 425.7135356248594 126.92931459194313 L 425.5242391962271 126.98012145379161 L 425.3338283417009 127.03007006599869 L 425.14232210220763 127.07915543374473 L 424.9497396282116 127.12737264853389 L 424.7561001777998 127.17471688868487 L 424.5614231147558 127.22118341981309 L 424.36572790662376 127.26676759530417 L 424.16903412276133 127.31146485677856 L 423.9713614323831 127.35527073454733 L 423.7727296025933 127.39818084805923 L 423.5731584964094 127.44019090633866 L 423.3726680707757 127.4812967084148 L 423.1712783745677 127.5214941437417 L 422.9690095465872 127.56077919260933 L 422.76588181354845 127.59914792654554 L 422.56191548805543 127.63659650870889 L 422.35713096657076 127.6731211942724 L 422.151548727376 127.70871833079792 L 421.9451893285236 127.7433843586015 L 421.7380734057816 127.77711581110921 L 421.53022167056963 127.80990931520392 L 421.32165490788805 127.84176159156257 L 421.11239397423924 127.87266945498405 L 420.90245979554226 127.90262981470777 L 420.69187336504 127.93163967472273 L 420.4806557412 127.9596961340671 L 420.26882804560864 127.98679638711833 L 420.056411460859 128.0129377238737 L 419.8434272284325 128.0381175302213 L 419.62989664657493 128.06233328820153 L 419.4158410681665 128.0855825762587 L 419.20128189858667 128.10786306948344 L 418.98624059357365 128.12917253984494 L 418.7707386570787 128.14950885641397 L 418.55479763911586 128.1688699855758 L 418.33843913360704 128.18725399123366 L 418.1216847762224 128.2046590350023 L 417.9045562422172 128.22108337639182 L 417.6870752442637 128.2365253729818 L 417.46926353028067 128.2509834805854 L 417.25114288125786 128.26445625340398 L 417.0327351090785 128.27694234417146 L 416.8140620543377 128.28844050428916 L 416.59514558415873 128.29894958395062 L 416.3760075900062 128.30846853225668 L 416.156669985497 128.31699639732042 L 415.93715470420864 128.32453232636243 L 415.7174836974864 128.3310755657961 L 415.49767893224794 128.33662546130296 L 415.2777623887865 128.34118145789805 L 415.05775605857326 128.34474309998552 L 414.8376819420578 128.34731003140413 L 414.61756204646855 128.34888199546288 L 414.3974183836115 128.34945883496667 L 414.1772729676695 128.349040492232 L 413.95714781300074 128.34762700909286 L 413.7370649319372 128.34521852689633 L 413.51704633258356 128.34181528648867 L 413.2971140166165 128.33741762819102 L 413.07728997708426 128.33202599176562 L 412.8575961962076 128.32564091637155 L 412.63805464318165 128.31826304051108 L 412.4186872719786 128.30989310196566 L 412.1995160191529 128.3005319377221 L 411.98056280164707 128.29018048388906 L 411.7618495146005 128.2788397756033 L 411.5433980291596 128.26651094692622 L 411.3252301902909 128.25319523073037 L 411.1073678145964 128.2388939585763 L 410.8898326881322 128.2236085605793 L 410.6726465642296 128.20734056526643 L 410.45583116132 128.19009159942368 L 410.2394081607631 128.17186338793326 L 410.0233992046786 128.1526577536011 L 409.80782589378197 128.13247661697466 L 409.5927097852248 128.11132199615074 L 409.3780723904386 128.08919600657384 L 409.163935172984 128.0661008608245 L 408.95031954640433 128.04203886839798 L 408.7372468720842 128.0170124354735 L 408.52473845711353 127.99102406467351 L 408.3128155521566 127.96407635481341 L 408.1014993493275 127.93617200064178 L 407.8908109800703 127.90731379257072 L 407.6807715130463 127.87750461639702 L 407.4714019520273 127.84674745301346 L 407.2627232337948 127.81504537811074 L 407.05475622604683 127.78240156186993 L 406.8475217253108 127.74881926864545 L 406.6410404548641 127.71430185663864 L 406.43533306266175 127.67885277756194 L 406.23042011927146 127.64247557629372 L 406.0263221158169 127.60517389052379 L 405.82305946192827 127.56695145038962 L 405.62065248370163 127.52781207810341 L 405.4191214216661 127.48775968756975 L 405.2184864287599 127.44679828399431 L 405.0187675683152 127.40493196348334 L 404.8199848120516 127.36216491263397 L 404.62215803807896 127.31850140811567 L 404.42530702891 127.27394581624249 L 404.2294514694815 127.22850259253649 L 404.0346109451862 127.18217628128218 L 403.84080493991416 127.13497151507208 L 403.6480528341044 127.08689301434347 L 403.4563739028069 127.03794558690636 L 403.265787313755 126.9881341274627 L 403.07631212544885 126.93746361711693 L 402.8879672852494 126.88593912287786 L 402.70077162748356 126.83356579715196 L 402.51474387156134 126.78034887722818 L 402.32990262010316 126.72629368475415 L 402.14626635708015 126.67140562520409 L 401.9638534459656 126.61569018733819 L 401.7826821278986 126.55915294265382 L 401.60277051986003 126.50179954482836 L 401.4241366128607 126.44363572915375 L 401.24679827014245 126.38466731196311 L 401.07077322539186 126.32490019004902 L 400.8960790809666 126.26434034007389 L 400.72273330613564 126.2029938179722 L 400.55075323533197 126.14086675834507 L 400.3801560664193 126.07796537384668 L 400.21095885897245 126.01429595456308 L 400.04317853257106 125.94986486738313 L 399.87683186510804 125.88467855536184 L 399.7119354911115 125.81874353707612 L 399.5485059000814 125.75206640597281 L 399.38655943484065 125.6846538297095 L 399.22611228990087 125.61651254948762 L 399.0671805098428 125.54764937937843 L 398.909779987712 125.47807120564151 L 398.7539264634296 125.40778498603629 L 398.599635522218 125.33679774912613 L 398.44692259304287 125.2651165935756 L 398.29580294706983 125.1927486874405 L 398.1462916961375 125.11970126745113 L 397.99840379124646 125.04598163828864 L 397.85215402106394 124.97159717185448 L 397.70755701044504 124.89655530653334 L 397.5646272189703 124.8208635464492 L 397.4233789394999 124.744529460715 L 397.28382629674394 124.6675606826757 L 397.14598324585046 124.58996490914495 L 397.0098635710097 124.51174989963546 L 396.87548088407567 124.432923475583 L 396.7428486232051 124.35349351956427 L 396.6119800515135 124.27346797450868 L 396.48288825574906 124.19285484290407 L 396.35558614498376 124.11166218599641 L 396.2300864493226 124.02989812298372 L 396.1064017186305 123.9475708302042 L 395.9845443212775 123.86468854031848 L 395.86452644290176 123.7812595414865 L 395.74636008519116 123.69729217653864 L 395.630057064683 123.61279484214138 L 395.51562901158235 123.52777598795777 L 395.4030873685992 123.44224411580237 L 395.2924433898041 123.35620777879113 L 395.18370813950264 123.26967558048605 L 395.0768924911293 123.18265617403485 L 394.9720071261599 123.09515826130566 L 394.86906253304346 123.00719059201683 L 394.7680690061536 122.91876196286199 L 394.6690366447589 122.82988121663037 L 394.57197535201277 122.74055724132252 L 394.4768948339638 122.65079896926153 L 394.38380459858445 122.56061537619982 L 394.29271395482067 122.47001548042154 L 394.203632011661 122.37900834184076 L 394.11656767722553 122.28760306109551 L 394.03152965787507 122.19580877863768 L 393.94852645734073 122.10363467381903 L 393.8675663758734 122.01108996397322 L 393.7886575094138 121.91818390349414 L 393.71180774878275 121.82492578291038 L 393.6370247788923 121.73132492795632 L 393.5643160779771 121.63739069863944 L 393.4936889168466 121.54313248830438 L 393.42515035815825 121.44855972269364 L 393.3587072557106 121.35368185900496 L 393.29436625375865 121.25850838494567 L 393.2321337863489 121.16304881778383 L 393.1720160766763 121.06731270339662 L 393.11401913646165 120.97130961531572 L 393.05814876535067 120.87504915376991 L 393.00441055033394 120.77854094472514 L 392.95280986518816 120.68179463892189 L 392.90335186993883 120.5848199109101 L 392.85604151034426 120.48762645808178 L 392.810883517401 120.39022399970122 L 392.7678824068707 120.29262227593307 L 392.7270424788286 120.1948310468684 L 392.6883678172335 120.0968600915486 L 392.6518622895192 119.99871920698757 L 392.6175295462082 119.90041820719199 L 392.5853730205461 119.80196692217991 L 392.55539592815876 119.7033751969978 L 392.5276012667304 119.604652890736 L 392.50199181570406 119.50580987554288 L 392.4785701360034 119.40685603563759 L 392.45733856977694 119.30780126632166 L 392.4382992401636 119.20865547298948 L 392.42145405108045 119.10942857013775 L 392.4068046870323 119.01013048037407 L 392.3943526129435 118.91077113342469 L 392.38409907401103 118.81136046514148 L 392.3760450955802 118.71190841650842 L 392.3701914830421 118.61242493264753 L 392.36653882175324 118.51291996182425 L 392.36508747697656 118.41340345445279 L 392.3658375938454 118.31388536210092 L 392.3687890973487 118.21437563649496 L 392.37394169233863 118.11488422852455 L 392.38129486355984 118.01542108724756 L 392.39084787570147 117.91599615889524 L 392.4025997734702 117.81661938587759 L 392.41654938168597 117.71730070578906 L 392.43269530539976 117.61805005041494 L 392.4510359300325 117.51887734473802 L 392.4715694215371 117.41979250594623 L 392.4942937265815 117.3208054424409 L 392.5192065727541 117.22192605284587 L 392.5463054687911 117.12316422501772 L 392.57558770482547 117.02452983505692 L 392.6070503526579 116.92603274632027 L 392.64069026605 116.82768280843456 L 392.67650408103833 116.72948985631163 L 392.71448821627126 116.63146370916486 L 392.754638873367 116.53361416952727 L 392.7969520372932 116.4359510222713 L 392.8414234767688 116.33848403363028 L 392.88804874468684 116.24122295022184 L 392.93682317855945 116.14417749807329 L 392.98774190098385 116.04735738164896 L 393.04079982013025 115.95077228287983 L 393.0959916302509 115.85443186019525 L 393.1533118122109 115.75834574755724 L 393.2127546340397 115.66252355349698 L 393.2743141515047 115.56697486015403 L 393.33798420870545 115.47170922231811 L 393.40375843868924 115.37673616647359 L 393.471630264088 115.28206518984692 L 393.5415928977757 115.18770575945688 L 393.61363934354716 115.09366731116786 L 393.68776239681796 114.99995924874634 L 393.76395464534454 114.90659094292047 L 393.8422084699655 114.81357173044302 L 393.92251604536364 114.72091091315772 L 394.00486934084824 114.6286177570691 L 394.0892601211585 114.53670149141583 L 394.17567994728665 114.44517130774788 L 394.2641201773221 114.35403635900738 L 394.35457196731556 114.26330575861321 L 394.4470262721634 114.17298857954984 L 394.5414738465122 114.0830938534599 L 394.63790524568316 113.99363056974107 L 394.73631082661683 113.9046076746472 L 394.836680748837 113.81603407039357 L 394.9390049754352 113.72791861426684 L 395.04327327407395 113.64027011773916 L 395.14947521801037 113.55309734558716 L 395.2576001871385 113.46640901501542 L 395.3676373690515 113.38021379478474 L 395.479575760123 113.29452030434531 L 395.59340416660706 113.20933711297478 L 395.70911120575795 113.12467273892129 L 395.8266853069681 113.0405356485517 L 395.94611471292546 112.95693425550492 L 396.0673874807889 112.8738769198506 L 396.19049148338274 112.79137194725308 L 396.3154144104093 112.70942758814088 L 396.4421437696799 112.62805203688163 L 396.5706668883643 112.54725343096261 L 396.7009709142577 112.4670398501771 L 396.83304281706614 112.38741931581635 L 396.96686938970936 112.30839978986741 L 397.10243724964164 112.22998917421705 L 397.2397328401899 112.1521953098615 L 397.3787424319096 112.07502597612235 L 397.5194521239573 111.99848888986867 L 397.66184784548113 111.9225917047453 L 397.8059153570276 111.84734201040753 L 397.95164025196556 111.77274733176205 L 398.099007957927 111.69881512821459 L 398.24800373826406 111.62555279292388 L 398.398612693523 111.5529676520624 L 398.55081976293366 111.48106696408377 L 398.70460972591604 111.40985791899683 L 398.8599672036019 111.33934763764678 L 399.01687666037304 111.269543171003 L 399.1753224054145 111.20045149945395 L 399.3352885942838 111.13207953210923 L 399.49675923049534 111.0644341061086 L 399.6597181671201 110.99752198593829 L 399.8241491084002 110.93134986275456 L 399.9900356113785 110.86592435371458 L 400.15736108754305 110.80125200131471 L 400.32610880448556 110.73733927273634 L 400.496261887575 110.67419255919904 L 400.66780332164484 110.61181817532155 L 400.8407159526946 110.55022235849026 L 401.01498248960536 110.48941126823556 L 401.19058550586857 110.42939098561577 L 401.367507441329 110.37016751260914 L 401.54573060394046 110.31174677151364 L 401.72523717153524 110.25413460435468 L 401.9060091936062 110.19733677230094 L 402.08802859310174 110.14135895508834 L 402.2712771682336 110.08620675045192 L 402.45573659429704 110.03188567356621 L 402.64138842550307 109.9784011564936 L 402.8282140968233 109.92575854764125 L 403.0161949258463 109.87396311122617 L 403.20531211464584 109.82302002674884 L 403.3955467516606 109.77293438847525 L 403.5868798135854 109.7237112049275 L 403.7792921672736 109.67535539838292 L 403.97276457165003 109.62787180438187 L 404.16727767963556 109.58126517124417 L 404.36281204008145 109.5355401595943 L 404.5593480997146 109.49070134189533 L 404.7568662050929 109.44675320199167 L 404.9553466045703 109.40370013466065 L 405.1547694502723 109.36154644517318 L 405.3551148000805 109.32029634886302 L 405.55636261962695 109.27995397070549 L 405.75849278429735 109.24052334490473 L 405.9614850812436 109.2020084144905 L 406.1653192114053 109.16441303092373 L 406.36997479153916 109.12774095371145 L 406.5754313562578 109.09199585003081 L 406.78166836007597 109.05718129436242 L 406.9886651794651 109.0233007681328 L 407.1964011149158 108.99035765936637 L 407.40485539300755 108.95835526234653 L 407.61400716848635 108.92729677728633 L 407.8238355263489 108.89718531000838 L 408.0343194839342 108.86802387163432 L 408.24543799302205 108.83981537828369 L 408.4571699419374 108.81256265078231 L 408.66949415766175 108.78626841438025 L 408.88238940795054 108.76093529847918 L 409.0958344034561 108.73656583636964 L 409.3098077998568 108.7131624649775 L 409.52428819999125 108.6907275246204 L 409.7392541559982 108.66926325877368 L 409.95468417146117 108.64877181384605 L 410.1705567035582 108.62925523896492 L 410.3868501652159 108.61071548577151 L 410.60354292726834 108.59315440822569 L 410.82061332062 108.57657376242057 L 411.03803963841233 108.56097520640694 L 411.25580013819473 108.54636030002737 L 411.4738730440988 108.53273050476037 L 411.6922365490156 108.52008718357405 L 411.91086881677654 108.50843160079002 L 412.1297479843372 108.49776492195684 L 412.3488521639631 108.48808821373352 L 412.56815944541887 108.4794024437828 L 412.7876478981592 108.47170848067445 L 413.0072955735216 108.46500709379835 L 413.2270805069217 108.45929895328763 L 413.4469807200493 108.45458462995155 L 413.66697422306623 108.45086459521856 L 413.88703901680555 108.448139221089 L 414.10715309497135 108.44640878009801 L 414.3272944463392 108.44567344528826 L 414.5474410569574 108.44593329019261 L 414.76757091234833 108.44718828882681 L 414.98766199970987 108.44943831569202 L 415.2076923101168 108.45268314578742 L 415.4276398407214 108.45692245463273 L 415.6474825969538 108.46215581830057 L 415.86719859472163 108.46838271345896 L 416.0867658626083 108.47560251742357 L 416.30616244406986 108.48381450822 L 416.5253663996311 108.49301786465603 L 416.7443558090791 108.50321166640367 L 416.96310877365534 108.51439489409127 L 417.18160341824574 108.52656642940536 L 417.3998178935679 108.53972505520255 L 417.6177303783561 108.55386945563123 L 417.83531908154345 108.56899821626314 L 418.052562244441 108.58510982423483 L 418.2694381429135 108.60220266839895 L 418.4859250895518 108.62027503948528 L 418.7020014358416 108.6393251302718 L 418.91764557432845 108.6593510357653 L 419.13283594077814 108.68035075339193 L 419.3475510163333 108.70232218319741 L 419.56176932966537 108.7252631280571 L 419.7754694591215 108.74917129389559 L 419.98863003486684 108.77404428991623 L 420.2012297410215 108.79987962884016 L 420.4132473177919 108.82667472715502 L 420.62466156359716 108.8544269053733 L 420.83545133718883 108.8831333883003 L 421.0455955597653 108.91279130531164 L 421.2550732170792 108.94339769064037 L 421.4638633615396 108.97494948367343 L 421.67194511430597 109.00744352925781 L 421.87929766737636 109.04087657801604 L 422.0859002856684 109.0752452866711 L 422.29173230909225 109.11054621838079 L 422.49677315461724 109.14677584308131 L 422.70100231832964 109.18393053784042 L 422.9043993774833 109.2220065872196 L 423.1069439925417 109.26100018364562 L 423.3086159092122 109.30090742779134 L 423.5093949604712 109.34172432896563 L 423.7092610685809 109.38344680551235 L 423.90819424709696 109.42607068521863 L 424.1061746028673 109.46959170573203 L 424.3031823380215 109.51400551498674 L 424.4991977519501 109.55930767163885 L 424.69420124327496 109.60549364551046 L 424.88817331180957 109.65255881804268 L 425.08109456050875 109.70049848275747 L 425.27294569740826 109.74930784572828 L 425.4637075375544 109.79898202605952 L 425.6533610049221 109.84951605637454 L 425.8418871343227 109.90090488331242 L 426.0292670733002 109.9531433680333 L 426.2154820840171 110.00622628673223 L 426.4005135451273 110.06014833116157 L 426.58434295363895 110.11490410916183 L 426.7669519267645 110.17048814520082 L 426.9483222037586 110.22689488092126 L 427.1284356477448 110.2841186756966 L 427.3072742475289 110.34215380719503 L 427.4848201193998 110.40099447195178 L 427.66105550891825 110.46063478594938 L 427.8359627926923 110.52106878520617 L 428.00952448013925 110.58229042637255 L 428.181723215235 110.64429358733544 L 428.35254177824953 110.7070720678304 L 428.5219630874689 110.77061959006171 L 428.68997020090336 110.8349297993301 L 428.85654631798155 110.89999626466822 L 429.0216747812307 110.96581247948379 L 429.1853390779419 111.03237186221013 L 429.34752284182196 111.09966775696446 L 429.5082098546296 111.1676934342134 L 429.6673840477976 111.2364420914459 L 429.82502950403915 111.3059068538535 L 429.98113045893996 111.37608077501788 L 430.1356713025347 111.44695683760538 L 430.28863658086783 111.51852795406883 L 430.44001099753893 111.59078696735621 L 430.58977941523244 111.6637266516264 L 430.7379268572315 111.73733971297176 L 430.88443850891525 111.81161879014752 L 431.0292997192407 111.88655645530783 L 431.17249600220754 111.96214521474865 L 431.3140130383067 112.038377509657 L 431.45383667595263 112.11524571686692 L 431.59195293289804 112.19274214962178 L 431.7283479976323 112.27085905834284 L 431.8630082307626 112.34958863140434 L 431.99592016637786 112.4289229959146 L 432.12707051339527 112.50885421850326 L 432.2564461568894 112.58937430611468 L 432.3840341594038 112.6704752068072 L 432.5098217622445 112.75214881055831 L 432.633796386756 112.83438695007574 L 432.7559456355791 112.91718140161403 L 432.8762572938909 113.00052388579704 L 432.9947193306257 113.0844060684458 L 433.1113198996785 113.16881956141195 L 433.22604734108967 113.25375592341653 L 433.33889018221066 113.33920666089413 L 433.4498371388513 113.42516322884221 L 433.5588771164085 113.5116170316756 L 433.66599921097526 113.59855942408605 L 433.7711927104315 113.68598171190679 L 433.8744470955148 113.77387515298189 L 433.97575204087286 113.86223095804047 L 434.0750974160955 113.95104029157567 L 434.1724732867279 114.04029427272812 L 434.26786991526427 114.12998397617412 L 434.3612777621211 114.22010043301803 L 434.45268748659174 114.3106346316893 L 434.5420899477798 114.40157751884347 L 434.62947620551364 114.49292000026763 L 434.7148375212404 114.58465294178976 L 434.79816535889955 114.67676717019214 L 434.8794513857768 114.76925347412869 L 434.9586874733372 114.86210260504609 L 435.03586569803804 114.95530527810864 L 435.11097834212114 115.04885217312668 L 435.18401789438474 115.14273393548868 L 435.2549770509344 115.23694117709663 L 435.32384871591364 115.33146447730486 L 435.3906260022133 115.42629438386214 L 435.45530223216053 115.52142141385684 L 435.5178709381861 115.61683605466523 L 435.5783258634716 115.71252876490273 L 435.63666096257487 115.80848997537807 L 435.69287040203466 115.90471009005016 L 435.7469485609538 116.00117948698772 L 435.7988900315615 116.09788851933145 L 435.84868961975394 116.19482751625871 L 435.89634234561385 116.29198678395059 L 435.94184344390834 116.38935660656128 L 435.9851883645655 116.48692724718966 L 436.02637277312937 116.58468894885297 L 436.06539255119344 116.68263193546252 L 436.10224379681233 116.78074641280128 L 436.13692282489234 116.87902256950326 L 436.16942616755944 116.97745057803469 L 436.19975057450654 117.07602059567674 L 436.2278930133181 117.1747227655098 L 436.2538506697738 117.27354721739911 L 436.27762094812954 117.37248406898186 L 436.2992014713774 117.47152342665532 L 436.3185900814829 117.57065538656629 L 436.33578483960133 117.66987003560133 L 436.3507840262711 117.76915745237828 L 436.3635861415861 117.86850770823816 L 436.3741899053454 117.96791086823818 L 436.38259425718155 118.06735699214518 L 436.3887983566663 118.16683613542965 L 436.39280158339494 118.26633835026014 L 436.39460353704806 118.36585368649811 M 436.3947152201767 150.0627168384 L 436.3936144879579 150.1622342644769 L 436.3903124013739 150.2617417388941 L 436.38480929063047 150.3612293109871 L 436.3771057060342 150.4606870320816 L 436.36720241793705 150.5601049564884 L 436.3551004166597 150.65947314249786 L 436.34080091239207 150.7587816533742 L 436.3243053350727 150.8580205583491 L 436.30561533424566 150.95717993361475 L 436.2847327788953 151.05624986331628 L 436.2616597572599 151.15522044054325 L 436.2363985766224 151.25408176832042 L 436.20895176307965 151.3528239605974 L 436.1793220612903 151.45143714323726 L 436.1475124341997 151.54991145500387 L 436.1135260627442 151.64823704854817 L 436.07736634553254 151.74640409139272 L 436.0390368985063 151.844402766915 L 435.99854155457825 151.9422232753292 L 435.9558843632491 152.03985583466596 L 435.9110695902023 152.13729068175067 L 435.86410171687794 152.23451807317988 L 435.81498544002415 152.33152828629542 L 435.7637256712277 152.42831162015685 L 435.7103275364227 152.52485839651143 L 435.6547963753783 152.621158960762 L 435.5971377411641 152.7172036829323 L 435.53735739959563 152.81298295863027 L 435.47546132865716 152.90848721000808 L 435.4114557179043 153.00370688672018 L 435.34534696784465 153.09863246687829 L 435.27714168929816 153.19325445800345 L 435.20684670273596 153.28756339797545 L 435.134469037598 153.38154985597882 L 435.06001593159056 153.47520443344615 L 434.9834948299621 153.5685177649977 L 434.90491338475914 153.66148051937805 L 434.8242794540606 153.75408340038928 L 434.74160110119243 153.84631714782046 L 434.656886593921 153.93817253837366 L 434.57014440362644 154.0296403865864 L 434.4813832044555 154.1207115457501 L 434.39061187245414 154.21137690882472 L 434.29783948467986 154.30162740934946 L 434.20307531829417 154.39145402234956 L 434.10632884963474 154.48084776523854 L 434.00760975326784 154.56979969871657 L 433.90692790102077 154.65830092766447 L 433.80429336099496 154.74634260203308 L 433.69971639655876 154.83391591772835 L 433.59320746532154 154.92101211749164 L 433.48477721808763 155.00762249177563 L 433.37443649779146 155.093738379615 L 433.26219633841305 155.17935116949275 L 433.14806796387484 155.26445230020124 L 433.03206278691914 155.3490332616983 L 432.914192407967 155.43308559595832 L 432.79446861395803 155.51660089781785 L 432.67290337717196 155.59957081581632 L 432.5495088540311 155.6819870530311 L 432.424297383885 155.7638413679071 L 432.2972814877763 155.84512557508108 L 432.1684738671887 155.92583154620007 L 432.03788740277696 156.00595121073417 L 431.90553515307874 156.08547655678373 L 431.7714303532087 156.1643996318804 L 431.635586413535 156.24271254378243 L 431.4980169183385 156.3204074612639 L 431.3587356244541 156.3974766148978 L 431.21775645989504 156.47391229783304 L 431.0750935224603 156.54970686656495 L 430.93076107832474 156.62485274169987 L 430.7847735606125 156.69934240871285 L 430.6371455679538 156.77316841869933 L 430.4878918630247 156.84632338911982 L 430.33702737107143 156.91880000453818 L 430.18456717841747 156.99059101735335 L 430.030526530955 157.0616892485238 L 429.8749208326204 157.1320875882857 L 429.7177656438538 157.20177899686377 L 429.55907668004323 157.27075650517517 L 429.3988698099527 157.33901321552656 L 429.2371610541358 157.40654230230382 L 429.0739665833333 157.47333701265453 L 428.9093027168563 157.53939066716327 L 428.74318592095426 157.60469666051972 L 428.57563280716835 157.6692484621789 L 428.4066601306703 157.73303961701444 L 428.23628478858683 157.79606374596406 L 428.06452381831036 157.85831454666734 L 427.8913943957947 157.9197857940961 L 427.7169138338378 157.98047134117684 L 427.54109958035053 158.0403651194054 L 427.3639692166116 158.0994611394539 L 427.18554045550997 158.15775349176954 L 427.00583113977285 158.21523634716567 L 426.8248592401822 158.2719039574047 L 426.64264285377715 158.32775065577277 L 426.4592002020444 158.38277085764662 L 426.2745496290964 158.4369590610519 L 426.0887095998365 158.49030984721344 L 425.9016986981127 158.54281788109705 L 425.7135356248594 158.5944779119431 L 425.5242391962271 158.64528477379162 L 425.3338283417009 158.69523338599868 L 425.14232210220763 158.74431875374472 L 424.9497396282116 158.79253596853388 L 424.7561001777998 158.83988020868486 L 424.5614231147558 158.8863467398131 L 424.36572790662376 158.93193091530418 L 424.16903412276133 158.97662817677855 L 423.9713614323831 159.0204340545473 L 423.7727296025933 159.06334416805922 L 423.5731584964094 159.10535422633865 L 423.3726680707757 159.1464600284148 L 423.1712783745677 159.1866574637417 L 422.9690095465872 159.22594251260932 L 422.76588181354845 159.26431124654553 L 422.56191548805543 159.3017598287089 L 422.35713096657076 159.3382845142724 L 422.151548727376 159.37388165079793 L 421.9451893285236 159.40854767860148 L 421.7380734057816 159.44227913110922 L 421.53022167056963 159.47507263520393 L 421.32165490788805 159.50692491156258 L 421.11239397423924 159.53783277498405 L 420.90245979554226 159.56779313470776 L 420.69187336504 159.5968029947227 L 420.4806557412 159.6248594540671 L 420.26882804560864 159.65195970711832 L 420.056411460859 159.67810104387368 L 419.8434272284325 159.7032808502213 L 419.62989664657493 159.7274966082015 L 419.4158410681665 159.7507458962587 L 419.20128189858667 159.77302638948342 L 418.98624059357365 159.79433585984495 L 418.7707386570787 159.81467217641398 L 418.55479763911586 159.83403330557582 L 418.33843913360704 159.85241731123367 L 418.1216847762224 159.86982235500227 L 417.9045562422172 159.8862466963918 L 417.6870752442637 159.90168869298176 L 417.46926353028067 159.9161468005854 L 417.25114288125786 159.92961957340398 L 417.0327351090785 159.94210566417144 L 416.8140620543377 159.95360382428913 L 416.59514558415873 159.96411290395062 L 416.3760075900062 159.97363185225666 L 416.156669985497 159.9821597173204 L 415.93715470420864 159.98969564636243 L 415.7174836974864 159.99623888579612 L 415.49767893224794 160.00178878130296 L 415.2777623887865 160.00634477789805 L 415.05775605857326 160.0099064199855 L 414.8376819420578 160.0124733514041 L 414.61756204646855 160.01404531546285 L 414.3974183836115 160.01462215496664 L 414.1772729676695 160.014203812232 L 413.95714781300074 160.01279032909284 L 413.7370649319372 160.01038184689634 L 413.51704633258356 160.00697860648864 L 413.2971140166165 160.00258094819102 L 413.07728997708426 159.9971893117656 L 412.8575961962076 159.99080423637156 L 412.63805464318165 159.9834263605111 L 412.4186872719786 159.97505642196563 L 412.1995160191529 159.96569525772207 L 411.98056280164707 159.95534380388904 L 411.7618495146005 159.9440030956033 L 411.5433980291596 159.9316742669262 L 411.3252301902909 159.91835855073037 L 411.1073678145964 159.9040572785763 L 410.8898326881322 159.8887718805793 L 410.6726465642296 159.87250388526644 L 410.45583116132 159.8552549194237 L 410.2394081607631 159.83702670793323 L 410.0233992046786 159.8178210736011 L 409.80782589378197 159.79763993697463 L 409.5927097852248 159.77648531615074 L 409.3780723904386 159.75435932657385 L 409.163935172984 159.73126418082447 L 408.95031954640433 159.70720218839796 L 408.7372468720842 159.68217575547348 L 408.52473845711353 159.6561873846735 L 408.3128155521566 159.62923967481342 L 408.1014993493275 159.60133532064177 L 407.8908109800703 159.5724771125707 L 407.6807715130463 159.542667936397 L 407.4714019520273 159.51191077301345 L 407.2627232337948 159.48020869811072 L 407.05475622604683 159.4475648818699 L 406.8475217253108 159.41398258864544 L 406.6410404548641 159.37946517663863 L 406.43533306266175 159.34401609756193 L 406.23042011927146 159.30763889629372 L 406.0263221158169 159.2703372105238 L 405.82305946192827 159.23211477038961 L 405.62065248370163 159.1929753981034 L 405.4191214216661 159.15292300756974 L 405.2184864287599 159.1119616039943 L 405.0187675683152 159.0700952834833 L 404.8199848120516 159.02732823263395 L 404.62215803807896 158.98366472811566 L 404.42530702891 158.93910913624248 L 404.2294514694815 158.89366591253648 L 404.0346109451862 158.8473396012822 L 403.84080493991416 158.80013483507207 L 403.6480528341044 158.75205633434348 L 403.4563739028069 158.70310890690635 L 403.265787313755 158.6532974474627 L 403.07631212544885 158.60262693711692 L 402.8879672852494 158.55110244287783 L 402.70077162748356 158.49872911715195 L 402.51474387156134 158.44551219722817 L 402.32990262010316 158.39145700475413 L 402.14626635708015 158.33656894520408 L 401.9638534459656 158.28085350733818 L 401.7826821278986 158.22431626265382 L 401.60277051986003 158.16696286482835 L 401.4241366128607 158.10879904915373 L 401.24679827014245 158.04983063196312 L 401.07077322539186 157.99006351004903 L 400.8960790809666 157.92950366007386 L 400.72273330613564 157.8681571379722 L 400.55075323533197 157.80603007834506 L 400.3801560664193 157.74312869384667 L 400.21095885897245 157.67945927456307 L 400.04317853257106 157.6150281873831 L 399.87683186510804 157.54984187536184 L 399.7119354911115 157.4839068570761 L 399.5485059000814 157.41722972597282 L 399.38655943484065 157.3498171497095 L 399.22611228990087 157.28167586948763 L 399.0671805098428 157.21281269937842 L 398.909779987712 157.1432345256415 L 398.7539264634296 157.07294830603627 L 398.599635522218 157.00196106912614 L 398.44692259304287 156.9302799135756 L 398.29580294706983 156.8579120074405 L 398.1462916961375 156.78486458745112 L 397.99840379124646 156.71114495828863 L 397.85215402106394 156.6367604918545 L 397.70755701044504 156.56171862653335 L 397.5646272189703 156.4860268664492 L 397.4233789394999 156.409692780715 L 397.28382629674394 156.3327240026757 L 397.14598324585046 156.25512822914496 L 397.0098635710097 156.17691321963545 L 396.87548088407567 156.098086795583 L 396.7428486232051 156.01865683956424 L 396.6119800515135 155.93863129450867 L 396.48288825574906 155.85801816290407 L 396.35558614498376 155.7768255059964 L 396.2300864493226 155.69506144298373 L 396.1064017186305 155.61273415020418 L 395.9845443212775 155.52985186031847 L 395.86452644290176 155.4464228614865 L 395.74636008519116 155.36245549653862 L 395.630057064683 155.27795816214137 L 395.51562901158235 155.19293930795774 L 395.4030873685992 155.10740743580237 L 395.2924433898041 155.02137109879112 L 395.18370813950264 154.93483890048603 L 395.0768924911293 154.84781949403484 L 394.9720071261599 154.76032158130565 L 394.86906253304346 154.67235391201683 L 394.7680690061536 154.58392528286197 L 394.6690366447589 154.49504453663036 L 394.57197535201277 154.4057205613225 L 394.4768948339638 154.31596228926153 L 394.38380459858445 154.22577869619982 L 394.29271395482067 154.13517880042153 L 394.203632011661 154.04417166184075 L 394.11656767722553 153.9527663810955 L 394.03152965787507 153.86097209863766 L 393.94852645734073 153.76879799381902 L 393.8675663758734 153.6762532839732 L 393.7886575094138 153.58334722349412 L 393.71180774878275 153.4900891029104 L 393.6370247788923 153.3964882479563 L 393.5643160779771 153.30255401863943 L 393.4936889168466 153.20829580830437 L 393.42515035815825 153.11372304269364 L 393.3587072557106 153.01884517900496 L 393.29436625375865 152.92367170494566 L 393.2321337863489 152.82821213778382 L 393.1720160766763 152.73247602339663 L 393.11401913646165 152.6364729353157 L 393.05814876535067 152.5402124737699 L 393.00441055033394 152.44370426472514 L 392.95280986518816 152.34695795892188 L 392.90335186993883 152.2499832309101 L 392.85604151034426 152.15278977808177 L 392.810883517401 152.0553873197012 L 392.7678824068707 151.95778559593307 L 392.7270424788286 151.8599943668684 L 392.6883678172335 151.7620234115486 L 392.6518622895192 151.66388252698758 L 392.6175295462082 151.565581527192 L 392.5853730205461 151.4671302421799 L 392.55539592815876 151.36853851699777 L 392.5276012667304 151.269816210736 L 392.50199181570406 151.17097319554287 L 392.4785701360034 151.0720193556376 L 392.45733856977694 150.97296458632167 L 392.4382992401636 150.87381879298948 L 392.42145405108045 150.77459189013774 L 392.4068046870323 150.67529380037408 L 392.3943526129435 150.57593445342468 L 392.38409907401103 150.47652378514147 L 392.3760450955802 150.3770717365084 L 392.3701914830421 150.27758825264752 L 392.36653882175324 150.17808328182426 L 392.36508747697656 150.07856677445278" stroke-miterlimit="10" stroke-width="2.5633703640000003" stroke-dasharray=""/></g><g><text fill="black" stroke="none" font-family="sans-serif" font-size="11pt" font-style="normal" font-weight="normal" text-decoration="normal" x="375.0298889140556" y="176.19401590200002" text-anchor="start" dominant-baseline="alphabetic" xml:space="preserve">UCloud DB</text></g><path fill="none" stroke="none"/><g><path fill="white" stroke="black" paint-order="fill stroke markers" d=" M 491.42650886229774 140.15604431400004 L 663.0638493792275 140.15604431400004 L 663.0638493792275 180.71761066200003 L 491.42650886229774 180.71761066200003 L 491.42650886229774 140.15604431400004 Z" stroke-miterlimit="10" stroke-width="2.4125838720000004" stroke-dasharray=""/></g><g><text fill="black" stroke="none" font-family="sans-serif" font-size="11pt" font-style="normal" font-weight="normal" text-decoration="normal" x="507.78684324429776" y="165.63896146200003" text-anchor="start" dominant-baseline="alphabetic" xml:space="preserve">Integration Module</text></g><g><path fill="white" stroke="black" paint-order="fill stroke markers" d=" M 709.5776715101669 151.16345823 L 709.5776715101669 119.49829491000001 L 753.6073271741669 119.49829491000001 L 753.6073271741669 151.16345823" stroke-miterlimit="10" stroke-width="2.5633703640000003" stroke-dasharray=""/><path fill="white" stroke="black" paint-order="fill stroke markers" d=" M 753.6073271741669 118.39755351840002 L 753.6062264419481 118.4970709444769 L 753.602924355364 118.5965784188941 L 753.5974212446206 118.69606599098711 L 753.5897176600243 118.79552371208162 L 753.5798143719272 118.8949416364884 L 753.5677123706498 118.99430982249787 L 753.5534128663822 119.09361833337421 L 753.5369172890629 119.19285723834912 L 753.5182272882358 119.29201661361478 L 753.4973447328855 119.39108654331629 L 753.4742717112501 119.49005712054326 L 753.4490105306126 119.58891844832043 L 753.4215637170698 119.68766064059741 L 753.3919340152804 119.78627382323727 L 753.3601243881899 119.88474813500389 L 753.3261380167344 119.98307372854818 L 753.2899782995228 120.08124077139271 L 753.2516488524965 120.17923944691502 L 753.2111535085685 120.27705995532921 L 753.1684963172393 120.37469251466595 L 753.1236815441924 120.4721273617507 L 753.0767136708681 120.5693547531799 L 753.0275973940143 120.66636496629543 L 752.9763376252179 120.76314830015687 L 752.9229394904129 120.85969507651144 L 752.8674083293685 120.955995640762 L 752.8097496951543 121.05204036293233 L 752.7499693535858 121.14781963863028 L 752.6880732826473 121.24332389000809 L 752.6240676718944 121.33854356672019 L 752.5579589218348 121.4334691468783 L 752.4897536432884 121.52809113800346 L 752.4194586567261 121.62240007797544 L 752.3470809915882 121.71638653597883 L 752.2726278855807 121.81004111344615 L 752.1961067839522 121.90335444499769 L 752.1175253387493 121.99631719937807 L 752.0368914080508 122.0889200803893 L 751.9542130551827 122.18115382782047 L 751.8694985479112 122.27300921837367 L 751.7827563576167 122.36447706658642 L 751.6939951584457 122.4555482257501 L 751.6032238264443 122.54621358882471 L 751.5104514386701 122.63646408934949 L 751.4156872722843 122.72629070234957 L 751.318940803625 122.81568444523853 L 751.220221707258 122.90463637871657 L 751.119539855011 122.99313760766448 L 751.0169053149851 123.08117928203309 L 750.9123283505489 123.16875259772834 L 750.8058194193117 123.25584879749167 L 750.6973891720778 123.34245917177563 L 750.5870484517816 123.428575059615 L 750.4748082924032 123.51418784949276 L 750.360679917865 123.59928898020125 L 750.2446747409093 123.68386994169833 L 750.1268043619572 123.76792227595833 L 750.0070805679483 123.85143757781786 L 749.8855153311622 123.93440749581634 L 749.7621208080213 124.0168237330311 L 749.6369093378752 124.09867804790713 L 749.5098934417664 124.17996225508111 L 749.3810858211789 124.26066822620008 L 749.2504993567671 124.34078789073419 L 749.1181471070689 124.42031323678374 L 748.9840423071988 124.49923631188041 L 748.8481983675252 124.57754922378244 L 748.7106288723287 124.65524414126392 L 748.5713475784443 124.73231329489784 L 748.4303684138852 124.80874897783305 L 748.2877054764505 124.88454354656496 L 748.1433730323149 124.95968942169986 L 747.9973855146027 125.03417908871288 L 747.849757521944 125.10800509869935 L 747.7005038170149 125.18116006911981 L 747.5496393250617 125.2536366845382 L 747.3971791324076 125.32542769735335 L 747.2431384849451 125.39652592852383 L 747.0875327866106 125.46692426828574 L 746.930377597844 125.53661567686379 L 746.7716886340334 125.60559318517518 L 746.6114817639428 125.67384989552659 L 746.4497730081259 125.74137898230383 L 746.2865785373235 125.80817369265452 L 746.1219146708465 125.8742273471633 L 745.9557978749444 125.93953334051972 L 745.7882447611585 126.0040851421789 L 745.6192720846605 126.06787629701445 L 745.4488967425771 126.13090042596406 L 745.2771357723005 126.19315122666735 L 745.1040063497849 126.25462247409612 L 744.929525787828 126.31530802117686 L 744.7537115343407 126.37520179940542 L 744.5765811706018 126.4342978194539 L 744.3981524095001 126.49259017176955 L 744.2184430937631 126.5500730271657 L 744.0374711941724 126.6067406374047 L 743.8552548077673 126.66258733577278 L 743.6718121560347 126.71760753764663 L 743.4871615830866 126.7717957410519 L 743.3013215538266 126.82514652721343 L 743.1143106521029 126.87765456109705 L 742.9261475788495 126.92931459194313 L 742.7368511502173 126.98012145379161 L 742.5464402956911 127.03007006599869 L 742.3549340561977 127.07915543374473 L 742.1623515822018 127.12737264853389 L 741.96871213179 127.17471688868487 L 741.774035068746 127.22118341981309 L 741.5783398606139 127.26676759530417 L 741.3816460767515 127.31146485677856 L 741.1839733863733 127.35527073454733 L 740.9853415565834 127.39818084805923 L 740.7857704503996 127.44019090633866 L 740.5852800247659 127.4812967084148 L 740.3838903285579 127.5214941437417 L 740.1816215005774 127.56077919260933 L 739.9784937675386 127.59914792654554 L 739.7745274420456 127.63659650870889 L 739.569742920561 127.6731211942724 L 739.3641606813661 127.70871833079792 L 739.1578012825138 127.7433843586015 L 738.9506853597718 127.77711581110921 L 738.7428336245598 127.80990931520392 L 738.5342668618782 127.84176159156257 L 738.3250059282294 127.87266945498405 L 738.1150717495324 127.90262981470777 L 737.9044853190302 127.93163967472273 L 737.6932676951901 127.9596961340671 L 737.4814399995988 127.98679638711833 L 737.2690234148492 128.0129377238737 L 737.0560391824228 128.0381175302213 L 736.8425086005651 128.06233328820153 L 736.6284530221567 128.0855825762587 L 736.4138938525768 128.10786306948344 L 736.1988525475639 128.12917253984494 L 735.9833506110689 128.14950885641397 L 735.7674095931061 128.1688699855758 L 735.5510510875972 128.18725399123366 L 735.3342967302126 128.2046590350023 L 735.1171681962073 128.22108337639182 L 734.8996871982539 128.2365253729818 L 734.6818754842709 128.2509834805854 L 734.4637548352481 128.26445625340398 L 734.2453470630686 128.27694234417146 L 734.0266740083279 128.28844050428916 L 733.8077575381488 128.29894958395062 L 733.5886195439964 128.30846853225668 L 733.3692819394871 128.31699639732042 L 733.1497666581988 128.32453232636243 L 732.9300956514766 128.3310755657961 L 732.7102908862381 128.33662546130296 L 732.4903743427767 128.34118145789805 L 732.2703680125634 128.34474309998552 L 732.0502938960481 128.34731003140413 L 731.8301740004588 128.34888199546288 L 731.6100303376016 128.34945883496667 L 731.3898849216597 128.349040492232 L 731.1697597669909 128.34762700909286 L 730.9496768859274 128.34521852689633 L 730.7296582865737 128.34181528648867 L 730.5097259706066 128.33741762819102 L 730.2899019310744 128.33202599176562 L 730.0702081501978 128.32564091637155 L 729.8506665971718 128.31826304051108 L 729.6312992259687 128.30989310196566 L 729.412127973143 128.3005319377221 L 729.1931747556373 128.29018048388906 L 728.9744614685907 128.2788397756033 L 728.7560099831497 128.26651094692622 L 728.5378421442811 128.25319523073037 L 728.3199797685866 128.2388939585763 L 728.1024446421224 128.2236085605793 L 727.8852585182198 128.20734056526643 L 727.6684431153102 128.19009159942368 L 727.4520201147533 128.17186338793326 L 727.2360111586687 128.1526577536011 L 727.0204378477722 128.13247661697466 L 726.805321739215 128.11132199615074 L 726.5906843444288 128.08919600657384 L 726.3765471269742 128.0661008608245 L 726.1629315003945 128.04203886839798 L 725.9498588260744 128.0170124354735 L 725.7373504111036 127.99102406467351 L 725.5254275061468 127.96407635481341 L 725.3141113033176 127.93617200064178 L 725.1034229340604 127.90731379257072 L 724.8933834670365 127.87750461639702 L 724.6840139060174 127.84674745301346 L 724.4753351877849 127.81504537811074 L 724.267368180037 127.78240156186993 L 724.060133679301 127.74881926864545 L 723.8536524088543 127.71430185663864 L 723.6479450166519 127.67885277756194 L 723.4430320732616 127.64247557629372 L 723.2389340698071 127.60517389052379 L 723.0356714159185 127.56695145038962 L 722.8332644376918 127.52781207810341 L 722.6317333756563 127.48775968756975 L 722.4310983827501 127.44679828399431 L 722.2313795223054 127.40493196348334 L 722.0325967660417 127.36216491263397 L 721.8347699920691 127.31850140811567 L 721.6379189829001 127.27394581624249 L 721.4420634234717 127.22850259253649 L 721.2472228991763 127.18217628128218 L 721.0534168939043 127.13497151507208 L 720.8606647880946 127.08689301434347 L 720.668985856797 127.03794558690636 L 720.4783992677452 126.9881341274627 L 720.288924079439 126.93746361711693 L 720.1005792392396 126.88593912287786 L 719.9133835814738 126.83356579715196 L 719.7273558255515 126.78034887722818 L 719.5425145740933 126.72629368475415 L 719.3588783110703 126.67140562520409 L 719.1764653999558 126.61569018733819 L 718.9952940818888 126.55915294265382 L 718.8153824738501 126.50179954482836 L 718.6367485668509 126.44363572915375 L 718.4594102241326 126.38466731196311 L 718.283385179382 126.32490019004902 L 718.1086910349568 126.26434034007389 L 717.9353452601258 126.2029938179722 L 717.7633651893221 126.14086675834507 L 717.5927680204095 126.07796537384668 L 717.4235708129626 126.01429595456308 L 717.2557904865613 125.94986486738313 L 717.0894438190983 125.88467855536184 L 716.9245474451017 125.81874353707612 L 716.7611178540716 125.75206640597281 L 716.5991713888309 125.6846538297095 L 716.4387242438911 125.61651254948762 L 716.279792463833 125.54764937937843 L 716.1223919417022 125.47807120564151 L 715.9665384174198 125.40778498603629 L 715.8122474762082 125.33679774912613 L 715.659534547033 125.2651165935756 L 715.50841490106 125.1927486874405 L 715.3589036501277 125.11970126745113 L 715.2110157452366 125.04598163828864 L 715.0647659750541 124.97159717185448 L 714.9201689644352 124.89655530653334 L 714.7772391729605 124.8208635464492 L 714.6359908934901 124.744529460715 L 714.4964382507342 124.6675606826757 L 714.3585951998407 124.58996490914495 L 714.2224755249999 124.51174989963546 L 714.0880928380659 124.432923475583 L 713.9554605771953 124.35349351956427 L 713.8245920055037 124.27346797450868 L 713.6955002097393 124.19285484290407 L 713.568198098974 124.11166218599641 L 713.4426984033128 124.02989812298372 L 713.3190136726206 123.9475708302042 L 713.1971562752676 123.86468854031848 L 713.077138396892 123.7812595414865 L 712.9589720391814 123.69729217653864 L 712.8426690186732 123.61279484214138 L 712.7282409655726 123.52777598795777 L 712.6156993225894 123.44224411580237 L 712.5050553437943 123.35620777879113 L 712.3963200934928 123.26967558048605 L 712.2895044451195 123.18265617403485 L 712.18461908015 123.09515826130566 L 712.0816744870336 123.00719059201683 L 711.9806809601438 122.91876196286199 L 711.881648598749 122.82988121663037 L 711.784587306003 122.74055724132252 L 711.689506787954 122.65079896926153 L 711.5964165525746 122.56061537619982 L 711.5053259088108 122.47001548042154 L 711.4162439656512 122.37900834184076 L 711.3291796312157 122.28760306109551 L 711.2441416118653 122.19580877863768 L 711.161138411331 122.10363467381903 L 711.0801783298637 122.01108996397322 L 711.001269463404 121.91818390349414 L 710.9244197027729 121.82492578291038 L 710.8496367328825 121.73132492795632 L 710.7769280319673 121.63739069863944 L 710.7063008708368 121.54313248830438 L 710.6377623121484 121.44855972269364 L 710.5713192097008 121.35368185900496 L 710.5069782077488 121.25850838494567 L 710.444745740339 121.16304881778383 L 710.3846280306665 121.06731270339662 L 710.3266310904519 120.97130961531572 L 710.2707607193408 120.87504915376991 L 710.2170225043242 120.77854094472514 L 710.1654218191783 120.68179463892189 L 710.115963823929 120.5848199109101 L 710.0686534643345 120.48762645808178 L 710.0234954713911 120.39022399970122 L 709.9804943608609 120.29262227593307 L 709.9396544328188 120.1948310468684 L 709.9009797712237 120.0968600915486 L 709.8644742435093 119.99871920698757 L 709.8301415001984 119.90041820719199 L 709.7979849745363 119.80196692217991 L 709.7680078821489 119.7033751969978 L 709.7402132207206 119.604652890736 L 709.7146037696942 119.50580987554288 L 709.6911820899936 119.40685603563759 L 709.6699505237672 119.30780126632166 L 709.6509111941538 119.20865547298948 L 709.6340660050706 119.10942857013775 L 709.6194166410226 119.01013048037407 L 709.6069645669337 118.91077113342469 L 709.5967110280012 118.81136046514148 L 709.5886570495703 118.71190841650842 L 709.5828034370323 118.61242493264753 L 709.5791507757434 118.51291996182425 L 709.5776994309667 118.41340345445279 L 709.5784495478356 118.31388536210092 L 709.581401051339 118.21437563649496 L 709.5865536463288 118.11488422852455 L 709.5939068175501 118.01542108724756 L 709.6034598296916 117.91599615889524 L 709.6152117274603 117.81661938587759 L 709.6291613356761 117.71730070578906 L 709.6453072593899 117.61805005041494 L 709.6636478840227 117.51887734473802 L 709.6841813755273 117.41979250594623 L 709.7069056805717 117.3208054424409 L 709.7318185267443 117.22192605284587 L 709.7589174227812 117.12316422501772 L 709.7881996588156 117.02452983505692 L 709.8196623066481 116.92603274632027 L 709.8533022200402 116.82768280843456 L 709.8891160350285 116.72948985631163 L 709.9271001702615 116.63146370916486 L 709.9672508273571 116.53361416952727 L 710.0095639912834 116.4359510222713 L 710.054035430759 116.33848403363028 L 710.1006606986771 116.24122295022184 L 710.1494351325496 116.14417749807329 L 710.2003538549741 116.04735738164896 L 710.2534117741204 115.95077228287983 L 710.3086035842412 115.85443186019525 L 710.365923766201 115.75834574755724 L 710.4253665880299 115.66252355349698 L 710.4869261054948 115.56697486015403 L 710.5505961626956 115.47170922231811 L 710.6163703926794 115.37673616647359 L 710.6842422180782 115.28206518984692 L 710.7542048517658 115.18770575945688 L 710.8262512975373 115.09366731116786 L 710.9003743508081 114.99995924874634 L 710.9765665993347 114.90659094292047 L 711.0548204239557 114.81357173044302 L 711.1351279993538 114.72091091315772 L 711.2174812948384 114.6286177570691 L 711.3018720751487 114.53670149141583 L 711.3882919012768 114.44517130774788 L 711.4767321313122 114.35403635900738 L 711.5671839213057 114.26330575861321 L 711.6596382261536 114.17298857954984 L 711.7540858005024 114.0830938534599 L 711.8505171996734 113.99363056974107 L 711.948922780607 113.9046076746472 L 712.0492927028272 113.81603407039357 L 712.1516169294254 113.72791861426684 L 712.2558852280641 113.64027011773916 L 712.3620871720005 113.55309734558716 L 712.4702121411286 113.46640901501542 L 712.5802493230417 113.38021379478474 L 712.6921877141132 113.29452030434531 L 712.8060161205972 113.20933711297478 L 712.9217231597481 113.12467273892129 L 713.0392972609583 113.0405356485517 L 713.1587266669156 112.95693425550492 L 713.2799994347791 112.8738769198506 L 713.4031034373729 112.79137194725308 L 713.5280263643995 112.70942758814088 L 713.6547557236701 112.62805203688163 L 713.7832788423544 112.54725343096261 L 713.9135828682479 112.4670398501771 L 714.0456547710563 112.38741931581635 L 714.1794813436995 112.30839978986741 L 714.3150492036318 112.22998917421705 L 714.4523447941801 112.1521953098615 L 714.5913543858998 112.07502597612235 L 714.7320640779475 111.99848888986867 L 714.8744597994713 111.9225917047453 L 715.0185273110178 111.84734201040753 L 715.1642522059558 111.77274733176205 L 715.3116199119172 111.69881512821459 L 715.4606156922542 111.62555279292388 L 715.6112246475132 111.5529676520624 L 715.7634317169238 111.48106696408377 L 715.9172216799062 111.40985791899683 L 716.0725791575921 111.33934763764678 L 716.2294886143632 111.269543171003 L 716.3879343594047 111.20045149945395 L 716.5479005482739 111.13207953210923 L 716.7093711844855 111.0644341061086 L 716.8723301211103 110.99752198593829 L 717.0367610623904 110.93134986275456 L 717.2026475653687 110.86592435371458 L 717.3699730415332 110.80125200131471 L 717.5387207584757 110.73733927273634 L 717.7088738415652 110.67419255919904 L 717.880415275635 110.61181817532155 L 718.0533279066848 110.55022235849026 L 718.2275944435955 110.48941126823556 L 718.4031974598588 110.42939098561577 L 718.5801193953191 110.37016751260914 L 718.7583425579306 110.31174677151364 L 718.9378491255254 110.25413460435468 L 719.1186211475964 110.19733677230094 L 719.3006405470919 110.14135895508834 L 719.4838891222238 110.08620675045192 L 719.6683485482872 110.03188567356621 L 719.8540003794932 109.9784011564936 L 720.0408260508135 109.92575854764125 L 720.2288068798365 109.87396311122617 L 720.417924068636 109.82302002674884 L 720.6081587056508 109.77293438847525 L 720.7994917675757 109.7237112049275 L 720.9919041212638 109.67535539838292 L 721.1853765256402 109.62787180438187 L 721.3798896336257 109.58126517124417 L 721.5754239940716 109.5355401595943 L 721.7719600537048 109.49070134189533 L 721.9694781590831 109.44675320199167 L 722.1679585585605 109.40370013466065 L 722.3673814042625 109.36154644517318 L 722.5677267540707 109.32029634886302 L 722.7689745736171 109.27995397070549 L 722.9711047382875 109.24052334490473 L 723.1740970352338 109.2020084144905 L 723.3779311653955 109.16441303092373 L 723.5825867455293 109.12774095371145 L 723.788043310248 109.09199585003081 L 723.9942803140661 109.05718129436242 L 724.2012771334553 109.0233007681328 L 724.4090130689059 108.99035765936637 L 724.6174673469977 108.95835526234653 L 724.8266191224765 108.92729677728633 L 725.036447480339 108.89718531000838 L 725.2469314379244 108.86802387163432 L 725.4580499470122 108.83981537828369 L 725.6697818959276 108.81256265078231 L 725.882106111652 108.78626841438025 L 726.0950013619407 108.76093529847918 L 726.3084463574463 108.73656583636964 L 726.522419753847 108.7131624649775 L 726.7369001539814 108.6907275246204 L 726.9518661099884 108.66926325877368 L 727.1672961254513 108.64877181384605 L 727.3831686575484 108.62925523896492 L 727.599462119206 108.61071548577151 L 727.8161548812585 108.59315440822569 L 728.0332252746101 108.57657376242057 L 728.2506515924025 108.56097520640694 L 728.468412092185 108.54636030002737 L 728.686484998089 108.53273050476037 L 728.9048485030057 108.52008718357405 L 729.1234807707667 108.50843160079002 L 729.3423599383274 108.49776492195684 L 729.5614641179533 108.48808821373352 L 729.7807713994091 108.4794024437828 L 730.0002598521494 108.47170848067445 L 730.2199075275119 108.46500709379835 L 730.4396924609119 108.45929895328763 L 730.6595926740395 108.45458462995155 L 730.8795861770564 108.45086459521856 L 731.0996509707958 108.448139221089 L 731.3197650489616 108.44640878009801 L 731.5399064003294 108.44567344528826 L 731.7600530109476 108.44593329019261 L 731.9801828663385 108.44718828882681 L 732.2002739537 108.44943831569202 L 732.420304264107 108.45268314578742 L 732.6402517947115 108.45692245463273 L 732.8600945509439 108.46215581830057 L 733.0798105487119 108.46838271345896 L 733.2993778165985 108.47560251742357 L 733.51877439806 108.48381450822 L 733.7379783536213 108.49301786465603 L 733.9569677630692 108.50321166640367 L 734.1757207276455 108.51439489409127 L 734.3942153722359 108.52656642940536 L 734.612429847558 108.53972505520255 L 734.8303423323463 108.55386945563123 L 735.0479310355337 108.56899821626314 L 735.2651741984312 108.58510982423483 L 735.4820500969037 108.60220266839895 L 735.6985370435419 108.62027503948528 L 735.9146133898319 108.6393251302718 L 736.1302575283187 108.6593510357653 L 736.3454478947683 108.68035075339193 L 736.5601629703235 108.70232218319741 L 736.7743812836555 108.7252631280571 L 736.9880814131117 108.74917129389559 L 737.2012419888571 108.77404428991623 L 737.4138416950117 108.79987962884016 L 737.6258592717821 108.82667472715502 L 737.8372735175874 108.8544269053733 L 738.048063291179 108.8831333883003 L 738.2582075137555 108.91279130531164 L 738.4676851710694 108.94339769064037 L 738.6764753155298 108.97494948367343 L 738.8845570682961 109.00744352925781 L 739.0919096213665 109.04087657801604 L 739.2985122396585 109.0752452866711 L 739.5043442630824 109.11054621838079 L 739.7093851086074 109.14677584308131 L 739.9136142723198 109.18393053784042 L 740.1170113314735 109.2220065872196 L 740.3195559465319 109.26100018364562 L 740.5212278632024 109.30090742779134 L 740.7220069144614 109.34172432896563 L 740.921873022571 109.38344680551235 L 741.1208062010871 109.42607068521863 L 741.3187865568575 109.46959170573203 L 741.5157942920117 109.51400551498674 L 741.7118097059403 109.55930767163885 L 741.9068131972651 109.60549364551046 L 742.1007852657998 109.65255881804268 L 742.2937065144989 109.70049848275747 L 742.4855576513985 109.74930784572828 L 742.6763194915446 109.79898202605952 L 742.8659729589123 109.84951605637454 L 743.0544990883128 109.90090488331242 L 743.2418790272905 109.9531433680333 L 743.4280940380072 110.00622628673223 L 743.6131254991175 110.06014833116157 L 743.7969549076291 110.11490410916183 L 743.9795638807547 110.17048814520082 L 744.1609341577488 110.22689488092126 L 744.341047601735 110.2841186756966 L 744.5198862015191 110.34215380719503 L 744.6974320733899 110.40099447195178 L 744.8736674629084 110.46063478594938 L 745.0485747466824 110.52106878520617 L 745.2221364341294 110.58229042637255 L 745.3943351692252 110.64429358733544 L 745.5651537322398 110.7070720678304 L 745.734575041459 110.77061959006171 L 745.9025821548935 110.8349297993301 L 746.0691582719718 110.89999626466822 L 746.2342867352208 110.96581247948379 L 746.397951031932 111.03237186221013 L 746.5601347958121 111.09966775696446 L 746.7208218086198 111.1676934342134 L 746.8799960017877 111.2364420914459 L 747.0376414580293 111.3059068538535 L 747.1937424129302 111.37608077501788 L 747.348283256525 111.44695683760538 L 747.5012485348581 111.51852795406883 L 747.6526229515291 111.59078696735621 L 747.8023913692226 111.6637266516264 L 747.9505388112217 111.73733971297176 L 748.0970504629055 111.81161879014752 L 748.2419116732309 111.88655645530783 L 748.3851079561977 111.96214521474865 L 748.5266249922969 112.038377509657 L 748.6664486299428 112.11524571686692 L 748.8045648868882 112.19274214962178 L 748.9409599516224 112.27085905834284 L 749.0756201847528 112.34958863140434 L 749.208532120368 112.4289229959146 L 749.3396824673855 112.50885421850326 L 749.4690581108796 112.58937430611468 L 749.596646113394 112.6704752068072 L 749.7224337162347 112.75214881055831 L 749.8464083407462 112.83438695007574 L 749.9685575895693 112.91718140161403 L 750.0888692478811 113.00052388579704 L 750.2073312846159 113.0844060684458 L 750.3239318536687 113.16881956141195 L 750.4386592950799 113.25375592341653 L 750.5515021362008 113.33920666089413 L 750.6624490928415 113.42516322884221 L 750.7714890703986 113.5116170316756 L 750.8786111649655 113.59855942408605 L 750.9838046644217 113.68598171190679 L 751.087059049505 113.77387515298189 L 751.188363994863 113.86223095804047 L 751.2877093700856 113.95104029157567 L 751.3850852407181 114.04029427272812 L 751.4804818692544 114.12998397617412 L 751.5738897161114 114.22010043301803 L 751.665299440582 114.3106346316893 L 751.75470190177 114.40157751884347 L 751.8420881595039 114.49292000026763 L 751.9274494752306 114.58465294178976 L 752.0107773128897 114.67676717019214 L 752.0920633397669 114.76925347412869 L 752.1712994273274 114.86210260504609 L 752.2484776520282 114.95530527810864 L 752.3235902961113 115.04885217312668 L 752.3966298483749 115.14273393548868 L 752.4675890049245 115.23694117709663 L 752.5364606699038 115.33146447730486 L 752.6032379562035 115.42629438386214 L 752.6679141861507 115.52142141385684 L 752.7304828921763 115.61683605466523 L 752.7909378174618 115.71252876490273 L 752.849272916565 115.80848997537807 L 752.9054823560249 115.90471009005016 L 752.959560514944 116.00117948698772 L 753.0115019855517 116.09788851933145 L 753.0613015737441 116.19482751625871 L 753.1089542996041 116.29198678395059 L 753.1544553978986 116.38935660656128 L 753.1978003185557 116.48692724718966 L 753.2389847271195 116.58468894885297 L 753.2780045051836 116.68263193546252 L 753.3148557508025 116.78074641280128 L 753.3495347788826 116.87902256950326 L 753.3820381215496 116.97745057803469 L 753.4123625284967 117.07602059567674 L 753.4405049673082 117.1747227655098 L 753.466462623764 117.27354721739911 L 753.4902329021197 117.37248406898186 L 753.5118134253676 117.47152342665532 L 753.5312020354731 117.57065538656629 L 753.5483967935915 117.66987003560133 L 753.5633959802612 117.76915745237828 L 753.5761980955763 117.86850770823816 L 753.5868018593357 117.96791086823818 L 753.5952062111718 118.06735699214518 L 753.6014103106565 118.16683613542965 L 753.6054135373852 118.26633835026014 L 753.6072154910382 118.36585368649811 M 753.6073271741669 150.0627168384 L 753.6062264419481 150.1622342644769 L 753.602924355364 150.2617417388941 L 753.5974212446206 150.3612293109871 L 753.5897176600243 150.4606870320816 L 753.5798143719272 150.5601049564884 L 753.5677123706498 150.65947314249786 L 753.5534128663822 150.7587816533742 L 753.5369172890629 150.8580205583491 L 753.5182272882358 150.95717993361475 L 753.4973447328855 151.05624986331628 L 753.4742717112501 151.15522044054325 L 753.4490105306126 151.25408176832042 L 753.4215637170698 151.3528239605974 L 753.3919340152804 151.45143714323726 L 753.3601243881899 151.54991145500387 L 753.3261380167344 151.64823704854817 L 753.2899782995228 151.74640409139272 L 753.2516488524965 151.844402766915 L 753.2111535085685 151.9422232753292 L 753.1684963172393 152.03985583466596 L 753.1236815441924 152.13729068175067 L 753.0767136708681 152.23451807317988 L 753.0275973940143 152.33152828629542 L 752.9763376252179 152.42831162015685 L 752.9229394904129 152.52485839651143 L 752.8674083293685 152.621158960762 L 752.8097496951543 152.7172036829323 L 752.7499693535858 152.81298295863027 L 752.6880732826473 152.90848721000808 L 752.6240676718944 153.00370688672018 L 752.5579589218348 153.09863246687829 L 752.4897536432884 153.19325445800345 L 752.4194586567261 153.28756339797545 L 752.3470809915882 153.38154985597882 L 752.2726278855807 153.47520443344615 L 752.1961067839522 153.5685177649977 L 752.1175253387493 153.66148051937805 L 752.0368914080508 153.75408340038928 L 751.9542130551827 153.84631714782046 L 751.8694985479112 153.93817253837366 L 751.7827563576167 154.0296403865864 L 751.6939951584457 154.1207115457501 L 751.6032238264443 154.21137690882472 L 751.5104514386701 154.30162740934946 L 751.4156872722843 154.39145402234956 L 751.318940803625 154.48084776523854 L 751.220221707258 154.56979969871657 L 751.119539855011 154.65830092766447 L 751.0169053149851 154.74634260203308 L 750.9123283505489 154.83391591772835 L 750.8058194193117 154.92101211749164 L 750.6973891720778 155.00762249177563 L 750.5870484517816 155.093738379615 L 750.4748082924032 155.17935116949275 L 750.360679917865 155.26445230020124 L 750.2446747409093 155.3490332616983 L 750.1268043619572 155.43308559595832 L 750.0070805679483 155.51660089781785 L 749.8855153311622 155.59957081581632 L 749.7621208080213 155.6819870530311 L 749.6369093378752 155.7638413679071 L 749.5098934417664 155.84512557508108 L 749.3810858211789 155.92583154620007 L 749.2504993567671 156.00595121073417 L 749.1181471070689 156.08547655678373 L 748.9840423071988 156.1643996318804 L 748.8481983675252 156.24271254378243 L 748.7106288723287 156.3204074612639 L 748.5713475784443 156.3974766148978 L 748.4303684138852 156.47391229783304 L 748.2877054764505 156.54970686656495 L 748.1433730323149 156.62485274169987 L 747.9973855146027 156.69934240871285 L 747.849757521944 156.77316841869933 L 747.7005038170149 156.84632338911982 L 747.5496393250617 156.91880000453818 L 747.3971791324076 156.99059101735335 L 747.2431384849451 157.0616892485238 L 747.0875327866106 157.1320875882857 L 746.930377597844 157.20177899686377 L 746.7716886340334 157.27075650517517 L 746.6114817639428 157.33901321552656 L 746.4497730081259 157.40654230230382 L 746.2865785373235 157.47333701265453 L 746.1219146708465 157.53939066716327 L 745.9557978749444 157.60469666051972 L 745.7882447611585 157.6692484621789 L 745.6192720846605 157.73303961701444 L 745.4488967425771 157.79606374596406 L 745.2771357723005 157.85831454666734 L 745.1040063497849 157.9197857940961 L 744.929525787828 157.98047134117684 L 744.7537115343407 158.0403651194054 L 744.5765811706018 158.0994611394539 L 744.3981524095001 158.15775349176954 L 744.2184430937631 158.21523634716567 L 744.0374711941724 158.2719039574047 L 743.8552548077673 158.32775065577277 L 743.6718121560347 158.38277085764662 L 743.4871615830866 158.4369590610519 L 743.3013215538266 158.49030984721344 L 743.1143106521029 158.54281788109705 L 742.9261475788495 158.5944779119431 L 742.7368511502173 158.64528477379162 L 742.5464402956911 158.69523338599868 L 742.3549340561977 158.74431875374472 L 742.1623515822018 158.79253596853388 L 741.96871213179 158.83988020868486 L 741.774035068746 158.8863467398131 L 741.5783398606139 158.93193091530418 L 741.3816460767515 158.97662817677855 L 741.1839733863733 159.0204340545473 L 740.9853415565834 159.06334416805922 L 740.7857704503996 159.10535422633865 L 740.5852800247659 159.1464600284148 L 740.3838903285579 159.1866574637417 L 740.1816215005774 159.22594251260932 L 739.9784937675386 159.26431124654553 L 739.7745274420456 159.3017598287089 L 739.569742920561 159.3382845142724 L 739.3641606813661 159.37388165079793 L 739.1578012825138 159.40854767860148 L 738.9506853597718 159.44227913110922 L 738.7428336245598 159.47507263520393 L 738.5342668618782 159.50692491156258 L 738.3250059282294 159.53783277498405 L 738.1150717495324 159.56779313470776 L 737.9044853190302 159.5968029947227 L 737.6932676951901 159.6248594540671 L 737.4814399995988 159.65195970711832 L 737.2690234148492 159.67810104387368 L 737.0560391824228 159.7032808502213 L 736.8425086005651 159.7274966082015 L 736.6284530221567 159.7507458962587 L 736.4138938525768 159.77302638948342 L 736.1988525475639 159.79433585984495 L 735.9833506110689 159.81467217641398 L 735.7674095931061 159.83403330557582 L 735.5510510875972 159.85241731123367 L 735.3342967302126 159.86982235500227 L 735.1171681962073 159.8862466963918 L 734.8996871982539 159.90168869298176 L 734.6818754842709 159.9161468005854 L 734.4637548352481 159.92961957340398 L 734.2453470630686 159.94210566417144 L 734.0266740083279 159.95360382428913 L 733.8077575381488 159.96411290395062 L 733.5886195439964 159.97363185225666 L 733.3692819394871 159.9821597173204 L 733.1497666581988 159.98969564636243 L 732.9300956514766 159.99623888579612 L 732.7102908862381 160.00178878130296 L 732.4903743427767 160.00634477789805 L 732.2703680125634 160.0099064199855 L 732.0502938960481 160.0124733514041 L 731.8301740004588 160.01404531546285 L 731.6100303376016 160.01462215496664 L 731.3898849216597 160.014203812232 L 731.1697597669909 160.01279032909284 L 730.9496768859274 160.01038184689634 L 730.7296582865737 160.00697860648864 L 730.5097259706066 160.00258094819102 L 730.2899019310744 159.9971893117656 L 730.0702081501978 159.99080423637156 L 729.8506665971718 159.9834263605111 L 729.6312992259687 159.97505642196563 L 729.412127973143 159.96569525772207 L 729.1931747556373 159.95534380388904 L 728.9744614685907 159.9440030956033 L 728.7560099831497 159.9316742669262 L 728.5378421442811 159.91835855073037 L 728.3199797685866 159.9040572785763 L 728.1024446421224 159.8887718805793 L 727.8852585182198 159.87250388526644 L 727.6684431153102 159.8552549194237 L 727.4520201147533 159.83702670793323 L 727.2360111586687 159.8178210736011 L 727.0204378477722 159.79763993697463 L 726.805321739215 159.77648531615074 L 726.5906843444288 159.75435932657385 L 726.3765471269742 159.73126418082447 L 726.1629315003945 159.70720218839796 L 725.9498588260744 159.68217575547348 L 725.7373504111036 159.6561873846735 L 725.5254275061468 159.62923967481342 L 725.3141113033176 159.60133532064177 L 725.1034229340604 159.5724771125707 L 724.8933834670365 159.542667936397 L 724.6840139060174 159.51191077301345 L 724.4753351877849 159.48020869811072 L 724.267368180037 159.4475648818699 L 724.060133679301 159.41398258864544 L 723.8536524088543 159.37946517663863 L 723.6479450166519 159.34401609756193 L 723.4430320732616 159.30763889629372 L 723.2389340698071 159.2703372105238 L 723.0356714159185 159.23211477038961 L 722.8332644376918 159.1929753981034 L 722.6317333756563 159.15292300756974 L 722.4310983827501 159.1119616039943 L 722.2313795223054 159.0700952834833 L 722.0325967660417 159.02732823263395 L 721.8347699920691 158.98366472811566 L 721.6379189829001 158.93910913624248 L 721.4420634234717 158.89366591253648 L 721.2472228991763 158.8473396012822 L 721.0534168939043 158.80013483507207 L 720.8606647880946 158.75205633434348 L 720.668985856797 158.70310890690635 L 720.4783992677452 158.6532974474627 L 720.288924079439 158.60262693711692 L 720.1005792392396 158.55110244287783 L 719.9133835814738 158.49872911715195 L 719.7273558255515 158.44551219722817 L 719.5425145740933 158.39145700475413 L 719.3588783110703 158.33656894520408 L 719.1764653999558 158.28085350733818 L 718.9952940818888 158.22431626265382 L 718.8153824738501 158.16696286482835 L 718.6367485668509 158.10879904915373 L 718.4594102241326 158.04983063196312 L 718.283385179382 157.99006351004903 L 718.1086910349568 157.92950366007386 L 717.9353452601258 157.8681571379722 L 717.7633651893221 157.80603007834506 L 717.5927680204095 157.74312869384667 L 717.4235708129626 157.67945927456307 L 717.2557904865613 157.6150281873831 L 717.0894438190983 157.54984187536184 L 716.9245474451017 157.4839068570761 L 716.7611178540716 157.41722972597282 L 716.5991713888309 157.3498171497095 L 716.4387242438911 157.28167586948763 L 716.279792463833 157.21281269937842 L 716.1223919417022 157.1432345256415 L 715.9665384174198 157.07294830603627 L 715.8122474762082 157.00196106912614 L 715.659534547033 156.9302799135756 L 715.50841490106 156.8579120074405 L 715.3589036501277 156.78486458745112 L 715.2110157452366 156.71114495828863 L 715.0647659750541 156.6367604918545 L 714.9201689644352 156.56171862653335 L 714.7772391729605 156.4860268664492 L 714.6359908934901 156.409692780715 L 714.4964382507342 156.3327240026757 L 714.3585951998407 156.25512822914496 L 714.2224755249999 156.17691321963545 L 714.0880928380659 156.098086795583 L 713.9554605771953 156.01865683956424 L 713.8245920055037 155.93863129450867 L 713.6955002097393 155.85801816290407 L 713.568198098974 155.7768255059964 L 713.4426984033128 155.69506144298373 L 713.3190136726206 155.61273415020418 L 713.1971562752676 155.52985186031847 L 713.077138396892 155.4464228614865 L 712.9589720391814 155.36245549653862 L 712.8426690186732 155.27795816214137 L 712.7282409655726 155.19293930795774 L 712.6156993225894 155.10740743580237 L 712.5050553437943 155.02137109879112 L 712.3963200934928 154.93483890048603 L 712.2895044451195 154.84781949403484 L 712.18461908015 154.76032158130565 L 712.0816744870336 154.67235391201683 L 711.9806809601438 154.58392528286197 L 711.881648598749 154.49504453663036 L 711.784587306003 154.4057205613225 L 711.689506787954 154.31596228926153 L 711.5964165525746 154.22577869619982 L 711.5053259088108 154.13517880042153 L 711.4162439656512 154.04417166184075 L 711.3291796312157 153.9527663810955 L 711.2441416118653 153.86097209863766 L 711.161138411331 153.76879799381902 L 711.0801783298637 153.6762532839732 L 711.001269463404 153.58334722349412 L 710.9244197027729 153.4900891029104 L 710.8496367328825 153.3964882479563 L 710.7769280319673 153.30255401863943 L 710.7063008708368 153.20829580830437 L 710.6377623121484 153.11372304269364 L 710.5713192097008 153.01884517900496 L 710.5069782077488 152.92367170494566 L 710.444745740339 152.82821213778382 L 710.3846280306665 152.73247602339663 L 710.3266310904519 152.6364729353157 L 710.2707607193408 152.5402124737699 L 710.2170225043242 152.44370426472514 L 710.1654218191783 152.34695795892188 L 710.115963823929 152.2499832309101 L 710.0686534643345 152.15278977808177 L 710.0234954713911 152.0553873197012 L 709.9804943608609 151.95778559593307 L 709.9396544328188 151.8599943668684 L 709.9009797712237 151.7620234115486 L 709.8644742435093 151.66388252698758 L 709.8301415001984 151.565581527192 L 709.7979849745363 151.4671302421799 L 709.7680078821489 151.36853851699777 L 709.7402132207206 151.269816210736 L 709.7146037696942 151.17097319554287 L 709.6911820899936 151.0720193556376 L 709.6699505237672 150.97296458632167 L 709.6509111941538 150.87381879298948 L 709.6340660050706 150.77459189013774 L 709.6194166410226 150.67529380037408 L 709.6069645669337 150.57593445342468 L 709.5967110280012 150.47652378514147 L 709.5886570495703 150.3770717365084 L 709.5828034370323 150.27758825264752 L 709.5791507757434 150.17808328182426 L 709.5776994309667 150.07856677445278" stroke-miterlimit="10" stroke-width="2.5633703640000003" stroke-dasharray=""/></g><g><text fill="black" stroke="none" font-family="sans-serif" font-size="11pt" font-style="normal" font-weight="normal" text-decoration="normal" x="678.1424985792274" y="176.19401590200002" text-anchor="start" dominant-baseline="alphabetic" xml:space="preserve">Integration DB</text></g><path fill="none" stroke="none"/><g><path fill="white" stroke="black" paint-order="fill stroke markers" d=" M 815.1997985051063 140.15604431400004 L 1186.0537985679343 140.15604431400004 L 1186.0537985679343 180.71761066200003 L 815.1997985051063 180.71761066200003 L 815.1997985051063 140.15604431400004 Z" stroke-miterlimit="10" stroke-width="2.4125838720000004" stroke-dasharray=""/></g><g><text fill="black" stroke="none" font-family="sans-serif" font-size="11pt" font-style="normal" font-weight="normal" text-decoration="normal" x="831.5601328871063" y="165.63896146200003" text-anchor="start" dominant-baseline="alphabetic" xml:space="preserve">                                 HPC                                 </text></g></g><g><path fill="white" stroke="black" paint-order="fill stroke markers" d=" M 262.01772491405563 230.477153022 L 277.0963741140556 230.477153022 L 277.0963741140556 649.663600782 L 262.01772491405563 649.663600782 L 262.01772491405563 230.477153022" stroke-miterlimit="10" stroke-width="1.2565541" stroke-dasharray=""/><path fill="white" stroke="black" paint-order="fill stroke markers" d=" M 269.5570495140556 292.299614742 L 284.6356987140556 292.299614742 L 284.6356987140556 334.519832502 L 269.5570495140556 334.519832502 L 269.5570495140556 292.299614742" stroke-miterlimit="10" stroke-width="1.2565541" stroke-dasharray=""/><path fill="white" stroke="black" paint-order="fill stroke markers" d=" M 569.7058545207626 396.342294222 L 584.7845037207626 396.342294222 L 584.7845037207626 607.443383022 L 569.7058545207626 607.443383022 L 569.7058545207626 396.342294222" stroke-miterlimit="10" stroke-width="1.2565541" stroke-dasharray=""/><path fill="white" stroke="black" paint-order="fill stroke markers" d=" M 993.0874739365204 438.56251198200005 L 1008.1661231365204 438.56251198200005 L 1008.1661231365204 480.7827297420001 L 993.0874739365204 480.7827297420001 L 993.0874739365204 438.56251198200005" stroke-miterlimit="10" stroke-width="1.2565541" stroke-dasharray=""/><path fill="white" stroke="black" paint-order="fill stroke markers" d=" M 724.0531747421669 523.0029475020001 L 739.1318239421669 523.0029475020001 L 739.1318239421669 565.2231652620001 L 724.0531747421669 565.2231652620001 L 724.0531747421669 523.0029475020001" stroke-miterlimit="10" stroke-width="1.2565541" stroke-dasharray=""/><g><text fill="black" stroke="none" font-family="sans-serif" font-size="11pt" font-style="normal" font-weight="normal" text-decoration="normal" x="94.3826907879116" y="224.445693342" text-anchor="start" dominant-baseline="alphabetic" xml:space="preserve">resource.create()</text></g><g><path fill="none" stroke="black" paint-order="fill stroke markers" d=" M 52.930991012353516 230.477153022 L 249.60297040605565 230.477153022" stroke-miterlimit="10" stroke-width="1.2565541" stroke-dasharray=""/><g transform="translate(262.01772491405563,230.477153022) translate(-262.01772491405563,-230.477153022)"><path fill="black" stroke="none" paint-order="stroke fill markers" d=" M 249.45218391405564 224.194382522 L 262.01772491405563 230.477153022 L 249.45218391405564 236.759923522 Z"/></g></g><g><text fill="black" stroke="none" font-family="sans-serif" font-size="11pt" font-style="normal" font-weight="normal" text-decoration="normal" x="304.7405643140556" y="266.665911102" text-anchor="start" dominant-baseline="alphabetic" xml:space="preserve">Verify request</text></g><g><path fill="none" stroke="black" paint-order="fill stroke markers" d=" M 277.0963741140556 272.697370782 L 344.9502955140556 272.697370782 L 344.9502955140556 292.299614742 L 297.0504532220556 292.299614742" stroke-miterlimit="10" stroke-width="1.2565541" stroke-dasharray=""/><g transform="translate(284.6356987140556,292.299614742) translate(-284.6356987140556,-292.299614742)"><path fill="black" stroke="none" paint-order="stroke fill markers" d=" M 297.2012397140556 286.016844242 L 284.6356987140556 292.299614742 L 297.2012397140556 298.58238524200004 Z"/></g></g><g><text fill="black" stroke="none" font-family="sans-serif" font-size="11pt" font-style="normal" font-weight="normal" text-decoration="normal" x="304.7405643140556" y="328.488372822" text-anchor="start" dominant-baseline="alphabetic" xml:space="preserve">OK</text></g><g><path fill="none" stroke="black" paint-order="fill stroke markers" d=" M 284.6356987140556 334.519832502 L 344.9502955140556 334.519832502 L 344.9502955140556 354.122076462 L 289.5111286220556 354.122076462" stroke-miterlimit="10" stroke-width="1.2565541" stroke-dasharray="6.03145968"/><g transform="translate(277.0963741140556,354.122076462) translate(-277.0963741140556,-354.122076462)"><path fill="black" stroke="none" paint-order="stroke fill markers" d=" M 289.6619151140556 347.83930596199997 L 277.0963741140556 354.122076462 L 289.6619151140556 360.404846962 Z"/></g></g><g><text fill="black" stroke="none" font-family="sans-serif" font-size="11pt" font-style="normal" font-weight="normal" text-decoration="normal" x="360.30944714211614" y="390.31083454200007" text-anchor="start" dominant-baseline="alphabetic" xml:space="preserve">resource.create()</text></g><g><path fill="none" stroke="black" paint-order="fill stroke markers" d=" M 277.0963741140556 396.342294222 L 557.2911000127626 396.342294222" stroke-miterlimit="10" stroke-width="1.2565541" stroke-dasharray=""/><g transform="translate(569.7058545207626,396.342294222) translate(-569.7058545207626,-396.342294222)"><path fill="black" stroke="none" paint-order="stroke fill markers" d=" M 557.1403135207626 390.059523722 L 569.7058545207626 396.342294222 L 557.1403135207626 402.62506472200005 Z"/></g></g><g><text fill="black" stroke="none" font-family="sans-serif" font-size="11pt" font-style="normal" font-weight="normal" text-decoration="normal" x="730.4693216533485" y="432.53105230200003" text-anchor="start" dominant-baseline="alphabetic" xml:space="preserve">Create resource</text></g><g><path fill="none" stroke="black" paint-order="fill stroke markers" d=" M 584.7845037207626 438.56251198200005 L 980.6727194285204 438.56251198200005" stroke-miterlimit="10" stroke-width="1.2565541" stroke-dasharray=""/><g transform="translate(993.0874739365204,438.56251198200005) translate(-993.0874739365204,-438.56251198200005)"><path fill="black" stroke="none" paint-order="stroke fill markers" d=" M 980.5219329365203 432.279741482 L 993.0874739365204 438.56251198200005 L 980.5219329365203 444.8452824820001 Z"/></g></g><g><text fill="black" stroke="none" font-family="sans-serif" font-size="11pt" font-style="normal" font-weight="normal" text-decoration="normal" x="778.3526558131996" y="474.7512700620001" text-anchor="start" dominant-baseline="alphabetic" xml:space="preserve">OK</text></g><g><path fill="none" stroke="black" paint-order="fill stroke markers" d=" M 993.0874739365204 480.7827297420001 L 597.1992582287626 480.7827297420001" stroke-miterlimit="10" stroke-width="1.2565541" stroke-dasharray="6.03145968"/><g transform="translate(584.7845037207626,480.7827297420001) translate(-584.7845037207626,-480.7827297420001)"><path fill="black" stroke="none" paint-order="stroke fill markers" d=" M 597.3500447207626 474.49995924200005 L 584.7845037207626 480.7827297420001 L 597.3500447207626 487.0655002420001 Z"/></g></g><g><text fill="black" stroke="none" font-family="sans-serif" font-size="11pt" font-style="normal" font-weight="normal" text-decoration="normal" x="615.4938399944042" y="516.9714878220001" text-anchor="start" dominant-baseline="alphabetic" xml:space="preserve">Save state</text></g><g><path fill="none" stroke="black" paint-order="fill stroke markers" d=" M 584.7845037207626 523.0029475020001 L 711.6384202341669 523.0029475020001" stroke-miterlimit="10" stroke-width="1.2565541" stroke-dasharray=""/><g transform="translate(724.0531747421669,523.0029475020001) translate(-724.0531747421669,-523.0029475020001)"><path fill="black" stroke="none" paint-order="stroke fill markers" d=" M 711.4876337421668 516.7201770020001 L 724.0531747421669 523.0029475020001 L 711.4876337421668 529.2857180020001 Z"/></g></g><g><text fill="black" stroke="none" font-family="sans-serif" font-size="11pt" font-style="normal" font-weight="normal" text-decoration="normal" x="643.8355062160228" y="559.191705582" text-anchor="start" dominant-baseline="alphabetic" xml:space="preserve">OK</text></g><g><path fill="none" stroke="black" paint-order="fill stroke markers" d=" M 724.0531747421669 565.2231652620001 L 597.1992582287626 565.2231652620001" stroke-miterlimit="10" stroke-width="1.2565541" stroke-dasharray="6.03145968"/><g transform="translate(584.7845037207626,565.2231652620001) translate(-584.7845037207626,-565.2231652620001)"><path fill="black" stroke="none" paint-order="stroke fill markers" d=" M 597.3500447207626 558.9403947620001 L 584.7845037207626 565.2231652620001 L 597.3500447207626 571.505935762 Z"/></g></g><g><text fill="black" stroke="none" font-family="sans-serif" font-size="11pt" font-style="normal" font-weight="normal" text-decoration="normal" x="412.8177813019672" y="601.411923342" text-anchor="start" dominant-baseline="alphabetic" xml:space="preserve">OK</text></g><g><path fill="none" stroke="black" paint-order="fill stroke markers" d=" M 569.7058545207626 607.443383022 L 289.5111286220556 607.443383022" stroke-miterlimit="10" stroke-width="1.2565541" stroke-dasharray="6.03145968"/><g transform="translate(277.0963741140556,607.443383022) translate(-277.0963741140556,-607.443383022)"><path fill="black" stroke="none" paint-order="stroke fill markers" d=" M 289.6619151140556 601.1606125220001 L 277.0963741140556 607.443383022 L 289.6619151140556 613.726153522 Z"/></g></g><g><text fill="black" stroke="none" font-family="sans-serif" font-size="11pt" font-style="normal" font-weight="normal" text-decoration="normal" x="146.89102494776267" y="643.632141102" text-anchor="start" dominant-baseline="alphabetic" xml:space="preserve">OK</text></g><g><path fill="none" stroke="black" paint-order="fill stroke markers" d=" M 262.01772491405563 649.663600782 L 65.34574552035352 649.663600782" stroke-miterlimit="10" stroke-width="1.2565541" stroke-dasharray="6.03145968"/><g transform="translate(52.930991012353516,649.663600782) translate(-52.930991012353516,-649.663600782)"><path fill="black" stroke="none" paint-order="stroke fill markers" d=" M 65.49653201235351 643.380830282 L 52.930991012353516 649.663600782 L 65.49653201235351 655.946371282 Z"/></g></g></g></g></svg>