<svg viewBox="0 0 24 24" xmlns="http://www.w3.org/2000/svg" fill-rule="evenodd" clip-rule="evenodd" stroke-linejoin="round" stroke-miterlimit="1.414"><path d="M9.88 22.587v-2.824h11.293V2.822H7.056v4.235H4.232V2.123c0-1.183.946-2.125 2.115-2.125h15.535c1.162 0 2.115.952 2.115 2.125v18.339a2.113 2.113 0 0 1-2.115 2.125H9.879z" fill="#53657d"/><path d="M9.88 7.057h8.47V8.47H9.88V7.057zm0 2.824h8.47v1.411H9.88V9.881zm4.234 2.823h4.236v1.412h-4.236v-1.412z" fill="#8393a7"/><path d="M7.056 16.94v7.058H2.82V16.94H-.003l4.94-7.1 4.942 7.1H7.056z" fill="#53657d"/></svg>